<?xml version="1.0" encoding="utf-8"?>
<!-- Generator: Adobe Illustrator 22.1.0, SVG Export Plug-In . SVG Version: 6.00 Build 0)  -->
<svg version="1.1" id="Layer_1" xmlns="http://www.w3.org/2000/svg" xmlns:xlink="http://www.w3.org/1999/xlink" x="0px" y="0px"
	 viewBox="0 0 612 792" style="enable-background:new 0 0 612 792;" xml:space="preserve">
<style type="text/css">
	.st0{fill:none;}
	.st1{opacity:1;}
	.st2{font-family:'ArialMT';}
	.st3{font-size:12.027px;}
	.st4{font-size:11.7603px;}
	.st5{font-size:6.6816px;}
</style>
<g>
	<g>
		<g>
			<path d="M272.9,2.6c-3,0-3,0-3,3c0,0.3,0,0.7,0,1c-0.1,11.9-0.2,24.1-0.4,35.9c0,1.4-0.1,2.9,0,4.3c0.1,0.9,0.8,1.7,1.7,1.8
				c2.6,0.1,5.3,0.1,7.9,0.1c2.2,0,2.2,0.1,2.2,2.3c0,0.3,0,0.7,0,1c-0.4,40.8-0.8,81.4-1.2,122.3c0,0.5,0,1,0,1.5
				c-0.1,1.6-0.1,1.7-1.8,1.7c-2.4,0-4.8,0-7.2-0.1c-3.4,0-3.4,0-3.5,3.4c-0.2,20.6-0.4,41.1-0.6,61.7c0,0.5,0,1,0,1.5
				c0.1,1.7,0.4,2,2.1,2c2.3,0.1,4.5,0,6.8,0.1c1.8,0,3.3,1.6,3.3,3.4c-0.4,39.4-0.8,78.7-1.2,118.1c0,3.6,0.2,3.3-3.5,3.3
				c-23.4-0.2-46.9-0.5-70.3-0.7c-3.2,0-3.2,0-3.3,3.4c0,0.5,0,1,0,1.5l-0.8,81.9c-0.3,27.4-0.5,54.9-0.8,82.3c0,0.7,0,1.3,0,2
				c-0.1,1-0.9,1.9-1.9,1.8c-3.5,0-7-0.1-10.5-0.1c-2.3,0-2.3,0-2.4,2.4c-0.2,21-0.4,42-0.6,63c0,2.5,0.2,2.6,2.7,2.7
				c3.2,0,6.4,0.1,9.5,0.1c2.4,0,2.4,0,2.4,2.6c0,0.2,0,0.3,0,0.5c-0.4,40.2-0.8,80.4-1.2,120.6c0,0.6,0,1.2,0,1.7
				c0,0.9-0.5,1.2-1.2,1.2c-1,0-2,0-2.9,0c-2.3-0.1-4.7-0.1-7-0.1c-3.5,0-3.5-0.4-3.6,2.3c0,0.2,0,0.3,0,0.5c-0.1,14-0.3,28-0.4,42
				c0,0.5,0,1,0,1.5c0,0.8,0.4,1.2,1.2,1.2c0.7,0,1.3,0,2,0c11.7,0.1,23.3,0.2,35,0.4c28.5,0.3,57.1,0.6,85.6,0.9c2.9,0,2.9,0,3-3
				c0-0.1,1,0,1,0l0.4-40.8c-0.1-0.5-0.1-1-0.2-1.5c-0.1-1.6-0.4-1.9-1.9-2c-2-0.1-3.9,0-5.9-0.1c-3.8,0-3.5,0.3-3.5-3.5
				c0.4-40.1,0.8-80.2,1.2-120.3c0-0.6,0-1.2,0-1.7c0.1-1.6,0.1-1.7,1.7-1.7c2.4,0,4.9,0.1,7.4,0.1c3.4,0,3.7-3.2,3.7-3.2
				s0.4-41.1,0.6-61.4c0-0.4,0-0.8,0-1.3c0-1.9-0.1-2-2-2c-2.4-0.1-4.7,0-7.1-0.1c-3.9,0-3.1,0.2-3.2-4.7
				c-0.7-39.3,0.1-78.6,1.2-117.9c0.1-4.6-0.5-4.3,3.3-4.3c27.9,0.3,55.9,0.6,83.8,0.9c0.7,0,1.3,0,2,0c1.8,0,1.9-0.1,2-2
				c0.1-3.7,0.1-7.3,0.1-11c0.1-10,0.2-20,0.3-30c0-2.5,0-2.5-2.5-2.5c-3,0-6-0.1-9.1-0.1c-2.6,0-2.6,0-2.7-2.8c0-0.3,0-0.5,0-0.7
				c0.4-39.8,0.8-79.6,1.2-119.7c0-0.5,0-1,0-1.5c0.1-1.9,0.2-1.9,2.1-1.9c3.6,0,7.2,0.1,10.8,0.1c2.2,0,2.4-0.2,2.5-2.4
				c0.2-21.2,0.4-42.4,0.6-63.5c0-2.2,0-2.3-2.2-2.3c-3.7,0-7.4-0.1-11.1-0.1c-1.9,0-1.9-0.1-2-2c0-0.3,0-0.7,0-1
				c0.4-40.6,0.8-81,1.2-121.6c0-0.6,0-1.2,0-1.7c0-0.8,0.4-1.2,1.3-1.2c1,0,2,0,3,0c2,0.1,3.9,0.1,5.9,0.1c4.1-0.2,4.1,0.5,4.2-2.3
				c0-0.2,0-0.3,0-0.5c0.1-13.4,0.3-26.8,0.4-40.2c0-0.5,0-1,0-1.5c0-0.8-0.4-1.2-1.2-1.2c-0.7,0-1.3,0-2,0
				c-12-0.1-23.9-0.2-35.8-0.4C330.3,3.2,301.5,2.9,272.9,2.6z M288.8,412.9c0.3,0.7,0.2,1.1-0.6,1.2c-0.6,0.1-1.1,0-1.7,0
				c-0.8,0-1.1-0.5-1.2-1.3c-0.2-1.8,0-2.3,1.5-2.7c-0.3-0.4-0.6-0.5-1-0.6c-1-0.4-1.5-0.1-1.4,1.1c0,0.2,0,0.4,0,0.7
				c-0.2,3.1,0.2,2.7-3.1,2.8c-0.2,0-0.4,0-0.6,0c-2.6-0.2-2.7,0.1-2.7-2.2c0.1-6.3,0.1-12.7,0.2-19.1c0-0.6,0-1.2,0-1.7
				c0-1.7-0.4-2.1-2-2c-1.2,0.2-2.2-0.6-3.4-0.4c0.9,0.8,2.1,1,3.1,1.4c2.2,0.8,1,2.7,0,9c-0.6,3.5-0.3,7,0.6,10.4
				c0.9,3.4,0.6,4.6-1.2,4.5c-0.5,0-1,0-1.5,0c-22.5-0.2-45.1-0.5-67.7-0.7c-3.3,0-3,0-3-3.2c0.1-11.5,0.2-23,0.3-34.5
				c0-0.5,0-1,0-1.5c-0.1-1,0.4-1.6,1.5-1.5c0.5,0,1,0,1.5,0c22.6,0.2,45.3,0.5,67.9,0.7c0.2,0,0.3,0,0.5,0c2.5,0,2.5,0,2.5,2.5
				c0,0.9-0.1,1.9,0,2.7c0.1,1.3-0.5,1.8-1.7,2.1c-1.6,0.4-3.3,0.2-4.9,0.1c-3.1,0-3.7-0.2-2.5,3.8c0.1,0.3,0.4,0.5,0.6,0.8
				c-0.4-3-0.4-3,2.7-3c1.7,0,3.4,0,5.1-0.3c1.5-0.3,1.7-1,1.5-2.7c-0.1-0.6-0.1-1.2,0-1.8c0.3-4-0.3-4.1,2-4.2c0.3,0,0.5,0,0.7,0
				c3.5,0,3.5,0,3.8,3.5c0.1,1.5,0.1,1.5,1.5,1.1c-0.5-0.4-0.5-1-0.4-1.6c0.1-1,0.2-2,0.2-3c0-0.5-0.4-1.3-0.2-1.7
				c0.5-0.6,1.4-0.3,2.1-0.2c1.7,0,3.4,0,5.2,0.1c0.7,0,1.2,0.3,1,1.1c-0.4,1.2-0.4,2.5-0.4,3.7c0,1-0.7,1.3-1.4,1.3
				c0.2,0.4,0.6,0.5,1,0.7c0.9,0.4,1.4,0.1,1.5-0.9c0-0.2,0-0.3,0-0.5c0.2-3.3,0.2-3.3,3.4-3.3c29.8,0.3,59.5,0.6,89.3,0.9
				c3.6,0,3.3-0.2,3.2,3.5c-0.1,11.3-0.2,22.6-0.3,33.9c0,0.5,0,1,0,1.5c-0.1,1.7-0.1,1.7-1.9,1.8c-0.4,0-0.8,0-1.2,0
				c-29.9-0.3-59.7-0.6-89.6-0.9c-0.3,0-0.5,0-0.7,0c-2.5,0-2.5,0-2.5-2.5c0-0.8,0.4-1.9-0.4-2.3c-0.8-0.3-2,0.1-2.5,1.2
				c0.7,0.2,1.6-1.1,1.9,0.6c0.3,1.7-0.1,2.7-1,2.9c-1.3,0.3-2-0.1-2.4-1.5c-0.9-0.9-1.3-2.4-2.9-2.6
				C287.3,411.2,288.4,411.7,288.8,412.9z M295.8,372.3c0.1-0.9,1.2-0.5,1.8-0.6c0.3,0,0.7,0,1,0.1c0.4,0.1,0.8,0.3,0.7,0.8
				c-0.1,0.4-0.3,0.5-0.7,0.6s-0.7,0.1-1,0.1C296.9,373,295.7,373.5,295.8,372.3z M281.5,414.6c0.8,0.2,2.1-0.3,2.1,0.8
				c0,1.1-1.2,0.7-2,0.7s-2,0.4-2-0.8C279.6,414.1,280.9,414.9,281.5,414.6z M278.8,428c0,0.5-0.1,1.1-0.7,1.1
				c-0.7,0-0.7-0.6-0.7-1.1c0-3.4,0.1-6.8,0.1-10.2c0-0.5,0.2-1,0.3-1.5c0.1-0.5,0.1-1.2,0.7-1.1c0.6,0.1,0.3,0.8,0.3,1.3
				c0,1.8,0,3.7-0.1,5.5l0,0C278.8,424.1,278.8,426,278.8,428z M203.8,458.4c-2.7,0-2.7,0-2.7-2.8c0.1-12.8,0.3-25.7,0.4-38.6
				c0-0.5,0-1,0-1.5c0-0.8,0.4-1.3,1.2-1.3c0.7,0,1.3,0,2,0c23,0.2,46.1,0.5,69.1,0.7c1,0,2.1-0.6,2.9,0.6c-0.9,0.7-1.8,0.4-2.7,0.4
				c-22.7-0.2-45.4-0.5-68.1-0.7c-3.5,0-3.3-0.2-3.3,3.4c-0.1,11.6-0.2,23.2-0.3,34.8c0,0.7,0,1.3,0,2c0,0.9,0.4,1.4,1.4,1.4
				c0.6,0,1.1,0,1.7,0c22.9,0.2,45.9,0.5,68.8,0.7c3.1,0,3.1,0,3.1-3.1c0-3.3,0.1-6.7,0.1-10c0-0.6,0-1.1,0.1-1.7
				c0-0.2,0.3-0.4,0.5-0.5c0.4-0.1,0.7,0.1,0.7,0.5c0.1,0.6,0.1,1.1,0.1,1.7c0,3.9-0.1,7.8-0.1,11.8c0,2.8,0,2.8-2.7,2.8
				c-12.1-0.1-24.2-0.3-36.3-0.4C227.7,458.6,215.8,458.5,203.8,458.4z M277.8,459.8c0.5,0,0.6,0.4,0.7,0.9c0,1.7,0,3.5-0.1,5.2
				c0,1.7,0,3.5-0.1,5.2c0,0.5-0.2,0.9-0.7,0.9c-0.5,0-0.6-0.4-0.7-0.9c0-3.5,0.1-6.9,0.1-10.4C277.1,460.2,277.3,459.8,277.8,459.8
				z M204.4,501.5c-0.5,0-1,0-1.4,0c-2.2-0.1-2.2-0.1-2.2-2.3c0.1-12.7,0.2-25.4,0.4-38.1c0-0.5,0-1,0.1-1.5c0-0.2,0.2-0.5,0.5-0.4
				c0.1,0.1,0.3,0.2,0.3,0.3c0.1,1.3,0.1,2.7,0,4c-1.2,10.1-1.5,20.4-0.3,30.5c0.1,1.3,0,2.5,0.1,3.8c0,2.3,0.2,2.5,2.5,2.6
				c9.9,0.1,19.7,0.2,29.7,0.3c13.1,0.1,26.3,0.3,39.5,0.4c0.4,0,0.8,0,1.2,0c2,0,2.1-0.1,2.1-2.1c0-3.8,0.1-7.7,0.1-11.5
				c0-0.7-0.4-2.1,0.6-2.1c1.3,0,0.8,1.4,0.8,2.2c0,4,0,8-0.1,12c0,2.5,0,2.5-2.4,2.5c-12.1-0.1-24.2-0.3-36.3-0.4
				C227.7,501.7,216.1,501.6,204.4,501.5z M277.3,502.6c0.7,0,0.7,0.5,0.7,1.1c0,1.7,0,3.5-0.1,5.2l0,0c0,1.7,0,3.3,0,4.9
				c0,0.5-0.1,0.9-0.7,0.9c-0.5,0-0.7-0.4-0.7-0.8c0-3.5,0.1-6.9,0.1-10.4C276.7,503.1,276.8,502.6,277.3,502.6z M200.3,541.5
				c0-4.7,0.1-9.5,0.1-14.3c0.1-7.7,0.2-15.4,0.2-23.1c0-0.6-0.2-1.7,0.4-1.7c1,0,0.6,1.2,0.6,1.8c-0.1,12-0.2,24.1-0.4,36.1
				c0,3.5-0.2,3.3,3.2,3.7H273c0,0,0.5,0.3,0.7,0.3c2.5,0,2.5,0,2.5-2.4c0-3.5,0.1-7,0.1-10.5c0-0.5,0-1,0-1.5
				c0-0.5-0.1-1.3,0.7-1.3c0.8,0,0.6,0.8,0.6,1.4c0,4.6-0.1,9.2-0.1,13.8c0,1.1-0.4,1.7-1.6,1.7c-0.7-0.1-1.3,0-2-0.4h-35.3
				c-11.8-0.1-23.7-0.2-35.5-0.4C200.2,544.5,200.2,544.7,200.3,541.5z M186.8,610c-2.3,0-2.4,0-2.3-2.4c0.1-9.1,0.5-27.3,0.5-27.3
				l1-3.7v-29.8c0,0-0.9-1.3-0.9-2c0-0.9,0.4-1.4,1.3-1.4c3.9,0,7.8,0.1,11.8,0.1c0.3,0,0.7,0,0.7,0.5c0,0.5-0.4,0.5-0.7,0.5
				c-2.7,0-5.4-0.1-8.1,0c-0.7,0-1.5-0.1-2.2,0c-1.5,0.1-1.8,0.4-1.9,2c0,0.5,0.1,1.5,0.1,1.5v57.6c0,0-0.8,0.9-0.7,1.3
				c0,2,0.3,2.3,2.3,2.3c2.9,0.1,5.7,0.1,8.6,0.1c0.6,0,1.1,0.1,1.7,0.2c0.1,0,0.3,0.2,0.3,0.3c0,0.1-0.1,0.3-0.3,0.3
				c-0.5,0.1-1,0.1-1.4,0.1C193.3,610.1,190,610.1,186.8,610z M271.6,558.5c-0.8,7.7,1.3,5.8-5.3,6.4c-0.1,0-0.3,0-0.3,0
				c-1.2-0.3-2.1,0.1-1.9,1.1c0.2,1.2,0.2,2.5,1.4,3.3c-0.9-3.5-0.9-3.4,2.6-3.5c1.4-0.1,2.9,0.6,4.2-0.2c0.5-0.3,0.9,0.2,0.9,0.8
				c0,1.7,0,3.3,0,5c0,0.5-0.3,0.6-0.8,0.7c-1.3,0.2-2.5,0.1-3.8-0.5c-0.6-0.3-1.1-0.7-1.8-0.7c0.6,1.3,1.9,1.4,3.1,1.8
				c1.2,0.5,1.7,1.8,1.1,3c-0.2,0.5-0.5,0.6-1,0.6c-0.7,0-1.3,0.1-2,0c-26.2-0.3-52.4-0.5-78.6-0.8c-3.3,0-3.1,0.2-3.1-3.4
				c0.1-7.8,0.2-15.7,0.2-23.5c0-0.5,0-1,0-1.5c0.1-1.5,0.2-1.6,1.8-1.7c0.5,0,1,0,1.4,0c26.1,0.3,52.2,0.5,78.3,0.8
				c4.4,0,2.7-0.4,3.3,7.7C271.8,555.5,271.8,557,271.6,558.5z M273,546.5c0.2,0,0.5,0.2,0.5,0.4c0.1,0.4,0.1,0.8,0.1,1.2
				c0,4.7-0.1,9.3-0.1,14c0,0.6,0.2,1.6-0.7,1.6c-0.9,0-0.7-0.9-0.7-1.6c0-2.3,0-4.7,0.1-7c0-2.3,0-4.5,0.1-6.7c0-0.5,0.1-1,0.1-1.5
				C272.5,546.7,272.8,546.5,273,546.5z M265.8,583c-1.9,0-2,0.4-1.3,2.5c0-0.9,0.2-1.4,1.3-1.5c2.3-0.1,4.6,0.3,6.8-0.2
				c0.5-0.1,0.7,0.3,0.7,0.7c0,2,0,3.9-0.1,5.9c0,0,0,0.1-0.1,0.1c-1.3,0-2.5,0-3.9,0c3,1.6,1.3,0.7,2.2,10.3c0,0.1,0,0.3,0,0.5
				c-1.1,8.1,0.6,8.2-2.5,8.3c-5.4-0.1-10.8-0.1-16.1-0.2c-21.2-0.2-42.3-0.4-63.4-0.7c-3.1,0-3.1,0-3-3.2
				c0.1-8.1,0.2-16.2,0.2-24.3c0-0.6,0-1.1,0-1.7c0-0.9,0.5-1.3,1.4-1.3c0.6,0,1.1,0,1.7,0c26.2,0.3,52.4,0.5,78.6,0.8
				c0.3,0,0.7,0,1,0c2,0.1,2.1,0.2,2,2.2c-0.1,1.6-0.1,1.7-1.7,1.8C268.5,583,267.1,582.9,265.8,583z M272.5,592.1
				c0.2,0,0.5,0.2,0.5,0.4c0.1,0.4,0.1,0.8,0.1,1.2c0,4.7-0.1,9.3-0.1,14c0,0.6,0.2,1.6-0.7,1.6c-0.9,0-0.7-0.9-0.7-1.6
				c0-2.3,0-4.7,0.1-7c0-2.3,0-4.5,0.1-6.7c0-0.5,0.1-1,0.1-1.5C272,592.3,272.4,592.1,272.5,592.1z M272,581.6c0-1.3,0-2.7,0-3.9
				c0-1.1,0-2.3,0-3.5c0-0.4,0.3-0.6,0.7-0.6c0.3,0,0.7,0.3,0.6,0.6c0,2.5,0,4.9-0.1,7.4c0,0.4-0.3,0.6-0.7,0.6
				C272.3,582.2,272.1,582,272,581.6z M254.3,578.2c-8.6-0.1-17.1-0.2-25.7-0.3c-13.1-0.1-26.3-0.3-39.4-0.4c-0.8,0-1.6-0.1-2.4-0.2
				c-0.1,0-0.4-0.3-0.4-0.5s0.2-0.5,0.4-0.5c0.8-0.1,1.6-0.1,2.4-0.1c22.9,0.2,45.7,0.5,68.5,0.7c3.6,0,7.2,0.1,10.8,0.1
				c0.4,0,0.8,0,1.2,0c0.6,0.1,1.6-0.2,1.6,0.7c0,0.8-0.9,0.7-1.6,0.7C264.6,578.3,259.4,578.2,254.3,578.2z M202.3,653.9
				c-0.3,0-0.5,0-0.7,0c-3-0.1-1.9-0.1-2.3-6c-0.6-11.1-0.6-22.2,0.3-33.3c0.4-5.6-0.7-5.7,2.6-5.7c12.1,0.1,24.2,0.3,36.3,0.4l0,0
				c11.8,0.1,23.5,0.2,35.3,0.4c0.6,0,1.2,0,1.7,0c1.6,0.1,1.6,0.2,1.7,1.8c0,3.7-0.1,7.4-0.1,11.1c0,0.2,0,0.3,0,0.5
				c-0.1,0.5-0.1,1.1-0.8,1c-0.5-0.1-0.6-0.5-0.6-0.9c0-2.4,0-4.8-0.1-7.2c-0.1-1,0-1.9,0.1-2.9c0.1-1.3-0.4-1.9-1.6-1.9
				c-0.6,0-1.1,0-1.7,0c-22.9-0.2-45.7-0.5-68.6-0.7c-3.1,0-3.1,0-3.1,3.1c-0.1,11.8-0.2,23.6-0.3,35.3c0,0.6,0,1.2,0,1.8
				c0,0.9,0.8,1.7,1.7,1.7c0.5,0,1,0,1.4,0c22.9,0.2,45.9,0.5,68.8,0.7c0.1,0,0.3,0,0.5,0c2.4,0,2.5,0,2.5-2.5
				c0-3.8,0.1-7.5,0.1-11.4c0-0.6-0.2-1.6,0.7-1.6c0.9,0,0.7,1,0.7,1.6c0,4.5-0.1,8.9-0.1,13.4c0,1.9-0.1,1.9-2,1.9
				c-11.9-0.1-23.8-0.2-35.7-0.4c-0.6,0-1.2,0-1.7-0.3c-0.8-0.5-1.4-0.9-2.2-0.2c-0.1,0.1-0.2,0.1-0.2,0.1c-2.1-0.8-4.3,0.4-6.4,0.3
				C219.7,654.1,211,654,202.3,653.9z M201.8,696.6c-0.6,0-1.1,0-1.7,0c-0.9,0-1.3-0.5-1.3-1.4c0-0.4,0-0.8,0-1.3
				c0.1-12.4,0.2-24.9,0.4-37.3c0-0.7-0.4-2.1,0.5-2.1c0.9,0,0.4,1.3,0.4,2.1c-0.1,11.5-0.2,23.1-0.3,34.5c0,0.7,0,1.3,0,2
				c0.1,1.6,0.4,1.9,1.9,2c0.5,0.1,1,0,1.4,0c22.9,0.2,45.7,0.5,68.5,0.7c1.7,0,3.1-1.4,3.1-3.1c0-3.3,0.1-6.7,0.1-10
				c0-0.6,0.1-1.1,0.1-1.7c0-0.2,0.2-0.5,0.5-0.5c0.4-0.1,0.7,0.1,0.7,0.5c0.1,0.5,0.1,1,0.1,1.5c0,4.1-0.1,8.4-0.1,12.5
				c0,2.3-0.1,2.3-2.4,2.3c-12.2-0.1-24.3-0.3-36.5-0.4C225.5,696.8,213.6,696.7,201.8,696.6z M198.4,737c0-0.7-0.1-1.3,0-2
				c0.1-5.8,0.1-11.7,0.2-17.5c0.1-5.7,0.1-11.4,0.2-17c0-0.7,0-1.3,0-2c0-0.3,0.1-0.8,0.4-0.8c0.6-0.1,0.5,0.5,0.5,0.9
				c0.1,0.6,0,1.1,0,1.7c-0.1,8.9-0.2,17.8-0.3,26.7c0,2.7-0.1,5.5-0.1,8.3c0,0.6,0,1.1-0.1,1.7c0,0.3-0.1,0.5-0.5,0.5
				C198.5,737.6,198.4,737.3,198.4,737z M278.5,737c-1.9,0-1.9-0.1-1.9-2c0-4.1,0.1-8.1,0.1-12.2c0-2,0-1.9-1.9-2.5
				c-1.3-0.4-2.6-0.2-3.9-0.3c-0.6,0-1.2,0-1.6-0.5c-0.7,0.7-0.6,1.3,0.3,1.4c1,0.2,1.9,0.2,2.9,0.1c1.5,0,2,0.6,1.3,3.3
				c0,3.2-0.1,6.2-0.1,9.3c0.6,2.3,0.4,3.4-1,3.4c-0.6,0-1.3,0-1.9,0c-22.2-0.2-44.3-0.5-66.6-0.7c-3.4,0-3.1,0.2-3.1-3.3
				c0.1-11.3,0.2-22.6,0.3-33.9c0-0.5,0-1,0-1.5c-0.1-1.1,0.4-1.7,1.6-1.6c0.6,0,1.1,0,1.7,0c22.2,0.2,44.3,0.5,66.6,0.7
				c3.8,0,3-0.3,3.1,4.7c0,1.3,0,2.7,0,4c-0.1,4.3,0.4,4.3-2.5,4.3c-0.1,0-0.3,0-0.5,0c-0.8,0.1-1.7-0.4-2.2,0.6
				c-0.4,0.9,0,1.7,0.8,2.4c-0.1-1.3,0.7-1.5,1.7-1.5c1.4,0.1,2.7,0,4.1-0.4c0.8-0.3,0.6-1.4,0.6-1.4s0-1.5,0.7-1.5l0.3-25.8
				c-0.1-0.5-0.2-1-0.1-1.5c0-0.9-0.3-1.3-1.2-1.6c-1.3-0.4-2.6-0.4-3.9-0.5c-0.8,0-1.6,0.3-2.3-0.5c-0.7,0.7-0.6,1.3,0.3,1.4
				c1,0.2,2,0.2,3,0.1c1.5,0,2,0.6,1.3,3.3c-0.1,3.1-0.1,6.1-0.2,9.2c0.7,2.4,0.5,3.6-1,3.6c-0.6,0-1.1,0-1.7-0.4l-67.7-0.7
				c-3.2,0.3-3.2,0.5-3.1-2.8c0.1-11.5,0.2-22.9,0.3-34.4c0-0.6,0-1.1,0-1.7c0-0.9,0.4-1.4,1.3-1.4c0.4,0,0.8,0,1.2,0
				c8.7,0.1,17.4,0.2,26,0.3c0.7,0,1.4-0.1,1.9,0.4c0.3-0.1,0.7-0.1,1.1-0.1c0.1,0,0.3,0.1,0.4,0.1c-0.1-0.1-0.1-0.1-0.1-0.1
				c0.1-0.1,0.3-0.1,0.4-0.1c0.1,0,0.1,0.1,0.2,0.1c-0.1,0.1-0.3,0.1-0.4,0.1c0.3,0.1,0.7,0.1,1,0.1c0.2,0,0.5,0.1,0.7,0.1l0.3,0.1
				c0.6,0.1,1.2,0.1,1.8,0.3c0.5-0.9,1.3-0.9,2.2-0.8c6.2,0.1,12.3,0.1,18.4,0.2c5,0.1,10,0.1,15,0.2c2.2,0,2.2,0.1,2.1,2.3
				c0,2.8-0.1,5.7-0.1,8.5c0,2.1-0.1,2.1-2.1,2.2c-0.3,0-0.7,0-1,0c-0.8,0.1-1.8-0.4-2.2,0.6c-0.4,0.9,0,1.7,0.8,2.4
				c0-1.9,0-1.9,1.9-2c1,0,2.1,0.1,3.1-0.2c1.8-0.4,1.9-0.3,1.9-2.2c0-4.1,0.1-8.2,0.1-12.3c0.1-5.4,0.1-10.9,0.2-16.3
				c0-2,0-1.9-1.9-2.5c-1.3-0.4-2.6-0.2-3.9-0.3c-0.6,0-1.2,0-1.6-0.5c-0.7,0.7-0.6,1.3,0.3,1.4c1,0.2,2,0.2,3,0.1
				c1.5,0,2,0.6,1.3,3.3c-0.1,3.1-0.1,6.1-0.2,9.2c0.7,2.4,0.5,3.6-1,3.6c-0.5,0-1.4,0.1-1.4,0.1s-45.4-0.5-68-0.7c-0.3,0-0.7,0-1,0
				c-1.8-0.1-1.9-0.2-1.9-2.1c0.1-5.4,0.1-10.7,0.2-16c0.1-6.7,0.1-13.3,0.2-20.1c0-2.4,0-2.4,2.3-2.4c23,0.2,46.1,0.5,69.1,0.7
				c2.1,0,2.2,0.1,2.1,2.3c0,2.8-0.1,5.7-0.1,8.5c0,2.1-0.1,2.1-2.1,2.2c-0.3,0-0.7,0-1,0c-0.8,0.1-1.8-0.4-2.2,0.6
				c-0.4,0.9,0,1.7,0.8,2.4c0-1.9,0-1.9,1.6-2c1.3,0,2.7,0,4-0.2c0.8-0.2,1.3-0.9,1.3-1.6l0.1-13.1c0-1.2-0.5-1.7-1.6-1.6
				c-0.4,0-0.8,0-1.2-0.1c-0.7-0.1-1-0.5-1-1.2c0-0.6,0-1.1,0-1.7c0.2-19.2,0.4-38.3,0.6-57.5c0-0.4,0-0.8,0-1.3
				c-0.1-1,0.3-1.5,1.4-1.6c2.5-0.2,2.6-0.3,2.6-2.8c0-4.7,0.1-9.4,0.1-14c0-2.1-0.4-2.6-2.5-2.7c-0.9-0.1-1.8,0-2.7,0
				c-1.6,0-1.6,0-1.6-2c-0.5,0.3-0.7,0.9-0.9,1.5c-0.2,0.9,0.1,1.5,1,1.6c0.9,0.1,1.8,0.1,2.7,0c1.2,0,1.7,0.5,1.4,2.3
				c0,3.5-0.1,7-0.1,10.5c0.3,1.7,0.1,2.8-1.3,2.7c-0.5,0-1,0-1.4,0c-22.6-0.2-45.1-0.5-67.7-0.7c-3,0-3,0-3-3
				c0.1-11.4,0.2-22.7,0.3-34.1c0-0.4,0-0.8,0-1.3c0.1-1.6,0.1-1.7,1.7-1.8c0.1,0,0.1,0,0.3,0c9,0.1,18.2,0.2,27.2,0.3
				c1,0,1.6,0.2,1.7,1.2c0.3-0.1,0.6-0.1,0.9-0.1h0c0,0,0.7,0.9,1,0.8c0.3-0.1,0.5-0.1,0.7-0.1c0-0.1,0-0.1,0.1-0.2
				c0.1,0.1,0.1,0.5,0.1,0.5h0.1c0,0,1.2-0.6,1.8-0.6c0.2,0,0.4,0,0.5,0.1c0.3-0.3,0.7-0.4,1.2-0.4c2.2,0,4.4,0,6.6,0.1
				c8.7,0.1,26.2,0.3,26.2,0.3s1.2-0.3,1.7-0.3c1.2-0.1,1.6,0.6,1.6,1.7c0,3.1-0.1,6.3-0.1,9.5c0,1.7-0.1,1.7-1.9,1.8
				c-0.9,0.1-1.8-0.1-2.7,0.1c-0.9,0.2-0.9,0.8-0.3,1.4c0.3-0.4,0.9-0.5,1.3-0.5c0.8,0,1.6,0,2.4,0c3.3-0.1,3.6-0.4,3.6-3.7
				c0.1-9,0.2-18,0.3-26.9c0-2.9-0.2-3.1-2.9-3.4c-0.9-0.1-1.8,0-2.7-0.1c-1.2-0.1-1.4-0.5-0.8-1.6c0.2-0.5,0.5-0.9,0.5-1.3
				c-0.5,0.2-0.9,0.5-1.1,0.9c-0.4,0.9-1.1,1.8-0.7,2.8c0.4,1,1.6,0.8,2.4,0.8c2.7,0.1,2.7,0.1,2.7,2.8c0,3.6-0.1,7.1-0.1,10.8
				c0,1.9-0.1,2-2,2c-11.8-0.1-23.5-0.2-35.3-0.4c-0.7,0-1.2-0.1-1.5-0.3c-0.5,0.2-1.4-0.3-1.4-0.3l-1.1,0c-0.4,0-0.7-0.1-1-0.2
				c-0.4-0.1-0.7-0.1-1.1-0.3c-0.1,0-0.1,0-0.1-0.1c-0.3,0.3-0.7,0.5-1.4,0.5c-4.9-0.3-9.7-0.2-14.6-0.2c-3.6,0-7.3-0.1-11-0.1
				c-2.3,0-2.3-0.1-2.2-2.4c0.1-10,0.2-20.1,0.3-30.2c0-1.7,0-3.5,0.1-5.3c0.1-2,0.1-2,2.2-2c0.3,0,0.6,0,1,0
				c22.3,0.2,44.5,0.5,66.8,0.7c3.5,0,2.9,0,2.9,4.2c0,1.7,0,3.3-0.1,5c-0.1,3.8,0.2,3.8-2.6,3.8c-0.6,0-1.3-0.1-1.9,0
				c-0.9,0.2-0.9,0.8-0.3,1.4c0.3-0.4,0.8-0.5,1.3-0.5c0.8,0,1.6,0,2.4,0c3.2-0.1,3.6-0.4,3.6-3.7c0.1-8.9,0.2-17.9,0.3-26.8
				c0-2.9-0.2-3.1-2.9-3.4c-0.9-0.1-1.8,0-2.7-0.1c-1.2-0.1-1.4-0.5-0.8-1.6c0.2-0.5,0.5-0.9,0.5-1.3c-0.5,0.2-0.9,0.5-1.1,0.9
				c-0.4,0.9-1.1,1.8-0.7,2.8c0.4,1,1.5,0.7,2.4,0.8c2.7,0.1,2.7,0.1,2.7,2.8c0,3.6-0.1,7.1-0.1,10.7c0,1.9-0.1,1.9-2,2
				c-1.9,0-3.7,0-5.6-0.4l-61.5-0.6c-0.5,0.3-1,0.3-1.4,0.3c-2.4,0-2.5,0-2.4-2.5l0.3-35.1c0-1.5,1.3-2.7,2.8-2.7l63.9,0.7
				c1.6,0,3.2,0,4.9,0.1c1.3,0,1.6,0.7,1.3,2.4c0,2.9,0,5.8,0,8.8c0.1,1.3-0.4,1.8-1.5,1.8c-0.7,0-1.5,0-2.2,0c-1.6,0-1.9,0.5-1.4,2
				c0.1,0.4,0.3,0.7,0.7,1c-0.1-1,0.4-1.5,1.4-1.5c1.3,0,2.5,0,3.8-0.3c1.2-0.3,1.6-0.8,1.6-2c0-3,0.1-6,0.1-9c0-0.6,0-1.1,0-1.7
				c0-0.9,0.5-1.3,1.4-1.3c0.7,0,1.5,0,2.2,0c0.8,0,1.6,0,2-1c0.3-0.8,1-1,1.8-1c1.8,0,3.6,0,5.3,0.1c0.6,0,1.3,0,1.2,0.8
				c-0.1,1.2,0.5,1.2,1.3,1.2c0.9,0,1.8,0,2.7,0c1,0,1.5,0.4,1.5,1.5c0,0.7,0,1.5,0.2,2.3l-1.2,121.6c-0.2,3.8-0.2,3.8,3.3,3.8
				c2.2,0,4.4,0,6.5,0.1c1.9,0,2,0.1,2,2.1c0,0.3,0,0.7,0,1l-0.5,56.1c0,1.7-1.4,3.1-3.1,3l-6.3-0.1c-2.7,0-2.7,0-2.8,2.9
				c0,0.5,0,1,0,1.5c-0.4,40.5-0.8,80.9-1.2,121.4c0,3.5,0.2,3.3-3.1,3.3C288.1,737.1,283.3,737,278.5,737z M275.8,736.8
				c0,0.5,0.1,1.2-0.6,1.3c-0.7,0.1-0.6-0.7-0.7-1.1c0-0.4,0-0.7,0-1.1c0-2.9,0.1-5.7,0.1-8.6c0-0.3,0-0.6,0-0.9
				c0.1-0.5-0.2-1.4,0.6-1.5c0.8-0.1,0.6,0.8,0.7,1.4c0.1,1.2-0.3,2.5,0.7,3.5c-0.5,1.1-0.3,0.5-0.7,1.7l0,0
				C275.8,733.2,275.8,735,275.8,736.8z M275.4,698.3c0.5,0,0.6,0.4,0.6,0.9c0,3.5-0.1,6.9-0.1,10.4c0,0.5-0.2,0.9-0.7,0.9
				s-0.6-0.4-0.6-0.9c0-1.8,0-3.7,0.1-5.5c0-1.7,0-3.3,0-4.9C274.8,698.7,275,698.3,275.4,698.3z M236.1,654.9c0,0.1,0,0.3,0.1,0.4
				c-0.1,0-0.3,0-0.4-0.1c0,0-0.1-0.1,0-0.2C235.7,654.9,235.9,654.8,236.1,654.9z M275.8,655.2c0.5,0,0.6,0.4,0.6,0.9
				c0,3.5-0.1,6.9-0.1,10.4c0,0.5-0.2,0.9-0.7,0.9c-0.5,0-0.6-0.4-0.6-0.9c0-1.7,0-3.5,0.1-5.2c0-1.7,0-3.5,0.1-5.2
				C275.2,655.6,275.4,655.2,275.8,655.2z M277,484.5l-0.2-0.1l0.2-0.1L277,484.5z M278,441.4l0-0.2l0.2,0.1L278,441.4z
				 M282.2,739.5c2,0,4.1,0,6.1,0.1c1.6,0.1,1.8,0.4,1.4,1.8c-0.2,0.9-0.3,1.8-0.3,2.7c-0.1,1.8-0.1,1.8-2,1.5
				c0.4,1.2,1.6,1,2.5,1.2c0.6,0.1,0.9-0.5,0.9-1c0.1-0.8,0.1-1.7,0.1-2.5c-0.1-1.4,0.7-1.9,2.6-1.5c3.5,0.7,7.1,0.7,10.6,0.1
				c2-0.3,3,0,2.9,1.5c0,0.5,0,1,0,1.5c-0.1,12.1-0.2,24.2-0.4,36.3c0,0.6,0,1.1,0,1.7c0,0.7-0.6,1.4-1.4,1.4c-0.6,0-1.1,0-1.7,0
				c-38.6-0.4-77.2-0.8-115.8-1.2c-1.7,0-3.1-1.4-3-3.2c0.1-12.1,0.2-24.2,0.4-36.3c0-0.6,0-1.1,0-1.7c0-0.9,0.5-1.3,1.4-1.3
				c0.5,0,1,0,1.4,0c29.8,0.3,59.6,0.6,89.4,0.9c0.5,0,1,0,1.4,0c0.9,0,1.3,0.5,1.3,1.4c0,0.9,0,1.8,0,2.7c0,1.1,0.4,1.2,1.4,1
				c1.2-0.3,2.4-0.8,3-2c0.7-1.1,1.2-0.5,2-0.1c-0.1-0.4-0.2-0.8-0.3-1.2c-0.3-0.6-0.5-1.2-0.8-1.8c-0.6,0.4-0.3,1.2-0.7,1.7
				c-0.3,0.5-0.6,1-1,1.4c-0.5,0.6-1.3,1.3-2,1c-0.8-0.3-0.4-1.3-0.4-2c-0.1-0.8,0-1.7-0.2-2.5C280.7,739.6,280.8,739.6,282.2,739.5
				z M390.4,372.7c2,0,2,0.1,2.1,2.2c-0.1,9-0.2,18-0.3,27.1c0,4.4-0.1,8.9-0.1,13.3c0,1.9-0.1,2-2,2.1c-0.7,0-1.3,0-2,0
				c-27.6-0.3-54.7-0.6-82.4-0.9c-0.5,0-1,0-1.5,0c-3,0-3,0-3,3c-0.4,40.8-0.8,81.5-1.2,122.3c0,3.1,0,3.1,2.9,3.1
				c2.5,0,5.2,0.1,7.7,0.1c1.6,0,1.7,0.2,1.7,1.8c0,0.5,0,1,0,1.5c-0.2,20-0.4,40.1-0.6,60.1c0,0.3,0,0.7,0,1
				c-0.1,2.2-0.1,2.2-2.2,2.2c-2.8,0-5.6-0.1-8.4-0.1c-1.6,0-1.6,0.1-1.7,1.7c-0.1,0.7,0,1.3,0,2c-0.2,20.4-0.4,40.8-0.6,61.1
				c-0.2,20.3-0.4,40.6-0.6,60.9c0,0.9-0.3,2.1,0,2.7c0.6,0.9,2.2,0.2,3.1,0.4c1.6,0.4,3.2,0.4,4.8,0.1c1.8-0.4,2.6,0.1,2.5,1.6
				c0,0.5,0,1,0,1.5c-0.1,13.3-0.3,26.5-0.4,39.8c0,0.6,0,1.2,0,1.7c0,0.9-0.5,1.3-1.4,1.3c-0.6,0-1.2,0-1.7,0
				c-39.8-0.4-79.6-0.8-119.3-1.2c-3.2,0-3,0-3-3.2c0.1-13.2,0.3-26.4,0.4-39.6c0-0.6,0-1.2,0-1.7c0-1,0.4-1.6,1.5-1.5
				c0.6,0,1.1,0,1.7,0c30,0.3,59.9,0.6,89.9,0.9c0.8,0,2.4-0.6,2.5,0.6c0.1,0.7-1.6,0.4-2.4,0.4c-29.5-0.3-59.1-0.6-88.7-0.9
				c-3.5,0-3.5,0-3.6,3.6c-0.1,12.3-0.2,24.5-0.4,36.8c0,0.5,0,1,0,1.5c0,1.7,0.3,2.1,1.9,2.2c0.5,0,1,0,1.4,0
				c38.9,0.4,77.7,0.8,116.6,1.2c3.4,0,3.4,0,3.4-3.4c0.1-12.5,0.2-25.1,0.4-37.5c0-0.2,0-0.3,0-0.5c0-2.5,0-2.5-2.4-2.6
				c-3.6,0-7.2-0.1-10.8-0.1c-0.6,0-1.2,0-1.7,0c-0.4,0-1,0.1-0.9-0.5c0.1-0.5,0.7-0.4,1-0.5c1.2-0.1,2.7,0.6,3.5-0.4
				c0.5-0.7,0.1-2.3,0.1-3.4c0.4-40.8,0.8-81.6,1.2-122.5c0-3.8-0.2-3.5,3.5-3.4c2.2,0,4.4,0.1,6.6,0.1c1.8,0,2.1-0.3,2.2-2.2
				c0.1-1.3,0-2.5,0-3.7c0.2-18.2,0.4-36.4,0.5-54.6c0-0.6,0-1.2,0-1.7c0-2.2,0-2.2-2.2-2.3c-2.7,0-5.5-0.1-8.2-0.1
				c-1.9,0-1.9-0.1-1.9-2c0-0.7,0-1.3,0-2c0.4-40.2,0.8-80.5,1.2-120.7c0-0.5,0-1,0-1.5c0-2.4,0.6-3.2-2.7-3c-0.3,0-0.5,0-0.7-0.1
				c-0.5-0.1-0.8-0.3-0.8-0.7c0.1-0.5,0.5-0.6,0.9-0.7c0.7,0,1.5,0,2.2,0c29.9,0.3,59.8,0.6,89.6,0.9c3.6,0,3.4,0.3,3.4-3.3
				c0.1-11.6,0.2-23.2,0.3-34.8c0-0.4,0-0.9,0-1.3c0-2.1-0.1-2.1-2.1-2.2c-2.7,0-5.5-0.1-8.2-0.1c-0.7,0-1.8,0.3-1.9-0.6
				c-0.1-1.3,1.2-0.8,1.9-0.8C384.3,372.5,387.3,372.6,390.4,372.7z M378.1,332.1c0.1,0.6,0.1,1.1,0.1,1.7
				c-0.1,12.5-0.2,25.1-0.4,37.5c0,0.3,0,0.5,0,0.7c-0.1,1.7-0.1,1.7-1.9,1.8c-0.6,0-1.7-0.9-1.7-0.9H339h-35.3
				c-0.6,0.2-1.2,0.1-1.7,0.2c-1,0.1-1.6-0.4-1.5-1.4c0-4.4,0.5-13.3,0.5-13.3v-0.3c0,0-0.3-0.7,0.2-0.7c0.1,0,0.3,0.3,0.3,0.5
				c0.1,0.6,0.1,1.1,0,1.7c0,3.1-0.1,6.3-0.1,9.5c0,2.3,0,2.3,2.3,2.4c9.9,0.1,19.7,0.2,29.7,0.3h39.7c0.7,0.4,1.3,0.4,2,0.4
				c0.9,0,1.4-0.5,1.4-1.4c0-0.7,0-1.3,0-2c0.1-11.6,0.2-23.2,0.3-34.8c0-0.7,0.1-1.5,0.2-2.3c0-0.2,0.2-0.5,0.5-0.5
				C377.8,331.6,378.1,331.7,378.1,332.1z M378.6,289.5c0.1,0.6,0.1,1.1,0,1.7c-0.1,12.4-0.2,24.9-0.4,37.3c0,2.7,0,2.7-2.6,2.6
				c-7.8-0.1-15.7-0.2-23.5-0.2l-12.7-0.1c-11.8-0.1-23.7-0.2-35.5-0.4c-0.6,0-1.1,0-1.7,0c-0.9,0-1.4-0.4-1.4-1.4
				c0-4.5,0.1-9,0.1-13.5c0-0.3,0.1-0.8,0.4-0.8c0.6,0,0.5,0.5,0.5,0.9c0,3.1-0.1,6.3-0.1,9.5c0,4.4-0.4,3.6,4.7,3.8
				c21.6,0.2,43.2,0.5,64.8,0.7c5.6-0.2,5.4,0.9,5.5-3.3c0.1-11.6,0.2-23.2,0.3-34.8c0-0.7,0-1.5,0.1-2.3c0-0.4,0.3-0.6,0.7-0.6
				C378.4,288.9,378.6,289.2,378.6,289.5z M376.8,291.9c-0.1,11.3-0.2,22.6-0.3,33.9c0,0.4,0,0.9,0,1.3c-0.1,2.1-0.1,2.1-2,2.2
				c-0.4,0-0.8,0-1.2,0c-22.5-0.2-45-0.5-67.6-0.7c-3.4,0-3.1,0.2-3.1-3.3c0-2.9,0.1-5.9,0.1-8.8c0-2.4,0-2.4,2.3-2.4
				c0.4,0,0.8,0,1.2,0c1.9,0,2.3-0.7,1.7-2.5c-0.3-0.6-0.5-1.3-1.2-1.5c0.9,3,0.9,3-2.1,3c-0.5,0-1,0-1.4,0c-2.4,0.2-2.8,0.5-2.8,3
				c-0.1,9.2-0.2,18.4-0.3,27.5c0,2.5,0.4,2.9,2.8,3c0.4,0,0.8,0,1.2,0c3.3,0,3.3,0,2.3,3c0.9-0.3,1.1-1.2,1.4-2
				c0.4-1.4,0-1.9-1.5-2.1c-1.1-0.1-2.5,0.4-3.3-0.4c-0.9-0.9-0.4-2.4-0.4-3.6c0-2.9,0-5.9,0.1-8.8c0-1.6,0.1-1.7,1.7-1.7
				c0.5,0,1,0,1.4,0c22.5,0.2,45.1,0.5,67.6,0.7c3.4,0,3.2-0.2,3.2,3.3c-0.1,11.4-0.2,22.8-0.3,34.1c0,0.5,0,1,0,1.5
				c-0.1,1.5-0.1,1.6-1.8,1.7c-0.5,0-1,0-1.4,0c-22.5-0.2-45.1-0.5-67.6-0.7c-3.2,0-3.1,0.2-3.1-3.1c0-3.2,0.1-6.3,0.1-9.6
				c0-1.7,0.1-1.8,1.8-1.9c0.7,0,1.3,0,2,0c1.4-0.1,1.9-0.6,1.5-2.1c-0.3-1.1-1-1.9-1.7-2.7c-1-1-1-1,0-2.3
				c-0.5,0.1-0.9,0.3-1.4,0.5c-0.7,0.3-1.4,0.5-2,0.7c0.5,0.6,1.3,0.6,1.9,0.9c1.2,0.6,2.1,1.6,2.7,2.8c0.3,0.6,0,1-0.6,1.1
				c-0.8,0.1-1.6,0-2.4,0c-0.7,0-1.5,0-2.2,0.1c-1.6,0.3-1.8,0.6-1.8,2.4c0,3.2-0.1,6.3-0.1,9.6c0,3.6,0.3,3.4-3.3,3.4
				c-4.7,0-9.5-0.1-14.2-0.1c-2,0-2-0.1-2.1-2.1c0-0.7,0-1.3,0-2c0.4-40,0.8-80,1.2-119.9c0-3.6,0.3-3.5-3.2-3.5
				c-2.3,0-4.6,0-6.9-0.1c-1.1,0-1.7-0.4-1.6-1.6c0-0.5,0-1,0-1.5c0.2-19.2,0.4-38.3,0.6-57.5c0-3.3-0.2-3.2,3.1-3.1
				c2.4,0,4.7,0,7.1,0.1c1.1,0,1.7-0.4,1.6-1.6c0-0.7,0-1.5,0-2.3c0.4-41.4,0.8-82.8,1.2-124.2c0-3.7-0.3-3.4,3.3-3.4
				c4.6,0,9.1,0.1,13.7,0.1c2.5,0,2.6,0,2.6,2.6c-0.1,12.6-0.2,25.1-0.4,37.6c-0.3,28.8-0.6,57.5-0.8,86.3c0,0.4,0,0.9,0,1.3
				c-0.1,1.1,0.4,1.7,1.6,1.7c0.3,0,0.5,0,0.7,0c1.5,0.1,1.6,0.2,1.6,1.8c0,0.4,0,0.9,0,1.3c-0.1,7.2-0.1,14.4-0.2,21.7
				c0.4,2.7,0.5,5.4,0.4,7.9v5.3c-0.3,0.6-0.3,1.3,0,2v20.4c0,0-0.7,0.7-0.7,1c-0.1,2-0.1,2-2.1,2.1c-1.8,0.1-1.8,0.2-1.8,1.9
				c-0.1,4.6-0.1,9.2-0.1,13.8c0,1.2,0.3,1.7,1.5,2.1c1.4,0.3,2.7,0.3,4.1,0.4c0.7,0,1.5-0.1,1.7,1c0.6-1.7,0.5-1.9-0.8-2
				c-0.7-0.1-1.4,0-2.2,0c-1.8-0.1-1.9-0.2-1.9-1.8c0-3.7,0.1-7.3,0.1-11c0-1.1,0.4-1.7,1.6-1.7c0.5,0,1,0,1.4,0
				c22.6,0.2,45.2,0.5,67.8,0.7c3.4,0,3.1-0.2,3.1,3.4c-0.1,11.4-0.2,22.7-0.3,34.1c0,0.3,0,0.5,0,0.7c0,2.4,0,2.4-2.3,2.4
				c-0.3,0-0.7,0-1,0c-22.5-0.2-45-0.5-67.6-0.7c-3.4,0-3.1,0.2-3.1-3.3c0-2.9,0.1-5.9,0.1-8.8c0-2.4,0-2.4,2.3-2.4
				c0.4,0,0.8,0,1.2,0c1.9,0,2.3-0.7,1.7-2.5c-0.3-0.6-0.5-1.3-1.2-1.5c0.9,2.9,0.9,2.9-2.2,3c-0.5,0-1,0-1.4,0
				c-2.4,0.2-2.7,0.5-2.8,3c-0.1,9.2-0.2,18.4-0.3,27.6c0,2.3,0,2.3,2.1,2.8c1.3,0.3,2.6,0.1,3.9,0.2c1.1,0.1,1.4,0.5,0.8,1.4
				c-0.6,0.9-1.3,1.7-2,2.5c1.7-0.3,2.4-1.6,2.9-3c0.4-1.3,0-1.9-1.4-2c-0.7-0.1-1.4,0-2.2,0c-1.5-0.1-1.6-0.2-1.6-1.8
				c0-3.7,0.1-7.3,0.1-11c0-1.1,0.4-1.7,1.6-1.7c0.7,0.1,1.3,0,2,0c22.4,0.2,44.9,0.5,67.3,0.7C377.1,288.5,376.9,288.3,376.8,291.9
				z M301.4,331c0.4,0.1,0.4,0.5,0.4,0.8c0,2,0,4-0.1,5.9c0,1.9,0,3.8-0.1,5.7c0,0.3,0,0.7-0.4,0.8c-0.5,0.1-0.5-0.3-0.5-0.7
				c0-4,0.1-8,0.1-12C300.9,331.4,300.9,330.9,301.4,331z M377.4,49.8c1.1-0.1,1.6,0.4,1.6,1.6c-0.1,12.4-0.2,24.9-0.4,37.3
				c0,1.2-0.5,1.7-1.6,1.6c-0.5,0-1,0-1.4,0c-22.6-0.2-45.2-0.5-67.9-0.7c-3.3,0-3,0.1-3-3.2c0-2.9,0.1-5.8,0.1-8.8
				c0-2.5,0-2.5,2.4-2.5c0.6,0,1.2,0,1.7,0c1.3-0.1,1.4-0.3,0.8-2c-0.1,0.9-0.7,0.9-1.4,1c-1.4,0.1-2.9-0.2-4.3,0.3
				c-0.7,0.3-1-0.3-1-0.9c0-2.7,0.1-5.5,0.1-8.2c0-0.5,0.1-1.1,0.9-0.9c1.6,0.4,3.2,0.2,4.8,0.3c0.9,0.1,1.2,0.5,0.7,1.3
				c-0.9,1.5-2.1,2.8-3.9,3.1c-0.2,0.1-0.5,0.2-0.7,0.3c0.2,0.1,0.4,0.3,0.6,0.4c0.6,0.3,1.2,0.5,1.9,0.4c-0.4-0.7,0.1-1,0.6-1.4
				c1.1-0.9,2-1.8,2.3-3.1s0-1.9-1.4-2c-0.9-0.1-1.8,0-2.7-0.1c-0.8,0-1.2-0.5-1.2-1.3c0-4,0.1-8,0.1-12c0-0.9,0.5-1.2,1.3-1.2
				c0.5,0,1,0,1.4,0c22.8,0.2,45.5,0.5,68.3,0.7C376.6,49.8,377,49.8,377.4,49.8z M303.4,92.2c0.5,0,0.6,0.4,0.6,0.9
				c0,3.4-0.1,6.8,0,10.2c0,0.6,0,1.1-0.1,1.7c0,0.5-0.2,0.9-0.7,0.9c-0.5,0-0.6-0.4-0.6-0.9c0-2.1,0-4.1,0.1-6.2
				c0-1.9,0-3.8,0.1-5.7C302.7,92.6,302.9,92.2,303.4,92.2z M307.8,161.4c1.2-0.1,1.6-0.6,1.4-1.7c-0.2-0.9-0.4-1.8-1.4-2.2
				c0.7,2.5,0.7,2.5-2,2.5c-0.9,0-1.8,0-2.6,0.2c-0.8,0.3-1.3-0.2-1.2-1.1c0-2.5,0-5,0.1-7.4c0-0.9,0.5-1.2,1.3-1
				c1.2,0.5,2.5,0.2,3.9,0.3c1.4,0.1,1.4,0.1,1,1.5c-0.1,0.3-0.1,0.7-0.3,0.9c0.9-0.3,1.1-1.2,1.4-1.9c0.4-1.4,0-1.9-1.5-2.1
				c-1.1-0.1-2.5,0.4-3.3-0.4c-1-0.9-0.3-2.5-0.4-3.7c-0.1-1.2-0.2-2.4-0.1-3.6c0.4-6.3-0.7-6.3,2.8-6.3c6.5,0.1,12.9,0.1,19.3,0.2
				c1.7,0,3.4,0,5.2,0.1c0.5,0,1,0.1,1.4,0.4c0.2,0,0.4-0.1,0.6-0.1c0.1,0,0.1,0,0.1,0c0.2,0,0.5-0.1,0.7-0.1c0,0,0,0,0-0.1
				c0-0.1,0.1-0.1,0.2-0.1c0.2,0,0.3,0,0.3,0.1c0.8-0.1,1.5-0.1,2.3,0c0.5,0,1,0.1,1.4,0.3c0.3-0.4,0.7-0.5,1.2-0.5c0.5,0,1,0,1.4,0
				c11.4,0.1,22.7,0.2,34,0.4c0.1,0,0.1,0,0.3,0c2.9,0,2.9,0,2.8,2.8c-0.1,5.8-0.1,11.7-0.2,17.5c-0.1,5.7-0.1,11.4-0.2,17
				c0,2.7,0,2.7-2.5,2.6c-23-0.2-46-0.5-69.1-0.7c-0.4,0-0.8,0-1.2,0c-1.4,0-1.4-1.4-0.6-3.4c1-2.5,0.8-5.3-0.1-7.8
				c-0.7-2-0.2-2.8,0.9-2.8C306,161.4,307,161.5,307.8,161.4z M303,161.5l-0.2-0.1l0.2-0.1L303,161.5z M303.7,136.3c0,2,0,4-0.1,5.9
				c0,1.9,0,3.8-0.1,5.7c0,0.5-0.1,1.1-0.8,0.9c-0.5-0.1-0.6-0.5-0.6-0.9c0-3.9,0.1-7.8,0.1-11.7c0-0.5,0.1-1.1,0.8-0.9
				C303.6,135.4,303.7,135.9,303.7,136.3z M350.3,209.7c13.1,0.1,26.3,0.3,39.4,0.4c0.8,0,1.6,0.1,2.4,0.2c0.1,0,0.4,0.4,0.3,0.6
				c0,0.2-0.2,0.5-0.4,0.5c-0.5,0.1-1.1,0.1-1.7,0.1c-26.9-0.3-53.8-0.6-80.8-0.8c-0.3,0-0.5,0-0.7,0c-0.5-0.1-1.3,0.1-1.3-0.7
				c0-0.7,0.7-0.7,1.2-0.7c0.1,0,0.3,0,0.5,0C323,209.4,336.7,209.5,350.3,209.7z M306.9,210c0,1,0,2,0,2.9c0,0.2-0.2,0.5-0.4,0.5
				c-0.3,0.1-0.5-0.2-0.5-0.4c0-2.1,0-4.3,0.1-6.4c0-0.2,0.1-0.5,0.5-0.4c0.2,0.1,0.4,0.3,0.4,0.5
				C306.9,207.9,306.9,208.9,306.9,210z M389.5,242.8c-26.3-0.3-52.5-0.5-78.9-0.8c-0.5,0-1,0-1.4,0c-1.2,0.1-1.6-0.6-1.6-1.7
				c0-3.6,0.1-7.1,0.1-10.8c0-1.8,0-3.7,0.1-5.5c0.1-1.9,0.1-2,1.9-2.1c0.9,0,1.8,0,2.7,0c1.9,0,2-0.4,1.3-2.5
				c0,0.8-0.2,1.5-1.3,1.5c-0.1,0-0.3,0-0.5,0c-4.1,0.2-4.9-0.7-4.1-5c0.1-0.9,0.6-1.1,1.4-0.8c0.7,0.3,1.3,0.7,2,0.8
				c-0.4-1-1.4-1.3-2.4-1.6c-1.2-0.3-1-1.1-1-1.9c0.1-0.9,0.7-1,1.4-1c0.5,0,1,0,1.4,0c26.3,0.3,52.5,0.5,78.9,0.8c3,0,3,0,3,3
				c-0.1,8.2-0.2,16.4-0.2,24.5c0,0.5,0,1,0,1.5c0.1,1-0.4,1.6-1.5,1.5C390.4,242.8,389.9,242.8,389.5,242.8z M305.8,223.7
				c0-0.4-0.1-0.9,0.4-1c0.6-0.1,0.5,0.5,0.5,0.9c-0.1,5.7-0.1,11.3-0.2,17c0,0.3-0.1,0.5-0.1,0.7c-0.1,0.1-0.3,0.2-0.4,0.2
				c-0.1,0-0.3-0.2-0.3-0.3c-0.1-0.6-0.1-1.1-0.1-1.7c0-2.5,0-5,0.1-7.5l0,0C305.8,229.2,305.8,226.4,305.8,223.7z M306,221.2
				c-0.7,0-0.6-0.6-0.6-1.1c0-1.2,0-2.5,0-3.7c0-0.7,0.1-1.4,1.1-1.3c0.9,0.1,0.9,0.8,0.9,1.5c0,0.5,0,1,0,1.5c0,0,0,0,0.1,0
				c-0.1,0.7,0,1.5-0.2,2.2C307.2,220.8,306.6,221.2,306,221.2z M309.8,208.6c-1.6-0.1-2.4-1.6-1.6-2.9c0.3-0.5,0.8-0.5,1.2-0.5
				c1,0,2.2,0,3.2,0c1.9,0,2-0.4,1.3-2.5c0,0.9-0.3,1.3-1.3,1.5c-4.3,0.5-5-0.2-4.7-4.5c0.1-1.1,0.4-1.5,1.5-1.1
				c0.3,0.1,0.7,0.1,1,0.1c-2.6-1.8-2.4-1.7-2.4-5.7c0-3.9,0.1-7.9,0.1-11.9c0-2.4,0-2.5,2.1-2.5c6.7,0.1,13.4,0.1,20.1,0.2
				c19.9,0.2,39.7,0.4,59.5,0.6c3,0,3,0,3,3.2c-0.1,8-0.2,15.8-0.2,23.8c0,0.6,0,1.1,0,1.7c0,0.9-0.5,1.3-1.4,1.3
				c-0.6,0-1.1,0-1.7,0c-26.2-0.3-52.4-0.5-78.6-0.8C310.5,208.6,310.2,208.6,309.8,208.6z M305.6,199.6c0-0.5,0.3-0.9,0.9-0.8
				c0.5,0.1,1,0.1,1,0.8c0,1.4,0,2.8-0.1,4.2c0,0.7-0.6,1.1-1.2,1.1c-0.8,0.1-0.6-0.7-0.7-1.3c-0.1-0.6,0-1.1,0-1.7l0,0
				C305.6,201.1,305.5,200.4,305.6,199.6z M307.2,179.9c-0.1,5.3-0.1,10.6-0.2,16c0,0.3-0.1,0.7-0.1,1c0,0.1-0.3,0.2-0.4,0.2
				c-0.1,0-0.3-0.1-0.3-0.3c-0.1-0.6-0.1-1.1-0.1-1.7c0-2.4,0-4.8,0.1-7.2l0,0c0-2.7,0.1-5.3,0.1-8c0-0.4-0.1-1,0.4-1.1
				C307.4,178.7,307.2,179.5,307.2,179.9z M301.7,287.9c0.6,0,0.5,0.5,0.5,0.9c0,1.8,0,3.7-0.1,5.5c0,1.8,0,3.7-0.1,5.5
				c0,0.4,0.1,0.9-0.5,0.9c-0.3,0-0.4-0.5-0.4-0.8c0-3.7,0.1-7.5,0.1-11.2C301.3,288.3,301.3,287.9,301.7,287.9z M378.2,245.7
				c-0.1,12.9-0.3,25.8-0.4,38.7c0,0.4,0,0.8,0,1.2c0,0.6-0.6,1.2-1.2,1.2c-0.6,0-1.1,0-1.6,0c-23.3-0.2-46.7-0.5-70-0.7
				c-0.5,0-1,0-1.5,0c-1,0.1-1.4-0.5-1.4-1.5c0-4.2,0.1-8.5,0.1-12.7c0-0.3,0-0.5,0.1-0.7c0.1-0.1,0.2-0.3,0.3-0.3
				c0.3-0.1,0.4,0.2,0.4,0.4c0.1,0.6,0.1,1.3,0,1.9c0,3.2-0.1,6.4-0.1,9.5c0,1.8,0.1,1.9,1.9,2c0.9,0,1.8,0,2.7,0
				c21.9,0.2,43.8,0.5,65.6,0.7c3.3,0,3.1,0.2,3.1-3.1c0.1-11.4,0.2-22.9,0.3-34.3c0-0.3,0-0.5,0-0.7c0-2.5,0-2.5-2.4-2.5
				c-22.8-0.2-45.7-0.5-68.6-0.7c-0.1,0-0.2,0-0.3,0c-2.2,0-2.2,0-2.2,2.2c0,2.8-0.1,5.6-0.1,8.3c0,0.5,0.1,1,0,1.5
				c-0.1,0.5,0.2,1.4-0.5,1.4c-0.6-0.1-0.4-1-0.4-1.5c-0.1-0.9,0-1.8,0-2.7c0-1.9,0-4,0.1-5.9c0.1-4.6-0.4-4.6,2.9-4.6
				c9.8,0.1,19.5,0.2,29.2,0.3c2,0,4,0,6,0.1l33.8,0.4c0.5,0,1,0,1.5,0C378.2,243.3,378.2,243.3,378.2,245.7z M393.6,177.7
				c1.7,0,1.8,0.1,1.7,2c-0.1,5.8-0.1,11.7-0.2,17.5c0,4.6-0.1,9.2-0.1,13.8l-0.3,29.3c0,0.5,0,1,0,1.5c0,2.5,0,2.5-2.2,2.5
				c-3.1,0-6.1-0.1-9.1-0.1c-0.5,0-0.9,0-1.3-0.1c-0.2,0-0.5-0.1-0.3-0.5c0.1-0.1,0.2-0.3,0.3-0.3c0.5-0.1,1-0.1,1.6-0.1
				c2.4,0,4.8,0,7.1,0.1c2.7,0,2.7,0,2.8-2.9c0.1-9,0.2-17.8,0.3-26.8c0.1-10.3,0.2-20.5,0.3-30.8c0-0.6,0-1.1,0-1.7
				c0-2.1-0.2-2.3-2-2.4c-2.7-0.1-5.4-0.1-8-0.1c-0.6,0-1.6,0.2-1.6-0.4c0-1,1.1-0.5,1.6-0.6C387.2,177.6,390.4,177.7,393.6,177.7z
				 M380,136.8c0.1,0.6,0.1,1.1,0,1.7c-0.1,12.4-0.2,24.9-0.4,37.3c0,0.3,0,0.5,0,0.7c-0.1,1.9-0.1,1.9-2,1.9c-5-0.1-15-0.5-15-0.5
				l-22.1,1l0,0H305c0,0-1-1.3-1.4-1.3c-1.6-0.1-1.6-0.2-1.7-1.8c0-4,0.1-8,0.1-12c0-0.3,0-0.5,0.1-0.7c0.1-0.5,0.3-0.8,0.8-0.7
				c0.4,0.1,0.5,0.3,0.6,0.7c0.1,0.8,0,1.7,0,2.5c0,3-0.1,6-0.1,9c0,1.7,0.3,2,2,2.2c0.6,0.1,1.7,0.3,1.7,0.3h67.8
				c0,0,0.7,0.5,1,0.5c2.4,0,2.5,0,2.5-2.5c0.1-12,0.2-24.1,0.4-36.1c0-0.7,0-1.5,0.1-2.3c0-0.4,0.3-0.6,0.7-0.6
				C379.8,136.1,380.1,136.4,380,136.8z M380.5,94.7c0.1,0.3,0,0.7,0.5,1v36.5c-0.8,0.5-0.9,1-0.9,1.5c0.1,1.1-0.4,1.7-1.6,1.7
				c-0.5,0-1,0-1.4-0.4h-36.3c-12-0.1-23.9-0.3-35.9-0.4c-2.7,0-2.7,0-2.7-2.7c0-3.7,0.1-7.3,0.1-11c0-0.6-0.2-1.6,0.7-1.6
				s0.7,0.9,0.7,1.6c0,3.3-0.1,6.7-0.1,10c0,2.5,0.2,2.7,2.6,2.8c11.6,0.1,34.8,0.3,34.8,0.3h33.8c0,0,1.2,0.4,1.7,0.4
				c1.8,0,2-0.3,2.1-2c0-0.6,0-1.1,0.3-1.7V96.4c0-0.6,0-1.2,0-1.7c0.1-0.6-0.2-1.6,0.8-1.5C380.8,93.2,380.5,94.1,380.5,94.7z
				 M307.6,92.1c22.7,0.2,45.3,0.5,68.1,0.7c3,0,3,0,3,3c-0.1,11.6-0.2,23.2-0.3,34.8c0,2.8,0,2.8-2.6,2.8
				c-22.9-0.2-45.7-0.5-68.5-0.7c-0.5,0-1,0-1.4,0c-0.9,0-1.3-0.5-1.3-1.4c0-3.8,0.1-7.7,0.1-11.5c0-1.2,0.6-1.6,1.7-1.5
				c0.8,0.1,1.6,0.1,2.4,0c1.3-0.1,1.4-0.3,0.8-2c-0.1,0.9-0.7,0.9-1.4,1c-1.4,0.1-2.9-0.2-4.3,0.3c-0.7,0.3-1-0.3-1-0.9
				c0-2.5,0.1-5.1,0.1-7.7c0-0.9,0.5-1.3,1.3-0.9c1.2,0.5,2.5,0.2,3.9,0.3c1.4,0.1,1.4,0.1,1,1.5c-0.1,0.3-0.1,0.7-0.3,0.9
				c0.8-0.3,1.1-1,1.3-1.7c0.5-1.5,0.1-2.1-1.5-2.3c-1.1-0.1-2.5,0.4-3.3-0.4c-0.9-0.9-0.4-2.4-0.4-3.6c0-2.9,0-5.8,0.1-8.8
				c0-1.6,0.1-1.7,1.7-1.8C306.8,92.1,307.2,92.1,307.6,92.1z M380.4,54.3c-4.3,10-3.7,21.3-0.2,31.6c0.6,1.6,0.4,3.2,0.3,4.9
				c0,0.9-0.5,1.4-1.4,1.3c-0.6,0-1.1,0-1.7,0c-23.9-0.2-47.8-0.5-71.8-0.7c-3.1,0-3,0.2-3-3.2c0-3.5,0.1-7,0.1-10.5
				c0-0.6-0.2-1.6,0.7-1.6s0.7,0.9,0.7,1.5c0,3.3-0.1,6.5-0.1,9.8c0,2.5,0,2.5,2.5,2.5c16.5,0.2,33,0.3,49.5,0.5
				c6.7,0.1,13.4,0.1,20.1,0.2c0.7,0,1.3,0,2,0c0.5-0.1,0.9-0.5,1-0.9c0.1-0.6,0.1-1.1,0.1-1.7c0.1-12,0.2-24.1,0.4-36.1
				c0-0.4,0-0.9,0-1.3c0-1-0.4-1.6-1.4-1.6c-0.5,0-1,0-1.4,0c-23-0.2-46.1-0.5-69.1-0.7c-3,0-3,0-3,2.9c0,3.3-0.1,6.5-0.1,9.8
				c0,0.6,0.2,1.6-0.7,1.6s-0.7-0.9-0.7-1.6c0-4.1,0.1-8.2,0.1-12.3c0-1.9,0.1-1.9,2-1.9c5.6,0.1,11.2,0.1,16.9,0.2
				c6.7,0.1,13.4,0.1,20.1,0.2c11.8,0.1,23.7,0.2,35.5,0.4c0.7,0,1.3,0,2,0c0.9,0,1.4,0.4,1.4,1.4C381,50.8,381.1,52.6,380.4,54.3z
				 M290.7,42.3c-1.8-0.9-2.5-0.4-2.6,1.6c0,0.3,0,0.7,0,1c0.1,1.1-0.5,1.5-1.5,1.5c-2.5,0-5-0.1-7.6-0.1c-1.9,0-3.7,0-5.6-0.1
				c-1.8-0.1-1.8-0.2-1.9-2c0-0.3,0-0.7,0-1c0.1-11.5,0.2-23.1,0.3-34.5c0-0.4,0-0.9,0-1.3c0.1-1.5,0.1-1.6,1.8-1.7c0.5,0,1,0,1.4,0
				c38.5,0.4,77,0.8,115.6,1.2c0.3,0,0.5,0,0.7,0c2.4,0,2.5,0,2.5,2.5c-0.1,11.8-0.2,23.7-0.3,35.5c0,0.4,0,0.8,0,1.3
				c0,0.8-0.4,1.3-1.2,1.3c-0.7,0-1.3,0-2,0c-29.8-0.3-59.6-0.6-89.4-0.9c-0.3,0-0.5,0-0.7,0c-2.2-0.1-2.2-0.1-2.3-2.2
				c0-0.3,0-0.7,0-1c-0.1-1.3-0.3-1.4-2-0.8c0.4,0.1,0.8,0.3,0.8,0.7c0.1,1.5,0.2,3,0.3,4.5c0.1,0.7-0.4,0.8-0.9,0.8
				c-2,0-3.9,0-5.9-0.1c-0.8,0-1.4-0.3-1.1-1.2c0.4-1.2,0.3-2.5,0.4-3.7c0.1-0.7,0.4-0.9,1-0.5c0.6,0.5,1.3,0.9,1.9,1.5
				C292.5,43.3,291.7,42.7,290.7,42.3z M299,48.4c-0.4-0.1-0.8-0.3-0.8-0.7c0.1-0.5,0.5-0.7,0.9-0.7c0.7,0,1.4,0,2.2,0
				c0.5,0,1,0.1,1,0.7c-0.1,0.7-0.7,0.7-1.1,0.7c-0.3,0-0.7,0-1,0l0,0C299.8,48.4,299.4,48.4,299,48.4z M395.2,8.4
				c-0.1,12.5-0.2,25.1-0.4,37.5c0,0.5,0,1,0,1.5c-0.1,1.8-0.1,1.9-1.8,1.9c-3.3,0-6.5-0.1-9.8-0.1c-0.3,0-0.7,0-1-0.1
				c-0.3-0.1-0.6-0.3-0.5-0.7c0.1-0.2,0.3-0.5,0.5-0.5c0.6-0.1,1.1-0.1,1.7-0.1c2.6,0,5.2,0.1,7.8,0.1c2,0,2.1-0.1,2.1-2.1
				c0.1-8,0.2-15.8,0.2-23.8c0-4.5,0.1-9,0.1-13.5c0-2-0.1-2.1-2.1-2.2c-0.5,0-1.4,0-1.4,0s-77-0.8-116.2-1.2c-3.9,0-3.9,0-3.9,3.8
				c-0.1,11.4-0.2,22.7-0.3,34.1c0,0.4,0,0.9,0,1.3c0,2.2,0.2,2.5,2.4,2.5c4.1,0,8.1,0.1,12.2,0.1c0.7,0,1.3,0,2,0.1
				c0.4,0,0.6,0.3,0.6,0.7c0,0.3-0.3,0.7-0.6,0.7c-0.8,0.1-1.6,0-2.5,0c-1.6,0.1-1.6,0.1-1.7,1.8c0,0.7,0,1.3,0,2
				c-0.2,20.7-0.4,41.4-0.6,62.1c-0.2,20.5-0.4,41.1-0.6,61.6c0,0.6,0,1.2,0,1.7c-0.1,1.9-0.1,1.9-2,2c-2.7,0-5.4-0.1-8.2-0.1
				c-1.2,0-2.2,1-2.2,2.2c0,0.5,0,1,0,1.5c-0.2,19-0.4,38.1-0.6,57.1c0,0.4,0,0.9,0,1.3c0,2.3,0.2,2.5,2.6,2.6c2.7,0,5.3,0.1,8,0.1
				c1.7,0,1.8,0.2,1.9,1.9c0,0.7,0,1.3,0,2c-0.4,39.8-1.8,119.3-1.8,119.3l0,1.3c0,2.7-0.3,3,2.7,3c0.6,0,1.8-0.3,1.8,0.6
				c0.1,1.3-1.1,0.8-1.8,0.8c-14.5-0.2-29-0.3-43.5-0.5c-9.8-0.1-19.7-0.2-29.6-0.3c-0.6,0-1.3,0-1.9,0c-0.9,0.1-1.5,0.6-1.5,1.6
				c0,0.7,0,1.3,0,2c-0.1,11.6-0.2,23.2-0.3,34.8c0,0.8,0.3,2.2-0.4,2.2c-0.9,0-0.5-1.3-0.5-2.1c0.1-12.4,0.2-24.9,0.4-37.3
				c0-2.7,0-2.7,2.7-2.6c22.5,0.2,44.9,0.5,67.4,0.7c4.6,0.1,2.8,0.5,3.5-8c0.4-36.4,0.7-72.7,1.1-109.1c-0.8-9.2,1.3-8.6-3.5-8.7
				c-2.1,0-4.3,0-6.4-0.1c-1.5-0.1-1.6-0.2-1.6-1.8c0-0.5-0.5-1.5-0.5-1.5v-60.6c0,0,1.2-0.9,1.3-1.3c0.1-1.9,0.1-1.9,2-2
				c2.6,0,5.2,0.1,7.8,0.1c1.8,0,1.9-0.1,2-2c0-0.5,0-1,0-1.5c0.4-41.1,0.8-82.2,1.2-123.3c0-3.8,0.4-3.5-3.4-3.6
				c-2.2,0-4.4,0-6.6-0.1c-1.6-0.1-1.7-0.2-1.7-1.8c0-2.7,0.3-8.3,0.3-8.3V7.1c0,0,0.1-1,0.1-1.5c0.1-1.9,0.1-1.9,2-2
				c0.5,0,1,0,1.4,0c39.5,0.4,79.1,0.8,118.6,1.2C395.5,4.9,395.2,4.5,395.2,8.4z"/>
			<polygon points="288.1,47 288.3,47 288.2,46.8 			"/>
			<path d="M272,717.7c0-0.3,0-0.7,0-1c0.3,0,0.5-0.1,0.7,0c0.6,0.1,1.6-0.2,1.6,0.7c-0.1,1-1,0.2-1.6,0.3
				C272.6,717.8,272.3,717.7,272,717.7z"/>
			<path d="M274.4,479.2c0-0.3,0-0.7,0-1c0.3,0,0.5-0.1,0.7,0c0.6,0.1,1.6-0.2,1.6,0.7c-0.1,1-1,0.2-1.6,0.3
				C274.9,479.2,274.6,479.2,274.4,479.2z"/>
			<path d="M274.8,436.1c0-0.3,0-0.7,0-1c0.3,0,0.5-0.1,0.7,0c0.6,0.1,1.6-0.2,1.6,0.7c-0.1,1-1,0.2-1.6,0.3
				C275.3,436.1,275.1,436.1,274.8,436.1z"/>
			<path d="M272,716.7c-1.4-0.3-2.2-1.1-2.4-2.5C270.6,714.8,271.5,715.6,272,716.7z"/>
			<path d="M271.5,675c0.2-0.8,1.1-0.9,1.5-1.5c0.3,0,0.5-0.1,0.7,0c0.3,0,0.6,0,0.7,0.2c0.2,0.3-0.1,0.3-0.3,0.4
				C273.2,674.4,272.5,675.1,271.5,675z"/>
			<path d="M272,631.9c0.2-0.8,1.1-0.9,1.5-1.5c0.3,0,0.7-0.1,0.9,0c0.2,0,0.4,0.2,0.6,0.3c-0.1,0.1-0.2,0.3-0.3,0.3
				C273.7,631.2,272.9,632,272,631.9z"/>
			<path d="M274.5,522.3c-0.4-0.6-1.2-0.7-1.4-1.5c0.7,0,1.2,0.3,1.8,0.7c0.4,0.3,1.2,0,1,0.7C275.8,522.3,274.9,522.2,274.5,522.3z
				"/>
			<path d="M274.8,435.1c-1.4-0.3-2.2-1.1-2.4-2.5C273.4,433.2,274.2,434,274.8,435.1z"/>
			<path d="M271.5,524.7c0.1-1.2,0.8-1.9,2-2C273,523.6,272.4,524.2,271.5,524.7z"/>
			<path d="M272.4,630c-1.2-0.1-1.8-0.8-1.9-2C271.3,628.4,272,629.1,272.4,630z"/>
			<path d="M272,673c-1.2-0.1-1.8-0.8-1.9-2C270.9,671.5,271.6,672.2,272,673z"/>
			<path d="M269.1,721.1c-0.1-0.9,0.1-1.6,1-2C270,719.9,269.7,720.7,269.1,721.1z"/>
			<path d="M272,519.7c-0.9-0.4-1-1.1-1-2C271.7,518.2,272,518.9,272,519.7z"/>
			<path d="M272.4,476.6c-0.9-0.4-1-1.1-1-2C272.1,475.1,272.4,475.8,272.4,476.6z"/>
			<path d="M269.5,678c-0.1-0.9,0.1-1.6,1-2C270.4,676.8,270.1,677.6,269.5,678z"/>
			<path d="M269.9,634.9c-0.1-0.9,0.1-1.6,1-2C270.8,633.7,270.6,634.5,269.9,634.9z"/>
			<path d="M273.3,437.1c0.3-0.7,0.8-1,1.4-1C274.5,436.7,274.1,437.1,273.3,437.1z"/>
			<path d="M274.4,478.2c-0.7,0-1.2-0.3-1.4-1C273.7,477.1,274.1,477.5,274.4,478.2z"/>
			<path d="M272.9,480.1c0.3-0.7,0.8-1,1.4-1C274.1,479.8,273.6,480.2,272.9,480.1z"/>
			<path d="M270.6,718.7c0.3-0.7,0.8-1,1.4-1C271.8,718.3,271.3,718.7,270.6,718.7z"/>
			<path d="M270.9,632.9c0-0.6,0.3-0.9,1-1C271.8,632.5,271.4,632.8,270.9,632.9z"/>
			<path d="M270.5,676c0-0.6,0.3-0.9,1-1C271.3,675.6,271,675.9,270.5,676z"/>
			<path d="M273,673.6c-0.4,0-0.8-0.1-1-0.5C272.4,673,272.8,673.2,273,673.6z"/>
			<path d="M273.4,630.5c-0.4,0-0.8-0.1-1-0.5C272.8,630,273.2,630.1,273.4,630.5z"/>
			<path d="M273.5,522.7c0.2-0.4,0.6-0.5,1-0.5C274.3,522.7,273.9,522.7,273.5,522.7z"/>
			<path d="M270.1,719.1c0.1-0.1,0.3-0.3,0.5-0.5C270.4,718.8,270.3,719,270.1,719.1z"/>
			<path d="M272.5,520.2c-0.1-0.1-0.3-0.3-0.5-0.5C272.2,519.9,272.3,520,272.5,520.2z"/>
			<path d="M273,477.1c-0.1-0.1-0.3-0.3-0.5-0.5C272.6,476.8,272.8,476.9,273,477.1z"/>
			<path d="M273,520.7c-0.1-0.1-0.3-0.3-0.5-0.5C272.7,520.4,272.9,520.6,273,520.7z"/>
			<path d="M305,307.1c-0.1,0.5-0.3,0.8,0.3,1.1c0.3,0.2,0.5,0.5,0.7,0.9c-1.1-0.1-2-1-3.1-1c-0.1,0-0.2-0.2-0.3-0.3
				c0.1-0.1,0.3-0.2,0.4-0.3C303.6,307.3,304.2,306.9,305,307.1z"/>
			<path d="M305.4,264c-0.2,0.5-0.3,0.8,0.3,1.1c0.3,0.2,0.5,0.5,0.7,0.9c-1.1-0.1-2-1-3.1-1c-0.1,0-0.2-0.2-0.3-0.3
				c0.1-0.1,0.3-0.2,0.4-0.3C304,264.2,304.6,263.9,305.4,264z"/>
			<path d="M307.4,262c-0.1,1.2-0.8,1.9-2,2C305.9,263.1,306.6,262.5,307.4,262z"/>
			<path d="M307.9,261c0,0.4-0.1,0.8-0.5,1C307.4,261.6,307.5,261.2,307.9,261z"/>
			<path d="M306,349.2c-0.1,0.1-0.3,0.3-0.5,0.5C305.7,349.5,305.9,349.3,306,349.2z"/>
			<path d="M306,309.1c0.1,0.1,0.3,0.3,0.5,0.5C306.3,309.4,306.1,309.2,306,309.1z"/>
			<path d="M306.4,266c0.1,0.1,0.3,0.3,0.5,0.5C306.7,266.3,306.5,266.1,306.4,266z"/>
			<path d="M207.8,768.6c6.1,0.1,12.2,0.1,18.4,0.2c0.6,0,1.1,0,1.7,0c1,0,1.6,0.6,1.6,1.6c0,3.4-0.1,6.8-0.1,10.2
				c0,0.8-0.4,1.2-1.3,1.3c-0.5,0-1,0-1.4,0c-12.5-0.1-25.1-0.3-37.7-0.4c-0.4,0-0.8,0-1.2,0c-1,0-1.6-0.4-1.5-1.5
				c0-3.4,0.1-6.8,0.1-10.3c0-0.9,0.5-1.3,1.4-1.3c1.8,0,3.6,0,5.4,0.1C198,768.5,202.9,768.5,207.8,768.6z M202.9,775.4
				L202.9,775.4c0,1.3,0,2.5,0,3.7c0,2.3,0,2.2,2.5,2.3c0.2,0,0.5,0,0.7,0c1.5-0.1,1.6-0.1,1.7-1.8c0.1-2.1,0-4.3,0.1-6.5
				c0-3.3-0.4-3.7-3.6-3.2c-0.8,0.1-1.2,0.5-1.2,1.3C203,772.6,202.9,774,202.9,775.4z M202.3,775.4L202.3,775.4c0-1.1,0-2.3,0-3.5
				c0-2.5,0-2.5-2.5-2.5c-0.1,0-0.3,0-0.5,0c-1.9,0-1.8,0.1-1.9,2.3c0,2.1,0,4.1-0.1,6.2c0,3-0.2,3,2.5,3c0.3,0,0.5,0,0.7,0
				c1.1,0.1,1.7-0.4,1.6-1.6C202.3,778.1,202.3,776.8,202.3,775.4z M191.6,775.8L191.6,775.8c0-1.1,0.1-2.3,0-3.5
				c0-2.4,0-2.2-2.9-2.3c0,0,0,0-0.1,0c-2.5,0.1-1.8,0-2.1,4.7c-0.1,0.6-0.1,1.2,0,1.9c0.2,4.9-0.6,4.9,2.2,5c0.5,0,1,0,1.4,0
				c0.8,0,1.2-0.5,1.2-1.3C191.5,778.8,191.5,777.2,191.6,775.8z M218.6,775.2L218.6,775.2c0,1.3-0.1,2.7,0,4c0,1.9,0.1,1.7,2.2,1.8
				c0.1,0,0.2,0,0.2,0c2.8-0.1,2.2,0.2,2.4-3.6c0-0.5,0-1.1,0-1.5c-0.2-6.4,0.8-6.5-3.1-6.4c-0.5,0-1.1,0-1.6,0.1
				c-0.1,0-0.1,0.1-0.1,0.1C218.6,771.4,218.6,773.3,218.6,775.2z M212.7,775.7c0-1.5,0-3,0-4.5c0-1.1-0.4-1.5-1.4-1.6
				c-0.4,0-0.8,0-1.2,0c-1.5,0.1-1.6,0.1-1.7,1.7c-0.1,2.6-0.1,5.1-0.1,7.8c0,1.9,0.1,1.9,1.9,2c0.3,0,0.7,0,1,0
				c1,0.1,1.4-0.5,1.5-1.5C212.6,778.3,212.7,777,212.7,775.7z M192.6,775.1c0,1.4,0,2.8,0,4.2c-0.1,1.2,0.5,1.7,1.6,1.6
				c0.5,0,1,0,1.4,0c0.9,0,1.3-0.5,1.3-1.4c0-2.9,0.1-5.8,0.1-8.8c0-0.9-0.4-1.3-1.4-1.4c-0.5,0-1,0-1.4,0c-1.2-0.1-1.6,0.5-1.6,1.7
				C192.6,772.4,192.6,773.8,192.6,775.1z M228.3,775.7L228.3,775.7c-0.8,0-1.2-0.6-0.8-1.3c1.3-3.1,1.2-4.5-0.4-4.5
				c-0.6,0-1.1,0-1.7,0c-1.3,0-1.5,1-1.1,2.7c0.4,2,0.5,4.1-0.1,6c-0.5,1.8-0.2,2.7,1.1,2.8c0.5,0,1,0,1.4,0
				c1.2,0.1,1.6-0.5,1.6-1.7C228.3,778.4,228.3,777,228.3,775.7z M213.7,775.5L213.7,775.5c0,1.6,0,3.1,0,4.7c0,0.8,0.4,1.2,1.2,1.3
				c0.5,0,1,0.1,1.4,0c1.6-0.1,1.6-0.1,1.7-1.8c0.1-2.6,0.1-5.2,0.1-7.8c0-1.7-0.1-1.8-1.7-1.9c-0.4,0-0.8,0-1.2,0
				c-1-0.1-1.4,0.5-1.5,1.5C213.7,772.9,213.7,774.2,213.7,775.5z"/>
			<path d="M206.6,765.6c-3.9,0-7.8-0.1-11.8-0.1c-1.1,0-2.2-0.2-3.3,0.6c-0.9,0.7-1.6-0.4-2.3-0.8c-0.3-0.1-0.2-0.4-0.1-0.7
				c0.4-0.6,2-1.2,2.6-0.7c0.9,0.7,1.8,0.6,2.8,0.6c8,0.1,15.9,0.2,24,0.3c0.8,0,2.2-0.5,2.2,0.6c0.1,0.7-1.4,0.4-2.2,0.4
				C214.5,765.7,210.5,765.7,206.6,765.6z"/>
			<path d="M286.5,744.4c0.5,0.2,0.8,0.5,1,1C286.9,745.4,286.5,745,286.5,744.4z"/>
			<path d="M372,8.1c5.9,0.1,11.9,0.1,17.8,0.2c2.3,0,2.4,0.1,2.3,2.4c0,2.8-0.1,5.7-0.1,8.5c0,2.1-0.1,2.2-2.2,2.2
				c-8.1-0.1-16.1-0.2-24.2-0.3c-4.1,0-8.2-0.1-12.2-0.1c-1.9,0-2-0.2-2-2c0-3,0-6,0.1-9c0-2,0.2-2.1,2.2-2C359.8,8,365.9,8,372,8.1
				z M367.1,14.7L367.1,14.7c0,1.3,0,2.5,0,3.7c0,0.1,0,0.1,0,0.3c0,2,0.1,2.1,2.1,2.1c0.1,0,0.3,0,0.5,0c1.7,0,1.7-0.1,1.7-2.1
				c0-2.5,0-5.1,0.1-7.5c0-2.1,0-2.2-1.9-2.3c-0.3,0-0.7,0-1,0c-1.7-0.1-2,1.2-0.7,4.7C368.2,14.2,367.8,14.7,367.1,14.7z
				 M376.4,14.9c0-1.6,0-3.1,0-4.7c0-1.1-0.4-1.5-1.4-1.5c-0.3,0-0.5,0-0.7,0c-2,0-2.1,0-2.2,2c0,2.7-0.1,5.3-0.1,8
				c0,1.9,0.1,1.9,1.9,2c0.3,0,0.7,0,1,0c1,0.1,1.4-0.5,1.5-1.5C376.4,17.7,376.4,16.3,376.4,14.9z M387.3,14.7c0,1.4-0.1,2.8,0,4.2
				c0,1.6,0.1,1.7,1.6,1.8c0.5,0,1,0,1.4,0c0.8,0,1.2-0.4,1.2-1.2c0-3.1,0.1-6.3,0.1-9.5c0-0.8-0.4-1.3-1.2-1.3c-0.5,0-1-0.1-1.4,0
				c-1.6,0.1-1.6,0.1-1.7,1.7C387.3,11.9,387.3,13.3,387.3,14.7z M381.3,14.7c0-1.4,0.1-2.8,0-4.2c0-1.6-0.1-1.7-1.6-1.8
				c-0.5,0-1,0-1.4,0c-0.8,0-1.2,0.4-1.2,1.2c0,3.1-0.1,6.3-0.1,9.5c0,0.8,0.3,1.3,1.2,1.3c0.5,0,1,0.1,1.4,0
				c1.6-0.1,1.6-0.1,1.7-1.7C381.3,17.5,381.3,16.1,381.3,14.7z M361.2,14.7L361.2,14.7c-0.8,0-1.2-0.6-0.9-1.3
				c1.2-3.1,1.4-4.8-0.3-4.8c-0.5,0-0.9,0-1.4,0c-0.9-0.1-1.7,0.7-1.7,1.6c0,3-0.1,6-0.1,9c0,0.9,0.4,1.4,1.4,1.4c0.5,0,0.8,0,1.3,0
				c1.2,0.1,1.7-0.4,1.6-1.6C361.2,17.5,361.2,16.1,361.2,14.7z M356.3,14.6L356.3,14.6c0-1.6,0-3.1,0-4.7c0-0.9-0.3-1.4-1.3-1.4
				c-0.5,0-1,0-1.4,0c-1.1-0.1-1.6,0.4-1.6,1.6c0,3-0.1,6-0.1,9c0,0.9,0.4,1.4,1.3,1.4c0.5,0,1,0,1.4,0c1.1,0.1,1.6-0.4,1.6-1.6
				C356.3,17.4,356.3,16,356.3,14.6z M362.3,14.5c0,1.5-0.1,3,0,4.5c0.1,1.4,0.2,1.5,1.9,1.6c1.6,0,2-0.1,2-1.4c0.1-3,0.1-6,0.1-9
				c0-1.4-0.2-1.5-1.9-1.6s-1.9,0.1-2,1.4C362.3,11.5,362.3,12.9,362.3,14.5z M386.3,14.9c0-1.6,0-3.1,0-4.7c0-1.3-0.8-1.4-1.8-1.4
				c-1.7,0-2,0.1-2.1,1.3c-0.1,3.1-0.1,6.1-0.1,9.2c0,1.3,0.8,1.4,1.8,1.4c1.7,0,2-0.1,2.1-1.3C386.3,17.9,386.3,16.4,386.3,14.9z"
				/>
			<path d="M368.3,24.4c5.7,0.1,11.5,0.1,17.2,0.2c0.5,0,0.9-0.2,1.3-0.4c0.9-0.5,2.4-0.2,2.9,0.5c0.1,0.2,0.1,0.5-0.1,0.7
				c-0.6,0.7-2.2,1-2.8,0.5c-0.9-0.7-1.9-0.5-2.8-0.5C374,25.3,364,25.2,354,25.1c-0.7,0-1.3,0.2-1.9-0.2c0.6-0.6,1.3-0.5,2-0.5
				C358.8,24.3,363.6,24.3,368.3,24.4L368.3,24.4z"/>
			<path d="M293.3,44.8c0,0.3,0,0.7,0,1c0,0.2,0,0.5-0.3,0.5c-0.1,0-0.2-0.2-0.3-0.3c-0.1-0.5-0.3-1.1-0.4-1.7
				C292.7,44.5,293,44.7,293.3,44.8z"/>
			<path d="M295.8,42.4c-0.2,0.4-0.6,0.5-1,0.5C295.1,42.4,295.4,42.4,295.8,42.4z"/>
			<path d="M293.9,43.9c0,0.4-0.1,0.8-0.5,1C293.3,44.4,293.5,44.1,293.9,43.9z"/>
			<path d="M294.9,42.8c-0.1,0.1-0.3,0.3-0.5,0.5C294.5,43.2,294.7,43,294.9,42.8z"/>
			<path d="M294.3,43.4c-0.1,0.1-0.3,0.3-0.5,0.5C294,43.7,294.2,43.5,294.3,43.4z"/>
			<path d="M368.2,400.4c5.9,0.1,11.9,0.1,17.8,0.2c2.4,0,2.4,0.1,2.3,2.4c0,2.8-0.1,5.7-0.1,8.5c0,2.1-0.1,2.2-2.2,2.2
				c-8-0.1-16.1-0.2-24.2-0.3c-4.1,0-8.2-0.1-12.2-0.1c-1.9,0-2-0.2-2-2c0-3,0-6,0.1-9c0-2,0.2-2.1,2.2-2
				C355.9,400.3,362,400.4,368.2,400.4z M373.2,407L373.2,407c0,1.5,0,3,0,4.5c0,0.8,0.4,1.2,1.2,1.3c0.5,0,1,0.1,1.4,0
				c1.6,0,1.6-0.1,1.7-2.1c0-2.3,0-4.7,0.1-6.9c0-2.3,0-2.4-1.9-2.4c-0.3,0-0.7,0-1,0c-1-0.1-1.4,0.5-1.5,1.5
				C373.2,404.2,373.2,405.6,373.2,407z M383.4,407.3c0,1.3-0.1,2.7,0,4c0,1.7,0.1,1.7,1.6,1.8c0.5,0,1,0,1.4,0
				c0.8,0,1.2-0.4,1.3-1.2c0-3,0.1-6,0.1-9c0-0.9-0.5-1.3-1.4-1.3c-0.4,0-0.8,0-1.2,0c-1.6,0.1-1.6,0.1-1.7,1.7
				C383.4,404.7,383.4,406,383.4,407.3z M352.2,407.5L352.2,407.5c-0.5-0.8-0.5-0.7-1-1.6c1.4-2.9,1.3-4.3-0.2-4.4
				c-0.5,0-1-0.1-1.4,0c-1.6,0-1.6,0.2-1.7,2.1c0,2.4,0,4.7-0.1,7.1c0,2.1,0,2.1,1.9,2.2c0.3,0,0.7,0,1,0c1,0.1,1.4-0.5,1.5-1.5
				C352.1,410.1,352.2,408.8,352.2,407.5z M353.1,406.8c0,1.5,0,3,0,4.5c0,1.1,0.4,1.5,1.5,1.5c0.4,0,0.8,0,1.2,0
				c1.5-0.1,1.6-0.1,1.7-1.8c0.1-2.6,0.1-5.1,0.1-7.8c0-1.9-0.1-1.9-1.9-2c-0.3,0-0.7,0-1,0c-1-0.1-1.4,0.5-1.5,1.5
				C353.1,404.1,353.1,405.5,353.1,406.8z M363.4,406.9L363.4,406.9c0,1.5,0,3,0,4.5c0,0.8,0.4,1.2,1.2,1.3c0.5,0,1,0.1,1.4,0
				c1.6-0.1,1.6-0.1,1.7-1.8c0.1-2.6,0.1-5.2,0.1-7.8c0-1.7-0.1-1.7-1.7-1.9c-0.4,0-0.8,0-1.2,0c-1-0.1-1.4,0.5-1.5,1.5
				C363.4,404.1,363.4,405.5,363.4,406.9z M368.3,407L368.3,407c0,1.5,0,3,0,4.5c0,0.8,0.4,1.2,1.2,1.3c0.5,0,1,0.1,1.4,0
				c1.6-0.1,1.6-0.1,1.7-1.8c0.1-2.6,0.1-5.2,0.1-7.8c0-1.7-0.1-1.8-1.7-1.9c-0.4,0-0.8,0-1.2,0c-1-0.1-1.4,0.5-1.5,1.5
				C368.3,404.2,368.3,405.6,368.3,407z M382.4,407.4c0-1.4,0.1-2.8,0-4.3c-0.1-1.4-0.2-1.5-1.9-1.6c-1.6,0-2,0.1-2,1.4
				c-0.1,2.8-0.1,5.7-0.1,8.5c0,1.4,0.2,1.5,1.9,1.6c1.6,0,1.9-0.1,2-1.4C382.5,410.2,382.4,408.8,382.4,407.4z M362.3,407.6
				L362.3,407.6c0-1.4,0.1-2.8,0-4.3c0-1.6-0.2-1.7-1.9-1.8c-1.7,0-1.9,0.1-2,1.7c-0.1,2.5,0,5-0.1,7.5c0,2.2,0.3,2.4,2.4,2.3
				c0.8-0.1,1.5-0.7,1.5-1.6C362.3,410.2,362.3,408.8,362.3,407.6z"/>
			<path d="M365.4,396.4c5.2,0.1,10.3,0.1,15.4,0.2c0.8,0,1.8,0.2,2.6-0.6c0.1-0.1,0.3-0.2,0.4-0.3c1-0.1,1.7,0.5,2.4,1
				c0.4,0.3,0,0.7-0.3,0.7c-0.9,0.3-1.7,1.7-2.7,0.3c-0.7-1-1.6-0.7-2.4-0.7c-7.6-0.1-15.2-0.2-22.8-0.2c-2.9,0-5.9-0.1-8.8-0.1
				c-0.2,0-0.7-0.1-0.7-0.2c0.1-0.5,0.5-0.3,0.7-0.3C354.6,396.3,360,396.3,365.4,396.4L365.4,396.4z"/>
			<path d="M271.9,388.4c-1.6-0.4-2.5-1.4-2.9-3C270.1,386.2,271.1,387.2,271.9,388.4z"/>
			<path d="M288.6,376.5c0-0.9,0.5-1.5,0.9-2.3c0.1-0.3,0-0.7,0.5-0.6c0.1,0.1,0.1,0.6,0.2,0.9c0,0.1,0,0.3,0,0.5
				C289.6,375.5,289.4,376.3,288.6,376.5z"/>
			<path d="M290.6,376.1c0.7,0.3,1.2,0.8,1.4,1.5C291.1,377.5,290.7,377,290.6,376.1z"/>
			<path d="M286.1,378c0.5-0.7,1.2-0.9,2-1C287.8,378,287,378.1,286.1,378z"/>
			<path d="M272.8,388.9c-0.4,0-0.8-0.1-1-0.5C272.3,388.5,272.6,388.5,272.8,388.9z"/>
			<path d="M290.1,375.1c0.4,0.2,0.5,0.6,0.4,1C290.2,375.9,290.1,375.5,290.1,375.1z"/>
			<path d="M290.3,411.6c0,0.4-0.1,0.8-0.5,1C289.7,412.2,289.9,411.9,290.3,411.6z"/>
			<path d="M291.2,410.7c-0.1,0.1-0.3,0.3-0.5,0.5C290.9,411,291.1,410.8,291.2,410.7z"/>
			<path d="M290.7,411.2c-0.1,0.1-0.3,0.3-0.5,0.5C290.4,411.5,290.6,411.3,290.7,411.2z"/>
			<path d="M288.1,377.1c0.1-0.1,0.3-0.3,0.5-0.5C288.4,376.7,288.3,376.9,288.1,377.1z"/>
			<path d="M309.3,72.1c-0.8-0.5-1.5-1.2-1.9-2C308.5,70.2,309.1,70.9,309.3,72.1z"/>
			<path d="M309.7,73.1c-0.4-0.2-0.5-0.6-0.4-1C309.7,72.3,309.7,72.7,309.7,73.1z"/>
			<path d="M306.9,113.1c-0.3,0-0.5,0.1-0.7,0c-0.6-0.2-1.6-0.3-1.6-0.7c0-0.6,1-0.3,1.6-0.7c0.5-0.3,1.1-0.7,1.8-0.6
				c-0.3,0.3-0.4,0.7-0.7,0.9C306.7,112.3,306.7,112.7,306.9,113.1z"/>
			<path d="M308.8,115.1c-0.8-0.5-1.5-1.2-1.9-2C308.1,113.3,308.7,114,308.8,115.1z"/>
			<path d="M309.3,116.2c-0.4-0.2-0.5-0.6-0.4-1C309.2,115.4,309.3,115.8,309.3,116.2z"/>
			<path d="M307.9,111.1c0.1-0.1,0.3-0.3,0.5-0.5C308.2,110.8,308,111,307.9,111.1z"/>
			<path d="M306.9,156.8c-0.8-0.2-1.7-0.4-2.6-0.6c-0.3-0.1-0.5-0.2-0.5-0.4c-0.1-0.3,0.2-0.5,0.5-0.5c0.6-0.1,1.1-0.1,1.7,0
				C306.3,155.7,306.6,156.2,306.9,156.8z"/>
			<path d="M306,155.2c0.2-0.4,0.6-0.5,1-0.5C306.8,155.2,306.4,155.2,306,155.2z"/>
			<path d="M307.5,157.2c-0.1-0.1-0.3-0.3-0.5-0.5C307.1,156.9,307.3,157.1,307.5,157.2z"/>
			<path d="M307,154.8c0.1-0.1,0.3-0.3,0.5-0.5C307.3,154.4,307.2,154.6,307,154.8z"/>
			<path d="M307.9,157.8c-0.1-0.1-0.3-0.3-0.5-0.5C307.6,157.4,307.8,157.6,307.9,157.8z"/>
			<path d="M307.5,154.2c0.1-0.1,0.3-0.3,0.5-0.5C307.8,153.9,307.6,154.1,307.5,154.2z"/>
			<path d="M228.5,589.5c-0.5-0.3-0.8-0.9-0.8-1.5c0.4-1.7,0.2-3.3,0.4-4.9c0.1-0.7,0.4-1.1,1.1-1.1c0.8-0.1,1.6,0,2.4,0
				c1.6,0.1,1.6,0.1,1.6,1.8c0.1,1.2,0.4,2.5,0.4,3.7c0.1,1.5-0.4,2.8-2.1,3.1l-0.5-0.1l1-0.2V590l-0.5-0.1l0.7-0.7
				c0.2-0.3,0.4-0.5,0.5-0.8c0.6-1.3,0.2-2.7-0.2-4.1c-0.4-1.5-0.6-1.5-2.5-1.5c-1.4,0-1.2,1.1-1.4,1.9c-0.1,0.2-0.1,0.5,0,0.7
				c0.5,1.8,0.9-2.3,1.5,2.1c-0.2,0.5-0.4,0.9-0.6,1.4h-0.1c-0.2-0.2-0.5-0.6-0.6-0.5C228.5,588.6,228.7,589.1,228.5,589.5
				L228.5,589.5z"/>
			<path d="M238.5,590.2c-0.4-0.3-0.7-0.8-0.6-1.3c0.3-1.5,0.1-3,0.2-4.5c0.1-1.3,0.3-1.3,2.8-1.3c2.3,0,2.4,0.1,2.5,1.4
				c0.1,1.3,0,2.5,0.1,3.7c0.2,2.9-1.3,4-4.1,2.9l0.1-0.1c0.4,0,0.7-0.1,0.9-0.5c0.2,0,0.3,0,0.5,0c0.3,0.4,0.6,0.5,1,0
				c0.1-0.2,0.3-0.3,0.5-0.5c0.9-1.8,0.4-3.7,0.4-5.6c0-0.5-0.3-0.7-0.8-0.8c-0.5-0.1-1-0.1-1.4-0.1c-1.8,0-1.8,0-2,1.6
				c-0.1,1.6,0,3.1-0.1,4.7L238.5,590.2z"/>
			<path d="M231.7,590.5c-1.1,0.9-1.8,0.5-2.5-0.5l0.1-0.1c0.3-0.2,0.4-0.5,0.4-0.9l0.1-0.1c0.6,0.4,1.2,0.5,1.9,0.6
				c0,0.1,0.1,0.3,0.1,0.5l-0.1,0.1c-0.3,0.1-0.6,0.1-0.9,0.1C230.9,590.6,231.3,590.4,231.7,590.5L231.7,590.5z"/>
			<path d="M265.5,587.3c0.8,0.5,1.5,1.2,1.9,2C266.2,589.2,265.7,588.5,265.5,587.3z"/>
			<path d="M267.4,589.3c0.8,0.1,1.4,0.3,2,1C268.6,590.4,267.8,590.3,267.4,589.3z"/>
			<path d="M264.5,585.3c0.6,0.5,0.9,1.2,1,2C264.6,586.9,264.5,586.2,264.5,585.3z"/>
			<path d="M239.4,591c-0.6-0.1-0.9-0.4-1-1l0.1-0.1c0.1,0,0.3,0,0.5,0.1c0.1,0.2,0.3,0.3,0.5,0.5
				C239.4,590.7,239.4,590.9,239.4,591L239.4,591z"/>
			<path d="M229.2,590c-0.1-0.2-0.3-0.3-0.5-0.5l0.1-0.1c0.1,0.1,0.3,0.3,0.5,0.5L229.2,590z"/>
			<path d="M340.3,215.2c0.4,0,0.8,0,1.2,0c1.2-0.1,1.6,0.3,1.2,1.6c-0.3,0.8-0.1,1.7,0.1,2.5c0.1,0.2,0.1,0.5,0.2,0.7
				c0.2,1.5-0.1,2.8-1.4,3.7c-1,0.7-2,0.6-2.9,0c-1.4-0.9-1.7-2.2-1.4-3.7c0.3-1.3,0.6-2.5,0.2-3.9c-0.2-0.7,0.3-0.9,0.9-0.9
				C339.1,215.2,339.7,215.2,340.3,215.2L340.3,215.2z M341.6,222.7c-0.1,0.1-0.1,0.1-0.1,0.1C341.5,222.9,341.6,222.8,341.6,222.7
				c0.3-0.3,0.5-0.6,0.5-1c0.1-0.1,0.3-0.2,0.3-0.3c0.1-0.2,0.2-0.5-0.1-0.6c-0.3-0.1-0.2,0.3-0.3,0.5c0,0.1,0,0.3,0,0.5
				C341.7,222,341.6,222.3,341.6,222.7z M338.6,222.7c0-0.3,0-0.7,0-1c1.8,1.1,2.3,0.9,2.8-1c0.1-0.5,0.1-1,0.1-1.5
				c0.9-2.6,0.3-3.5-2.3-3c-0.7,0.1-1,0.5-1.1,1.1c0,0.7-0.1,1.3,0.4,1.9c0,0.8,0,1.7,0,2.5c-0.2,0-0.3,0-0.5,0c0-0.1,0-0.3,0-0.5
				c0-0.2,0-0.5-0.3-0.5c-0.2,0.1-0.1,0.4-0.1,0.6c0.1,0.1,0.2,0.2,0.3,0.3C338.2,222.1,338.3,222.5,338.6,222.7
				c0.1,0.1,0.1,0.1,0.2,0.1C338.8,222.8,338.7,222.8,338.6,222.7z M340,223.5c0.1,0,0.1,0.1,0.1,0.1s0.1-0.1,0.1-0.1
				c-0.1,0-0.1-0.1-0.1-0.1L340,223.5z"/>
			<path d="M351.9,223.9c-1.3,1.1-2.4,1.3-3.4,0.6c-1.1-0.8-1.7-2-1.4-3.4c0.3-1.3,0.5-2.6,0.4-3.9c-0.1-0.5,0.1-0.8,0.6-0.8
				c1.4,0,2.9,0,4.3,0.1c0.5,0.1,0.5,0.5,0.1,0.9l-0.1-0.1c-1.1-0.9-2.3-0.5-3.5-0.4c-0.7,0.1-1.3,1.5-0.8,2.5
				c0.4,0.9,0.7-0.3,1.1-0.4c0.7-0.1,1.2-0.3,1.8,0.4c-1.5,0.3-2.3,1-2.3,2c0,1,0.8,1.7,2.3,2c0,0.1,0,0.3,0,0.5c-0.7,0-1.3,0-2,0
				c-0.2-0.1-0.3-0.3-0.5-0.5c-0.1-0.4-0.1-0.8-0.4-1c0-0.1,0-0.3,0-0.5c0-0.2,0-0.5-0.3-0.5c-0.2,0.1-0.1,0.4,0,0.6
				c0.1,0.1,0.2,0.2,0.3,0.3c0,0.4,0.1,0.7,0.4,1c0.1,0.2,0.3,0.3,0.5,0.5c0.6,0.7,1.3,0.7,2,0C351.2,223.8,351.6,223.8,351.9,223.9
				L351.9,223.9z"/>
			<path d="M352.5,217c0.1,1.5,0.6,2.9,0.5,4.4c-0.1,0.9-0.1,1.7-1,2.1l-0.1-0.1c0-0.3,0-0.7,0-1c0.9-1.1,0.5-2.3,0.3-3.5
				C352,218.3,351.7,217.6,352.5,217L352.5,217z"/>
			<path d="M312.7,217.4c-0.7-0.3-1.2-0.8-1.4-1.5C312.2,216,312.7,216.5,312.7,217.4z"/>
			<path d="M313.7,219.4c-0.6-0.5-0.9-1.2-1-2C313.6,217.8,313.8,218.6,313.7,219.4z"/>
			<path d="M342.3,198.2c1.2,0.6,1.1,1.8,0.9,2.8c-0.3,1.2-0.5,2.4-0.2,3.7c0.2,0.7-0.2,0.9-0.7,1c-1.3,0.1-2.6,0-3.9,0
				c-0.5,0-0.8-0.3-0.7-0.8c0.5-1.5,0-2.9-0.2-4.4c-0.1-1.2,0.2-2.4,1.3-3.1c1.1-0.7,2.2-0.7,3.2,0
				C342.2,197.6,342.3,197.9,342.3,198.2c-0.2,0-0.3,0-0.5,0c-0.1-0.1-0.1-0.1-0.2-0.1c0.1,0,0.1,0.1,0.2,0.1c0,0.4,0.1,0.7,0.5,1
				c0,0.1,0,0.3,0,0.5c0,0.2,0,0.5,0.3,0.5c0.2-0.1,0.1-0.4,0.1-0.6c-0.1-0.1-0.2-0.2-0.3-0.3C342.3,198.9,342.3,198.6,342.3,198.2z
				 M338.9,198.2c0.1-0.1,0.1-0.1,0.1-0.1C338.9,198.1,338.9,198.1,338.9,198.2c-0.3,0.3-0.5,0.6-0.5,1c-0.1,0.1-0.3,0.2-0.3,0.3
				c-0.1,0.2-0.2,0.5,0.1,0.6c0.3,0.1,0.2-0.3,0.3-0.5c0-0.1,0-0.3,0-0.5C338.7,198.9,338.9,198.6,338.9,198.2z M338.8,201.7
				c-0.7,0.7-0.5,1.7-0.4,2.6c0,0.3,0.2,0.7,0.5,0.7c0.8,0.2,1.8,0.4,2.6,0c0.9-0.3,0.7-1.3,0.6-1.9c-0.2-0.9-0.7-0.2-1-0.1
				C339.9,203.4,339.1,203.2,338.8,201.7c0.7,0.3,1.3,1.4,2.3,0.4c0.8-0.9,0.7-1.8,0.2-2.7c-0.1-0.1-0.1-0.3-0.3-0.4
				c-0.5-0.7-1-0.7-1.6-0.1C339,199.7,338.8,200.7,338.8,201.7z"/>
			<path d="M352.6,205.3c0.3,0.4,0.4,0.9-0.1,0.9c-1.4,0.1-2.9,0-4.4,0c-0.6,0-0.6-0.5-0.5-0.9c0.2-1.3,0-2.5-0.3-3.7
				c-0.3-1.4,0.5-3.2,1.6-3.6c1.2-0.5,2.4-0.6,3.3,0.8l-0.1,0.1c-0.5,0.3-0.4,0.7,0.1,0.9l0,0c-0.1,1.2,0.5,2.7-1,3.5
				c0.1-1,0.8-2,0.2-3.1c-0.5-0.9-1.3-1.1-1.9-0.3c-0.5,0.6-0.7,1.2-0.4,2.1c0.4,1,1.1,1.3,2.1,1.4c-0.9,0.8-1.6,0.5-2.3-0.2
				c-0.1-0.1-0.3-0.4-0.5-0.1c-0.5,0.5,0,2.7,0.8,2.7c1.2,0.1,2.4,0.5,3.5-0.4L352.6,205.3z M349.2,198.8c-0.1,0.2-0.3,0.3-0.5,0.5
				c-0.3,0.3-0.5,0.6-0.5,1c-0.1,0.1-0.3,0.2-0.3,0.3c-0.1,0.2-0.2,0.5,0.1,0.6c0.3,0.1,0.2-0.3,0.3-0.5c0-0.1,0-0.3,0-0.5
				c0.4-0.2,0.5-0.6,0.5-1C348.9,199.1,349,199,349.2,198.8c0.2-0.1,0.5,0,0.5-0.3c0,0-0.1-0.1-0.2-0.1
				C349.4,198.6,349.3,198.7,349.2,198.8z"/>
			<path d="M352.2,198.8c1.6,1.2,0.8,2.9,0.8,4.4c0,0.7-0.5,1.4-0.4,2.2l-0.1,0.1c-0.6-0.6-0.4-1.3-0.2-2c0.3-1.2,0.6-2.4-0.2-3.5
				l0,0c0-0.3,0-0.6-0.1-0.9L352.2,198.8z"/>
			<path d="M313.9,202.9c-0.6-0.5-0.9-1.2-1-2C313.7,201.3,313.9,202.1,313.9,202.9z"/>
			<path d="M311.9,199.9c-0.7,0-1.2-0.3-1.4-1C311.2,198.9,311.7,199.2,311.9,199.9z"/>
			<path d="M312.4,200.4c-0.1-0.1-0.3-0.3-0.5-0.5C312.1,200,312.3,200.2,312.4,200.4z"/>
			<path d="M312.9,200.9c-0.1-0.1-0.3-0.3-0.5-0.5C312.6,200.6,312.7,200.7,312.9,200.9z"/>
			<path d="M229.7,562.7c2.2-1.3,3.8-0.4,4,2.1c0.1,1.5-0.6,2.9-0.2,4.4c0.1,0.4-0.3,0.7-0.7,0.7c-0.3,0.1-0.6,0.1-0.9,0.1
				c-3.6,0-3.2,0.1-3.2-3c0-0.6,0-1.2-0.2-1.8c-0.2-0.8,0-1.4,0.6-2l0.1,0.1c0.1,0.3-0.2,0.7,0.2,0.9c0.1,0.1,0.4-0.3,0.5-0.5l0,3.1
				c-0.2,0.1-0.4-1.1-0.7-0.1c-0.1,0.4,0,0.7,0,1.1c0.2,1.6,0.2,1.6,1.8,1.6c1.6,0,1.6,0,1.6-1.8c0-0.3,0-0.6,0-0.9
				c0.7-1,0.7-2.1,0-3.1c-0.1-0.2-0.3-0.3-0.4-0.5c-0.1-0.1-0.1-0.1-0.1-0.1c0.1,0.1,0.1,0.1,0.2,0.1c0.2,0.1,0.3,0.3,0.6,0.4l0,3.2
				c-0.9,0.2-1.4,1.5-2.4,0.4c1.1-0.2,1.7-0.8,1.7-1.9c0.1-1.2-0.5-1.9-1.7-2.2c-0.2-0.3-0.5-0.4-0.9-0.4L229.7,562.7z"/>
			<path d="M243.2,564c0.5,0.5,0.6,1.1,0.6,1.8c-0.1,1.3-0.2,2.7-0.2,3.9c0,1.1-0.7,1.5-1.6,1.3c-1.2-0.2-3.1,0.9-3.7-0.9
				c-0.4-1.7-0.4-3.7-0.1-5.6c0-0.2,0.3-0.4,0.5-0.5l0.1,0.1c0,1.7,0,3.5,0.1,5.2c0,0.9,0.3,1.4,1.3,1.3c0.5-0.1,1-0.1,1.4,0
				c1,0.1,1.2-0.4,1.4-1.3c0.2-1.7,0.1-3.5,0.1-5.2L243.2,564z"/>
			<path d="M239.7,562.9c0.9-0.7,1.7-0.7,2.5,0l-0.1,0.1c-0.2,0.1-0.4,0.1-0.6,0.2c0.2,0.1,0.4,0.1,0.6,0.2l0.1,0.1
				c0.1,0.1,0.3,0.3,0.5,0.5l0,0c0,1.1,0,2.1-0.1,3.2c-0.1,0.7-0.5,1.2-1.3,1.3c-0.8,0.1-1.5,0.1-1.6-1c0.8,0.3,1.6,0.8,2.2-0.2
				c0.5-0.8,0.4-1.8,0-2.7c-0.2-0.4-0.6-0.6-1-0.6c-0.5,0.1-1,0.4-1.1,0.9c-0.1,0.8-0.1,1.7-0.2,2.5c-0.9-1.1-0.3-2.3-0.5-3.5l0,0
				c0.1-0.1,0.3-0.3,0.5-0.5l0,0c0.2-0.1,0.4-0.1,0.6-0.2C240.1,563.1,239.9,563.1,239.7,562.9L239.7,562.9z"/>
			<path d="M266.2,569.8c0.5,0.2,0.8,0.5,1,1C266.5,570.8,266.2,570.4,266.2,569.8z"/>
			<path d="M242.3,562.9c0.6,0.1,0.9,0.4,1,1l-0.1,0.1c-0.1,0-0.3,0-0.5-0.1l0,0c-0.1-0.1-0.3-0.3-0.5-0.5l-0.1-0.1
				C242.2,563.3,242.2,563.2,242.3,562.9L242.3,562.9z"/>
			<path d="M238.7,564c0.1-0.6,0.4-0.9,1-1l0.1,0.1c0,0.1,0,0.3,0,0.5l0,0c-0.1,0.1-0.3,0.3-0.5,0.5l0,0c-0.1,0-0.3,0-0.5,0
				L238.7,564z"/>
			<path d="M228.9,562.8c0.1-0.1,0.3-0.3,0.5-0.5l0.1,0.1C229.3,562.5,229.1,562.7,228.9,562.8L228.9,562.8z"/>
			<path d="M265.6,569.3c0.1,0.1,0.3,0.3,0.5,0.5C266,569.6,265.8,569.4,265.6,569.3z"/>
			<path d="M232.7,589c-0.1,0-0.3,0-0.5,0c0.1-1.4,0.1-2.9-0.9-4c1,0.1,1.4,0.7,1.4,1.6C232.7,587.4,232.7,588.2,232.7,589z"/>
			<path d="M231.2,585c-0.5,0.2-0.9,0.5-1.4,0.5C230.1,584.9,230.4,584.1,231.2,585z"/>
			<path d="M233,589.4c0,0-1.2,0-1.3,0c0.1-0.1,0.3-0.5,0.3-0.5l1,0.3V589.4z"/>
			<path d="M242.4,590.1c-0.2,0.1-0.3,0.3-0.5,0.5c-0.3,0-0.7,0-1,0c1.1-1.1,1.1-2.5,1-4C242.9,587.6,242.3,588.9,242.4,590.1z"/>
			<path d="M239,590.1c0.1-1.1-0.4-2.4,0.5-3.4c-0.1,1.4-0.1,2.9,0.9,4c-0.3,0-0.7,0-1,0C239.3,590.4,239.2,590.4,239,590.1z"/>
			<path d="M242,586.5c-0.8-0.5-1.6-0.6-2.4,0C240.5,585.1,241.1,585.1,242,586.5z"/>
			<path d="M339.7,218.2c1.2-0.8,1.6,0,2,1C341,218.9,340.3,218.6,339.7,218.2z"/>
			<path d="M338.7,219.2c0-0.6,0.3-0.9,1-1C339.5,218.7,339.2,219,338.7,219.2z"/>
			<path d="M351.9,222.8c-0.3,0.1-0.7,0.3-1,0.5c0.5-1.3,0.5-2.7,0-4C352.4,220.2,351.8,221.6,351.9,222.8z"/>
			<path d="M229.9,566.9c0.1,0.1,0.3,0.3,0.5,0.5C230.3,567.2,230.1,567,229.9,566.9z"/>
			<path d="M230,563.4c0.1-0.1,0.3-0.3,0.5-0.5C230.3,563,230.1,563.2,230,563.4z"/>
		</g>
		
			<rect x="334.1" y="40.3" transform="matrix(1.043557e-02 -0.9999 0.9999 1.043557e-02 267.51 413.1111)" class="st0" width="16.7" height="62.3"/>
		<text transform="matrix(0.9778 1.020363e-02 -9.795759e-03 1 318.9411 71.4111)" class="st1 st2 st3">Lab HES</text>
		
			<rect x="307.3" y="128.1" transform="matrix(9.796056e-03 -1 1 9.796056e-03 205.707 477.7967)" class="st0" width="73.5" height="13.9"/>
		<text transform="matrix(1.001813e-02 -1.0226 0.9999 1.043526e-02 346.8793 171.8371)" class="st1 st2 st4">Ruang Dosen</text>
		
			<rect x="305.9" y="278.4" transform="matrix(9.796056e-03 -1 1 9.796056e-03 53.9255 625.1802)" class="st0" width="73.5" height="13.9"/>
		<text transform="matrix(1.001813e-02 -1.0226 0.9999 1.043526e-02 345.4056 322.1663)" class="st1 st2 st4">Ruang Dosen</text>
		
			<rect x="202.4" y="647.4" transform="matrix(9.796056e-03 -1 1 9.796056e-03 -417.4363 887.1085)" class="st0" width="73.5" height="13.9"/>
		<text transform="matrix(1.001813e-02 -1.0226 0.9999 1.043526e-02 241.9786 691.1305)" class="st1 st2 st4">Ruang Dosen</text>
		
			<rect x="223.9" y="403.4" transform="matrix(1.043498e-02 -0.9999 0.9999 1.043498e-02 -208.2571 671.5485)" class="st0" width="22.5" height="75.1"/>
		<text transform="matrix(0.9778 1.020408e-02 -9.796203e-03 1 215.2543 438.1394)" class="st1 st2 st3">Lab IoT</text>
		
			<rect x="223.7" y="690.1" transform="matrix(1.043498e-02 -0.9999 0.9999 1.043498e-02 -495.121 955.088)" class="st0" width="22.5" height="75.1"/>
		<text transform="matrix(0.9778 1.020408e-02 -9.796203e-03 1 210.8331 724.8007)" class="st1 st2 st3">Lab NOS</text>
		
			<rect x="330.6" y="318.4" transform="matrix(1.043498e-02 -0.9999 0.9999 1.043498e-02 -17.6727 694.0441)" class="st0" width="22.5" height="75.1"/>
		<text transform="matrix(0.9778 1.020408e-02 -9.796203e-03 1 310.8045 352.9801)" class="st1 st2 st3">Lab Foresty</text>
		
			<rect x="194.2" y="730.9" transform="matrix(1.043498e-02 -0.9999 0.9999 1.043498e-02 -565.1752 965.9039)" class="st0" width="22.5" height="75.1"/>
		<text transform="matrix(0.9778 1.020408e-02 -9.796203e-03 1 190.4255 761.872)" class="st1 st2 st5">Arah GSG</text>
		
			<rect x="360.1" y="0.9" transform="matrix(1.043498e-02 -0.9999 0.9999 1.043498e-02 329.0021 409.3517)" class="st0" width="22.5" height="75.1"/>
		<text transform="matrix(0.9778 1.020408e-02 -9.796203e-03 1 351.416 31.7663)" class="st1 st2 st5">Arah Parkiran</text>
		
			<rect x="203.9" y="495.3" transform="matrix(9.796056e-03 -1 1 9.796056e-03 -263.8949 737.9611)" class="st0" width="73.5" height="13.9"/>
		<text transform="matrix(1.001813e-02 -1.0226 0.9999 1.043526e-02 243.441 539.0314)" class="st1 st2 st4">Ruang Dosen</text>
	</g>
	
		<rect x="232.5" y="363.3" transform="matrix(1.043444e-02 -0.9999 0.9999 1.043444e-02 -156.5097 629.1735)" class="st0" width="14.2" height="60.7"/>
	<text transform="matrix(0.7968 8.314310e-03 -9.795537e-03 1 209.2307 396.5526)" class="st1 st2 st3">Ruang Sidang</text>
</g>
</svg>
