<?xml version="1.0" encoding="utf-8"?>
<!-- Generator: Adobe Illustrator 22.1.0, SVG Export Plug-In . SVG Version: 6.00 Build 0)  -->
<svg version="1.1" id="Layer_1" xmlns="http://www.w3.org/2000/svg" xmlns:xlink="http://www.w3.org/1999/xlink" x="0px" y="0px"
	 viewBox="0 0 268.1 784" style="enable-background:new 0 0 268.1 784;" xml:space="preserve">
<style type="text/css">
	.st0{fill:none;stroke:#000000;stroke-width:0.3;}
	.st1{opacity:0.5;enable-background:new    ;}
	.st2{font-family:'ArialMT';}
	.st3{font-size:11.9634px;}
	.st4{font-size:14.2541px;}
	.st5{font-size:6.6462px;}
	.st6{font-size:11.5286px;}
</style>
<title>EditDenahSVG4</title>
<g>
	<g>
		<g>
			<g>
				<path d="M113.4,0c-3.7,0-3.7,0-3.7,3c0,0.3,0,0.7,0,1c-0.1,11.9-0.3,24.2-0.4,35.9c0,1.4-0.1,2.9,0,4.2c0.1,0.9,1,1.7,2.1,1.8
					c3.2,0.1,6.6,0.1,9.9,0.1c2.7,0,2.7,0.1,2.7,2.3c0,0.3,0,1.3,0,1.3l-1.1,122.6c0,0,0,1,0,1.5c-0.1,1.6-0.1,1.7-2.2,1.7
					c-3.1,0-6,0-9.1-0.1c-4.3,0-4.3,0-4.4,3.4c-0.3,20.6-0.4,41.2-0.8,61.8c0,0.5,0,0.7,0,1.3c0.1,1.7,0.4,2,2.7,2
					c2.8,0.1,5.7,0,8.5,0.1c2.2,0,4.2,1.6,4.2,3.4c-0.4,39.6-1,79.1-1.5,118.7c0,3.5,0.3,3.3-4.5,3.3c-29.5-0.2-59-0.5-88.5-0.7
					c-4.1,0-4.1,0-4.2,3.4c0,0.5,0,0.8,0,1.3l-1.1,82c-0.4,27.5-0.7,54.9-1.1,82.4c0,0.7,0,1.3,0,2c-0.1,1-1.2,1.9-2.6,1.8
					c-4.8,0-9.4-0.1-14.2-0.1c-3.1,0-3.1,0-3.3,2.4c-0.3,21-0.5,42-0.8,63.1c0,2.5,0.3,2.6,3.7,2.7c4.4,0,13.8,0,13.8,0
					s3.1,0.2,2.4,2.9v0.5c0.2,40.3-0.3,80.6-1.1,120.8v1.7c0.3,0.9-1.2,1.5-1.2,1.5H14c0,0-5.9-0.4-8.8-0.4c-4.4,0-4.4-0.4-5,2.3
					v0.5c0.4,14,0.2,28.1,0,42.1v1.5c0.1,0.8,1.5,1.4,1.5,1.4h2.5c0,0,29.3,0,43.9,0.2c35.8,0.3,71.6,0.6,107.4,0.9
					c3.6,0,3.6,0,3.8-3c0-0.1,1.3,0,0.8,0V741c0.9-0.5,0.9-1,0.7-1.5c-0.1-1.6-0.4-1.9-2.4-2c-2.5-0.1-4.9,0-7.3-0.1
					c-4.8,0-4.4,0.3-4.4-3.5c0.4-40.2,1.4-120.5,1.4-120.5s0,0.3,0-0.2c0.1-1.7,0.1-1.8,2.2-1.8c3.2,0,6.5,0.1,9.8,0.1
					c4.4,0,4.8-3.4,4.8-3.4s0.4-43,0.8-64.2c0-0.4,0,0,0-0.5c0-1.9-0.1-2-2.5-2c-3.1-0.1-5.9,0-8.9-0.1c-4.8,0-3.8,0.2-4.1-4.6
					c-0.9-39.2,0.1-78.4,1.4-117.6c0.1-4.5-0.7-4.2,4.2-4.2c34.7,0.3,69.7,0.6,104.4,0.9c0.9,0,1.6,0,2.5,0c2.2,0,2.4-0.1,2.5-2
					c0.1-3.6,0.1-7.3,0.1-10.9c0.1-10,0.3-19.9,0.3-30c0-2.5,0-2.5-3.1-2.5c-3.7,0-7.6-0.1-11.4-0.1c-3.2,0-3.2,0-3.4-2.8
					c0-0.3,0-0.8,0-0.8s0.8-79.8,1.1-119.9v-1.5c0.2-1.9,0.4-1.9,2.8-2.2h13.5c2.7,0.4,3.1,0.2,3.2-2c0.3-21.2,0.4-42.5,0.8-63.6
					c0-2.2-2.7-2.5-2.7-2.5h-13.9c0,0-2.4,0-2.5-2v-1c0.4-40.7,1-81.1,1.1-121.9v-1.7c0.4-0.8,2.1-1.8,2.1-1.8h3.8
					c0,0,4.9,0.6,7.3,0.6c5.1-0.2,5.1,0.5,5.4-2.3v-0.5c-0.1-13.4,0.2-26.9,1.1-40.3V3.4c-0.8-0.8-2.3-1.5-2.3-1.5s-2.7,0-3.6,0
					c-15-0.1-29.9-0.2-44.7-0.4C185.1,0.6,149.2,0.3,113.4,0z M133.8,411.3c0.3,0.7,0.3,1.1-0.8,1.2c-0.8,0.1-1.4,0-2.1,0
					c-1,0-1.4-0.5-1.4-1.3c-0.3-1.8,0-2.3,1.9-2.7c-0.3-0.4-0.8-0.5-1.3-0.6c-1.3-0.4-1.8,1.1-1.8,1.1s0,0,0,0.3
					c-0.2,3.1,0.2,2.7-3.8,2.8c-0.3,0-0.8,0-1.1,0c-3-0.2-3.1,0-3.1-2.2c0.1-6.3,0.1-12.7,0.2-19.1c0-0.6,0-1.1,0-1.6
					c0-1.7-0.4-2.1-2.5-2c-1.5,0.2-2.7-0.6-4.3-0.4c1.1,0.8,2.7,1,3.9,1.4c2.7,0.8,1.3,2.7,0,9.1c-0.8,3.5-0.3,7.1,0.8,10.5
					c1.1,3.4,0.8,4.5-1.5,4.4c-0.7,0-1.3,0-1.9,0c-28.4-0.2-56.9-0.5-85.3-0.7c-4.2,0-3.8,0-3.8-3.2c0.1-11.5,0.3-23.1,0.3-34.6
					c0-0.5,0-1,0-1.5c-0.1-1,0.4-1.6,1.9-1.5c0.7,0,2.2,0,2.2,0s56.9,0.8,85.1,1h0.7c3.2,0,3.2,0,3.2,2.5c0,0.9-0.1,1.9,0,2.7
					c0.1,1.3-0.7,1.8-2.1,2.1c-2.1,0.4-4.2,0.2-6.1,0.1c-3.8,0-4.6-0.2-3.2,3.7c0.1,0.3,0.4,0.5,0.8,0.8c-0.4-3-0.4-3,3.4-3
					c2.1,0,4.3,0,6.4-0.3c1.9-0.3,2.1-1,1.9-2.7c-0.1-0.6-0.1-1.2,0-1.8c0.3-3.9-0.3-4,2.5-4.1h0.9c4.4,0,4.4,0,4.8,3.5
					c0.1,1.5,0.1,1.5,1.9,1.1c-0.7-0.4-0.7-1-0.4-1.6c0.1-1,0.3-2,0.3-3c0-0.5-0.4-1.3-0.3-1.7c0.7-0.6,1.8-0.3,2.6-0.2
					c2.1,0,4.3,0,6.6,0.1c0.9,0,1.4,0.3,1.3,1.1c-0.4,1.2-0.4,2.5-0.4,3.6c0,1-0.9,1.3-1.8,1.3c0.3,0.4,0.8,0.5,1.3,0.7
					c1.1,0.4,1.8,0.1,1.9-0.9v-0.5c0.2-3.3,0.2-3.3,4.2-3.3c37.4,0.3,74.6,0.6,112.1,0.9c4.5,0,4.2-0.2,4.1,3.5
					c-0.1,11.3-0.9,33.9-0.9,33.9v1.5c0,0,0.4,1.7-1.9,1.3h-1.4c-37.6,0.2-74.9-0.1-112.4,1h-0.9c-3.2-1.4-3.2-1.4-3.2-3.8
					c0-0.8,0.4-1.9-0.4-2.3c-1-0.3-2.5,0.1-3.2,1.2c0.9,0.2,2.1-1.1,2.4,0.6c0.3,1.7-0.1,2.7-1.3,2.9c-1.6,0.3-2.5-0.1-3.1-1.5
					c-1.1-0.9-1.6-2.4-3.6-2.6C132,409.5,133.3,410,133.8,411.3z M142.5,370.5c0.1-0.9,1.4-0.5,2.2-0.6c0.3,0,0.9,0,1.3,0.1
					c0.4,0.1,1,0.3,0.9,0.8c-0.1,0.4-0.3,0.5-0.9,0.6c-0.4,0.1-0.9,0.1-1.3,0.1C144,371.2,142.5,371.7,142.5,370.5z M124.7,412.9
					c1,0.2,2.6-0.3,2.6,0.8c0,1.1-1.4,0.7-2.5,0.7c-1.1,0-2.5,0.4-2.5-0.8C122.3,412.4,123.9,413.2,124.7,412.9z M121.4,426.4
					c0,0.5-0.1,1.1-0.9,1.1c-0.9,0-0.9-0.6-0.9-1.1c0-3.4,0.1-6.8,0.1-10.3c0-0.5,0.3-1,0.3-1.5s0.1-1.2,0.9-1.1
					c0.9,0.1,0.3,0.8,0.3,1.3c0,1.8,0,3.6-0.1,5.5l0,0C121.4,422.4,121.4,424.4,121.4,426.4z M27.2,456.7c-3.4,0-3.4,0-3.4-2.8
					c0.1-12.7,0.3-25.6,0.4-38.6c0-0.5,0-1.6,0-1.6s0.4-1.3,1.4-0.8h2.5c28.9-0.3,57.8,0,86.8,0.2c1.3,0,2.6-0.6,3.6,0.6
					c-1.1,0.7-2.2,0.4-3.4,0.4c-28.5-0.2-57-0.5-85.5-0.7c-4.4,0-4.2-0.2-4.2,3.4c-0.1,11.6-0.3,23.2-0.2,34.8v2
					c-0.2,0.9,1.5,1.8,1.5,1.8h2.1c0,0,57.6,0.2,86.3,0.4c3.8,0,3.8,0,3.2-3.1v-10.1c0.8-0.6,0.8-1.1,0.9-1.7c0-0.2,0.3-0.4,0.7-0.5
					c0.4-0.1,0.9,0.1,0.9,0.5c0.1,0.6-0.3,1.7-0.3,1.7s-0.1,7.8-0.1,11.7c0,2.8,0,2.8-3.4,2.8c-15.1-0.1-30.2-0.3-45.4-0.4
					C57,456.9,42.2,456.8,27.2,456.7z M119.5,458.2c0.7,0,0.8,0.4,0.9,0.9c0,1.7,0,3.5-0.1,5.1c0,1.7,0,3.5-0.1,5.1
					c0,0.5-0.3,0.9-0.9,0.9c-0.7,0-0.8-0.4-0.9-0.9c0-3.5,0.1-6.9,0.1-10.5C118.8,458.6,119,458.2,119.5,458.2z M27.9,498.8h-1.8
					c-2.7,1-2.7,1-2.7-1.2c0.1-12.7,0.3-25.4,0.4-38.2c0-0.5,0-1,0.1-1.5c0-0.2,0.3-0.5,0.7-0.4c0.1,0.1,0.3,0.2,0.3,0.3
					c0.1,1.3,0.1,2.7,0,3.9c-1.4,10.2-1.9,20.4-0.3,30.6c0.1,1.3,0,2.5,0.1,3.7C24.6,498.4,25,498.6,27.9,498.8
					c12.4,0,24.6,0.1,37.1,0.2c16.4,0.1,33.1,0.3,49.5,0.8h1.4c2.5-0.4,2.6-0.5,2.3-2.5v-11.5c0.4-0.7,0-2.1,1.2-2.1
					c1.6,0,1,1.4,1,2.2c0,3.9,0,8.1-0.1,12c0,2.5,0,2.5-3.1,2.5c-15.2-0.1-30.3-0.3-45.6-0.4C57.2,500.1,42.6,500,27.9,498.8z
					 M119.4,501c0.9,0,0.9,0.5,0.9,1.1c0,1.7,0,3.5,0.2,5.1l0,0v4.8c-0.3,0.5-0.4,0.9-1.3,0.9c-0.7,0-0.9-0.4-0.9-0.8v-10.4
					C118.6,501.5,118.8,501,119.4,501z M23.1,540v-14.3c-0.1-7.7,0.1-15.4,0.1-23.1c0-0.6-0.3-1.7,0.4-1.7c1.3,0,0.8,1.2,0.8,1.8
					c-0.1,12-0.3,24.2-0.4,36.1c0,3.5,4.1,3.4,4.1,3.4h86c0,0,0.7,0.6,0.9,0.6c3.2,0,3.2,0,2.3-2.4l1.1-10.6v-1.5
					c0,0-0.3-1.3,0.8-1.3c1.1,0,1.4,1.4,1.4,1.4v13.8c0,0-1.3,1.7-2.8,1.7c-0.9-0.1-1.6,0-2.5-0.8H71c-14.8,0.3-29.7,0.2-44.6,0
					C22.7,543,22.7,543.2,23.1,540z M5.8,608.6c-2.8,0-3.1,0-2.8-2.4c0.1-9.2,0.7-27.4,0.7-27.4l0.9-3.6v-29.9c0.4,0-0.7-1.3-0.7-2
					c0-0.9,0.4-1.4,1.6-1.1h14.8c0.3-0.2,0.9-0.2,0.9,0.3c0,0.5-0.4,0.5-0.9,0.5c-3.4,0-6.7-0.1-10.2,0c-0.9,0-1.9-0.1-2.7,0
					c-1.9,0.1-2.2,0.4-2.4,2c0,0.5,0.1,1.5,0.7,1.5v57.7c-0.5,0-1.6,0.9-1.5,1.3c0,2,0.3,2.3,2.8,2.3c3.6,0.1,7.2,0.1,10.8,0.1
					c0.8,0,1.4,0.1,2.1,0.2c0.1,0,0.3,0.2,0.3,0.3s-0.1,0.3-0.3,0.3c-0.7,0.1-1.3,0.1-1.8,0.1C14,608.7,9.9,608.7,5.8,608.6z
					 M112.2,557.4c-1,7.8,1.6,5.9-6.6,6.5c-0.1,0-0.3,0-0.3,0c-1.4-0.3-2.6,0.1-2.4,1.1c0.3,1.2,0.3,2.5,1.8,3.4
					c-1.1-3.5-1.1-3.5,3.2-3.5c1.8-0.1,3.6,0.6,5.3-0.2c0.8-0.4,1.2,0.4,1.1,1.1c0,1.5,0,2.9,0,4.3c0.2,0.8-0.2,0.9-1,1
					c-1.6,0.2-3.2,0.1-4.8-0.5c-0.8-0.3-1.4-0.7-2.2-0.7c0.8,1.3,2.4,1.4,3.8,1.8c1.4,0.5,2.1,1.8,1.4,3c-0.3,0.5-0.7,0.6-1.3,0.6
					c-0.9,0-1.6,0.1-2.5,0c-32.8-0.3-65.5-0.5-98.4-0.8c-4.2,0-3.8,0.2-3.8-3.5c0.1-7.9,0.3-15.8,0.3-23.8c0-0.5,0-1,0-1.5
					c0.1-1.5,0.3-1.6,2.2-1.7c0.7,0,1.3,0,1.8,0c32.6,0.3,65.3,0.5,98,0.8c5.5,0,3.4-0.4,4.2,7.8
					C112.4,554.4,112.4,555.9,112.2,557.4z M114.4,545c0.3,0,0.7,0.2,0.7,0.4c0.1,0.4,0.1,0.8,0.1,1.2c0,4.6-0.1,9.4-0.1,14
					c0,0.6,0.3,1.6-0.9,1.6c-1.1,0-0.9-0.9-0.9-1.6c0-2.3,0-4.6,0.1-7c0-2.3,0-4.4,0.1-6.7c0-0.5,0.1-1,0.1-1.5
					C113.7,545.2,114.3,545,114.4,545z M104.5,581.7c-2.5,0-2.6,0.4-1.8,2.6c0-0.9,0.3-1.5,1.8-1.6c3-0.1,6,0.3,8.8-0.2
					c0.7-0.1,1,0.3,1,0.7c0,2.1,0,4-0.1,6.2c0,0,0,0.1-0.1,0.1c-1.8,0-3.3,0-5,0c3.9,1.7,1.8,0.7,2.8,10.7c0,0.1,0-0.3,0-0.3
					s0.9,8.3-3,8.4c-6.7-0.1-13.6-0.1-20.2-0.2c-26.6-0.2-53-0.4-79.5-0.7c-3.8,0-3.8,0-3.8-3.2c0.1-8.2,0.3-16.3,0.2-24.4v-1.7
					c0.1-0.9,0.7-1.3,1.9-1.5h2.1c32.9,0.5,98.6,1,98.6,1s0.7,0,1,0c2.6,0.1,2.7,0.2,2.6,2.3c-0.1,1.7-0.1,1.8-2.2,1.9
					C108,581.7,106.2,581.6,104.5,581.7z M113.3,590.7c0.3,0,0.7,0.2,0.7,0.4c0.1,0.4,0.1,0.8,0.1,1.2c0,4.6-0.1,9.4-0.1,14
					c0,0.6,0.3,1.6-0.9,1.6c-1.1,0-0.9-0.9-0.9-1.6c0-2.3,0-4.6,0.1-7c0-2.3,0-4.4,0.1-6.7c0-0.5,0.1-1,0.1-1.5
					C112.7,590.9,113.2,590.7,113.3,590.7z M112.9,580.2c0-1.3,0-2.7,0-3.8c0-1.1,0-2.3,0-3.5c0-0.4,0.3-0.6,0.9-0.6
					c0.3,0,0.9,0.3,0.8,0.6c0,2.5,0,4.8-0.1,7.4c0,0.4-0.3,0.6-0.9,0.6C113.3,580.9,113.1,580.6,112.9,580.2z M90.5,576.7
					c-10.8-0.1-21.5-0.2-32.2-0.3c-16.4-0.1-33.1-0.3-49.4-0.4c-1,0-2.1-0.1-3.1-0.2c-0.1,0-0.4-0.3-0.4-0.5s0.3-0.5,0.4-0.5
					c1-0.1,2.1-0.1,3.1-0.1c28.7,0.2,57.3,0.5,85.9,0l13.6,1h1.4c0.8-0.1,2.1-0.4,2.1,0.5c0,0.8-1.1,0.7-2.1,0.7
					C103.4,576.8,97,576.7,90.5,576.7z M25.3,652.6h-0.9c0,0-2.4-0.2-2.8-6.1c-0.8-11.1-0.8-22.2,0.3-33.3c0.4-5.6-0.9-5.7,3.2-5.7
					c15.2,0.1,30.3,0.3,45.6,0.4l0,0c14.8,0.1,29.6,0.2,44.3,0.5h2.1c2.1,0,2.1,0.1,1.3,1.7l1.1,11.1c0,0,0-0.1,0,0.1
					c-0.1,0.5-0.1,1.1-1,1c-0.7-0.1-0.8-0.5-0.8-0.9c0-2.4,0-4.7-0.1-7.2c-0.1-1,0-1.9,0.1-2.9c0.1-1.3-0.4-1.9-2.1-1.9
					c-0.8,0-1.4,0-2.1,0c-28.7-0.2-57.4-0.5-86.2-0.7c-3.8,0-3.8,0-3.8,3.1c-0.1,11.8-0.3,23.7-0.3,35.3c0,0.6,0,2.2,0,2.2
					s0.8,1.7,1.9,1.5h1.8c28.7,0.4,86.3,1,86.3,1h0.7c0,0,3.2-0.1,2.5-2.6v-11.4c0.7-0.6,0.4-1.6,1.6-1.6c1.1,0,0.9,1,0.5,1.6v13.4
					c0.2,1.9,0.1,1.9-2.2,1.9c-14.9-0.1-29.9-0.2-44.8-0.4c-0.8,0-1.4,0-2.1-0.3c-1-0.5-1.8-0.9-2.7-0.2c-0.1,0.1-0.3,0.1-0.3,0.1
					c-2.6-0.8-5.4,0.4-8,0.3C47.2,652.7,25.3,652.6,25.3,652.6z M24.6,696c0,0-1.5,0-2.2,0c-1,0-1.5-0.5-1.5-1.4c0-0.4,0-0.8,0-1.3
					c0.1-12.4,0.2-24.9,0.4-37.4c0-0.7-0.4-2.1,0.5-2.1c1,0,0.4,1.3,0.4,2.1c-0.1,11.5-0.2,23.1-0.3,34.5c0,0.7,0,0.6,0,1.3
					c0.1,1.6,0.4,1.9,2.4,2c0.7,0.1,1.3,0,1.8,0c28.8,0.2,57.5,0.5,86.2,0.7c2.1,0,3.8-1.4,3.8-3.1c0-3.3,0-10.1,0-10.1s0-1.1,0-1.7
					c0-0.2,0.3-0.5,0.7-0.5c0.4-0.1,0.9,0.1,0.9,0.5c0.1,0.5,0.1,1,0.7,1.5v12.5c-0.7,2.3-0.8,2.3-3.7,2.3
					c-15.3-0.1-30.5-0.3-45.8-0.9L24.6,696z M20.4,735.8c0-0.7-0.1-1.3,0-2c0.1-5.8,0.1-11.7,0.3-17.6c0.1-5.7,0.1-11.4,0.2-17.1v-2
					c0-0.3,0.1-0.8,0.5-0.8c0.8-0.1,0.7,0.5,0.7,0.9c0.1,0.6,0,1.1,0,1.7c-0.1,9-0.3,17.8,0,26.8v8.4c-0.4,0.6-0.4,1.1-0.5,1.7
					c0,0.3-0.1,0.5-0.7,0.5C20.5,736.4,20.4,736.1,20.4,735.8z M120.8,735.7c-2.4,0-2.4-0.1-2.4-2c0-4,0.1-8.3,0.1-12
					c0-1.8,0-1.7-2.2-2.3c-1.5-0.4-3-0.2-4.5-0.3c-0.7,0-1.3,0-1.9-0.5c-0.9,0.6-0.7,1.2,0.3,1.3c1.2,0.2,2.2,0.2,3.3,0.1
					c1.6,0,2.3,0.6,1.5,3c0,2.9-0.1,6.9-0.1,10.1c0.8,2.3,0.4,3.5-1.3,3.5c-0.8,0-1.6,0-2.4,0c-27.8-0.2-55.5-0.5-83.6-0.7
					c-4.3,0-3.8,0.2-3.8-3.4c0.1-11.4,0.3-22.9,0.3-34.3c0-0.5,0-1,0-1.5c-0.1-1.1,0.4-1.7,2.1-1.6c0.8,0,2,0,2,0s55.5,0.3,83.6,0.5
					c4.8,0,3.8-0.3,4.5,4.6v3.9c-0.7,4.2-0.1,4.2-3.7,4.7h-0.8c-1-0.3-2.1-0.8-2.7,0.2c-0.4,0.9,0,1.7,1,2.4
					c-0.1-1.3,0.9-1.5,2.1-1.5c1.8,0.1,3.4,0,5.1-0.4c1-0.3,0.8-1.4,0.8-1.4l1.4-1.5l0.3-25.8c-0.1-0.5-0.3-1-0.1-1.5
					c0-0.9-0.3-1.3-1.4-1.6c-1.6-0.4-3.3-0.4-4.9-0.5c-1,0-2.1,0.3-2.8-0.5c-0.9,0.7-0.8,1.3,0.3,1.4c1.3,0.2,2.5,0.2,3.8,0.1
					c1.9,0,2.5,0.6,1.6,3.4c-0.1,3.2-0.1,6.2-0.3,9.4c0.9,2.4,0.7,3.6-1.3,3.6c-0.8,0-1.4,0-2.1-0.4l-85-0.7
					c-4.1,0.3-4.1,0.5-3.8-2.8c0.1-11.6,0.3-23.2,0.3-34.8c0-0.6,0-1.1,0-1.7c0-0.9,0.4-1.4,1.6-1.4c0.4,0,1.1,0,1.1,0
					s21.9,0.5,32.6,0.6c0.9,0,1.8-0.1,2.4,0.4c0.3-0.1,0.9-0.1,1.4-0.1c0.1,0,0.3,0.1,0.4,0.1c-0.1-0.1-0.1-0.1-0.1-0.1
					c0.1-0.1,0.3-0.1,0.4-0.1c0.1,0,0.1,0.1,0.3,0.1c-0.1,0.1-0.3,0.1-0.4,0.1c0.3,0.1,0.9,0.1,1.3,0.1c0.3,0,0.7,0.1,0.9,0.1
					l0.3,0.1c0.8,0.1,1.4,0.1,2.2,0.3c0.7-0.9,1.6-0.9,2.7-0.8c7.8,0.1,15.4,0.1,23.1,0.2c6.2,0.1,12.6,0.1,18.8,0.2
					c2.7,0,2.7,0.1,2.7,2.3v8.6c-0.1,2.1-0.2,2.1-2.8,1.8H112c-1,0.5-2.2,0-2.7,1c-0.4,0.9,0,1.7,1,2.4c0-1.9,0-1.9,2.4-2
					c1.3,0,2.6,0.1,3.8-0.2c2.2-0.4,1.8-2.2,1.8-2.2v-12.3c0,0,0.8-10.9,1-16.4c0-2,0-1.9-2.4-2.5c-1.6-0.4-3.2-0.2-4.9-0.3
					c-0.8,0-1.4,0-2.1-0.5c-0.9,0.7-0.8,1.3,0.3,1.4c1.3,0.2,2.5,0.2,3.8,0.1c1.9,0,2.5,0.6,1.6,3.3c-0.1,3.1-0.1,6.1-0.3,9.3
					c0.9,2.4,0.7,3.5-1.3,3.5c-0.7,0-1.8,0.1-1.8,0.1s-57-0.5-85.3-0.5h-1.3c-2.2-0.3-2.4-0.4-2.4-2.3c0.1-5.4,0.1-10.7,0.3-16.1
					c0.1-6.7,0.1-13.3,0.3-20.1c0-2.4,0-2.4,2.8-2.4c28.9,0.2,57.8,0.5,86.8,0.7c2.6,0,2.7,0.1,2.5,2.3v8.6c0,2.1-2.6,2.8-2.6,2.8
					s-0.2,0-0.5,0c-1,0.1-2.1-0.4-2.6,0.6c-0.4,0.9,0,1.7,1,2.4c0-1.9,0-1.9,1.9-2c1.5,0,3.2,0,4.6-0.2c1-0.2,1.5-0.9,1.5-1.6
					l0.1-13.1c0-1.2-0.5-1.7-1.9-1.6c-0.4,0-1,0-1.4-0.1c-0.9-0.1-1.2-0.5-1.2-1.2c0-0.6,0-2.3,0-2.3v-57.6c0,0,0-0.3,0-0.9
					c-0.1-1.1,0.4-1.7,2-1.8c3.4-0.2,3.5-0.3,3.5-3.1c0-5.1,0.1-9.2,0.1-14c0-2.2-0.4-2.7-3.3-2.8c-1.2-0.1-2.3,0-3.6,0
					c-2.1,0-2.1,0-2.1-2.1c-0.7,0.3-1,0.9-1.2,1.6c-0.3,0.9,0.1,1.6,1.3,1.7s2.3,0.1,3.6,0c1.5,0,2.2,0.5,1.9,2.4
					c0,3.6-0.1,7.5-0.1,10.9c0.3,1.7,0.1,2.8-1.6,2.7c-0.7,0-1.3,0-1.8,0c-28.4-0.2-56.7-0.5-85.1-0.7c-3.8,0-3.8,0-3.8-3
					c0.1-11.4,0.3-22.7,0.3-34.1c0-0.4,0-1.8,0-1.8s0.1-1.7,2.1-1.9h0.3c11.3,0.1,22.8,0.2,34.2,0.3c1.3,0,2.1,0.2,2.1,1.2
					c0.3-0.1,0.8-0.1,1.1-0.1l0,0c0,0,0.9,0.9,1.3,0.8c0.3-0.1,0.7-0.1,0.9-0.1c0-0.1,0-0.1,0.1-0.2c0.1,0.1,0.1,1,0.1,1H67
					c0,0,1.4-1.1,2.2-1.1c0.3,0,0.4,0,0.7,0.1c0.3-0.3,0.9-0.4,1.4-0.4c2.7,0,5.6,0,8.3,0.1c10.8,0.1,32.9,0.3,32.9,0.3
					s1.4-0.3,2.1-0.3c1.4-0.1,2.1,0.6,2.1,1.7v9.6c-0.1,1.7-0.2,1.7-2.5,1.8c-1.1,0.1-2.2-0.1-3.4,0.1c-1.1,0.2-1.1,0.8-0.3,1.4
					c0.3-0.4,1.1-0.5,1.6-0.3h3.1c4.2-0.3,4.5-0.6,4.5-3.8c0.1-9.1,0.3-18,0.3-27c0-2.9-0.3-3.1-3.6-3.4c-1.1-0.1-2.2,0-3.4-0.1
					c-1.4-0.1-1.8-0.5-1-1.6c0.3-0.5,0.7-0.9,0.7-1.3c-0.7,0.2-1.1,0.5-1.4,0.9c-0.4,0.9-1.4,1.8-0.9,2.8c0.4,1,2.1,0.8,3.1,0.8
					c3.4,0.1,4.5,2.8,4.5,2.8v10.8c0,0-1.2,2-3.6,2c-14.8-0.1-29.6-0.2-44.3-0.4c-0.9,0-1.4-0.1-1.9-0.3c-0.7,0.2-1.8-0.3-1.8-0.9
					H65c-0.4,0.6-0.9,0.5-1.3,0.4c-0.4-0.1-0.9-0.1-1.4-0.3c-0.1,0-0.1,0-0.1-0.1c-0.3,0.3-0.9,0.5-1.8,0.5
					c-6.1-0.3-18.4-0.5-18.4-0.5s-9.1-0.1-13.8-0.1c-2.8,0-2.8-0.1-2.7-2.4c0.1-10.2,0.3-20.3,0.3-30.6c0-1.7,0-3.5,0.1-5.4
					c0.1-2,0.1-2,2.7-2c0.3,0-0.9,0-0.3,0c28.6,0.2,57,0.5,85.6,0.7c4.5,0,3.7,0,3.7,4.2c0,1.7,0,3.4-0.1,5
					c-0.1,3.8,0.3,3.8-3.3,3.8c-0.8,0-1.6-0.1-2.4,0c-1.1,0.2-1.1,0.8-0.3,1.4c0.3-0.4,1-0.5,1.6-0.5c1,0,2.1,0,3.1,0
					c4.2-0.1,4.6-0.4,4.6-3.7c0.1-9.1,0.3-18.3,0.3-27.4c0-3-0.3-3.2-3.7-3.5c-1.1-0.1-2.3,0-3.5-0.1c-1.5-0.1-1.8-0.5-1-1.6
					c0.3-0.5,0.7-0.9,0.7-1.3c-0.7,0.2-1.1,0.5-1.4,0.9c-0.4,0.9-1.4,1.8-1,2.9c0.4,1,1.9,0.7,3.1,0.8c3.5,0.1,3.5,0.1,3.5,2.9
					c0,3.6-0.1,8.4-0.1,11.9c0,1.9-0.1,1.9-2.5,2c-2.4,0-4.6,0-7-0.4l-77.6-0.6c-0.7,0.3-1.3,0.3-1.8,0.3c-3.1,0-3.2,0-3.1-2.5
					l0.3-35c0-1.5,1.6-2.7,3.5-2.7l79.9,0.7c2.1,0,4.3,0,6.5,0.1c1.8,0,2.1,0.7,1.8,2.4c0,2.9,0,5.8,0,8.9c0.1,1.3-0.4,1.8-2,1.8
					c-1,0-2,0-2.8,0c-2.1,0-2.5,0.5-1.9,2c0.1,0.4,0.4,0.7,1,1c-0.1-1,0.4-1.5,1.9-1.5c1.8,0,3.3,0,5-0.3c1.5-0.3,2.1-0.8,2.1-2
					c0-3,1.1-9.5,1.1-9.5v-1.7c-1-0.9-0.3-1.3,0.8-1.9h2.7c1,0.6,2.1,0.6,2.5-0.4c0.3-0.8,1.3-1,2.2-1c2.2,0,4.5,0,6.7,0.1
					c0.8,0,1.6,0,1.4,0.8c-0.1,1.2,1.6,1.5,1.6,1.5s1.6,0,2.8,0c1.3,0,1.9,0.4,1.9,1.5c0,0.7,0,1.5,0.3,2.3l-1.8,121.6
					c-0.3,3.7-0.3,3.7,4.2,3.7c2.8,0,5.6,0,8.2,0.1c2.4,0,2.5,0.1,2.5,2.1c0,0.3,0,0.7,0,1l-0.7,56c0,1.7-1.8,3.1-3.9,3l-7.2-0.1
					c-3.5,0-3.5,0-3.5,2.9c0,0.5,0,1,0,1.5c-0.4,40.6-1,81-1.5,121.7c0,3.5,0.3,3.3-3.9,3.3C133.1,735.8,127,735.7,120.8,735.7z
					 M117.4,735.6c0,0.5,0.1,1.2-0.8,1.3c-0.9,0.1-0.8-0.7-1.6-1.1v-1.1l1.1-8.7v-0.9c-0.2-0.5-0.5-1.4,0.4-1.5
					c1-0.1,0.8,0.8,0.9,1.4c0.1,1.2-0.3,2.5,0.9,3.5c-0.7,1.1-0.3,0.5-0.9,1.7l0,0C117.4,732,117.4,733.8,117.4,735.6z M117,697.1
					c0.7,0,0.8,0.4,1.4,0.9v10.5c-0.8,0.5-1,0.9-1.6,0.9s-0.8-0.4-0.8-0.9c0-1.8,0-3.6,0.2-5.5V698
					C116.2,697.5,116.5,697.1,117,697.1z M67.7,653.5c0,0.1,0,0.3,0.1,0.4c-0.1,0-0.3,0-0.4-0.1c0,0-0.1-0.1,0-0.2
					C67.2,653.5,67.5,653.4,67.7,653.5z M117.7,653.9c0.7,0,0.8,0.4,0.8,0.9c0,3.5-0.1,6.9-0.1,10.5c0,0.5-0.3,0.9-0.9,0.9
					c-0.5,0-0.8-0.4-0.8-0.9c0-1.7,0-3.5,0.1-5.1c0-1.7,0-3.5,0.1-5.1C117,654.3,117.2,653.9,117.7,653.9z M119.5,482.8l-0.3-0.1
					l0.3-0.1V482.8z M120.6,439.7v-0.2l0.3,0.1L120.6,439.7z M125.5,738.4c2.5,0,5.1,0,7.7,0.1c2.1,0.1,2.2,0.4,1.8,1.8
					c-0.3,0.9-0.3,1.8-0.3,2.7c-0.1,1.8-0.1,1.8-2.5,1.5c0.4,1.2,2.1,1,3.2,1.2c0.8,0.1,1.1-0.5,1.1-1c0.1-0.8,0.1-1.7,0.1-2.5
					c-0.1-1.4,0.9-1.9,3.2-1.5c4.4,0.7,9,0.7,13.3,0.1c2.5-0.3,3.8,1.5,3.8,1.5v1.5V780c0,0,0,0.8,0,1.4c0,0.7-0.8,1.4-1.8,1.4
					c-0.8,0-1.4,0-2.1,0c-48.8-0.4-97.5-0.8-146.1-1.2c-2.1,0-3.9-1.4-3.8-3.2c0.1-12,0.2-24.1,0.4-36.1c0-0.6,0-1.1,0-1.7
					c0-0.9,0.7-1.3,1.8-1.3c0.7,0,2,0,2,0s74.7,0.7,112.2,1h1.8c1.1,0,1.6,0.5,1.8,1.4v2.7c-0.1,1.1,0.4,1.2,1.6,1
					c1.4-0.3,3.1-0.8,3.8-2c0.9-1.1,1.4-0.5,2.5-0.1c-0.1-0.4-0.3-0.8-0.3-1.2c-0.3-0.6-0.7-1.2-1-1.8c-0.8,0.4-0.3,1.2-0.9,1.7
					c-0.3,0.5-0.8,1-1.3,1.4c-0.7,0.6-1.6,1.3-2.5,1c-1-0.3-0.4-1.3-0.4-2c-0.1-0.8,0-1.7-0.3-2.5
					C123.7,738.5,123.8,738.5,125.5,738.4z M261.3,370.9c2.5,0,2.5,0.1,2.6,2.2c-0.1,9.1-0.9,27.2-0.9,27.2v13.3c0,0,0.3,2-2.1,2.4
					h-2.5c-34.6-0.6-103.3-1-103.3-1s-1.3,0-1.9,0c-3.7,0-3.7,0-3.7,3c-0.4,40.7-1,81.4-1.4,122.2c0,3.1,0,3.1,3.6,3.1
					c3.2,0,9.6,0,9.6,0s2.1,0.5,2.1,2.1v1.5c-0.2,20-0.3,40.2-1.1,60.2v1c0.3,2.2-2.3,2.3-2.3,2.3h-10.5c0,0-2.1-0.1-2.1,1.5
					c-0.1,0.7,0,1.3,0,2c-0.3,20.4-0.4,40.9-0.8,61.2s-0.4,40.7-0.8,61c0,0.9-0.3,2.1,0,2.7c0.8,0.9,2.7,0.2,3.8,0.4
					c2.1,0.4,4.1,0.4,6,0.1c2.2-0.4,3.2,0.1,3.3,1.6v1.5c-0.2,13.3,0,39.9,0,39.9s0,0.8,0,1.4c0,0.9-0.7,1.3-1.8,1.3
					c-0.8,0-1.5,0-2.1,0c-50.2-0.4-100.5-0.8-150.5-1.2c-4.1,0-3.8,0-3.8-3.2c0.1-13.2,0.3-26.5,0.4-39.7c0-0.6,0-1.2,0-1.7
					c0-1,0.4-1.6,1.9-1.5c0.8,0,2,0,2.6,0c37.8,0.3,75.4,0.6,113.1,0.9c1,0,3.1-0.6,3.2,0.6c0.1,0.7-2.1,0.4-3.1,0.4
					c-37.1-0.3-74.4-0.6-111.6-0.9c-4.5,0-4.5,0-4.5,3.5c-0.1,12.4-0.3,24.7-0.4,37.1c0,0.5,0,1,0,1.5c0,1.7,0.3,2.1,2.4,2.2
					c0.7,0,1.3,0,1.8,0c49,0.4,97.7,0.8,146.7,1.2c4.3,0,4.3,0,4.3-3.4c0.1-12.6,0.3-25.2,0.4-37.9c0-0.2,0-0.1,0-0.1
					s-0.7-2.5-3.7-3.3l-13.6,1c0,0-1.1,0-1.8,0c-0.4,0-1.3,0.1-1.1-0.5c0.1-0.5,0.9-0.4,1.3-0.5c1.4-0.1,3.4,0.6,4.4-0.4
					c0.7-0.7,0.1-2.3,0.1-3.4c0.4-40.9,1-81.7,1.4-122.8c0-3.7-0.3-3.5,4.4-3.4c2.7,0,5.6,0.1,8.3,0.1c2.2,0,2.6-0.3,2.7-2.2
					c0.1-1.3,0-2.5,0-3.6c0.3-18.2,0.4-36.4,0.7-54.6c0-0.6,0-1.2,0-1.7c0-2.2,0-2.2-2.7-2.3c-3.4,0-10.6,0-10.6,0s-2.4-0.7-2-2.6
					v-2c0-40.3,0.5-80.7,1.1-120.9v-1.5c-0.1-2.4,0.7-3.2-3.5-3c-0.3,0-0.7,0-0.9-0.1c-0.7-0.1-1-0.3-1-0.7c0.1-0.5,1.1-0.5,1.1-0.5
					h2.7c0,0,75,0.4,112.4,0.7c4.5,0,4.3,0.3,4.3-3.3c0.1-11.6,0.3-23.2,0-34.8v-1.3c0.4-2.1,0.3-2.1-2.3-1.7h-10.2
					c-0.9-0.6-2.2-0.3-2.4-1.2c-0.1-1.3,1.4-0.8,2.4-0.8C253.7,370.7,257.3,370.8,261.3,370.9z M245.8,330.3
					c0.1,0.6,0.1,1.1,0.1,1.7c-0.1,12.5-0.3,25.1-0.4,37.6v0.7c-0.1,1.7-0.1,1.7-2.4,1.8c-0.8,0-2.1-1.4-2.1-1.4h-44.1h-44.3
					c-0.8,0.7-1.4,0.6-2.1,0.7c-1.3,0.1-2.1-0.4-1.9-1.4c0-4.3,0.7-13.3,0.7-13.3v-0.3c0,0-0.3-0.7,0.3-0.7c0.1,0,0.3,0.3,0.3,0.5
					c0.1,0.6,0.1,1.1,0.4,1.7v9.6c-0.5,2.3-0.5,2.3,2.3,2.4c12.5,0.1,37.2-0.1,37.2-0.1h49.8c0,0,1.6,0.8,2.5,0.8
					c1.1,0,1.8-0.5,2.3-1.4v-2c-0.4-11.6-0.2-23.2-0.1-34.8c0-0.7,0.1-1.5,0.3-2.3c0-0.2,0.3-0.5,0.7-0.5
					C245.5,329.7,245.8,329.8,245.8,330.3z M246.5,287.6c0.1,0.6,0.1,1.1,0,1.7c-0.1,12.4-0.3,24.9-0.4,37.4c0,2.7,0,2.7-3.2,2.6
					c-9.8-0.1-19.6-0.2-29.6,0h-16c-14.8-0.4-29.7-0.5-44.6-1h-2.1c-1.1,0.3-1.8-0.1-1.5-1.1v-13.5c-0.1-0.3-0.1-0.8,0.3-0.8
					c0.8,0,0.7,0.5,0.8,0.9v9.6c-0.2,4.3-0.7,3.5,5.7,3.7c27.2,0.2,54.1,0.5,81.3,0.7c7-0.2,6.7,0.9,6.9-3.3
					c0.1-11.6,0.3-23.2,0.3-34.8c0-0.7,0-1.5,0.1-2.3c0-0.4,0.3-0.6,0.9-0.6C246.2,287,246.5,287.3,246.5,287.6z M244.7,290.3
					c-0.1,11.2-0.3,22.5-0.3,33.7c0,0.4,0,0.7,0,1.1c-0.1,2.1-0.1,2.1-2.5,2.2c-0.4,0-1,0-1.5,0c-28.4-0.2-56.7-0.5-85.2-0.7
					c-4.3,0-3.9,0.2-3.9-3.3c0-2.9,0.1-5.6,0.1-8.5c0-2.4,0-2.4,2.8-2.4c0.4,0,1,0,1.4,0c2.4,0,2.8-0.7,2.1-2.5
					c-0.3-0.6-0.7-1.3-1.4-1.5c1.1,3,1.1,3-2.6,3c-0.7,0-1.3,0-1.8,0c-3.1,0.2-3.5,0.5-3.5,3c-0.1,9.3-0.3,18.4-0.3,27.6
					c0,2.5,0.4,2.9,3.5,3c0.4,0,1,0,1.4,0c4.2,0,4.2,0,2.8,3.1c1.1-0.3,1.4-1.2,1.8-2c0.4-1.4,0-1.9-1.9-2.1
					c-1.4-0.1-3.2,0.4-4.2-0.4c-1.1-0.9-0.4-2.4-0.4-3.6c0-3,0-6,0.1-9c0-1.6,0.1-1.7,2.2-1.7c0.7,0,0.5,0,1,0
					c28.4,0.2,56.9,0.5,85.2,0.7c4.3,0,4.1-0.2,4.1,3.3c-0.1,11.4-0.3,22.9-0.3,34.2c0,0.5,0,1,0,1.5c-0.1,1.5-0.1,1.6-2.2,1.7
					c-0.7,0-1.3,0-1.8,0c-28.4-0.2-56.9-0.5-85.2-0.7c-4.1,0-3.9,0.2-3.9-3.1c0-3.2,0-9.8,0-9.8s1-1.8,3.1-2.2h2.5
					c1.8,0.2,2.4-0.3,1.9-1.8c-0.3-1.1-1.3-1.9-2.1-2.7c-1.3-1-1.3-1,0-2.3c-0.7,0.1-1.1,0.3-1.8,0.5c-0.9,0.3-1.8,0.5-2.5,0.7
					c0.7,0.6,1.6,0.6,2.4,0.9c1.4,0.6,2.6,1.6,3.4,2.8c0.3,0.6,0,1-0.8,1.1c-1,0.1-2.1,0-3.1,0c-0.9,0-1.9,0-2.7,0.1
					c-2.1,0.3-2.2,0.6-2.5,2.4v9.7c0.2,3.5-3.9,3.5-3.9,3.5s-11.6-0.1-17.5-0.1c-2.5,0-2.5-0.1-2.6-2.1c0-0.7,0-1.3,0-2
					c0.4-40.1,1-80.2,1.4-120.1c0-3.5,0.3-3.5-4.1-3.5c-2.8,0-5.7,0-8.5-0.1c-1.4,0-2.1-0.4-2-1.6c0-0.5,0-1.6,0-2.1
					c0.2-18.9,0.4-37.8,0.8-56.6c0-3.3-0.2-3.2,3.8-3.1c3,0,5.8,0,8.8,0.1c1.3,0,2.1-0.4,2-1.6c0-0.7,0-1.9,0-2.7
					c0.4-41.6,1-83.2,1.4-124.8c0-3.6-0.3-3.4,4.1-3.4c5.7,0,11.3,0.1,16.9,0.1c3.1,0,3.2,0,3.2,2.6c-0.1,12.6-0.2,25.1-0.4,37.8
					c-0.3,29-0.8,57.7-1,86.7c0,0.4,0,0.9,0,1.3c-0.1,1.1,0.4,1.7,2,1.7c0.3,0,1.2,0,1.2,0s2.1,0.1,1.2,1.7v1.3
					c0.8,7.2,0.8,14.4,0.5,21.7c0.4,2.7,0.5,8,0.5,8v5.3c0,0-0.4,1.3,0,2v20.4c-0.1,0-1,0.7-1,1c-0.1,2-0.1,2-2.6,2.1
					c-2.2,0.1-2.2,0.2-2.2,1.9c-0.1,4.5-0.1,9.3-0.1,13.8c0,1.2,0.3,1.7,1.9,2.1c1.8,0.3,3.4,0.3,5.1,0.4c0.9,0,1.9-0.1,2.1,1
					c0.8-1.7,0.7-1.9-1-2c-0.9-0.1-1.8,0-2.7,0c-2.2-0.1-2.6-1.8-2.6-1.8s0.1-7.4,0.1-11.1c0-1.1,0.4-1.7,2-1.7c0.7,0,1.3,0,1.8,0
					c28.2,0.2,56.5,0.5,84.7,0.7c4.3,0,3.8-0.2,3.8,3.4c-0.1,11.4-0.3,22.7-0.3,34.1c0,0.3,0,0.7,0,0.9c0,2.4,0,2.4-2.8,2.4
					c-0.3,0-0.9,0-1.3,0c-28-0.2-56-0.5-84-0.7c-4.2,0-3.8,0.2-3.8-3.2c0-2.8,0.1-5.8,0.1-8.6c0-2.4,0-2.4,2.8-2.4
					c0.4,0,1.2,0,1.6,0c2.4,0,2.8-0.7,2.1-2.5c-0.3-0.6-0.7-1.3-1.5-1.5c1.1,2.9,1.1,2.9-2.7,3c-0.7,0-1.3,0-1.8,0
					c-3.1,0.2-3.4,0.5-3.5,3c-0.1,9.2-0.3,18.3-0.3,27.5c0,2.3,0,2.3,2.6,2.8c1.6,0.3,3.3,0.1,4.9,0.2c1.4,0.1,1.8,0.5,1,1.4
					c-0.8,0.9-1.6,1.7-2.5,2.5c2.1-0.3,3.1-1.6,3.6-3c0.4-1.3,0-1.9-1.8-2c-0.9-0.1-1.8,0-2.7,0c-1.9-0.1-2.1-0.2-2.1-1.8
					c0-3.6,0.1-7.3,0.1-10.9c0-1.1,0.4-1.7,2.1-1.7c0.9,0.1,1.6,0,2.5,0c28.2,0.2,56.4,0.5,84.6,0.7
					C245.2,286.9,244.8,286.7,244.7,290.3z M150,329.1c0.4,0.1,0.4,0.5,0.4,0.8c0,2,0,3.9-0.1,5.9c0,1.9,0,3.7-0.1,5.7
					c0,0.3,0,0.7-0.4,0.8c-0.7,0.1-0.7-0.3-0.7-0.7c0-3.9,0.1-8.1,0.1-12C149.4,329.5,149.4,329,150,329.1z M245,47.4
					c1.4-0.1,2.1,0.4,2.1,1.6c-0.1,12.4-0.3,24.9-0.4,37.4c0,1.2-2.1,2.2-2.1,2.2s1.2,0,0.8,0c-29.3-0.2-58.6-0.5-88-0.7
					c-4.3,0-3.9,0.1-3.9-3.3c0-3,0.1-6.1,0.1-9.2c0-2.6,0-2.6,3.2-2.6c0.8,0,1.5,0,2.2,0c1.8-0.1,1.9-0.3,1.1-2.1
					c-0.1,0.9-1,0.9-1.9,1c-1.9,0.1-3.7-0.2-5.5,0.3c-1,0.3-1.3-0.3-1.3-0.9c0-2.8,0-8.2,0-8.2s0.7-1.1,1.6-0.9
					c2.1,0.4,4.1,0.2,6,0.3c1.1,0.1,1.4,0.5,0.9,1.3c-1.1,1.5-2.6,2.8-4.9,3.1c-0.3,0.1-0.7,0.2-0.9,0.3c0.3,0.1,0.4,0.3,0.8,0.4
					c0.8,0.3,1.4,0.5,2.4,0.4c-0.4-0.7,0.1-1,0.8-1.4c1.4-0.9,2.5-1.8,2.8-3.1c0.3-1.3,0-1.9-1.8-2c-1.1-0.1-2.2,0-3.4-0.1
					c-1,0-1.4-0.5-2.1-1.3V48c0.8-0.9,1.4-1.2,2.4-0.8h1.8c28.6-0.2,57.1,0.1,85.7,0.3C244,47.4,244.4,47.4,245,47.4z M152.2,89.9
					c0.7,0,0.8,0.4,0.8,0.9c0,3.4-0.1,6.8,0,10.3c0,0.6,0,1.1-0.1,1.7c0,0.5-0.3,0.9-0.9,0.9s-0.8-0.4-0.8-0.9c0-2.1,0-4,0.1-6.2
					c0-1.9,0-3.7,0.1-5.7C151.3,90.3,151.5,89.9,152.2,89.9z M157.4,159.5c1.5-0.1,2.1-0.6,1.8-1.7c-0.3-0.9-0.4-1.8-1.8-2.2
					c0.9,2.5,0.9,2.5-2.5,2.5c-1.1,0-2.2,0-3.3,0.2c-1,0.3-1.6-0.2-1.5-1.1c0-2.5,0-5,0.1-7.5c0-0.9,0.7-1.2,1.6-1
					c1.5,0.5,3.2,0.2,4.9,0.3c1.8,0.1,1.8,0.1,1.3,1.5c-0.1,0.3-0.1,0.7-0.3,0.9c1.1-0.3,1.4-1.2,1.8-1.9c0.4-1.4,0-1.9-1.9-2.1
					c-1.4-0.1-3.2,0.4-4.2-0.4c-1.3-0.9-0.3-2.5-0.4-3.6c-0.1-1.2-0.3-2.4-0.1-3.5c0.4-6.4-0.9-6.4,3.5-6.4
					c8.1,0.1,16.2,0.1,24.3,0.2c2.1,0,4.3,0,6.6,0.1c0.7,0,1.3,0.1,1.8,0.4c0.3,0,0.4-0.1,0.8-0.1c0.1,0,0.1,0,0.1,0
					s0.7-0.2,0.8-0.2v-0.1c0.2-0.1,0.3-0.1,0.4-0.1c0.3,0,0.3,0,0.3,0.1c1-0.1,1.9-0.1,2.8,0c0.7,0,1.3,0.1,1.8,0.3
					c0.3-0.4,0.9-0.5,1.4,0h1.8c14.4-0.4,42.6,0,42.6,0s0.2,0,0.5,0c3.6,0,3.6,0,3.5,2.8c-0.1,5.9-0.1,11.7-0.3,17.6
					c-0.1,5.8-0.1,11.4-0.3,17.2c0,2.7,0,2.7-3.2,2.6c-29-0.2-57.8-0.5-87.1-0.7c-0.4,0-1,0-1.5,0c-1.8,0-1.8-1.4-0.8-3.4
					c1.3-2.5,1-5.4-0.1-7.9c-0.9-2-0.3-2.8,1.1-2.8C155.2,159.5,156.5,159.6,157.4,159.5z M151.3,159.4l-0.3-0.1l0.3-0.1V159.4z
					 M152.2,134.1c0,2,0,3.9-0.1,5.9c0,1.9,0,3.7-0.1,5.7c0,0.5-0.1,1.1-1,0.9c-0.7-0.1-0.8-0.5-0.8-0.9c0-3.8,0.1-7.9,0.1-11.7
					c0-0.5,0.1-1.1,1-0.9C151.9,133.2,152.2,133.7,152.2,134.1z M211,207.7c16.4,0.1,33.1,0.3,49.4,0.4c1,0,2.1,0.1,3.1,0.2
					c0.1,0,0.4,0.4,0.3,0.6c0,0.2-0.3,0.5-0.4,0.5c-0.7,0.1-1.4,0.1-2.1,0.1c-33.7-0.3-67.5-0.6-101.4-1.5H159
					c-0.7,0.6-1.6,0.8-1.6,0c0-0.7,0.9-0.7,1.4-1h0.7C176.7,207.4,193.9,207.5,211,207.7z M156.8,207.9c0,1,0,2,0,2.9
					c0,0.2-0.3,0.5-0.4,0.5c-0.3,0.1-0.7-0.2-0.7-0.4c0-2.1,0-4.2,0.1-6.4c0-0.2,0.1-0.5,0.7-0.4c0.3,0.1,0.4,0.3,0.4,0.5
					C156.8,205.9,156.8,206.9,156.8,207.9z M259.7,240.3c-33.1-0.3-66-0.5-99.1-0.8c-0.7,0-1.3,0-1.8,0c-1.4,0.1-2.1-0.6-2.1-1.7
					c0-3.5,0.1-6.8,0.1-10.5c0-1.8,0-3.6,0.1-5.5c0.1-1.9,0.1-2,2.4-2.1c1.1,0,2.2,0,3.4,0c2.4,0,2.5-0.4,1.6-2.5
					c0,0.8-0.3,1.5-1.6,1.5c-0.1,0,0.4,0,0.1,0c-5.4,0.2-6.5-0.7-5.4-5.2c0.1-0.9,0.8-1.2,1.9-0.8c1,0.3,1.8,0.7,2.6,0.8
					c-0.4-1.1-1.9-1.4-3.2-1.7c-1.5-0.3-1.3-1.2-1.3-2c0.1-0.9,1-1.1,1.9-1.1c0.7,0,0.8,0,1.2,0c33.1,0.3,66,0.5,99.1,0.8
					c3.8,0,3.8,0,3.8,3c-0.1,8.3-0.3,16.5-0.3,24.6c0,0.5,0,1,0,1.5c0.1,1-0.4,1.6-1.9,1.5C260.8,240.3,260.3,240.3,259.7,240.3z
					 M155.1,221.8c0-0.4-0.1-0.9,0.4-1c0.8-0.1,0.7,0.5,0.7,0.9c-0.1,5.7-0.1,11.3-0.3,17.1c0,0.3-0.1,0.5-0.1,0.7
					c-0.1,0.1-0.3,0.2-0.4,0.2c-0.1,0-0.3-0.2-0.3-0.3c-0.1-0.6-0.1-1.1-0.1-1.7c0-2.5,0-4.9,0.1-7.5l0,0
					C155.1,227.2,155.1,224.4,155.1,221.8z M155.5,219.1c-0.9,0-0.8-0.6-0.9-1.1v-3.6c0.1-0.7,0.2-1.4,1.4-1.3
					c1.1,0.1,1.1,0.8,0.8,1.5v1.3h0.4c-0.1,0.9,0,1.7-0.3,2.4C156.9,218.7,156.1,219.1,155.5,219.1z M160.2,207
					c-2.1-0.5-3.1-2.1-2.1-3.4c0.3-0.5,1-0.5,1.4-0.6h4.1c2.4,0.1,2.5-0.3,1.6-2.4c0,0.9-0.3,1.3-1.6,1.5c-5.4,0.5-6.2-0.2-5.9-4.4
					c0.1-1.1,0.4-1.5,1.9-1.1c0.3,0.1,0.9,0.1,1.3,0.1c-3.2-1.8-3.1-5.7-3.1-5.7v-11.9c0,0,0.1-2.5,2.8-2.5
					c8.4,0.1,16.8,0.1,25.2,0.2c25,0.2,49.8,0.4,74.6,0.6c3.8,0,3.8,0,3.8,3.2c-0.1,8.1-0.3,15.9-0.1,23.9v1.7
					c-0.1,0.9-0.8,1.3-1.9-0.1h-2.1c-32.9,1.1-98.6,1-98.6,1L160.2,207L160.2,207z M154.9,197.5c0-0.5,0.3-0.9,1.1-0.8
					c0.7,0.1,1.3,0.1,1.3,0.8c0,1.4,0,2.8-0.1,4.1c0,0.7-0.8,1.1-1.4,1.1c-1,0.1-0.8-0.7-0.9-1.3s0-1.1,0-1.7l0,0
					C154.9,199,154.8,198.3,154.9,197.5z M156.9,177.8c-0.1,5.3-0.1,10.6-0.3,16.1c0,0.3-0.1,0.7-0.1,1c0,0.1-0.3,0.2-0.4,0.2
					c-0.1,0-0.3-0.1-0.3-0.3c-0.1-0.6-0.1-1.1-0.1-1.7c0-2.4,0-4.7,0.1-7.2l0,0c0-2.7,0.1-5.3,0.1-8.1c0-0.4-0.1-1,0.4-1.1
					C157.1,176.6,156.9,177.4,156.9,177.8z M149.8,286c0.8,0,0.7,0.5,0.7,0.9c0,1.8,0,3.6-0.1,5.5c0,1.8,0,3.6-0.1,5.5
					c0,0.4,0.1,0.9-0.7,0.9c-0.3,0-0.4-0.5-0.4-0.8c0-3.6,0.1-7.5,0.1-11.2C149.3,286.4,149.3,286,149.8,286z M246.1,243.7
					c-0.1,12.9-0.5,38.8-0.5,38.8s0,0.7,0,1.1c0,0.6-0.8,1.2-1.4,1.2c-0.8,0-2,0-2,0s-58.6-0.4-87.9-1h-1.9
					c-1.3,0.5-1.8-0.1-2.2-1.2v-12.5c0.5-0.3,0.5-0.5,0.5-0.7c0.1-0.1,0.3-0.3,0.3-0.3c0.3-0.1,0.4,0.2,0.4,0.4
					c0.1,0.6-0.3,1.9-0.3,1.9s-0.1,6.5-0.1,9.6c0,1.8,0.1,1.9,2.4,2c1.1,0,2.2,0,3.4,0c27.4,0.2,54.9,0.5,82.1,0.7
					c4.2,0,3.8,0.2,3.8-3.1c0.1-11.3,0.3-22.9,0.3-34.2c0-0.3,0-0.5,0-0.7c0-2.5,0-2.5-3.1-2.5c-28.5-0.2-57.2-0.5-85.9-0.7
					c-0.1,0-0.3,0-0.3,0c-2.7,0-2.7,0-2.7,2.2c0,2.8,0,8.2,0,8.2s0.3,1,0.2,1.5c-0.1,0.5,0.3,1.4-0.7,1.4c-0.8-0.1-0.4-1-0.4-1.5
					c-0.1-0.9,0-1.8,0-2.7c0-1.9,0-3.9,0.1-5.9c0.1-4.5-0.4-4.5,3.6-4.5c12.3,0.1,24.4,0.2,36.6,0.3c2.5,0,4.9,0,7.6,0.2l42.4,1h1.9
					C246.1,241.3,246.1,241.3,246.1,243.7z M265.3,175.4c2.1,0.2,2.2,0.3,2.1,2.2c-0.1,5.8-1.1,17.6-1.1,17.6l1.1,13.8v29.4v1.5
					c-0.8,2.5-3.5,2.7-3.5,2.7h-11.4c0,0-1.1-0.3-1.6-0.4c-0.3,0-0.7-0.1-0.3-0.5c0.1-0.1,0.3-0.3,0.3-0.3c0.7-0.1,1.3-0.1,2.1-0.1
					c3.1,0,6,0,9,0.1c3.4,0,3.4,0,3.5-2.9c0.1-9.1,0.3-17.8,0.3-26.9c0.1-10.4,0.3-20.5,0.7-30.9V179c-0.3-2.1-0.5-2.3-2.7-2.4
					c-3.4-0.1-6.7-0.1-10.1-0.1c-0.8,0-2.1,0.2-2.1-0.4c0-1,1.4-0.5,2.1-0.7L265.3,175.4L265.3,175.4z M248.2,134.6
					c0.1,0.6,0.1,1.1,0,1.7c-0.1,12.4-0.3,24.9-0.5,37.4v0.7c0,1.9,0,1.9-2.4,1.9c-6.2-0.1-18.8-0.5-18.8-0.5l-27.7,0.6l0,0h-44.6
					c0,0.4-1.3-0.9-1.8-0.9c-2.1-0.1-2.1-0.2-2.3-1.8v-12c0.2-0.3,0.2-0.5,0.3-0.7c0.1-0.5,0.3-0.8,1-0.7c0.4,0.1,0.7,0.3,0.8,0.7
					c0.1,0.8,0.1,2.5,0.1,2.5v9.1c0,0,0.1,2,2.3,2.2c0.8,0.1,2.1,0.3,2.1-0.3h85.1c0,0.6,0.9,1.1,1.3,1.1c3.1,0,3.2,0,3.2-2.5
					c0.1-12,0.3-24.2,0.4-36.1c0-0.7,0-1.5,0.1-2.3c0-0.4,0.3-0.6,0.9-0.6C247.9,133.9,248.4,134.2,248.2,134.6z M248.9,92.4
					c0.1,0.3,0,0.7-0.1,1v36.5c-0.3,0.5-0.3,1-0.3,1.5c0.1,1.1-0.4,1.7-2.1,1.7c-0.7,0-1.8-0.1-1.8-0.1h-45.6c0,0-30-0.6-45-0.7
					c-3.4,0-3.4,0-3.8-2.7v-11c0.5-0.6,0.2-1.6,1.4-1.6c1.1,0,0.9,0.9,0.8,1.6v10.1c0.1,2.5,0.3,2.7,3.3,2.8
					c14.6,0.1,43.6,0.6,43.6,0.6h42.4c0,0,1.4,0.1,2.1,0.1c2.2,0,2.5-0.3,2.6-2c0-0.6,0-1.1,0-1.7V94.1v-1.7
					c0.4-0.6,0.1-1.6,1.3-1.5C249.2,90.9,248.9,91.8,248.9,92.4z M157.3,89.4c29.5,0.2,58.7,0.5,88.2,0.7c3.9,0,3.9,0,3.9,3
					c-0.1,11.6-0.3,23.2-0.3,34.8c0,2.8,0,2.8-3.3,2.8c-29.6-0.2-59.2-0.5-88.7-0.7c-0.7,0-1.3,0-1.9,0c-1.3,0-1.9-0.6-1.6-1.8
					c0.4-3.5,0.9-7,0.1-10.4c-0.3-1.8,0.4-2.4,2.1-2.3c1.1,0.1,2.1,0.1,3.2,0c1.8-0.1,1.9-0.3,1.1-2c-0.1,0.9-1,0.9-1.9,1
					c-1.9,0.1-3.7-0.2-5.5,0.3c-1,0.3-1.3-0.3-1.3-0.9c0-2.5,0.1-5,0.1-7.7c0-0.9,0.7-1.3,1.8-0.9c1.5,0.5,3.3,0.2,5,0.3
					c1.9,0.1,1.9,0.1,1.3,1.5c-0.1,0.3-0.1,0.7-0.3,0.9c1.1-0.3,1.4-1,1.8-1.7c0.7-1.5,0.1-2.1-1.9-2.3c-1.4-0.1-3.3,0.4-4.3-0.4
					c-1.1-0.9-0.4-2.4-0.4-3.5c0-2.9,0-5.8,0.1-8.9c0-1.6,0.1-1.7,2.2-1.8C156.2,89.4,156.8,89.4,157.3,89.4z M248.7,52
					c-5.4,10.1-4.6,21.3-0.3,31.7c0.8,1.6,0.4,3.2,0.3,4.8c0,0.9-1.8,1.2-1.8,1.2h-2.1c0,0-59.9-0.4-90.1-0.6
					c-3.8,0-3.8,0.2-3.6-3.2V75.3c-0.1-0.6-0.4-1.6,0.8-1.6c1.2,0,0.9,0.9,1.4,1.5v9.9c-0.5,2.5-0.5,2.5,2.5,2.5
					c20.7,0.2,41.4,0.3,62.1,0.5c8.4,0.1,25.2-0.4,25.2-0.4s1.6,0,2.5,0c0.7-0.1,1.1-0.5,1.3-0.9c0.1-0.6,0.1-1.1,0.1-1.7
					c0.1-11.9,0.3-24.1,0.4-36c0-0.4,0-0.9,0-1.3c0-1-0.4-1.6-1.8-1.6c-0.7,0-1.3,0-1.8,0c-28.9-0.2-58-0.5-86.9-0.7
					c-3.8,0-3.8,0-3.8,2.9c0,3.3,0,10.3,0,10.3s0.3,1.6-0.9,1.6c-1.2,0-0.9-0.9-1.3-1.6V46.3c0.5-1.9,0.7-1.9,3-1.9
					c7,0.1,14,0.1,21.3,0.2c8.4,0.1,16.8,0.1,25.2,0.2c14.8,0.1,29.7,0.2,44.6,0.4h2.5c1.1,0,1.8,0.4,1.8,1.4
					C249.6,48.5,249.7,50.3,248.7,52z M136.2,39.9c-2.2-0.9-3.5,1.6-3.5,1.6s0,0.7,0,1c0.1,1.1-0.7,1.4-1.8,1.4c-3,0-5.9-0.1-9-0.1
					c-2.3,0-4.4,0-6.7-0.1c-2.1-0.1-2.1-0.2-2.3-1.9c0-0.3,0-1.1,0-1.1s-0.4-23.1,0-34.5V5c-0.2-1.5-0.2-1.6,1.9-1.2h1.8
					c48.3-0.1,144.9,1,144.9,1s0.7,0,1,0c3.1,0,3.2,0,3.2,2.5c-0.1,11.7-0.3,23.7-0.3,35.4c0,0.4,0,0.8,0,1.3c0,0.8-0.4,1.3-1.4,1.3
					c-0.9,0-2.5,0-2.5,0s-74.7-0.8-112.2-1h-0.9c-2.7-0.2-2.7-0.2-3.4-2.3v-1c0.4-1.3,0.2-1.4-2-0.8c0.4,0.1,1,0.3,1,0.7
					c0.1,1.5,0.3,3,0.3,4.4c0.1,0.7-0.4,0.8-1.1,0.8c-2.5,0-4.9,0-7.3-0.1c-1,0-1.8-0.3-1.4-1.2c0.4-1.2,0.3-2.5,0.4-3.6
					c0.1-0.7,0.4-0.9,1.3-0.5c0.8,0.5,1.6,0.9,2.4,1.5C138.5,40.9,137.4,40.3,136.2,39.9z M146.7,46.2c-0.4-0.3-1-0.5-1-0.9
					c0.1-0.5,0.7-0.7,1.1-0.1h2.7c0.7-0.6,1.3-0.5,1.3,0.1c-0.1,0.7-0.9,0.7-1.4,0.9h-1.3l0,0H146.7z M267.9,5.6
					c-0.1,12.5-0.3,25.1-0.4,37.6c0,0.5,0,1.9,0,1.9s-0.7,1.9-2.7,2.2h-12.3c-0.3-0.4-0.9-0.4-1.3-0.5c-0.4-0.1-0.8-0.3-0.7-0.7
					c0.1-0.2,0.3-0.5,0.7-0.5c0.8-0.1,1.4-0.1,2.1-0.3h9.8c2.5,0.3,2.6,0.2,2.6-1.8c0.1-8.1,0.7-23.9,0.7-23.9s0.1-9.2,0.1-13.7
					c0-2-0.1-2.1-2.6-2.2c-0.7,0.1-1.8,0.1-1.8,0.1S165.2,3.1,116,2.7c-4.9,0-4.9,0-4.9,3.7c-0.1,11.4-0.3,22.7-0.3,34.1
					c0,0.4,0,0.9,0,1.3c0,2.2,0.3,2.5,3.1,2.5c5.1,0,15.1,0,15.1,0s1.6,0.3,2.5,0.4c0.4,0,0.8,0.3,0.8,0.7c0,0.3-0.3,0.7-0.8,0.7
					c-1,0.1-2.1,0-3.2,0c-2.1,0.1-2.1,0.1-2.2,1.8v2c-0.2,20.7-0.4,41.5-0.7,62.2c-0.3,20.5-0.4,41.2-0.4,61.7v1.7
					c-0.4,1.9-2.8,1.9-2.8,1.9H112c0,0-2.7,1-2.3,2.2v1.5c-0.8,19-1,38.2-1.1,57.2v1.3c-0.1,2.3,3.1,3,3.1,3h10.1
					c0,0,2.2-0.1,2.2,1.6v2c-0.5,40.1-2.3,119.7-2.2,119.7v1.3c-0.1,2.7-0.4,3,3.3,3c0.8,0,2.2-0.3,2.2,0.6c0.1,1.3-1.4,0.8-2.2,0.8
					c-18.2-0.2-36.4-0.3-54.6-0.5c-12.3-0.1-37.1-0.2-37.1-0.2s-2.2,0-3,0c-1.1,0.1-1.9,0.6-1.9,1.6c0,0.7,0,1.3,0,2
					c-0.1,11.6-0.3,23.3-0.3,34.8c0,0.8,0.3,2.2-0.4,2.2c-1.1,0-0.7-1.3-0.7-2.1c0.1-12.4,0.3-24.9,0.4-37.5c0-2.7,0-2.7,3.4-2.6
					c28.3,0.2,56.4,0.5,84.7,0.7c5.8,0.1,3.5,0.5,4.5-8.1c0.4-36.4,0.9-72.9,1.4-109.2c-1-9.3,1.6-8.7-4.5-8.8c-2.6,0-5.4,0-8-0.1
					c-1.9-0.1-2.1-0.2-2.1-1.8c0-0.5-0.7-1.5-0.7-1.5v-60.7c0,0,1.5-0.9,1.6-1.3c0.1-1.9,0.1-1.9,2.5-2c3.3,0,7.4,0.1,10.8,0.1
					c2.3,0,2.4-0.1,2.5-2c0-0.5,0-1,0-1.5c0.4-41.2,1-82.3,1.5-123.5c0-3.7,0.4-3.5-4.4-3.5c-2.8,0-5.7,0-8.5-0.1
					c-2.1-0.1-2.2-0.2-2.2-1.8c0-2.7,0.3-8.4,0.3-8.4V4.3c0,0,0.1-1,0.1-1.5c0.1-1.9,0.1-1.9,2.5-2c0.7,0,1.3,0,1.8,0
					c49.6,0.4,99.3,0.8,149,1.2C268.3,2.2,267.9,1.8,267.9,5.6z"/>
			</g>
			<line class="st0" x1="320" y1="0.2" x2="286.8" y2="0.2"/>
		</g>
		<polygon points="133,44.3 133.2,44.3 133.1,44.1 		"/>
		<path d="M112.9,716.4c0-0.3,0-0.7,0-1c0.3,0,0.7-0.1,0.9,0c0.8,0.1,2.1-0.2,2.1,0.7c-0.1,1-1.3,0.2-2.1,0.3
			C113.7,716.5,113.3,716.4,112.9,716.4z"/>
		<path d="M116.2,477.1c0-0.3,0-0.7,0-1c0.3,0,0.7-0.1,0.9,0c0.8,0.1,2.1-0.2,2.1,0.7c-0.1,1-1.3,0.2-2.1,0.3
			C116.9,477.1,116.6,477.1,116.2,477.1z"/>
		<path d="M116.2,434.7c0-0.3,0-0.7,0-1c0.3,0,0.7-0.1,0.9,0c0.8,0.1,2.1-0.2,2.1,0.7c-0.1,1-1.3,0.2-2.1,0.3
			C116.8,434.7,116.6,434.7,116.2,434.7z"/>
		<path d="M112.7,715.4c-1.8-0.3-2.7-1.1-3.1-2.5C111,713.6,112.2,714.4,112.7,715.4z"/>
		<path d="M112.2,673.6c0.3-0.8,1.4-0.9,1.9-1.5c0.3,0,0.7-0.1,0.9,0c0.3,0,0.8,0,0.9,0.2c0.3,0.3-0.1,0.3-0.3,0.4
			C114.3,673,113.3,673.7,112.2,673.6z"/>
		<path d="M112.7,630.6c0.3-0.8,1.4-0.9,1.9-1.5c0.3,0,0.9-0.1,1.1,0c0.3,0,0.4,0.2,0.8,0.3c-0.1,0.1-0.3,0.3-0.3,0.3
			C114.9,629.9,113.9,630.7,112.7,630.6z"/>
		<path d="M115.9,520.8c-0.4-0.6-1.4-0.7-1.8-1.5c0.9,0,1.4,0.3,2.2,0.7c0.4,0.3,1.4,0,1.3,0.7C117.4,520.8,116.3,520.7,115.9,520.8
			z"/>
		<path d="M116.2,433.4c-1.8-0.3-2.7-1.1-3.1-2.5C114.5,431.5,115.6,432.4,116.2,433.4z"/>
		<path d="M112.2,523.2c0.1-1.2,1-1.9,2.5-2C113.9,522.1,113.3,522.7,112.2,523.2z"/>
		<path d="M113.3,628.7c-1.4-0.1-2.2-0.8-2.4-2C111.9,627,112.7,627.8,113.3,628.7z"/>
		<path d="M112.7,671.7c-1.4-0.1-2.2-0.8-2.4-2C111.4,670.2,112.2,670.9,112.7,671.7z"/>
		<path d="M109.1,719.9c-0.1-0.9,0.1-1.6,1.3-2C110.2,718.7,109.8,719.5,109.1,719.9z"/>
		<path d="M112.7,518.2c-1.1-0.4-1.3-1.1-1.3-2C112.4,516.7,112.7,517.4,112.7,518.2z"/>
		<path d="M113.3,475.1c-1.1-0.4-1.3-1.1-1.3-2C112.8,473.5,113.3,474.2,113.3,475.1z"/>
		<path d="M109.7,676.8c-0.1-0.9,0.1-1.6,1.3-2C110.8,675.6,110.4,676.4,109.7,676.8z"/>
		<path d="M110.1,633.6c-0.1-0.9,0.1-1.6,1.3-2C111.2,632.3,111,633.2,110.1,633.6z"/>
		<path d="M114.4,435.4c0.3-0.7,1-1,1.8-1C115.9,435,115.4,435.4,114.4,435.4z"/>
		<path d="M115.7,476.6c-0.9,0-1.4-0.3-1.8-1C114.9,475.6,115.4,475.9,115.7,476.6z"/>
		<path d="M113.9,478.5c0.3-0.7,1-1,1.8-1C115.4,478.2,114.7,478.6,113.9,478.5z"/>
		<path d="M111,717.5c0.3-0.7,1-1,1.8-1C112.5,717.1,111.9,717.5,111,717.5z"/>
		<path d="M111.4,631.5c0-0.6,0.3-0.9,1.3-1C112.5,631.1,112,631.4,111.4,631.5z"/>
		<path d="M110.9,674.8c0-0.6,0.3-0.9,1.3-1C111.9,674.2,111.5,674.5,110.9,674.8z"/>
		<path d="M113.9,672.3c-0.4,0-1-0.1-1.3-0.5C113.3,671.7,113.8,671.9,113.9,672.3z"/>
		<path d="M114.5,629.2c-0.4,0-1-0.1-1.3-0.5C113.8,628.7,114.3,628.8,114.5,629.2z"/>
		<path d="M114.6,521.2c0.3-0.4,0.8-0.5,1.3-0.5C115.7,521.2,115,521.2,114.6,521.2z"/>
		<path d="M110.4,717.9c0.1-0.1,0.3-0.3,0.7-0.5C110.8,717.6,110.6,717.8,110.4,717.9z"/>
		<path d="M113.3,518.7c-0.1-0.1-0.3-0.3-0.7-0.5C112.9,518.4,113.2,518.5,113.3,518.7z"/>
		<path d="M113.9,475.6c-0.1-0.1-0.3-0.3-0.7-0.5C113.5,475.3,113.8,475.4,113.9,475.6z"/>
		<path d="M113.9,519.2c-0.1-0.1-0.3-0.3-0.7-0.5C113.6,518.9,113.9,519.1,113.9,519.2z"/>
		<path d="M154.1,305.2c-0.1,0.5-0.3,0.8,0.3,1.1c0.3,0.2,0.7,0.5,0.9,0.9c-1.4-0.1-2.5-1-3.8-1c-0.1,0-0.3-0.2-0.3-0.3
			c0.1-0.1,0.3-0.2,0.4-0.3C152.4,305.4,153.2,305,154.1,305.2z"/>
		<path d="M154.7,262c-0.3,0.5-0.3,0.8,0.3,1.1c0.3,0.2,0.7,0.5,0.9,0.9c-1.4-0.1-2.5-1-3.8-1c-0.1,0-0.3-0.2-0.3-0.3
			c0.1-0.1,0.3-0.2,0.4-0.3C152.9,262.2,153.7,261.9,154.7,262z"/>
		<path d="M157.2,260c-0.1,1.2-1,1.9-2.5,2C155.3,261.1,156.1,260.5,157.2,260z"/>
		<path d="M157.8,259c0,0.4-0.1,0.8-0.7,1C157.2,259.6,157.2,259.2,157.8,259z"/>
		<path d="M155.5,347.4c-0.1,0.1-0.3,0.3-0.7,0.5C155,347.7,155.3,347.5,155.5,347.4z"/>
		<path d="M155.5,307.2c0.1,0.1,0.3,0.3,0.7,0.5C155.8,307.5,155.5,307.3,155.5,307.2z"/>
		<path d="M155.9,264.1c0.1,0.1,0.3,0.3,0.7,0.5C156.2,264.3,156,264.2,155.9,264.1z"/>
		<path d="M32.3,767.8c7.6,0.1,15.2,0.1,22.9,0.2c0.8,0,1.4,0,2.1,0c1.3,0,2,0.6,2,1.6c0,3.5,0,9.9,0,9.9s-0.3,1.2-1.5,0.4H56
			c-15.7,0.8-47.3,1-47.3,1s-0.8,0-1.2,0c-1.3,0-2-0.4-1.9-1.5c0-3.5,0.1-6.9,0.1-10.5c0-0.9,0.7-1.3,1.8-1.3c2.2,0,4.5,0,6.7,0.1
			C20,767.7,26.2,767.7,32.3,767.8z M26.4,773.9L26.4,773.9c0,1.3,0,2.5,0,3.6c0,2.3,0,2.2,3.2,2.3c0.3,0,0.7,0,0.9,0
			c1.9-0.1,2.1-0.1,2.1-1.8c0.1-2.1,0-4.2,0.1-6.5c0-3.3-0.4-3.6-4.5-3.2c-1,0.1-1.4,0.5-1.4,1.3C26.5,771.1,26.4,772.5,26.4,773.9z
			 M25.3,774.1L25.3,774.1c0-1.1,0-2.4,0-3.5c0-2.6,0-2.6-3.2-2.6c-0.1,0-0.3,0-0.7,0c-2.5,0-2.3,0.1-2.5,2.4c0,2.2,0,4.1-0.1,6.4
			c0,3.1-0.3,3.1,3.2,3.1c0.3,0,0.7,0,1,0c1.4,0.1,2.2-0.4,2.1-1.7C25.3,776.9,25.3,775.6,25.3,774.1z M11.9,774.9L11.9,774.9
			c0-1.1,0.1-2.4,0-3.5c0-2.5,0-2.3-3.7-2.4c0,0,0,0-0.1,0c-3.2,0.1-2.3,0-2.7,4.8c-0.1,0.6-0.1,1.2,0,2c0.3,5-0.8,5,2.8,5.1
			c0.7,0,1.3,0,1.8,0c1.1,0,1.5-0.5,1.5-1.3C11.8,778,11.8,776.3,11.9,774.9z M45.5,774.1L45.5,774.1c0,1.3-0.1,2.7,0,3.9
			c0,1.9,0.1,1.7,2.7,1.8c0.1,0,0.3,0,0.3,0c3.5-0.1,2.7,0.2,3.1-3.5c0-0.5,0-1.1,0-1.5c-0.3-6.4,1-6.5-3.8-6.4
			c-0.7,0-1.4,0-2.1,0.1c-0.1,0-0.1,0.1-0.1,0.1C45.5,770.3,45.5,772.2,45.5,774.1z M38.5,773.1c0-1.1,0-2.3,0-3.5s-0.4-1.7-1.8-1.8
			c-0.4,0-1.1,0-1.5,0c-1.9,0.1-2.1,0.1-2.2,1.8c-0.1,2.7-0.1,5.2-0.1,8.1c0,2,0.1,2,2.5,2.1c0.3,0,1,0,1.3,0
			c1.3,0.1,1.8-0.5,1.9-1.6C38.3,776.5,38.6,774.9,38.5,773.1z M13.3,774c0,1.4,0,2.9,0,4.2c-0.1,1.2,0.7,1.7,2.1,1.6
			c0.7,0,1.3,0,1.8,0c1.1,0,1.6-0.5,1.6-1.4c0-3,0.1-6,0.1-9c0-0.9-0.4-1.3-1.8-1.4c-0.7,0-1.3,0-1.8,0c-1.5-0.1-2.1,0.5-2.1,1.7
			C13.3,771.3,13.3,772.6,13.3,774z M58,774.9L58,774.9c-1.1,0-1.5-0.6-1.1-1.3c1.8-3.2,1.5-4.6-0.4-4.6c-0.8,0-1.4,0-2.2,0
			c-1.8,0-1.9,1-1.4,2.8c0.4,2.1,0.7,4.1-0.1,6.2c-0.7,1.9-0.3,2.8,1.4,2.9c0.7,0,1.3,0,1.8,0c1.5,0.1,2.1-0.5,2.1-1.8
			C58,777.7,58,776.2,58,774.9z M39.5,774.5L39.5,774.5c0,1.6,0,3.1,0,4.6c0,0.8,0.4,1.2,1.4,1.3c0.7,0,1.3,0.1,1.8,0
			c2.1-0.1,2.1-0.1,2.1-1.8c0.1-2.6,0.1-5.1,0.1-7.9c0-1.7-0.1-1.8-2.1-1.9c-0.4,0-1,0-1.4,0c-1.3-0.1-1.8,0.5-1.9,1.5
			C39.5,771.9,39.5,773.2,39.5,774.5z"/>
		<path d="M30.7,764.1c-4.9,0-9.8-0.1-14.8-0.1c-1.4,0-2.7-0.2-4.2,0.6c-1.1,0.7-2.1-0.4-2.8-0.8c-0.3-0.1-0.3-0.4-0.1-0.7
			c0.4-0.6,2.5-1.2,3.2-0.7c1.1,0.7,2.2,0.6,3.5,0.6c10.1,0.1,19.9,0.2,30.1,0.3c1,0,2.7-0.5,2.7,0.6c0.1,0.7-1.8,0.4-2.7,0.4
			C40.6,764.2,35.5,764.2,30.7,764.1z"/>
		<path d="M130.9,743.3c0.7,0.2,1,0.5,1.3,1C131.5,744.2,130.9,743.8,130.9,743.3z"/>
		<path d="M237.8,5.6c7.3,0.1,14.9,0.1,22.3,0.2c2.8,0,3.1,0.1,2.8,2.4c0,2.8-0.1,5.7-0.1,8.6c0,2.1-0.1,2.2-2.7,2.2
			c-10.2-0.1-20.2-0.2-30.3-0.3c-5.1,0-10.2-0.1-15.3-0.1c-2.4,0-2.5-0.2-2.5-2c0-3,0-6,0.1-9.1c0-2,0.3-2.1,2.7-2
			C222.5,5.5,230.2,5.5,237.8,5.6z M232.4,12.6L232.4,12.6c0,1.3,0,2.5,0,3.6c0,0.1,0,0.1,0,0.3c0,2,0.1,2.1,2.6,2.1
			c0.1,0,0.3,0,0.7,0c2.1,0,2.1-0.1,2.1-2.1c0-2.5,0-5,0.1-7.5c0-2.1,0-2.2-2.4-2.3c-0.3,0-0.9,0-1.3,0c-2.1-0.1-2.5,1.2-0.9,4.6
			C233.8,12.1,233.2,12.6,232.4,12.6z M243.3,12.8c0-1.6,0-3.1,0-4.6c0-1.1-0.4-1.5-1.8-1.5c-0.3,0-0.7,0-0.9,0c-2.5,0-2.7,0-2.7,2
			c0,2.7-0.1,5.3-0.1,7.9c0,1.9,0.1,1.9,2.4,2c0.3,0,0.9,0,1.3,0c1.3,0.1,1.8-0.5,1.9-1.5C243.3,15.6,243.3,14.2,243.3,12.8z
			 M257.6,12.7c0,1.4-0.1,2.8,0,4.1c0,1.6,0.1,1.7,2.1,1.8c0.7,0,1.3,0,1.9,0c1.1,0,1.5-0.4,1.5-1.2c0-3.1,0.1-6.3,0.1-9.6
			c0-0.8-0.4-1.3-1.5-1.3c-0.7,0-1.3-0.1-1.9,0c-2.1,0.1-2.1,0.1-2.2,1.7C257.6,9.8,257.6,11.3,257.6,12.7z M249.9,12.7
			c0-1.4,0.1-2.8,0-4.1c0-1.6-0.1-1.7-2.1-1.8c-0.7,0-1.3,0-1.9,0c-1.1,0-1.5,0.4-1.5,1.2c0,3.1-0.1,6.3-0.1,9.6
			c0,0.8,0.4,1.3,1.5,1.3c0.7,0,1.3,0.1,1.9,0c2.1-0.1,2.1-0.1,2.2-1.7C249.9,15.6,249.9,14.1,249.9,12.7z M224.7,12.7L224.7,12.7
			c-1,0-1.5-0.6-1.1-1.3c1.5-3.1,1.8-4.7-0.3-4.7c-0.7,0-1.1,0-1.8,0c-1.1-0.1-2.2,0.7-2.2,1.6c0,3-0.1,5.9-0.1,8.9
			c0,0.9,0.4,1.4,1.8,1.4c0.7,0,1,0,1.8,0c1.5,0.1,2.2-0.4,2.1-1.6C224.7,15.5,224.7,14.1,224.7,12.7z M218.1,11.7L218.1,11.7
			c0-1.6,0-3.1,0-4.6c0-0.9-0.3-1.4-1.6-1.4c-0.7,0-1.3,0-1.8,0c-1.4-0.1-2.1,0.4-2.1,1.6c0,3-0.1,5.9-0.1,8.9
			c0,0.9,0.4,1.4,1.6,1.4c0.7,0,1.3,0,1.8,0c1.4,0.1,2.1-0.4,2.1-1.6C218.1,14.5,218.1,13.1,218.1,11.7z M226,12.1
			c0,1.5-0.1,3,0,4.4c0.1,1.4,0.3,1.5,2.4,1.6c2.1,0,2.5-0.1,2.5-1.4c0.1-3,0.1-6,0.1-9.1c0-1.4-0.3-1.5-2.4-1.6s-2.4,0.1-2.5,1.4
			C226,9.1,226,10.5,226,12.1z M256.5,12.5c0-1.6,0-3.1,0-4.6c0-1.3-1-1.4-2.2-1.4c-2.1,0-2.5,0.1-2.6,1.3c-0.1,3.1-0.1,6.1-0.1,9.3
			c0,1.3,1,1.4,2.2,1.4c2.1,0,2.5-0.1,2.6-1.3C256.5,15.5,256.5,14,256.5,12.5z"/>
		<path d="M233.6,22.1c7.2,0.1,14.4,0.1,21.6,0.2c0.7,0,1.1-0.2,1.6-0.4c1.1-0.5,3.1-0.2,3.6,0.5c0.1,0.2,0.1,0.5-0.1,0.7
			c-0.8,0.7-2.7,1-3.5,0.5c-1.1-0.7-2.4-0.5-3.5-0.5c-12.6-0.1-25.1-0.2-37.7-0.3c-0.9,0-1.6,0.2-2.4-0.2c0.8-0.6,1.6-0.5,2.5-0.5
			C221.6,22,227.6,22,233.6,22.1L233.6,22.1z"/>
		<path d="M139.2,42.5c0,0.3,0,0.7,0,1c0,0.2,0,0.5-0.3,0.5c-0.1,0-0.3-0.2-0.3-0.3c-0.1-0.5-0.3-1.1-0.4-1.7
			C138.5,42.1,138.9,42.4,139.2,42.5z"/>
		<path d="M142.5,40c-0.3,0.4-0.8,0.5-1.3,0.5C141.8,40,142.1,40,142.5,40z"/>
		<path d="M140.2,41.5c0,0.4-0.1,0.8-0.7,1C139.5,42,139.7,41.7,140.2,41.5z"/>
		<path d="M141.4,40.4c-0.1,0.1-0.3,0.3-0.7,0.5C141,40.8,141.2,40.6,141.4,40.4z"/>
		<path d="M140.8,41c-0.1,0.1-0.3,0.3-0.7,0.5C140.3,41.3,140.6,41.1,140.8,41z"/>
		<path d="M234,398.3c7.2,0.1,14.7,0.1,21.8,0.2c3,0,3,0.1,2.8,2.4c0,2.8-0.1,5.6-0.1,8.4c0,2.1-0.1,2.2-2.7,2.2
			c-9.9-0.1-19.8-0.2-29.7-0.3c-5,0-10-0.1-15-0.1c-2.3,0-2.4-0.2-2.4-2c0-3,0-5.9,0.1-8.9c0-2,0.2-2.1,2.7-2
			C218.8,398.2,226.3,398.3,234,398.3z M240,404.9L240,404.9c0,1.5,0,3,0,4.4c0,0.8,0.4,1.2,1.4,1.3c0.7,0,1.3,0.1,1.8,0
			c2.1,0,2.1-0.1,2.1-2.1c0-2.3,0-4.6,0.1-6.9c0-2.3,0-2.4-2.4-2.4c-0.3,0-0.9,0-1.3,0c-1.3-0.1-1.8,0.5-1.9,1.5
			C240,402.1,240,403.5,240,404.9z M252,405.2c0,1.3-0.1,2.8,0,4c0,1.8,0.1,1.8,2.1,1.9c0.7,0,1.3,0,1.8,0c1.1,0,1.5-0.4,1.8-1.2
			c0-3.1,0.1-6.2,0.1-9.3c0-0.9-0.7-1.3-1.8-1.3c-0.4,0-1.1,0-1.5,0c-2.1,0.1-2.1,0.1-2.2,1.8C252,402.5,252,403.9,252,405.2z
			 M213.4,405.6L213.4,405.6c-0.7-0.8-0.7-0.7-1.3-1.6c1.8-2.9,1.6-4.2-0.3-4.3c-0.7,0-1.3-0.1-1.8,0c-2.1,0-2.1,0.2-2.1,2.1
			c0,2.4,0,4.6-0.1,7.1c0,2.1,0,2.1,2.4,2.2c0.3,0,0.9,0,1.3,0c1.3,0.1,1.8-0.5,1.9-1.5C213.3,408.2,213.4,406.9,213.4,405.6z
			 M214.8,405c0,1.5,0,3.1,0,4.5c0,1.1,0.4,1.5,1.9,1.5c0.4,0,1,0,1.5,0c1.9-0.1,2.1-0.1,2.2-1.8c0.1-2.7,0.1-5.1,0.1-8
			c0-1.9-0.1-1.9-2.4-2.1c-0.3,0-1,0-1.3,0c-1.3-0.1-1.8,0.5-1.9,1.5C214.8,402.3,214.8,403.7,214.8,405z M226.9,405L226.9,405
			c0,1.5,0,3,0,4.4c0,0.8,0.4,1.2,1.4,1.3c0.7,0,1.3,0.1,1.8,0c2.1-0.1,2.1-0.1,2.1-1.8c0.1-2.6,0.1-5.1,0.1-7.9
			c0-1.7-0.1-1.7-2.1-1.9c-0.4,0-1,0-1.4,0c-1.3-0.1-1.8,0.5-1.9,1.5C226.9,402.2,226.9,403.6,226.9,405z M233.5,405L233.5,405
			c0,1.5,0,3,0,4.4c0,0.8,0.4,1.2,1.4,1.3c0.7,0,1.3,0.1,1.8,0c2.1-0.1,2.1-0.1,2.1-1.8c0.1-2.6,0.1-5.1,0.1-7.9
			c0-1.7-0.1-1.8-2.1-1.9c-0.4,0-1,0-1.4,0c-1.3-0.1-1.8,0.5-1.9,1.5C233.5,402.2,233.5,403.6,233.5,405z M251.3,405.6
			c0-1.4,0.1-2.8,0-4.2c-0.1-1.4-0.3-1.5-2.4-1.6c-2.1,0-2.5,0.1-2.5,1.4c-0.1,2.8-0.1,5.7-0.1,8.6c0,1.4,0.3,1.5,2.4,1.6
			c2.1,0,2.4-0.1,2.5-1.4C251.4,408.4,251.3,407,251.3,405.6z M226,405.8L226,405.8c0-1.4,0.1-2.8,0-4.2c0-1.6-0.3-1.7-2.4-1.8
			c-2.1,0-2.4,0.1-2.5,1.7c-0.1,2.5,0,4.9-0.1,7.5c0,2.2,0.3,2.4,3.1,2.3c1-0.1,1.9-0.7,1.9-1.6C226,408.4,226,407,226,405.8z"/>
		<path d="M229.9,394.9c6.6,0.1,12.9,0.1,19.3,0.2c1,0,2.2,0.2,3.2-0.6c0.1-0.1,0.3-0.2,0.4-0.3c1.3-0.1,2.1,0.5,3.1,1
			c0.4,0.3,0,0.7-0.3,0.7c-1.1,0.3-2.1,1.7-3.4,0.3c-0.9-1-2.1-0.7-3.1-0.7c-9.5-0.1-19.1-0.2-28.6-0.2c-3.6,0-7.3-0.1-11.1-0.1
			c-0.3,0-0.9-0.1-0.9-0.2c0.1-0.5,0.7-0.3,0.9-0.3C216.4,394.8,223.2,394.8,229.9,394.9L229.9,394.9z"/>
		<path d="M112.6,386.6c-2.1-0.4-3.2-1.4-3.6-3C110.4,384.4,111.5,385.4,112.6,386.6z"/>
		<path d="M133.9,374.7c0-0.9,0.7-1.5,1.1-2.3c0.1-0.3,0-0.7,0.7-0.6c0.1,0.1,0.1,0.6,0.3,0.9c0,0.1,0,0.3,0,0.5
			C135.2,373.7,135,374.5,133.9,374.7z"/>
		<path d="M136.2,374.3c0.9,0.3,1.4,0.8,1.8,1.5C136.7,375.7,136.2,375.2,136.2,374.3z"/>
		<path d="M130.4,376.2c0.7-0.7,1.4-0.9,2.5-1C132.6,376.2,131.6,376.3,130.4,376.2z"/>
		<path d="M113.8,387.1c-0.4,0-1-0.1-1.3-0.5C113.2,386.7,113.5,386.7,113.8,387.1z"/>
		<path d="M135.5,373.3c0.4,0.2,0.7,0.6,0.4,1C135.5,374.1,135.5,373.7,135.5,373.3z"/>
		<path d="M135.6,409.9c0,0.4-0.1,0.8-0.7,1C135,410.5,135.2,410.2,135.6,409.9z"/>
		<path d="M136.8,409c-0.1,0.1-0.3,0.3-0.7,0.5C136.5,409.3,136.7,409.1,136.8,409z"/>
		<path d="M136.2,409.5c-0.1,0.1-0.3,0.3-0.7,0.5C135.8,409.8,136.2,409.6,136.2,409.5z"/>
		<path d="M133,375.3c0.1-0.1,0.3-0.3,0.7-0.5C133.3,374.9,133.2,375.1,133,375.3z"/>
		<path d="M159.5,69.8c-1-0.5-1.9-1.2-2.4-2C158.5,67.9,159.3,68.6,159.5,69.8z"/>
		<path d="M160.1,70.8c-0.4-0.2-0.7-0.6-0.4-1C160.1,70,160.1,70.4,160.1,70.8z"/>
		<path d="M156.5,110.8c-0.3,0-0.7,0.1-0.9,0c-0.8-0.2-2.1-0.3-2.1-0.7c0-0.6,1.3-0.3,2.1-0.7c0.7-0.3,1.4-0.7,2.2-0.6
			c-0.3,0.3-0.4,0.7-0.9,0.9C156.2,110,156.2,110.4,156.5,110.8z"/>
		<path d="M159,112.9c-1-0.5-1.9-1.2-2.4-2C158,111.1,158.8,111.8,159,112.9z"/>
		<path d="M159.5,114c-0.4-0.2-0.7-0.6-0.4-1C159.4,113.2,159.5,113.6,159.5,114z"/>
		<path d="M157.8,108.9c0.1-0.1,0.3-0.3,0.7-0.5C158.2,108.6,157.9,108.8,157.8,108.9z"/>
		<path d="M156.5,154.6c-1-0.2-2.1-0.4-3.2-0.6c-0.3-0.1-0.7-0.2-0.7-0.4c-0.1-0.3,0.3-0.5,0.7-0.5c0.8-0.1,1.4-0.1,2.1,0
			C155.8,153.5,156.1,154,156.5,154.6z"/>
		<path d="M155.5,153c0.3-0.4,0.8-0.5,1.3-0.5C156.4,153,155.9,153,155.5,153z"/>
		<path d="M157.2,155c-0.1-0.1-0.3-0.3-0.7-0.5C156.8,154.7,157.1,154.9,157.2,155z"/>
		<path d="M156.7,152.6c0.1-0.1,0.3-0.3,0.7-0.5C157.1,152.2,156.9,152.4,156.7,152.6z"/>
		<path d="M157.8,155.6c-0.1-0.1-0.3-0.3-0.7-0.5C157.4,155.2,157.6,155.4,157.8,155.6z"/>
		<path d="M157.2,152c0.1-0.1,0.3-0.3,0.7-0.5C157.6,151.7,157.4,151.9,157.2,152z"/>
		<path d="M58.2,588.2c-0.7-0.3-1-0.9-1-1.5c0.4-1.7,0.3-3.3,0.4-4.8c0.1-0.7,0.4-1.1,1.4-1.1c1-0.1,2.1,0,3.1,0
			c2.1,0.1,2.1,0.1,2.1,1.8c0.1,1.2,0.4,2.5,0.4,3.6c0.1,1.5-0.4,2.8-2.6,3.1l-0.7-0.1l1.3-0.2v-0.3l-0.7-0.1l0.9-0.7
			c0.3-0.3,0.4-0.5,0.7-0.8c0.8-1.3,0.3-2.7-0.3-4c-0.4-1.5-0.8-1.5-3.2-1.5c-1.8,0-1.4,1.1-1.8,1.9c-0.1,0.2-0.1,0.5,0,0.7
			c0.7,1.8,1.1-2.3,1.9,2.1c-0.3,0.5-0.4,0.9-0.8,1.4h-0.1c-0.3-0.2-0.7-0.6-0.8-0.5C58.2,587.3,58.5,587.8,58.2,588.2L58.2,588.2z"
			/>
		<path d="M70.2,589.2c-0.4-0.3-0.9-0.8-0.8-1.3c0.3-1.5,0.1-3,0.3-4.4c0.1-1.3,0.3-1.3,3.5-1.3c2.8,0,3.1,0.1,3.2,1.4
			s0,2.5,0.1,3.6c0.3,2.9-1.6,3.9-5.1,2.9l0.1-0.1c0.4,0,0.9-0.1,1.1-0.5c0.3,0,0.3,0,0.7,0c0.3,0.4,0.8,0.5,1.3,0
			c0.1-0.2,0.3-0.3,0.7-0.5c1.1-1.8,0.4-3.6,0.4-5.6c0-0.5-0.3-0.7-1-0.8c-0.7-0.1-1.3-0.1-1.8-0.1c-2.2,0-2.2,0-2.5,1.6
			c-0.1,1.6,0,3.1-0.1,4.6L70.2,589.2z"/>
		<path d="M62.2,589c-1.4,0.9-2.2,0.5-3.2-0.5l0.1-0.1c0.3-0.2,0.4-0.5,0.4-0.9l0.1-0.1c0.8,0.4,1.4,0.5,2.4,0.6
			c0,0.1,0.1,0.3,0.1,0.5l-0.1,0.1c-0.3,0.1-0.8,0.1-1.1,0.1C61.2,589.1,61.7,588.9,62.2,589L62.2,589z"/>
		<path d="M104.5,585.9c1,0.5,1.9,1.2,2.4,2C105.5,587.8,104.8,587.1,104.5,585.9z"/>
		<path d="M106.9,587.9c1,0.1,1.8,0.3,2.5,1C108.5,588.9,107.5,588.8,106.9,587.9z"/>
		<path d="M103.4,583.9c0.8,0.5,1.1,1.2,1.3,2C103.4,585.5,103.4,584.8,103.4,583.9z"/>
		<path d="M71.8,589.5c-0.8-0.1-1.1-0.4-1.3-1l0.1-0.1c0.1,0,0.3,0,0.7,0.1c0.1,0.2,0.3,0.3,0.7,0.5
			C71.8,589.2,71.8,589.4,71.8,589.5L71.8,589.5z"/>
		<path d="M59,588.5c-0.1-0.2-0.3-0.3-0.7-0.5l0.1-0.1c0.1,0.1,0.3,0.3,0.7,0.5L59,588.5z"/>
		<path d="M198.4,212.9c0.4,0,1,0,1.4,0c1.4-0.1,2.1,0.3,1.4,1.6c-0.3,0.8-0.1,1.7,0.1,2.5c0.1,0.2,0.1,0.5,0.3,0.7
			c0.3,1.5-0.1,2.8-1.8,3.6c-1.3,0.7-2.5,0.6-3.6,0c-1.8-0.9-2.1-2.2-1.8-3.6c0.3-1.3,0.8-2.5,0.3-3.8c-0.3-0.7,0.3-0.9,1.1-0.9
			C197,212.9,197.6,212.9,198.4,212.9L198.4,212.9z M200,220.6c-0.1,0.1-0.1,0.1-0.1,0.1C199.9,220.9,200,220.8,200,220.6
			c0.3-0.3,0.7-0.6,0.7-1c0.1-0.1,0.3-0.2,0.3-0.3c0.1-0.2,0.3-0.5-0.1-0.6c-0.3-0.1-0.3,0.3-0.3,0.5c0,0.1,0,0.3,0,0.5
			C200.2,219.9,200,220.2,200,220.6z M195.1,220.6v-1c0,0,4.1,0.9,4.7-1c0.1-0.5,0.1-1,0.1-1.5c1.1-2.6,0.3-3.5-2.8-3
			c-0.9,0.1-1.3,0.5-1.4,1.1c0,0.7-0.1,1.3,0.5,1.9v2.7h-1.1v-0.7c0.3-0.2,0.3-0.5,0-0.5c-0.3,0.1-0.1,0.4-0.1,0.6
			c0.1,0.1,0.3,0.2,0.3,0.3c0.4,0.5,0.5,0.9,0.9,1.1c0.1,0.1,0.1,0.1,0.3,0.1C196.5,220.8,195.1,220.6,195.1,220.6z M198.1,221.6
			c0.1,0,0.1,0.1,0.1,0.1l0.1-0.1c-0.1,0-0.1-0.1-0.1-0.1L198.1,221.6z"/>
		<path d="M212.7,221.8c-1.5,1.1-2.7,1.3-3.8,0.6c-1.3-0.8-2-2-1.6-3.4c0.3-1.3,0.5-2.6,0.4-3.8c-0.1-0.5,0.1-0.8,0.7-0.8
			c1.6,0,3.3,0,4.9,0.1c0.5,0.1,0.5,0.5,0.1,0.9l-0.1-0.1c-1.3-0.9-2.6-0.5-4.1-0.4c-0.9,0.1-1.5,1.5-0.9,2.5
			c0.4,0.9,0.9-0.3,1.3-0.4c0.9-0.1,1.3-0.3,2,0.4c-1.6,0.3-2.6,1-2.6,2s0.9,1.7,2.6,2c0,0.1,0,0.3,0,0.5c-0.9,0-1.5,0-2.3,0
			c-0.2-0.1-0.3-0.3-0.5-0.5c-0.1-0.4-0.1-0.8-0.4-1c0-0.1,0-0.3,0-0.5c0-0.2,0-0.5-0.3-0.5c-0.2,0.1-0.1,0.4,0,0.6
			c0.1,0.1,0.2,0.2,0.3,0.3c0,0.4,0.1,0.7,0.4,1c0.1,0.2,0.3,0.3,0.5,0.5c0.7,0.7,1.5,0.7,2.3,0
			C211.9,221.7,212.4,221.7,212.7,221.8L212.7,221.8z"/>
		<path d="M213.4,215c0.1,1.5,0.8,2.9,0.7,4.3c-0.1,0.9-0.1,1.7-1.3,2.1l-0.1-0.1c0-0.3,0-0.7,0-1c1.1-1.1,0.7-2.3,0.3-3.5
			C212.7,216.2,212.3,215.5,213.4,215L213.4,215z"/>
		<path d="M163.8,215.3c-0.9-0.3-1.4-0.8-1.8-1.5C163.1,214,163.8,214.5,163.8,215.3z"/>
		<path d="M165.1,217.3c-0.8-0.5-1.1-1.2-1.3-2C164.9,215.7,165.2,216.5,165.1,217.3z"/>
		<path d="M200.6,196.1c1.4,0.6,1.4,1.8,1.1,2.8c-0.3,1.2-0.7,2.4-0.3,3.6c0.3,0.7-0.3,0.9-0.9,1c-1.6,0.1-3.2,0-4.9,0
			c-0.7,0-1-0.3-0.9-0.8c0.7-1.5,0-2.9-0.3-4.3c-0.1-1.2,0.3-2.4,1.6-3.1c1.3-0.7,2.7-0.7,4.1,0
			C200.5,195.5,200.6,195.8,200.6,196.1c-0.3,0-0.3,0-0.7,0c-0.1-0.1-0.1-0.1-0.3-0.1c0.1,0,0.1,0.1,0.3,0.1c0,0.4,0.1,0.7,0.7,1
			c0,0.1,0,0.3,0,0.5s0,0.5,0.3,0.5c0.3-0.1,0.1-0.4,0.1-0.6c-0.1-0.1-0.3-0.2-0.3-0.3C200.6,196.8,200.6,196.5,200.6,196.1z
			 M196.8,196.1c0.1-0.1,0.1-0.1,0.1-0.1C196.8,196,196.8,196,196.8,196.1c-0.3,0.3-0.7,0.6-0.7,1c-0.1,0.1-0.3,0.2-0.3,0.3
			c-0.1,0.2-0.3,0.5,0.1,0.6c0.3,0.1,0.3-0.3,0.3-0.5c0-0.1,0-0.3,0-0.5C196.5,196.8,196.8,196.5,196.8,196.1z M196.5,199.6
			c-0.9,0.7-0.7,1.7-0.4,2.6c0,0.3,0.3,0.7,0.7,0.7c1,0.2,2.2,0.4,3.2,0c1.1-0.3,0.9-1.3,0.8-1.9c-0.3-0.9-0.9-0.2-1.3-0.1
			C198,201.3,197,201.1,196.5,199.6c0.9,0.3,1.6,1.4,2.8,0.4c1-0.9,0.9-1.8,0.3-2.7c-0.1-0.1-0.1-0.3-0.3-0.4
			c-0.7-0.7-1.3-0.7-2.1-0.1C196.9,197.6,196.5,198.6,196.5,199.6z"/>
		<path d="M214,203.2c0.3,0.4,0.4,0.9-0.1,0.9c-1.8,0.1-3.6,0-5.6,0c-0.8,0-0.8-0.5-0.7-0.9c0.3-1.3,0-2.5-0.3-3.6
			c-0.3-1.4,0.7-3.2,2.1-3.5c1.4-0.5,3.1-0.6,4.2,0.8l-0.1,0.1c-0.7,0.3-0.4,0.7,0.1,0.9l0,0c-0.1,1.2,0.7,2.7-1.3,3.5
			c0.1-1,1-2,0.3-3.1c-0.7-0.9-1.6-1.1-2.4-0.3c-0.7,0.6-0.9,1.2-0.4,2.1c0.4,1,1.4,1.3,2.6,1.4c-1.1,0.8-2.1,0.5-2.8-0.2
			c-0.1-0.1-0.3-0.4-0.7-0.1c-0.7,0.5,0,2.7,1,2.7c1.4,0.1,3.1,0.5,4.4-0.4L214,203.2z M209.5,196.7c-0.1,0.2-0.3,0.3-0.7,0.5
			c-0.3,0.3-0.7,0.6-0.7,1c-0.1,0.1-0.3,0.2-0.3,0.3c-0.1,0.2-0.3,0.5,0.1,0.6c0.3,0.1,0.3-0.3,0.3-0.5c0-0.1,0-0.3,0-0.5
			c0.4-0.2,0.7-0.6,0.7-1C209.1,197,209.2,196.9,209.5,196.7c0.3-0.1,0.7,0,0.7-0.3c0,0-0.1-0.1-0.3-0.1
			C209.7,196.5,209.7,196.6,209.5,196.7z"/>
		<path d="M213.4,196.7c2.1,1.2,1,2.9,1,4.3c0,0.7-0.7,1.4-0.4,2.2l-0.1,0.1c-0.8-0.6-0.4-1.3-0.3-2c0.3-1.2,0.8-2.4-0.3-3.5l0,0
			c0-0.3,0-0.6-0.1-0.9L213.4,196.7z"/>
		<path d="M165.3,200.9c-0.8-0.5-1.1-1.2-1.3-2C165.1,199.2,165.3,200,165.3,200.9z"/>
		<path d="M162.8,197.8c-0.9,0-1.4-0.3-1.8-1C161.9,196.8,162.5,197.1,162.8,197.8z"/>
		<path d="M163.5,198.3c-0.1-0.1-0.3-0.3-0.7-0.5C163,197.9,163.3,198.1,163.5,198.3z"/>
		<path d="M164.1,198.8c-0.1-0.1-0.3-0.3-0.7-0.5C163.7,198.5,163.8,198.6,164.1,198.8z"/>
		<path d="M59.6,561.2c2.7-1.3,4.8-0.4,4.9,2.1c0.1,1.5-0.8,2.9-0.3,4.3c0.1,0.4-0.3,0.7-0.9,0.7c-0.3,0.1-0.8,0.1-1.1,0.1
			c-4.5,0-4.1,0.1-4.1-3c0-0.6,0-1.2-0.3-1.8c-0.3-0.8,0-1.4,0.8-2l0.1,0.1c0.1,0.3-0.3,0.7,0.3,0.9c0.1,0.1,1.3-0.5,1.3-0.5v3.1
			c-0.3,0.1-0.4-1.1-0.9-0.1c-0.1,0.4,0,0.7,0,1.1c0.3,1.6,0.3,1.6,2.2,1.6c2,0,2,0,2-1.8c0-0.3,0-0.9,0-0.9s0.3-2.1-0.7-3.1
			c-0.1-0.2-0.3-0.3-0.4-0.5c-0.1-0.1-0.1-0.1-0.1-0.1c0.1,0.1,0.1,0.1,0.3,0.1c0.3,0.1,0.9,0.4,0.9,0.4v3.2c0,0-1.9,1.5-3.2,0.4
			c1.4-0.2,2.1-0.8,2.1-1.9c0.1-1.2-0.7-1.9-2.1-2.2c-0.3-0.3-0.7-0.4-1.1-0.4L59.6,561.2z"/>
		<path d="M76.6,562.5c0.7,0.5,0.8,1.1,0.8,1.8c-0.1,1.3-0.3,2.7-0.3,3.8c0,1.1-0.9,1.5-2.1,1.3c-1.4-0.2-3.8,0.9-4.6-0.9
			c-0.4-1.7-0.4-3.6-0.1-5.6c0-0.2,0.3-0.4,0.7-0.5l0.1,0.1c0,1.7,0,3.5,0.1,5.1c0,0.9,0.3,1.4,1.6,1.3c0.7-0.1,1.3-0.1,1.8,0
			c1.3,0.1,1.4-0.4,1.8-1.3C76.6,566.2,76.5,564.3,76.6,562.5L76.6,562.5z"/>
		<path d="M72.2,561.4c1.1-0.7,2.1-0.7,3.2,0l-0.1,0.1c-0.3,0.1-0.4,0.1-0.8,0.2c0.3,0.1,0.4,0.1,0.8,0.2l0.1,0.1
			c0.1,0.1,0.3,0.3,0.7,0.5l0,0c0,1.1,0,2.1-0.1,3.2c-0.1,0.7-0.7,1.2-1.6,1.3c-1,0.1-1.9,0.1-2.1-1c1,0.3,2.1,0.8,2.7-0.2
			c0.7-0.8,0.4-1.8,0-2.7c-0.3-0.4-0.8-0.6-1.3-0.6c-0.7,0.1-1.3,0.4-1.4,0.9c-0.1,0.8-0.1,1.7-0.3,2.5c-1.1-1.1-0.3-2.3-0.7-3.5
			l0,0c0.1-0.1,0.3-0.3,0.7-0.5l0,0c0.3-0.1,0.4-0.1,0.8-0.2C72.7,561.6,72.4,561.6,72.2,561.4L72.2,561.4z"/>
		<path d="M105.5,568.3c0.7,0.2,1,0.5,1.3,1C105.8,569.4,105.5,568.9,105.5,568.3z"/>
		<path d="M75.5,561.4c0.8,0.1,1.1,0.4,1.3,1l-0.1,0.1c-0.1,0-0.3,0-0.7-0.1l0,0c-0.1-0.1-0.3-0.3-0.7-0.5l-0.1-0.1
			C75.3,561.8,75.3,561.7,75.5,561.4L75.5,561.4z"/>
		<path d="M71,562.8c0.1-0.6,0.4-0.9,1.3-1l0.1,0.1c0,0.1,0,0.3,0,0.5l0,0c-0.1,0.1-0.3,0.3-0.7,0.5l0,0c-0.1,0-0.3,0-0.7,0
			L71,562.8z"/>
		<path d="M58.7,561.3c0.1-0.1,0.3-0.3,0.7-0.5l0.1,0.1C59.2,561,58.9,561.2,58.7,561.3L58.7,561.3z"/>
		<path d="M104.7,567.8c0.1,0.1,0.3,0.3,0.7,0.5C105.2,568.1,105,567.9,104.7,567.8z"/>
		<path d="M63.6,587.6c-0.1,0-0.3,0-0.7,0c0.1-1.4,0.1-2.9-1.1-3.9c1.3,0.1,1.8,0.7,1.8,1.6C63.6,586,63.6,586.8,63.6,587.6z"/>
		<path d="M61.6,583.6c-0.7,0.2-1.1,0.5-1.8,0.5C60.1,583.5,60.6,582.7,61.6,583.6z"/>
		<path d="M63.6,587.6c0,0-1.4,0-1.6,0c0.1-0.1,0.3-0.5,0.3-0.5l1.3,0.3V587.6L63.6,587.6z"/>
		<path d="M75.6,589c-0.3,0.1-0.3,0.3-0.7,0.5c-0.3,0-0.9,0-1.3,0c1.4-1.1,1.4-2.5,1.3-3.9C76.2,586.6,75.5,587.9,75.6,589z"/>
		<path d="M71.3,588.9c0.1-1.1-0.4-2.4,0.7-3.4c-0.1,1.4-0.1,2.9,1.1,3.9c-0.3,0-0.9,0-1.3,0C71.8,589.2,71.6,589.2,71.3,588.9z"/>
		<path d="M75.2,585.1c-1-0.5-2.1-0.6-3.1,0C73.2,583.7,73.9,583.7,75.2,585.1z"/>
		<path d="M197.6,216.1c1.4-0.8,2.1,0,2.5,1C199.3,216.8,198.4,216.5,197.6,216.1z"/>
		<path d="M196.4,217.1c0-0.6,0.3-0.9,1.3-1C197.4,216.6,197,216.9,196.4,217.1z"/>
		<path d="M213,220.8c-0.3,0.1-0.9,0.3-1.3,0.5c0.7-1.3,0.7-2.7,0-3.9C213.6,218.1,212.9,219.5,213,220.8z"/>
		<path d="M59.9,565.5c0.1,0.1,0.3,0.3,0.7,0.5C60.5,565.8,60.1,565.6,59.9,565.5z"/>
		<path d="M60,561.9c0.1-0.1,0.3-0.3,0.7-0.5C60.5,561.5,60.1,561.7,60,561.9z"/>
	</g>
	<text transform="matrix(1.1916 1.020248e-02 -1.193699e-02 0.9999 165.8281 74.5667)" class="st1 st2 st3">Lab HES</text>
	<text transform="matrix(1.001901e-02 -0.8391 1 8.563196e-03 199.6953 174.4505)" class="st1 st2 st4">Ruang Dosen</text>
	<text transform="matrix(1.001901e-02 -0.8391 1 8.563196e-03 197.909 323.9691)" class="st1 st2 st4">Ruang Dosen</text>
	<text transform="matrix(1.001901e-02 -0.8391 1 8.563196e-03 72.5369 690.9337)" class="st1 st2 st4">Ruang Dosen</text>
	<text transform="matrix(1.1916 1.020293e-02 -1.193754e-02 0.9999 40.1424 442.5564)" class="st1 st2 st3">Lab IoT</text>
	<text transform="matrix(1.1916 1.020293e-02 -1.193754e-02 0.9999 34.3801 718.7554)" class="st1 st2 st3">Lab NOS</text>
	<text transform="matrix(1.1916 1.020293e-02 -1.193754e-02 0.9999 155.9655 354.6137)" class="st1 st2 st3">Lab Foresty</text>
	<text transform="matrix(1.1916 1.020293e-02 -1.193754e-02 0.9999 10.0464 761.2955)" class="st1 st2 st5">Arah GSG</text>
	<text transform="matrix(1.1916 1.020293e-02 -1.193754e-02 0.9999 205.1917 35.1352)" class="st1 st2 st5">Arah Parkiran</text>
	<text transform="matrix(1.001901e-02 -0.8391 1 8.563196e-03 74.308 539.6591)" class="st1 st2 st4">Ruang Dosen</text>
	<text transform="matrix(1.0164 1.020293e-02 -1.018187e-02 1 31.3641 398.0088)" class="st1 st2 st6">Ruang Sidang</text>
</g>
</svg>
