<svg id="Layer_1" data-name="Layer 1" xmlns="http://www.w3.org/2000/svg" viewBox="0 0 279.66 784"><defs><style>.cls-1{fill:none;}</style></defs><title>EditDenahSVG2</title><path d="M264.34,5c-3,0-3,0-3,3V9c-.1,11.9-.2,24.1-.4,35.91,0,1.4-.1,2.9,0,4.3a2,2,0,0,0,1.7,1.8c2.61.1,5.32.1,7.92.1,2.21,0,2.21.1,2.21,2.3v1c-.4,40.8-.8,81.41-1.2,122.31v1.5c-.1,1.6-.1,1.7-1.81,1.7-2.41,0-4.81,0-7.22-.1-3.41,0-3.41,0-3.51,3.4-.2,20.61-.4,41.11-.6,61.71v1.5c.1,1.7.4,2,2.1,2,2.31.1,4.52,0,6.82.1a3.42,3.42,0,0,1,3.31,3.4c-.4,39.41-.8,78.71-1.2,118.12,0,3.6.2,3.3-3.51,3.3-23.47-.2-47-.5-70.5-.7-3.21,0-3.21,0-3.31,3.4v1.5l-.8,81.91c-.3,27.4-.5,54.9-.81,82.31v2a1.88,1.88,0,0,1-1.9,1.8c-3.51,0-7-.1-10.53-.1-2.31,0-2.31,0-2.41,2.4l-.6,63c0,2.5.2,2.6,2.71,2.7,3.21,0,6.42.1,9.53.1,2.4,0,2.4,0,2.4,2.6v.5l-1.2,120.61v1.7a1.06,1.06,0,0,1-1.2,1.2h-2.91c-2.31-.1-4.72-.1-7-.1-3.51,0-3.51-.4-3.61,2.3v.5c-.1,14-.3,28-.4,42v1.5a1.06,1.06,0,0,0,1.2,1.2h2c11.74.1,23.37.2,35.11.4l85.84.9c2.91,0,2.91,0,3-3,0-.1,1,0,1,0l.4-40.81c-.1-.5-.1-1-.2-1.5-.1-1.6-.4-1.9-1.9-2-2-.1-3.91,0-5.92-.1-3.81,0-3.51.3-3.51-3.5l1.2-120.31v-1.7c.1-1.6.1-1.7,1.71-1.7,2.41,0,4.91.1,7.42.1a3.58,3.58,0,0,0,3.71-3.2s.4-41.11.6-61.41v-1.3c0-1.9-.1-2-2-2-2.41-.1-4.72,0-7.12-.1-3.92,0-3.11.2-3.21-4.7-.71-39.31.1-78.61,1.2-117.92.1-4.6-.5-4.3,3.31-4.3l84,.9h2c1.8,0,1.9-.1,2-2,.1-3.7.1-7.3.1-11l.3-30c0-2.5,0-2.5-2.5-2.5-3,0-6-.1-9.13-.1-2.61,0-2.61,0-2.71-2.8v-.7c.4-39.81.8-79.61,1.2-119.72v-1.5c.11-1.9.21-1.9,2.11-1.9,3.61,0,7.22.1,10.83.1,2.21,0,2.41-.2,2.51-2.4q.3-31.8.6-63.51c0-2.2,0-2.3-2.21-2.3-3.71,0-7.42-.1-11.13-.1-1.9,0-1.9-.1-2-2v-1c.4-40.6.8-81,1.2-121.61v-1.7c0-.8.4-1.2,1.3-1.2h3c2,.1,3.91.1,5.92.1,4.11-.2,4.11.5,4.21-2.3v-.5c.1-13.41.3-26.81.4-40.21V8.1a1.06,1.06,0,0,0-1.2-1.2h-2c-12-.1-24-.2-35.9-.4C321.9,5.6,293,5.3,264.34,5Zm15.94,410.35c.3.7.2,1.1-.6,1.2a9.77,9.77,0,0,1-1.71,0c-.8,0-1.1-.5-1.2-1.3-.2-1.8,0-2.3,1.51-2.7a1.57,1.57,0,0,0-1-.6c-1-.4-1.5-.1-1.4,1.1v.7c-.2,3.1.2,2.7-3.11,2.8h-.6c-2.61-.2-2.71.1-2.71-2.2.1-6.3.1-12.7.2-19.1v-1.7c0-1.7-.4-2.1-2-2-1.21.2-2.21-.6-3.41-.4a9.58,9.58,0,0,0,3.1,1.4c2.21.8,1,2.7,0,9A24.19,24.19,0,0,0,268,412c.9,3.4.6,4.6-1.21,4.5h-1.5c-22.57-.2-45.23-.5-67.9-.7-3.31,0-3,0-3-3.2l.3-34.5v-1.5c-.1-1,.4-1.6,1.5-1.5h1.51c22.66.2,45.42.5,68.09.7h.5c2.51,0,2.51,0,2.51,2.5a24.3,24.3,0,0,0,0,2.7c.1,1.3-.5,1.8-1.71,2.1a16.18,16.18,0,0,1-4.91.1c-3.11,0-3.71-.2-2.51,3.8.1.3.4.5.6.8-.4-3-.4-3,2.71-3a29.33,29.33,0,0,0,5.12-.3c1.5-.3,1.7-1,1.5-2.7a5.44,5.44,0,0,1,0-1.8c.3-4-.3-4.1,2-4.2h.7c3.51,0,3.51,0,3.81,3.5.1,1.5.1,1.5,1.5,1.1a1.56,1.56,0,0,1-.4-1.6c.1-1,.2-2,.2-3,0-.5-.4-1.3-.2-1.7.5-.6,1.41-.3,2.11-.2,1.7,0,3.41,0,5.21.1.71,0,1.21.3,1,1.1a11.41,11.41,0,0,0-.41,3.7,1.23,1.23,0,0,1-1.4,1.3c.2.4.6.5,1,.7.91.4,1.41.1,1.51-.9v-.5c.2-3.3.2-3.3,3.41-3.3l89.55.9c3.61,0,3.31-.2,3.21,3.5l-.3,33.9v1.5c-.1,1.7-.1,1.7-1.9,1.8H379l-89.85-.9h-.71c-2.5,0-2.5,0-2.5-2.5,0-.8.4-1.9-.4-2.3a2.1,2.1,0,0,0-2.51,1.2c.7.2,1.6-1.1,1.9.6s-.1,2.7-1,2.9c-1.3.3-2-.1-2.41-1.5-.9-.9-1.3-2.4-2.9-2.6C278.78,413.65,279.88,414.15,280.28,415.35Zm7-40.6c.1-.9,1.2-.5,1.81-.6a3.4,3.4,0,0,1,1,.1c.4.1.8.3.7.8s-.3.5-.7.6a3.75,3.75,0,0,1-1,.1C288.4,375.45,287.2,376,287.3,374.75ZM273,417.05c.8.2,2.11-.3,2.11.8s-1.21.7-2,.7-2,.4-2-.8S272.36,417.35,273,417.05Zm-2.71,13.4c0,.5-.1,1.1-.7,1.1s-.7-.6-.7-1.1c0-3.4.1-6.8.1-10.2a8,8,0,0,1,.3-1.5c.1-.5.1-1.2.7-1.1s.3.8.3,1.3c0,1.8,0,3.7-.1,5.5h0C270.25,426.55,270.25,428.45,270.25,430.45ZM195,460.86c-2.71,0-2.71,0-2.71-2.8.1-12.8.3-25.71.4-38.61V418c0-.8.4-1.3,1.2-1.3h2c23.07.2,46.23.5,69.3.7,1,0,2.1-.6,2.91.6-.91.7-1.81.4-2.71.4-22.77-.2-45.53-.5-68.3-.7-3.51,0-3.31-.2-3.31,3.4l-.3,34.81v2a1.23,1.23,0,0,0,1.41,1.4h1.7c23,.2,46,.5,69,.7,3.11,0,3.11,0,3.11-3.1,0-3.3.1-6.7.1-10a9.7,9.7,0,0,1,.1-1.7c0-.2.3-.4.5-.5a.51.51,0,0,1,.7.5,9.7,9.7,0,0,1,.1,1.7c0,3.9-.1,7.8-.1,11.8,0,2.8,0,2.8-2.71,2.8-12.13-.1-24.26-.3-36.4-.4S207.07,461,195,460.86Zm74.21,1.4c.5,0,.6.4.7.9,0,1.7,0,3.5-.1,5.2s0,3.5-.1,5.2c0,.5-.2.9-.7.9s-.6-.4-.7-.9c0-3.5.1-6.9.1-10.4C268.55,462.66,268.75,462.26,269.25,462.26ZM195.64,504h-1.4c-2.21-.1-2.21-.1-2.21-2.3.1-12.7.2-25.4.4-38.1a7.57,7.57,0,0,1,.1-1.5.4.4,0,0,1,.5-.4c.1.1.3.2.3.3a26.7,26.7,0,0,1,0,4,129.67,129.67,0,0,0-.3,30.5c.1,1.3,0,2.5.1,3.8,0,2.3.2,2.5,2.51,2.6l29.78.3c13.14.1,26.38.3,39.62.4h1.2c2,0,2.11-.1,2.11-2.1,0-3.8.1-7.7.1-11.5,0-.7-.4-2.1.6-2.1,1.3,0,.8,1.4.8,2.2,0,4,0,8-.1,12,0,2.5,0,2.5-2.41,2.5-12.13-.1-24.27-.3-36.4-.4C219,504.16,207.37,504.06,195.64,504Zm73.11,1.1c.7,0,.7.5.7,1.1,0,1.7,0,3.5-.1,5.2h0v4.91c0,.5-.1.9-.7.9a.71.71,0,0,1-.7-.8c0-3.51.1-6.91.1-10.41C268.15,505.56,268.25,505.06,268.75,505.06ZM191.53,544c0-4.7.1-9.5.1-14.3.1-7.7.2-15.41.2-23.11,0-.6-.2-1.7.4-1.7,1,0,.6,1.2.6,1.8-.1,12-.2,24.11-.4,36.11,0,3.5-.2,3.3,3.21,3.7h68.8a2.39,2.39,0,0,0,.7.3c2.51,0,2.51,0,2.51-2.4,0-3.5.1-7,.1-10.5v-1.5c0-.5-.1-1.3.7-1.3s.6.8.6,1.4c0,4.6-.1,9.2-.1,13.8,0,1.1-.4,1.7-1.61,1.7a4.77,4.77,0,0,1-2-.4h-35.4c-11.84-.1-23.77-.2-35.6-.4C191.43,547,191.43,547.17,191.53,544ZM178,612.48c-2.31,0-2.41,0-2.31-2.4.1-9.1.5-27.31.5-27.31l1-3.7v-29.8a5.35,5.35,0,0,1-.91-2c0-.9.41-1.4,1.31-1.4,3.91,0,7.82.1,11.83.1.3,0,.7,0,.7.5s-.4.5-.7.5c-2.71,0-5.41-.1-8.12,0a16.3,16.3,0,0,0-2.21,0c-1.5.1-1.8.4-1.9,2,0,.5.1,1.5.1,1.5v57.61s-.81.9-.7,1.3c0,2,.3,2.3,2.3,2.3,2.91.1,5.72.1,8.63.1a9.85,9.85,0,0,1,1.7.2.45.45,0,0,1,.3.3.32.32,0,0,1-.3.3,7.08,7.08,0,0,1-1.4.1C184.51,612.58,181.2,612.58,178,612.48ZM263,561c-.8,7.7,1.31,5.8-5.31,6.4h-.3c-1.21-.3-2.11.1-1.91,1.1.2,1.2.2,2.5,1.4,3.3-.9-3.5-.9-3.4,2.61-3.5,1.41-.1,2.91.6,4.21-.2.51-.3.91.2.91.8v5c0,.5-.3.6-.81.7a6.36,6.36,0,0,1-3.81-.5,4,4,0,0,0-1.8-.7c.6,1.3,1.9,1.4,3.11,1.8a2.12,2.12,0,0,1,1.1,3,.89.89,0,0,1-1,.6,13.49,13.49,0,0,1-2,0c-26.27-.3-52.55-.5-78.82-.8-3.31,0-3.11.2-3.11-3.4.1-7.8.2-15.7.2-23.5v-1.5c.1-1.5.2-1.6,1.8-1.7h1.41c26.17.3,52.35.5,78.52.8,4.41,0,2.71-.4,3.31,7.7A10.36,10.36,0,0,1,263,561Zm1.41-12c.2,0,.5.2.5.4a4.87,4.87,0,0,1,.1,1.2c0,4.7-.1,9.3-.1,14,0,.6.2,1.6-.7,1.6s-.71-.9-.71-1.6c0-2.3,0-4.7.1-7s0-4.5.1-6.7c0-.5.1-1,.1-1.5A.84.84,0,0,1,264.44,549Zm-7.22,36.5c-1.91,0-2,.4-1.31,2.5,0-.9.2-1.4,1.31-1.5,2.3-.1,4.61.3,6.81-.2.51-.1.71.3.71.7,0,2,0,3.9-.1,5.91a.09.09,0,0,1-.1.09h-3.91c3,1.61,1.3.71,2.2,10.31v.5c-1.1,8.1.6,8.2-2.51,8.3-5.41-.1-10.83-.1-16.14-.2q-31.89-.3-63.58-.7c-3.11,0-3.11,0-3-3.2.1-8.1.2-16.21.2-24.31V582c0-.9.5-1.3,1.4-1.3h1.71c26.27.3,52.55.5,78.82.8h1c2,.1,2.1.2,2,2.2-.1,1.6-.1,1.7-1.7,1.8C259.92,585.47,258.52,585.37,257.22,585.47Zm6.71,9.11c.21,0,.51.2.51.4a4.87,4.87,0,0,1,.1,1.2c0,4.7-.1,9.3-.1,14,0,.6.2,1.6-.71,1.6s-.7-.9-.7-1.6c0-2.3,0-4.7.1-7s0-4.5.1-6.7c0-.5.1-1,.1-1.5A1.06,1.06,0,0,1,263.93,594.58Zm-.5-10.51v-7.4c0-.4.3-.6.71-.6s.7.3.6.6c0,2.5,0,4.9-.1,7.4,0,.4-.3.6-.71.6C263.73,584.67,263.53,584.47,263.43,584.07Zm-17.75-3.4-25.77-.3c-13.14-.1-26.38-.3-39.51-.4a19.42,19.42,0,0,1-2.41-.2.7.7,0,0,1-.4-.5c0-.2.2-.5.4-.5a19.35,19.35,0,0,1,2.41-.1c23,.2,45.83.5,68.69.7,3.61,0,7.22.1,10.83.1h1.21c.6.1,1.6-.2,1.6.7s-.9.7-1.6.7C256,580.77,250.8,580.67,245.68,580.67Zm-52.15,75.71h-.7c-3-.1-1.9-.1-2.31-6a245.1,245.1,0,0,1,.31-33.3c.4-5.6-.71-5.7,2.6-5.7,12.14.1,24.27.3,36.41.4h0c11.83.1,23.56.2,35.4.4h1.7c1.61.1,1.61.2,1.71,1.8,0,3.7-.1,7.4-.1,11.1v.5c-.1.5-.1,1.1-.8,1-.51-.1-.61-.5-.61-.9,0-2.4,0-4.8-.1-7.2a14.08,14.08,0,0,1,.1-2.9c.1-1.3-.4-1.9-1.6-1.9h-1.71c-23-.2-45.83-.5-68.79-.7-3.11,0-3.11,0-3.11,3.1-.1,11.8-.2,23.6-.3,35.3v1.8a1.75,1.75,0,0,0,1.7,1.7h1.41c23,.2,46,.5,69,.7h.51c2.4,0,2.5,0,2.5-2.5,0-3.8.1-7.5.1-11.4,0-.6-.2-1.6.7-1.6s.71,1,.71,1.6c0,4.5-.1,8.9-.1,13.4,0,1.9-.1,1.9-2,1.9-11.93-.1-23.87-.2-35.8-.4a3.29,3.29,0,0,1-1.71-.3c-.8-.5-1.4-.9-2.2-.2a.31.31,0,0,1-.2.1c-2.11-.8-4.32.4-6.42.3C211,656.58,202.26,656.48,193.53,656.38Zm-.5,42.71h-1.7c-.91,0-1.31-.5-1.31-1.4v-1.3c.1-12.4.2-24.91.4-37.31,0-.7-.4-2.1.51-2.1s.4,1.3.4,2.1c-.1,11.5-.2,23.11-.3,34.51v2c.1,1.6.4,1.9,1.9,2a6.63,6.63,0,0,0,1.41,0c23,.2,45.83.5,68.69.7a3.12,3.12,0,0,0,3.11-3.1c0-3.3.1-6.7.1-10,0-.6.1-1.1.1-1.7a.54.54,0,0,1,.5-.5.51.51,0,0,1,.7.5,6.89,6.89,0,0,1,.11,1.5c0,4.1-.11,8.4-.11,12.5,0,2.3-.1,2.3-2.4,2.3-12.24-.1-24.37-.3-36.61-.4Zm-3.41,40.4a13.35,13.35,0,0,1,0-2c.1-5.8.1-11.7.2-17.5s.1-11.4.2-17v-2c0-.3.1-.8.4-.8.61-.1.51.5.51.9a9.65,9.65,0,0,1,0,1.7l-.3,26.7c0,2.7-.11,5.5-.11,8.3a9.7,9.7,0,0,1-.1,1.7c0,.3-.1.5-.5.5C189.72,740.09,189.62,739.79,189.62,739.49Zm80.33,0c-1.9,0-1.9-.1-1.9-2,0-4.1.1-8.1.1-12.2,0-2,0-1.9-1.91-2.5a17.19,17.19,0,0,0-3.91-.3,1.84,1.84,0,0,1-1.6-.5c-.71.7-.61,1.3.3,1.4a9.42,9.42,0,0,0,2.9.1c1.51,0,2,.6,1.31,3.3,0,3.2-.1,6.2-.1,9.3.6,2.3.4,3.4-1,3.4h-1.91c-22.26-.2-44.43-.5-66.79-.7-3.41,0-3.11.2-3.11-3.3l.3-33.9v-1.5c-.1-1.1.4-1.7,1.61-1.6h1.7c22.26.2,44.43.5,66.79.7,3.81,0,3-.3,3.11,4.7v4c-.1,4.3.4,4.3-2.51,4.3h-.5c-.8.1-1.7-.4-2.2.6a2,2,0,0,0,.8,2.4c-.1-1.3.7-1.5,1.7-1.5a11.49,11.49,0,0,0,4.11-.4c.81-.3.61-1.4.61-1.4s0-1.5.7-1.5l.3-25.8a3.81,3.81,0,0,1-.1-1.5,1.44,1.44,0,0,0-1.21-1.6,17.39,17.39,0,0,0-3.91-.5c-.8,0-1.6.3-2.3-.5-.7.7-.6,1.3.3,1.4a10.13,10.13,0,0,0,3,.1c1.5,0,2,.6,1.3,3.3-.1,3.1-.1,6.1-.2,9.2.7,2.4.5,3.6-1,3.6a2.71,2.71,0,0,1-1.71-.4l-67.89-.7c-3.21.3-3.21.5-3.11-2.8.1-11.5.2-22.91.3-34.41v-1.7c0-.9.4-1.4,1.3-1.4h1.21l26.07.3c.7,0,1.41-.1,1.91.4a3.75,3.75,0,0,1,1.1-.1c.1,0,.3.1.4.1l-.1-.1a.6.6,0,0,1,.4-.1c.1,0,.1.1.2.1a.6.6,0,0,1-.4.1,3.4,3.4,0,0,0,1,.1c.21,0,.51.1.71.1l.3.1a11.27,11.27,0,0,1,1.8.3c.5-.9,1.31-.9,2.21-.8,6.22.1,12.33.1,18.45.2,5,.1,10,.1,15,.2,2.21,0,2.21.1,2.11,2.3,0,2.8-.1,5.7-.1,8.5,0,2.1-.1,2.1-2.11,2.2h-1c-.8.1-1.8-.4-2.21.6a2,2,0,0,0,.81,2.41c0-1.91,0-1.91,1.9-2a10.85,10.85,0,0,0,3.11-.2c1.81-.4,1.91-.3,1.91-2.2,0-4.1.1-8.2.1-12.3.1-5.4.1-10.9.2-16.3,0-2,0-1.9-1.91-2.5a17.15,17.15,0,0,0-3.91-.3,1.84,1.84,0,0,1-1.6-.5c-.71.7-.61,1.3.3,1.4a10.13,10.13,0,0,0,3,.1c1.5,0,2,.6,1.3,3.3-.1,3.1-.1,6.1-.2,9.2.7,2.4.5,3.6-1,3.6-.51,0-1.41.1-1.41.1s-45.53-.5-68.19-.7h-1c-1.8-.1-1.9-.2-1.9-2.1.1-5.4.1-10.7.2-16,.1-6.7.1-13.3.2-20.1,0-2.4,0-2.4,2.31-2.4,23.06.2,46.23.5,69.29.7,2.11,0,2.21.1,2.11,2.3,0,2.8-.1,5.7-.1,8.5,0,2.1-.1,2.1-2.11,2.2h-1c-.8.1-1.8-.4-2.2.6a2,2,0,0,0,.8,2.4c0-1.9,0-1.9,1.6-2a26.87,26.87,0,0,0,4-.2,1.69,1.69,0,0,0,1.31-1.6l.1-13.1c0-1.2-.5-1.7-1.61-1.6a4.87,4.87,0,0,1-1.2-.1,1.06,1.06,0,0,1-1-1.2v-1.7c.2-19.21.4-38.31.6-57.51v-1.3c-.1-1,.3-1.5,1.4-1.6,2.51-.2,2.61-.3,2.61-2.8,0-4.7.1-9.4.1-14,0-2.1-.4-2.6-2.51-2.7a24.32,24.32,0,0,0-2.7,0c-1.61,0-1.61,0-1.61-2a2.55,2.55,0,0,0-.9,1.5c-.2.9.1,1.5,1,1.6a12.28,12.28,0,0,0,2.71,0c1.2,0,1.7.5,1.4,2.3,0,3.5-.1,7-.1,10.5.3,1.7.1,2.8-1.3,2.7h-1.41c-22.66-.2-45.22-.5-67.89-.7-3,0-3,0-3-3,.1-11.4.2-22.7.3-34.11v-1.3c.1-1.6.1-1.7,1.71-1.8h.3l27.28.3c1,0,1.6.2,1.7,1.2a2.77,2.77,0,0,1,.9-.1h0s.71.9,1,.8a2,2,0,0,1,.7-.1c0-.1,0-.1.1-.2.1.1.1.5.1.5h.1a6,6,0,0,1,1.81-.6.75.75,0,0,1,.5.1,1.59,1.59,0,0,1,1.2-.4c2.21,0,4.41,0,6.62.1l26.27.3a11.12,11.12,0,0,1,1.71-.3c1.2-.1,1.6.6,1.6,1.7,0,3.1-.1,6.3-.1,9.51,0,1.7-.1,1.7-1.9,1.8a24.55,24.55,0,0,0-2.71.1c-.9.2-.9.8-.3,1.4a1.66,1.66,0,0,1,1.3-.5h2.41c3.31-.1,3.61-.4,3.61-3.7.1-9,.2-18,.3-26.91,0-2.9-.2-3.1-2.91-3.4-.9-.1-1.8,0-2.71-.1-1.2-.1-1.4-.5-.8-1.6a4.28,4.28,0,0,0,.5-1.3,2,2,0,0,0-1.1.9c-.4.9-1.1,1.8-.7,2.8s1.6.8,2.41.8c2.7.1,2.7.1,2.7,2.8,0,3.6-.1,7.1-.1,10.8,0,1.9-.1,2-2,2-11.84-.1-23.57-.2-35.4-.4a2.83,2.83,0,0,1-1.51-.3c-.5.2-1.4-.3-1.4-.3h-1.11a3,3,0,0,1-1-.2,4.51,4.51,0,0,1-1.1-.3c-.1,0-.1,0-.1-.1a1.82,1.82,0,0,1-1.41.5c-4.91-.3-9.72-.2-14.64-.2-3.61,0-7.32-.1-11-.1-2.31,0-2.31-.1-2.21-2.4.11-10,.21-20.1.31-30.2,0-1.7,0-3.5.1-5.3.1-2,.1-2,2.2-2h1c22.36.2,44.62.5,67,.7,3.51,0,2.9,0,2.9,4.2,0,1.7,0,3.3-.1,5-.1,3.8.21,3.8-2.6,3.8a12.18,12.18,0,0,0-1.91,0c-.9.2-.9.8-.3,1.4a1.54,1.54,0,0,1,1.3-.5h2.41c3.21-.1,3.61-.4,3.61-3.7.1-8.9.2-17.9.3-26.8,0-2.9-.2-3.1-2.91-3.4-.9-.1-1.8,0-2.7-.1-1.21-.1-1.41-.5-.81-1.6a4.34,4.34,0,0,0,.51-1.3,2,2,0,0,0-1.11.9c-.4.9-1.1,1.8-.7,2.8s1.5.7,2.41.8c2.71.1,2.71.1,2.71,2.8,0,3.6-.11,7.1-.11,10.7,0,1.9-.1,1.9-2,2a26.6,26.6,0,0,1-5.62-.4l-61.67-.6a2.58,2.58,0,0,1-1.41.3c-2.4,0-2.5,0-2.4-2.5l.3-35.11a2.78,2.78,0,0,1,2.8-2.7l64.09.7c1.6,0,3.21,0,4.91.1,1.31,0,1.61.7,1.31,2.4v8.8c.1,1.3-.41,1.8-1.51,1.8h-2.2c-1.61,0-1.91.5-1.41,2a1.69,1.69,0,0,0,.7,1c-.1-1,.4-1.5,1.41-1.5a16.38,16.38,0,0,0,3.81-.3,1.74,1.74,0,0,0,1.6-2c0-3,.1-6,.1-9v-1.7c0-.9.5-1.3,1.41-1.3h2.2c.81,0,1.61,0,2-1a1.68,1.68,0,0,1,1.8-1c1.81,0,3.61,0,5.32.1.6,0,1.3,0,1.2.8-.1,1.2.5,1.2,1.31,1.2h2.7c1,0,1.51.4,1.51,1.5a9.34,9.34,0,0,0,.2,2.3l-1.2,121.62c-.2,3.8-.2,3.8,3.31,3.8,2.2,0,4.41,0,6.51.1,1.91,0,2,.1,2,2.1v1l-.5,56.11a3,3,0,0,1-3.11,3l-6.32-.1c-2.71,0-2.71,0-2.81,2.9v1.5q-.6,60.75-1.2,121.41c0,3.5.2,3.3-3.11,3.3A74.88,74.88,0,0,0,270,739.49Zm-2.71-.2c0,.5.1,1.2-.6,1.3s-.6-.7-.7-1.1v-1.1c0-2.9.1-5.7.1-8.6v-.9c.1-.5-.2-1.4.6-1.5s.6.8.7,1.4c.1,1.2-.3,2.5.71,3.5a8.67,8.67,0,0,0-.71,1.7h0C267.24,735.69,267.24,737.49,267.24,739.29Zm-.4-38.5c.5,0,.6.4.6.9,0,3.5-.1,6.9-.1,10.4,0,.5-.2.9-.7.9s-.6-.4-.6-.9c0-1.8,0-3.7.1-5.5v-4.9C266.24,701.19,266.44,700.79,266.84,700.79Zm-39.41-43.41a.6.6,0,0,0,.1.4.6.6,0,0,1-.4-.1.14.14,0,0,1,0-.2C227,657.38,227.23,657.28,227.43,657.38Zm39.81.3c.51,0,.61.4.61.9,0,3.5-.1,6.9-.1,10.4,0,.5-.21.9-.71.9s-.6-.4-.6-.9c0-1.7,0-3.5.1-5.2s0-3.5.1-5.2C266.64,658.08,266.84,657.68,267.24,657.68ZM268.45,487l-.2-.1.2-.1Zm1-43.1v-.2l.2.1ZM273.66,742c2,0,4.11,0,6.12.1,1.6.1,1.8.4,1.4,1.8a12.41,12.41,0,0,0-.3,2.7c-.1,1.8-.1,1.8-2,1.5.4,1.2,1.6,1,2.5,1.2.61.1.91-.5.91-1a20.9,20.9,0,0,0,.1-2.5c-.1-1.4.7-1.9,2.6-1.5a29.28,29.28,0,0,0,10.64.1c2-.3,3,0,2.9,1.5v1.5c-.1,12.11-.2,24.21-.4,36.31v1.7a1.43,1.43,0,0,1-1.4,1.4H295l-116.13-1.2a3,3,0,0,1-3-3.2c.1-12.1.2-24.2.4-36.31v-1.7c0-.9.51-1.3,1.41-1.3h1.4l89.66.9h1.4c.9,0,1.31.5,1.31,1.4v2.7c0,1.1.4,1.2,1.4,1a4.23,4.23,0,0,0,3-2c.7-1.1,1.2-.5,2-.1l-.3-1.2c-.3-.6-.5-1.2-.8-1.8-.6.4-.3,1.2-.7,1.7a7.1,7.1,0,0,1-1,1.4c-.51.6-1.31,1.3-2,1s-.4-1.3-.4-2a21.05,21.05,0,0,0-.2-2.5C272.16,742.09,272.26,742.09,273.66,742ZM382.17,375.15c2,0,2,.1,2.11,2.2-.1,9-.2,18-.3,27.1,0,4.4-.1,8.9-.1,13.3,0,1.9-.1,2-2,2.1h-2l-82.64-.9h-1.5c-3,0-3,0-3,3-.4,40.81-.81,81.51-1.21,122.32,0,3.1,0,3.1,2.91,3.1,2.51,0,5.22.1,7.72.1,1.61,0,1.71.2,1.71,1.8v1.5c-.2,20-.4,40.1-.6,60.11v1c-.1,2.2-.1,2.2-2.21,2.2-2.81,0-5.62-.1-8.42-.1-1.61,0-1.61.1-1.71,1.7a13.35,13.35,0,0,0,0,2q-.3,30.6-.6,61.11l-.6,60.9c0,.9-.3,2.1,0,2.7.6.9,2.2.2,3.11.4a11.16,11.16,0,0,0,4.81.1c1.81-.4,2.61.1,2.51,1.6V746c-.1,13.31-.3,26.51-.4,39.81v1.7c0,.9-.5,1.3-1.41,1.3h-1.7L177,787.6c-3.21,0-3,0-3-3.2.1-13.2.3-26.4.4-39.61v-1.7c0-1,.4-1.6,1.5-1.5h1.71l90.16.9c.8,0,2.4-.6,2.5.6.1.7-1.6.4-2.4.4l-89-.9c-3.51,0-3.51,0-3.61,3.6-.1,12.31-.2,24.51-.4,36.81v1.5c0,1.7.3,2.1,1.91,2.2h1.4l116.93,1.2c3.41,0,3.41,0,3.41-3.4.1-12.5.2-25.1.4-37.51v-.5c0-2.5,0-2.5-2.4-2.6-3.61,0-7.22-.1-10.83-.1H284c-.4,0-1,.1-.9-.5s.7-.4,1-.5c1.21-.1,2.71.6,3.51-.4.5-.7.1-2.3.1-3.4q.6-61.2,1.21-122.51c0-3.8-.2-3.5,3.51-3.4,2.2,0,4.41.1,6.61.1,1.81,0,2.11-.3,2.21-2.2.1-1.3,0-2.5,0-3.7.2-18.21.4-36.41.5-54.61V551c0-2.2,0-2.2-2.2-2.3-2.71,0-5.52-.1-8.23-.1-1.9,0-1.9-.1-1.9-2v-2q.6-60.32,1.2-120.72v-1.5c0-2.4.6-3.2-2.71-3a1.48,1.48,0,0,1-.7-.1c-.5-.1-.8-.3-.8-.7s.5-.6.9-.7h2.21l89.85.9c3.61,0,3.41.3,3.41-3.3l.3-34.8v-1.3c0-2.1-.1-2.1-2.1-2.2-2.71,0-5.52-.1-8.22-.1-.71,0-1.81.3-1.91-.6-.1-1.3,1.2-.8,1.91-.8A37.74,37.74,0,0,1,382.17,375.15Zm-12.33-40.61a9.7,9.7,0,0,1,.1,1.7c-.1,12.5-.2,25.11-.4,37.51v.7c-.1,1.7-.1,1.7-1.91,1.8-.6,0-1.7-.9-1.7-.9H295.22a11.14,11.14,0,0,1-1.7.2c-1,.1-1.61-.4-1.51-1.4,0-4.4.51-13.3.51-13.3v-.3s-.3-.7.2-.7c.1,0,.3.3.3.5a4.85,4.85,0,0,1,0,1.7c0,3.1-.1,6.3-.1,9.5,0,2.3,0,2.3,2.3,2.4l29.79.3h39.81a3.64,3.64,0,0,0,2,.4,1.27,1.27,0,0,0,1.4-1.4v-2l.3-34.81a19.53,19.53,0,0,1,.2-2.3.54.54,0,0,1,.51-.5C369.54,334,369.84,334.14,369.84,334.54Zm.5-42.6a4.85,4.85,0,0,1,0,1.7c-.1,12.4-.2,24.9-.4,37.3,0,2.7,0,2.7-2.61,2.6-7.82-.1-15.75-.2-23.57-.2l-12.73-.1c-11.84-.1-23.77-.2-35.61-.4h-1.7a1.22,1.22,0,0,1-1.4-1.4c0-4.5.1-9,.1-13.5,0-.3.1-.8.4-.8.6,0,.5.5.5.9,0,3.1-.1,6.3-.1,9.5,0,4.4-.4,3.6,4.71,3.8,21.66.2,43.33.5,65,.7,5.61-.2,5.41.9,5.51-3.3l.3-34.8a18.48,18.48,0,0,1,.1-2.3c0-.4.31-.6.71-.6C370.14,291.34,370.34,291.64,370.34,291.94Zm-1.81,2.4-.3,33.9v1.3c-.1,2.1-.1,2.1-2,2.2H365c-22.56-.2-45.13-.5-67.79-.7-3.41,0-3.11.2-3.11-3.3,0-2.9.1-5.9.1-8.8,0-2.4,0-2.4,2.31-2.4h1.2c1.91,0,2.31-.7,1.71-2.5-.3-.6-.51-1.3-1.21-1.5.91,3,.91,3-2.1,3h-1.41c-2.4.2-2.81.5-2.81,3-.1,9.2-.2,18.4-.3,27.5,0,2.5.4,2.9,2.81,3h1.21c3.3,0,3.3,0,2.3,3,.9-.3,1.1-1.2,1.41-2,.4-1.4,0-1.9-1.51-2.1-1.1-.1-2.51.4-3.31-.4s-.4-2.4-.4-3.6c0-2.9,0-5.9.1-8.8,0-1.6.1-1.7,1.71-1.7h1.4c22.56.2,45.23.5,67.79.7,3.41,0,3.21-.2,3.21,3.3-.1,11.4-.2,22.81-.3,34.11v1.5c-.1,1.5-.1,1.6-1.8,1.7h-1.41c-22.56-.2-45.23-.5-67.79-.7-3.21,0-3.11.2-3.11-3.1s.1-6.3.1-9.6c0-1.7.1-1.8,1.81-1.9h2c1.41-.1,1.91-.6,1.51-2.11a7,7,0,0,0-1.71-2.7c-1-1-1-1,0-2.3a7.84,7.84,0,0,0-1.4.5c-.71.3-1.41.5-2,.7.5.6,1.3.6,1.91.9a6.1,6.1,0,0,1,2.7,2.8c.31.6,0,1-.6,1.11a19.22,19.22,0,0,1-2.4,0,16.28,16.28,0,0,0-2.21.1c-1.61.3-1.81.6-1.81,2.4,0,3.2-.1,6.3-.1,9.6,0,3.6.3,3.4-3.31,3.4-4.71,0-9.52-.1-14.24-.1-2,0-2-.1-2.1-2.1v-2q.6-60,1.2-119.92c0-3.6.3-3.5-3.21-3.5-2.3,0-4.61,0-6.92-.1-1.1,0-1.7-.4-1.6-1.6V243c.2-19.2.4-38.3.6-57.51,0-3.3-.2-3.2,3.11-3.1,2.41,0,4.71,0,7.12.1,1.1,0,1.7-.4,1.6-1.6v-2.3q.6-62.1,1.21-124.21c0-3.7-.3-3.4,3.31-3.4,4.61,0,9.12.1,13.74.1,2.5,0,2.6,0,2.6,2.6-.1,12.6-.2,25.1-.4,37.6-.3,28.8-.6,57.51-.8,86.31v1.3c-.1,1.1.4,1.7,1.6,1.7h.71c1.5.1,1.6.2,1.6,1.8v1.3c-.1,7.2-.1,14.4-.2,21.71a42.7,42.7,0,0,1,.4,7.9v5.3a2.33,2.33,0,0,0,0,2V241s-.7.7-.7,1c-.1,2-.1,2-2.11,2.1-1.8.1-1.8.2-1.8,1.9-.1,4.6-.1,9.2-.1,13.8a1.81,1.81,0,0,0,1.5,2.1,28.73,28.73,0,0,0,4.11.4c.71,0,1.51-.1,1.71,1,.6-1.7.5-1.9-.8-2a16.28,16.28,0,0,0-2.21,0c-1.81-.1-1.91-.2-1.91-1.8,0-3.7.1-7.3.1-11,0-1.1.41-1.7,1.61-1.7h1.4c22.67.2,45.33.5,68,.7,3.41,0,3.11-.2,3.11,3.4-.1,11.4-.2,22.7-.3,34.11v.7c0,2.4,0,2.4-2.31,2.4h-1c-22.57-.2-45.13-.5-67.8-.7-3.41,0-3.11.2-3.11-3.3,0-2.9.1-5.91.1-8.81,0-2.4,0-2.4,2.31-2.4h1.2c1.91,0,2.31-.7,1.71-2.5-.3-.6-.5-1.3-1.2-1.5.9,2.9.9,2.9-2.21,3h-1.4c-2.41.2-2.71.5-2.81,3l-.3,27.61c0,2.3,0,2.3,2.1,2.8a25.68,25.68,0,0,0,3.91.2c1.11.1,1.41.5.81,1.4a25.85,25.85,0,0,1-2,2.5c1.7-.3,2.41-1.6,2.91-3s0-1.9-1.41-2a16.13,16.13,0,0,0-2.2,0c-1.51-.1-1.61-.2-1.61-1.8,0-3.7.1-7.3.1-11,0-1.1.4-1.7,1.61-1.7a13.35,13.35,0,0,0,2,0c22.47.2,45,.5,67.5.7C368.83,290.94,368.63,290.74,368.53,294.34Zm-75.61,39.1c.4.1.4.5.4.8,0,2,0,4-.1,5.9s0,3.8-.1,5.7c0,.3,0,.7-.4.8s-.5-.3-.5-.7c0-4,.1-8,.1-12C292.42,333.84,292.42,333.34,292.92,333.44ZM369.14,52.21c1.1-.1,1.6.4,1.6,1.6-.1,12.4-.2,24.9-.4,37.3,0,1.2-.5,1.7-1.61,1.6h-1.4c-22.66-.2-45.33-.5-68.09-.7-3.31,0-3,.1-3-3.2,0-2.9.1-5.8.1-8.8,0-2.5,0-2.5,2.4-2.5h1.71c1.3-.1,1.4-.3.8-2-.1.9-.7.9-1.4,1-1.41.1-2.91-.2-4.32.3-.7.3-1-.3-1-.9,0-2.7.1-5.5.1-8.2,0-.5.1-1.1.9-.9a26,26,0,0,0,4.82.3c.9.1,1.2.5.7,1.3a5.82,5.82,0,0,1-3.91,3.1c-.2.1-.5.2-.7.3.2.1.4.3.6.4a3.13,3.13,0,0,0,1.9.4c-.4-.7.1-1,.61-1.4a5.8,5.8,0,0,0,2.3-3.1c.3-1.3,0-1.9-1.4-2-.9-.1-1.81,0-2.71-.1s-1.2-.5-1.2-1.3c0-4,.1-8,.1-12,0-.9.5-1.2,1.3-1.2h1.41c22.86.2,45.63.5,68.49.7Zm-74.22,42.4c.5,0,.6.4.6.9,0,3.4-.1,6.8,0,10.2a9.7,9.7,0,0,1-.1,1.7c0,.5-.2.9-.7.9s-.6-.4-.6-.9c0-2.1,0-4.1.1-6.2,0-1.9,0-3.8.1-5.7C294.22,95,294.42,94.61,294.92,94.61Zm4.42,69.21c1.2-.1,1.6-.6,1.4-1.7-.2-.9-.4-1.8-1.4-2.2.7,2.5.7,2.5-2,2.5a11.06,11.06,0,0,0-2.61.2c-.8.3-1.3-.2-1.2-1.1,0-2.5,0-5,.1-7.4,0-.9.5-1.2,1.3-1,1.21.5,2.51.2,3.91.3s1.41.1,1,1.5c-.1.3-.1.7-.3.9.9-.3,1.1-1.2,1.4-1.9.4-1.4,0-1.9-1.5-2.1-1.11-.1-2.51.4-3.31-.4-1-.9-.3-2.5-.4-3.7a20.63,20.63,0,0,1-.1-3.6c.4-6.3-.71-6.3,2.8-6.3,6.52.1,12.94.1,19.36.2,1.7,0,3.41,0,5.21.1a2.33,2.33,0,0,1,1.41.4c.2,0,.4-.1.6-.1h.1c.2,0,.5-.1.7-.1v-.1c0-.1.1-.1.2-.1s.3,0,.3.1a8.93,8.93,0,0,1,2.31,0,3.19,3.19,0,0,1,1.4.3,1.36,1.36,0,0,1,1.21-.5h1.4c11.43.1,22.77.2,34.1.4h.3c2.91,0,2.91,0,2.81,2.8-.1,5.8-.1,11.7-.2,17.5s-.1,11.4-.2,17c0,2.7,0,2.7-2.51,2.6-23.07-.2-46.13-.5-69.3-.7h-1.2c-1.41,0-1.41-1.4-.6-3.4a11,11,0,0,0-.1-7.8c-.71-2-.21-2.8.9-2.8A8.46,8.46,0,0,0,299.34,163.82Zm-4.82.1-.2-.1.2-.1Zm.7-25.2c0,2,0,4-.1,5.9s0,3.8-.1,5.7c0,.5-.1,1.1-.8.9-.5-.1-.6-.5-.6-.9,0-3.9.1-7.8.1-11.7,0-.5.1-1.1.8-.9S295.22,138.32,295.22,138.72ZM342,212.13c13.13.1,26.37.3,39.51.4a19.74,19.74,0,0,1,2.41.2c.1,0,.4.4.3.6s-.2.5-.4.5a9.26,9.26,0,0,1-1.71.1q-40.47-.45-81-.8h-.7c-.5-.1-1.31.1-1.31-.7s.71-.7,1.21-.7h.5C314.58,211.83,328.32,211.93,342,212.13Zm-43.53.3v2.9c0,.2-.2.5-.4.5a.4.4,0,0,1-.5-.4c0-2.1,0-4.3.1-6.4,0-.2.1-.5.5-.4a.66.66,0,0,1,.4.5C298.43,210.33,298.43,211.33,298.43,212.43Zm82.84,32.8c-26.38-.3-52.65-.5-79.13-.8h-1.4c-1.2.1-1.6-.6-1.6-1.7,0-3.6.1-7.1.1-10.8,0-1.8,0-3.7.1-5.5s.1-2,1.9-2.1H304c1.9,0,2-.4,1.3-2.5,0,.8-.2,1.5-1.3,1.5h-.5c-4.11.2-4.92-.7-4.11-5,.1-.9.6-1.1,1.4-.8a8.26,8.26,0,0,0,2,.8c-.41-1-1.41-1.3-2.41-1.6-1.2-.3-1-1.1-1-1.9s.7-1,1.4-1h1.4c26.38.3,52.65.5,79.13.8,3,0,3,0,3,3-.1,8.2-.2,16.4-.2,24.5v1.5c.1,1-.4,1.6-1.51,1.5A5.7,5.7,0,0,1,381.27,245.23Zm-83.94-19.1c0-.4-.1-.9.4-1s.5.5.5.9c-.1,5.7-.1,11.3-.2,17,0,.3-.1.5-.1.7a.76.76,0,0,1-.4.2.45.45,0,0,1-.3-.3,9.7,9.7,0,0,1-.1-1.7c0-2.5,0-5,.1-7.5h0C297.33,231.63,297.33,228.83,297.33,226.13Zm.2-2.5c-.7,0-.6-.6-.6-1.1v-3.7c0-.7.1-1.4,1.1-1.3s.9.8.9,1.5v1.5h.1a16.35,16.35,0,0,1-.2,2.2A1.32,1.32,0,0,1,297.53,223.63Zm3.81-12.6a1.86,1.86,0,0,1-1.6-2.9,1.22,1.22,0,0,1,1.2-.5h3.21c1.9,0,2-.4,1.3-2.5,0,.9-.3,1.3-1.3,1.5-4.31.5-5-.2-4.71-4.5.1-1.1.4-1.51,1.5-1.1a3.4,3.4,0,0,0,1,.1c-2.6-1.81-2.4-1.71-2.4-5.71s.1-7.9.1-11.9c0-2.4,0-2.5,2.1-2.5,6.72.1,13.44.1,20.16.2l59.67.6c3,0,3,0,3,3.2-.1,8-.2,15.81-.2,23.81v1.7c0,.9-.5,1.3-1.41,1.3h-1.7c-26.28-.3-52.55-.5-78.83-.8Zm-4.21-9a.73.73,0,0,1,.9-.8c.5.1,1,.1,1,.8,0,1.4,0,2.8-.1,4.2a1.13,1.13,0,0,1-1.2,1.1c-.8.1-.6-.7-.7-1.3a9.65,9.65,0,0,1,0-1.7h0C297.13,203.53,297,202.83,297.13,202Zm1.6-19.71c-.1,5.3-.1,10.6-.2,16,0,.3-.1.7-.1,1,0,.1-.3.2-.4.2a.32.32,0,0,1-.3-.3,9.7,9.7,0,0,1-.1-1.7c0-2.4,0-4.8.1-7.2h0c0-2.7.1-5.3.1-8,0-.4-.1-1,.4-1.1C298.93,181.12,298.73,181.92,298.73,182.32Zm-5.51,108c.6,0,.5.5.5.9,0,1.8,0,3.7-.1,5.5s0,3.7-.1,5.5c0,.4.1.9-.5.9-.3,0-.4-.5-.4-.8,0-3.7.1-7.5.1-11.2C292.82,290.74,292.82,290.34,293.22,290.34Zm76.72-42.21c-.1,12.9-.3,25.8-.4,38.71V288a1.3,1.3,0,0,1-1.21,1.2h-1.6c-23.37-.2-46.84-.5-70.2-.7H295c-1,.1-1.4-.5-1.4-1.5,0-4.2.1-8.51.1-12.71a1.48,1.48,0,0,1,.1-.7c.1-.1.2-.3.3-.3.3-.1.4.2.4.4a6.05,6.05,0,0,1,0,1.9c0,3.2-.1,6.41-.1,9.51,0,1.8.1,1.9,1.91,2H299c22,.2,43.93.5,65.79.7,3.31,0,3.11.2,3.11-3.1.1-11.41.2-22.91.3-34.31v-.7c0-2.5,0-2.5-2.4-2.5-22.87-.2-45.84-.5-68.8-.7h-.3c-2.21,0-2.21,0-2.21,2.2,0,2.8-.1,5.6-.1,8.3a7.52,7.52,0,0,1,0,1.5c-.1.5.2,1.4-.5,1.4s-.4-1-.4-1.5a24.32,24.32,0,0,1,0-2.7c0-1.9,0-4,.1-5.9.1-4.6-.4-4.6,2.91-4.6l29.28.3c2,0,4,0,6,.1l33.9.4h1.5C369.94,245.73,369.94,245.73,369.94,248.13Zm15.44-68c1.71,0,1.81.1,1.71,2-.1,5.8-.1,11.7-.2,17.5,0,4.61-.1,9.21-.1,13.81l-.31,29.3v1.5c0,2.5,0,2.5-2.2,2.5-3.11,0-6.12-.1-9.13-.1a5.28,5.28,0,0,1-1.3-.1c-.2,0-.5-.1-.3-.5.1-.1.2-.3.3-.3a8.08,8.08,0,0,1,1.6-.1c2.41,0,4.82,0,7.12.1,2.71,0,2.71,0,2.81-2.9.1-9,.2-17.8.3-26.8.1-10.3.2-20.51.3-30.81v-1.7c0-2.1-.2-2.3-2-2.4-2.71-.1-5.42-.1-8-.1-.6,0-1.6.2-1.6-.4,0-1,1.1-.5,1.6-.6C379,180,382.17,180.12,385.38,180.12Zm-13.64-40.9a4.85,4.85,0,0,1,0,1.7c-.1,12.4-.2,24.9-.4,37.3v.7c-.1,1.9-.1,1.9-2,1.9-5-.1-15-.5-15-.5l-22.16,1h-35.6s-1-1.3-1.41-1.3c-1.6-.1-1.6-.2-1.7-1.8,0-4,.1-8,.1-12a1.48,1.48,0,0,1,.1-.7c.1-.5.3-.8.8-.7s.5.3.6.7a20.85,20.85,0,0,1,0,2.5c0,3-.1,6-.1,9,0,1.7.3,2,2,2.2l1.7.3h68a3,3,0,0,0,1,.5c2.41,0,2.51,0,2.51-2.5.1-12,.2-24.1.4-36.1a18.48,18.48,0,0,1,.1-2.3c0-.4.3-.6.7-.6A.55.55,0,0,1,371.74,139.22Zm.5-42.11c.1.3,0,.7.51,1v36.51a1.57,1.57,0,0,0-.91,1.5c.1,1.1-.4,1.7-1.6,1.7a1.83,1.83,0,0,1-1.41-.4h-36.4c-12-.1-24-.3-36-.4-2.71,0-2.71,0-2.71-2.7,0-3.7.1-7.3.1-11,0-.6-.2-1.61.7-1.61s.7.91.7,1.61c0,3.3-.1,6.7-.1,10,0,2.5.2,2.7,2.61,2.8l34.9.3h33.9a8.51,8.51,0,0,0,1.7.4c1.81,0,2-.3,2.11-2a3.42,3.42,0,0,1,.3-1.7v-36c.1-.6-.2-1.6.8-1.5S372.24,96.51,372.24,97.11Zm-73.1-2.6c22.76.2,45.42.5,68.29.7,3,0,3,0,3,3l-.3,34.81c0,2.8,0,2.8-2.61,2.8-23-.2-45.83-.5-68.7-.7h-1.4c-.9,0-1.3-.5-1.3-1.4,0-3.8.1-7.7.1-11.51,0-1.2.6-1.6,1.7-1.5a9.72,9.72,0,0,0,2.41,0c1.3-.1,1.4-.3.8-2-.1.9-.7.9-1.4,1-1.41.1-2.91-.2-4.32.3-.7.3-1-.3-1-.9,0-2.5.1-5.1.1-7.7,0-.9.5-1.3,1.31-.9,1.2.5,2.5.2,3.91.3s1.4.1,1,1.5c-.1.3-.1.7-.3.9a2.26,2.26,0,0,0,1.3-1.7c.5-1.5.1-2.1-1.5-2.3-1.1-.1-2.51.4-3.31-.4s-.4-2.4-.4-3.6c0-2.9,0-5.8.1-8.8,0-1.6.1-1.7,1.7-1.8C298.33,94.51,298.73,94.51,299.14,94.51Zm73-37.8c-4.31,10-3.71,21.3-.2,31.6a11.53,11.53,0,0,1,.3,4.9,1.16,1.16,0,0,1-1.4,1.3h-1.71c-24-.2-47.93-.5-72-.7-3.11,0-3,.2-3-3.2s.1-7,.1-10.5c0-.6-.2-1.6.7-1.6s.71.9.71,1.5c0,3.3-.11,6.5-.11,9.8,0,2.5,0,2.5,2.51,2.5,16.55.2,33.1.3,49.64.5,6.72.1,13.44.1,20.16.2h2a1.32,1.32,0,0,0,1-.9,9.7,9.7,0,0,0,.1-1.7c.1-12,.2-24.1.4-36.1V53c0-1-.4-1.6-1.4-1.6h-1.41c-23.06-.2-46.23-.5-69.29-.7-3,0-3,0-3,2.9,0,3.3-.1,6.5-.1,9.8,0,.6.2,1.6-.71,1.6s-.7-.9-.7-1.6c0-4.1.1-8.2.1-12.3,0-1.9.1-1.9,2-1.9,5.61.1,11.23.1,16.95.2,6.72.1,13.44.1,20.15.2,11.84.1,23.77.2,35.61.4h2a1.23,1.23,0,0,1,1.41,1.4C372.75,53.21,372.85,55,372.14,56.71Zm-89.95-12c-1.81-.91-2.51-.4-2.61,1.6v1c.1,1.1-.5,1.5-1.51,1.5-2.5,0-5-.1-7.62-.1-1.9,0-3.71,0-5.61-.1s-1.81-.2-1.91-2v-1c.1-11.51.2-23.11.3-34.51V9.8c.1-1.5.1-1.6,1.81-1.7h1.4L382.37,9.3h.7c2.41,0,2.51,0,2.51,2.5-.1,11.8-.2,23.7-.3,35.51v1.3c0,.8-.4,1.3-1.2,1.3h-2L292.42,49h-.71c-2.2-.1-2.2-.1-2.3-2.2v-1c-.1-1.3-.3-1.4-2-.8.4.1.8.3.8.7l.3,4.5c.1.7-.4.8-.9.8-2,0-3.91,0-5.91-.1-.81,0-1.41-.3-1.11-1.2A15.53,15.53,0,0,0,281,46c.1-.7.4-.9,1-.5s1.3.9,1.9,1.5A2.19,2.19,0,0,0,282.19,44.71Zm8.32,6.1c-.4-.1-.8-.3-.8-.7a.86.86,0,0,1,.9-.7h2.21c.5,0,1,.1,1,.7s-.7.7-1.1.7h-2.21ZM387,10.8c-.1,12.5-.2,25.1-.41,37.51v1.5c-.1,1.8-.1,1.9-1.8,1.9-3.31,0-6.52-.1-9.83-.1a3.4,3.4,0,0,1-1-.1c-.3-.1-.6-.3-.5-.7.1-.2.3-.5.5-.5a9.7,9.7,0,0,1,1.7-.1c2.61,0,5.22.1,7.83.1,2,0,2.1-.1,2.1-2.1.1-8,.2-15.81.2-23.81,0-4.5.1-9,.1-13.5,0-2-.1-2.1-2.1-2.2h-1.41L265.84,7.5c-3.91,0-3.91,0-3.91,3.8-.1,11.4-.2,22.7-.3,34.11v1.3c0,2.2.2,2.5,2.4,2.5,4.12,0,8.13.1,12.24.1a13.6,13.6,0,0,1,2,.1c.4,0,.6.3.6.7s-.3.7-.6.7a21,21,0,0,1-2.51,0c-1.61.1-1.61.1-1.71,1.8v2l-.6,62.1c-.2,20.51-.4,41.11-.6,61.61V180c-.1,1.9-.1,1.9-2,2-2.7,0-5.41-.1-8.22-.1a2.23,2.23,0,0,0-2.21,2.2v1.5c-.2,19-.4,38.11-.6,57.11V244c0,2.3.2,2.5,2.61,2.6,2.71,0,5.32.1,8,.1,1.71,0,1.81.2,1.91,1.9v2C272,290.44,270.55,370,270.55,370v1.3c0,2.7-.3,3,2.71,3,.6,0,1.81-.3,1.81.6.1,1.3-1.11.8-1.81.8-14.54-.2-29.08-.3-43.62-.5l-29.69-.3h-1.9a1.5,1.5,0,0,0-1.51,1.6v2l-.3,34.8c0,.8.3,2.2-.4,2.2-.9,0-.5-1.3-.5-2.1.1-12.4.2-24.9.4-37.3,0-2.7,0-2.7,2.71-2.6,22.56.2,45,.5,67.59.7,4.61.1,2.81.5,3.51-8,.4-36.41.7-72.71,1.1-109.12-.8-9.2,1.31-8.6-3.51-8.7-2.1,0-4.31,0-6.41-.1-1.51-.1-1.61-.2-1.61-1.8a5,5,0,0,0-.5-1.5V184.32s1.2-.9,1.3-1.3c.1-1.9.1-1.9,2-2,2.61,0,5.21.1,7.82.1,1.81,0,1.91-.1,2-2v-1.5L273,54.31c0-3.8.4-3.5-3.41-3.6-2.21,0-4.41,0-6.62-.1-1.6-.1-1.7-.2-1.7-1.8,0-2.7.3-8.31.3-8.31V9.5s.1-1,.1-1.5c.1-1.9.1-1.9,2-2H265L384,7.2C387.29,7.3,387,6.9,387,10.8Z" transform="translate(-121.15 -5)"/><polygon points="158.43 44.41 158.63 44.41 158.53 44.21 158.43 44.41"/><path d="M263.43,720.19v-1c.3,0,.5-.1.71,0,.6.1,1.6-.2,1.6.7s-1,.2-1.6.3C264,720.29,263.73,720.19,263.43,720.19Z" transform="translate(-121.15 -5)"/><path d="M265.84,481.66v-1c.3,0,.5-.1.7,0,.6.1,1.61-.2,1.61.7s-1,.2-1.61.3Z" transform="translate(-121.15 -5)"/><path d="M266.24,438.56v-1c.3,0,.5-.1.7,0,.6.1,1.61-.2,1.61.7s-1,.2-1.61.3Z" transform="translate(-121.15 -5)"/><path d="M263.43,719.19a2.76,2.76,0,0,1-2.4-2.5A5.8,5.8,0,0,1,263.43,719.19Z" transform="translate(-121.15 -5)"/><path d="M262.93,677.49c.2-.8,1.1-.9,1.51-1.5.3,0,.5-.1.7,0s.6,0,.7.2-.1.3-.3.4C264.64,676.89,263.93,677.59,262.93,677.49Z" transform="translate(-121.15 -5)"/><path d="M263.43,634.38c.2-.8,1.11-.9,1.51-1.5.3,0,.7-.1.9,0s.4.2.6.3c-.1.1-.2.3-.3.3C265.14,633.68,264.34,634.48,263.43,634.38Z" transform="translate(-121.15 -5)"/><path d="M265.94,524.77c-.4-.6-1.2-.7-1.4-1.5a3.12,3.12,0,0,1,1.8.7c.4.3,1.2,0,1,.7C267.24,524.77,266.34,524.67,265.94,524.77Z" transform="translate(-121.15 -5)"/><path d="M266.24,437.56a2.78,2.78,0,0,1-2.41-2.51A6.41,6.41,0,0,1,266.24,437.56Z" transform="translate(-121.15 -5)"/><path d="M262.93,527.17a2,2,0,0,1,2-2A4.84,4.84,0,0,1,262.93,527.17Z" transform="translate(-121.15 -5)"/><path d="M263.83,632.48a1.92,1.92,0,0,1-1.9-2A4.12,4.12,0,0,1,263.83,632.48Z" transform="translate(-121.15 -5)"/><path d="M263.43,675.49a1.92,1.92,0,0,1-1.9-2A5.2,5.2,0,0,1,263.43,675.49Z" transform="translate(-121.15 -5)"/><path d="M260.52,723.59a1.71,1.71,0,0,1,1-2A2.75,2.75,0,0,1,260.52,723.59Z" transform="translate(-121.15 -5)"/><path d="M263.43,522.17c-.9-.4-1-1.1-1-2A2.33,2.33,0,0,1,263.43,522.17Z" transform="translate(-121.15 -5)"/><path d="M263.83,479.06c-.9-.4-1-1.1-1-2A2.33,2.33,0,0,1,263.83,479.06Z" transform="translate(-121.15 -5)"/><path d="M260.93,680.49a1.7,1.7,0,0,1,1-2A2.77,2.77,0,0,1,260.93,680.49Z" transform="translate(-121.15 -5)"/><path d="M261.33,637.38a1.7,1.7,0,0,1,1-2A2.46,2.46,0,0,1,261.33,637.38Z" transform="translate(-121.15 -5)"/><path d="M264.74,439.56a1.46,1.46,0,0,1,1.4-1A1.33,1.33,0,0,1,264.74,439.56Z" transform="translate(-121.15 -5)"/><path d="M265.84,480.66a1.31,1.31,0,0,1-1.4-1C265.14,479.56,265.54,480,265.84,480.66Z" transform="translate(-121.15 -5)"/><path d="M264.34,482.56a1.46,1.46,0,0,1,1.4-1A1.22,1.22,0,0,1,264.34,482.56Z" transform="translate(-121.15 -5)"/><path d="M262,721.19a1.46,1.46,0,0,1,1.4-1A1.41,1.41,0,0,1,262,721.19Z" transform="translate(-121.15 -5)"/><path d="M262.33,635.38c0-.6.3-.9,1-1A1.17,1.17,0,0,1,262.33,635.38Z" transform="translate(-121.15 -5)"/><path d="M261.93,678.49c0-.6.3-.9,1-1A1.28,1.28,0,0,1,261.93,678.49Z" transform="translate(-121.15 -5)"/><path d="M264.44,676.09a1,1,0,0,1-1-.5A.89.89,0,0,1,264.44,676.09Z" transform="translate(-121.15 -5)"/><path d="M264.84,633a1,1,0,0,1-1-.5A1,1,0,0,1,264.84,633Z" transform="translate(-121.15 -5)"/><path d="M264.94,525.17a1,1,0,0,1,1-.5C265.74,525.17,265.34,525.17,264.94,525.17Z" transform="translate(-121.15 -5)"/><path d="M261.53,721.59l.5-.5C261.83,721.29,261.73,721.49,261.53,721.59Z" transform="translate(-121.15 -5)"/><path d="M263.93,522.67l-.5-.5Z" transform="translate(-121.15 -5)"/><path d="M264.44,479.56l-.51-.5C264,479.26,264.24,479.36,264.44,479.56Z" transform="translate(-121.15 -5)"/><path d="M264.44,523.17l-.51-.5Z" transform="translate(-121.15 -5)"/><path d="M296.53,309.54c-.1.5-.3.8.3,1.1a2.18,2.18,0,0,1,.7.9c-1.1-.1-2-1-3.11-1-.1,0-.2-.2-.3-.3.1-.1.3-.2.4-.3A3.32,3.32,0,0,1,296.53,309.54Z" transform="translate(-121.15 -5)"/><path d="M296.93,266.43c-.2.5-.3.8.3,1.1a2.18,2.18,0,0,1,.7.9c-1.1-.1-2-1-3.11-1-.1,0-.2-.2-.3-.3.1-.1.3-.2.4-.3A4.25,4.25,0,0,1,296.93,266.43Z" transform="translate(-121.15 -5)"/><path d="M298.93,264.43a2,2,0,0,1-2,2A5.48,5.48,0,0,1,298.93,264.43Z" transform="translate(-121.15 -5)"/><path d="M299.44,263.43a1,1,0,0,1-.51,1A1,1,0,0,1,299.44,263.43Z" transform="translate(-121.15 -5)"/><path d="M297.53,351.64l-.5.5Z" transform="translate(-121.15 -5)"/><path d="M297.53,311.54l.5.5Z" transform="translate(-121.15 -5)"/><path d="M297.93,268.43l.5.5Z" transform="translate(-121.15 -5)"/><path d="M199.05,771.1c6.12.1,12.23.1,18.45.2h1.71a1.47,1.47,0,0,1,1.6,1.6c0,3.4-.1,6.8-.1,10.2,0,.8-.4,1.2-1.3,1.3H218c-12.53-.1-25.17-.3-37.8-.4H179c-1,0-1.6-.4-1.5-1.5,0-3.4.1-6.8.1-10.3,0-.9.5-1.3,1.4-1.3,1.81,0,3.61,0,5.42.1C189.22,771,194.14,771,199.05,771.1Zm-4.91,6.8h0v3.7c0,2.3,0,2.2,2.5,2.3h.7c1.51-.1,1.61-.1,1.71-1.8.1-2.1,0-4.3.1-6.5,0-3.3-.4-3.7-3.61-3.2a1.18,1.18,0,0,0-1.2,1.3C194.24,775.1,194.14,776.5,194.14,777.9Zm-.61,0h0v-3.5c0-2.5,0-2.5-2.5-2.5h-.51c-1.9,0-1.8.1-1.9,2.3s0,4.1-.1,6.2c0,3-.2,3,2.51,3h.7c1.1.1,1.7-.4,1.6-1.6A24.22,24.22,0,0,0,193.53,777.9Zm-10.73.4h0c0-1.1.1-2.3,0-3.5,0-2.4,0-2.2-2.91-2.3h-.1c-2.5.1-1.8,0-2.1,4.7a6,6,0,0,0,0,1.9c.2,4.9-.6,4.9,2.2,5h1.41c.8,0,1.2-.5,1.2-1.3C182.7,781.3,182.7,779.7,182.8,778.3Zm27.08-.6h0c0,1.3-.1,2.7,0,4,0,1.9.1,1.7,2.21,1.8h.2c2.81-.1,2.2.2,2.4-3.6v-1.5c-.2-6.4.81-6.5-3.11-6.4a8.6,8.6,0,0,0-1.6.1.1.1,0,0,0-.1.1Zm-5.92.5v-4.5c0-1.1-.4-1.5-1.4-1.6h-1.2c-1.51.1-1.61.1-1.71,1.7-.1,2.6-.1,5.1-.1,7.8,0,1.9.1,1.9,1.91,2h1c1,.1,1.4-.5,1.5-1.5C203.86,780.8,204,779.5,204,778.2Zm-20.15-.6v4.2c-.1,1.2.5,1.7,1.6,1.6h1.4c.91,0,1.31-.5,1.31-1.4,0-2.9.1-5.8.1-8.8,0-.9-.4-1.3-1.41-1.4h-1.4c-1.2-.1-1.6.5-1.6,1.7Zm35.8.6h0c-.8,0-1.21-.6-.8-1.3,1.3-3.1,1.2-4.5-.41-4.5h-1.7c-1.3,0-1.5,1-1.1,2.7a12.17,12.17,0,0,1-.1,6c-.51,1.8-.2,2.7,1.1,2.8H218c1.21.1,1.61-.5,1.61-1.7ZM205,778h0v4.7a1.18,1.18,0,0,0,1.2,1.3,6.53,6.53,0,0,0,1.4,0c1.61-.1,1.61-.1,1.71-1.8.1-2.6.1-5.2.1-7.8,0-1.7-.1-1.8-1.71-1.9h-1.2c-1-.1-1.4.5-1.5,1.5Z" transform="translate(-121.15 -5)"/><path d="M197.85,768.1c-3.92,0-7.83-.1-11.84-.1-1.1,0-2.2-.2-3.31.6-.9.7-1.6-.4-2.3-.8-.3-.1-.2-.4-.1-.7.4-.6,2-1.2,2.6-.7a4,4,0,0,0,2.81.6l24.07.3c.8,0,2.21-.5,2.21.6.1.7-1.41.4-2.21.4C205.77,768.2,201.76,768.2,197.85,768.1Z" transform="translate(-121.15 -5)"/><path d="M278,746.89a1.64,1.64,0,0,1,1,1A1,1,0,0,1,278,746.89Z" transform="translate(-121.15 -5)"/><path d="M363.72,10.5c5.92.1,11.93.1,17.85.2,2.31,0,2.41.1,2.31,2.4,0,2.8-.1,5.7-.1,8.5,0,2.1-.1,2.2-2.21,2.2l-24.27-.3c-4.11,0-8.22-.1-12.23-.1-1.91,0-2-.2-2-2,0-3,0-6,.1-9,0-2,.2-2.1,2.21-2C351.48,10.4,357.6,10.4,363.72,10.5Zm-4.91,6.6h0v4c0,2,.1,2.1,2.1,2.1h.5c1.71,0,1.71-.1,1.71-2.1,0-2.5,0-5.1.1-7.5,0-2.1,0-2.2-1.91-2.3h-1c-1.71-.1-2,1.2-.7,4.7C359.91,16.6,359.51,17.1,358.81,17.1Zm9.32.2V12.6c0-1.1-.4-1.5-1.4-1.5H366c-2,0-2.11,0-2.21,2,0,2.7-.1,5.3-.1,8,0,1.9.1,1.9,1.9,2h1c1,.1,1.4-.5,1.5-1.5Zm10.93-.2c0,1.4-.1,2.8,0,4.2,0,1.6.1,1.7,1.61,1.8h1.4a1.07,1.07,0,0,0,1.21-1.2c0-3.1.1-6.3.1-9.5a1.14,1.14,0,0,0-1.21-1.3,6.53,6.53,0,0,0-1.4,0c-1.61.1-1.61.1-1.71,1.7Zm-6,0c0-1.4.1-2.8,0-4.2,0-1.6-.1-1.7-1.61-1.8H370a1.07,1.07,0,0,0-1.21,1.2c0,3.1-.1,6.3-.1,9.5,0,.8.3,1.3,1.21,1.3a6.53,6.53,0,0,0,1.4,0c1.61-.1,1.61-.1,1.71-1.7Zm-20.16,0h0a.88.88,0,0,1-.9-1.3c1.2-3.1,1.4-4.8-.3-4.8h-1.41a1.6,1.6,0,0,0-1.7,1.6c0,3-.1,6-.1,9a1.22,1.22,0,0,0,1.4,1.4h1.3c1.21.1,1.71-.4,1.61-1.6C352.89,19.9,352.89,18.5,352.89,17.1ZM348,17h0V12.3c0-.9-.3-1.4-1.3-1.4h-1.4c-1.11-.1-1.61.4-1.61,1.6,0,3-.1,6-.1,9,0,.9.4,1.4,1.31,1.4h1.4c1.1.1,1.6-.4,1.6-1.6C348,19.8,348,18.4,348,17Zm6-.1c0,1.5-.1,3,0,4.5s.2,1.5,1.91,1.6,2-.1,2-1.4c.1-3,.1-6,.1-9,0-1.4-.2-1.5-1.9-1.6s-1.91.1-2,1.4C354,13.9,354,15.3,354,16.9Zm24.07.4V12.6c0-1.3-.8-1.4-1.8-1.4-1.71,0-2,.1-2.11,1.3-.1,3.1-.1,6.1-.1,9.2,0,1.3.8,1.4,1.8,1.4,1.71,0,2-.1,2.11-1.3C378.06,20.3,378.06,18.8,378.06,17.3Z" transform="translate(-121.15 -5)"/><path d="M360,26.8c5.72.1,11.53.1,17.25.2a2.84,2.84,0,0,0,1.3-.4,2.55,2.55,0,0,1,2.91.5.62.62,0,0,1-.1.7,2.51,2.51,0,0,1-2.81.5,4.06,4.06,0,0,0-2.81-.5l-30.08-.3c-.7,0-1.31.2-1.91-.2a2.47,2.47,0,0,1,2-.5c4.71-.1,9.53-.1,14.24,0Z" transform="translate(-121.15 -5)"/><path d="M284.79,47.21v1c0,.2,0,.5-.3.5-.1,0-.2-.2-.3-.3-.1-.5-.3-1.1-.4-1.7A9.25,9.25,0,0,0,284.79,47.21Z" transform="translate(-121.15 -5)"/><path d="M287.3,44.81a1,1,0,0,1-1,.5A.93.93,0,0,1,287.3,44.81Z" transform="translate(-121.15 -5)"/><path d="M285.4,46.31a1,1,0,0,1-.51,1A.82.82,0,0,1,285.4,46.31Z" transform="translate(-121.15 -5)"/><path d="M286.4,45.21l-.5.5Z" transform="translate(-121.15 -5)"/><path d="M285.8,45.81l-.5.5Z" transform="translate(-121.15 -5)"/><path d="M359.91,402.85c5.92.1,11.93.1,17.85.2,2.41,0,2.41.1,2.31,2.4,0,2.8-.1,5.7-.1,8.5,0,2.1-.1,2.2-2.21,2.2l-24.27-.3c-4.11,0-8.22-.1-12.23-.1-1.91,0-2-.2-2-2,0-3,0-6,.1-9,0-2,.2-2.1,2.21-2C347.57,402.75,353.69,402.85,359.91,402.85Zm5,6.6h0V414a1.18,1.18,0,0,0,1.21,1.3,6.53,6.53,0,0,0,1.4,0c1.61,0,1.61-.1,1.71-2.1,0-2.3,0-4.7.1-6.9s0-2.4-1.91-2.4h-1c-1-.1-1.41.5-1.51,1.5Zm10.23.3c0,1.3-.1,2.7,0,4,0,1.7.1,1.7,1.61,1.8h1.4a1.18,1.18,0,0,0,1.3-1.2c0-3,.1-6,.1-9,0-.9-.5-1.3-1.4-1.3H377c-1.61.1-1.61.1-1.71,1.7C375.15,407.15,375.15,408.45,375.15,409.75Zm-31.29.2h0c-.5-.8-.5-.7-1-1.6,1.4-2.9,1.3-4.3-.2-4.4a6.53,6.53,0,0,0-1.4,0c-1.61,0-1.61.2-1.71,2.1,0,2.4,0,4.7-.1,7.1,0,2.1,0,2.1,1.91,2.2h1c1,.1,1.4-.5,1.5-1.5C343.76,412.55,343.86,411.25,343.86,410Zm.91-.7v4.5c0,1.1.4,1.5,1.5,1.5h1.2c1.51-.1,1.61-.1,1.71-1.8.1-2.6.1-5.1.1-7.8,0-1.9-.1-1.9-1.91-2h-1c-1-.1-1.4.5-1.5,1.5C344.77,406.55,344.77,408,344.77,409.25Zm10.32.1h0v4.5a1.19,1.19,0,0,0,1.21,1.3,6.53,6.53,0,0,0,1.4,0c1.61-.1,1.61-.1,1.71-1.8.1-2.6.1-5.2.1-7.8,0-1.7-.1-1.7-1.71-1.9h-1.2c-1-.1-1.4.5-1.51,1.5Zm4.92.1h0V414a1.18,1.18,0,0,0,1.2,1.3,6.63,6.63,0,0,0,1.41,0c1.6-.1,1.6-.1,1.7-1.8.1-2.6.1-5.2.1-7.8,0-1.7-.1-1.8-1.7-1.9h-1.21c-1-.1-1.4.5-1.5,1.5Zm14.14.4c0-1.4.1-2.8,0-4.3s-.2-1.5-1.91-1.6-2,.1-2,1.4c-.1,2.8-.1,5.7-.1,8.5,0,1.4.2,1.5,1.9,1.6s1.91-.1,2-1.4A29.46,29.46,0,0,0,374.15,409.85Zm-20.16.2h0c0-1.4.1-2.8,0-4.3s-.2-1.7-1.9-1.8-1.91.1-2,1.7c-.1,2.5,0,5-.1,7.5,0,2.2.3,2.4,2.41,2.3a1.63,1.63,0,0,0,1.5-1.6C354,412.65,354,411.25,354,410.05Z" transform="translate(-121.15 -5)"/><path d="M357.1,398.85c5.22.1,10.33.1,15.44.2a3.2,3.2,0,0,0,2.61-.6c.1-.1.3-.2.4-.3a3.5,3.5,0,0,1,2.41,1c.4.3,0,.7-.3.7-.9.3-1.71,1.7-2.71.3-.7-1-1.6-.7-2.41-.7-7.62-.1-15.24-.2-22.86-.2-2.91,0-5.92-.1-8.83-.1-.2,0-.7-.1-.7-.2.1-.5.5-.3.7-.3,5.42.1,10.84.1,16.25.2Z" transform="translate(-121.15 -5)"/><path d="M263.33,390.85a3.76,3.76,0,0,1-2.91-3A11.71,11.71,0,0,1,263.33,390.85Z" transform="translate(-121.15 -5)"/><path d="M280.08,379a5,5,0,0,1,.9-2.3c.1-.3,0-.7.5-.6.1.1.1.6.21.9v.5C281.08,378,280.88,378.75,280.08,379Z" transform="translate(-121.15 -5)"/><path d="M282.09,378.55a2.32,2.32,0,0,1,1.4,1.5A1.45,1.45,0,0,1,282.09,378.55Z" transform="translate(-121.15 -5)"/><path d="M277.57,380.45a2.63,2.63,0,0,1,2-1C279.28,380.45,278.48,380.55,277.57,380.45Z" transform="translate(-121.15 -5)"/><path d="M264.24,391.35a1,1,0,0,1-1-.5C263.73,391,264,391,264.24,391.35Z" transform="translate(-121.15 -5)"/><path d="M281.58,377.55a.81.81,0,0,1,.41,1A1.17,1.17,0,0,1,281.58,377.55Z" transform="translate(-121.15 -5)"/><path d="M281.79,414.05a1,1,0,0,1-.51,1C281.18,414.65,281.38,414.35,281.79,414.05Z" transform="translate(-121.15 -5)"/><path d="M282.69,413.15l-.5.5Z" transform="translate(-121.15 -5)"/><path d="M282.19,413.65l-.5.5Z" transform="translate(-121.15 -5)"/><path d="M279.58,379.55l.5-.5C279.88,379.15,279.78,379.35,279.58,379.55Z" transform="translate(-121.15 -5)"/><path d="M300.84,74.51a5.3,5.3,0,0,1-1.91-2A2.06,2.06,0,0,1,300.84,74.51Z" transform="translate(-121.15 -5)"/><path d="M301.24,75.51a.82.82,0,0,1-.4-1C301.24,74.71,301.24,75.11,301.24,75.51Z" transform="translate(-121.15 -5)"/><path d="M298.43,115.51c-.3,0-.5.1-.7,0-.6-.2-1.6-.3-1.6-.7,0-.6,1-.3,1.6-.7a2.8,2.8,0,0,1,1.81-.6c-.3.3-.4.7-.71.9A.72.72,0,0,0,298.43,115.51Z" transform="translate(-121.15 -5)"/><path d="M300.34,117.51a5.23,5.23,0,0,1-1.91-2A2.06,2.06,0,0,1,300.34,117.51Z" transform="translate(-121.15 -5)"/><path d="M300.84,118.61a.82.82,0,0,1-.4-1A1.16,1.16,0,0,1,300.84,118.61Z" transform="translate(-121.15 -5)"/><path d="M299.44,113.51l.5-.5Z" transform="translate(-121.15 -5)"/><path d="M298.43,159.22c-.8-.2-1.7-.4-2.6-.6-.31-.1-.51-.2-.51-.4s.2-.5.51-.5a4.85,4.85,0,0,1,1.7,0A9.88,9.88,0,0,1,298.43,159.22Z" transform="translate(-121.15 -5)"/><path d="M297.53,157.62a1,1,0,0,1,1-.5C298.33,157.62,297.93,157.62,297.53,157.62Z" transform="translate(-121.15 -5)"/><path d="M299,159.62l-.5-.5A1.21,1.21,0,0,0,299,159.62Z" transform="translate(-121.15 -5)"/><path d="M298.53,157.22l.5-.5C298.83,156.82,298.73,157,298.53,157.22Z" transform="translate(-121.15 -5)"/><path d="M299.44,160.22l-.51-.5A1.17,1.17,0,0,1,299.44,160.22Z" transform="translate(-121.15 -5)"/><path d="M299,156.62l.51-.5Z" transform="translate(-121.15 -5)"/><path d="M219.81,592a1.76,1.76,0,0,1-.8-1.5,42.16,42.16,0,0,0,.4-4.9c.1-.7.4-1.1,1.1-1.1a19.38,19.38,0,0,1,2.41,0c1.6.1,1.6.1,1.6,1.8.1,1.2.4,2.5.4,3.7.1,1.5-.4,2.8-2.1,3.1l-.5-.1,1-.2v-.3l-.5-.1.7-.7a3.51,3.51,0,0,0,.5-.8c.6-1.3.2-2.7-.2-4.1s-.6-1.5-2.51-1.5c-1.4,0-1.2,1.1-1.4,1.9a.85.85,0,0,0,0,.7c.5,1.8.9-2.3,1.5,2.1-.2.5-.4.9-.6,1.4h-.1c-.2-.2-.5-.6-.6-.5-.3.2-.1.7-.3,1.1Z" transform="translate(-121.15 -5)"/><path d="M229.84,592.67a1.37,1.37,0,0,1-.6-1.3,33.89,33.89,0,0,0,.2-4.5c.1-1.3.3-1.3,2.8-1.3,2.31,0,2.41.1,2.51,1.4s0,2.5.1,3.7c.2,2.91-1.3,4-4.11,2.91l.1-.1a.87.87,0,0,0,.9-.5h.5c.3.4.61.5,1,0,.1-.2.3-.3.5-.5.9-1.81.4-3.71.4-5.61,0-.5-.3-.7-.8-.8a7.18,7.18,0,0,0-1.41-.1c-1.8,0-1.8,0-2,1.6s0,3.1-.1,4.71Z" transform="translate(-121.15 -5)"/><path d="M223,593c-1.11.91-1.81.51-2.51-.5l.1-.1a1,1,0,0,0,.4-.9l.1-.1a4.28,4.28,0,0,0,1.91.6,4.33,4.33,0,0,1,.1.5l-.1.1a2.77,2.77,0,0,1-.9.1c.1.4.5.21.9.3Z" transform="translate(-121.15 -5)"/><path d="M256.91,589.77a5.15,5.15,0,0,1,1.91,2C257.62,591.67,257.12,591,256.91,589.77Z" transform="translate(-121.15 -5)"/><path d="M258.82,591.77a2.82,2.82,0,0,1,2,1A1.65,1.65,0,0,1,258.82,591.77Z" transform="translate(-121.15 -5)"/><path d="M255.91,587.77a3,3,0,0,1,1,2C256,589.37,255.91,588.67,255.91,587.77Z" transform="translate(-121.15 -5)"/><path d="M230.74,593.48a1.08,1.08,0,0,1-1-1l.1-.1a1.09,1.09,0,0,1,.5.1c.1.2.3.3.5.5a1.15,1.15,0,0,0-.1.51Z" transform="translate(-121.15 -5)"/><path d="M220.51,592.47c-.1-.2-.3-.3-.5-.5l.1-.1.5.5Z" transform="translate(-121.15 -5)"/><path d="M331.93,217.63h1.2c1.21-.1,1.61.3,1.21,1.6a4.19,4.19,0,0,0,.1,2.5c.1.2.1.5.2.7a3.52,3.52,0,0,1-1.41,3.7,2.41,2.41,0,0,1-2.91,0,3.23,3.23,0,0,1-1.4-3.7,7.35,7.35,0,0,0,.2-3.9c-.2-.7.3-.9.9-.9Zm1.3,7.5-.1.1c0,.1.1,0,.1-.1a1.39,1.39,0,0,0,.5-1c.1-.1.3-.2.3-.3s.21-.5-.1-.6-.2.3-.3.5v.5A1,1,0,0,0,333.23,225.13Zm-3,0v-1c1.81,1.1,2.31.9,2.81-1a7.57,7.57,0,0,0,.1-1.5c.9-2.6.3-3.5-2.3-3a1.18,1.18,0,0,0-1.11,1.1,2.56,2.56,0,0,0,.4,1.9v2.5h-.5v-.5c0-.2,0-.5-.3-.5s-.1.4-.1.6l.3.3c.3.5.4.9.7,1.1.1.1.1.1.2.1A.31.31,0,0,1,330.22,225.13Zm1.41.8a.1.1,0,0,1,.1.1l.1-.1a.1.1,0,0,1-.1-.1Z" transform="translate(-121.15 -5)"/><path d="M343.56,226.33c-1.3,1.1-2.4,1.3-3.41.6a3.24,3.24,0,0,1-1.4-3.4,13,13,0,0,0,.4-3.9c-.1-.5.1-.8.6-.8,1.41,0,2.91,0,4.31.1.5.1.5.5.1.9l-.1-.1c-1.1-.9-2.3-.5-3.51-.4-.7.1-1.3,1.5-.8,2.5s.7-.3,1.1-.4c.71-.1,1.21-.3,1.81.4-1.5.3-2.31,1-2.31,2s.81,1.7,2.31,2v.5h-2c-.2-.1-.3-.3-.5-.5-.1-.4-.1-.8-.4-1v-.5c0-.2,0-.5-.3-.5s-.1.4,0,.6l.3.3a1.28,1.28,0,0,0,.4,1c.1.2.3.3.5.5a1.22,1.22,0,0,0,2,0,3.08,3.08,0,0,1,.9.1Z" transform="translate(-121.15 -5)"/><path d="M344.16,219.43c.1,1.5.61,2.9.51,4.4-.11.9-.11,1.7-1,2.1l-.1-.1v-1c.9-1.1.5-2.3.3-3.5-.2-.6-.5-1.3.3-1.9Z" transform="translate(-121.15 -5)"/><path d="M304.25,219.83a2.32,2.32,0,0,1-1.4-1.5A1.39,1.39,0,0,1,304.25,219.83Z" transform="translate(-121.15 -5)"/><path d="M305.25,221.83a3,3,0,0,1-1-2A1.75,1.75,0,0,1,305.25,221.83Z" transform="translate(-121.15 -5)"/><path d="M333.93,200.62c1.21.61,1.11,1.81.91,2.81a7.68,7.68,0,0,0-.2,3.7c.2.7-.2.9-.71,1-1.3.1-2.6,0-3.91,0-.5,0-.8-.3-.7-.8.5-1.5,0-2.9-.2-4.4a3.16,3.16,0,0,1,1.3-3.11,2.71,2.71,0,0,1,3.21,0,1.14,1.14,0,0,1,.3.8h-.5c-.1-.1-.1-.1-.2-.1.1,0,.1.1.2.1a1.12,1.12,0,0,0,.5,1v.5c0,.2,0,.5.31.5s.1-.4.1-.6l-.31-.3A4.14,4.14,0,0,1,333.93,200.62Zm-3.41,0,.11-.1c-.11,0-.11,0-.11.1a1.41,1.41,0,0,0-.5,1c-.1.1-.3.2-.3.3s-.2.5.1.6.2-.3.3-.5v-.5A1.27,1.27,0,0,0,330.52,200.62Zm-.1,3.51c-.7.7-.5,1.7-.4,2.6,0,.3.2.7.5.7a3.9,3.9,0,0,0,2.61,0c.9-.3.7-1.3.6-1.9-.2-.9-.7-.2-1-.1-1.2.4-2,.2-2.31-1.3.71.3,1.31,1.4,2.31.4a2.13,2.13,0,0,0,.2-2.7c-.1-.1-.1-.3-.3-.4-.5-.71-1-.71-1.6-.1A6.39,6.39,0,0,0,330.42,204.13Z" transform="translate(-121.15 -5)"/><path d="M344.26,207.73c.3.4.41.9-.1.9-1.4.1-2.9,0-4.41,0-.6,0-.6-.5-.5-.9a9.16,9.16,0,0,0-.3-3.7c-.3-1.4.5-3.21,1.6-3.61s2.41-.6,3.31.81l-.1.1c-.5.3-.4.7.1.9h0c-.1,1.2.5,2.7-1,3.5.1-1,.8-2,.2-3.1-.5-.9-1.3-1.1-1.9-.3a2,2,0,0,0-.41,2.1,2.19,2.19,0,0,0,2.11,1.4c-.9.8-1.6.5-2.31-.2-.1-.1-.3-.4-.5-.1-.5.5,0,2.7.8,2.7,1.21.1,2.41.5,3.51-.4Zm-3.41-6.5c-.1.2-.3.3-.5.5a1.39,1.39,0,0,0-.5,1c-.1.1-.3.2-.3.3s-.2.5.1.6.2-.3.3-.5v-.5a1,1,0,0,0,.5-1l.4-.4c.2-.1.51,0,.51-.31a.35.35,0,0,0-.2-.1A1.49,1.49,0,0,1,340.85,201.23Z" transform="translate(-121.15 -5)"/><path d="M343.86,201.23c1.61,1.2.81,2.9.81,4.4,0,.7-.51,1.4-.41,2.2l-.1.1c-.6-.6-.4-1.3-.2-2,.3-1.2.6-2.4-.2-3.5h0a2.77,2.77,0,0,0-.1-.9Z" transform="translate(-121.15 -5)"/><path d="M305.45,205.33a3,3,0,0,1-1-2A2,2,0,0,1,305.45,205.33Z" transform="translate(-121.15 -5)"/><path d="M303.45,202.33a1.32,1.32,0,0,1-1.41-1A1.32,1.32,0,0,1,303.45,202.33Z" transform="translate(-121.15 -5)"/><path d="M304,202.83l-.5-.5A1.21,1.21,0,0,1,304,202.83Z" transform="translate(-121.15 -5)"/><path d="M304.45,203.33l-.5-.5Z" transform="translate(-121.15 -5)"/><path d="M221,565.17c2.21-1.3,3.81-.4,4,2.1.1,1.5-.6,2.9-.2,4.4.1.4-.3.7-.7.7a2.77,2.77,0,0,1-.9.1c-3.61,0-3.21.1-3.21-3a5.54,5.54,0,0,0-.2-1.8,1.92,1.92,0,0,1,.6-2l.1.1c.1.3-.2.7.2.9.1.1.4-.3.5-.5v3.1c-.2.1-.4-1.1-.7-.1a4.05,4.05,0,0,0,0,1.1c.2,1.6.2,1.6,1.81,1.6s1.6,0,1.6-1.8v-.9a2.55,2.55,0,0,0,0-3.1c-.1-.2-.3-.3-.4-.5l-.1-.1c.1.1.1.1.2.1s.3.3.6.4v3.2c-.9.2-1.4,1.5-2.41.4a1.79,1.79,0,0,0,1.71-1.9,1.93,1.93,0,0,0-1.71-2.2,1,1,0,0,0-.9-.4Z" transform="translate(-121.15 -5)"/><path d="M234.55,566.47a2.33,2.33,0,0,1,.6,1.8c-.1,1.3-.2,2.7-.2,3.9a1.19,1.19,0,0,1-1.6,1.3c-1.21-.2-3.11.9-3.71-.9a15,15,0,0,1-.1-5.6c0-.2.3-.4.5-.5l.1.1c0,1.7,0,3.5.1,5.2,0,.9.3,1.4,1.3,1.3a3.34,3.34,0,0,1,1.41,0c1,.1,1.2-.4,1.4-1.3a45.13,45.13,0,0,0,.1-5.2Z" transform="translate(-121.15 -5)"/><path d="M231,565.37a1.76,1.76,0,0,1,2.51,0l-.1.1c-.2.1-.4.1-.6.2.2.1.4.1.6.2l.1.1.5.5h0c0,1.1,0,2.1-.1,3.2a1.4,1.4,0,0,1-1.3,1.3c-.81.1-1.51.1-1.61-1,.8.3,1.61.8,2.21-.2a2.87,2.87,0,0,0,0-2.7,1.1,1.1,0,0,0-1-.6,1.3,1.3,0,0,0-1.1.9c-.1.8-.1,1.7-.2,2.5-.9-1.1-.3-2.3-.5-3.5h0l.5-.5h0c.2-.1.4-.1.6-.2-.1-.1-.3-.1-.5-.3Z" transform="translate(-121.15 -5)"/><path d="M257.62,572.27a1.65,1.65,0,0,1,1,1A.9.9,0,0,1,257.62,572.27Z" transform="translate(-121.15 -5)"/><path d="M233.65,565.37a1.08,1.08,0,0,1,1,1l-.1.1a1.09,1.09,0,0,1-.5-.1h0l-.5-.5-.1-.1c.1,0,.1-.1.2-.4Z" transform="translate(-121.15 -5)"/><path d="M230,566.47a1.08,1.08,0,0,1,1-1l.1.1v.5h0l-.5.5h-.5Z" transform="translate(-121.15 -5)"/><path d="M220.21,565.27l.5-.5.1.1c-.2.1-.4.3-.6.4Z" transform="translate(-121.15 -5)"/><path d="M257,571.77l.51.5A1.17,1.17,0,0,0,257,571.77Z" transform="translate(-121.15 -5)"/><path d="M224,591.47h-.5a5.13,5.13,0,0,0-.9-4,1.42,1.42,0,0,1,1.4,1.6Z" transform="translate(-121.15 -5)"/><path d="M222.52,587.47a4.06,4.06,0,0,1-1.41.5C221.41,587.37,221.71,586.57,222.52,587.47Z" transform="translate(-121.15 -5)"/><path d="M224.32,591.87H223a3.21,3.21,0,0,0,.3-.5l1,.3Z" transform="translate(-121.15 -5)"/><path d="M233.75,592.57c-.2.1-.3.3-.5.5h-1c1.11-1.1,1.11-2.5,1-4C234.25,590.07,233.65,591.37,233.75,592.57Z" transform="translate(-121.15 -5)"/><path d="M230.34,592.57c.1-1.1-.4-2.4.5-3.4a5.13,5.13,0,0,0,.9,4h-1C230.64,592.88,230.54,592.88,230.34,592.57Z" transform="translate(-121.15 -5)"/><path d="M233.35,589a2,2,0,0,0-2.41,0C231.84,587.57,232.44,587.57,233.35,589Z" transform="translate(-121.15 -5)"/><path d="M331.33,220.63c1.2-.8,1.6,0,2,1A12.44,12.44,0,0,1,331.33,220.63Z" transform="translate(-121.15 -5)"/><path d="M330.32,221.63c0-.6.31-.9,1-1A1.64,1.64,0,0,1,330.32,221.63Z" transform="translate(-121.15 -5)"/><path d="M343.56,225.23a4.67,4.67,0,0,0-1,.5,5.52,5.52,0,0,0,0-4C344.06,222.63,343.46,224,343.56,225.23Z" transform="translate(-121.15 -5)"/><path d="M221.21,569.37l.5.5A1.21,1.21,0,0,0,221.21,569.37Z" transform="translate(-121.15 -5)"/><path d="M221.31,565.87l.5-.5A1.21,1.21,0,0,0,221.31,565.87Z" transform="translate(-121.15 -5)"/><rect class="cls-1" x="299.01" y="130.52" width="73.51" height="13.94" transform="translate(73.84 466.89) rotate(-89.44)"/><rect class="cls-1" x="193.84" y="649.88" width="73.51" height="13.94" transform="translate(-549.64 875.98) rotate(-89.44)"/><rect class="cls-1" x="215.18" y="405.82" width="22.5" height="75.31" transform="translate(-340.55 660.26) rotate(-89.4)"/><rect class="cls-1" x="214.98" y="692.59" width="22.5" height="75.31" transform="translate(-627.49 943.83) rotate(-89.4)"/><rect class="cls-1" x="322.19" y="320.73" width="22.5" height="75.31" transform="translate(-149.57 683.06) rotate(-89.4)"/><rect class="cls-1" x="185.33" y="733.34" width="22.5" height="75.31" transform="translate(-697.57 954.5) rotate(-89.4)"/><rect class="cls-1" x="351.79" y="3.19" width="22.5" height="75.31" transform="translate(197.25 398.44) rotate(-89.4)"/><rect class="cls-1" x="195.3" y="497.72" width="73.51" height="13.94" transform="translate(-396.05 726.78) rotate(-89.44)"/><path d="M199.34,391.78a7,7,0,0,1,1.81-.22,2.34,2.34,0,0,1,2.1.89,3.52,3.52,0,0,1,.58,2.09,3,3,0,0,1-1.37,2.8v.05c.56.3.89,1.08,1.06,2.22a25.31,25.31,0,0,0,.57,3h-1a21.36,21.36,0,0,1-.48-2.63c-.22-1.51-.61-2.09-1.46-2.13h-.89v4.76h-.94Zm.94,5h1c1,0,1.64-.83,1.64-2.09s-.68-2-1.68-2.05a2.58,2.58,0,0,0-.93.13Z" transform="translate(-121.15 -5)"/><path d="M209.5,400.48c0,.81,0,1.53,0,2.15h-.84l0-1.29h0a2,2,0,0,1-1.73,1.47c-.82,0-1.81-.69-1.81-3.46v-4.61H206v4.37c0,1.5.31,2.51,1.17,2.51.64,0,1.08-.67,1.25-1.31a2.75,2.75,0,0,0,.09-.73v-4.84h.95Z" transform="translate(-121.15 -5)"/><path d="M214,402.63l-.08-1h0a1.85,1.85,0,0,1-1.6,1.18c-1.06,0-1.6-1.13-1.6-2.27,0-1.91,1.12-3,3.14-2.93v-.17c0-.65-.11-1.82-1.18-1.82a2,2,0,0,0-1.36.58l-.22-.94a2.46,2.46,0,0,1,1.72-.7c1.6,0,2,1.64,2,3.22v3a17.88,17.88,0,0,0,.09,1.89Zm-.14-4c-1,0-2.22.24-2.22,1.78,0,.93.41,1.37.9,1.37.68,0,1.11-.66,1.26-1.32a2.42,2.42,0,0,0,.06-.46Z" transform="translate(-121.15 -5)"/><path d="M216.29,396.87c0-.81,0-1.48,0-2.13h.84l0,1.3h0a2,2,0,0,1,1.72-1.48c.73,0,1.85.65,1.85,3.35v4.72h-1v-4.55c0-1.27-.31-2.33-1.21-2.33-.63,0-1.11.67-1.27,1.46a2.7,2.7,0,0,0-.07.67v4.75h-1Z" transform="translate(-121.15 -5)"/><path d="M226.79,394.74c0,.57,0,1.2,0,2.16v4.59a6.18,6.18,0,0,1-.74,3.6,2.25,2.25,0,0,1-1.91.94,2.5,2.5,0,0,1-1.73-.65l.23-1.09a2.27,2.27,0,0,0,1.54.62c1,0,1.68-.77,1.68-2.76v-.88h0a1.83,1.83,0,0,1-1.66,1.32c-1.3,0-2.23-1.66-2.23-3.84,0-2.68,1.16-4.19,2.36-4.19a1.79,1.79,0,0,1,1.63,1.37h0l0-1.19Zm-1,3.11a3.24,3.24,0,0,0-.05-.65c-.18-.83-.64-1.52-1.33-1.52-.91,0-1.56,1.16-1.56,3,0,1.55.52,2.84,1.55,2.84.58,0,1.11-.55,1.32-1.47a3.91,3.91,0,0,0,.07-.76Z" transform="translate(-121.15 -5)"/><path d="M230.53,400.9a2.56,2.56,0,0,0,1.68.72c1,0,1.52-.77,1.52-1.88a2.26,2.26,0,0,0-1.37-2.18,3.28,3.28,0,0,1-1.92-3.12c0-1.71.94-3,2.35-3a2.42,2.42,0,0,1,1.61.54l-.26,1.15a2.2,2.2,0,0,0-1.38-.52,1.47,1.47,0,0,0-1.37,1.65c0,1,.44,1.53,1.45,2.12a3.34,3.34,0,0,1,1.86,3.23c0,1.69-.84,3.16-2.55,3.16a2.84,2.84,0,0,1-1.86-.7Z" transform="translate(-121.15 -5)"/><path d="M237,392.52c0,.49-.23.88-.6.88s-.58-.39-.58-.88.25-.9.6-.9S237,392,237,392.52ZM236,402.63v-7.89h1v7.89Z" transform="translate(-121.15 -5)"/><path d="M243,391.05v9.54c0,.7,0,1.5,0,2h-.85l-.05-1.37h0a2,2,0,0,1-1.78,1.55c-1.27,0-2.24-1.62-2.24-4,0-2.63,1.07-4.24,2.35-4.24a1.7,1.7,0,0,1,1.57,1.2h0v-4.71Zm-.95,6.9a4.18,4.18,0,0,0-.05-.61c-.14-.91-.66-1.66-1.37-1.66-1,0-1.57,1.31-1.57,3.05s.52,2.92,1.55,2.92c.64,0,1.22-.64,1.39-1.71a4,4,0,0,0,.05-.62Z" transform="translate(-121.15 -5)"/><path d="M247.47,402.63l-.07-1h0a1.85,1.85,0,0,1-1.6,1.18c-1,0-1.59-1.13-1.59-2.27,0-1.91,1.12-3,3.14-2.93v-.17c0-.65-.12-1.82-1.19-1.82a2,2,0,0,0-1.36.58l-.22-.94a2.48,2.48,0,0,1,1.72-.7c1.6,0,2,1.64,2,3.22v3a15.55,15.55,0,0,0,.09,1.89Zm-.14-4c-1,0-2.21.24-2.21,1.78,0,.93.41,1.37.89,1.37.68,0,1.12-.66,1.27-1.32a2.4,2.4,0,0,0,.05-.46Z" transform="translate(-121.15 -5)"/><path d="M249.79,396.87c0-.81,0-1.48,0-2.13h.85l0,1.3h0a2,2,0,0,1,1.73-1.48c.72,0,1.85.65,1.85,3.35v4.72h-1v-4.55c0-1.27-.32-2.33-1.21-2.33-.63,0-1.12.67-1.28,1.46a3.33,3.33,0,0,0-.06.67v4.75h-1Z" transform="translate(-121.15 -5)"/><path d="M260.29,394.74c0,.57,0,1.2,0,2.16v4.59a6.09,6.09,0,0,1-.75,3.6,2.23,2.23,0,0,1-1.9.94,2.5,2.5,0,0,1-1.74-.65l.24-1.09a2.22,2.22,0,0,0,1.53.62c1,0,1.69-.77,1.69-2.76v-.88h0a1.85,1.85,0,0,1-1.67,1.32c-1.29,0-2.22-1.66-2.22-3.84,0-2.68,1.15-4.19,2.35-4.19a1.77,1.77,0,0,1,1.63,1.37h0l0-1.19Zm-1,3.11a2.61,2.61,0,0,0-.06-.65c-.17-.83-.64-1.52-1.33-1.52-.9,0-1.55,1.16-1.55,3,0,1.55.52,2.84,1.54,2.84.59,0,1.12-.55,1.32-1.47a3.92,3.92,0,0,0,.08-.76Z" transform="translate(-121.15 -5)"/><text x="-121.15" y="-5"></text><path d="M201.92,434.25h1.68v8.36h5.58v1h-7.26Z" transform="translate(-121.15 -5)"/><path d="M216.19,443.62l-.14-.84H216a4.1,4.1,0,0,1-2.86,1c-1.9,0-2.86-1-2.86-1.94,0-1.62,2-2.51,5.63-2.5v-.14c0-.55-.22-1.56-2.13-1.56a6.2,6.2,0,0,0-2.44.5l-.39-.8a7.67,7.67,0,0,1,3.08-.6c2.86,0,3.56,1.4,3.56,2.75V442a7.23,7.23,0,0,0,.15,1.61Zm-.26-3.43c-1.85,0-4,.21-4,1.51,0,.8.73,1.17,1.6,1.17a2.41,2.41,0,0,0,2.27-1.12,1,1,0,0,0,.09-.39Z" transform="translate(-121.15 -5)"/><path d="M220.25,443.62c0-.46.08-1.14.08-1.73v-8.14H222V438h0a4,4,0,0,1,3.2-1.24c2.32,0,4,1.39,3.94,3.44,0,2.4-2.11,3.6-4.19,3.6a3.75,3.75,0,0,1-3.14-1.27h-.06l-.07,1.11Zm1.77-2.69a1.62,1.62,0,0,0,.07.44,2.62,2.62,0,0,0,2.56,1.43,2.56,2.56,0,1,0,0-5.09,2.68,2.68,0,0,0-2.59,1.51,1.72,1.72,0,0,0-.09.5Z" transform="translate(-121.15 -5)"/><path d="M237.19,434.25v9.37h-1.68v-9.37Z" transform="translate(-121.15 -5)"/><path d="M248.55,440.2c0,2.49-2.4,3.58-4.66,3.58-2.54,0-4.49-1.34-4.49-3.47s2-3.57,4.64-3.57S248.55,438.14,248.55,440.2Zm-7.43.07a2.86,2.86,0,0,0,5.69,0,2.86,2.86,0,0,0-5.69,0Z" transform="translate(-121.15 -5)"/><path d="M252.47,435.28h-4v-1h9.65v1h-4v8.34h-1.7Z" transform="translate(-121.15 -5)"/><path d="M218.78,539.93a10.15,10.15,0,0,1-.18-2.18,3.23,3.23,0,0,1,.91-2.52,2.9,2.9,0,0,1,2-.65,2.73,2.73,0,0,1,2.64,1.7h.05a2.59,2.59,0,0,1,2.14-1.24,18.61,18.61,0,0,0,2.9-.63l0,1.18a16.89,16.89,0,0,1-2.52.53c-1.46.24-2,.7-2.08,1.72l0,1.07,4.55.09,0,1.13Zm4.8-1,0-1.16a1.86,1.86,0,0,0-2-2,1.81,1.81,0,0,0-2,2,4,4,0,0,0,.1,1.12Z" transform="translate(-121.15 -5)"/><path d="M227.32,527.85c.78,0,1.46,0,2.05,0v1l-1.24,0v0a2.32,2.32,0,0,1,1.36,2.11c0,1-.69,2.16-3.34,2.11l-4.41-.08,0-1.15,4.17.08c1.43,0,2.41-.32,2.43-1.36a1.71,1.71,0,0,0-1.22-1.53,2.18,2.18,0,0,0-.7-.12l-4.63-.09,0-1.15Z" transform="translate(-121.15 -5)"/><path d="M229.48,522.49l-.95.08v0a2.23,2.23,0,0,1,1.09,1.95,2,2,0,0,1-2.2,1.88c-1.83,0-2.8-1.41-2.73-3.84h-.16c-.62,0-1.75.11-1.77,1.39a2.71,2.71,0,0,0,.53,1.65l-.91.25a3.38,3.38,0,0,1-.63-2.08c0-1.93,1.62-2.37,3.13-2.34l2.82,0a11.5,11.5,0,0,0,1.81-.07Zm-3.85.1c-.06,1.25.18,2.67,1.64,2.7.89,0,1.32-.47,1.33-1a1.72,1.72,0,0,0-1.67-1.62Z" transform="translate(-121.15 -5)"/><path d="M224,519.6c-.78,0-1.42,0-2,0l0-1,1.25,0v0a2.3,2.3,0,0,1-1.38-2.11c0-.87.67-2.21,3.25-2.16l4.5.08,0,1.15-4.34-.09c-1.22,0-2.24.34-2.26,1.42a1.71,1.71,0,0,0,1.37,1.56,2.06,2.06,0,0,0,.64.09l4.53.09,0,1.15Z" transform="translate(-121.15 -5)"/><path d="M222.23,506.9c.55,0,1.16.08,2.07.09l4.38.09c1.73,0,2.78.34,3.43,1a3.05,3.05,0,0,1,.86,2.31,3.59,3.59,0,0,1-.67,2.09l-1-.31a3.17,3.17,0,0,0,.62-1.84c0-1.17-.69-2-2.59-2.08l-.84,0v0a2.18,2.18,0,0,1,1.22,2c0,1.56-1.64,2.65-3.73,2.61-2.55-.05-4-1.47-3.95-2.91a2.1,2.1,0,0,1,1.35-1.95v0l-1.13-.08Zm3,1.24a2.45,2.45,0,0,0-.63.06,1.73,1.73,0,0,0-1.48,1.57c0,1.09,1.07,1.9,2.82,1.93,1.48,0,2.72-.57,2.74-1.81a1.72,1.72,0,0,0-1.37-1.61,2.64,2.64,0,0,0-.73-.11Z" transform="translate(-121.15 -5)"/><path d="M219.5,502.19a13.44,13.44,0,0,1-.17-2.41,4.51,4.51,0,0,1,1.38-3.53,5.38,5.38,0,0,1,3.79-1.16,6.18,6.18,0,0,1,4.06,1.34,4.91,4.91,0,0,1,1.44,3.91,15.65,15.65,0,0,1-.17,2.05Zm9.31-.95a6,6,0,0,0,.1-1.14c.05-2.43-1.55-3.77-4.38-3.83-2.48-.06-4.08,1.08-4.12,3.48a5.6,5.6,0,0,0,.11,1.33Z" transform="translate(-121.15 -5)"/><path d="M226.31,487.93c2.78.05,4,1.69,3.94,3.21,0,1.71-1.55,3-3.94,2.95s-4-1.46-3.94-3.2S224,487.89,226.31,487.93Zm0,5c1.65,0,2.91-.74,2.93-1.86s-1.19-1.94-2.89-2c-1.28,0-2.91.48-2.93,1.83S224.85,492.9,226.29,492.93Z" transform="translate(-121.15 -5)"/><path d="M228.76,486.68a2.72,2.72,0,0,0,.58-1.5,1.09,1.09,0,0,0-1.1-1.24c-.66,0-1,.3-1.41,1.14a2.32,2.32,0,0,1-2.17,1.63,2.11,2.11,0,0,1-2.17-2.22A2.71,2.71,0,0,1,223,483l1,.31a2.15,2.15,0,0,0-.46,1.28,1,1,0,0,0,1,1.07c.62,0,.91-.36,1.3-1.17a2.33,2.33,0,0,1,2.3-1.61,2.15,2.15,0,0,1,2.22,2.4,3.2,3.2,0,0,1-.55,1.76Z" transform="translate(-121.15 -5)"/><path d="M226.76,480.69c1.85,0,2.63-1,2.66-2.11a3.6,3.6,0,0,0-.36-1.75l1-.18a4.39,4.39,0,0,1,.43,2.11c0,1.94-1.59,3.07-3.86,3s-4-1.2-4-3c0-2.06,2.22-2.56,3.6-2.54.28,0,.5,0,.64.05Zm-.92-3.38c-.87,0-2.23.26-2.26,1.55s1.25,1.69,2.2,1.8Z" transform="translate(-121.15 -5)"/><path d="M224.89,474.76c-.78,0-1.42,0-2,0l0-1,1.25,0v0a2.28,2.28,0,0,1-1.38-2.11c0-.87.67-2.21,3.25-2.16l4.5.09,0,1.14-4.34-.08c-1.22,0-2.24.33-2.26,1.41a1.7,1.7,0,0,0,1.37,1.57,2.9,2.9,0,0,0,.64.09l4.53.08,0,1.15Z" transform="translate(-121.15 -5)"/><path d="M322.19,326.19A9.5,9.5,0,0,1,322,324a3.22,3.22,0,0,1,.9-2.53,3,3,0,0,1,2-.65,2.76,2.76,0,0,1,2.65,1.71h0a2.64,2.64,0,0,1,2.15-1.25,20.5,20.5,0,0,0,2.89-.62l0,1.17a15.21,15.21,0,0,1-2.52.54c-1.45.23-2,.69-2.08,1.72l0,1.06,4.55.09,0,1.13Zm4.81-1,0-1.16a1.86,1.86,0,0,0-2-2,1.81,1.81,0,0,0-2,2,4.3,4.3,0,0,0,.1,1.12Z" transform="translate(-121.15 -5)"/><path d="M330.73,314.11c.78,0,1.46,0,2.06,0l0,1-1.24.05v0a2.34,2.34,0,0,1,1.37,2.11c0,1-.7,2.16-3.35,2.11l-4.41-.08,0-1.15,4.17.08c1.43,0,2.41-.32,2.43-1.36a1.71,1.71,0,0,0-1.22-1.53,2.5,2.5,0,0,0-.7-.12l-4.63-.09,0-1.14Z" transform="translate(-121.15 -5)"/><path d="M332.89,308.76l-.95.07v0a2.25,2.25,0,0,1,1.08,1.95,2,2,0,0,1-2.2,1.88c-1.82,0-2.8-1.4-2.73-3.84h-.16c-.62,0-1.75.11-1.77,1.4a2.75,2.75,0,0,0,.53,1.65l-.91.24a3.52,3.52,0,0,1-.63-2.08c0-1.93,1.62-2.37,3.13-2.34l2.82.06a14.56,14.56,0,0,0,1.81-.07Zm-3.85.09c-.06,1.25.18,2.68,1.64,2.7.89,0,1.32-.47,1.33-1.05a1.72,1.72,0,0,0-1.66-1.62Z" transform="translate(-121.15 -5)"/><path d="M327.44,305.86c-.78,0-1.41,0-2,0l0-1,1.25,0v0a2.29,2.29,0,0,1-1.38-2.11c0-.87.67-2.21,3.25-2.16l4.5.08,0,1.15-4.34-.08c-1.22,0-2.24.33-2.26,1.41a1.71,1.71,0,0,0,1.37,1.57,2.9,2.9,0,0,0,.64.09l4.53.08,0,1.15Z" transform="translate(-121.15 -5)"/><path d="M325.65,293.16c.54,0,1.15.08,2.07.1l4.37.08c1.73,0,2.79.34,3.43,1a3.05,3.05,0,0,1,.86,2.31,3.57,3.57,0,0,1-.67,2.09l-1-.31a3.1,3.1,0,0,0,.62-1.84c0-1.17-.69-2-2.59-2.08h-.84v0a2.21,2.21,0,0,1,1.22,2c0,1.56-1.64,2.65-3.73,2.61-2.55-.05-4-1.47-3.94-2.91a2.06,2.06,0,0,1,1.34-1.94v0l-1.13-.07Zm3,1.25a2.09,2.09,0,0,0-.63,0,1.73,1.73,0,0,0-1.48,1.57c0,1.1,1.07,1.9,2.82,1.93,1.48,0,2.72-.57,2.74-1.81a1.72,1.72,0,0,0-1.37-1.61,3,3,0,0,0-.73-.11Z" transform="translate(-121.15 -5)"/><path d="M322.92,288.46a13.57,13.57,0,0,1-.18-2.42,4.5,4.5,0,0,1,1.38-3.52,5.33,5.33,0,0,1,3.79-1.17,6.18,6.18,0,0,1,4.06,1.34,4.92,4.92,0,0,1,1.44,3.91,16,16,0,0,1-.17,2.06Zm9.3-1a5.87,5.87,0,0,0,.1-1.14c.05-2.42-1.55-3.77-4.38-3.82-2.48-.06-4.08,1.08-4.12,3.47a5.6,5.6,0,0,0,.11,1.33Z" transform="translate(-121.15 -5)"/><path d="M329.72,274.19c2.79.06,4,1.69,3.94,3.22,0,1.7-1.55,3-3.94,2.94s-4-1.45-3.94-3.2S327.41,274.15,329.72,274.19Zm0,5c1.65,0,2.91-.74,2.93-1.86s-1.19-1.93-2.89-2c-1.28,0-2.91.48-2.93,1.84S328.27,279.17,329.7,279.19Z" transform="translate(-121.15 -5)"/><path d="M332.17,273a2.7,2.7,0,0,0,.58-1.5,1.09,1.09,0,0,0-1.1-1.25c-.66,0-1,.31-1.41,1.15a2.31,2.31,0,0,1-2.17,1.62,2.11,2.11,0,0,1-2.17-2.22,2.81,2.81,0,0,1,.5-1.54l1,.31a2.15,2.15,0,0,0-.46,1.28,1,1,0,0,0,1,1.08c.62,0,.91-.37,1.3-1.18a2.34,2.34,0,0,1,2.3-1.61,2.16,2.16,0,0,1,2.22,2.4,3.17,3.17,0,0,1-.55,1.76Z" transform="translate(-121.15 -5)"/><path d="M330.17,267c1.85,0,2.63-1,2.66-2.11a3.6,3.6,0,0,0-.36-1.75l1-.18a4.42,4.42,0,0,1,.43,2.11c0,1.94-1.58,3.07-3.86,3s-4-1.19-4-3c0-2.06,2.22-2.56,3.6-2.54a5.83,5.83,0,0,1,.64.06Zm-.92-3.38c-.87,0-2.23.26-2.26,1.55s1.25,1.69,2.2,1.8Z" transform="translate(-121.15 -5)"/><path d="M328.3,261c-.78,0-1.42,0-2,0l0-1,1.25,0v0a2.3,2.3,0,0,1-1.38-2.11c0-.88.67-2.22,3.25-2.17l4.5.09,0,1.14-4.34-.08c-1.22,0-2.24.34-2.26,1.42a1.71,1.71,0,0,0,1.37,1.56,2.9,2.9,0,0,0,.64.09l4.53.09,0,1.14Z" transform="translate(-121.15 -5)"/><path d="M324.36,171a10.06,10.06,0,0,1-.18-2.17,3.26,3.26,0,0,1,.91-2.53,3,3,0,0,1,2-.65,2.74,2.74,0,0,1,2.64,1.71h.05a2.62,2.62,0,0,1,2.14-1.25,20.41,20.41,0,0,0,2.9-.62l0,1.17a15.21,15.21,0,0,1-2.52.54c-1.46.23-2,.69-2.08,1.72l0,1.06,4.55.09,0,1.13Zm4.8-1,0-1.16a1.86,1.86,0,0,0-2-2,1.81,1.81,0,0,0-2,2,3.89,3.89,0,0,0,.1,1.12Z" transform="translate(-121.15 -5)"/><path d="M332.9,158.89c.78,0,1.46,0,2.05,0v1l-1.24.05v0a2.33,2.33,0,0,1,1.36,2.11c0,1-.69,2.16-3.34,2.11l-4.41-.08,0-1.15,4.18.08c1.43,0,2.41-.32,2.43-1.36a1.71,1.71,0,0,0-1.22-1.53,2.5,2.5,0,0,0-.7-.12l-4.63-.09,0-1.14Z" transform="translate(-121.15 -5)"/><path d="M335.06,153.54l-.95.07v0a2.23,2.23,0,0,1,1.09,1.95,2,2,0,0,1-2.2,1.88c-1.83,0-2.8-1.4-2.73-3.84h-.16c-.62,0-1.75.11-1.77,1.4a2.75,2.75,0,0,0,.53,1.65l-.91.24a3.38,3.38,0,0,1-.63-2.08c0-1.93,1.62-2.37,3.13-2.34l2.82.06a14.56,14.56,0,0,0,1.81-.07Zm-3.85.09c-.06,1.25.18,2.68,1.64,2.7.89,0,1.32-.47,1.33-1.05a1.72,1.72,0,0,0-1.67-1.62Z" transform="translate(-121.15 -5)"/><path d="M329.61,150.64c-.78,0-1.42,0-2,0l0-1,1.25,0v0a2.29,2.29,0,0,1-1.38-2.11c0-.87.67-2.21,3.25-2.16l4.5.08,0,1.15-4.34-.08c-1.22,0-2.24.33-2.26,1.41a1.71,1.71,0,0,0,1.37,1.57,2.9,2.9,0,0,0,.64.09l4.53.08,0,1.15Z" transform="translate(-121.15 -5)"/><path d="M327.81,137.94c.55,0,1.16.08,2.07.1l4.38.08c1.73,0,2.78.34,3.43,1a3.05,3.05,0,0,1,.86,2.31,3.57,3.57,0,0,1-.67,2.09l-1-.31a3.17,3.17,0,0,0,.62-1.84c0-1.17-.69-2-2.59-2.08H334v0a2.21,2.21,0,0,1,1.22,2c0,1.56-1.64,2.65-3.73,2.61-2.55-.05-4-1.47-3.95-2.91a2.08,2.08,0,0,1,1.35-1.94v0l-1.14-.07Zm3,1.25a2.09,2.09,0,0,0-.63.05,1.73,1.73,0,0,0-1.48,1.57c0,1.1,1.07,1.9,2.82,1.93,1.48,0,2.72-.57,2.74-1.81a1.72,1.72,0,0,0-1.37-1.61,3.07,3.07,0,0,0-.73-.11Z" transform="translate(-121.15 -5)"/><path d="M325.08,133.24a13.56,13.56,0,0,1-.17-2.42,4.5,4.5,0,0,1,1.38-3.52,5.33,5.33,0,0,1,3.79-1.17,6.18,6.18,0,0,1,4.06,1.34,4.92,4.92,0,0,1,1.44,3.91,16,16,0,0,1-.17,2.06Zm9.31-1a5.87,5.87,0,0,0,.1-1.14c.05-2.42-1.55-3.77-4.38-3.82-2.48-.06-4.08,1.08-4.12,3.47a5.6,5.6,0,0,0,.11,1.33Z" transform="translate(-121.15 -5)"/><path d="M331.89,119c2.78.06,4,1.69,3.94,3.22,0,1.7-1.55,3-3.94,2.94s-4-1.45-3.94-3.2S329.58,118.93,331.89,119Zm0,5c1.65,0,2.91-.74,2.93-1.86s-1.19-1.93-2.89-2c-1.28,0-2.91.48-2.93,1.84S330.43,124,331.87,124Z" transform="translate(-121.15 -5)"/><path d="M334.34,117.73a2.78,2.78,0,0,0,.58-1.5,1.09,1.09,0,0,0-1.1-1.25c-.66,0-1,.31-1.41,1.15a2.32,2.32,0,0,1-2.17,1.62,2.11,2.11,0,0,1-2.17-2.21,2.74,2.74,0,0,1,.5-1.55l1,.31a2.15,2.15,0,0,0-.46,1.28,1,1,0,0,0,1,1.08c.62,0,.91-.36,1.3-1.18a2.34,2.34,0,0,1,2.3-1.61,2.16,2.16,0,0,1,2.22,2.4,3.17,3.17,0,0,1-.55,1.76Z" transform="translate(-121.15 -5)"/><path d="M332.34,111.73c1.85,0,2.63-1,2.65-2.11a3.5,3.5,0,0,0-.35-1.75l1-.18a4.42,4.42,0,0,1,.43,2.11c0,1.94-1.59,3.07-3.86,3s-4-1.19-4-3c0-2.06,2.22-2.56,3.6-2.54a5.83,5.83,0,0,1,.64.06Zm-.92-3.37c-.87,0-2.23.25-2.26,1.54s1.25,1.69,2.2,1.8Z" transform="translate(-121.15 -5)"/><path d="M330.47,105.81c-.78,0-1.42,0-2,0l0-1,1.25,0v0a2.3,2.3,0,0,1-1.38-2.11c0-.88.66-2.22,3.25-2.17l4.5.09,0,1.14-4.35-.08c-1.21,0-2.23.34-2.25,1.42a1.7,1.7,0,0,0,1.37,1.56,2.81,2.81,0,0,0,.64.09l4.53.09,0,1.14Z" transform="translate(-121.15 -5)"/><path d="M308.69,67.27h1.24v8.51H314v1h-5.34Z" transform="translate(-121.15 -5)"/><path d="M319.2,76.81l-.1-.86h0A2.58,2.58,0,0,1,317,77a2,2,0,0,1-2.11-2c0-1.66,1.48-2.56,4.14-2.55v-.14a1.41,1.41,0,0,0-1.56-1.59,3.45,3.45,0,0,0-1.8.51l-.29-.82a4.3,4.3,0,0,1,2.27-.61c2.11,0,2.62,1.43,2.62,2.81v2.56a9,9,0,0,0,.12,1.64ZM319,73.32c-1.37,0-2.92.21-2.92,1.54a1.1,1.1,0,0,0,1.18,1.19,1.72,1.72,0,0,0,1.67-1.15,1.34,1.34,0,0,0,.07-.39Z" transform="translate(-121.15 -5)"/><path d="M322.2,76.81c0-.46.05-1.16.05-1.77V66.76h1.24v4.3h0a2.58,2.58,0,0,1,2.36-1.26c1.71,0,2.92,1.42,2.9,3.5,0,2.45-1.55,3.67-3.09,3.67a2.45,2.45,0,0,1-2.31-1.29h0l-.06,1.13Zm1.29-2.74a2.22,2.22,0,0,0,.06.45A1.94,1.94,0,0,0,325.43,76c1.31,0,2.1-1.06,2.1-2.64,0-1.37-.71-2.54-2-2.54a2,2,0,0,0-1.91,1.53,2.27,2.27,0,0,0-.08.5Z" transform="translate(-121.15 -5)"/><path d="M334.68,67.27v4h4.65v-4h1.25v9.54h-1.25V72.34h-4.65v4.47h-1.24V67.27Z" transform="translate(-121.15 -5)"/><path d="M347.72,72.34H344v3.44h4.17v1h-5.41V67.27h5.19v1H344v3h3.74Z" transform="translate(-121.15 -5)"/><path d="M349.59,75.31a4.43,4.43,0,0,0,2.22.63c1.27,0,2-.67,2-1.63s-.51-1.4-1.81-1.9c-1.57-.55-2.54-1.36-2.54-2.7s1.25-2.6,3.11-2.6a4.41,4.41,0,0,1,2.13.47l-.34,1a3.88,3.88,0,0,0-1.83-.46c-1.31,0-1.81.78-1.81,1.43,0,.9.58,1.33,1.91,1.84,1.63.63,2.45,1.41,2.45,2.81S354,77,351.73,77a5,5,0,0,1-2.45-.61Z" transform="translate(-121.15 -5)"/><path d="M303,347.35h1.1v9.24h3.66v1.13H303Z" transform="translate(-121.15 -5)"/><path d="M312.35,357.72l-.09-.94h0a2.19,2.19,0,0,1-1.88,1.11,2,2,0,0,1-1.88-2.14c0-1.8,1.32-2.79,3.69-2.77v-.15c0-.62-.13-1.73-1.39-1.73a2.68,2.68,0,0,0-1.6.56l-.26-.9a3.35,3.35,0,0,1,2-.66c1.88,0,2.34,1.56,2.34,3v2.78a12.2,12.2,0,0,0,.1,1.79Zm-.17-3.8c-1.22,0-2.6.23-2.6,1.67,0,.88.48,1.3,1.05,1.3a1.6,1.6,0,0,0,1.49-1.25,2.12,2.12,0,0,0,.06-.43Z" transform="translate(-121.15 -5)"/><path d="M315,357.72c0-.51.06-1.26.06-1.93v-9h1.1v4.67h0a2.23,2.23,0,0,1,2.09-1.37c1.52,0,2.6,1.54,2.59,3.8,0,2.66-1.38,4-2.75,4a2.16,2.16,0,0,1-2.06-1.4h0l0,1.23Zm1.16-3a3.69,3.69,0,0,0,.05.49,1.83,1.83,0,0,0,1.68,1.59c1.16,0,1.86-1.15,1.86-2.86,0-1.49-.63-2.77-1.83-2.77a1.89,1.89,0,0,0-1.7,1.66,3.85,3.85,0,0,0-.06.55Z" transform="translate(-121.15 -5)"/><path d="M325,347.35h4.61v1.12h-3.5v3.45h3.24V353h-3.24v4.7H325Z" transform="translate(-121.15 -5)"/><path d="M336.34,353.93c0,2.76-1.58,4-3.06,4-1.66,0-2.95-1.48-2.95-3.83s1.35-4,3.05-4S336.34,351.66,336.34,353.93Zm-4.88.08c0,1.63.78,2.86,1.87,2.86s1.87-1.21,1.87-2.89c0-1.26-.52-2.86-1.85-2.86S331.46,352.59,331.46,354Z" transform="translate(-121.15 -5)"/><path d="M337.75,352.59c0-.87,0-1.63-.05-2.32h1l0,1.46h0a1.94,1.94,0,0,1,1.7-1.63,1.07,1.07,0,0,1,.32,0v1.28a1.15,1.15,0,0,0-.39-.05c-.78,0-1.34.72-1.49,1.74a3.93,3.93,0,0,0-.05.63v4h-1.11Z" transform="translate(-121.15 -5)"/><path d="M342.4,354.24c0,1.83,1,2.58,2.11,2.58a3.39,3.39,0,0,0,1.7-.38l.19,1a4.3,4.3,0,0,1-2,.46c-1.9,0-3-1.51-3-3.75s1.1-4,2.89-4c2,0,2.54,2.14,2.54,3.51,0,.28,0,.49,0,.63Zm3.28-1c0-.86-.3-2.2-1.55-2.2s-1.63,1.26-1.72,2.2Z" transform="translate(-121.15 -5)"/><path d="M348,356.33a2.58,2.58,0,0,0,1.47.54,1.07,1.07,0,0,0,1.2-1.11c0-.64-.32-1-1.15-1.37a2.28,2.28,0,0,1-1.62-2.1A2.07,2.07,0,0,1,350,350.1a2.7,2.7,0,0,1,1.51.46l-.28,1a2.08,2.08,0,0,0-1.26-.43,1,1,0,0,0-1,1c0,.62.37.89,1.17,1.26a2.31,2.31,0,0,1,1.61,2.25,2.11,2.11,0,0,1-2.29,2.23,3,3,0,0,1-1.73-.51Z" transform="translate(-121.15 -5)"/><path d="M354.52,348.13v2.14h1.6v1h-1.6v4c0,.92.21,1.44.84,1.44a1.94,1.94,0,0,0,.64-.09l.05,1a2.39,2.39,0,0,1-1,.18,1.4,1.4,0,0,1-1.2-.57,3.17,3.17,0,0,1-.43-1.94V351.3h-1v-1h1v-1.78Z" transform="translate(-121.15 -5)"/><path d="M357.9,350.27l1.34,4.4c.14.49.3,1.08.4,1.52h0c.12-.44.24-1,.4-1.55l1.21-4.37h1.18l-1.67,5.31c-.8,2.55-1.35,3.86-2.11,4.66a3,3,0,0,1-1.37.88L357,360a3,3,0,0,0,1-.66,4.36,4.36,0,0,0,.94-1.51,1.23,1.23,0,0,0,.09-.32,1.49,1.49,0,0,0-.08-.36l-2.27-6.86Z" transform="translate(-121.15 -5)"/><path d="M336.67,35l-.62,1.37h-.78l2-4.35h.92l2,4.35h-.82L338.76,35Zm1.93-.44L338,33.34a6.7,6.7,0,0,1-.3-.8h0c-.09.26-.19.53-.3.79l-.58,1.26Z" transform="translate(-121.15 -5)"/><path d="M341,34.25c0-.37,0-.69,0-1h.67l0,.62h0a1.27,1.27,0,0,1,1.17-.69l.22,0v.54l-.26,0a1,1,0,0,0-1,.73,1.1,1.1,0,0,0,0,.27V36.4H341Z" transform="translate(-121.15 -5)"/><path d="M346.17,36.4l-.06-.39h0a1.81,1.81,0,0,1-1.29.46c-.86,0-1.29-.44-1.29-.89,0-.76.91-1.17,2.54-1.17v-.06c0-.26-.1-.73-1-.73a2.54,2.54,0,0,0-1.1.24l-.18-.38a3.33,3.33,0,0,1,1.39-.28c1.3,0,1.61.66,1.61,1.28v1.17a3.42,3.42,0,0,0,.07.75Zm-.11-1.59c-.84,0-1.79.09-1.79.7,0,.37.33.54.72.54a1.06,1.06,0,0,0,1-.52.41.41,0,0,0,.05-.18Z" transform="translate(-121.15 -5)"/><path d="M348,31.81h.77v2h0a1.25,1.25,0,0,1,.55-.41,2.18,2.18,0,0,1,.79-.16,1.33,1.33,0,0,1,1.47,1.34V36.4h-.77V34.61a.85.85,0,0,0-1-.93,1.12,1.12,0,0,0-1,.56.61.61,0,0,0-.05.28V36.4H348Z" transform="translate(-121.15 -5)"/><path d="M354.78,32.1a10.65,10.65,0,0,1,1.46-.09,3,3,0,0,1,1.65.37,1,1,0,0,1,.51.91,1.11,1.11,0,0,1-.45.93,3,3,0,0,1-1.8.48,3.67,3.67,0,0,1-.61,0V36.4h-.76Zm.76,2.1a3.62,3.62,0,0,0,.63,0c.91,0,1.47-.33,1.47-.93s-.55-.85-1.39-.85a5.17,5.17,0,0,0-.71,0Z" transform="translate(-121.15 -5)"/><path d="M361.52,36.4l-.06-.39h0a1.83,1.83,0,0,1-1.29.46c-.86,0-1.3-.44-1.3-.89,0-.76.91-1.17,2.55-1.17v-.06c0-.26-.1-.73-1-.73a2.58,2.58,0,0,0-1.1.24l-.17-.38a3.3,3.3,0,0,1,1.39-.28c1.29,0,1.61.66,1.61,1.28v1.17a2.9,2.9,0,0,0,.07.75Zm-.12-1.59c-.84,0-1.79.09-1.79.7,0,.37.33.54.73.54a1.06,1.06,0,0,0,1-.52.39.39,0,0,0,0-.18Z" transform="translate(-121.15 -5)"/><path d="M363.39,34.25a9.62,9.62,0,0,0,0-1H364l0,.62h0a1.26,1.26,0,0,1,1.17-.69l.22,0v.54l-.26,0a1,1,0,0,0-1,.73,2,2,0,0,0,0,.27V36.4h-.76Z" transform="translate(-121.15 -5)"/><path d="M367,34.71h0c.11-.11.25-.25.38-.36l1.24-1.08h.92L368,34.56l1.86,1.84h-.93l-1.46-1.5-.4.33V36.4h-.76V31.81H367Z" transform="translate(-121.15 -5)"/><path d="M371.39,32.39c0,.2-.18.35-.49.35s-.46-.15-.46-.35.2-.35.48-.35S371.39,32.19,371.39,32.39Zm-.86,4V33.27h.77V36.4Z" transform="translate(-121.15 -5)"/><path d="M372.58,34.25a9.62,9.62,0,0,0,0-1h.68l0,.62h0a1.26,1.26,0,0,1,1.17-.69l.22,0v.54l-.26,0a1,1,0,0,0-1,.73,2,2,0,0,0,0,.27V36.4h-.76Z" transform="translate(-121.15 -5)"/><path d="M377.74,36.4l-.06-.39h0a1.83,1.83,0,0,1-1.29.46c-.86,0-1.3-.44-1.3-.89,0-.76.91-1.17,2.55-1.17v-.06c0-.26-.1-.73-1-.73a2.58,2.58,0,0,0-1.1.24l-.17-.38a3.3,3.3,0,0,1,1.39-.28c1.29,0,1.61.66,1.61,1.28v1.17a2.9,2.9,0,0,0,.07.75Zm-.12-1.59c-.84,0-1.79.09-1.79.7,0,.37.33.54.73.54a1.06,1.06,0,0,0,1-.52.39.39,0,0,0,0-.18Z" transform="translate(-121.15 -5)"/><path d="M379.61,34.12a7.35,7.35,0,0,0,0-.85h.69l0,.52h0a1.7,1.7,0,0,1,1.4-.59,1.34,1.34,0,0,1,1.49,1.33V36.4h-.77V34.6a.85.85,0,0,0-1-.92,1.09,1.09,0,0,0-1,.58.67.67,0,0,0-.05.26V36.4h-.77Z" transform="translate(-121.15 -5)"/><path d="M221.6,692a10.21,10.21,0,0,1-.18-2.18,3.22,3.22,0,0,1,.91-2.52,2.87,2.87,0,0,1,2-.65,2.72,2.72,0,0,1,2.65,1.7H227a2.62,2.62,0,0,1,2.14-1.25,17.82,17.82,0,0,0,2.9-.62l0,1.17a14.73,14.73,0,0,1-2.51.54c-1.46.24-2,.69-2.08,1.72l0,1.07,4.55.09,0,1.13Zm4.8-1,0-1.16a1.86,1.86,0,0,0-1.95-2,1.81,1.81,0,0,0-2,2,4,4,0,0,0,.1,1.13Z" transform="translate(-121.15 -5)"/><path d="M230.14,679.93c.77,0,1.46,0,2.05,0l0,1-1.23,0v0a2.35,2.35,0,0,1,1.36,2.11c0,1-.69,2.16-3.34,2.11l-4.41-.09,0-1.14,4.18.08c1.43,0,2.4-.32,2.42-1.36a1.7,1.7,0,0,0-1.21-1.54,2.23,2.23,0,0,0-.7-.11l-4.63-.09,0-1.15Z" transform="translate(-121.15 -5)"/><path d="M232.29,674.57l-.95.08v0a2.27,2.27,0,0,1,1.09,2,2,2,0,0,1-2.21,1.89c-1.82,0-2.79-1.41-2.73-3.84h-.15c-.63,0-1.75.11-1.77,1.4a2.67,2.67,0,0,0,.53,1.65l-.91.25a3.39,3.39,0,0,1-.63-2.09c0-1.92,1.62-2.36,3.13-2.33l2.82.05a12.64,12.64,0,0,0,1.8-.07Zm-3.85.1c-.05,1.25.19,2.67,1.65,2.7.89,0,1.32-.47,1.33-1.06a1.6,1.6,0,0,0-1.23-1.54,2.26,2.26,0,0,0-.44-.08Z" transform="translate(-121.15 -5)"/><path d="M226.85,671.68c-.78,0-1.42,0-2,0l0-1,1.24,0v0a2.29,2.29,0,0,1-1.38-2.11c0-.87.66-2.22,3.25-2.17l4.5.09,0,1.15-4.35-.09c-1.21,0-2.23.34-2.25,1.42a1.7,1.7,0,0,0,1.37,1.56,2,2,0,0,0,.64.09l4.53.09,0,1.14Z" transform="translate(-121.15 -5)"/><path d="M225.05,659c.55,0,1.15.07,2.07.09l4.38.09c1.73,0,2.78.34,3.42,1a3,3,0,0,1,.86,2.31,3.49,3.49,0,0,1-.66,2.08l-1-.3a3.17,3.17,0,0,0,.63-1.84c0-1.17-.69-2-2.59-2.08l-.84,0v0a2.18,2.18,0,0,1,1.22,2c0,1.56-1.64,2.65-3.73,2.61-2.55-.05-4-1.47-4-2.92a2.08,2.08,0,0,1,1.35-1.94v0L225,660Zm2.95,1.24a3,3,0,0,0-.62,0,1.75,1.75,0,0,0-1.48,1.58c0,1.09,1.07,1.89,2.82,1.93,1.47,0,2.72-.57,2.74-1.81a1.74,1.74,0,0,0-1.37-1.62,2.62,2.62,0,0,0-.73-.1Z" transform="translate(-121.15 -5)"/><path d="M222.32,654.27a13.44,13.44,0,0,1-.17-2.41,4.47,4.47,0,0,1,1.38-3.53,5.33,5.33,0,0,1,3.79-1.16,6.2,6.2,0,0,1,4.06,1.34,4.87,4.87,0,0,1,1.43,3.91,14.36,14.36,0,0,1-.16,2.05Zm9.31-.95a6,6,0,0,0,.1-1.15c0-2.42-1.55-3.76-4.39-3.82-2.47-.06-4.07,1.08-4.11,3.48a5.16,5.16,0,0,0,.11,1.33Z" transform="translate(-121.15 -5)"/><path d="M229.12,640c2.79,0,4,1.69,3.95,3.21,0,1.71-1.56,3-3.94,2.95s-4-1.46-3.94-3.2S226.82,640,229.12,640Zm0,5c1.65,0,2.91-.74,2.93-1.86s-1.19-1.94-2.89-2c-1.28,0-2.91.48-2.94,1.83S227.67,645,229.11,645Z" transform="translate(-121.15 -5)"/><path d="M231.58,638.76a2.67,2.67,0,0,0,.57-1.5,1.08,1.08,0,0,0-1.1-1.24c-.65,0-1,.3-1.4,1.14a2.35,2.35,0,0,1-2.17,1.63,2.11,2.11,0,0,1-2.17-2.22,2.71,2.71,0,0,1,.5-1.54l1,.31a2.15,2.15,0,0,0-.46,1.28,1,1,0,0,0,1,1.07c.62,0,.91-.36,1.3-1.17a2.32,2.32,0,0,1,2.3-1.61,2.15,2.15,0,0,1,2.21,2.4,3.11,3.11,0,0,1-.54,1.76Z" transform="translate(-121.15 -5)"/><path d="M229.57,632.77c1.86,0,2.64-1,2.66-2.11a3.5,3.5,0,0,0-.35-1.75l1-.18a4.37,4.37,0,0,1,.43,2.1c0,1.94-1.59,3.07-3.86,3s-4-1.2-4-3c0-2.06,2.22-2.57,3.6-2.54.28,0,.5,0,.64.05Zm-.91-3.38c-.87,0-2.24.26-2.26,1.55s1.25,1.69,2.19,1.8Z" transform="translate(-121.15 -5)"/><path d="M227.71,626.84c-.78,0-1.42,0-2,0l0-1,1.24,0v0a2.28,2.28,0,0,1-1.37-2.11c0-.87.66-2.21,3.25-2.16l4.5.08,0,1.15-4.35-.08c-1.21,0-2.23.33-2.25,1.41a1.69,1.69,0,0,0,1.37,1.56,2,2,0,0,0,.64.09l4.53.09,0,1.15Z" transform="translate(-121.15 -5)"/><path d="M198.83,715.39h1.33v6.93h4.43v.85h-5.76Z" transform="translate(-121.15 -5)"/><path d="M210.16,723.17l-.11-.71h0a3.17,3.17,0,0,1-2.28.83c-1.51,0-2.27-.79-2.27-1.6,0-1.35,1.6-2.09,4.47-2.08v-.11c0-.47-.17-1.3-1.69-1.3a4.73,4.73,0,0,0-1.94.42L206,718a5.86,5.86,0,0,1,2.45-.5c2.27,0,2.83,1.17,2.83,2.29v2.09a6.12,6.12,0,0,0,.12,1.34Zm-.2-2.85c-1.48,0-3.15.17-3.15,1.25,0,.66.58,1,1.28,1a1.88,1.88,0,0,0,1.79-.93.8.8,0,0,0,.08-.33Z" transform="translate(-121.15 -5)"/><path d="M213.39,723.17c0-.38.07-.95.07-1.45V715h1.33v3.51h0a3.08,3.08,0,0,1,2.54-1,2.86,2.86,0,0,1,3.14,2.85,3.07,3.07,0,0,1-3.34,3,2.9,2.9,0,0,1-2.49-1h0l-.06.93Zm1.4-2.24a1.59,1.59,0,0,0,.06.37,2.08,2.08,0,0,0,2,1.18,2.11,2.11,0,1,0,.05-4.22,2.12,2.12,0,0,0-2.06,1.25,1.49,1.49,0,0,0-.08.41Z" transform="translate(-121.15 -5)"/><path d="M225.52,723.17v-7.78H227l3.32,3.93a21.22,21.22,0,0,1,1.86,2.53h0a26.75,26.75,0,0,1-.15-3.2v-3.25h1.26v7.78h-1.36l-3.29-3.95a23.51,23.51,0,0,1-1.93-2.6l-.05,0c.08,1,.11,1.91.11,3.2v3.33Z" transform="translate(-121.15 -5)"/><path d="M244.5,719.2c0,2.67-2.17,4.09-4.82,4.09S235,721.7,235,719.35s2-4.09,4.82-4.09S244.5,716.89,244.5,719.2Zm-8.05.12a3.32,3.32,0,1,0,3.33-3.24A3.1,3.1,0,0,0,236.45,719.32Z" transform="translate(-121.15 -5)"/><path d="M246.05,721.94a5.92,5.92,0,0,0,2.4.51c1.37,0,2.17-.54,2.17-1.33s-.55-1.14-2-1.54c-1.69-.45-2.74-1.11-2.74-2.21s1.34-2.11,3.35-2.11a6.14,6.14,0,0,1,2.29.38l-.36.82a5.2,5.2,0,0,0-2-.37c-1.42,0-2,.64-2,1.17,0,.73.64,1.08,2.06,1.5,1.76.51,2.65,1.14,2.65,2.28s-1.18,2.24-3.63,2.24a6.9,6.9,0,0,1-2.64-.49Z" transform="translate(-121.15 -5)"/><path d="M179.87,762.29l-.72,1.45h-.92l2.34-4.61h1.07l2.35,4.61h-1l-.73-1.45Zm2.25-.47-.67-1.32a7.06,7.06,0,0,1-.36-.84h0a8.21,8.21,0,0,1-.35.83l-.67,1.33Z" transform="translate(-121.15 -5)"/><path d="M184.94,761.46c0-.39,0-.72,0-1h.79l0,.65h0a1.5,1.5,0,0,1,1.37-.73l.25,0v.57l-.3,0a1.16,1.16,0,0,0-1.21.77,1.26,1.26,0,0,0,0,.28v1.77h-.89Z" transform="translate(-121.15 -5)"/><path d="M191,763.74l-.07-.42h0a2.25,2.25,0,0,1-1.51.49c-1,0-1.52-.47-1.52-.95,0-.8,1.07-1.23,3-1.23v-.07c0-.27-.12-.76-1.13-.76a3.36,3.36,0,0,0-1.28.24l-.21-.39a4.23,4.23,0,0,1,1.63-.3c1.51,0,1.87.69,1.87,1.36V763a2.81,2.81,0,0,0,.09.79Zm-.13-1.69c-1,0-2.1.1-2.1.74,0,.39.39.58.85.58a1.31,1.31,0,0,0,1.2-.55.49.49,0,0,0,.05-.2Z" transform="translate(-121.15 -5)"/><path d="M193.16,758.88h.89V761h0a1.46,1.46,0,0,1,.64-.42,2.39,2.39,0,0,1,.92-.18c.66,0,1.72.28,1.72,1.42v2h-.9v-1.9c0-.54-.29-1-1.14-1a1.34,1.34,0,0,0-1.2.6.48.48,0,0,0-.07.29v2h-.89Z" transform="translate(-121.15 -5)"/><path d="M206.26,763.53a8.91,8.91,0,0,1-2.11.26,4.74,4.74,0,0,1-2.58-.61,2,2,0,0,1-1-1.72c0-1.37,1.42-2.38,3.73-2.38a6.41,6.41,0,0,1,1.72.21l-.22.49a5.11,5.11,0,0,0-1.52-.2c-1.67,0-2.77.7-2.77,1.85s1,1.86,2.66,1.86a4.12,4.12,0,0,0,1.18-.12V761.8H204v-.48h2.27Z" transform="translate(-121.15 -5)"/><path d="M207.5,763a4.25,4.25,0,0,0,1.59.3c.91,0,1.44-.32,1.44-.78s-.37-.68-1.3-.92c-1.12-.26-1.81-.65-1.81-1.3s.89-1.26,2.22-1.26a4.26,4.26,0,0,1,1.52.23l-.24.49a3.65,3.65,0,0,0-1.31-.22c-.94,0-1.29.37-1.29.69s.41.64,1.36.89c1.17.3,1.76.67,1.76,1.35s-.79,1.33-2.41,1.33a4.9,4.9,0,0,1-1.76-.3Z" transform="translate(-121.15 -5)"/><path d="M217.89,763.53a8.84,8.84,0,0,1-2.11.26,4.69,4.69,0,0,1-2.57-.61,2,2,0,0,1-1-1.72c0-1.37,1.42-2.38,3.73-2.38a6.38,6.38,0,0,1,1.71.21l-.21.49a5.14,5.14,0,0,0-1.53-.2c-1.67,0-2.76.7-2.76,1.85s1.05,1.86,2.65,1.86a4.26,4.26,0,0,0,1.19-.12V761.8h-1.4v-.48h2.26Z" transform="translate(-121.15 -5)"/></svg>