<?xml version="1.0" encoding="utf-8"?>
<!-- Generator: Adobe Illustrator 22.1.0, SVG Export Plug-In . SVG Version: 6.00 Build 0)  -->
<svg version="1.1" id="Layer_1" xmlns="http://www.w3.org/2000/svg" xmlns:xlink="http://www.w3.org/1999/xlink" x="0px" y="0px"
	 viewBox="0 0 612 792" style="enable-background:new 0 0 612 792;" xml:space="preserve">
<style type="text/css">
	.st0{fill:none;stroke:#000000;stroke-width:0.3;}
	.st1{opacity:0.5;enable-background:new    ;}
	.st2{font-family:'ArialMT';}
	.st3{font-size:12.1335px;}
	.st4{font-size:13.0108px;}
	.st5{font-size:6.7407px;}
	.st6{font-size:11.6919px;}
</style>
<g>
	<g>
		<g>
			<g>
				<path d="M103.4-2.9c-3.4,0-3.4,0-3.4,3c0,0.3,0,0.7,0,1c-0.1,12.1-0.3,24.5-0.4,36.4c0,1.4-0.1,2.9,0,4.3
					c0.1,0.9,0.9,1.7,1.9,1.8c2.9,0.1,6,0.1,9,0.1c2.5,0,2.5,0.1,2.5,2.3c0,0.3,0,1.3,0,1.3l-1,124.3c0,0,0,1,0,1.5
					c-0.1,1.6-0.1,1.7-2,1.7c-2.8,0-5.5,0-8.3-0.1c-3.9,0-3.9,0-4,3.4c-0.3,20.9-0.4,41.8-0.7,62.7c0,0.5,0,0.7,0,1.3
					c0.1,1.7,0.4,2,2.5,2c2.6,0.1,5.2,0,7.8,0.1c2,0,3.8,1.6,3.8,3.4c-0.4,40.2-0.9,80.2-1.4,120.4c0,3.6,0.3,3.3-4.1,3.3
					c-26.9-0.2-53.9-0.5-80.8-0.7c-3.7,0-3.7,0-3.8,3.4c0,0.5,0,0.8,0,1.3l-1,83.2c-0.4,27.9-0.6,55.7-1,83.6c0,0.7,0,1.3,0,2
					c-0.1,1-1.1,1.9-2.4,1.8c-4.4,0-8.6-0.1-13-0.1c-2.8,0-2.8,0-3,2.4c-0.3,21.3-0.5,42.6-0.7,64c0,2.5,0.3,2.6,3.4,2.7
					c4,0,12.6,0,12.6,0s2.8,0.2,2.2,2.9v0.5c0.2,40.9-0.3,81.7-1,122.5v1.7c0.3,0.9-1.1,1.5-1.1,1.5h-3.3c0,0-5.4-0.4-8-0.4
					c-4,0-4-0.4-4.6,2.3v0.5c0.4,14.2,0.2,28.5,0,42.7v1.5c0.1,0.8,1.4,1.4,1.4,1.4h2.3c0,0,26.7,0,40.1,0.2
					c32.7,0.3,65.4,0.6,98,0.9c3.3,0,3.3,0,3.5-3c0-0.1,1.2,0,0.7,0v-41.5c0.8-0.5,0.8-1,0.6-1.5c-0.1-1.6-0.4-1.9-2.2-2
					c-2.3-0.1-4.5,0-6.7-0.1c-4.4,0-4,0.3-4-3.5c0.4-40.8,1.3-122.2,1.3-122.2s0,0.3,0-0.2c0.1-1.7,0.1-1.8,2-1.8
					c2.9,0,5.9,0.1,8.9,0.1c4,0,4.4-3.4,4.4-3.4s0.4-43.6,0.7-65.1c0-0.4,0,0,0-0.5c0-1.9-0.1-2-2.3-2c-2.8-0.1-5.4,0-8.1-0.1
					c-4.4,0-3.5,0.2-3.7-4.7c-0.8-39.8,0.1-79.5,1.3-119.3c0.1-4.6-0.6-4.3,3.8-4.3c31.7,0.3,63.6,0.6,95.3,0.9c0.8,0,1.5,0,2.3,0
					c2,0,2.2-0.1,2.3-2c0.1-3.7,0.1-7.4,0.1-11.1c0.1-10.1,0.3-20.2,0.3-30.4c0-2.5,0-2.5-2.8-2.5c-3.4,0-6.9-0.1-10.4-0.1
					c-2.9,0-2.9,0-3.1-2.8c0-0.3,0-0.8,0-0.8s0.7-80.9,1-121.6v-1.5c0.2-1.9,0.4-1.9,2.6-2.2H242c2.5,0.4,2.8,0.2,2.9-2
					c0.3-21.5,0.4-43.1,0.7-64.5c0-2.2-2.5-2.5-2.5-2.5h-12.7c0,0-2.2,0-2.3-2v-1c0.4-41.3,0.9-82.3,1-123.6v-1.7
					c0.4-0.8,1.9-1.8,1.9-1.8h3.5c0,0,4.5,0.6,6.7,0.6c4.7-0.2,4.7,0.5,4.9-2.3v-0.5c-0.1-13.6,0.2-27.3,1-40.9V0.5
					c-0.7-0.8-2.1-1.5-2.1-1.5s-2.5,0-3.3,0c-13.7-0.1-27.3-0.2-40.8-0.4C168.9-2.3,136.1-2.6,103.4-2.9z M122,414.2
					c0.3,0.7,0.3,1.1-0.7,1.2c-0.7,0.1-1.3,0-1.9,0c-0.9,0-1.3-0.5-1.3-1.3c-0.3-1.8,0-2.3,1.7-2.7c-0.3-0.4-0.7-0.5-1.2-0.6
					c-1.2-0.4-1.6,1.1-1.6,1.1s0,0,0,0.3c-0.2,3.1,0.2,2.7-3.5,2.8c-0.3,0-0.7,0-1,0c-2.7-0.2-2.8,0-2.8-2.2
					c0.1-6.4,0.1-12.9,0.2-19.4c0-0.6,0-1.1,0-1.6c0-1.7-0.4-2.1-2.3-2c-1.4,0.2-2.5-0.6-3.9-0.4c1,0.8,2.5,1,3.6,1.4
					c2.5,0.8,1.2,2.7,0,9.2c-0.7,3.5-0.3,7.2,0.7,10.6c1,3.4,0.7,4.6-1.4,4.5c-0.6,0-1.2,0-1.7,0c-25.9-0.2-51.9-0.5-77.9-0.7
					c-3.8,0-3.5,0-3.5-3.2c0.1-11.7,0.3-23.4,0.3-35.1c0-0.5,0-1,0-1.5c-0.1-1,0.4-1.6,1.7-1.5c0.6,0,2,0,2,0s51.9,0.8,77.7,1h0.6
					c2.9,0,2.9,0,2.9,2.5c0,0.9-0.1,1.9,0,2.7c0.1,1.3-0.6,1.8-1.9,2.1c-1.9,0.4-3.8,0.2-5.6,0.1c-3.5,0-4.2-0.2-2.9,3.8
					c0.1,0.3,0.4,0.5,0.7,0.8c-0.4-3-0.4-3,3.1-3c1.9,0,3.9,0,5.8-0.3c1.7-0.3,1.9-1,1.7-2.7c-0.1-0.6-0.1-1.2,0-1.8
					c0.3-4-0.3-4.1,2.3-4.2h0.8c4,0,4,0,4.4,3.5c0.1,1.5,0.1,1.5,1.7,1.1c-0.6-0.4-0.6-1-0.4-1.6c0.1-1,0.3-2,0.3-3
					c0-0.5-0.4-1.3-0.3-1.7c0.6-0.6,1.6-0.3,2.4-0.2c1.9,0,3.9,0,6,0.1c0.8,0,1.3,0.3,1.2,1.1c-0.4,1.2-0.4,2.5-0.4,3.7
					c0,1-0.8,1.3-1.6,1.3c0.3,0.4,0.7,0.5,1.2,0.7c1,0.4,1.6,0.1,1.7-0.9v-0.5c0.2-3.3,0.2-3.3,3.8-3.3c34.1,0.3,68.1,0.6,102.3,0.9
					c4.1,0,3.8-0.2,3.7,3.5c-0.1,11.5-0.8,34.4-0.8,34.4v1.5c0,0,0.4,1.7-1.7,1.3h-1.3c-34.3,0.2-68.4-0.1-102.6,1h-0.8
					c-2.9-1.4-2.9-1.4-2.9-3.9c0-0.8,0.4-1.9-0.4-2.3c-0.9-0.3-2.3,0.1-2.9,1.2c0.8,0.2,1.9-1.1,2.2,0.6c0.3,1.7-0.1,2.7-1.2,2.9
					c-1.5,0.3-2.3-0.1-2.8-1.5c-1-0.9-1.5-2.4-3.3-2.6C120.4,412.4,121.6,412.9,122,414.2z M130,372.9c0.1-0.9,1.3-0.5,2-0.6
					c0.3,0,0.8,0,1.2,0.1c0.4,0.1,0.9,0.3,0.8,0.8c-0.1,0.4-0.3,0.5-0.8,0.6c-0.4,0.1-0.8,0.1-1.2,0.1
					C131.3,373.6,130,374.1,130,372.9z M113.7,415.9c0.9,0.2,2.4-0.3,2.4,0.8c0,1.1-1.3,0.7-2.3,0.7s-2.3,0.4-2.3-0.8
					C111.5,415.4,113,416.2,113.7,415.9z M110.7,429.5c0,0.5-0.1,1.1-0.8,1.1c-0.8,0-0.8-0.6-0.8-1.1c0-3.4,0.1-6.9,0.1-10.4
					c0-0.5,0.3-1,0.3-1.5s0.1-1.2,0.8-1.1c0.8,0.1,0.3,0.8,0.3,1.3c0,1.8,0,3.7-0.1,5.6l0,0C110.7,425.5,110.7,427.5,110.7,429.5z
					 M24.7,460.3c-3.1,0-3.1,0-3.1-2.8c0.1-12.9,0.3-26,0.4-39.1c0-0.5,0-1.6,0-1.6s0.4-1.3,1.3-0.8h2.3c26.4-0.3,52.8,0,79.2,0.2
					c1.2,0,2.4-0.6,3.3,0.6c-1,0.7-2,0.4-3.1,0.4c-26-0.2-52-0.5-78-0.7c-4,0-3.8-0.2-3.8,3.4c-0.1,11.8-0.3,23.5-0.2,35.3v2
					c-0.2,0.9,1.4,1.8,1.4,1.8h1.9c0,0,52.6,0.2,78.8,0.4c3.5,0,3.5,0,2.9-3.1v-10.2c0.7-0.6,0.7-1.1,0.8-1.7c0-0.2,0.3-0.4,0.6-0.5
					c0.4-0.1,0.8,0.1,0.8,0.5c0.1,0.6-0.3,1.7-0.3,1.7s-0.1,7.9-0.1,11.9c0,2.8,0,2.8-3.1,2.8c-13.8-0.1-27.6-0.3-41.4-0.4
					C51.9,460.5,38.4,460.4,24.7,460.3z M109,461.8c0.6,0,0.7,0.4,0.8,0.9c0,1.7,0,3.5-0.1,5.2c0,1.7,0,3.5-0.1,5.2
					c0,0.5-0.3,0.9-0.8,0.9c-0.6,0-0.7-0.4-0.8-0.9c0-3.5,0.1-7,0.1-10.6C108.3,462.2,108.5,461.8,109,461.8z M25.4,503h-1.6
					c-2.5,1-2.5,1-2.5-1.2c0.1-12.9,0.3-25.8,0.4-38.7c0-0.5,0-1,0.1-1.5c0-0.2,0.3-0.5,0.6-0.4c0.1,0.1,0.3,0.2,0.3,0.3
					c0.1,1.3,0.1,2.7,0,4c-1.3,10.3-1.7,20.7-0.3,31c0.1,1.3,0,2.5,0.1,3.8C22.4,502.6,22.7,502.8,25.4,503
					c11.3,0,22.5,0.1,33.9,0.2c15,0.1,30.2,0.3,45.2,0.8h1.3c2.3-0.4,2.4-0.5,2.1-2.5v-11.7c0.4-0.7,0-2.1,1.1-2.1
					c1.5,0,0.9,1.4,0.9,2.2c0,4,0,8.2-0.1,12.2c0,2.5,0,2.5-2.8,2.5c-13.9-0.1-27.7-0.3-41.6-0.4C52.1,504.3,38.8,504.2,25.4,503z
					 M108.9,505.2c0.8,0,0.8,0.5,0.8,1.1c0,1.7,0,3.5,0.2,5.2l0,0v4.9c-0.3,0.5-0.4,0.9-1.2,0.9c-0.6,0-0.8-0.4-0.8-0.8V506
					C108.2,505.7,108.3,505.2,108.9,505.2z M21,544.8v-14.5c-0.1-7.8,0.1-15.6,0.1-23.4c0-0.6-0.3-1.7,0.4-1.7
					c1.2,0,0.7,1.2,0.7,1.8c-0.1,12.2-0.3,24.5-0.4,36.6c0,3.5,3.7,3.4,3.7,3.4H104c0,0,0.6,0.6,0.8,0.6c2.9,0,2.9,0,2.1-2.4l1-10.7
					V533c0,0-0.3-1.3,0.7-1.3s1.3,1.4,1.3,1.4v14c0,0-1.2,1.7-2.6,1.7c-0.8-0.1-1.5,0-2.3-0.8H64.7c-13.5,0.3-27.1,0.2-40.7,0
					C20.6,547.8,20.6,548,21,544.8z M5.2,614.3c-2.6,0-2.8,0-2.6-2.4c0.1-9.3,0.6-27.8,0.6-27.8l0.8-3.7v-30.3c0.4,0-0.6-1.3-0.6-2
					c0-0.9,0.4-1.4,1.5-1.1h13.5c0.3-0.2,0.8-0.2,0.8,0.3s-0.4,0.5-0.8,0.5c-3.1,0-6.1-0.1-9.3,0c-0.8,0-1.7-0.1-2.5,0
					c-1.7,0.1-2,0.4-2.2,2c0,0.5,0.1,1.5,0.6,1.5v58.5c-0.5,0-1.5,0.9-1.4,1.3c0,2,0.3,2.3,2.6,2.3c3.3,0.1,6.6,0.1,9.9,0.1
					c0.7,0,1.3,0.1,1.9,0.2c0.1,0,0.3,0.2,0.3,0.3c0,0.1-0.1,0.3-0.3,0.3c-0.6,0.1-1.2,0.1-1.6,0.1C12.7,614.4,8.9,614.4,5.2,614.3z
					 M102.3,562.4c-0.9,7.9,1.5,6-6,6.6c-0.1,0-0.3,0-0.3,0c-1.3-0.3-2.4,0.1-2.2,1.1c0.3,1.2,0.3,2.5,1.6,3.4c-1-3.6-1-3.5,2.9-3.6
					c1.6-0.1,3.3,0.6,4.8-0.2c0.7-0.4,1.1,0.4,1,1.1c0,1.5,0,2.9,0,4.4c0.2,0.8-0.2,0.9-0.9,1c-1.5,0.2-2.9,0.1-4.4-0.5
					c-0.7-0.3-1.3-0.7-2-0.7c0.7,1.3,2.2,1.4,3.5,1.8c1.3,0.5,1.9,1.8,1.3,3c-0.3,0.5-0.6,0.6-1.2,0.6c-0.8,0-1.5,0.1-2.3,0
					c-29.9-0.3-59.8-0.5-89.8-0.8c-3.8,0-3.5,0.2-3.5-3.5c0.1-8,0.3-16,0.3-24.1c0-0.5,0-1,0-1.5c0.1-1.5,0.3-1.6,2-1.7
					c0.6,0,1.2,0,1.6,0c29.8,0.3,59.6,0.5,89.5,0.8c5,0,3.1-0.4,3.8,7.9C102.5,559.4,102.5,560.9,102.3,562.4z M104.3,549.8
					c0.3,0,0.6,0.2,0.6,0.4c0.1,0.4,0.1,0.8,0.1,1.2c0,4.7-0.1,9.5-0.1,14.2c0,0.6,0.3,1.6-0.8,1.6c-1,0-0.8-0.9-0.8-1.6
					c0-2.3,0-4.7,0.1-7.1c0-2.3,0-4.5,0.1-6.8c0-0.5,0.1-1,0.1-1.5C103.7,550,104.2,549.8,104.3,549.8z M95.3,587.1
					c-2.3,0-2.4,0.4-1.6,2.6c0-0.9,0.3-1.5,1.6-1.6c2.7-0.1,5.5,0.3,8-0.2c0.6-0.1,0.9,0.3,0.9,0.7c0,2.1,0,4.1-0.1,6.3
					c0,0,0,0.1-0.1,0.1c-1.6,0-3,0-4.6,0c3.6,1.7,1.6,0.7,2.6,10.9c0,0.1,0-0.3,0-0.3s0.8,8.4-2.7,8.5c-6.1-0.1-12.4-0.1-18.4-0.2
					c-24.3-0.2-48.4-0.4-72.6-0.7c-3.5,0-3.5,0-3.5-3.2c0.1-8.3,0.3-16.5,0.2-24.7v-1.7c0.1-0.9,0.6-1.3,1.7-1.5h1.9
					c30,0.5,90,1,90,1s0.6,0,0.9,0c2.4,0.1,2.5,0.2,2.4,2.3c-0.1,1.7-0.1,1.8-2,1.9C98.5,587.1,96.8,587,95.3,587.1z M103.3,596.2
					c0.3,0,0.6,0.2,0.6,0.4c0.1,0.4,0.1,0.8,0.1,1.2c0,4.7-0.1,9.5-0.1,14.2c0,0.6,0.3,1.6-0.8,1.6c-1,0-0.8-0.9-0.8-1.6
					c0-2.3,0-4.7,0.1-7.1c0-2.3,0-4.5,0.1-6.8c0-0.5,0.1-1,0.1-1.5C102.8,596.4,103.2,596.2,103.3,596.2z M103,585.5
					c0-1.3,0-2.7,0-3.9c0-1.1,0-2.3,0-3.5c0-0.4,0.3-0.6,0.8-0.6c0.3,0,0.8,0.3,0.7,0.6c0,2.5,0,4.9-0.1,7.5c0,0.4-0.3,0.6-0.8,0.6
					C103.3,586.2,103.1,585.9,103,585.5z M82.5,582c-9.9-0.1-19.6-0.2-29.4-0.3c-15-0.1-30.2-0.3-45.1-0.4c-0.9,0-1.9-0.1-2.8-0.2
					c-0.1,0-0.4-0.3-0.4-0.5s0.3-0.5,0.4-0.5C6.1,580,7.1,580,8,580c26.2,0.2,52.3,0.5,78.4,0l12.4,1h1.3c0.7-0.1,1.9-0.4,1.9,0.5
					c0,0.8-1,0.7-1.9,0.7C94.3,582.1,88.4,582,82.5,582z M23,659h-0.8c0,0-2.2-0.2-2.6-6.2c-0.7-11.3-0.7-22.5,0.3-33.8
					c0.4-5.7-0.8-5.8,2.9-5.8c13.9,0.1,27.7,0.3,41.6,0.4l0,0c13.5,0.1,27,0.2,40.4,0.5h1.9c1.9,0,1.9,0.1,1.2,1.7l1,11.3
					c0,0,0-0.1,0,0.1c-0.1,0.5-0.1,1.1-0.9,1c-0.6-0.1-0.7-0.5-0.7-0.9c0-2.4,0-4.8-0.1-7.3c-0.1-1,0-1.9,0.1-2.9
					c0.1-1.3-0.4-1.9-1.9-1.9c-0.7,0-1.3,0-1.9,0c-26.2-0.2-52.4-0.5-78.7-0.7c-3.5,0-3.5,0-3.5,3.1c-0.1,12-0.3,24-0.3,35.8
					c0,0.6,0,2.2,0,2.2s0.7,1.7,1.7,1.5h1.6c26.2,0.4,78.8,1,78.8,1h0.6c0,0,2.9-0.1,2.3-2.6v-11.6c0.6-0.6,0.4-1.6,1.5-1.6
					c1,0,0.8,1,0.5,1.6v13.6c0.2,1.9,0.1,1.9-2,1.9c-13.6-0.1-27.3-0.2-40.9-0.4c-0.7,0-1.3,0-1.9-0.3c-0.9-0.5-1.6-0.9-2.5-0.2
					c-0.1,0.1-0.3,0.1-0.3,0.1c-2.4-0.8-4.9,0.4-7.3,0.3C43,659.1,23,659,23,659z M22.4,703c0,0-1.4,0-2,0c-0.9,0-1.4-0.5-1.4-1.4
					c0-0.4,0-0.8,0-1.3c0.1-12.6,0.2-25.3,0.4-37.9c0-0.7-0.4-2.1,0.5-2.1s0.4,1.3,0.4,2.1c-0.1,11.7-0.2,23.4-0.3,35
					c0,0.7,0,0.6,0,1.3c0.1,1.6,0.4,1.9,2.2,2c0.6,0.1,1.2,0,1.6,0c26.3,0.2,52.5,0.5,78.7,0.7c1.9,0,3.5-1.4,3.5-3.1
					c0-3.3,0-10.2,0-10.2s0-1.1,0-1.7c0-0.2,0.3-0.5,0.6-0.5c0.4-0.1,0.8,0.1,0.8,0.5c0.1,0.5,0.1,1,0.6,1.5v12.7
					c-0.6,2.3-0.7,2.3-3.4,2.3c-14-0.1-27.8-0.3-41.8-0.9L22.4,703z M18.5,743.3c0-0.7-0.1-1.3,0-2c0.1-5.9,0.1-11.9,0.3-17.8
					c0.1-5.8,0.1-11.6,0.2-17.3v-2c0-0.3,0.1-0.8,0.5-0.8c0.7-0.1,0.6,0.5,0.6,0.9c0.1,0.6,0,1.1,0,1.7c-0.1,9.1-0.3,18.1,0,27.2
					v8.5c-0.4,0.6-0.4,1.1-0.5,1.7c0,0.3-0.1,0.5-0.6,0.5C18.6,743.9,18.5,743.6,18.5,743.3z M110.2,743.2c-2.2,0-2.2-0.1-2.2-2
					c0-4.1,0.1-8.4,0.1-12.2c0-1.8,0-1.7-2-2.3c-1.4-0.4-2.7-0.2-4.1-0.3c-0.6,0-1.2,0-1.7-0.5c-0.8,0.6-0.6,1.2,0.3,1.3
					c1.1,0.2,2,0.2,3,0.1c1.5,0,2.1,0.6,1.4,3c0,2.9-0.1,7-0.1,10.2c0.7,2.3,0.4,3.5-1.2,3.5c-0.7,0-1.5,0-2.2,0
					c-25.4-0.2-50.7-0.5-76.3-0.7c-3.9,0-3.5,0.2-3.5-3.4c0.1-11.6,0.3-23.2,0.3-34.8c0-0.5,0-1,0-1.5c-0.1-1.1,0.4-1.7,1.9-1.6
					c0.7,0,1.8,0,1.8,0s50.7,0.3,76.3,0.5c4.4,0,3.5-0.3,4.1,4.7v4c-0.6,4.3-0.1,4.3-3.4,4.8H102c-0.9-0.3-1.9-0.8-2.5,0.2
					c-0.4,0.9,0,1.7,0.9,2.4c-0.1-1.3,0.8-1.5,1.9-1.5c1.6,0.1,3.1,0,4.7-0.4c0.9-0.3,0.7-1.4,0.7-1.4l1.3-1.5l0.3-26.2
					c-0.1-0.5-0.3-1-0.1-1.5c0-0.9-0.3-1.3-1.3-1.6c-1.5-0.4-3-0.4-4.5-0.5c-0.9,0-1.9,0.3-2.6-0.5c-0.8,0.7-0.7,1.3,0.3,1.4
					c1.2,0.2,2.3,0.2,3.5,0.1c1.7,0,2.3,0.6,1.5,3.4c-0.1,3.2-0.1,6.3-0.3,9.5c0.8,2.4,0.6,3.7-1.2,3.7c-0.7,0-1.3,0-1.9-0.4
					l-77.6-0.7c-3.7,0.3-3.7,0.5-3.5-2.8c0.1-11.8,0.3-23.5,0.3-35.3c0-0.6,0-1.1,0-1.7c0-0.9,0.4-1.4,1.5-1.4c0.4,0,1,0,1,0
					s20,0.5,29.8,0.6c0.8,0,1.6-0.1,2.2,0.4c0.3-0.1,0.8-0.1,1.3-0.1c0.1,0,0.3,0.1,0.4,0.1c-0.1-0.1-0.1-0.1-0.1-0.1
					c0.1-0.1,0.3-0.1,0.4-0.1c0.1,0,0.1,0.1,0.3,0.1c-0.1,0.1-0.3,0.1-0.4,0.1c0.3,0.1,0.8,0.1,1.2,0.1c0.3,0,0.6,0.1,0.8,0.1
					l0.3,0.1c0.7,0.1,1.3,0.1,2,0.3c0.6-0.9,1.5-0.9,2.5-0.8c7.1,0.1,14.1,0.1,21.1,0.2c5.7,0.1,11.5,0.1,17.2,0.2
					c2.5,0,2.5,0.1,2.5,2.3v8.7c-0.1,2.1-0.2,2.1-2.6,1.8h-1.2c-0.9,0.5-2,0-2.5,1c-0.4,0.9,0,1.7,0.9,2.4c0-1.9,0-1.9,2.2-2
					c1.2,0,2.4,0.1,3.5-0.2c2-0.4,1.6-2.2,1.6-2.2v-12.5c0,0,0.7-11.1,0.9-16.6c0-2,0-1.9-2.2-2.5c-1.5-0.4-2.9-0.2-4.5-0.3
					c-0.7,0-1.3,0-1.9-0.5c-0.8,0.7-0.7,1.3,0.3,1.4c1.2,0.2,2.3,0.2,3.5,0.1c1.7,0,2.3,0.6,1.5,3.3c-0.1,3.1-0.1,6.2-0.3,9.4
					c0.8,2.4,0.6,3.6-1.2,3.6c-0.6,0-1.6,0.1-1.6,0.1s-52-0.5-77.9-0.5h-1.2c-2-0.3-2.2-0.4-2.2-2.3c0.1-5.5,0.1-10.9,0.3-16.3
					c0.1-6.8,0.1-13.5,0.3-20.4c0-2.4,0-2.4,2.6-2.4c26.4,0.2,52.8,0.5,79.2,0.7c2.4,0,2.5,0.1,2.3,2.3v8.7c0,2.1-2.4,2.8-2.4,2.8
					s-0.2,0-0.5,0c-0.9,0.1-1.9-0.4-2.4,0.6c-0.4,0.9,0,1.7,0.9,2.4c0-1.9,0-1.9,1.7-2c1.4,0,2.9,0,4.2-0.2c0.9-0.2,1.4-0.9,1.4-1.6
					l0.1-13.3c0-1.2-0.5-1.7-1.7-1.6c-0.4,0-0.9,0-1.3-0.1c-0.8-0.1-1.1-0.5-1.1-1.2c0-0.6,0-2.3,0-2.3v-58.4c0,0,0-0.3,0-0.9
					c-0.1-1.1,0.4-1.7,1.8-1.8c3.1-0.2,3.2-0.3,3.2-3.1c0-5.2,0.1-9.3,0.1-14.2c0-2.2-0.4-2.7-3-2.8c-1.1-0.1-2.1,0-3.3,0
					c-1.9,0-1.9,0-1.9-2.1c-0.6,0.3-0.9,0.9-1.1,1.6c-0.3,0.9,0.1,1.6,1.2,1.7s2.1,0.1,3.3,0c1.4,0,2,0.5,1.7,2.4
					c0,3.7-0.1,7.6-0.1,11.1c0.3,1.7,0.1,2.8-1.5,2.7c-0.6,0-1.2,0-1.6,0c-25.9-0.2-51.8-0.5-77.7-0.7c-3.5,0-3.5,0-3.5-3
					c0.1-11.6,0.3-23,0.3-34.6c0-0.4,0-1.8,0-1.8s0.1-1.7,1.9-1.9h0.3c10.3,0.1,20.8,0.2,31.2,0.3c1.2,0,1.9,0.2,1.9,1.2
					c0.3-0.1,0.7-0.1,1-0.1l0,0c0,0,0.8,0.9,1.2,0.8c0.3-0.1,0.6-0.1,0.8-0.1c0-0.1,0-0.1,0.1-0.2c0.1,0.1,0.1,1,0.1,1h0.1
					c0,0,1.3-1.1,2-1.1c0.3,0,0.4,0,0.6,0.1c0.3-0.3,0.8-0.4,1.3-0.4c2.5,0,5.1,0,7.6,0.1c9.9,0.1,30,0.3,30,0.3s1.3-0.3,1.9-0.3
					c1.3-0.1,1.9,0.6,1.9,1.7v9.7c-0.1,1.7-0.2,1.7-2.3,1.8c-1,0.1-2-0.1-3.1,0.1c-1,0.2-1,0.8-0.3,1.4c0.3-0.4,1-0.5,1.5-0.3h2.8
					c3.8-0.3,4.1-0.6,4.1-3.9c0.1-9.2,0.3-18.3,0.3-27.4c0-2.9-0.3-3.1-3.3-3.4c-1-0.1-2,0-3.1-0.1c-1.3-0.1-1.6-0.5-0.9-1.6
					c0.3-0.5,0.6-0.9,0.6-1.3c-0.6,0.2-1,0.5-1.3,0.9c-0.4,0.9-1.3,1.8-0.8,2.8c0.4,1,1.9,0.8,2.8,0.8c3.1,0.1,4.1,2.8,4.1,2.8v11
					c0,0-1.1,2-3.3,2c-13.5-0.1-27-0.2-40.4-0.4c-0.8,0-1.3-0.1-1.7-0.3c-0.6,0.2-1.6-0.3-1.6-0.9h-1.3c-0.4,0.6-0.8,0.5-1.2,0.4
					c-0.4-0.1-0.8-0.1-1.3-0.3c-0.1,0-0.1,0-0.1-0.1c-0.3,0.3-0.8,0.5-1.6,0.5c-5.6-0.3-16.8-0.5-16.8-0.5s-8.3-0.1-12.6-0.1
					c-2.6,0-2.6-0.1-2.5-2.4c0.1-10.3,0.3-20.6,0.3-31c0-1.7,0-3.6,0.1-5.5c0.1-2,0.1-2,2.5-2c0.3,0-0.8,0-0.3,0
					c26.1,0.2,52,0.5,78.1,0.7c4.1,0,3.4,0,3.4,4.3c0,1.7,0,3.4-0.1,5.1c-0.1,3.9,0.3,3.9-3,3.9c-0.7,0-1.5-0.1-2.2,0
					c-1,0.2-1,0.8-0.3,1.4c0.3-0.4,0.9-0.5,1.5-0.5c0.9,0,1.9,0,2.8,0c3.8-0.1,4.2-0.4,4.2-3.8c0.1-9.2,0.3-18.6,0.3-27.8
					c0-3-0.3-3.2-3.4-3.5c-1-0.1-2.1,0-3.2-0.1c-1.4-0.1-1.6-0.5-0.9-1.6c0.3-0.5,0.6-0.9,0.6-1.3c-0.6,0.2-1,0.5-1.3,0.9
					c-0.4,0.9-1.3,1.8-0.9,2.9c0.4,1,1.7,0.7,2.8,0.8c3.2,0.1,3.2,0.1,3.2,2.9c0,3.7-0.1,8.5-0.1,12.1c0,1.9-0.1,1.9-2.3,2
					c-2.2,0-4.2,0-6.4-0.4l-70.8-0.6c-0.6,0.3-1.2,0.3-1.6,0.3c-2.8,0-2.9,0-2.8-2.5l0.3-35.5c0-1.5,1.5-2.7,3.2-2.7l72.9,0.7
					c1.9,0,3.9,0,5.9,0.1c1.6,0,1.9,0.7,1.6,2.4c0,2.9,0,5.9,0,9c0.1,1.3-0.4,1.8-1.8,1.8c-0.9,0-1.8,0-2.6,0c-1.9,0-2.3,0.5-1.7,2
					c0.1,0.4,0.4,0.7,0.9,1c-0.1-1,0.4-1.5,1.7-1.5c1.6,0,3,0,4.6-0.3c1.4-0.3,1.9-0.8,1.9-2c0-3,1-9.6,1-9.6v-1.7
					c-0.9-0.9-0.3-1.3,0.7-1.9h2.5c0.9,0.6,1.9,0.6,2.3-0.4c0.3-0.8,1.2-1,2-1c2,0,4.1,0,6.1,0.1c0.7,0,1.5,0,1.3,0.8
					c-0.1,1.2,1.5,1.5,1.5,1.5s1.5,0,2.6,0c1.2,0,1.7,0.4,1.7,1.5c0,0.7,0,1.5,0.3,2.3l-1.6,123.3c-0.3,3.8-0.3,3.8,3.8,3.8
					c2.6,0,5.1,0,7.5,0.1c2.2,0,2.3,0.1,2.3,2.1c0,0.3,0,0.7,0,1l-0.6,56.8c0,1.7-1.6,3.1-3.6,3l-6.6-0.1c-3.2,0-3.2,0-3.2,2.9
					c0,0.5,0,1,0,1.5c-0.4,41.2-0.9,82.2-1.4,123.4c0,3.5,0.3,3.3-3.6,3.3C121.4,743.3,115.8,743.2,110.2,743.2z M107.1,743.1
					c0,0.5,0.1,1.2-0.7,1.3c-0.8,0.1-0.7-0.7-1.5-1.1v-1.1l1-8.8v-0.9c-0.2-0.5-0.5-1.4,0.4-1.5c0.9-0.1,0.7,0.8,0.8,1.4
					c0.1,1.2-0.3,2.5,0.8,3.5c-0.6,1.1-0.3,0.5-0.8,1.7l0,0C107.1,739.5,107.1,741.3,107.1,743.1z M106.7,704.1
					c0.6,0,0.7,0.4,1.3,0.9v10.6c-0.7,0.5-0.9,0.9-1.5,0.9s-0.7-0.4-0.7-0.9c0-1.8,0-3.7,0.2-5.6V705
					C106,704.5,106.2,704.1,106.7,704.1z M61.7,659.9c0,0.1,0,0.3,0.1,0.4c-0.1,0-0.3,0-0.4-0.1c0,0-0.1-0.1,0-0.2
					C61.2,659.9,61.5,659.8,61.7,659.9z M107.3,660.3c0.6,0,0.7,0.4,0.7,0.9c0,3.5-0.1,7-0.1,10.6c0,0.5-0.3,0.9-0.8,0.9
					s-0.7-0.4-0.7-0.9c0-1.7,0-3.5,0.1-5.2c0-1.7,0-3.5,0.1-5.2C106.7,660.7,106.9,660.3,107.3,660.3z M109,486.8l-0.3-0.1l0.3-0.1
					V486.8z M110,443v-0.2l0.3,0.1L110,443z M114.5,746c2.3,0,4.7,0,7,0.1c1.9,0.1,2,0.4,1.6,1.8c-0.3,0.9-0.3,1.8-0.3,2.7
					c-0.1,1.8-0.1,1.8-2.3,1.5c0.4,1.2,1.9,1,2.9,1.2c0.7,0.1,1-0.5,1-1c0.1-0.8,0.1-1.7,0.1-2.5c-0.1-1.4,0.8-1.9,2.9-1.5
					c4,0.7,8.2,0.7,12.1,0.1c2.3-0.3,3.5,1.5,3.5,1.5v1.5v36.8c0,0,0,0.8,0,1.4c0,0.7-0.7,1.4-1.6,1.4c-0.7,0-1.3,0-1.9,0
					c-44.5-0.4-89-0.8-133.4-1.2c-1.9,0-3.6-1.4-3.5-3.2C2.7,774.4,2.8,762.2,3,750c0-0.6,0-1.1,0-1.7c0-0.9,0.6-1.3,1.6-1.3
					c0.6,0,1.8,0,1.8,0s68.2,0.7,102.4,1h1.6c1,0,1.5,0.5,1.6,1.4v2.7c-0.1,1.1,0.4,1.2,1.5,1c1.3-0.3,2.8-0.8,3.5-2
					c0.8-1.1,1.3-0.5,2.3-0.1c-0.1-0.4-0.3-0.8-0.3-1.2c-0.3-0.6-0.6-1.2-0.9-1.8c-0.7,0.4-0.3,1.2-0.8,1.7c-0.3,0.5-0.7,1-1.2,1.4
					c-0.6,0.6-1.5,1.3-2.3,1c-0.9-0.3-0.4-1.3-0.4-2c-0.1-0.8,0-1.7-0.3-2.5C112.8,746.1,112.9,746.1,114.5,746z M238.4,373.3
					c2.3,0,2.3,0.1,2.4,2.2c-0.1,9.2-0.8,27.6-0.8,27.6v13.5c0,0,0.3,2-1.9,2.4h-2.3c-31.6-0.6-94.3-1-94.3-1s-1.2,0-1.7,0
					c-3.4,0-3.4,0-3.4,3c-0.4,41.3-0.9,82.6-1.3,123.9c0,3.1,0,3.1,3.3,3.1c2.9,0,8.8,0,8.8,0s1.9,0.5,1.9,2.1v1.5
					c-0.2,20.3-0.3,40.8-1,61.1v1c0.3,2.2-2.1,2.3-2.1,2.3h-9.6c0,0-1.9-0.1-1.9,1.5c-0.1,0.7,0,1.3,0,2
					c-0.3,20.7-0.4,41.5-0.7,62.1s-0.4,41.3-0.7,61.9c0,0.9-0.3,2.1,0,2.7c0.7,0.9,2.5,0.2,3.5,0.4c1.9,0.4,3.7,0.4,5.5,0.1
					c2-0.4,2.9,0.1,3,1.6v1.5c-0.2,13.5,0,40.5,0,40.5s0,0.8,0,1.4c0,0.9-0.6,1.3-1.6,1.3c-0.7,0-1.4,0-1.9,0
					c-45.8-0.4-91.7-0.8-137.4-1.2c-3.7,0-3.5,0-3.5-3.2c0.1-13.4,0.3-26.9,0.4-40.3c0-0.6,0-1.2,0-1.7c0-1,0.4-1.6,1.7-1.5
					c0.7,0,1.8,0,2.4,0c34.5,0.3,68.8,0.6,103.2,0.9c0.9,0,2.8-0.6,2.9,0.6c0.1,0.7-1.9,0.4-2.8,0.4c-33.9-0.3-67.9-0.6-101.9-0.9
					c-4.1,0-4.1,0-4.1,3.6c-0.1,12.6-0.3,25-0.4,37.6c0,0.5,0,1,0,1.5c0,1.7,0.3,2.1,2.2,2.2c0.6,0,1.2,0,1.6,0
					c44.7,0.4,89.2,0.8,133.9,1.2c3.9,0,3.9,0,3.9-3.4c0.1-12.8,0.3-25.6,0.4-38.4c0-0.2,0-0.1,0-0.1s-0.6-2.5-3.4-3.3l-12.4,1
					c0,0-1,0-1.6,0c-0.4,0-1.2,0.1-1-0.5c0.1-0.5,0.8-0.4,1.2-0.5c1.3-0.1,3.1,0.6,4-0.4c0.6-0.7,0.1-2.3,0.1-3.4
					c0.4-41.5,0.9-82.9,1.3-124.5c0-3.8-0.3-3.5,4-3.4c2.5,0,5.1,0.1,7.6,0.1c2,0,2.4-0.3,2.5-2.2c0.1-1.3,0-2.5,0-3.7
					c0.3-18.5,0.4-36.9,0.6-55.4c0-0.6,0-1.2,0-1.7c0-2.2,0-2.2-2.5-2.3c-3.1,0-9.7,0-9.7,0s-2.2-0.7-1.8-2.6v-2
					c0-40.9,0.5-81.8,1-122.6v-1.5c-0.1-2.4,0.6-3.2-3.2-3c-0.3,0-0.6,0-0.8-0.1c-0.6-0.1-0.9-0.3-0.9-0.7c0.1-0.5,1-0.5,1-0.5h2.5
					c0,0,68.5,0.4,102.6,0.7c4.1,0,3.9,0.3,3.9-3.3c0.1-11.8,0.3-23.5,0-35.3v-1.3c0.4-2.1,0.3-2.1-2.1-1.7h-9.3
					c-0.8-0.6-2-0.3-2.2-1.2c-0.1-1.3,1.3-0.8,2.2-0.8C231.5,373.1,234.8,373.2,238.4,373.3z M224.3,332.1c0.1,0.6,0.1,1.1,0.1,1.7
					c-0.1,12.7-0.3,25.5-0.4,38.1v0.7c-0.1,1.7-0.1,1.7-2.2,1.8c-0.7,0-1.9-1.4-1.9-1.4h-40.3h-40.4c-0.7,0.7-1.3,0.6-1.9,0.7
					c-1.2,0.1-1.9-0.4-1.7-1.4c0-4.4,0.6-13.5,0.6-13.5v-0.3c0,0-0.3-0.7,0.3-0.7c0.1,0,0.3,0.3,0.3,0.5c0.1,0.6,0.1,1.1,0.4,1.7
					v9.7c-0.5,2.3-0.5,2.3,2.1,2.4c11.4,0.1,34-0.1,34-0.1h45.5c0,0,1.5,0.8,2.3,0.8c1,0,1.6-0.5,2.1-1.4v-2
					c-0.4-11.8-0.2-23.5-0.1-35.3c0-0.7,0.1-1.5,0.3-2.3c0-0.2,0.3-0.5,0.6-0.5C224,331.5,224.3,331.6,224.3,332.1z M224.9,288.8
					c0.1,0.6,0.1,1.1,0,1.7c-0.1,12.6-0.3,25.3-0.4,37.9c0,2.7,0,2.7-2.9,2.6c-8.9-0.1-17.9-0.2-27,0H180c-13.5-0.4-27.1-0.5-40.7-1
					h-1.9c-1,0.3-1.6-0.1-1.4-1.1v-13.7c-0.1-0.3-0.1-0.8,0.3-0.8c0.7,0,0.6,0.5,0.7,0.9v9.7c-0.2,4.4-0.6,3.6,5.2,3.8
					c24.8,0.2,49.4,0.5,74.2,0.7c6.4-0.2,6.1,0.9,6.3-3.3c0.1-11.8,0.3-23.5,0.3-35.3c0-0.7,0-1.5,0.1-2.3c0-0.4,0.3-0.6,0.8-0.6
					C224.6,288.2,224.9,288.5,224.9,288.8z M223.3,291.5c-0.1,11.4-0.3,22.8-0.3,34.2c0,0.4,0,0.7,0,1.1c-0.1,2.1-0.1,2.1-2.3,2.2
					c-0.4,0-0.9,0-1.4,0c-25.9-0.2-51.8-0.5-77.8-0.7c-3.9,0-3.6,0.2-3.6-3.3c0-2.9,0.1-5.7,0.1-8.6c0-2.4,0-2.4,2.6-2.4
					c0.4,0,0.9,0,1.3,0c2.2,0,2.6-0.7,1.9-2.5c-0.3-0.6-0.6-1.3-1.3-1.5c1,3,1,3-2.4,3c-0.6,0-1.2,0-1.6,0c-2.8,0.2-3.2,0.5-3.2,3
					c-0.1,9.4-0.3,18.7-0.3,28c0,2.5,0.4,2.9,3.2,3c0.4,0,0.9,0,1.3,0c3.8,0,3.8,0,2.6,3.1c1-0.3,1.3-1.2,1.6-2
					c0.4-1.4,0-1.9-1.7-2.1c-1.3-0.1-2.9,0.4-3.8-0.4c-1-0.9-0.4-2.4-0.4-3.7c0-3,0-6.1,0.1-9.1c0-1.6,0.1-1.7,2-1.7
					c0.6,0,0.5,0,0.9,0c25.9,0.2,51.9,0.5,77.8,0.7c3.9,0,3.7-0.2,3.7,3.3c-0.1,11.6-0.3,23.2-0.3,34.7c0,0.5,0,1,0,1.5
					c-0.1,1.5-0.1,1.6-2,1.7c-0.6,0-1.2,0-1.6,0c-25.9-0.2-51.9-0.5-77.8-0.7c-3.7,0-3.6,0.2-3.6-3.1c0-3.2,0-9.9,0-9.9
					s0.9-1.8,2.8-2.2h2.3c1.6,0.2,2.2-0.3,1.7-1.8c-0.3-1.1-1.2-1.9-1.9-2.7c-1.2-1-1.2-1,0-2.3c-0.6,0.1-1,0.3-1.6,0.5
					c-0.8,0.3-1.6,0.5-2.3,0.7c0.6,0.6,1.5,0.6,2.2,0.9c1.3,0.6,2.4,1.6,3.1,2.8c0.3,0.6,0,1-0.7,1.1c-0.9,0.1-1.9,0-2.8,0
					c-0.8,0-1.7,0-2.5,0.1c-1.9,0.3-2,0.6-2.3,2.4v9.8c0.2,3.6-3.6,3.5-3.6,3.5s-10.6-0.1-16-0.1c-2.3,0-2.3-0.1-2.4-2.1
					c0-0.7,0-1.3,0-2c0.4-40.7,0.9-81.3,1.3-121.8c0-3.6,0.3-3.5-3.7-3.5c-2.6,0-5.2,0-7.8-0.1c-1.3,0-1.9-0.4-1.8-1.6
					c0-0.5,0-1.6,0-2.1c0.2-19.2,0.4-38.3,0.7-57.4c0-3.3-0.2-3.2,3.5-3.1c2.7,0,5.3,0,8,0.1c1.2,0,1.9-0.4,1.8-1.6
					c0-0.7,0-1.9,0-2.7c0.4-42.2,0.9-84.4,1.3-126.6c0-3.7-0.3-3.4,3.7-3.4c5.2,0,10.3,0.1,15.4,0.1c2.8,0,2.9,0,2.9,2.6
					c-0.1,12.8-0.2,25.5-0.4,38.3c-0.3,29.4-0.7,58.5-0.9,87.9c0,0.4,0,0.9,0,1.3c-0.1,1.1,0.4,1.7,1.8,1.7c0.3,0,1.1,0,1.1,0
					s1.9,0.1,1.1,1.7v1.3c0.7,7.3,0.7,14.6,0.5,22c0.4,2.7,0.5,8.1,0.5,8.1v5.4c0,0-0.4,1.3,0,2v20.7c-0.1,0-0.9,0.7-0.9,1
					c-0.1,2-0.1,2-2.4,2.1c-2,0.1-2,0.2-2,1.9c-0.1,4.6-0.1,9.4-0.1,14c0,1.2,0.3,1.7,1.7,2.1c1.6,0.3,3.1,0.3,4.7,0.4
					c0.8,0,1.7-0.1,1.9,1c0.7-1.7,0.6-1.9-0.9-2c-0.8-0.1-1.6,0-2.5,0c-2-0.1-2.4-1.8-2.4-1.8s0.1-7.5,0.1-11.3
					c0-1.1,0.4-1.7,1.8-1.7c0.6,0,1.2,0,1.6,0c25.7,0.2,51.6,0.5,77.3,0.7c3.9,0,3.5-0.2,3.5,3.4c-0.1,11.6-0.3,23-0.3,34.6
					c0,0.3,0,0.7,0,0.9c0,2.4,0,2.4-2.6,2.4c-0.3,0-0.8,0-1.2,0c-25.6-0.2-51.1-0.5-76.7-0.7c-3.8,0-3.5,0.2-3.5-3.2
					c0-2.8,0.1-5.9,0.1-8.7c0-2.4,0-2.4,2.6-2.4c0.4,0,1.1,0,1.5,0c2.2,0,2.6-0.7,1.9-2.5c-0.3-0.6-0.6-1.3-1.4-1.5
					c1,2.9,1,2.9-2.5,3c-0.6,0-1.2,0-1.6,0c-2.8,0.2-3.1,0.5-3.2,3c-0.1,9.3-0.3,18.6-0.3,27.9c0,2.3,0,2.3,2.4,2.8
					c1.5,0.3,3,0.1,4.5,0.2c1.3,0.1,1.6,0.5,0.9,1.4s-1.5,1.7-2.3,2.5c1.9-0.3,2.8-1.6,3.3-3c0.4-1.3,0-1.9-1.6-2
					c-0.8-0.1-1.6,0-2.5,0c-1.7-0.1-1.9-0.2-1.9-1.8c0-3.7,0.1-7.4,0.1-11.1c0-1.1,0.4-1.7,1.9-1.7c0.8,0.1,1.5,0,2.3,0
					c25.7,0.2,51.5,0.5,77.2,0.7C223.7,288.1,223.4,287.9,223.3,291.5z M136.8,330.9c0.4,0.1,0.4,0.5,0.4,0.8c0,2,0,4-0.1,6
					c0,1.9,0,3.8-0.1,5.8c0,0.3,0,0.7-0.4,0.8c-0.6,0.1-0.6-0.3-0.6-0.7c0-4,0.1-8.2,0.1-12.2C136.3,331.3,136.3,330.8,136.8,330.9z
					 M223.5,45.2c1.3-0.1,1.9,0.4,1.9,1.6c-0.1,12.6-0.3,25.3-0.4,37.9c0,1.2-1.9,2.2-1.9,2.2s1.1,0,0.7,0
					c-26.7-0.2-53.5-0.5-80.3-0.7c-3.9,0-3.6,0.1-3.6-3.3c0-3,0.1-6.2,0.1-9.3c0-2.6,0-2.6,2.9-2.6c0.7,0,1.4,0,2,0
					c1.6-0.1,1.7-0.3,1-2.1c-0.1,0.9-0.9,0.9-1.7,1c-1.7,0.1-3.4-0.2-5,0.3c-0.9,0.3-1.2-0.3-1.2-0.9c0-2.8,0-8.3,0-8.3
					s0.6-1.1,1.5-0.9c1.9,0.4,3.7,0.2,5.5,0.3c1,0.1,1.3,0.5,0.8,1.3c-1,1.5-2.4,2.8-4.5,3.1c-0.3,0.1-0.6,0.2-0.8,0.3
					c0.3,0.1,0.4,0.3,0.7,0.4c0.7,0.3,1.3,0.5,2.2,0.4c-0.4-0.7,0.1-1,0.7-1.4c1.3-0.9,2.3-1.8,2.6-3.1c0.3-1.3,0-1.9-1.6-2
					c-1-0.1-2,0-3.1-0.1c-0.9,0-1.3-0.5-1.9-1.3V45.8c0.7-0.9,1.3-1.2,2.2-0.8h1.6c26.1-0.2,52.1,0.1,78.2,0.3
					C222.6,45.2,223,45.2,223.5,45.2z M138.8,88.3c0.6,0,0.7,0.4,0.7,0.9c0,3.4-0.1,6.9,0,10.4c0,0.6,0,1.1-0.1,1.7
					c0,0.5-0.3,0.9-0.8,0.9s-0.7-0.4-0.7-0.9c0-2.1,0-4.1,0.1-6.3c0-1.9,0-3.8,0.1-5.8C138,88.7,138.2,88.3,138.8,88.3z
					 M143.6,158.9c1.4-0.1,1.9-0.6,1.6-1.7c-0.3-0.9-0.4-1.8-1.6-2.2c0.8,2.5,0.8,2.5-2.3,2.5c-1,0-2,0-3,0.2
					c-0.9,0.3-1.5-0.2-1.4-1.1c0-2.5,0-5.1,0.1-7.6c0-0.9,0.6-1.2,1.5-1c1.4,0.5,2.9,0.2,4.5,0.3c1.6,0.1,1.6,0.1,1.2,1.5
					c-0.1,0.3-0.1,0.7-0.3,0.9c1-0.3,1.3-1.2,1.6-1.9c0.4-1.4,0-1.9-1.7-2.1c-1.3-0.1-2.9,0.4-3.8-0.4c-1.2-0.9-0.3-2.5-0.4-3.7
					c-0.1-1.2-0.3-2.4-0.1-3.6c0.4-6.5-0.8-6.5,3.2-6.5c7.4,0.1,14.8,0.1,22.2,0.2c1.9,0,3.9,0,6,0.1c0.6,0,1.2,0.1,1.6,0.4
					c0.3,0,0.4-0.1,0.7-0.1c0.1,0,0.1,0,0.1,0s0.6-0.2,0.7-0.2v-0.1c0.2-0.1,0.3-0.1,0.4-0.1c0.3,0,0.3,0,0.3,0.1
					c0.9-0.1,1.7-0.1,2.6,0c0.6,0,1.2,0.1,1.6,0.3c0.3-0.4,0.8-0.5,1.3,0h1.6c13.1-0.4,38.9,0,38.9,0s0.2,0,0.5,0
					c3.3,0,3.3,0,3.2,2.8c-0.1,6-0.1,11.9-0.3,17.9c-0.1,5.9-0.1,11.6-0.3,17.4c0,2.7,0,2.7-2.9,2.6c-26.5-0.2-52.8-0.5-79.5-0.7
					c-0.4,0-0.9,0-1.4,0c-1.6,0-1.6-1.4-0.7-3.4c1.2-2.5,0.9-5.5-0.1-8c-0.8-2-0.3-2.8,1-2.8C141.6,158.9,142.8,159,143.6,158.9z
					 M138,158.8l-0.3-0.1l0.3-0.1V158.8z M138.8,133.1c0,2,0,4-0.1,6c0,1.9,0,3.8-0.1,5.8c0,0.5-0.1,1.1-0.9,0.9
					c-0.6-0.1-0.7-0.5-0.7-0.9c0-3.9,0.1-8,0.1-11.9c0-0.5,0.1-1.1,0.9-0.9C138.6,132.2,138.8,132.7,138.8,133.1z M192.5,207.7
					c15,0.1,30.2,0.3,45.1,0.4c0.9,0,1.9,0.1,2.8,0.2c0.1,0,0.4,0.4,0.3,0.6c0,0.2-0.3,0.5-0.4,0.5c-0.6,0.1-1.3,0.1-1.9,0.1
					c-30.8-0.3-61.6-0.6-92.6-1.5H145c-0.6,0.6-1.5,0.8-1.5,0c0-0.7,0.8-0.7,1.3-1h0.6C161.2,207.4,176.9,207.5,192.5,207.7z
					 M143,208c0,1,0,2,0,2.9c0,0.2-0.3,0.5-0.4,0.5c-0.3,0.1-0.6-0.2-0.6-0.4c0-2.1,0-4.3,0.1-6.5c0-0.2,0.1-0.5,0.6-0.4
					c0.3,0.1,0.4,0.3,0.4,0.5C143,205.9,143,206.9,143,208z M237,240.8c-30.2-0.3-60.2-0.5-90.5-0.8c-0.6,0-1.2,0-1.6,0
					c-1.3,0.1-1.9-0.6-1.9-1.7c0-3.6,0.1-6.9,0.1-10.6c0-1.8,0-3.7,0.1-5.6c0.1-1.9,0.1-2,2.2-2.1c1,0,2,0,3.1,0
					c2.2,0,2.3-0.4,1.5-2.5c0,0.8-0.3,1.5-1.5,1.5c-0.1,0,0.4,0,0.1,0c-4.9,0.2-5.9-0.7-4.9-5.3c0.1-0.9,0.7-1.2,1.7-0.8
					c0.9,0.3,1.6,0.7,2.4,0.8c-0.4-1.1-1.7-1.4-2.9-1.7c-1.4-0.3-1.2-1.2-1.2-2c0.1-0.9,0.9-1.1,1.7-1.1c0.6,0,0.7,0,1.1,0
					c30.2,0.3,60.2,0.5,90.5,0.8c3.5,0,3.5,0,3.5,3c-0.1,8.4-0.3,16.7-0.3,24.9c0,0.5,0,1,0,1.5c0.1,1-0.4,1.6-1.7,1.5
					C238,240.8,237.5,240.8,237,240.8z M141.5,222c0-0.4-0.1-0.9,0.4-1c0.7-0.1,0.6,0.5,0.6,0.9c-0.1,5.8-0.1,11.5-0.3,17.3
					c0,0.3-0.1,0.5-0.1,0.7c-0.1,0.1-0.3,0.2-0.4,0.2c-0.1,0-0.3-0.2-0.3-0.3c-0.1-0.6-0.1-1.1-0.1-1.7c0-2.5,0-5,0.1-7.6l0,0
					C141.5,227.5,141.5,224.7,141.5,222z M141.8,219.3c-0.8,0-0.7-0.6-0.8-1.1v-3.7c0.1-0.7,0.2-1.4,1.3-1.3c1,0.1,1,0.8,0.7,1.5
					v1.3h0.4c-0.1,0.9,0,1.7-0.3,2.4C143.1,218.9,142.4,219.3,141.8,219.3z M146.1,207c-1.9-0.5-2.8-2.1-1.9-3.4
					c0.3-0.5,0.9-0.5,1.3-0.6h3.7c2.2,0.1,2.3-0.3,1.5-2.4c0,0.9-0.3,1.3-1.5,1.5c-4.9,0.5-5.7-0.2-5.4-4.5c0.1-1.1,0.4-1.5,1.7-1.1
					c0.3,0.1,0.8,0.1,1.2,0.1c-2.9-1.8-2.8-5.8-2.8-5.8v-12.1c0,0,0.1-2.5,2.6-2.5c7.7,0.1,15.3,0.1,23,0.2
					c22.8,0.2,45.5,0.4,68.1,0.6c3.5,0,3.5,0,3.5,3.2c-0.1,8.2-0.3,16.1-0.1,24.2v1.7c-0.1,0.9-0.7,1.3-1.7-0.1h-1.9
					c-30,1.1-90,1-90,1H146.1z M141.3,197.4c0-0.5,0.3-0.9,1-0.8c0.6,0.1,1.2,0.1,1.2,0.8c0,1.4,0,2.8-0.1,4.2
					c0,0.7-0.7,1.1-1.3,1.1c-0.9,0.1-0.7-0.7-0.8-1.3c-0.1-0.6,0-1.1,0-1.7l0,0C141.3,198.9,141.2,198.2,141.3,197.4z M143.1,177.4
					c-0.1,5.4-0.1,10.8-0.3,16.3c0,0.3-0.1,0.7-0.1,1c0,0.1-0.3,0.2-0.4,0.2c-0.1,0-0.3-0.1-0.3-0.3c-0.1-0.6-0.1-1.1-0.1-1.7
					c0-2.4,0-4.8,0.1-7.3l0,0c0-2.7,0.1-5.4,0.1-8.2c0-0.4-0.1-1,0.4-1.1C143.3,176.2,143.1,177,143.1,177.4z M136.6,287.2
					c0.7,0,0.6,0.5,0.6,0.9c0,1.8,0,3.7-0.1,5.6c0,1.8,0,3.7-0.1,5.6c0,0.4,0.1,0.9-0.6,0.9c-0.3,0-0.4-0.5-0.4-0.8
					c0-3.7,0.1-7.6,0.1-11.4C136.2,287.6,136.2,287.2,136.6,287.2z M224.5,244.3c-0.1,13.1-0.5,39.3-0.5,39.3s0,0.7,0,1.1
					c0,0.6-0.7,1.2-1.3,1.2c-0.7,0-1.8,0-1.8,0s-53.5-0.4-80.2-1H139c-1.2,0.5-1.6-0.1-2-1.2V271c0.5-0.3,0.5-0.5,0.5-0.7
					c0.1-0.1,0.3-0.3,0.3-0.3c0.3-0.1,0.4,0.2,0.4,0.4c0.1,0.6-0.3,1.9-0.3,1.9s-0.1,6.6-0.1,9.7c0,1.8,0.1,1.9,2.2,2c1,0,2,0,3.1,0
					c25,0.2,50.1,0.5,74.9,0.7c3.8,0,3.5,0.2,3.5-3.1c0.1-11.5,0.3-23.2,0.3-34.7c0-0.3,0-0.5,0-0.7c0-2.5,0-2.5-2.8-2.5
					c-26-0.2-52.2-0.5-78.4-0.7c-0.1,0-0.3,0-0.3,0c-2.5,0-2.5,0-2.5,2.2c0,2.8,0,8.3,0,8.3s0.3,1,0.2,1.5s0.3,1.4-0.6,1.4
					c-0.7-0.1-0.4-1-0.4-1.5c-0.1-0.9,0-1.8,0-2.7c0-1.9,0-4,0.1-6c0.1-4.6-0.4-4.6,3.3-4.6c11.2,0.1,22.3,0.2,33.4,0.3
					c2.3,0,4.5,0,6.9,0.2l38.7,1h1.7C224.5,241.8,224.5,241.8,224.5,244.3z M242.1,175c1.9,0.2,2,0.3,1.9,2.2
					c-0.1,5.9-1,17.8-1,17.8l1,14v29.8v1.5c-0.7,2.5-3.2,2.7-3.2,2.7h-10.4c0,0-1-0.3-1.5-0.4c-0.3,0-0.6-0.1-0.3-0.5
					c0.1-0.1,0.3-0.3,0.3-0.3c0.6-0.1,1.2-0.1,1.9-0.1c2.8,0,5.5,0,8.2,0.1c3.1,0,3.1,0,3.2-2.9c0.1-9.2,0.3-18.1,0.3-27.3
					c0.1-10.5,0.3-20.8,0.6-31.3v-1.7c-0.3-2.1-0.5-2.3-2.5-2.4c-3.1-0.1-6.1-0.1-9.2-0.1c-0.7,0-1.9,0.2-1.9-0.4
					c0-1,1.3-0.5,1.9-0.7H242.1z M226.5,133.6c0.1,0.6,0.1,1.1,0,1.7c-0.1,12.6-0.3,25.3-0.5,37.9v0.7c0,1.9,0,1.9-2.2,1.9
					c-5.7-0.1-17.2-0.5-17.2-0.5l-25.3,0.6l0,0h-40.7c0,0.4-1.2-0.9-1.6-0.9c-1.9-0.1-1.9-0.2-2.1-1.8v-12.2
					c0.2-0.3,0.2-0.5,0.3-0.7c0.1-0.5,0.3-0.8,0.9-0.7c0.4,0.1,0.6,0.3,0.7,0.7c0.1,0.8,0.1,2.5,0.1,2.5v9.2c0,0,0.1,2,2.1,2.2
					c0.7,0.1,1.9,0.3,1.9-0.3h77.7c0,0.6,0.8,1.1,1.2,1.1c2.8,0,2.9,0,2.9-2.5c0.1-12.2,0.3-24.5,0.4-36.6c0-0.7,0-1.5,0.1-2.3
					c0-0.4,0.3-0.6,0.8-0.6C226.2,132.9,226.6,133.2,226.5,133.6z M227.1,90.8c0.1,0.3,0,0.7-0.1,1v37c-0.3,0.5-0.3,1-0.3,1.5
					c0.1,1.1-0.4,1.7-1.9,1.7c-0.6,0-1.6-0.1-1.6-0.1h-41.6c0,0-27.4-0.6-41.1-0.7c-3.1,0-3.1,0-3.5-2.7v-11.2
					c0.5-0.6,0.2-1.6,1.3-1.6c1,0,0.8,0.9,0.7,1.6v10.2c0.1,2.5,0.3,2.7,3,2.8c13.3,0.1,39.8,0.6,39.8,0.6h38.7c0,0,1.3,0.1,1.9,0.1
					c2,0,2.3-0.3,2.4-2c0-0.6,0-1.1,0-1.7V92.5v-1.7c0.4-0.6,0.1-1.6,1.2-1.5C227.4,89.3,227.1,90.2,227.1,90.8z M143.5,87.8
					c26.9,0.2,53.6,0.5,80.5,0.7c3.6,0,3.6,0,3.6,3c-0.1,11.8-0.3,23.5-0.3,35.3c0,2.8,0,2.8-3,2.8c-27-0.2-54-0.5-81-0.7
					c-0.6,0-1.2,0-1.7,0c-1.2,0-1.7-0.6-1.5-1.8c0.4-3.5,0.8-7.1,0.1-10.5c-0.3-1.8,0.4-2.4,1.9-2.3c1,0.1,1.9,0.1,2.9,0
					c1.6-0.1,1.7-0.3,1-2c-0.1,0.9-0.9,0.9-1.7,1c-1.7,0.1-3.4-0.2-5,0.3c-0.9,0.3-1.2-0.3-1.2-0.9c0-2.5,0.1-5.1,0.1-7.8
					c0-0.9,0.6-1.3,1.6-0.9c1.4,0.5,3,0.2,4.6,0.3c1.7,0.1,1.7,0.1,1.2,1.5c-0.1,0.3-0.1,0.7-0.3,0.9c1-0.3,1.3-1,1.6-1.7
					c0.6-1.5,0.1-2.1-1.7-2.3c-1.3-0.1-3,0.4-3.9-0.4c-1-0.9-0.4-2.4-0.4-3.6c0-2.9,0-5.9,0.1-9c0-1.6,0.1-1.7,2-1.8
					C142.5,87.8,143,87.8,143.5,87.8z M226.9,49.8c-4.9,10.2-4.2,21.6-0.3,32.1c0.7,1.6,0.4,3.2,0.3,4.9c0,0.9-1.6,1.2-1.6,1.2h-1.9
					c0,0-54.7-0.4-82.2-0.6c-3.5,0-3.5,0.2-3.3-3.2V73.5c-0.1-0.6-0.4-1.6,0.7-1.6c1.1,0,0.8,0.9,1.3,1.5v10
					c-0.5,2.5-0.5,2.5,2.3,2.5c18.9,0.2,37.8,0.3,56.7,0.5c7.7,0.1,23-0.4,23-0.4s1.5,0,2.3,0c0.6-0.1,1-0.5,1.2-0.9
					c0.1-0.6,0.1-1.1,0.1-1.7c0.1-12.1,0.3-24.4,0.4-36.5c0-0.4,0-0.9,0-1.3c0-1-0.4-1.6-1.6-1.6c-0.6,0-1.2,0-1.6,0
					c-26.4-0.2-52.9-0.5-79.3-0.7c-3.5,0-3.5,0-3.5,2.9c0,3.3,0,10.4,0,10.4s0.3,1.6-0.8,1.6c-1.1,0-0.8-0.9-1.2-1.6V44.1
					c0.5-1.9,0.6-1.9,2.7-1.9c6.4,0.1,12.8,0.1,19.4,0.2c7.7,0.1,15.3,0.1,23,0.2c13.5,0.1,27.1,0.2,40.7,0.4h2.3
					c1,0,1.6,0.4,1.6,1.4C227.7,46.3,227.8,48.1,226.9,49.8z M124.2,37.6c-2-0.9-3.2,1.6-3.2,1.6s0,0.7,0,1c0.1,1.1-0.6,1.4-1.6,1.4
					c-2.7,0-5.4-0.1-8.2-0.1c-2.1,0-4,0-6.1-0.1c-1.9-0.1-1.9-0.2-2.1-1.9c0-0.3,0-1.1,0-1.1s-0.4-23.4,0-35V2.2
					c-0.2-1.5-0.2-1.6,1.7-1.2h1.6c44.1-0.1,132.3,1,132.3,1s0.6,0,0.9,0c2.8,0,2.9,0,2.9,2.5c-0.1,11.9-0.3,24-0.3,35.9
					c0,0.4,0,0.8,0,1.3c0,0.8-0.4,1.3-1.3,1.3c-0.8,0-2.3,0-2.3,0s-68.2-0.8-102.4-1h-0.8c-2.5-0.2-2.5-0.2-3.1-2.3v-1
					c0.4-1.3,0.2-1.4-1.8-0.8c0.4,0.1,0.9,0.3,0.9,0.7c0.1,1.5,0.3,3,0.3,4.5c0.1,0.7-0.4,0.8-1,0.8c-2.3,0-4.5,0-6.7-0.1
					c-0.9,0-1.6-0.3-1.3-1.2c0.4-1.2,0.3-2.5,0.4-3.7c0.1-0.7,0.4-0.9,1.2-0.5c0.7,0.5,1.5,0.9,2.2,1.5
					C126.3,38.6,125.3,38,124.2,37.6z M133.8,44c-0.4-0.3-0.9-0.5-0.9-0.9c0.1-0.5,0.6-0.7,1-0.1h2.5c0.6-0.6,1.2-0.5,1.2,0.1
					c-0.1,0.7-0.8,0.7-1.3,0.9h-1.2l0,0H133.8z M244.4,2.8c-0.1,12.7-0.3,25.5-0.4,38.1c0,0.5,0,1.9,0,1.9s-0.6,1.9-2.5,2.2h-11.2
					c-0.3-0.4-0.8-0.4-1.2-0.5s-0.7-0.3-0.6-0.7c0.1-0.2,0.3-0.5,0.6-0.5c0.7-0.1,1.3-0.1,1.9-0.3h8.9c2.3,0.3,2.4,0.2,2.4-1.8
					c0.1-8.2,0.6-24.2,0.6-24.2s0.1-9.3,0.1-13.9c0-2-0.1-2.1-2.4-2.2C240,1,239,1,239,1s-88.3-0.8-133.2-1.2c-4.5,0-4.5,0-4.5,3.8
					c-0.1,11.6-0.3,23-0.3,34.6c0,0.4,0,0.9,0,1.3c0,2.2,0.3,2.5,2.8,2.5c4.7,0,13.8,0,13.8,0s1.5,0.3,2.3,0.4
					c0.4,0,0.7,0.3,0.7,0.7c0,0.3-0.3,0.7-0.7,0.7c-0.9,0.1-1.9,0-2.9,0c-1.9,0.1-1.9,0.1-2,1.8v2c-0.2,21-0.4,42.1-0.6,63.1
					c-0.3,20.8-0.4,41.8-0.4,62.6v1.7c-0.4,1.9-2.6,1.9-2.6,1.9h-9.3c0,0-2.5,1-2.1,2.2v1.5c-0.7,19.3-0.9,38.7-1,58v1.3
					c-0.1,2.3,2.8,3,2.8,3h9.2c0,0,2-0.1,2,1.6v2c-0.5,40.7-2.1,121.4-2,121.4v1.3c-0.1,2.7-0.4,3,3,3c0.7,0,2-0.3,2,0.6
					c0.1,1.3-1.3,0.8-2,0.8c-16.6-0.2-33.2-0.3-49.8-0.5c-11.2-0.1-33.9-0.2-33.9-0.2s-2,0-2.7,0c-1,0.1-1.7,0.6-1.7,1.6
					c0,0.7,0,1.3,0,2c-0.1,11.8-0.3,23.6-0.3,35.3c0,0.8,0.3,2.2-0.4,2.2c-1,0-0.6-1.3-0.6-2.1c0.1-12.6,0.3-25.3,0.4-38
					c0-2.7,0-2.7,3.1-2.6c25.8,0.2,51.5,0.5,77.3,0.7c5.3,0.1,3.2,0.5,4.1-8.2c0.4-36.9,0.8-73.9,1.3-110.8
					c-0.9-9.4,1.5-8.8-4.1-8.9c-2.4,0-4.9,0-7.3-0.1c-1.7-0.1-1.9-0.2-1.9-1.8c0-0.5-0.6-1.5-0.6-1.5v-61.6c0,0,1.4-0.9,1.5-1.3
					c0.1-1.9,0.1-1.9,2.3-2c3,0,6.8,0.1,9.9,0.1c2.1,0,2.2-0.1,2.3-2c0-0.5,0-1,0-1.5c0.4-41.8,0.9-83.5,1.4-125.3
					c0-3.8,0.4-3.5-4-3.6c-2.6,0-5.2,0-7.8-0.1c-1.9-0.1-2-0.2-2-1.8c0-2.7,0.3-8.5,0.3-8.5V1.5c0,0,0.1-1,0.1-1.5
					c0.1-1.9,0.1-1.9,2.3-2c0.6,0,1.2,0,1.6,0c45.3,0.4,90.6,0.8,136,1.2C244.8-0.7,244.4-1.1,244.4,2.8z"/>
			</g>
			<line class="st0" x1="292" y1="-2.7" x2="261.7" y2="-2.7"/>
		</g>
		<polygon points="121.3,42 121.5,42 121.4,41.8 		"/>
		<path d="M103,723.7c0-0.3,0-0.7,0-1c0.3,0,0.6-0.1,0.8,0c0.7,0.1,1.9-0.2,1.9,0.7c-0.1,1-1.2,0.2-1.9,0.3
			C103.7,723.8,103.3,723.7,103,723.7z"/>
		<path d="M106,481c0-0.3,0-0.7,0-1c0.3,0,0.6-0.1,0.8,0c0.7,0.1,1.9-0.2,1.9,0.7c-0.1,1-1.2,0.2-1.9,0.3
			C106.6,481,106.3,481,106,481z"/>
		<path d="M106,438c0-0.3,0-0.7,0-1c0.3,0,0.6-0.1,0.8,0c0.7,0.1,1.9-0.2,1.9,0.7c-0.1,1-1.2,0.2-1.9,0.3
			C106.5,438,106.3,438,106,438z"/>
		<path d="M102.8,722.7c-1.6-0.3-2.5-1.1-2.8-2.5C101.2,720.8,102.3,721.6,102.8,722.7z"/>
		<path d="M102.3,680.3c0.3-0.8,1.3-0.9,1.7-1.5c0.3,0,0.6-0.1,0.8,0c0.3,0,0.7,0,0.8,0.2c0.3,0.3-0.1,0.3-0.3,0.4
			C104.2,679.7,103.3,680.4,102.3,680.3z"/>
		<path d="M102.8,636.6c0.3-0.8,1.3-0.9,1.7-1.5c0.3,0,0.8-0.1,1,0c0.3,0,0.4,0.2,0.7,0.3c-0.1,0.1-0.3,0.3-0.3,0.3
			C104.8,635.9,103.9,636.7,102.8,636.6z"/>
		<path d="M105.7,525.3c-0.4-0.6-1.3-0.7-1.6-1.5c0.8,0,1.3,0.3,2,0.7c0.4,0.3,1.3,0,1.2,0.7C107.1,525.3,106.1,525.2,105.7,525.3z"
			/>
		<path d="M106,436.7c-1.6-0.3-2.5-1.1-2.8-2.5C104.4,434.7,105.4,435.6,106,436.7z"/>
		<path d="M102.3,527.7c0.1-1.2,0.9-1.9,2.3-2C103.9,526.6,103.3,527.2,102.3,527.7z"/>
		<path d="M103.3,634.7c-1.3-0.1-2-0.8-2.2-2C102,633,102.8,633.8,103.3,634.7z"/>
		<path d="M102.8,678.3c-1.3-0.1-2-0.8-2.2-2C101.6,676.8,102.3,677.5,102.8,678.3z"/>
		<path d="M99.5,727.2c-0.1-0.9,0.1-1.6,1.2-2C100.5,726,100.1,726.8,99.5,727.2z"/>
		<path d="M102.8,522.7c-1-0.4-1.2-1.1-1.2-2C102.5,521.1,102.8,521.8,102.8,522.7z"/>
		<path d="M103.3,478.9c-1-0.4-1.2-1.1-1.2-2C102.9,477.3,103.3,478,103.3,478.9z"/>
		<path d="M100,683.5c-0.1-0.9,0.1-1.6,1.2-2C101,682.3,100.7,683.1,100,683.5z"/>
		<path d="M100.4,639.7c-0.1-0.9,0.1-1.6,1.2-2C101.4,638.4,101.2,639.3,100.4,639.7z"/>
		<path d="M104.3,438.7c0.3-0.7,0.9-1,1.6-1C105.7,438.3,105.2,438.7,104.3,438.7z"/>
		<path d="M105.5,480.5c-0.8,0-1.3-0.3-1.6-1C104.8,479.4,105.2,479.8,105.5,480.5z"/>
		<path d="M103.9,482.4c0.3-0.7,0.9-1,1.6-1C105.2,482.1,104.6,482.5,103.9,482.4z"/>
		<path d="M101.2,724.8c0.3-0.7,0.9-1,1.6-1C102.6,724.4,102,724.8,101.2,724.8z"/>
		<path d="M101.6,637.6c0-0.6,0.3-0.9,1.2-1C102.6,637.2,102.1,637.5,101.6,637.6z"/>
		<path d="M101.1,681.5c0-0.6,0.3-0.9,1.2-1C102,680.9,101.7,681.2,101.1,681.5z"/>
		<path d="M103.9,678.9c-0.4,0-0.9-0.1-1.2-0.5C103.3,678.3,103.8,678.5,103.9,678.9z"/>
		<path d="M104.4,635.2c-0.4,0-0.9-0.1-1.2-0.5C103.8,634.7,104.2,634.8,104.4,635.2z"/>
		<path d="M104.5,525.7c0.3-0.4,0.7-0.5,1.2-0.5C105.5,525.7,104.9,525.7,104.5,525.7z"/>
		<path d="M100.7,725.2c0.1-0.1,0.3-0.3,0.6-0.5C101,724.9,100.9,725.1,100.7,725.2z"/>
		<path d="M103.3,523.2c-0.1-0.1-0.3-0.3-0.6-0.5C103,522.9,103.2,523,103.3,523.2z"/>
		<path d="M103.9,479.4c-0.1-0.1-0.3-0.3-0.6-0.5C103.5,479.1,103.8,479.2,103.9,479.4z"/>
		<path d="M103.9,523.7c-0.1-0.1-0.3-0.3-0.6-0.5C103.6,523.4,103.9,523.6,103.9,523.7z"/>
		<path d="M140.6,306.6c-0.1,0.5-0.3,0.8,0.3,1.1c0.3,0.2,0.6,0.5,0.8,0.9c-1.3-0.1-2.3-1-3.5-1c-0.1,0-0.3-0.2-0.3-0.3
			c0.1-0.1,0.3-0.2,0.4-0.3C139,306.8,139.7,306.4,140.6,306.6z"/>
		<path d="M141.1,262.8c-0.3,0.5-0.3,0.8,0.3,1.1c0.3,0.2,0.6,0.5,0.8,0.9c-1.3-0.1-2.3-1-3.5-1c-0.1,0-0.3-0.2-0.3-0.3
			c0.1-0.1,0.3-0.2,0.4-0.3C139.5,263,140.2,262.7,141.1,262.8z"/>
		<path d="M143.4,260.8c-0.1,1.2-0.9,1.9-2.3,2C141.7,261.9,142.4,261.3,143.4,260.8z"/>
		<path d="M143.9,259.8c0,0.4-0.1,0.8-0.6,1C143.4,260.4,143.4,260,143.9,259.8z"/>
		<path d="M141.8,349.4c-0.1,0.1-0.3,0.3-0.6,0.5C141.4,349.7,141.7,349.5,141.8,349.4z"/>
		<path d="M141.8,308.7c0.1,0.1,0.3,0.3,0.6,0.5C142.1,309,141.8,308.8,141.8,308.7z"/>
		<path d="M142.2,264.9c0.1,0.1,0.3,0.3,0.6,0.5C142.5,265.2,142.3,265,142.2,264.9z"/>
		<path d="M29.4,775.8c6.9,0.1,13.9,0.1,20.9,0.2c0.7,0,1.3,0,1.9,0c1.2,0,1.8,0.6,1.8,1.6c0,3.5,0,10,0,10s-0.3,1.2-1.4,0.4H51
			c-14.3,0.8-43.2,1-43.2,1s-0.7,0-1.1,0c-1.2,0-1.8-0.4-1.7-1.5c0-3.5,0.1-7,0.1-10.6c0-0.9,0.6-1.3,1.6-1.3c2,0,4.1,0,6.1,0.1
			C18.2,775.7,23.8,775.7,29.4,775.8z M24,782L24,782c0,1.3,0,2.5,0,3.7c0,2.3,0,2.2,2.9,2.3c0.3,0,0.6,0,0.8,0
			c1.7-0.1,1.9-0.1,1.9-1.8c0.1-2.1,0-4.3,0.1-6.6c0-3.3-0.4-3.7-4.1-3.2c-0.9,0.1-1.3,0.5-1.3,1.3C24.1,779.1,24,780.6,24,782z
			 M23,782.2L23,782.2c0-1.1,0-2.4,0-3.6c0-2.6,0-2.6-2.9-2.6c-0.1,0-0.3,0-0.6,0c-2.3,0-2.1,0.1-2.3,2.4c0,2.2,0,4.2-0.1,6.5
			c0,3.1-0.3,3.1,2.9,3.1c0.3,0,0.6,0,0.9,0c1.3,0.1,2-0.4,1.9-1.7C23,785,23,783.7,23,782.2z M10.8,783L10.8,783
			c0-1.1,0.1-2.4,0-3.6c0-2.5,0-2.3-3.4-2.4c0,0,0,0-0.1,0c-2.9,0.1-2.1,0-2.5,4.9c-0.1,0.6-0.1,1.2,0,2c0.3,5.1-0.7,5.1,2.6,5.2
			c0.6,0,1.2,0,1.6,0c1,0,1.4-0.5,1.4-1.3C10.7,786.1,10.7,784.4,10.8,783z M41.4,782.2L41.4,782.2c0,1.3-0.1,2.7,0,4
			c0,1.9,0.1,1.7,2.5,1.8c0.1,0,0.3,0,0.3,0c3.2-0.1,2.5,0.2,2.8-3.6c0-0.5,0-1.1,0-1.5c-0.3-6.5,0.9-6.6-3.5-6.5
			c-0.6,0-1.3,0-1.9,0.1c-0.1,0-0.1,0.1-0.1,0.1C41.4,778.3,41.4,780.3,41.4,782.2z M35,781.2c0-1.1,0-2.3,0-3.5
			c0-1.2-0.4-1.7-1.6-1.8c-0.4,0-1,0-1.4,0c-1.7,0.1-1.9,0.1-2,1.8c-0.1,2.7-0.1,5.3-0.1,8.2c0,2,0.1,2,2.3,2.1c0.3,0,0.9,0,1.2,0
			c1.2,0.1,1.6-0.5,1.7-1.6C34.9,784.6,35.1,783,35,781.2z M12,782.1c0,1.4,0,2.9,0,4.3c-0.1,1.2,0.6,1.7,1.9,1.6c0.6,0,1.2,0,1.6,0
			c1,0,1.5-0.5,1.5-1.4c0-3,0.1-6.1,0.1-9.1c0-0.9-0.4-1.3-1.6-1.4c-0.6,0-1.2,0-1.6,0c-1.4-0.1-1.9,0.5-1.9,1.7
			C12,779.3,12,780.7,12,782.1z M52.8,783L52.8,783c-1,0-1.4-0.6-1-1.3c1.6-3.2,1.4-4.7-0.4-4.7c-0.7,0-1.3,0-2,0
			c-1.6,0-1.7,1-1.3,2.8c0.4,2.1,0.6,4.2-0.1,6.3c-0.6,1.9-0.3,2.8,1.3,2.9c0.6,0,1.2,0,1.6,0c1.4,0.1,1.9-0.5,1.9-1.8
			C52.8,785.8,52.8,784.3,52.8,783z M36,782.6L36,782.6c0,1.6,0,3.1,0,4.7c0,0.8,0.4,1.2,1.3,1.3c0.6,0,1.2,0.1,1.6,0
			c1.9-0.1,1.9-0.1,1.9-1.8c0.1-2.6,0.1-5.2,0.1-8c0-1.7-0.1-1.8-1.9-1.9c-0.4,0-0.9,0-1.3,0c-1.2-0.1-1.6,0.5-1.7,1.5
			C36,780,36,781.3,36,782.6z"/>
		<path d="M27.9,772c-4.5,0-8.9-0.1-13.5-0.1c-1.3,0-2.5-0.2-3.8,0.6c-1,0.7-1.9-0.4-2.6-0.8c-0.3-0.1-0.3-0.4-0.1-0.7
			c0.4-0.6,2.3-1.2,2.9-0.7c1,0.7,2,0.6,3.2,0.6c9.2,0.1,18.2,0.2,27.5,0.3c0.9,0,2.5-0.5,2.5,0.6c0.1,0.7-1.6,0.4-2.5,0.4
			C37,772.1,32.3,772.1,27.9,772z"/>
		<path d="M119.4,750.9c0.6,0.2,0.9,0.5,1.2,1C119.9,751.9,119.4,751.5,119.4,750.9z"/>
		<path d="M217,2.8c6.7,0.1,13.6,0.1,20.4,0.2c2.6,0,2.8,0.1,2.6,2.4c0,2.8-0.1,5.8-0.1,8.7c0,2.1-0.1,2.2-2.5,2.2
			c-9.3-0.1-18.4-0.2-27.7-0.3c-4.7,0-9.3-0.1-14-0.1c-2.2,0-2.3-0.2-2.3-2c0-3,0-6.1,0.1-9.2c0-2,0.3-2.1,2.5-2
			C203,2.7,210,2.7,217,2.8z M212,9.9L212,9.9c0,1.3,0,2.5,0,3.7c0,0.1,0,0.1,0,0.3c0,2,0.1,2.1,2.4,2.1c0.1,0,0.3,0,0.6,0
			c1.9,0,1.9-0.1,1.9-2.1c0-2.5,0-5.1,0.1-7.6c0-2.1,0-2.2-2.2-2.3c-0.3,0-0.8,0-1.2,0c-1.9-0.1-2.3,1.2-0.8,4.7
			C213.3,9.4,212.8,9.9,212,9.9z M222,10.1c0-1.6,0-3.1,0-4.7c0-1.1-0.4-1.5-1.6-1.5c-0.3,0-0.6,0-0.8,0c-2.3,0-2.5,0-2.5,2
			c0,2.7-0.1,5.4-0.1,8c0,1.9,0.1,1.9,2.2,2c0.3,0,0.8,0,1.2,0c1.2,0.1,1.6-0.5,1.7-1.5C222,12.9,222,11.5,222,10.1z M235,10
			c0,1.4-0.1,2.8,0,4.2c0,1.6,0.1,1.7,1.9,1.8c0.6,0,1.2,0,1.7,0c1,0,1.4-0.4,1.4-1.2c0-3.1,0.1-6.4,0.1-9.7c0-0.8-0.4-1.3-1.4-1.3
			c-0.6,0-1.2-0.1-1.7,0c-1.9,0.1-1.9,0.1-2,1.7C235,7,235,8.6,235,10z M228,10c0-1.4,0.1-2.8,0-4.2c0-1.6-0.1-1.7-1.9-1.8
			c-0.6,0-1.2,0-1.7,0c-1,0-1.4,0.4-1.4,1.2c0,3.1-0.1,6.4-0.1,9.7c0,0.8,0.4,1.3,1.4,1.3c0.6,0,1.2,0.1,1.7,0
			c1.9-0.1,1.9-0.1,2-1.7C228,12.9,228,11.4,228,10z M205,10L205,10c-0.9,0-1.4-0.6-1-1.3c1.4-3.1,1.6-4.8-0.3-4.8c-0.6,0-1,0-1.6,0
			c-1-0.1-2,0.7-2,1.6c0,3-0.1,6-0.1,9c0,0.9,0.4,1.4,1.6,1.4c0.6,0,0.9,0,1.6,0c1.4,0.1,2-0.4,1.9-1.6C205,12.8,205,11.4,205,10z
			 M199,9L199,9c0-1.6,0-3.1,0-4.7c0-0.9-0.3-1.4-1.5-1.4c-0.6,0-1.2,0-1.6,0c-1.3-0.1-1.9,0.4-1.9,1.6c0,3-0.1,6-0.1,9
			c0,0.9,0.4,1.4,1.5,1.4c0.6,0,1.2,0,1.6,0c1.3,0.1,1.9-0.4,1.9-1.6C199,11.8,199,10.4,199,9z M206.2,9.4c0,1.5-0.1,3,0,4.5
			c0.1,1.4,0.3,1.5,2.2,1.6c1.9,0,2.3-0.1,2.3-1.4c0.1-3,0.1-6.1,0.1-9.2c0-1.4-0.3-1.5-2.2-1.6c-1.9-0.1-2.2,0.1-2.3,1.4
			C206.2,6.3,206.2,7.7,206.2,9.4z M234,9.8c0-1.6,0-3.1,0-4.7c0-1.3-0.9-1.4-2-1.4c-1.9,0-2.3,0.1-2.4,1.3
			c-0.1,3.1-0.1,6.2-0.1,9.4c0,1.3,0.9,1.4,2,1.4c1.9,0,2.3-0.1,2.4-1.3C234,12.8,234,11.3,234,9.8z"/>
		<path d="M213.1,19.5c6.6,0.1,13.1,0.1,19.7,0.2c0.6,0,1-0.2,1.5-0.4c1-0.5,2.8-0.2,3.3,0.5c0.1,0.2,0.1,0.5-0.1,0.7
			c-0.7,0.7-2.5,1-3.2,0.5c-1-0.7-2.2-0.5-3.2-0.5c-11.5-0.1-22.9-0.2-34.4-0.3c-0.8,0-1.5,0.2-2.2-0.2c0.7-0.6,1.5-0.5,2.3-0.5
			C202.2,19.4,207.7,19.4,213.1,19.5L213.1,19.5z"/>
		<path d="M127,40.2c0,0.3,0,0.7,0,1c0,0.2,0,0.5-0.3,0.5c-0.1,0-0.3-0.2-0.3-0.3c-0.1-0.5-0.3-1.1-0.4-1.7
			C126.3,39.8,126.7,40.1,127,40.2z"/>
		<path d="M130,37.7c-0.3,0.4-0.7,0.5-1.2,0.5C129.3,37.7,129.6,37.7,130,37.7z"/>
		<path d="M127.9,39.2c0,0.4-0.1,0.8-0.6,1C127.2,39.7,127.4,39.4,127.9,39.2z"/>
		<path d="M129,38.1c-0.1,0.1-0.3,0.3-0.6,0.5C128.6,38.5,128.8,38.3,129,38.1z"/>
		<path d="M128.4,38.7c-0.1,0.1-0.3,0.3-0.6,0.5C128,39,128.2,38.8,128.4,38.7z"/>
		<path d="M213.5,401.1c6.6,0.1,13.4,0.1,19.9,0.2c2.7,0,2.7,0.1,2.6,2.4c0,2.8-0.1,5.7-0.1,8.5c0,2.1-0.1,2.2-2.5,2.2
			c-9-0.1-18.1-0.2-27.1-0.3c-4.6,0-9.1-0.1-13.7-0.1c-2.1,0-2.2-0.2-2.2-2c0-3,0-6,0.1-9c0-2,0.2-2.1,2.5-2
			C199.6,401,206.5,401.1,213.5,401.1z M219,407.7L219,407.7c0,1.5,0,3,0,4.5c0,0.8,0.4,1.2,1.3,1.3c0.6,0,1.2,0.1,1.6,0
			c1.9,0,1.9-0.1,1.9-2.1c0-2.3,0-4.7,0.1-7c0-2.3,0-2.4-2.2-2.4c-0.3,0-0.8,0-1.2,0c-1.2-0.1-1.6,0.5-1.7,1.5
			C219,404.9,219,406.3,219,407.7z M229.9,408c0,1.3-0.1,2.8,0,4.1c0,1.8,0.1,1.8,1.9,1.9c0.6,0,1.2,0,1.6,0c1,0,1.4-0.4,1.6-1.2
			c0-3.1,0.1-6.3,0.1-9.4c0-0.9-0.6-1.3-1.6-1.3c-0.4,0-1,0-1.4,0c-1.9,0.1-1.9,0.1-2,1.8C229.9,405.3,229.9,406.7,229.9,408z
			 M194.7,408.5L194.7,408.5c-0.6-0.8-0.6-0.7-1.2-1.6c1.6-2.9,1.5-4.3-0.3-4.4c-0.6,0-1.2-0.1-1.6,0c-1.9,0-1.9,0.2-1.9,2.1
			c0,2.4,0,4.7-0.1,7.2c0,2.1,0,2.1,2.2,2.2c0.3,0,0.8,0,1.2,0c1.2,0.1,1.6-0.5,1.7-1.5C194.6,411.1,194.7,409.8,194.7,408.5z
			 M196,407.8c0,1.5,0,3.1,0,4.6c0,1.1,0.4,1.5,1.7,1.5c0.4,0,0.9,0,1.4,0c1.7-0.1,1.9-0.1,2-1.8c0.1-2.7,0.1-5.2,0.1-8.1
			c0-1.9-0.1-1.9-2.2-2.1c-0.3,0-0.9,0-1.2,0c-1.2-0.1-1.6,0.5-1.7,1.5C196,405.1,196,406.5,196,407.8z M207,407.8L207,407.8
			c0,1.5,0,3,0,4.5c0,0.8,0.4,1.2,1.3,1.3c0.6,0,1.2,0.1,1.6,0c1.9-0.1,1.9-0.1,1.9-1.8c0.1-2.6,0.1-5.2,0.1-8
			c0-1.7-0.1-1.7-1.9-1.9c-0.4,0-0.9,0-1.3,0c-1.2-0.1-1.6,0.5-1.7,1.5C207,405,207,406.4,207,407.8z M213,407.8L213,407.8
			c0,1.5,0,3,0,4.5c0,0.8,0.4,1.2,1.3,1.3c0.6,0,1.2,0.1,1.6,0c1.9-0.1,1.9-0.1,1.9-1.8c0.1-2.6,0.1-5.2,0.1-8
			c0-1.7-0.1-1.8-1.9-1.9c-0.4,0-0.9,0-1.3,0c-1.2-0.1-1.6,0.5-1.7,1.5C213,405,213,406.4,213,407.8z M229.3,408.5
			c0-1.4,0.1-2.8,0-4.3c-0.1-1.4-0.3-1.5-2.2-1.6c-1.9,0-2.3,0.1-2.3,1.4c-0.1,2.8-0.1,5.8-0.1,8.7c0,1.4,0.3,1.5,2.2,1.6
			c1.9,0,2.2-0.1,2.3-1.4C229.4,411.3,229.3,409.9,229.3,408.5z M206.2,408.7L206.2,408.7c0-1.4,0.1-2.8,0-4.3
			c0-1.6-0.3-1.7-2.2-1.8c-1.9,0-2.2,0.1-2.3,1.7c-0.1,2.5,0,5-0.1,7.6c0,2.2,0.3,2.4,2.8,2.3c0.9-0.1,1.7-0.7,1.7-1.6
			C206.2,411.3,206.2,409.9,206.2,408.7z"/>
		<path d="M209.8,397.6c6,0.1,11.8,0.1,17.6,0.2c0.9,0,2,0.2,2.9-0.6c0.1-0.1,0.3-0.2,0.4-0.3c1.2-0.1,1.9,0.5,2.8,1
			c0.4,0.3,0,0.7-0.3,0.7c-1,0.3-1.9,1.7-3.1,0.3c-0.8-1-1.9-0.7-2.8-0.7c-8.7-0.1-17.4-0.2-26.1-0.2c-3.3,0-6.7-0.1-10.1-0.1
			c-0.3,0-0.8-0.1-0.8-0.2c0.1-0.5,0.6-0.3,0.8-0.3C197.4,397.5,203.6,397.5,209.8,397.6L209.8,397.6z"/>
		<path d="M102.7,389.2c-1.9-0.4-2.9-1.4-3.3-3C100.7,387,101.7,388,102.7,389.2z"/>
		<path d="M122.1,377.1c0-0.9,0.6-1.5,1-2.3c0.1-0.3,0-0.7,0.6-0.6c0.1,0.1,0.1,0.6,0.3,0.9c0,0.1,0,0.3,0,0.5
			C123.3,376.1,123.1,376.9,122.1,377.1z"/>
		<path d="M124.2,376.7c0.8,0.3,1.3,0.8,1.6,1.5C124.7,378.1,124.2,377.6,124.2,376.7z"/>
		<path d="M118.9,378.6c0.6-0.7,1.3-0.9,2.3-1C120.9,378.6,120,378.7,118.9,378.6z"/>
		<path d="M103.8,389.7c-0.4,0-0.9-0.1-1.2-0.5C103.2,389.3,103.5,389.3,103.8,389.7z"/>
		<path d="M123.6,375.7c0.4,0.2,0.6,0.6,0.4,1C123.6,376.5,123.6,376.1,123.6,375.7z"/>
		<path d="M123.7,412.8c0,0.4-0.1,0.8-0.6,1C123.1,413.4,123.3,413.1,123.7,412.8z"/>
		<path d="M124.8,411.9c-0.1,0.1-0.3,0.3-0.6,0.5C124.5,412.2,124.7,412,124.8,411.9z"/>
		<path d="M124.2,412.4c-0.1,0.1-0.3,0.3-0.6,0.5C123.9,412.7,124.2,412.5,124.2,412.4z"/>
		<path d="M121.3,377.7c0.1-0.1,0.3-0.3,0.6-0.5C121.6,377.3,121.5,377.5,121.3,377.7z"/>
		<path d="M145.5,67.9c-0.9-0.5-1.7-1.2-2.2-2C144.6,66,145.3,66.7,145.5,67.9z"/>
		<path d="M146,68.9c-0.4-0.2-0.6-0.6-0.4-1C146,68.1,146,68.5,146,68.9z"/>
		<path d="M142.8,109.5c-0.3,0-0.6,0.1-0.8,0c-0.7-0.2-1.9-0.3-1.9-0.7c0-0.6,1.2-0.3,1.9-0.7c0.6-0.3,1.3-0.7,2-0.6
			c-0.3,0.3-0.4,0.7-0.8,0.9C142.5,108.7,142.5,109.1,142.8,109.5z"/>
		<path d="M145,111.6c-0.9-0.5-1.7-1.2-2.2-2C144.1,109.8,144.9,110.5,145,111.6z"/>
		<path d="M145.5,112.7c-0.4-0.2-0.6-0.6-0.4-1C145.4,111.9,145.5,112.3,145.5,112.7z"/>
		<path d="M143.9,107.5c0.1-0.1,0.3-0.3,0.6-0.5C144.3,107.2,144,107.4,143.9,107.5z"/>
		<path d="M142.8,153.9c-0.9-0.2-1.9-0.4-2.9-0.6c-0.3-0.1-0.6-0.2-0.6-0.4c-0.1-0.3,0.3-0.5,0.6-0.5c0.7-0.1,1.3-0.1,1.9,0
			C142.1,152.8,142.4,153.3,142.8,153.9z"/>
		<path d="M141.8,152.3c0.3-0.4,0.7-0.5,1.2-0.5C142.7,152.3,142.2,152.3,141.8,152.3z"/>
		<path d="M143.4,154.3c-0.1-0.1-0.3-0.3-0.6-0.5C143,154,143.3,154.2,143.4,154.3z"/>
		<path d="M142.9,151.9c0.1-0.1,0.3-0.3,0.6-0.5C143.3,151.5,143.1,151.7,142.9,151.9z"/>
		<path d="M143.9,154.9c-0.1-0.1-0.3-0.3-0.6-0.5C143.6,154.5,143.8,154.7,143.9,154.9z"/>
		<path d="M143.4,151.3c0.1-0.1,0.3-0.3,0.6-0.5C143.8,151,143.6,151.2,143.4,151.3z"/>
		<path d="M53,593.6c-0.6-0.3-0.9-0.9-0.9-1.5c0.4-1.7,0.3-3.3,0.4-4.9c0.1-0.7,0.4-1.1,1.3-1.1c0.9-0.1,1.9,0,2.8,0
			c1.9,0.1,1.9,0.1,1.9,1.8c0.1,1.2,0.4,2.5,0.4,3.7c0.1,1.5-0.4,2.8-2.4,3.1l-0.6-0.1l1.2-0.2v-0.3l-0.6-0.1l0.8-0.7
			c0.3-0.3,0.4-0.5,0.6-0.8c0.7-1.3,0.3-2.7-0.3-4.1c-0.4-1.5-0.7-1.5-2.9-1.5c-1.6,0-1.3,1.1-1.6,1.9c-0.1,0.2-0.1,0.5,0,0.7
			c0.6,1.8,1-2.3,1.7,2.1c-0.3,0.5-0.4,0.9-0.7,1.4h-0.1c-0.3-0.2-0.6-0.6-0.7-0.5C53,592.7,53.3,593.2,53,593.6L53,593.6z"/>
		<path d="M64,594.7c-0.4-0.3-0.8-0.8-0.7-1.3c0.3-1.5,0.1-3,0.3-4.5c0.1-1.3,0.3-1.3,3.2-1.3c2.6,0,2.8,0.1,2.9,1.4s0,2.5,0.1,3.7
			c0.3,2.9-1.5,4-4.7,2.9l0.1-0.1c0.4,0,0.8-0.1,1-0.5c0.3,0,0.3,0,0.6,0c0.3,0.4,0.7,0.5,1.2,0c0.1-0.2,0.3-0.3,0.6-0.5
			c1-1.8,0.4-3.7,0.4-5.7c0-0.5-0.3-0.7-0.9-0.8c-0.6-0.1-1.2-0.1-1.6-0.1c-2,0-2,0-2.3,1.6c-0.1,1.6,0,3.1-0.1,4.7L64,594.7z"/>
		<path d="M56.7,594.5c-1.3,0.9-2,0.5-2.9-0.5l0.1-0.1c0.3-0.2,0.4-0.5,0.4-0.9l0.1-0.1c0.7,0.4,1.3,0.5,2.2,0.6
			c0,0.1,0.1,0.3,0.1,0.5l-0.1,0.1c-0.3,0.1-0.7,0.1-1,0.1C55.8,594.6,56.2,594.4,56.7,594.5L56.7,594.5z"/>
		<path d="M95.3,591.3c0.9,0.5,1.7,1.2,2.2,2C96.2,593.2,95.6,592.5,95.3,591.3z"/>
		<path d="M97.5,593.3c0.9,0.1,1.6,0.3,2.3,1C98.9,594.4,98,594.3,97.5,593.3z"/>
		<path d="M94.3,589.3c0.7,0.5,1,1.2,1.2,2C94.3,590.9,94.3,590.2,94.3,589.3z"/>
		<path d="M65.4,595c-0.7-0.1-1-0.4-1.2-1l0.1-0.1c0.1,0,0.3,0,0.6,0.1c0.1,0.2,0.3,0.3,0.6,0.5C65.4,594.7,65.4,594.9,65.4,595
			L65.4,595z"/>
		<path d="M53.8,594c-0.1-0.2-0.3-0.3-0.6-0.5l0.1-0.1c0.1,0.1,0.3,0.3,0.6,0.5L53.8,594z"/>
		<path d="M181,213c0.4,0,0.9,0,1.3,0c1.3-0.1,1.9,0.3,1.3,1.6c-0.3,0.8-0.1,1.7,0.1,2.5c0.1,0.2,0.1,0.5,0.3,0.7
			c0.3,1.5-0.1,2.8-1.6,3.7c-1.2,0.7-2.3,0.6-3.3,0c-1.6-0.9-1.9-2.2-1.6-3.7c0.3-1.3,0.7-2.5,0.3-3.9c-0.3-0.7,0.3-0.9,1-0.9
			C179.7,213,180.3,213,181,213L181,213z M182.5,220.8c-0.1,0.1-0.1,0.1-0.1,0.1C182.4,221.1,182.5,221,182.5,220.8
			c0.3-0.3,0.6-0.6,0.6-1c0.1-0.1,0.3-0.2,0.3-0.3c0.1-0.2,0.3-0.5-0.1-0.6c-0.3-0.1-0.3,0.3-0.3,0.5c0,0.1,0,0.3,0,0.5
			C182.6,220.1,182.5,220.4,182.5,220.8z M178,220.8v-1c0,0,3.7,0.9,4.3-1c0.1-0.5,0.1-1,0.1-1.5c1-2.6,0.3-3.5-2.6-3
			c-0.8,0.1-1.2,0.5-1.3,1.1c0,0.7-0.1,1.3,0.5,1.9v2.7h-1v-0.7c0.3-0.2,0.3-0.5,0-0.5c-0.3,0.1-0.1,0.4-0.1,0.6
			c0.1,0.1,0.3,0.2,0.3,0.3c0.4,0.5,0.5,0.9,0.8,1.1c0.1,0.1,0.1,0.1,0.3,0.1C179.3,221,178,220.8,178,220.8z M180.7,221.8
			c0.1,0,0.1,0.1,0.1,0.1l0.1-0.1c-0.1,0-0.1-0.1-0.1-0.1L180.7,221.8z"/>
		<path d="M194.1,222c-1.4,1.1-2.5,1.3-3.5,0.6c-1.2-0.8-1.8-2-1.5-3.4c0.3-1.3,0.5-2.6,0.4-3.9c-0.1-0.5,0.1-0.8,0.6-0.8
			c1.5,0,3,0,4.5,0.1c0.5,0.1,0.5,0.5,0.1,0.9l-0.1-0.1c-1.2-0.9-2.4-0.5-3.7-0.4c-0.8,0.1-1.4,1.5-0.8,2.5c0.4,0.9,0.8-0.3,1.2-0.4
			c0.8-0.1,1.2-0.3,1.8,0.4c-1.5,0.3-2.4,1-2.4,2c0,1,0.8,1.7,2.4,2c0,0.1,0,0.3,0,0.5c-0.8,0-1.4,0-2.1,0c-0.2-0.1-0.3-0.3-0.5-0.5
			c-0.1-0.4-0.1-0.8-0.4-1c0-0.1,0-0.3,0-0.5s0-0.5-0.3-0.5c-0.2,0.1-0.1,0.4,0,0.6c0.1,0.1,0.2,0.2,0.3,0.3c0,0.4,0.1,0.7,0.4,1
			c0.1,0.2,0.3,0.3,0.5,0.5c0.6,0.7,1.4,0.7,2.1,0C193.3,221.9,193.8,221.9,194.1,222L194.1,222z"/>
		<path d="M194.7,215.1c0.1,1.5,0.7,2.9,0.6,4.4c-0.1,0.9-0.1,1.7-1.2,2.1l-0.1-0.1c0-0.3,0-0.7,0-1c1-1.1,0.6-2.3,0.3-3.5
			C194.1,216.4,193.7,215.7,194.7,215.1L194.7,215.1z"/>
		<path d="M149.4,215.5c-0.8-0.3-1.3-0.8-1.6-1.5C148.8,214.1,149.4,214.6,149.4,215.5z"/>
		<path d="M150.6,217.5c-0.7-0.5-1-1.2-1.2-2C150.4,215.9,150.7,216.7,150.6,217.5z"/>
		<path d="M183,196c1.3,0.6,1.3,1.8,1,2.8c-0.3,1.2-0.6,2.4-0.3,3.7c0.3,0.7-0.3,0.9-0.8,1c-1.5,0.1-2.9,0-4.5,0
			c-0.6,0-0.9-0.3-0.8-0.8c0.6-1.5,0-2.9-0.3-4.4c-0.1-1.2,0.3-2.4,1.5-3.1s2.5-0.7,3.7,0C182.9,195.4,183,195.7,183,196
			c-0.3,0-0.3,0-0.6,0c-0.1-0.1-0.1-0.1-0.3-0.1c0.1,0,0.1,0.1,0.3,0.1c0,0.4,0.1,0.7,0.6,1c0,0.1,0,0.3,0,0.5s0,0.5,0.3,0.5
			c0.3-0.1,0.1-0.4,0.1-0.6c-0.1-0.1-0.3-0.2-0.3-0.3C183,196.7,183,196.4,183,196z M179.5,196c0.1-0.1,0.1-0.1,0.1-0.1
			C179.5,195.9,179.5,195.9,179.5,196c-0.3,0.3-0.6,0.6-0.6,1c-0.1,0.1-0.3,0.2-0.3,0.3c-0.1,0.2-0.3,0.5,0.1,0.6
			c0.3,0.1,0.3-0.3,0.3-0.5c0-0.1,0-0.3,0-0.5C179.3,196.7,179.5,196.4,179.5,196z M179.3,199.5c-0.8,0.7-0.6,1.7-0.4,2.6
			c0,0.3,0.3,0.7,0.6,0.7c0.9,0.2,2,0.4,2.9,0c1-0.3,0.8-1.3,0.7-1.9c-0.3-0.9-0.8-0.2-1.2-0.1C180.6,201.3,179.7,201.1,179.3,199.5
			c0.8,0.3,1.5,1.4,2.6,0.4c0.9-0.9,0.8-1.8,0.3-2.7c-0.1-0.1-0.1-0.3-0.3-0.4c-0.6-0.7-1.2-0.7-1.9-0.1
			C179.6,197.5,179.3,198.5,179.3,199.5z"/>
		<path d="M195.2,203.2c0.3,0.4,0.4,0.9-0.1,0.9c-1.6,0.1-3.3,0-5.1,0c-0.7,0-0.7-0.5-0.6-0.9c0.3-1.3,0-2.5-0.3-3.7
			c-0.3-1.4,0.6-3.2,1.9-3.6c1.3-0.5,2.8-0.6,3.8,0.8l-0.1,0.1c-0.6,0.3-0.4,0.7,0.1,0.9l0,0c-0.1,1.2,0.6,2.7-1.2,3.5
			c0.1-1,0.9-2,0.3-3.1c-0.6-0.9-1.5-1.1-2.2-0.3c-0.6,0.6-0.8,1.2-0.4,2.1c0.4,1,1.3,1.3,2.4,1.4c-1,0.8-1.9,0.5-2.6-0.2
			c-0.1-0.1-0.3-0.4-0.6-0.1c-0.6,0.5,0,2.7,0.9,2.7c1.3,0.1,2.8,0.5,4-0.4L195.2,203.2z M191.1,196.6c-0.1,0.2-0.3,0.3-0.6,0.5
			c-0.3,0.3-0.6,0.6-0.6,1c-0.1,0.1-0.3,0.2-0.3,0.3c-0.1,0.2-0.3,0.5,0.1,0.6c0.3,0.1,0.3-0.3,0.3-0.5c0-0.1,0-0.3,0-0.5
			c0.4-0.2,0.6-0.6,0.6-1C190.8,196.9,190.9,196.8,191.1,196.6c0.3-0.1,0.6,0,0.6-0.3c0,0-0.1-0.1-0.3-0.1
			C191.3,196.4,191.3,196.5,191.1,196.6z"/>
		<path d="M194.7,196.6c1.9,1.2,0.9,2.9,0.9,4.4c0,0.7-0.6,1.4-0.4,2.2l-0.1,0.1c-0.7-0.6-0.4-1.3-0.3-2c0.3-1.2,0.7-2.4-0.3-3.5
			l0,0c0-0.3,0-0.6-0.1-0.9L194.7,196.6z"/>
		<path d="M150.8,200.8c-0.7-0.5-1-1.2-1.2-2C150.6,199.1,150.8,199.9,150.8,200.8z"/>
		<path d="M148.5,197.7c-0.8,0-1.3-0.3-1.6-1C147.7,196.7,148.2,197,148.5,197.7z"/>
		<path d="M149.1,198.2c-0.1-0.1-0.3-0.3-0.6-0.5C148.7,197.8,149,198,149.1,198.2z"/>
		<path d="M149.7,198.7c-0.1-0.1-0.3-0.3-0.6-0.5C149.3,198.4,149.4,198.5,149.7,198.7z"/>
		<path d="M54.3,566.3c2.5-1.3,4.4-0.4,4.5,2.1c0.1,1.5-0.7,2.9-0.3,4.4c0.1,0.4-0.3,0.7-0.8,0.7c-0.3,0.1-0.7,0.1-1,0.1
			c-4.1,0-3.7,0.1-3.7-3c0-0.6,0-1.2-0.3-1.8c-0.3-0.8,0-1.4,0.7-2l0.1,0.1c0.1,0.3-0.3,0.7,0.3,0.9c0.1,0.1,1.2-0.5,1.2-0.5v3.1
			c-0.3,0.1-0.4-1.1-0.8-0.1c-0.1,0.4,0,0.7,0,1.1c0.3,1.6,0.3,1.6,2,1.6c1.8,0,1.8,0,1.8-1.8c0-0.3,0-0.9,0-0.9s0.3-2.1-0.6-3.1
			c-0.1-0.2-0.3-0.3-0.4-0.5c-0.1-0.1-0.1-0.1-0.1-0.1c0.1,0.1,0.1,0.1,0.3,0.1c0.3,0.1,0.8,0.4,0.8,0.4v3.2c0,0-1.7,1.5-2.9,0.4
			c1.3-0.2,1.9-0.8,1.9-1.9c0.1-1.2-0.6-1.9-1.9-2.2c-0.3-0.3-0.6-0.4-1-0.4L54.3,566.3z"/>
		<path d="M69.8,567.6c0.6,0.5,0.7,1.1,0.7,1.8c-0.1,1.3-0.3,2.7-0.3,3.9c0,1.1-0.8,1.5-1.9,1.3c-1.3-0.2-3.5,0.9-4.2-0.9
			c-0.4-1.7-0.4-3.7-0.1-5.7c0-0.2,0.3-0.4,0.6-0.5l0.1,0.1c0,1.7,0,3.5,0.1,5.2c0,0.9,0.3,1.4,1.5,1.3c0.6-0.1,1.2-0.1,1.6,0
			c1.2,0.1,1.3-0.4,1.6-1.3C69.8,571.3,69.7,569.4,69.8,567.6L69.8,567.6z"/>
		<path d="M65.8,566.5c1-0.7,1.9-0.7,2.9,0l-0.1,0.1c-0.3,0.1-0.4,0.1-0.7,0.2c0.3,0.1,0.4,0.1,0.7,0.2l0.1,0.1
			c0.1,0.1,0.3,0.3,0.6,0.5l0,0c0,1.1,0,2.1-0.1,3.2c-0.1,0.7-0.6,1.2-1.5,1.3c-0.9,0.1-1.7,0.1-1.9-1c0.9,0.3,1.9,0.8,2.5-0.2
			c0.6-0.8,0.4-1.8,0-2.7c-0.3-0.4-0.7-0.6-1.2-0.6c-0.6,0.1-1.2,0.4-1.3,0.9c-0.1,0.8-0.1,1.7-0.3,2.5c-1-1.1-0.3-2.3-0.6-3.5l0,0
			c0.1-0.1,0.3-0.3,0.6-0.5l0,0c0.3-0.1,0.4-0.1,0.7-0.2C66.3,566.7,66,566.7,65.8,566.5L65.8,566.5z"/>
		<path d="M96.2,573.5c0.6,0.2,0.9,0.5,1.2,1C96.5,574.6,96.2,574.1,96.2,573.5z"/>
		<path d="M68.8,566.5c0.7,0.1,1,0.4,1.2,1l-0.1,0.1c-0.1,0-0.3,0-0.6-0.1l0,0c-0.1-0.1-0.3-0.3-0.6-0.5l-0.1-0.1
			C68.6,566.9,68.6,566.8,68.8,566.5L68.8,566.5z"/>
		<path d="M64.7,567.9c0.1-0.6,0.4-0.9,1.2-1L66,567c0,0.1,0,0.3,0,0.5l0,0c-0.1,0.1-0.3,0.3-0.6,0.5l0,0c-0.1,0-0.3,0-0.6,0
			L64.7,567.9z"/>
		<path d="M53.5,566.4c0.1-0.1,0.3-0.3,0.6-0.5l0.1,0.1C53.9,566.1,53.7,566.3,53.5,566.4L53.5,566.4z"/>
		<path d="M95.5,573c0.1,0.1,0.3,0.3,0.6,0.5C95.9,573.3,95.7,573.1,95.5,573z"/>
		<path d="M58,593c-0.1,0-0.3,0-0.6,0c0.1-1.4,0.1-2.9-1-4c1.2,0.1,1.6,0.7,1.6,1.6C58,591.4,58,592.2,58,593z"/>
		<path d="M56.1,589c-0.6,0.2-1,0.5-1.6,0.5C54.8,588.9,55.2,588.1,56.1,589z"/>
		<path d="M58,593c0,0-1.3,0-1.5,0c0.1-0.1,0.3-0.5,0.3-0.5l1.2,0.3L58,593L58,593z"/>
		<path d="M68.9,594.5c-0.3,0.1-0.3,0.3-0.6,0.5c-0.3,0-0.8,0-1.2,0c1.3-1.1,1.3-2.5,1.2-4C69.5,592,68.8,593.3,68.9,594.5z"/>
		<path d="M65,594.4c0.1-1.1-0.4-2.4,0.6-3.4c-0.1,1.4-0.1,2.9,1,4c-0.3,0-0.8,0-1.2,0C65.4,594.7,65.3,594.7,65,594.4z"/>
		<path d="M68.5,590.5c-0.9-0.5-1.9-0.6-2.8,0C66.7,589.1,67.4,589.1,68.5,590.5z"/>
		<path d="M180.3,216.3c1.3-0.8,1.9,0,2.3,1C181.8,217,181,216.7,180.3,216.3z"/>
		<path d="M179.2,217.3c0-0.6,0.3-0.9,1.2-1C180.1,216.8,179.7,217.1,179.2,217.3z"/>
		<path d="M194.3,221c-0.3,0.1-0.8,0.3-1.2,0.5c0.6-1.3,0.6-2.7,0-4C194.9,218.3,194.2,219.7,194.3,221z"/>
		<path d="M54.6,570.6c0.1,0.1,0.3,0.3,0.6,0.5C55.1,570.9,54.8,570.7,54.6,570.6z"/>
		<path d="M54.7,567c0.1-0.1,0.3-0.3,0.6-0.5C55.1,566.6,54.8,566.8,54.7,567z"/>
	</g>
	<text transform="matrix(1.0725 1.020219e-02 -1.074348e-02 0.9999 151.2691 72.7232)" class="st1 st2 st3">Lab HES</text>
	<text transform="matrix(1.001938e-02 -0.9323 1 9.514570e-03 182.1835 174.0254)" class="st1 st2 st4">Ruang Dosen</text>
	<text transform="matrix(1.001938e-02 -0.9323 1 9.514570e-03 180.5529 325.6651)" class="st1 st2 st4">Ruang Dosen</text>
	<text transform="matrix(1.001938e-02 -0.9323 1 9.514570e-03 66.1126 697.838)" class="st1 st2 st4">Ruang Dosen</text>
	<text transform="matrix(1.0725 1.020264e-02 -1.074397e-02 0.9999 36.5428 445.9352)" class="st1 st2 st3">Lab IoT</text>
	<text transform="matrix(1.0725 1.020264e-02 -1.074397e-02 0.9999 31.2829 726.0529)" class="st1 st2 st3">Lab NOS</text>
	<text transform="matrix(1.0725 1.020264e-02 -1.074397e-02 0.9999 142.2669 356.7445)" class="st1 st2 st3">Lab Foresty</text>
	<text transform="matrix(1.0725 1.020264e-02 -1.074397e-02 0.9999 9.0708 769.196)" class="st1 st2 st5">Arah GSG</text>
	<text transform="matrix(1.0725 1.020264e-02 -1.074397e-02 0.9999 187.2013 32.7327)" class="st1 st2 st5">Arah Parkiran</text>
	<text transform="matrix(1.001938e-02 -0.9323 1 9.514570e-03 67.7292 544.4178)" class="st1 st2 st4">Ruang Dosen</text>
	<text transform="matrix(0.9148 1.020317e-02 -9.164321e-03 1 28.5288 400.7563)" class="st1 st2 st6">Ruang Sidang</text>
</g>
</svg>
