<?xml version="1.0" encoding="utf-8"?>
<!-- Generator: Adobe Illustrator 22.1.0, SVG Export Plug-In . SVG Version: 6.00 Build 0)  -->
<svg version="1.1" id="Layer_1" xmlns="http://www.w3.org/2000/svg" xmlns:xlink="http://www.w3.org/1999/xlink" x="0px" y="0px"
	 viewBox="0 0 612 792" style="enable-background:new 0 0 612 792;" xml:space="preserve">
<style type="text/css">
	.st0{fill:none;stroke:#000000;stroke-width:0.3;}
	.st1{opacity:0.5;enable-background:new    ;}
	.st2{font-family:'ArialMT';}
	.st3{font-size:12.1435px;}
	.st4{font-size:15.4464px;}
	.st5{font-size:6.7463px;}
	.st6{font-size:11.7018px;}
</style>
<g>
	<g>
		<g>
			<g>
				<path d="M281.6,0.7c-4.1,0-4.1,0-4.1,3c0,0.3,0,0.7,0,1c-0.1,12-0.3,24.3-0.5,36.2c0,1.4-0.1,2.9,0,4.3c0.1,0.9,1.1,1.7,2.3,1.8
					c3.5,0.1,7.2,0.1,10.7,0.1c3,0,3,0.1,3,2.3c0,0.3,0,0.7,0,1c-0.5,41.2-1.1,82.2-1.6,123.5c0,0.5,0,1,0,1.5
					c-0.1,1.6-0.1,1.7-2.4,1.7c-3.3,0-6.5,0-9.8-0.1c-4.6,0-4.6,0-4.8,3.4c-0.3,20.8-0.5,41.5-0.8,62.3c0,0.5,0,1,0,1.5
					c0.1,1.7,0.5,2,2.9,2c3.1,0.1,6.1,0,9.2,0.1c2.4,0,4.5,1.6,4.5,3.4c-0.5,39.8-1.1,79.4-1.6,119.2c0,3.6,0.3,3.3-4.8,3.3
					c-31.8-0.2-63.8-0.5-95.6-0.7c-4.4,0-4.4,0-4.5,3.4c0,0.5,0,1,0,1.5l-1.1,82.7c-0.4,27.7-0.7,55.4-1.1,83.1c0,0.7,0,1.3,0,2
					c-0.1,1-1.2,1.9-2.6,1.8c-4.8,0-9.5-0.1-14.3-0.1c-3.1,0-3.1,0-3.3,2.4c-0.3,21.2-0.5,42.4-0.8,63.6c0,2.5,0.3,2.6,3.7,2.7
					c4.4,0,8.7,0.1,12.9,0.1c3.3,0,3.3,0,3.3,2.6c0,0.2,0,0.3,0,0.5c-0.5,40.6-1.1,81.2-1.6,121.7c0,0.6,0,1.2,0,1.7
					c0,0.9-0.7,1.2-1.6,1.2c-1.4,0-2.7,0-3.9,0c-3.1-0.1-6.4-0.1-9.5-0.1c-4.8,0-4.8-0.4-4.9,2.3c0,0.2,0,0.3,0,0.5
					c-0.1,14.1-0.4,28.3-0.5,42.4c0,0.5,0,1,0,1.5c0,0.8,0.5,1.2,1.6,1.2c1,0,1.8,0,2.7,0c15.9,0.1,31.7,0.2,47.6,0.4
					c38.8,0.3,77.6,0.6,116.4,0.9c3.9,0,3.9,0,4.1-3c0-0.1,1.4,0,1.4,0l0.5-41.2c-0.1-0.5-0.1-1-0.3-1.5c-0.1-1.6-0.5-1.9-2.6-2
					c-2.7-0.1-5.3,0-8-0.1c-5.2,0-4.8,0.3-4.8-3.5c0.5-40.5,1.1-81,1.6-121.4c0-0.6,0-1.2,0-1.7c0.1-1.6,0.1-1.7,2.3-1.7
					c3.3,0,6.7,0.1,10.1,0.1c4.6,0,5-3.2,5-3.2s0.5-41.5,0.8-62c0-0.4,0-0.8,0-1.3c0-1.9-0.1-2-2.7-2c-3.3-0.1-6.4,0-9.7-0.1
					c-5.3,0-4.2,0.2-4.4-4.7c-1-39.7,0.1-79.3,1.6-119c0.1-4.6-0.7-4.3,4.5-4.3c37.9,0.3,76,0.6,113.9,0.9c1,0,1.8,0,2.7,0
					c2.4,0,2.6-0.1,2.7-2c0.1-3.7,0.1-7.4,0.1-11.1c0.1-10.1,0.3-20.2,0.4-30.3c0-2.5,0-2.5-3.4-2.5c-4.1,0-8.2-0.1-12.4-0.1
					c-3.5,0-3.5,0-3.7-2.8c0-0.3,0-0.5,0-0.7c0.5-40.2,1.1-80.4,1.6-120.8c0-0.5,0-1,0-1.5c0.1-1.9,0.3-1.9,2.9-1.9
					c4.9,0,9.8,0.1,14.7,0.1c3,0,3.3-0.2,3.4-2.4c0.3-21.4,0.5-42.8,0.8-64.1c0-2.2,0-2.3-3-2.3c-5,0-10.1-0.1-15.1-0.1
					c-2.6,0-2.6-0.1-2.7-2c0-0.3,0-0.7,0-1c0.5-41,1.1-81.8,1.6-122.8c0-0.6,0-1.2,0-1.7c0-0.8,0.5-1.2,1.8-1.2c1.4,0,2.7,0,4.1,0
					c2.7,0.1,5.3,0.1,8,0.1c5.6-0.2,5.6,0.5,5.7-2.3c0-0.2,0-0.3,0-0.5c0.1-13.5,0.4-27.1,0.5-40.6c0-0.5,0-1,0-1.5
					c0-0.8-0.5-1.2-1.6-1.2c-1,0-1.8,0-2.7,0c-16.3-0.1-32.5-0.2-48.7-0.4C359.6,1.3,320.5,1,281.6,0.7z M303.2,414.9
					c0.4,0.7,0.3,1.1-0.8,1.2c-0.8,0.1-1.5,0-2.3,0c-1.1,0-1.5-0.5-1.6-1.3c-0.3-1.8,0-2.3,2-2.7c-0.4-0.4-0.8-0.5-1.4-0.6
					c-1.4-0.4-2-0.1-1.9,1.1c0,0.2,0,0.4,0,0.7c-0.3,3.1,0.3,2.7-4.2,2.8c-0.3,0-0.5,0-0.8,0c-3.5-0.2-3.7,0.1-3.7-2.2
					c0.1-6.4,0.1-12.8,0.3-19.3c0-0.6,0-1.2,0-1.7c0-1.7-0.5-2.1-2.7-2c-1.6,0.2-3-0.6-4.6-0.4c1.2,0.8,2.9,1,4.2,1.4
					c3,0.8,1.4,2.7,0,9.1c-0.8,3.5-0.4,7.1,0.8,10.5s0.8,4.6-1.6,4.5c-0.7,0-1.4,0-2,0c-30.6-0.2-61.3-0.5-92-0.7
					c-4.5,0-4.1,0-4.1-3.2c0.1-11.6,0.3-23.2,0.4-34.8c0-0.5,0-1,0-1.5c-0.1-1,0.5-1.6,2-1.5c0.7,0,1.4,0,2,0
					c30.7,0.2,61.6,0.5,92.3,0.7c0.3,0,0.4,0,0.7,0c3.4,0,3.4,0,3.4,2.5c0,0.9-0.1,1.9,0,2.7c0.1,1.3-0.7,1.8-2.3,2.1
					c-2.2,0.4-4.5,0.2-6.7,0.1c-4.2,0-5-0.2-3.4,3.8c0.1,0.3,0.5,0.5,0.8,0.8c-0.5-3-0.5-3,3.7-3c2.3,0,4.6,0,6.9-0.3
					c2-0.3,2.3-1,2-2.7c-0.1-0.6-0.1-1.2,0-1.8c0.4-4-0.4-4.1,2.7-4.2c0.4,0,0.7,0,1,0c4.8,0,4.8,0,5.2,3.5c0.1,1.5,0.1,1.5,2,1.1
					c-0.7-0.4-0.7-1-0.5-1.6c0.1-1,0.3-2,0.3-3c0-0.5-0.5-1.3-0.3-1.7c0.7-0.6,1.9-0.3,2.9-0.2c2.3,0,4.6,0,7.1,0.1
					c1,0,1.6,0.3,1.4,1.1c-0.5,1.2-0.5,2.5-0.5,3.7c0,1-1,1.3-1.9,1.3c0.3,0.4,0.8,0.5,1.4,0.7c1.2,0.4,1.9,0.1,2-0.9
					c0-0.2,0-0.3,0-0.5c0.3-3.3,0.3-3.3,4.6-3.3c40.5,0.3,80.9,0.6,121.4,0.9c4.9,0,4.5-0.2,4.4,3.5c-0.1,11.4-0.3,22.8-0.4,34.2
					c0,0.5,0,1,0,1.5c-0.1,1.7-0.1,1.7-2.6,1.8c-0.5,0-1.1,0-1.6,0c-40.7-0.3-81.2-0.6-121.8-0.9c-0.4,0-0.7,0-1,0
					c-3.4,0-3.4,0-3.4-2.5c0-0.8,0.5-1.9-0.5-2.3c-1.1-0.3-2.7,0.1-3.4,1.2c1,0.2,2.2-1.1,2.6,0.6c0.4,1.7-0.1,2.7-1.4,2.9
					c-1.8,0.3-2.7-0.1-3.3-1.5c-1.2-0.9-1.8-2.4-3.9-2.6C301.2,413.1,302.7,413.6,303.2,414.9z M312.7,373.9
					c0.1-0.9,1.6-0.5,2.4-0.6c0.4,0,1,0,1.4,0.1c0.5,0.1,1.1,0.3,1,0.8c-0.1,0.4-0.4,0.5-1,0.6c-0.5,0.1-1,0.1-1.4,0.1
					C314.2,374.6,312.6,375.1,312.7,373.9z M293.3,416.6c1.1,0.2,2.9-0.3,2.9,0.8s-1.6,0.7-2.7,0.7s-2.7,0.4-2.7-0.8
					C290.7,416.1,292.5,416.9,293.3,416.6z M289.6,430.1c0,0.5-0.1,1.1-1,1.1c-1,0-1-0.6-1-1.1c0-3.4,0.1-6.9,0.1-10.3
					c0-0.5,0.3-1,0.4-1.5c0.1-0.5,0.1-1.2,1-1.1s0.4,0.8,0.4,1.3c0,1.8,0,3.7-0.1,5.6l0,0C289.6,426.2,289.6,428.1,289.6,430.1z
					 M187.6,460.8c-3.7,0-3.7,0-3.7-2.8c0.1-12.9,0.4-25.9,0.5-39c0-0.5,0-1,0-1.5c0-0.8,0.5-1.3,1.6-1.3c1,0,1.8,0,2.7,0
					c31.3,0.2,62.7,0.5,94,0.7c1.4,0,2.9-0.6,3.9,0.6c-1.2,0.7-2.4,0.4-3.7,0.4c-30.9-0.2-61.7-0.5-92.6-0.7c-4.8,0-4.5-0.2-4.5,3.4
					c-0.1,11.7-0.3,23.4-0.4,35.1c0,0.7,0,1.3,0,2c0,0.9,0.5,1.4,1.9,1.4c0.8,0,1.5,0,2.3,0c31.1,0.2,62.4,0.5,93.5,0.7
					c4.2,0,4.2,0,4.2-3.1c0-3.3,0.1-6.8,0.1-10.1c0-0.6,0-1.1,0.1-1.7c0-0.2,0.4-0.4,0.7-0.5c0.5-0.1,1,0.1,1,0.5
					c0.1,0.6,0.1,1.1,0.1,1.7c0,3.9-0.1,7.9-0.1,11.9c0,2.8,0,2.8-3.7,2.8c-16.5-0.1-32.9-0.3-49.4-0.4
					C220.1,461,203.9,460.9,187.6,460.8z M288.2,462.2c0.7,0,0.8,0.4,1,0.9c0,1.7,0,3.5-0.1,5.2c0,1.7,0,3.5-0.1,5.2
					c0,0.5-0.3,0.9-1,0.9s-0.8-0.4-1-0.9c0-3.5,0.1-7,0.1-10.5C287.3,462.6,287.6,462.2,288.2,462.2z M188.4,504.3
					c-0.7,0-1.4,0-1.9,0c-3-0.1-3-0.1-3-2.3c0.1-12.8,0.3-25.6,0.5-38.5c0-0.5,0-1,0.1-1.5c0-0.2,0.3-0.5,0.7-0.4
					c0.1,0.1,0.4,0.2,0.4,0.3c0.1,1.3,0.1,2.7,0,4c-1.6,10.2-2,20.6-0.4,30.8c0.1,1.3,0,2.5,0.1,3.8c0,2.3,0.3,2.5,3.4,2.6
					c13.5,0.1,26.8,0.2,40.4,0.3c17.8,0.1,35.8,0.3,53.7,0.4c0.5,0,1.1,0,1.6,0c2.7,0,2.9-0.1,2.9-2.1c0-3.8,0.1-7.8,0.1-11.6
					c0-0.7-0.5-2.1,0.8-2.1c1.8,0,1.1,1.4,1.1,2.2c0,4,0,8.1-0.1,12.1c0,2.5,0,2.5-3.3,2.5c-16.5-0.1-32.9-0.3-49.4-0.4
					C220.1,504.5,204.4,504.4,188.4,504.3z M287.6,505.4c1,0,1,0.5,1,1.1c0,1.7,0,3.5-0.1,5.2l0,0c0,1.7,0,3.3,0,4.9
					c0,0.5-0.1,0.9-1,0.9c-0.7,0-1-0.4-1-0.8c0-3.5,0.1-7,0.1-10.5C286.8,505.9,286.9,505.4,287.6,505.4z M182.9,544.7
					c0-4.7,0.1-9.6,0.1-14.4c0.1-7.8,0.3-15.5,0.3-23.3c0-0.6-0.3-1.7,0.5-1.7c1.4,0,0.8,1.2,0.8,1.8c-0.1,12.1-0.3,24.3-0.5,36.4
					c0,3.5-0.3,3.3,4.4,3.7h93.3c0,0,0.7,0.3,1,0.3c3.4,0,3.4,0,3.4-2.4c0-3.5,0.1-7.1,0.1-10.6c0-0.5,0-1,0-1.5s-0.1-1.3,1-1.3
					c1.1,0,0.8,0.8,0.8,1.4c0,4.6-0.1,9.3-0.1,13.9c0,1.1-0.5,1.7-2.2,1.7c-1-0.1-1.8,0-2.7-0.4h-48c-16-0.1-32.2-0.2-48.3-0.4
					C182.7,547.7,182.7,547.9,182.9,544.7z M164.5,613.8c-3.1,0-3.3,0-3.1-2.4c0.1-9.2,0.7-27.6,0.7-27.6l1.4-3.7V550
					c0,0-1.2-1.3-1.2-2c0-0.9,0.5-1.4,1.8-1.4c5.3,0,10.6,0.1,16,0.1c0.4,0,1,0,1,0.5s-0.5,0.5-1,0.5c-3.7,0-7.3-0.1-11,0
					c-1,0-2-0.1-3,0c-2,0.1-2.4,0.4-2.6,2c0,0.5,0.1,1.5,0.1,1.5v58.1c0,0-1.1,0.9-1,1.3c0,2,0.4,2.3,3.1,2.3
					c3.9,0.1,7.8,0.1,11.7,0.1c0.8,0,1.5,0.1,2.3,0.2c0.1,0,0.4,0.2,0.4,0.3s-0.1,0.3-0.4,0.3c-0.7,0.1-1.4,0.1-1.9,0.1
					C173.4,613.9,168.9,613.9,164.5,613.8z M279.8,561.8c-1.1,7.8,1.8,5.9-7.2,6.5c-0.1,0-0.4,0-0.4,0c-1.6-0.3-2.9,0.1-2.6,1.1
					c0.3,1.2,0.3,2.5,1.9,3.3c-1.2-3.5-1.2-3.4,3.5-3.5c1.9-0.1,3.9,0.6,5.7-0.2c0.7-0.3,1.2,0.2,1.2,0.8c0,1.7,0,3.3,0,5
					c0,0.5-0.4,0.6-1.1,0.7c-1.8,0.2-3.4,0.1-5.2-0.5c-0.8-0.3-1.5-0.7-2.4-0.7c0.8,1.3,2.6,1.4,4.2,1.8c1.6,0.5,2.3,1.8,1.5,3
					c-0.3,0.5-0.7,0.6-1.4,0.6c-1,0-1.8,0.1-2.7,0c-35.6-0.3-71.2-0.5-106.9-0.8c-4.5,0-4.2,0.2-4.2-3.4c0.1-7.9,0.3-15.8,0.3-23.7
					c0-0.5,0-1,0-1.5c0.1-1.5,0.3-1.6,2.4-1.7c0.7,0,1.4,0,1.9,0c35.5,0.3,71,0.5,106.5,0.8c6,0,3.7-0.4,4.5,7.8
					C280.1,558.8,280.1,560.3,279.8,561.8z M281.7,549.7c0.3,0,0.7,0.2,0.7,0.4c0.1,0.4,0.1,0.8,0.1,1.2c0,4.7-0.1,9.4-0.1,14.1
					c0,0.6,0.3,1.6-1,1.6c-1.2,0-1-0.9-1-1.6c0-2.3,0-4.7,0.1-7.1c0-2.3,0-4.5,0.1-6.8c0-0.5,0.1-1,0.1-1.5
					C281,549.9,281.5,549.7,281.7,549.7z M271.9,586.6c-2.6,0-2.7,0.4-1.8,2.5c0-0.9,0.3-1.4,1.8-1.5c3.1-0.1,6.3,0.3,9.2-0.2
					c0.7-0.1,1,0.3,1,0.7c0,2,0,3.9-0.1,6c0,0,0,0.1-0.1,0.1c-1.8,0-3.4,0-5.3,0c4.1,1.6,1.8,0.7,3,10.4c0,0.1,0,0.3,0,0.5
					c-1.5,8.2,0.8,8.3-3.4,8.4c-7.3-0.1-14.7-0.1-21.9-0.2c-28.8-0.2-57.5-0.4-86.2-0.7c-4.2,0-4.2,0-4.1-3.2
					c0.1-8.2,0.3-16.4,0.3-24.5c0-0.6,0-1.1,0-1.7c0-0.9,0.7-1.3,1.9-1.3c0.8,0,1.5,0,2.3,0c35.6,0.3,71.2,0.5,106.9,0.8
					c0.4,0,1,0,1.4,0c2.7,0.1,2.9,0.2,2.7,2.2c-0.1,1.6-0.1,1.7-2.3,1.8C275.6,586.6,273.7,586.5,271.9,586.6z M281,595.8
					c0.3,0,0.7,0.2,0.7,0.4c0.1,0.4,0.1,0.8,0.1,1.2c0,4.7-0.1,9.4-0.1,14.1c0,0.6,0.3,1.6-1,1.6c-1.2,0-1-0.9-1-1.6
					c0-2.3,0-4.7,0.1-7.1c0-2.3,0-4.5,0.1-6.8c0-0.5,0.1-1,0.1-1.5C280.4,596,280.9,595.8,281,595.8z M280.4,585.2
					c0-1.3,0-2.7,0-3.9c0-1.1,0-2.3,0-3.5c0-0.4,0.4-0.6,1-0.6c0.4,0,1,0.3,0.8,0.6c0,2.5,0,4.9-0.1,7.5c0,0.4-0.4,0.6-1,0.6
					C280.8,585.8,280.5,585.6,280.4,585.2z M256.3,581.7c-11.7-0.1-23.3-0.2-34.9-0.3c-17.8-0.1-35.8-0.3-53.6-0.4
					c-1.1,0-2.2-0.1-3.3-0.2c-0.1,0-0.5-0.3-0.5-0.5c0-0.2,0.3-0.5,0.5-0.5c1.1-0.1,2.2-0.1,3.3-0.1c31.1,0.2,62.1,0.5,93.1,0.7
					c4.9,0,9.8,0.1,14.7,0.1c0.5,0,1.1,0,1.6,0c0.8,0.1,2.2-0.2,2.2,0.7c0,0.8-1.2,0.7-2.2,0.7C270.3,581.8,263.2,581.7,256.3,581.7
					z M185.6,658.1c-0.4,0-0.7,0-1,0c-4.1-0.1-2.6-0.1-3.1-6.1c-0.8-11.2-0.8-22.4,0.4-33.6c0.5-5.7-1-5.8,3.5-5.8
					c16.5,0.1,32.9,0.3,49.4,0.4l0,0c16,0.1,32,0.2,48,0.4c0.8,0,1.6,0,2.3,0c2.2,0.1,2.2,0.2,2.3,1.8c0,3.7-0.1,7.5-0.1,11.2
					c0,0.2,0,0.3,0,0.5c-0.1,0.5-0.1,1.1-1.1,1c-0.7-0.1-0.8-0.5-0.8-0.9c0-2.4,0-4.8-0.1-7.3c-0.1-1,0-1.9,0.1-2.9
					c0.1-1.3-0.5-1.9-2.2-1.9c-0.8,0-1.5,0-2.3,0c-31.1-0.2-62.1-0.5-93.3-0.7c-4.2,0-4.2,0-4.2,3.1c-0.1,11.9-0.3,23.8-0.4,35.6
					c0,0.6,0,1.2,0,1.8c0,0.9,1.1,1.7,2.3,1.7c0.7,0,1.4,0,1.9,0c31.1,0.2,62.4,0.5,93.5,0.7c0.1,0,0.4,0,0.7,0c3.3,0,3.4,0,3.4-2.5
					c0-3.8,0.1-7.6,0.1-11.5c0-0.6-0.3-1.6,1-1.6c1.2,0,1,1,1,1.6c0,4.5-0.1,9-0.1,13.5c0,1.9-0.1,1.9-2.7,1.9
					c-16.2-0.1-32.4-0.2-48.5-0.4c-0.8,0-1.6,0-2.3-0.3c-1.1-0.5-1.9-0.9-3-0.2c-0.1,0.1-0.3,0.1-0.3,0.1c-2.9-0.8-5.8,0.4-8.7,0.3
					C209.3,658.3,197.4,658.2,185.6,658.1z M184.9,701.2c-0.8,0-1.5,0-2.3,0c-1.2,0-1.8-0.5-1.8-1.4c0-0.4,0-0.8,0-1.3
					c0.1-12.5,0.3-25.1,0.5-37.7c0-0.7-0.5-2.1,0.7-2.1c1.2,0,0.5,1.3,0.5,2.1c-0.1,11.6-0.3,23.3-0.4,34.8c0,0.7,0,1.3,0,2
					c0.1,1.6,0.5,1.9,2.6,2c0.7,0.1,1.4,0,1.9,0c31.1,0.2,62.1,0.5,93.1,0.7c2.3,0,4.2-1.4,4.2-3.1c0-3.3,0.1-6.8,0.1-10.1
					c0-0.6,0.1-1.1,0.1-1.7c0-0.2,0.3-0.5,0.7-0.5c0.5-0.1,1,0.1,1,0.5c0.1,0.5,0.1,1,0.1,1.5c0,4.1-0.1,8.5-0.1,12.6
					c0,2.3-0.1,2.3-3.3,2.3c-16.6-0.1-33-0.3-49.6-0.4C217.1,701.4,201,701.3,184.9,701.2z M180.3,742c0-0.7-0.1-1.3,0-2
					c0.1-5.9,0.1-11.8,0.3-17.7c0.1-5.8,0.1-11.5,0.3-17.2c0-0.7,0-1.3,0-2c0-0.3,0.1-0.8,0.5-0.8c0.8-0.1,0.7,0.5,0.7,0.9
					c0.1,0.6,0,1.1,0,1.7c-0.1,9-0.3,18-0.4,27c0,2.7-0.1,5.6-0.1,8.4c0,0.6,0,1.1-0.1,1.7c0,0.3-0.1,0.5-0.7,0.5
					C180.4,742.6,180.3,742.3,180.3,742z M289.2,742c-2.6,0-2.6-0.1-2.6-2c0-4.1,0.1-8.2,0.1-12.3c0-2,0-1.9-2.6-2.5
					c-1.8-0.4-3.5-0.2-5.3-0.3c-0.8,0-1.6,0-2.2-0.5c-1,0.7-0.8,1.3,0.4,1.4c1.4,0.2,2.6,0.2,3.9,0.1c2,0,2.7,0.6,1.8,3.3
					c0,3.2-0.1,6.3-0.1,9.4c0.8,2.3,0.5,3.4-1.4,3.4c-0.8,0-1.8,0-2.6,0c-30.2-0.2-60.2-0.5-90.6-0.7c-4.6,0-4.2,0.2-4.2-3.3
					c0.1-11.4,0.3-22.8,0.4-34.2c0-0.5,0-1,0-1.5c-0.1-1.1,0.5-1.7,2.2-1.6c0.8,0,1.5,0,2.3,0c30.2,0.2,60.2,0.5,90.6,0.7
					c5.2,0,4.1-0.3,4.2,4.7c0,1.3,0,2.7,0,4c-0.1,4.3,0.5,4.3-3.4,4.3c-0.1,0-0.4,0-0.7,0c-1.1,0.1-2.3-0.4-3,0.6
					c-0.5,0.9,0,1.7,1.1,2.4c-0.1-1.3,1-1.5,2.3-1.5c1.9,0.1,3.7,0,5.6-0.4c1.1-0.3,0.8-1.4,0.8-1.4s0-1.5,1-1.5l0.4-26
					c-0.1-0.5-0.3-1-0.1-1.5c0-0.9-0.4-1.3-1.6-1.6c-1.8-0.4-3.5-0.4-5.3-0.5c-1.1,0-2.2,0.3-3.1-0.5c-1,0.7-0.8,1.3,0.4,1.4
					c1.4,0.2,2.7,0.2,4.1,0.1c2,0,2.7,0.6,1.8,3.3c-0.1,3.1-0.1,6.2-0.3,9.3c1,2.4,0.7,3.6-1.4,3.6c-0.8,0-1.5,0-2.3-0.4l-92-0.7
					c-4.4,0.3-4.4,0.5-4.2-2.8c0.1-11.6,0.3-23.1,0.4-34.7c0-0.6,0-1.1,0-1.7c0-0.9,0.5-1.4,1.8-1.4c0.5,0,1.1,0,1.6,0
					c11.8,0.1,23.7,0.2,35.4,0.3c1,0,1.9-0.1,2.6,0.4c0.4-0.1,1-0.1,1.5-0.1c0.1,0,0.4,0.1,0.5,0.1c-0.1-0.1-0.1-0.1-0.1-0.1
					c0.1-0.1,0.4-0.1,0.5-0.1c0.1,0,0.1,0.1,0.3,0.1c-0.1,0.1-0.4,0.1-0.5,0.1c0.4,0.1,1,0.1,1.4,0.1c0.3,0,0.7,0.1,1,0.1l0.4,0.1
					c0.8,0.1,1.6,0.1,2.4,0.3c0.7-0.9,1.8-0.9,3-0.8c8.4,0.1,16.7,0.1,25,0.2c6.8,0.1,13.6,0.1,20.4,0.2c3,0,3,0.1,2.9,2.3
					c0,2.8-0.1,5.8-0.1,8.6c0,2.1-0.1,2.1-2.9,2.2c-0.4,0-1,0-1.4,0c-1.1,0.1-2.4-0.4-3,0.6c-0.5,0.9,0,1.7,1.1,2.4
					c0-1.9,0-1.9,2.6-2c1.4,0,2.9,0.1,4.2-0.2c2.4-0.4,2.6-0.3,2.6-2.2c0-4.1,0.1-8.3,0.1-12.4c0.1-5.5,0.1-11,0.3-16.5
					c0-2,0-1.9-2.6-2.5c-1.8-0.4-3.5-0.2-5.3-0.3c-0.8,0-1.6,0-2.2-0.5c-1,0.7-0.8,1.3,0.4,1.4c1.4,0.2,2.7,0.2,4.1,0.1
					c2,0,2.7,0.6,1.8,3.3c-0.1,3.1-0.1,6.2-0.3,9.3c1,2.4,0.7,3.6-1.4,3.6c-0.7,0-1.9,0.1-1.9,0.1s-61.7-0.5-92.5-0.7
					c-0.4,0-1,0-1.4,0c-2.4-0.1-2.6-0.2-2.6-2.1c0.1-5.5,0.1-10.8,0.3-16.2c0.1-6.8,0.1-13.4,0.3-20.3c0-2.4,0-2.4,3.1-2.4
					c31.3,0.2,62.7,0.5,94,0.7c2.9,0,3,0.1,2.9,2.3c0,2.8-0.1,5.8-0.1,8.6c0,2.1-0.1,2.1-2.9,2.2c-0.4,0-1,0-1.4,0
					c-1.1,0.1-2.4-0.4-3,0.6c-0.5,0.9,0,1.7,1.1,2.4c0-1.9,0-1.9,2.2-2c1.8,0,3.7,0,5.4-0.2c1.1-0.2,1.8-0.9,1.8-1.6l0.1-13.2
					c0-1.2-0.7-1.7-2.2-1.6c-0.5,0-1.1,0-1.6-0.1c-1-0.1-1.4-0.5-1.4-1.2c0-0.6,0-1.1,0-1.7c0.3-19.4,0.5-38.7,0.8-58
					c0-0.4,0-0.8,0-1.3c-0.1-1,0.4-1.5,1.9-1.6c3.4-0.2,3.5-0.3,3.5-2.8c0-4.7,0.1-9.5,0.1-14.1c0-2.1-0.5-2.6-3.4-2.7
					c-1.2-0.1-2.4,0-3.7,0c-2.2,0-2.2,0-2.2-2c-0.7,0.3-1,0.9-1.2,1.5c-0.3,0.9,0.1,1.5,1.4,1.6s2.4,0.1,3.7,0
					c1.6,0,2.3,0.5,1.9,2.3c0,3.5-0.1,7.1-0.1,10.6c0.4,1.7,0.1,2.8-1.8,2.7c-0.7,0-1.4,0-1.9,0c-30.7-0.2-61.3-0.5-92-0.7
					c-4.1,0-4.1,0-4.1-3c0.1-11.5,0.3-22.9,0.4-34.4c0-0.4,0-0.8,0-1.3c0.1-1.6,0.1-1.7,2.3-1.8c0.1,0,0.1,0,0.4,0
					c12.2,0.1,24.7,0.2,37,0.3c1.4,0,2.2,0.2,2.3,1.2c0.4-0.1,0.8-0.1,1.2-0.1l0,0c0,0,1,0.9,1.4,0.8c0.4-0.1,0.7-0.1,1-0.1
					c0-0.1,0-0.1,0.1-0.2c0.1,0.1,0.1,0.5,0.1,0.5h0.1c0,0,1.6-0.6,2.4-0.6c0.3,0,0.5,0,0.7,0.1c0.4-0.3,1-0.4,1.6-0.4
					c3,0,6,0,9,0.1c11.8,0.1,35.6,0.3,35.6,0.3s1.6-0.3,2.3-0.3c1.6-0.1,2.2,0.6,2.2,1.7c0,3.1-0.1,6.4-0.1,9.6
					c0,1.7-0.1,1.7-2.6,1.8c-1.2,0.1-2.4-0.1-3.7,0.1c-1.2,0.2-1.2,0.8-0.4,1.4c0.4-0.4,1.2-0.5,1.8-0.5c1.1,0,2.2,0,3.3,0
					c4.5-0.1,4.9-0.4,4.9-3.7c0.1-9.1,0.3-18.2,0.4-27.2c0-2.9-0.3-3.1-3.9-3.4c-1.2-0.1-2.4,0-3.7-0.1c-1.6-0.1-1.9-0.5-1.1-1.6
					c0.3-0.5,0.7-0.9,0.7-1.3c-0.7,0.2-1.2,0.5-1.5,0.9c-0.5,0.9-1.5,1.8-1,2.8c0.5,1,2.2,0.8,3.3,0.8c3.7,0.1,3.7,0.1,3.7,2.8
					c0,3.6-0.1,7.2-0.1,10.9c0,1.9-0.1,2-2.7,2c-16-0.1-32-0.2-48-0.4c-1,0-1.6-0.1-2-0.3c-0.7,0.2-1.9-0.3-1.9-0.3h-1.5
					c-0.5,0-1-0.1-1.4-0.2c-0.5-0.1-1-0.1-1.5-0.3c-0.1,0-0.1,0-0.1-0.1c-0.4,0.3-1,0.5-1.9,0.5c-6.7-0.3-13.2-0.2-19.9-0.2
					c-4.9,0-9.9-0.1-15-0.1c-3.1,0-3.1-0.1-3-2.4c0.1-10.1,0.3-20.3,0.4-30.5c0-1.7,0-3.5,0.1-5.4c0.1-2,0.1-2,3-2
					c0.4,0,0.8,0,1.4,0c30.3,0.2,60.5,0.5,90.8,0.7c4.8,0,3.9,0,3.9,4.2c0,1.7,0,3.3-0.1,5c-0.1,3.8,0.3,3.8-3.5,3.8
					c-0.8,0-1.8-0.1-2.6,0c-1.2,0.2-1.2,0.8-0.4,1.4c0.4-0.4,1.1-0.5,1.8-0.5c1.1,0,2.2,0,3.3,0c4.4-0.1,4.9-0.4,4.9-3.7
					c0.1-9,0.3-18.1,0.4-27.1c0-2.9-0.3-3.1-3.9-3.4c-1.2-0.1-2.4,0-3.7-0.1c-1.6-0.1-1.9-0.5-1.1-1.6c0.3-0.5,0.7-0.9,0.7-1.3
					c-0.7,0.2-1.2,0.5-1.5,0.9c-0.5,0.9-1.5,1.8-1,2.8c0.5,1,2,0.7,3.3,0.8c3.7,0.1,3.7,0.1,3.7,2.8c0,3.6-0.1,7.2-0.1,10.8
					c0,1.9-0.1,1.9-2.7,2c-2.6,0-5,0-7.6-0.4l-83.6-0.6c-0.7,0.3-1.4,0.3-1.9,0.3c-3.3,0-3.4,0-3.3-2.5l0.4-35.4
					c0-1.5,1.8-2.7,3.8-2.7l86.9,0.7c2.2,0,4.4,0,6.7,0.1c1.8,0,2.2,0.7,1.8,2.4c0,2.9,0,5.9,0,8.9c0.1,1.3-0.5,1.8-2,1.8
					c-1,0-2,0-3,0c-2.2,0-2.6,0.5-1.9,2c0.1,0.4,0.4,0.7,1,1c-0.1-1,0.5-1.5,1.9-1.5c1.8,0,3.4,0,5.2-0.3c1.6-0.3,2.2-0.8,2.2-2
					c0-3,0.1-6.1,0.1-9.1c0-0.6,0-1.1,0-1.7c0-0.9,0.7-1.3,1.9-1.3c1,0,2,0,3,0c1.1,0,2.2,0,2.7-1c0.4-0.8,1.4-1,2.4-1
					c2.4,0,4.9,0,7.2,0.1c0.8,0,1.8,0,1.6,0.8c-0.1,1.2,0.7,1.2,1.8,1.2c1.2,0,2.4,0,3.7,0c1.4,0,2,0.4,2,1.5c0,0.7,0,1.5,0.3,2.3
					L314.9,546c-0.3,3.8-0.3,3.8,4.5,3.8c3,0,6,0,8.8,0.1c2.6,0,2.7,0.1,2.7,2.1c0,0.3,0,0.7,0,1l-0.7,56.6c0,1.7-1.9,3.1-4.2,3
					l-8.6-0.1c-3.7,0-3.7,0-3.8,2.9c0,0.5,0,1,0,1.5c-0.5,40.9-1.1,81.7-1.6,122.6c0,3.5,0.3,3.3-4.2,3.3
					C302.3,742.1,295.7,742,289.2,742z M285.5,741.8c0,0.5,0.1,1.2-0.8,1.3s-0.8-0.7-1-1.1c0-0.4,0-0.7,0-1.1c0-2.9,0.1-5.8,0.1-8.7
					c0-0.3,0-0.6,0-0.9c0.1-0.5-0.3-1.4,0.8-1.5c1.1-0.1,0.8,0.8,1,1.4c0.1,1.2-0.4,2.5,1,3.5c-0.7,1.1-0.4,0.5-1,1.7l0,0
					C285.5,738.2,285.5,740,285.5,741.8z M285,703c0.7,0,0.8,0.4,0.8,0.9c0,3.5-0.1,7-0.1,10.5c0,0.5-0.3,0.9-1,0.9
					c-0.7,0-0.8-0.4-0.8-0.9c0-1.8,0-3.7,0.1-5.6c0-1.7,0-3.3,0-4.9C284.2,703.4,284.4,703,285,703z M231.6,659.1
					c0,0.1,0,0.3,0.1,0.4c-0.1,0-0.4,0-0.5-0.1c0,0-0.1-0.1,0-0.2C231,659.1,231.3,659,231.6,659.1z M285.5,659.5
					c0.7,0,0.8,0.4,0.8,0.9c0,3.5-0.1,7-0.1,10.5c0,0.5-0.3,0.9-1,0.9c-0.7,0-0.8-0.4-0.8-0.9c0-1.7,0-3.5,0.1-5.2
					c0-1.7,0-3.5,0.1-5.2C284.7,659.9,285,659.5,285.5,659.5z M287.2,487.1l-0.3-0.1l0.3-0.1V487.1z M288.5,443.6v-0.2l0.3,0.1
					L288.5,443.6z M294.2,744.6c2.7,0,5.6,0,8.3,0.1c2.2,0.1,2.4,0.4,1.9,1.8c-0.3,0.9-0.4,1.8-0.4,2.7c-0.1,1.8-0.1,1.8-2.7,1.5
					c0.5,1.2,2.2,1,3.4,1.2c0.8,0.1,1.2-0.5,1.2-1c0.1-0.8,0.1-1.7,0.1-2.5c-0.1-1.4,1-1.9,3.5-1.5c4.8,0.7,9.7,0.7,14.4,0.1
					c2.7-0.3,4.1,0,3.9,1.5c0,0.5,0,1,0,1.5c-0.1,12.2-0.3,24.4-0.5,36.6c0,0.6,0,1.1,0,1.7c0,0.7-0.8,1.4-1.9,1.4
					c-0.8,0-1.5,0-2.3,0c-52.5-0.4-105-0.8-157.4-1.2c-2.3,0-4.2-1.4-4.1-3.2c0.1-12.2,0.3-24.4,0.5-36.6c0-0.6,0-1.1,0-1.7
					c0-0.9,0.7-1.3,1.9-1.3c0.7,0,1.4,0,1.9,0c40.5,0.3,81,0.6,121.6,0.9c0.7,0,1.4,0,1.9,0c1.2,0,1.8,0.5,1.8,1.4s0,1.8,0,2.7
					c0,1.1,0.5,1.2,1.9,1c1.6-0.3,3.3-0.8,4.1-2c1-1.1,1.6-0.5,2.7-0.1c-0.1-0.4-0.3-0.8-0.4-1.2c-0.4-0.6-0.7-1.2-1.1-1.8
					c-0.8,0.4-0.4,1.2-1,1.7c-0.4,0.5-0.8,1-1.4,1.4c-0.7,0.6-1.8,1.3-2.7,1c-1.1-0.3-0.5-1.3-0.5-2c-0.1-0.8,0-1.7-0.3-2.5
					C292.2,744.7,292.3,744.7,294.2,744.6z M441.3,374.3c2.7,0,2.7,0.1,2.9,2.2c-0.1,9.1-0.3,18.2-0.4,27.4c0,4.4-0.1,9-0.1,13.4
					c0,1.9-0.1,2-2.7,2.1c-1,0-1.8,0-2.7,0c-37.5-0.3-74.4-0.6-112-0.9c-0.7,0-1.4,0-2,0c-4.1,0-4.1,0-4.1,3
					c-0.5,41.2-1.1,82.3-1.6,123.5c0,3.1,0,3.1,3.9,3.1c3.4,0,7.1,0.1,10.5,0.1c2.2,0,2.3,0.2,2.3,1.8c0,0.5,0,1,0,1.5
					c-0.3,20.2-0.5,40.5-0.8,60.7c0,0.3,0,0.7,0,1c-0.1,2.2-0.1,2.2-3,2.2c-3.8,0-7.6-0.1-11.4-0.1c-2.2,0-2.2,0.1-2.3,1.7
					c-0.1,0.7,0,1.3,0,2c-0.3,20.6-0.5,41.2-0.8,61.7s-0.5,41-0.8,61.5c0,0.9-0.4,2.1,0,2.7c0.8,0.9,3,0.2,4.2,0.4
					c2.2,0.4,4.4,0.4,6.5,0.1c2.4-0.4,3.5,0.1,3.4,1.6c0,0.5,0,1,0,1.5c-0.1,13.4-0.4,26.8-0.5,40.2c0,0.6,0,1.2,0,1.7
					c0,0.9-0.7,1.3-1.9,1.3c-0.8,0-1.6,0-2.3,0c-54.1-0.4-108.2-0.8-162.2-1.2c-4.4,0-4.1,0-4.1-3.2c0.1-13.3,0.4-26.7,0.5-40
					c0-0.6,0-1.2,0-1.7c0-1,0.5-1.6,2-1.5c0.8,0,1.5,0,2.3,0c40.8,0.3,81.4,0.6,122.2,0.9c1.1,0,3.3-0.6,3.4,0.6
					c0.1,0.7-2.2,0.4-3.3,0.4c-40.1-0.3-80.4-0.6-120.6-0.9c-4.8,0-4.8,0-4.9,3.6c-0.1,12.4-0.3,24.7-0.5,37.1c0,0.5,0,1,0,1.5
					c0,1.7,0.4,2.1,2.6,2.2c0.7,0,1.4,0,1.9,0c52.9,0.4,105.6,0.8,158.5,1.2c4.6,0,4.6,0,4.6-3.4c0.1-12.6,0.3-25.3,0.5-37.9
					c0-0.2,0-0.3,0-0.5c0-2.5,0-2.5-3.3-2.6c-4.9,0-9.8-0.1-14.7-0.1c-0.8,0-1.6,0-2.3,0c-0.5,0-1.4,0.1-1.2-0.5
					c0.1-0.5,1-0.4,1.4-0.5c1.6-0.1,3.7,0.6,4.8-0.4c0.7-0.7,0.1-2.3,0.1-3.4c0.5-41.2,1.1-82.4,1.6-123.7c0-3.8-0.3-3.5,4.8-3.4
					c3,0,6,0.1,9,0.1c2.4,0,2.9-0.3,3-2.2c0.1-1.3,0-2.5,0-3.7c0.3-18.4,0.5-36.7,0.7-55.1c0-0.6,0-1.2,0-1.7c0-2.2,0-2.2-3-2.3
					c-3.7,0-7.5-0.1-11.1-0.1c-2.6,0-2.6-0.1-2.6-2c0-0.7,0-1.3,0-2c0.5-40.6,1.1-81.3,1.6-121.8c0-0.5,0-1,0-1.5
					c0-2.4,0.8-3.2-3.7-3c-0.4,0-0.7,0-1-0.1c-0.7-0.1-1.1-0.3-1.1-0.7c0.1-0.5,0.7-0.6,1.2-0.7c1,0,2,0,3,0
					c40.7,0.3,81.3,0.6,121.8,0.9c4.9,0,4.6,0.3,4.6-3.3c0.1-11.7,0.3-23.4,0.4-35.1c0-0.4,0-0.9,0-1.3c0-2.1-0.1-2.1-2.9-2.2
					c-3.7,0-7.5-0.1-11.1-0.1c-1,0-2.4,0.3-2.6-0.6c-0.1-1.3,1.6-0.8,2.6-0.8C433.1,374.1,437.1,374.2,441.3,374.3z M424.6,333.3
					c0.1,0.6,0.1,1.1,0.1,1.7c-0.1,12.6-0.3,25.3-0.5,37.9c0,0.3,0,0.5,0,0.7c-0.1,1.7-0.1,1.7-2.6,1.8c-0.8,0-2.3-0.9-2.3-0.9
					h-47.9h-48c-0.8,0.2-1.6,0.1-2.3,0.2c-1.4,0.1-2.2-0.4-2-1.4c0-4.4,0.7-13.4,0.7-13.4v-0.3c0,0-0.4-0.7,0.3-0.7
					c0.1,0,0.4,0.3,0.4,0.5c0.1,0.6,0.1,1.1,0,1.7c0,3.1-0.1,6.4-0.1,9.6c0,2.3,0,2.3,3.1,2.4c13.5,0.1,26.8,0.2,40.4,0.3h54
					c1,0.4,1.8,0.4,2.7,0.4c1.2,0,1.9-0.5,1.9-1.4c0-0.7,0-1.3,0-2c0.1-11.7,0.3-23.4,0.4-35.1c0-0.7,0.1-1.5,0.3-2.3
					c0-0.2,0.3-0.5,0.7-0.5C424.2,332.8,424.6,332.9,424.6,333.3z M425.3,290.3c0.1,0.6,0.1,1.1,0,1.7c-0.1,12.5-0.3,25.1-0.5,37.7
					c0,2.7,0,2.7-3.5,2.6c-10.6-0.1-21.3-0.2-32-0.2L372,332c-16-0.1-32.2-0.2-48.3-0.4c-0.8,0-1.5,0-2.3,0c-1.2,0-1.9-0.4-1.9-1.4
					c0-4.5,0.1-9.1,0.1-13.6c0-0.3,0.1-0.8,0.5-0.8c0.8,0,0.7,0.5,0.7,0.9c0,3.1-0.1,6.4-0.1,9.6c0,4.4-0.5,3.6,6.4,3.8
					c29.4,0.2,58.7,0.5,88.1,0.7c7.6-0.2,7.3,0.9,7.5-3.3c0.1-11.7,0.3-23.4,0.4-35.1c0-0.7,0-1.5,0.1-2.3c0-0.4,0.4-0.6,1-0.6
					C425,289.7,425.3,290,425.3,290.3z M422.9,292.7c-0.1,11.4-0.3,22.8-0.4,34.2c0,0.4,0,0.9,0,1.3c-0.1,2.1-0.1,2.1-2.7,2.2
					c-0.5,0-1.1,0-1.6,0c-30.6-0.2-61.2-0.5-91.9-0.7c-4.6,0-4.2,0.2-4.2-3.3c0-2.9,0.1-6,0.1-8.9c0-2.4,0-2.4,3.1-2.4
					c0.5,0,1.1,0,1.6,0c2.6,0,3.1-0.7,2.3-2.5c-0.4-0.6-0.7-1.3-1.6-1.5c1.2,3,1.2,3-2.9,3c-0.7,0-1.4,0-1.9,0
					c-3.3,0.2-3.8,0.5-3.8,3c-0.1,9.3-0.3,18.6-0.4,27.8c0,2.5,0.5,2.9,3.8,3c0.5,0,1.1,0,1.6,0c4.5,0,4.5,0,3.1,3
					c1.2-0.3,1.5-1.2,1.9-2c0.5-1.4,0-1.9-2-2.1c-1.5-0.1-3.4,0.4-4.5-0.4c-1.2-0.9-0.5-2.4-0.5-3.6c0-2.9,0-6,0.1-8.9
					c0-1.6,0.1-1.7,2.3-1.7c0.7,0,1.4,0,1.9,0c30.6,0.2,61.3,0.5,91.9,0.7c4.6,0,4.4-0.2,4.4,3.3c-0.1,11.5-0.3,23-0.4,34.4
					c0,0.5,0,1,0,1.5c-0.1,1.5-0.1,1.6-2.4,1.7c-0.7,0-1.4,0-1.9,0c-30.6-0.2-61.3-0.5-91.9-0.7c-4.4,0-4.2,0.2-4.2-3.1
					c0-3.2,0.1-6.4,0.1-9.7c0-1.7,0.1-1.8,2.4-1.9c1,0,1.8,0,2.7,0c1.9-0.1,2.6-0.6,2-2.1c-0.4-1.1-1.4-1.9-2.3-2.7
					c-1.4-1-1.4-1,0-2.3c-0.7,0.1-1.2,0.3-1.9,0.5c-1,0.3-1.9,0.5-2.7,0.7c0.7,0.6,1.8,0.6,2.6,0.9c1.6,0.6,2.9,1.6,3.7,2.8
					c0.4,0.6,0,1-0.8,1.1c-1.1,0.1-2.2,0-3.3,0c-1,0-2,0-3,0.1c-2.2,0.3-2.4,0.6-2.4,2.4c0,3.2-0.1,6.4-0.1,9.7
					c0,3.6,0.4,3.4-4.5,3.4c-6.4,0-12.9-0.1-19.3-0.1c-2.7,0-2.7-0.1-2.9-2.1c0-0.7,0-1.3,0-2c0.5-40.4,1.1-80.8,1.6-121
					c0-3.6,0.4-3.5-4.4-3.5c-3.1,0-6.3,0-9.4-0.1c-1.5,0-2.3-0.4-2.2-1.6c0-0.5,0-1,0-1.5c0.3-19.4,0.5-38.7,0.8-58
					c0-3.3-0.3-3.2,4.2-3.1c3.3,0,6.4,0,9.7,0.1c1.5,0,2.3-0.4,2.2-1.6c0-0.7,0-1.5,0-2.3c0.5-41.8,1.1-83.6,1.6-125.4
					c0-3.7-0.4-3.4,4.5-3.4c6.3,0,12.4,0.1,18.6,0.1c3.4,0,3.5,0,3.5,2.6c-0.1,12.7-0.3,25.3-0.5,38c-0.4,29.1-0.8,58-1.1,87.1
					c0,0.4,0,0.9,0,1.3c-0.1,1.1,0.5,1.7,2.2,1.7c0.4,0,0.7,0,1,0c2,0.1,2.2,0.2,2.2,1.8c0,0.4,0,0.9,0,1.3
					c-0.1,7.3-0.1,14.5-0.3,21.9c0.5,2.7,0.7,5.5,0.5,8v5.4c-0.4,0.6-0.4,1.3,0,2v20.6c0,0-1,0.7-1,1c-0.1,2-0.1,2-2.9,2.1
					c-2.4,0.1-2.4,0.2-2.4,1.9c-0.1,4.6-0.1,9.3-0.1,13.9c0,1.2,0.4,1.7,2,2.1c1.9,0.3,3.7,0.3,5.6,0.4c1,0,2-0.1,2.3,1
					c0.8-1.7,0.7-1.9-1.1-2c-1-0.1-1.9,0-3,0c-2.4-0.1-2.6-0.2-2.6-1.8c0-3.7,0.1-7.4,0.1-11.1c0-1.1,0.5-1.7,2.2-1.7
					c0.7,0,1.4,0,1.9,0c30.7,0.2,61.5,0.5,92.2,0.7c4.6,0,4.2-0.2,4.2,3.4c-0.1,11.5-0.3,22.9-0.4,34.4c0,0.3,0,0.5,0,0.7
					c0,2.4,0,2.4-3.1,2.4c-0.4,0-1,0-1.4,0c-30.6-0.2-61.2-0.5-91.9-0.7c-4.6,0-4.2,0.2-4.2-3.3c0-2.9,0.1-6,0.1-8.9
					c0-2.4,0-2.4,3.1-2.4c0.5,0,1.1,0,1.6,0c2.6,0,3.1-0.7,2.3-2.5c-0.4-0.6-0.7-1.3-1.6-1.5c1.2,2.9,1.2,2.9-3,3
					c-0.7,0-1.4,0-1.9,0c-3.3,0.2-3.7,0.5-3.8,3c-0.1,9.3-0.3,18.6-0.4,27.9c0,2.3,0,2.3,2.9,2.8c1.8,0.3,3.5,0.1,5.3,0.2
					c1.5,0.1,1.9,0.5,1.1,1.4c-0.8,0.9-1.8,1.7-2.7,2.5c2.3-0.3,3.3-1.6,3.9-3c0.5-1.3,0-1.9-1.9-2c-1-0.1-1.9,0-3,0
					c-2-0.1-2.2-0.2-2.2-1.8c0-3.7,0.1-7.4,0.1-11.1c0-1.1,0.5-1.7,2.2-1.7c1,0.1,1.8,0,2.7,0c30.5,0.2,61,0.5,91.5,0.7
					C423.3,289.3,423,289.1,422.9,292.7z M320.3,332.2c0.5,0.1,0.5,0.5,0.5,0.8c0,2,0,4-0.1,6c0,1.9,0,3.8-0.1,5.8
					c0,0.3,0,0.7-0.5,0.8c-0.7,0.1-0.7-0.3-0.7-0.7c0-4,0.1-8.1,0.1-12.1C319.7,332.6,319.7,332.1,320.3,332.2z M423.7,48.3
					c1.5-0.1,2.2,0.4,2.2,1.6c-0.1,12.5-0.3,25.1-0.5,37.7c0,1.2-0.7,1.7-2.2,1.6c-0.7,0-1.4,0-1.9,0c-30.7-0.2-61.5-0.5-92.3-0.7
					c-4.5,0-4.1,0.1-4.1-3.2c0-2.9,0.1-5.9,0.1-8.9c0-2.5,0-2.5,3.3-2.5c0.8,0,1.6,0,2.3,0c1.8-0.1,1.9-0.3,1.1-2
					c-0.1,0.9-1,0.9-1.9,1c-1.9,0.1-3.9-0.2-5.8,0.3c-1,0.3-1.4-0.3-1.4-0.9c0-2.7,0.1-5.6,0.1-8.3c0-0.5,0.1-1.1,1.2-0.9
					c2.2,0.4,4.4,0.2,6.5,0.3c1.2,0.1,1.6,0.5,1,1.3c-1.2,1.5-2.9,2.8-5.3,3.1c-0.3,0.1-0.7,0.2-1,0.3c0.3,0.1,0.5,0.3,0.8,0.4
					c0.8,0.3,1.6,0.5,2.6,0.4c-0.5-0.7,0.1-1,0.8-1.4c1.5-0.9,2.7-1.8,3.1-3.1c0.4-1.3,0-1.9-1.9-2c-1.2-0.1-2.4,0-3.7-0.1
					c-1.1,0-1.6-0.5-1.6-1.3c0-4,0.1-8.1,0.1-12.1c0-0.9,0.7-1.2,1.8-1.2c0.7,0,1.4,0,1.9,0c31,0.2,61.9,0.5,92.9,0.7
					C422.6,48.3,423.1,48.3,423.7,48.3z M323.1,91.1c0.7,0,0.8,0.4,0.8,0.9c0,3.4-0.1,6.9,0,10.3c0,0.6,0,1.1-0.1,1.7
					c0,0.5-0.3,0.9-1,0.9s-0.8-0.4-0.8-0.9c0-2.1,0-4.1,0.1-6.3c0-1.9,0-3.8,0.1-5.8C322.1,91.5,322.4,91.1,323.1,91.1z M329,161
					c1.6-0.1,2.2-0.6,1.9-1.7c-0.3-0.9-0.5-1.8-1.9-2.2c1,2.5,1,2.5-2.7,2.5c-1.2,0-2.4,0-3.5,0.2c-1.1,0.3-1.8-0.2-1.6-1.1
					c0-2.5,0-5,0.1-7.5c0-0.9,0.7-1.2,1.8-1c1.6,0.5,3.4,0.2,5.3,0.3c1.9,0.1,1.9,0.1,1.4,1.5c-0.1,0.3-0.1,0.7-0.4,0.9
					c1.2-0.3,1.5-1.2,1.9-1.9c0.5-1.4,0-1.9-2-2.1c-1.5-0.1-3.4,0.4-4.5-0.4c-1.4-0.9-0.4-2.5-0.5-3.7c-0.1-1.2-0.3-2.4-0.1-3.6
					c0.5-6.4-1-6.4,3.8-6.4c8.8,0.1,17.5,0.1,26.2,0.2c2.3,0,4.6,0,7.1,0.1c0.7,0,1.4,0.1,1.9,0.4c0.3,0,0.5-0.1,0.8-0.1
					c0.1,0,0.1,0,0.1,0c0.3,0,0.7-0.1,1-0.1c0,0,0,0,0-0.1c0-0.1,0.1-0.1,0.3-0.1c0.3,0,0.4,0,0.4,0.1c1.1-0.1,2-0.1,3.1,0
					c0.7,0,1.4,0.1,1.9,0.3c0.4-0.4,1-0.5,1.6-0.5c0.7,0,1.4,0,1.9,0c15.5,0.1,30.9,0.2,46.2,0.4c0.1,0,0.1,0,0.4,0
					c3.9,0,3.9,0,3.8,2.8c-0.1,5.9-0.1,11.8-0.3,17.7c-0.1,5.8-0.1,11.5-0.3,17.2c0,2.7,0,2.7-3.4,2.6c-31.3-0.2-62.5-0.5-94-0.7
					c-0.5,0-1.1,0-1.6,0c-1.9,0-1.9-1.4-0.8-3.4c1.4-2.5,1.1-5.4-0.1-7.9c-1-2-0.3-2.8,1.2-2.8C326.6,161,328,161.1,329,161z
					 M322.5,161.1l-0.3-0.1l0.3-0.1V161.1z M323.5,135.6c0,2,0,4-0.1,6c0,1.9,0,3.8-0.1,5.8c0,0.5-0.1,1.1-1.1,0.9
					c-0.7-0.1-0.8-0.5-0.8-0.9c0-3.9,0.1-7.9,0.1-11.8c0-0.5,0.1-1.1,1.1-0.9C323.3,134.7,323.5,135.2,323.5,135.6z M386.8,209.7
					c17.8,0.1,35.8,0.3,53.6,0.4c1.1,0,2.2,0.1,3.3,0.2c0.1,0,0.5,0.4,0.4,0.6c0,0.2-0.3,0.5-0.5,0.5c-0.7,0.1-1.5,0.1-2.3,0.1
					c-36.6-0.3-73.1-0.6-109.9-0.8c-0.4,0-0.7,0-1,0c-0.7-0.1-1.8,0.1-1.8-0.7c0-0.7,1-0.7,1.6-0.7c0.1,0,0.4,0,0.7,0
					C349.7,209.4,368.3,209.5,386.8,209.7z M327.8,210c0,1,0,2,0,2.9c0,0.2-0.3,0.5-0.5,0.5c-0.4,0.1-0.7-0.2-0.7-0.4
					c0-2.1,0-4.3,0.1-6.5c0-0.2,0.1-0.5,0.7-0.4c0.3,0.1,0.5,0.3,0.5,0.5C327.8,207.9,327.8,208.9,327.8,210z M440.1,243.1
					c-35.8-0.3-71.4-0.5-107.3-0.8c-0.7,0-1.4,0-1.9,0c-1.6,0.1-2.2-0.6-2.2-1.7c0-3.6,0.1-7.2,0.1-10.9c0-1.8,0-3.7,0.1-5.6
					c0.1-1.9,0.1-2,2.6-2.1c1.2,0,2.4,0,3.7,0c2.6,0,2.7-0.4,1.8-2.5c0,0.8-0.3,1.5-1.8,1.5c-0.1,0-0.4,0-0.7,0
					c-5.6,0.2-6.7-0.7-5.6-5c0.1-0.9,0.8-1.1,1.9-0.8c1,0.3,1.8,0.7,2.7,0.8c-0.5-1-1.9-1.3-3.3-1.6c-1.6-0.3-1.4-1.1-1.4-1.9
					c0.1-0.9,1-1,1.9-1c0.7,0,1.4,0,1.9,0c35.8,0.3,71.4,0.5,107.3,0.8c4.1,0,4.1,0,4.1,3c-0.1,8.3-0.3,16.6-0.3,24.7
					c0,0.5,0,1,0,1.5c0.1,1-0.5,1.6-2,1.5C441.3,243.1,440.7,243.1,440.1,243.1z M326.3,223.9c0-0.4-0.1-0.9,0.5-1
					c0.8-0.1,0.7,0.5,0.7,0.9c-0.1,5.8-0.1,11.4-0.3,17.2c0,0.3-0.1,0.5-0.1,0.7c-0.1,0.1-0.4,0.2-0.5,0.2s-0.4-0.2-0.4-0.3
					c-0.1-0.6-0.1-1.1-0.1-1.7c0-2.5,0-5,0.1-7.6l0,0C326.3,229.4,326.3,226.6,326.3,223.9z M326.6,221.3c-1,0-0.8-0.6-0.8-1.1
					c0-1.2,0-2.5,0-3.7c0-0.7,0.1-1.4,1.5-1.3c1.2,0.1,1.2,0.8,1.2,1.5c0,0.5,0,1,0,1.5c0,0,0,0,0.1,0c-0.1,0.7,0,1.5-0.3,2.2
					C328.2,220.9,327.4,221.3,326.6,221.3z M331.8,208.6c-2.2-0.1-3.3-1.6-2.2-2.9c0.4-0.5,1.1-0.5,1.6-0.5c1.4,0,3,0,4.4,0
					c2.6,0,2.7-0.4,1.8-2.5c0,0.9-0.4,1.3-1.8,1.5c-5.8,0.5-6.8-0.2-6.4-4.5c0.1-1.1,0.5-1.5,2-1.1c0.4,0.1,1,0.1,1.4,0.1
					c-3.5-1.8-3.3-1.7-3.3-5.8c0-3.9,0.1-8,0.1-12c0-2.4,0-2.5,2.9-2.5c9.1,0.1,18.2,0.1,27.3,0.2c27.1,0.2,54,0.4,80.9,0.6
					c4.1,0,4.1,0,4.1,3.2c-0.1,8.1-0.3,16-0.3,24c0,0.6,0,1.1,0,1.7c0,0.9-0.7,1.3-1.9,1.3c-0.8,0-1.5,0-2.3,0
					c-35.6-0.3-71.2-0.5-106.9-0.8C332.7,208.6,332.3,208.6,331.8,208.6z M326,199.5c0-0.5,0.4-0.9,1.2-0.8c0.7,0.1,1.4,0.1,1.4,0.8
					c0,1.4,0,2.8-0.1,4.2c0,0.7-0.8,1.1-1.6,1.1c-1.1,0.1-0.8-0.7-1-1.3c-0.1-0.6,0-1.1,0-1.7l0,0C326,201,325.9,200.3,326,199.5z
					 M328.2,179.6c-0.1,5.4-0.1,10.7-0.3,16.2c0,0.3-0.1,0.7-0.1,1c0,0.1-0.4,0.2-0.5,0.2s-0.4-0.1-0.4-0.3
					c-0.1-0.6-0.1-1.1-0.1-1.7c0-2.4,0-4.8,0.1-7.3l0,0c0-2.7,0.1-5.4,0.1-8.1c0-0.4-0.1-1,0.5-1.1
					C328.5,178.4,328.2,179.2,328.2,179.6z M320.7,288.7c0.8,0,0.7,0.5,0.7,0.9c0,1.8,0,3.7-0.1,5.6c0,1.8,0,3.7-0.1,5.6
					c0,0.4,0.1,0.9-0.7,0.9c-0.4,0-0.5-0.5-0.5-0.8c0-3.7,0.1-7.6,0.1-11.3C320.2,289.1,320.2,288.7,320.7,288.7z M424.8,246.1
					c-0.1,13-0.4,26-0.5,39.1c0,0.4,0,0.8,0,1.2c0,0.6-0.8,1.2-1.6,1.2s-1.5,0-2.2,0c-31.7-0.2-63.5-0.5-95.2-0.7c-0.7,0-1.4,0-2,0
					c-1.4,0.1-1.9-0.5-1.9-1.5c0-4.2,0.1-8.6,0.1-12.8c0-0.3,0-0.5,0.1-0.7c0.1-0.1,0.3-0.3,0.4-0.3c0.4-0.1,0.5,0.2,0.5,0.4
					c0.1,0.6,0.1,1.3,0,1.9c0,3.2-0.1,6.5-0.1,9.6c0,1.8,0.1,1.9,2.6,2c1.2,0,2.4,0,3.7,0c29.8,0.2,59.6,0.5,89.2,0.7
					c4.5,0,4.2,0.2,4.2-3.1c0.1-11.5,0.3-23.1,0.4-34.6c0-0.3,0-0.5,0-0.7c0-2.5,0-2.5-3.3-2.5c-31-0.2-62.1-0.5-93.3-0.7
					c-0.1,0-0.3,0-0.4,0c-3,0-3,0-3,2.2c0,2.8-0.1,5.7-0.1,8.4c0,0.5,0.1,1,0,1.5c-0.1,0.5,0.3,1.4-0.7,1.4c-0.8-0.1-0.5-1-0.5-1.5
					c-0.1-0.9,0-1.8,0-2.7c0-1.9,0-4,0.1-6c0.1-4.6-0.5-4.6,3.9-4.6c13.3,0.1,26.5,0.2,39.7,0.3c2.7,0,5.4,0,8.2,0.1l46,0.4
					c0.7,0,1.4,0,2,0C424.8,243.6,424.8,243.6,424.8,246.1z M445.7,177.4c2.3,0,2.4,0.1,2.3,2c-0.1,5.9-0.1,11.8-0.3,17.7
					c0,4.6-0.1,9.3-0.1,13.9l-0.4,29.6c0,0.5,0,1,0,1.5c0,2.5,0,2.5-3,2.5c-4.2,0-8.3-0.1-12.4-0.1c-0.7,0-1.2,0-1.8-0.1
					c-0.3,0-0.7-0.1-0.4-0.5c0.1-0.1,0.3-0.3,0.4-0.3c0.7-0.1,1.4-0.1,2.2-0.1c3.3,0,6.5,0,9.7,0.1c3.7,0,3.7,0,3.8-2.9
					c0.1-9.1,0.3-18,0.4-27.1c0.1-10.4,0.3-20.7,0.4-31.1c0-0.6,0-1.1,0-1.7c0-2.1-0.3-2.3-2.7-2.4c-3.7-0.1-7.3-0.1-10.9-0.1
					c-0.8,0-2.2,0.2-2.2-0.4c0-1,1.5-0.5,2.2-0.6C437,177.3,441.3,177.4,445.7,177.4z M427.2,136.1c0.1,0.6,0.1,1.1,0,1.7
					c-0.1,12.5-0.3,25.1-0.5,37.7c0,0.3,0,0.5,0,0.7c-0.1,1.9-0.1,1.9-2.7,1.9c-6.8-0.1-20.4-0.5-20.4-0.5l-30,1l0,0h-48.3
					c0,0-1.4-1.3-1.9-1.3c-2.2-0.1-2.2-0.2-2.3-1.8c0-4,0.1-8.1,0.1-12.1c0-0.3,0-0.5,0.1-0.7c0.1-0.5,0.4-0.8,1.1-0.7
					c0.5,0.1,0.7,0.3,0.8,0.7c0.1,0.8,0,1.7,0,2.5c0,3-0.1,6.1-0.1,9.1c0,1.7,0.4,2,2.7,2.2c0.8,0.1,2.3,0.3,2.3,0.3h92.2
					c0,0,1,0.5,1.4,0.5c3.3,0,3.4,0,3.4-2.5c0.1-12.1,0.3-24.3,0.5-36.4c0-0.7,0-1.5,0.1-2.3c0-0.4,0.4-0.6,1-0.6
					C426.9,135.4,427.3,135.7,427.2,136.1z M427.9,93.6c0.1,0.3,0,0.7,0.7,1v36.8c-1.1,0.5-1.2,1-1.2,1.5c0.1,1.1-0.5,1.7-2.2,1.7
					c-0.7,0-1.4,0-1.9-0.4h-49.4c-16.3-0.1-32.5-0.3-48.8-0.4c-3.7,0-3.7,0-3.7-2.7c0-3.7,0.1-7.4,0.1-11.1c0-0.6-0.3-1.6,1-1.6
					c1.2,0,1,0.9,1,1.6c0,3.3-0.1,6.8-0.1,10.1c0,2.5,0.3,2.7,3.5,2.8c15.8,0.1,47.3,0.3,47.3,0.3h46c0,0,1.6,0.4,2.3,0.4
					c2.4,0,2.7-0.3,2.9-2c0-0.6,0-1.1,0.4-1.7V95.3c0-0.6,0-1.2,0-1.7c0.1-0.6-0.3-1.6,1.1-1.5C428.3,92.1,427.9,93,427.9,93.6z
					 M328.8,91c30.9,0.2,61.6,0.5,92.6,0.7c4.1,0,4.1,0,4.1,3c-0.1,11.7-0.3,23.4-0.4,35.1c0,2.8,0,2.8-3.5,2.8
					c-31.1-0.2-62.1-0.5-93.1-0.7c-0.7,0-1.4,0-1.9,0c-1.2,0-1.8-0.5-1.8-1.4c0-3.8,0.1-7.8,0.1-11.6c0-1.2,0.8-1.6,2.3-1.5
					c1.1,0.1,2.2,0.1,3.3,0c1.8-0.1,1.9-0.3,1.1-2c-0.1,0.9-1,0.9-1.9,1c-1.9,0.1-3.9-0.2-5.8,0.3c-1,0.3-1.4-0.3-1.4-0.9
					c0-2.5,0.1-5.1,0.1-7.8c0-0.9,0.7-1.3,1.8-0.9c1.6,0.5,3.4,0.2,5.3,0.3c1.9,0.1,1.9,0.1,1.4,1.5c-0.1,0.3-0.1,0.7-0.4,0.9
					c1.1-0.3,1.5-1,1.8-1.7c0.7-1.5,0.1-2.1-2-2.3c-1.5-0.1-3.4,0.4-4.5-0.4c-1.2-0.9-0.5-2.4-0.5-3.6c0-2.9,0-5.9,0.1-8.9
					c0-1.6,0.1-1.7,2.3-1.8C327.7,91,328.2,91,328.8,91z M427.7,52.8c-5.8,10.1-5,21.5-0.3,31.9c0.8,1.6,0.5,3.2,0.4,4.9
					c0,0.9-0.7,1.4-1.9,1.3c-0.8,0-1.5,0-2.3,0c-32.5-0.2-65-0.5-97.6-0.7c-4.2,0-4.1,0.2-4.1-3.2c0-3.5,0.1-7.1,0.1-10.6
					c0-0.6-0.3-1.6,1-1.6s1,0.9,1,1.5c0,3.3-0.1,6.6-0.1,9.9c0,2.5,0,2.5,3.4,2.5c22.4,0.2,44.9,0.3,67.3,0.5
					c9.1,0.1,18.2,0.1,27.3,0.2c1,0,1.8,0,2.7,0c0.7-0.1,1.2-0.5,1.4-0.9c0.1-0.6,0.1-1.1,0.1-1.7c0.1-12.1,0.3-24.3,0.5-36.4
					c0-0.4,0-0.9,0-1.3c0-1-0.5-1.6-1.9-1.6c-0.7,0-1.4,0-1.9,0c-31.3-0.2-62.7-0.5-94-0.7c-4.1,0-4.1,0-4.1,2.9
					c0,3.3-0.1,6.6-0.1,9.9c0,0.6,0.3,1.6-1,1.6s-1-0.9-1-1.6c0-4.1,0.1-8.3,0.1-12.4c0-1.9,0.1-1.9,2.7-1.9
					c7.6,0.1,15.2,0.1,23,0.2c9.1,0.1,18.2,0.1,27.3,0.2c16,0.1,32.2,0.2,48.3,0.4c1,0,1.8,0,2.7,0c1.2,0,1.9,0.4,1.9,1.4
					C428.6,49.3,428.7,51.1,427.7,52.8z M305.8,40.7c-2.4-0.9-3.4-0.4-3.5,1.6c0,0.3,0,0.7,0,1c0.1,1.1-0.7,1.5-2,1.5
					c-3.4,0-6.8-0.1-10.3-0.1c-2.6,0-5,0-7.6-0.1c-2.4-0.1-2.4-0.2-2.6-2c0-0.3,0-0.7,0-1c0.1-11.6,0.3-23.3,0.4-34.8
					c0-0.4,0-0.9,0-1.3c0.1-1.5,0.1-1.6,2.4-1.7c0.7,0,1.4,0,1.9,0C336.8,4.2,389.1,4.6,441.6,5c0.4,0,0.7,0,1,0
					c3.3,0,3.4,0,3.4,2.5c-0.1,11.9-0.3,23.9-0.4,35.8c0,0.4,0,0.8,0,1.3c0,0.8-0.5,1.3-1.6,1.3c-1,0-1.8,0-2.7,0
					c-40.5-0.3-81-0.6-121.6-0.9c-0.4,0-0.7,0-1,0c-3-0.1-3-0.1-3.1-2.2c0-0.3,0-0.7,0-1c-0.1-1.3-0.4-1.4-2.7-0.8
					c0.5,0.1,1.1,0.3,1.1,0.7c0.1,1.5,0.3,3,0.4,4.5c0.1,0.7-0.5,0.8-1.2,0.8c-2.7,0-5.3,0-8-0.1c-1.1,0-1.9-0.3-1.5-1.2
					c0.5-1.2,0.4-2.5,0.5-3.7c0.1-0.7,0.5-0.9,1.4-0.5c0.8,0.5,1.8,0.9,2.6,1.5C308.2,41.7,307.1,41.1,305.8,40.7z M317.1,46.9
					c-0.5-0.1-1.1-0.3-1.1-0.7c0.1-0.5,0.7-0.7,1.2-0.7c1,0,1.9,0,3,0c0.7,0,1.4,0.1,1.4,0.7c-0.1,0.7-1,0.7-1.5,0.7
					c-0.4,0-1,0-1.4,0l0,0C318.2,46.9,317.6,46.9,317.1,46.9z M447.9,6.5c-0.1,12.6-0.3,25.3-0.5,37.9c0,0.5,0,1,0,1.5
					c-0.1,1.8-0.1,1.9-2.4,1.9c-4.5,0-8.8-0.1-13.3-0.1c-0.4,0-1,0-1.4-0.1c-0.4-0.1-0.8-0.3-0.7-0.7c0.1-0.2,0.4-0.5,0.7-0.5
					c0.8-0.1,1.5-0.1,2.3-0.1c3.5,0,7.1,0.1,10.6,0.1c2.7,0,2.9-0.1,2.9-2.1c0.1-8.1,0.3-16,0.3-24c0-4.5,0.1-9.1,0.1-13.6
					c0-2-0.1-2.1-2.9-2.2c-0.7,0-1.9,0-1.9,0s-104.7-0.8-158-1.2c-5.3,0-5.3,0-5.3,3.8c-0.1,11.5-0.3,22.9-0.4,34.4
					c0,0.4,0,0.9,0,1.3c0,2.2,0.3,2.5,3.3,2.5c5.6,0,11,0.1,16.6,0.1c1,0,1.8,0,2.7,0.1c0.5,0,0.8,0.3,0.8,0.7
					c0,0.3-0.4,0.7-0.8,0.7c-1.1,0.1-2.2,0-3.4,0c-2.2,0.1-2.2,0.1-2.3,1.8c0,0.7,0,1.3,0,2c-0.3,20.9-0.5,41.8-0.8,62.7
					c-0.3,20.7-0.5,41.5-0.8,62.2c0,0.6,0,1.2,0,1.7c-0.1,1.9-0.1,1.9-2.7,2c-3.7,0-7.3-0.1-11.1-0.1c-1.6,0-3,1-3,2.2
					c0,0.5,0,1,0,1.5c-0.3,19.2-0.5,38.5-0.8,57.6c0,0.4,0,0.9,0,1.3c0,2.3,0.3,2.5,3.5,2.6c3.7,0,7.2,0.1,10.9,0.1
					c2.3,0,2.4,0.2,2.6,1.9c0,0.7,0,1.3,0,2C291.9,288.8,290,369,290,369v1.3c0,2.7-0.4,3,3.7,3c0.8,0,2.4-0.3,2.4,0.6
					c0.1,1.3-1.5,0.8-2.4,0.8c-19.7-0.2-39.4-0.3-59.1-0.5c-13.3-0.1-26.8-0.2-40.2-0.3c-0.8,0-1.8,0-2.6,0c-1.2,0.1-2,0.6-2,1.6
					c0,0.7,0,1.3,0,2c-0.1,11.7-0.3,23.4-0.4,35.1c0,0.8,0.4,2.2-0.5,2.2c-1.2,0-0.7-1.3-0.7-2.1c0.1-12.5,0.3-25.1,0.5-37.7
					c0-2.7,0-2.7,3.7-2.6c30.6,0.2,61,0.5,91.6,0.7c6.3,0.1,3.8,0.5,4.8-8.1c0.5-36.7,1-73.4,1.5-110.1c-1.1-9.3,1.8-8.7-4.8-8.8
					c-2.9,0-5.8,0-8.7-0.1c-2-0.1-2.2-0.2-2.2-1.8c0-0.5-0.7-1.5-0.7-1.5v-61.2c0,0,1.6-0.9,1.8-1.3c0.1-1.9,0.1-1.9,2.7-2
					c3.5,0,7.1,0.1,10.6,0.1c2.4,0,2.6-0.1,2.7-2c0-0.5,0-1,0-1.5c0.5-41.5,1.1-83,1.6-124.5c0-3.8,0.5-3.5-4.6-3.6c-3,0-6,0-9-0.1
					c-2.2-0.1-2.3-0.2-2.3-1.8c0-2.7,0.4-8.4,0.4-8.4V5.2c0,0,0.1-1,0.1-1.5c0.1-1.9,0.1-1.9,2.7-2c0.7,0,1.4,0,1.9,0
					c53.7,0.4,107.5,0.8,161.3,1.2C448.3,3,447.9,2.6,447.9,6.5z"/>
			</g>
			<line class="st0" x1="158.3" y1="-53.3" x2="158.3" y2="-17.3"/>
			<line class="st0" x1="104.3" y1="0.7" x2="140.3" y2="0.7"/>
			<line class="st0" x1="104.3" y1="792" x2="140.3" y2="792"/>
			<line class="st0" x1="158.3" y1="846" x2="158.3" y2="810"/>
			<line class="st0" x1="451" y1="-53.3" x2="451" y2="-17.3"/>
			<line class="st0" x1="505" y1="0.7" x2="469" y2="0.7"/>
			<line class="st0" x1="505" y1="792" x2="469" y2="792"/>
			<line class="st0" x1="451" y1="846" x2="451" y2="810"/>
		</g>
		<polygon points="302.3,45.5 302.5,45.5 302.4,45.3 		"/>
		<path d="M280.4,722.5c0-0.3,0-0.7,0-1c0.4,0,0.7-0.1,1,0c0.8,0.1,2.2-0.2,2.2,0.7c-0.1,1-1.4,0.2-2.2,0.3
			C281.2,722.6,280.8,722.5,280.4,722.5z"/>
		<path d="M283.6,481.8c0-0.3,0-0.7,0-1c0.4,0,0.7-0.1,1,0c0.8,0.1,2.2-0.2,2.2,0.7c-0.1,1-1.4,0.2-2.2,0.3
			C284.3,481.8,283.9,481.8,283.6,481.8z"/>
		<path d="M284.2,438.3c0-0.3,0-0.7,0-1c0.4,0,0.7-0.1,1,0c0.8,0.1,2.2-0.2,2.2,0.7c-0.1,1-1.4,0.2-2.2,0.3
			C284.8,438.3,284.6,438.3,284.2,438.3z"/>
		<path d="M280.4,721.5c-1.9-0.3-3-1.1-3.3-2.5C278.5,719.6,279.7,720.4,280.4,721.5z"/>
		<path d="M279.7,679.4c0.3-0.8,1.5-0.9,2-1.5c0.4,0,0.7-0.1,1,0c0.4,0,0.8,0,1,0.2c0.3,0.3-0.1,0.3-0.4,0.4
			C282,678.8,281,679.5,279.7,679.4z"/>
		<path d="M280.4,635.9c0.3-0.8,1.5-0.9,2-1.5c0.4,0,1-0.1,1.2,0c0.3,0,0.5,0.2,0.8,0.3c-0.1,0.1-0.3,0.3-0.4,0.3
			C282.7,635.2,281.6,636,280.4,635.9z"/>
		<path d="M283.8,525.3c-0.5-0.6-1.6-0.7-1.9-1.5c1,0,1.6,0.3,2.4,0.7c0.5,0.3,1.6,0,1.4,0.7C285.5,525.3,284.3,525.2,283.8,525.3z"
			/>
		<path d="M284.2,437.3c-1.9-0.3-3-1.1-3.3-2.5C282.3,435.3,283.4,436.2,284.2,437.3z"/>
		<path d="M279.7,527.7c0.1-1.2,1.1-1.9,2.7-2C281.7,526.6,280.9,527.2,279.7,527.7z"/>
		<path d="M280.9,634c-1.6-0.1-2.4-0.8-2.6-2C279.4,632.4,280.4,633.1,280.9,634z"/>
		<path d="M280.4,677.4c-1.6-0.1-2.4-0.8-2.6-2C278.9,675.9,279.8,676.6,280.4,677.4z"/>
		<path d="M276.4,726c-0.1-0.9,0.1-1.6,1.4-2C277.6,724.8,277.2,725.6,276.4,726z"/>
		<path d="M280.4,522.7c-1.2-0.4-1.4-1.1-1.4-2C280,521.2,280.4,521.9,280.4,522.7z"/>
		<path d="M280.9,479.2c-1.2-0.4-1.4-1.1-1.4-2C280.5,477.6,280.9,478.3,280.9,479.2z"/>
		<path d="M277,682.5c-0.1-0.9,0.1-1.6,1.4-2C278.2,681.3,277.8,682.1,277,682.5z"/>
		<path d="M277.5,639c-0.1-0.9,0.1-1.6,1.4-2C278.7,637.7,278.5,638.6,277.5,639z"/>
		<path d="M282.1,439.3c0.4-0.7,1.1-1,1.9-1C283.8,438.9,283.2,439.3,282.1,439.3z"/>
		<path d="M283.6,480.8c-1,0-1.6-0.3-1.9-1C282.7,479.7,283.2,480.1,283.6,480.8z"/>
		<path d="M281.6,482.7c0.4-0.7,1.1-1,1.9-1C283.2,482.4,282.5,482.8,281.6,482.7z"/>
		<path d="M278.5,723.6c0.4-0.7,1.1-1,1.9-1C280.1,723.2,279.4,723.6,278.5,723.6z"/>
		<path d="M278.9,636.9c0-0.6,0.4-0.9,1.4-1C280.1,636.5,279.5,636.8,278.9,636.9z"/>
		<path d="M278.3,680.5c0-0.6,0.4-0.9,1.4-1C279.4,680,279,680.3,278.3,680.5z"/>
		<path d="M281.7,678c-0.5,0-1.1-0.1-1.4-0.5C280.9,677.4,281.5,677.6,281.7,678z"/>
		<path d="M282.3,634.5c-0.5,0-1.1-0.1-1.4-0.5C281.5,634,282,634.1,282.3,634.5z"/>
		<path d="M282.4,525.7c0.3-0.4,0.8-0.5,1.4-0.5C283.5,525.7,282.9,525.7,282.4,525.7z"/>
		<path d="M277.8,724c0.1-0.1,0.4-0.3,0.7-0.5C278.2,723.7,278.1,723.9,277.8,724z"/>
		<path d="M281,523.2c-0.1-0.1-0.4-0.3-0.7-0.5C280.6,522.9,280.8,523,281,523.2z"/>
		<path d="M281.7,479.7c-0.1-0.1-0.4-0.3-0.7-0.5C281.2,479.4,281.5,479.5,281.7,479.7z"/>
		<path d="M281.7,523.7c-0.1-0.1-0.4-0.3-0.7-0.5C281.3,523.4,281.6,523.6,281.7,523.7z"/>
		<path d="M325.2,308c-0.1,0.5-0.4,0.8,0.4,1.1c0.4,0.2,0.7,0.5,1,0.9c-1.5-0.1-2.7-1-4.2-1c-0.1,0-0.3-0.2-0.4-0.3
			c0.1-0.1,0.4-0.2,0.5-0.3C323.3,308.2,324.1,307.8,325.2,308z"/>
		<path d="M325.8,264.5c-0.3,0.5-0.4,0.8,0.4,1.1c0.4,0.2,0.7,0.5,1,0.9c-1.5-0.1-2.7-1-4.2-1c-0.1,0-0.3-0.2-0.4-0.3
			c0.1-0.1,0.4-0.2,0.5-0.3C323.9,264.7,324.7,264.4,325.8,264.5z"/>
		<path d="M328.5,262.5c-0.1,1.2-1.1,1.9-2.7,2C326.5,263.6,327.4,263,328.5,262.5z"/>
		<path d="M329.2,261.5c0,0.4-0.1,0.8-0.7,1C328.5,262.1,328.6,261.7,329.2,261.5z"/>
		<path d="M326.6,350.5c-0.1,0.1-0.4,0.3-0.7,0.5C326.2,350.8,326.5,350.6,326.6,350.5z"/>
		<path d="M326.6,310.1c0.1,0.1,0.4,0.3,0.7,0.5C327,310.4,326.7,310.2,326.6,310.1z"/>
		<path d="M327.1,266.6c0.1,0.1,0.4,0.3,0.7,0.5C327.5,266.9,327.3,266.7,327.1,266.6z"/>
		<path d="M193.1,773.9c8.3,0.1,16.6,0.1,25,0.2c0.8,0,1.5,0,2.3,0c1.4,0,2.2,0.6,2.2,1.6c0,3.4-0.1,6.9-0.1,10.3
			c0,0.8-0.5,1.2-1.8,1.3c-0.7,0-1.4,0-1.9,0c-17-0.1-34.1-0.3-51.3-0.4c-0.5,0-1.1,0-1.6,0c-1.4,0-2.2-0.4-2-1.5
			c0-3.4,0.1-6.9,0.1-10.4c0-0.9,0.7-1.3,1.9-1.3c2.4,0,4.9,0,7.3,0.1C179.7,773.8,186.4,773.8,193.1,773.9z M186.4,780.8
			L186.4,780.8c0,1.3,0,2.5,0,3.7c0,2.3,0,2.2,3.4,2.3c0.3,0,0.7,0,1,0c2-0.1,2.2-0.1,2.3-1.8c0.1-2.1,0-4.3,0.1-6.6
			c0-3.3-0.5-3.7-4.9-3.2c-1.1,0.1-1.6,0.5-1.6,1.3C186.5,778,186.4,779.4,186.4,780.8z M185.6,780.8L185.6,780.8c0-1.1,0-2.3,0-3.5
			c0-2.5,0-2.5-3.4-2.5c-0.1,0-0.4,0-0.7,0c-2.6,0-2.4,0.1-2.6,2.3c0,2.1,0,4.1-0.1,6.3c0,3-0.3,3,3.4,3c0.4,0,0.7,0,1,0
			c1.5,0.1,2.3-0.4,2.2-1.6C185.6,783.5,185.6,782.2,185.6,780.8z M171,781.2L171,781.2c0-1.1,0.1-2.3,0-3.5c0-2.4,0-2.2-3.9-2.3
			c0,0,0,0-0.1,0c-3.4,0.1-2.4,0-2.9,4.7c-0.1,0.6-0.1,1.2,0,1.9c0.3,4.9-0.8,4.9,3,5c0.7,0,1.4,0,1.9,0c1.1,0,1.6-0.5,1.6-1.3
			C170.9,784.2,170.9,782.6,171,781.2z M207.8,780.6L207.8,780.6c0,1.3-0.1,2.7,0,4c0,1.9,0.1,1.7,3,1.8c0.1,0,0.3,0,0.3,0
			c3.8-0.1,3,0.2,3.3-3.6c0-0.5,0-1.1,0-1.5c-0.3-6.5,1.1-6.6-4.2-6.5c-0.7,0-1.5,0-2.2,0.1c-0.1,0-0.1,0.1-0.1,0.1
			C207.8,776.8,207.8,778.7,207.8,780.6z M199.7,781.1c0-1.5,0-3,0-4.5c0-1.1-0.5-1.5-1.9-1.6c-0.5,0-1.1,0-1.6,0
			c-2,0.1-2.2,0.1-2.3,1.7c-0.1,2.6-0.1,5.1-0.1,7.9c0,1.9,0.1,1.9,2.6,2c0.4,0,1,0,1.4,0c1.4,0.1,1.9-0.5,2-1.5
			C199.6,783.7,199.7,782.4,199.7,781.1z M172.4,780.5c0,1.4,0,2.8,0,4.2c-0.1,1.2,0.7,1.7,2.2,1.6c0.7,0,1.4,0,1.9,0
			c1.2,0,1.8-0.5,1.8-1.4c0-2.9,0.1-5.9,0.1-8.9c0-0.9-0.5-1.3-1.9-1.4c-0.7,0-1.4,0-1.9,0c-1.6-0.1-2.2,0.5-2.2,1.7
			C172.4,777.8,172.4,779.2,172.4,780.5z M220.9,781.1L220.9,781.1c-1.1,0-1.6-0.6-1.1-1.3c1.8-3.1,1.6-4.5-0.5-4.5
			c-0.8,0-1.5,0-2.3,0c-1.8,0-2,1-1.5,2.7c0.5,2,0.7,4.1-0.1,6.1c-0.7,1.8-0.3,2.7,1.5,2.8c0.7,0,1.4,0,1.9,0
			c1.6,0.1,2.2-0.5,2.2-1.7C220.9,783.8,220.9,782.4,220.9,781.1z M201.1,780.9L201.1,780.9c0,1.6,0,3.1,0,4.7
			c0,0.8,0.5,1.2,1.6,1.3c0.7,0,1.4,0.1,1.9,0c2.2-0.1,2.2-0.1,2.3-1.8c0.1-2.6,0.1-5.2,0.1-7.9c0-1.7-0.1-1.8-2.3-1.9
			c-0.5,0-1.1,0-1.6,0c-1.4-0.1-1.9,0.5-2,1.5C201.1,778.3,201.1,779.6,201.1,780.9z"/>
		<path d="M191.4,770.9c-5.3,0-10.6-0.1-16-0.1c-1.5,0-3-0.2-4.5,0.6c-1.2,0.7-2.2-0.4-3.1-0.8c-0.4-0.1-0.3-0.4-0.1-0.7
			c0.5-0.6,2.7-1.2,3.5-0.7c1.2,0.7,2.4,0.6,3.8,0.6c10.9,0.1,21.6,0.2,32.6,0.3c1.1,0,3-0.5,3,0.6c0.1,0.7-1.9,0.4-3,0.4
			C202.2,771,196.7,771,191.4,770.9z"/>
		<path d="M300.1,749.5c0.7,0.2,1.1,0.5,1.4,1C300.6,750.5,300.1,750.1,300.1,749.5z"/>
		<path d="M416.3,6.2c8,0.1,16.2,0.1,24.2,0.2c3.1,0,3.3,0.1,3.1,2.4c0,2.8-0.1,5.8-0.1,8.6c0,2.1-0.1,2.2-3,2.2
			c-11-0.1-21.9-0.2-32.9-0.3c-5.6,0-11.1-0.1-16.6-0.1c-2.6,0-2.7-0.2-2.7-2c0-3,0-6.1,0.1-9.1c0-2,0.3-2.1,3-2
			C399.7,6.1,408,6.1,416.3,6.2z M409.7,12.9L409.7,12.9c0,1.3,0,2.5,0,3.7c0,0.1,0,0.1,0,0.3c0,2,0.1,2.1,2.9,2.1
			c0.1,0,0.4,0,0.7,0c2.3,0,2.3-0.1,2.3-2.1c0-2.5,0-5.1,0.1-7.6c0-2.1,0-2.2-2.6-2.3c-0.4,0-1,0-1.4,0c-2.3-0.1-2.7,1.2-1,4.7
			C411.2,12.4,410.6,12.9,409.7,12.9z M422.3,13.1c0-1.6,0-3.1,0-4.7c0-1.1-0.5-1.5-1.9-1.5c-0.4,0-0.7,0-1,0c-2.7,0-2.9,0-3,2
			c0,2.7-0.1,5.4-0.1,8.1c0,1.9,0.1,1.9,2.6,2c0.4,0,1,0,1.4,0c1.4,0.1,1.9-0.5,2-1.5C422.3,15.9,422.3,14.5,422.3,13.1z
			 M437.1,12.9c0,1.4-0.1,2.8,0,4.2c0,1.6,0.1,1.7,2.2,1.8c0.7,0,1.4,0,1.9,0c1.1,0,1.6-0.4,1.6-1.2c0-3.1,0.1-6.4,0.1-9.6
			c0-0.8-0.5-1.3-1.6-1.3c-0.7,0-1.4-0.1-1.9,0c-2.2,0.1-2.2,0.1-2.3,1.7C437.1,10,437.1,11.5,437.1,12.9z M429,12.9
			c0-1.4,0.1-2.8,0-4.2c0-1.6-0.1-1.7-2.2-1.8c-0.7,0-1.4,0-1.9,0c-1.1,0-1.6,0.4-1.6,1.2c0,3.1-0.1,6.4-0.1,9.6
			c0,0.8,0.4,1.3,1.6,1.3c0.7,0,1.4,0.1,1.9,0c2.2-0.1,2.2-0.1,2.3-1.7C429,15.7,429,14.3,429,12.9z M401.6,12.9L401.6,12.9
			c-1.1,0-1.6-0.6-1.2-1.3c1.6-3.1,1.9-4.8-0.4-4.8c-0.7,0-1.2,0-1.9,0c-1.2-0.1-2.3,0.7-2.3,1.6c0,3-0.1,6.1-0.1,9.1
			c0,0.9,0.5,1.4,1.9,1.4c0.7,0,1.1,0,1.8,0c1.6,0.1,2.3-0.4,2.2-1.6C401.6,15.7,401.6,14.3,401.6,12.9z M395,12.8L395,12.8
			c0-1.6,0-3.1,0-4.7c0-0.9-0.4-1.4-1.8-1.4c-0.7,0-1.4,0-1.9,0c-1.5-0.1-2.2,0.4-2.2,1.6c0,3-0.1,6.1-0.1,9.1
			c0,0.9,0.5,1.4,1.8,1.4c0.7,0,1.4,0,1.9,0c1.5,0.1,2.2-0.4,2.2-1.6C395,15.6,395,14.2,395,12.8z M403.1,12.7c0,1.5-0.1,3,0,4.5
			c0.1,1.4,0.3,1.5,2.6,1.6c2.2,0,2.7-0.1,2.7-1.4c0.1-3,0.1-6.1,0.1-9.1c0-1.4-0.3-1.5-2.6-1.6c-2.3-0.1-2.6,0.1-2.7,1.4
			C403.1,9.6,403.1,11,403.1,12.7z M435.8,13.1c0-1.6,0-3.1,0-4.7c0-1.3-1.1-1.4-2.4-1.4c-2.3,0-2.7,0.1-2.9,1.3
			c-0.1,3.1-0.1,6.2-0.1,9.3c0,1.3,1.1,1.4,2.4,1.4c2.3,0,2.7-0.1,2.9-1.3C435.8,16.1,435.8,14.6,435.8,13.1z"/>
		<path d="M411.3,22.7c7.8,0.1,15.6,0.1,23.4,0.2c0.7,0,1.2-0.2,1.8-0.4c1.2-0.5,3.3-0.2,3.9,0.5c0.1,0.2,0.1,0.5-0.1,0.7
			c-0.8,0.7-3,1-3.8,0.5c-1.2-0.7-2.6-0.5-3.8-0.5c-13.6-0.1-27.2-0.2-40.8-0.3c-1,0-1.8,0.2-2.6-0.2c0.8-0.6,1.8-0.5,2.7-0.5
			C398.4,22.6,404.9,22.6,411.3,22.7L411.3,22.7z"/>
		<path d="M309.3,43.3c0,0.3,0,0.7,0,1c0,0.2,0,0.5-0.4,0.5c-0.1,0-0.3-0.2-0.4-0.3c-0.1-0.5-0.4-1.1-0.5-1.7
			C308.5,42.9,308.9,43.2,309.3,43.3z"/>
		<path d="M312.7,40.8c-0.3,0.4-0.8,0.5-1.4,0.5C311.8,40.8,312.2,40.8,312.7,40.8z"/>
		<path d="M310.1,42.3c0,0.4-0.1,0.8-0.7,1C309.3,42.8,309.6,42.5,310.1,42.3z"/>
		<path d="M311.5,41.2c-0.1,0.1-0.4,0.3-0.7,0.5C311,41.6,311.2,41.4,311.5,41.2z"/>
		<path d="M310.7,41.8c-0.1,0.1-0.4,0.3-0.7,0.5C310.3,42.1,310.5,41.9,310.7,41.8z"/>
		<path d="M411.2,402.2c8,0.1,16.2,0.1,24.2,0.2c3.3,0,3.3,0.1,3.1,2.4c0,2.8-0.1,5.8-0.1,8.6c0,2.1-0.1,2.2-3,2.2
			c-10.9-0.1-21.9-0.2-32.9-0.3c-5.6,0-11.1-0.1-16.6-0.1c-2.6,0-2.7-0.2-2.7-2c0-3,0-6.1,0.1-9.1c0-2,0.3-2.1,3-2
			C394.4,402.1,402.7,402.2,411.2,402.2z M418,408.9L418,408.9c0,1.5,0,3,0,4.5c0,0.8,0.5,1.2,1.6,1.3c0.7,0,1.4,0.1,1.9,0
			c2.2,0,2.2-0.1,2.3-2.1c0-2.3,0-4.7,0.1-7c0-2.3,0-2.4-2.6-2.4c-0.4,0-1,0-1.4,0c-1.4-0.1-1.9,0.5-2,1.5
			C418,406.1,418,407.5,418,408.9z M431.8,409.2c0,1.3-0.1,2.7,0,4c0,1.7,0.1,1.7,2.2,1.8c0.7,0,1.4,0,1.9,0c1.1,0,1.6-0.4,1.8-1.2
			c0-3,0.1-6.1,0.1-9.1c0-0.9-0.7-1.3-1.9-1.3c-0.5,0-1.1,0-1.6,0c-2.2,0.1-2.2,0.1-2.3,1.7C431.8,406.6,431.8,407.9,431.8,409.2z
			 M389.4,409.4L389.4,409.4c-0.7-0.8-0.7-0.7-1.4-1.6c1.9-2.9,1.8-4.3-0.3-4.4c-0.7,0-1.4-0.1-1.9,0c-2.2,0-2.2,0.2-2.3,2.1
			c0,2.4,0,4.7-0.1,7.2c0,2.1,0,2.1,2.6,2.2c0.4,0,1,0,1.4,0c1.4,0.1,1.9-0.5,2-1.5C389.3,412,389.4,410.7,389.4,409.4z
			 M390.6,408.7c0,1.5,0,3,0,4.5c0,1.1,0.5,1.5,2,1.5c0.5,0,1.1,0,1.6,0c2-0.1,2.2-0.1,2.3-1.8c0.1-2.6,0.1-5.1,0.1-7.9
			c0-1.9-0.1-1.9-2.6-2c-0.4,0-1,0-1.4,0c-1.4-0.1-1.9,0.5-2,1.5C390.6,406,390.6,407.4,390.6,408.7z M404.6,408.8L404.6,408.8
			c0,1.5,0,3,0,4.5c0,0.8,0.5,1.2,1.6,1.3c0.7,0,1.4,0.1,1.9,0c2.2-0.1,2.2-0.1,2.3-1.8c0.1-2.6,0.1-5.2,0.1-7.9
			c0-1.7-0.1-1.7-2.3-1.9c-0.5,0-1.1,0-1.6,0c-1.4-0.1-1.9,0.5-2,1.5C404.6,406,404.6,407.4,404.6,408.8z M411.3,408.9L411.3,408.9
			c0,1.5,0,3,0,4.5c0,0.8,0.5,1.2,1.6,1.3c0.7,0,1.4,0.1,1.9,0c2.2-0.1,2.2-0.1,2.3-1.8c0.1-2.6,0.1-5.2,0.1-7.9
			c0-1.7-0.1-1.8-2.3-1.9c-0.5,0-1.1,0-1.6,0c-1.4-0.1-1.9,0.5-2,1.5C411.3,406.1,411.3,407.5,411.3,408.9z M430.5,409.3
			c0-1.4,0.1-2.8,0-4.3c-0.1-1.4-0.3-1.5-2.6-1.6c-2.2,0-2.7,0.1-2.7,1.4c-0.1,2.8-0.1,5.8-0.1,8.6c0,1.4,0.3,1.5,2.6,1.6
			c2.2,0,2.6-0.1,2.7-1.4C430.6,412.1,430.5,410.7,430.5,409.3z M403.1,409.5L403.1,409.5c0-1.4,0.1-2.8,0-4.3
			c0-1.6-0.3-1.7-2.6-1.8c-2.3,0-2.6,0.1-2.7,1.7c-0.1,2.5,0,5-0.1,7.6c0,2.2,0.4,2.4,3.3,2.3c1.1-0.1,2-0.7,2-1.6
			C403.1,412.1,403.1,410.7,403.1,409.5z"/>
		<path d="M407.4,398.2c7.1,0.1,14,0.1,20.9,0.2c1.1,0,2.4,0.2,3.5-0.6c0.1-0.1,0.4-0.2,0.5-0.3c1.4-0.1,2.3,0.5,3.3,1
			c0.5,0.3,0,0.7-0.4,0.7c-1.2,0.3-2.3,1.7-3.7,0.3c-1-1-2.2-0.7-3.3-0.7c-10.3-0.1-20.7-0.2-31-0.2c-3.9,0-8-0.1-12-0.1
			c-0.3,0-1-0.1-1-0.2c0.1-0.5,0.7-0.3,1-0.3C392.7,398.1,400,398.1,407.4,398.2L407.4,398.2z"/>
		<path d="M280.2,390.1c-2.2-0.4-3.4-1.4-3.9-3C277.8,387.9,279.1,388.9,280.2,390.1z"/>
		<path d="M302.9,378.1c0-0.9,0.7-1.5,1.2-2.3c0.1-0.3,0-0.7,0.7-0.6c0.1,0.1,0.1,0.6,0.3,0.9c0,0.1,0,0.3,0,0.5
			C304.3,377.1,304,377.9,302.9,378.1z"/>
		<path d="M305.7,377.7c1,0.3,1.6,0.8,1.9,1.5C306.3,379.1,305.8,378.6,305.7,377.7z"/>
		<path d="M299.5,379.6c0.7-0.7,1.6-0.9,2.7-1C301.8,379.6,300.8,379.7,299.5,379.6z"/>
		<path d="M281.5,390.6c-0.5,0-1.1-0.1-1.4-0.5C280.8,390.2,281.2,390.2,281.5,390.6z"/>
		<path d="M305,376.7c0.5,0.2,0.7,0.6,0.5,1C305.1,377.5,305,377.1,305,376.7z"/>
		<path d="M305.2,413.5c0,0.4-0.1,0.8-0.7,1C304.4,414.1,304.7,413.8,305.2,413.5z"/>
		<path d="M306.5,412.6c-0.1,0.1-0.4,0.3-0.7,0.5C306.1,412.9,306.3,412.7,306.5,412.6z"/>
		<path d="M305.8,413.1c-0.1,0.1-0.4,0.3-0.7,0.5C305.4,413.4,305.7,413.2,305.8,413.1z"/>
		<path d="M302.3,378.7c0.1-0.1,0.4-0.3,0.7-0.5C302.7,378.3,302.5,378.5,302.3,378.7z"/>
		<path d="M331.1,70.8c-1.1-0.5-2-1.2-2.6-2C330,68.9,330.8,69.6,331.1,70.8z"/>
		<path d="M331.6,71.8c-0.5-0.2-0.7-0.6-0.5-1C331.6,71,331.6,71.4,331.6,71.8z"/>
		<path d="M327.8,112.2c-0.4,0-0.7,0.1-1,0c-0.8-0.2-2.2-0.3-2.2-0.7c0-0.6,1.4-0.3,2.2-0.7c0.7-0.3,1.5-0.7,2.4-0.6
			c-0.4,0.3-0.5,0.7-1,0.9C327.5,111.4,327.5,111.8,327.8,112.2z"/>
		<path d="M330.4,114.2c-1.1-0.5-2-1.2-2.6-2C329.4,112.4,330.3,113.1,330.4,114.2z"/>
		<path d="M331.1,115.3c-0.5-0.2-0.7-0.6-0.5-1C330.9,114.5,331.1,114.9,331.1,115.3z"/>
		<path d="M329.2,110.2c0.1-0.1,0.4-0.3,0.7-0.5C329.6,109.9,329.3,110.1,329.2,110.2z"/>
		<path d="M327.8,156.3c-1.1-0.2-2.3-0.4-3.5-0.6c-0.4-0.1-0.7-0.2-0.7-0.4c-0.1-0.3,0.3-0.5,0.7-0.5c0.8-0.1,1.5-0.1,2.3,0
			C327,155.2,327.4,155.7,327.8,156.3z"/>
		<path d="M326.6,154.7c0.3-0.4,0.8-0.5,1.4-0.5C327.7,154.7,327.1,154.7,326.6,154.7z"/>
		<path d="M328.6,156.7c-0.1-0.1-0.4-0.3-0.7-0.5C328.1,156.4,328.4,156.6,328.6,156.7z"/>
		<path d="M328,154.3c0.1-0.1,0.4-0.3,0.7-0.5C328.4,153.9,328.2,154.1,328,154.3z"/>
		<path d="M329.2,157.3c-0.1-0.1-0.4-0.3-0.7-0.5C328.8,156.9,329,157.1,329.2,157.3z"/>
		<path d="M328.6,153.7c0.1-0.1,0.4-0.3,0.7-0.5C329,153.4,328.8,153.6,328.6,153.7z"/>
		<path d="M221.2,593.1c-0.7-0.3-1.1-0.9-1.1-1.5c0.5-1.7,0.3-3.3,0.5-4.9c0.1-0.7,0.5-1.1,1.5-1.1c1.1-0.1,2.2,0,3.3,0
			c2.2,0.1,2.2,0.1,2.2,1.8c0.1,1.2,0.5,2.5,0.5,3.7c0.1,1.5-0.5,2.8-2.9,3.1l-0.7-0.1l1.4-0.2v-0.3l-0.7-0.1l1-0.7
			c0.3-0.3,0.5-0.5,0.7-0.8c0.8-1.3,0.3-2.7-0.3-4.1c-0.5-1.5-0.8-1.5-3.4-1.5c-1.9,0-1.6,1.1-1.9,1.9c-0.1,0.2-0.1,0.5,0,0.7
			c0.7,1.8,1.2-2.3,2,2.1c-0.3,0.5-0.5,0.9-0.8,1.4h-0.1c-0.3-0.2-0.7-0.6-0.8-0.5C221.2,592.2,221.5,592.7,221.2,593.1L221.2,593.1
			z"/>
		<path d="M234.8,593.8c-0.5-0.3-1-0.8-0.8-1.3c0.4-1.5,0.1-3,0.3-4.5c0.1-1.3,0.4-1.3,3.8-1.3c3.1,0,3.3,0.1,3.4,1.4s0,2.5,0.1,3.7
			c0.3,2.9-1.8,4-5.6,2.9l0.1-0.1c0.5,0,1-0.1,1.2-0.5c0.3,0,0.4,0,0.7,0c0.4,0.4,0.8,0.5,1.4,0c0.1-0.2,0.4-0.3,0.7-0.5
			c1.2-1.8,0.5-3.7,0.5-5.7c0-0.5-0.4-0.7-1.1-0.8c-0.7-0.1-1.4-0.1-1.9-0.1c-2.4,0-2.4,0-2.7,1.6c-0.1,1.6,0,3.1-0.1,4.7
			L234.8,593.8z"/>
		<path d="M225.6,594.1c-1.5,0.9-2.4,0.5-3.4-0.5l0.1-0.1c0.4-0.2,0.5-0.5,0.5-0.9l0.1-0.1c0.8,0.4,1.6,0.5,2.6,0.6
			c0,0.1,0.1,0.3,0.1,0.5l-0.1,0.1c-0.4,0.1-0.8,0.1-1.2,0.1C224.5,594.2,225,594,225.6,594.1L225.6,594.1z"/>
		<path d="M271.5,590.9c1.1,0.5,2,1.2,2.6,2C272.5,592.8,271.8,592.1,271.5,590.9z"/>
		<path d="M274.1,592.9c1.1,0.1,1.9,0.3,2.7,1C275.7,594,274.7,593.9,274.1,592.9z"/>
		<path d="M270.2,588.9c0.8,0.5,1.2,1.2,1.4,2C270.3,590.5,270.2,589.8,270.2,588.9z"/>
		<path d="M236,594.6c-0.8-0.1-1.2-0.4-1.4-1l0.1-0.1c0.1,0,0.4,0,0.7,0.1c0.1,0.2,0.4,0.3,0.7,0.5C236,594.3,236,594.5,236,594.6
			L236,594.6z"/>
		<path d="M222.2,593.6c-0.1-0.2-0.4-0.3-0.7-0.5l0.1-0.1c0.1,0.1,0.4,0.3,0.7,0.5L222.2,593.6z"/>
		<path d="M373.2,215.3c0.5,0,1.1,0,1.6,0c1.6-0.1,2.2,0.3,1.6,1.6c-0.4,0.8-0.1,1.7,0.1,2.5c0.1,0.2,0.1,0.5,0.3,0.7
			c0.3,1.5-0.1,2.8-1.9,3.7c-1.4,0.7-2.7,0.6-3.9,0c-1.9-0.9-2.3-2.2-1.9-3.7c0.4-1.3,0.8-2.5,0.3-3.9c-0.3-0.7,0.4-0.9,1.2-0.9
			C371.6,215.3,372.4,215.3,373.2,215.3L373.2,215.3z M375,222.8c-0.1,0.1-0.1,0.1-0.1,0.1C374.9,223,375,222.9,375,222.8
			c0.4-0.3,0.7-0.6,0.7-1c0.1-0.1,0.4-0.2,0.4-0.3c0.1-0.2,0.3-0.5-0.1-0.6c-0.4-0.1-0.3,0.3-0.4,0.5c0,0.1,0,0.3,0,0.5
			C375.1,222.1,375,222.4,375,222.8z M370.9,222.8c0-0.3,0-0.7,0-1c2.4,1.1,3.1,0.9,3.8-1c0.1-0.5,0.1-1,0.1-1.5
			c1.2-2.6,0.4-3.5-3.1-3c-1,0.1-1.4,0.5-1.5,1.1c0,0.7-0.1,1.3,0.5,1.9c0,0.8,0,1.7,0,2.5c-0.3,0-0.4,0-0.7,0c0-0.1,0-0.3,0-0.5
			c0-0.2,0-0.5-0.4-0.5c-0.3,0.1-0.1,0.4-0.1,0.6c0.1,0.1,0.3,0.2,0.4,0.3C370.4,222.2,370.5,222.6,370.9,222.8
			c0.1,0.1,0.1,0.1,0.3,0.1C371.2,222.9,371.1,222.9,370.9,222.8z M372.8,223.7c0.1,0,0.1,0.1,0.1,0.1l0.1-0.1
			c-0.1,0-0.1-0.1-0.1-0.1L372.8,223.7z"/>
		<path d="M389,224.1c-1.8,1.1-3.3,1.3-4.6,0.6c-1.5-0.8-2.3-2-1.9-3.4c0.4-1.3,0.7-2.6,0.5-3.9c-0.1-0.5,0.1-0.8,0.8-0.8
			c1.9,0,3.9,0,5.8,0.1c0.7,0.1,0.7,0.5,0.1,0.9l-0.1-0.1c-1.5-0.9-3.1-0.5-4.8-0.4c-1,0.1-1.8,1.5-1.1,2.5c0.5,0.9,1-0.3,1.5-0.4
			c1-0.1,1.6-0.3,2.4,0.4c-2,0.3-3.1,1-3.1,2s1.1,1.7,3.1,2c0,0.1,0,0.3,0,0.5c-1,0-1.8,0-2.7,0c-0.3-0.1-0.4-0.3-0.7-0.5
			c-0.1-0.4-0.1-0.8-0.5-1c0-0.1,0-0.3,0-0.5c0-0.2,0-0.5-0.4-0.5c-0.3,0.1-0.1,0.4,0,0.6c0.1,0.1,0.3,0.2,0.4,0.3
			c0,0.4,0.1,0.7,0.5,1c0.1,0.2,0.4,0.3,0.7,0.5c0.8,0.7,1.8,0.7,2.7,0C388,224,388.6,224,389,224.1L389,224.1z"/>
		<path d="M389.8,217.1c0.1,1.5,0.8,2.9,0.7,4.4c-0.1,0.9-0.1,1.7-1.4,2.1l-0.1-0.1c0-0.3,0-0.7,0-1c1.2-1.1,0.7-2.3,0.4-3.5
			C389.1,218.4,388.7,217.7,389.8,217.1L389.8,217.1z"/>
		<path d="M335.7,217.5c-1-0.3-1.6-0.8-1.9-1.5C335,216.1,335.7,216.6,335.7,217.5z"/>
		<path d="M337.1,219.5c-0.8-0.5-1.2-1.2-1.4-2C336.9,217.9,337.2,218.7,337.1,219.5z"/>
		<path d="M375.9,198.1c1.6,0.6,1.5,1.8,1.2,2.8c-0.4,1.2-0.7,2.4-0.3,3.7c0.3,0.7-0.3,0.9-1,1c-1.8,0.1-3.5,0-5.3,0
			c-0.7,0-1.1-0.3-1-0.8c0.7-1.5,0-2.9-0.3-4.4c-0.1-1.2,0.3-2.4,1.8-3.1c1.5-0.7,3-0.7,4.4,0C375.8,197.5,375.9,197.8,375.9,198.1
			c-0.3,0-0.4,0-0.7,0c-0.1-0.1-0.1-0.1-0.3-0.1c0.1,0,0.1,0.1,0.3,0.1c0,0.4,0.1,0.7,0.7,1c0,0.1,0,0.3,0,0.5c0,0.2,0,0.5,0.4,0.5
			c0.3-0.1,0.1-0.4,0.1-0.6c-0.1-0.1-0.3-0.2-0.4-0.3C375.9,198.8,375.9,198.5,375.9,198.1z M371.3,198.1c0.1-0.1,0.1-0.1,0.1-0.1
			C371.3,198,371.3,198,371.3,198.1c-0.4,0.3-0.7,0.6-0.7,1c-0.1,0.1-0.4,0.2-0.4,0.3c-0.1,0.2-0.3,0.5,0.1,0.6
			c0.4,0.1,0.3-0.3,0.4-0.5c0-0.1,0-0.3,0-0.5C371.1,198.8,371.3,198.5,371.3,198.1z M371.2,201.6c-1,0.7-0.7,1.7-0.5,2.6
			c0,0.3,0.3,0.7,0.7,0.7c1.1,0.2,2.4,0.4,3.5,0c1.2-0.3,1-1.3,0.8-1.9c-0.3-0.9-1-0.2-1.4-0.1C372.7,203.4,371.6,203.2,371.2,201.6
			c1,0.3,1.8,1.4,3.1,0.4c1.1-0.9,1-1.8,0.3-2.7c-0.1-0.1-0.1-0.3-0.4-0.4c-0.7-0.7-1.4-0.7-2.2-0.1
			C371.5,199.6,371.2,200.6,371.2,201.6z"/>
		<path d="M390,205.3c0.4,0.4,0.5,0.9-0.1,0.9c-1.9,0.1-3.9,0-6,0c-0.8,0-0.8-0.5-0.7-0.9c0.3-1.3,0-2.5-0.4-3.7
			c-0.4-1.4,0.7-3.2,2.2-3.6c1.6-0.5,3.3-0.6,4.5,0.8l-0.1,0.1c-0.7,0.3-0.5,0.7,0.1,0.9l0,0c-0.1,1.2,0.7,2.7-1.4,3.5
			c0.1-1,1.1-2,0.3-3.1c-0.7-0.9-1.8-1.1-2.6-0.3c-0.7,0.6-1,1.2-0.5,2.1c0.5,1,1.5,1.3,2.9,1.4c-1.2,0.8-2.2,0.5-3.1-0.2
			c-0.1-0.1-0.4-0.4-0.7-0.1c-0.7,0.5,0,2.7,1.1,2.7c1.6,0.1,3.3,0.5,4.8-0.4L390,205.3z M385.3,198.7c-0.1,0.2-0.4,0.3-0.7,0.5
			c-0.4,0.3-0.7,0.6-0.7,1c-0.1,0.1-0.4,0.2-0.4,0.3c-0.1,0.2-0.3,0.5,0.1,0.6s0.3-0.3,0.4-0.5c0-0.1,0-0.3,0-0.5
			c0.5-0.2,0.7-0.6,0.7-1C384.9,199,385.1,198.9,385.3,198.7c0.3-0.1,0.7,0,0.7-0.3c0,0-0.1-0.1-0.3-0.1
			C385.6,198.5,385.5,198.6,385.3,198.7z"/>
		<path d="M389.4,198.7c2.2,1.2,1.1,2.9,1.1,4.4c0,0.7-0.7,1.4-0.5,2.2l-0.1,0.1c-0.8-0.6-0.5-1.3-0.3-2c0.4-1.2,0.8-2.4-0.3-3.5
			l0,0c0-0.3,0-0.6-0.1-0.9L389.4,198.7z"/>
		<path d="M337.3,202.9c-0.8-0.5-1.2-1.2-1.4-2C337.1,201.2,337.3,202,337.3,202.9z"/>
		<path d="M334.6,199.8c-1,0-1.6-0.3-1.9-1C333.7,198.8,334.3,199.1,334.6,199.8z"/>
		<path d="M335.3,200.3c-0.1-0.1-0.4-0.3-0.7-0.5C334.9,199.9,335.2,200.1,335.3,200.3z"/>
		<path d="M336,200.8c-0.1-0.1-0.4-0.3-0.7-0.5C335.6,200.5,335.7,200.6,336,200.8z"/>
		<path d="M222.8,566.1c3-1.3,5.2-0.4,5.4,2.1c0.1,1.5-0.8,2.9-0.3,4.4c0.1,0.4-0.4,0.7-1,0.7c-0.4,0.1-0.8,0.1-1.2,0.1
			c-4.9,0-4.4,0.1-4.4-3c0-0.6,0-1.2-0.3-1.8c-0.3-0.8,0-1.4,0.8-2l0.1,0.1c0.1,0.3-0.3,0.7,0.3,0.9c0.1,0.1,0.5-0.3,0.7-0.5v3.1
			c-0.3,0.1-0.5-1.1-1-0.1c-0.1,0.4,0,0.7,0,1.1c0.3,1.6,0.3,1.6,2.4,1.6c2.2,0,2.2,0,2.2-1.8c0-0.3,0-0.6,0-0.9c1-1,1-2.1,0-3.1
			c-0.1-0.2-0.4-0.3-0.5-0.5c-0.1-0.1-0.1-0.1-0.1-0.1c0.1,0.1,0.1,0.1,0.3,0.1c0.3,0.1,0.4,0.3,0.8,0.4v3.2
			c-1.2,0.2-1.9,1.5-3.3,0.4c1.5-0.2,2.3-0.8,2.3-1.9c0.1-1.2-0.7-1.9-2.3-2.2c-0.3-0.3-0.7-0.4-1.2-0.4L222.8,566.1z"/>
		<path d="M241.2,567.4c0.7,0.5,0.8,1.1,0.8,1.8c-0.1,1.3-0.3,2.7-0.3,3.9c0,1.1-1,1.5-2.2,1.3c-1.6-0.2-4.2,0.9-5-0.9
			c-0.5-1.7-0.5-3.7-0.1-5.7c0-0.2,0.4-0.4,0.7-0.5l0.1,0.1c0,1.7,0,3.5,0.1,5.2c0,0.9,0.4,1.4,1.8,1.3c0.7-0.1,1.4-0.1,1.9,0
			c1.4,0.1,1.6-0.4,1.9-1.3C241.2,571,241.1,569.2,241.2,567.4L241.2,567.4z"/>
		<path d="M236.4,566.3c1.2-0.7,2.3-0.7,3.4,0l-0.1,0.1c-0.3,0.1-0.5,0.1-0.8,0.2c0.3,0.1,0.5,0.1,0.8,0.2l0.1,0.1
			c0.1,0.1,0.4,0.3,0.7,0.5l0,0c0,1.1,0,2.1-0.1,3.2c-0.1,0.7-0.7,1.2-1.8,1.3c-1.1,0.1-2,0.1-2.2-1c1.1,0.3,2.2,0.8,3-0.2
			c0.7-0.8,0.5-1.8,0-2.7c-0.3-0.4-0.8-0.6-1.4-0.6c-0.7,0.1-1.4,0.4-1.5,0.9c-0.1,0.8-0.1,1.7-0.3,2.5c-1.2-1.1-0.4-2.3-0.7-3.5
			l0,0c0.1-0.1,0.4-0.3,0.7-0.5l0,0c0.3-0.1,0.5-0.1,0.8-0.2C237,566.5,236.7,566.5,236.4,566.3L236.4,566.3z"/>
		<path d="M272.5,573.2c0.7,0.2,1.1,0.5,1.4,1C272.9,574.3,272.5,573.8,272.5,573.2z"/>
		<path d="M240,566.3c0.8,0.1,1.2,0.4,1.4,1l-0.1,0.1c-0.1,0-0.4,0-0.7-0.1l0,0c-0.1-0.1-0.4-0.3-0.7-0.5l-0.1-0.1
			C239.8,566.7,239.8,566.6,240,566.3L240,566.3z"/>
		<path d="M235.1,567.4c0.1-0.6,0.5-0.9,1.4-1l0.1,0.1c0,0.1,0,0.3,0,0.5l0,0c-0.1,0.1-0.4,0.3-0.7,0.5l0,0c-0.1,0-0.4,0-0.7,0
			L235.1,567.4z"/>
		<path d="M221.8,566.2c0.1-0.1,0.4-0.3,0.7-0.5l0.1,0.1C222.3,565.9,222,566.1,221.8,566.2L221.8,566.2z"/>
		<path d="M271.7,572.7c0.1,0.1,0.4,0.3,0.7,0.5C272.2,573,271.9,572.8,271.7,572.7z"/>
		<path d="M226.9,592.6c-0.1,0-0.4,0-0.7,0c0.1-1.4,0.1-2.9-1.2-4c1.4,0.1,1.9,0.7,1.9,1.6C226.9,591,226.9,591.8,226.9,592.6z"/>
		<path d="M224.9,588.6c-0.7,0.2-1.2,0.5-1.9,0.5C223.4,588.5,223.8,587.7,224.9,588.6z"/>
		<path d="M227.3,593c0,0-1.6,0-1.8,0c0.1-0.1,0.4-0.5,0.4-0.5l1.4,0.3V593z"/>
		<path d="M240.1,593.7c-0.3,0.1-0.4,0.3-0.7,0.5c-0.4,0-1,0-1.4,0c1.5-1.1,1.5-2.5,1.4-4C240.8,591.2,240,592.5,240.1,593.7z"/>
		<path d="M235.5,593.7c0.1-1.1-0.5-2.4,0.7-3.4c-0.1,1.4-0.1,2.9,1.2,4c-0.4,0-1,0-1.4,0C235.9,594,235.8,594,235.5,593.7z"/>
		<path d="M239.6,590.1c-1.1-0.5-2.2-0.6-3.3,0C237.5,588.7,238.3,588.7,239.6,590.1z"/>
		<path d="M372.4,218.3c1.6-0.8,2.2,0,2.7,1C374.2,219,373.2,218.7,372.4,218.3z"/>
		<path d="M371.1,219.3c0-0.6,0.4-0.9,1.4-1C372.1,218.8,371.7,219.1,371.1,219.3z"/>
		<path d="M389,222.9c-0.4,0.1-1,0.3-1.4,0.5c0.7-1.3,0.7-2.7,0-4C389.7,220.3,388.9,221.7,389,222.9z"/>
		<path d="M223.1,570.3c0.1,0.1,0.4,0.3,0.7,0.5C223.7,570.6,223.4,570.4,223.1,570.3z"/>
		<path d="M223.3,566.8c0.1-0.1,0.4-0.3,0.7-0.5C223.7,566.4,223.4,566.6,223.3,566.8z"/>
	</g>
	<text transform="matrix(1.2723 1.020176e-02 -1.274457e-02 0.9999 337.8926 70.1134)" class="st1 st2 st3">Lab HES</text>
	<text transform="matrix(1.001973e-02 -0.7859 1 8.020584e-03 374.5945 171.4949)" class="st1 st2 st4">Ruang Dosen</text>
	<text transform="matrix(1.001973e-02 -0.7859 1 8.020584e-03 372.6588 323.2537)" class="st1 st2 st4">Ruang Dosen</text>
	<text transform="matrix(1.001973e-02 -0.7859 1 8.020584e-03 236.7934 695.7209)" class="st1 st2 st4">Ruang Dosen</text>
	<text transform="matrix(1.2723 1.020221e-02 -1.274515e-02 0.9999 201.6855 443.6191)" class="st1 st2 st3">Lab IoT</text>
	<text transform="matrix(1.2723 1.020221e-02 -1.274515e-02 0.9999 195.4412 723.9547)" class="st1 st2 st3">Lab NOS</text>
	<text transform="matrix(1.2723 1.020221e-02 -1.274515e-02 0.9999 327.205 354.3582)" class="st1 st2 st3">Lab Foresty</text>
	<text transform="matrix(1.2723 1.020221e-02 -1.274515e-02 0.9999 169.0692 767.1335)" class="st1 st2 st5">Arah GSG</text>
	<text transform="matrix(1.2723 1.020221e-02 -1.274515e-02 0.9999 380.5526 30.0921)" class="st1 st2 st5">Arah Parkiran</text>
	<text transform="matrix(1.001973e-02 -0.7859 1 8.020584e-03 238.7129 542.1793)" class="st1 st2 st4">Ruang Dosen</text>
	<text transform="matrix(1.0852 1.020258e-02 -1.087110e-02 0.9999 192.1713 398.4038)" class="st1 st2 st6">Ruang Sidang</text>
</g>
</svg>
