<?xml version="1.0" encoding="utf-8"?>
<!-- Generator: Adobe Illustrator 22.1.0, SVG Export Plug-In . SVG Version: 6.00 Build 0)  -->
<svg version="1.1" id="Layer_1" xmlns="http://www.w3.org/2000/svg" xmlns:xlink="http://www.w3.org/1999/xlink" x="0px" y="0px"
	 viewBox="0 0 612 792" style="enable-background:new 0 0 612 792;" xml:space="preserve">
<style type="text/css">
	.st0{fill:none;stroke:#000000;stroke-width:0.3;}
	.st1{opacity:0.5;enable-background:new    ;}
	.st2{font-family:'ArialMT';}
	.st3{font-size:11.9495px;}
	.st4{font-size:9.6148px;}
	.st5{font-size:6.6385px;}
	.st6{font-size:11.5156px;}
</style>
<g>
	<g>
		<g>
			<g>
				<path d="M128.7,0c-2.5,0-2.5,0-2.5,3c0,0.3,0,0.7,0,1c-0.1,11.9-0.2,24.1-0.3,35.9c0,1.4-0.1,2.9,0,4.2c0.1,0.9,0.7,1.7,1.4,1.8
					c2.1,0.1,4.4,0.1,6.7,0.1c1.8,0,1.8,0.1,1.8,2.3c0,0.3,0,1.3,0,1.3l-0.7,122.4c0,0,0,1,0,1.5c-0.1,1.6-0.1,1.7-1.5,1.7
					c-2.1,0-4.1,0-6.1-0.1c-2.9,0-2.9,0-3,3.3c-0.2,20.6-0.3,41.2-0.5,61.8c0,0.5,0,0.7,0,1.3c0.1,1.7,0.3,2,1.8,2
					c1.9,0.1,3.8,0,5.8,0.1c1.5,0,2.8,1.6,2.8,3.3c-0.3,39.6-0.7,79-1,118.6c0,3.5,0.2,3.3-3,3.3c-19.9-0.2-39.8-0.5-59.7-0.7
					c-2.7,0-2.7,0-2.8,3.3c0,0.5,0,0.8,0,1.3l-0.7,81.9c-0.3,27.5-0.4,54.9-0.7,82.3c0,0.7,0,1.3,0,2c-0.1,1-0.8,1.9-1.8,1.8
					c-3.3,0-6.4-0.1-9.6-0.1c-2.1,0-2.1,0-2.2,2.4c-0.2,21-0.4,42-0.5,63c0,2.5,0.2,2.6,2.5,2.7c3,0,9.3,0,9.3,0s2.1,0.2,1.6,2.9
					v0.5c0.1,40.3-0.2,80.5-0.7,120.7v1.7c0.2,0.9-0.8,1.5-0.8,1.5h-2.4c0,0-4-0.4-5.9-0.4c-3,0-3-0.4-3.4,2.3v0.5
					c0.3,14,0.1,28.1,0,42.1v1.5c0.1,0.8,1,1.4,1,1.4h1.7c0,0,19.7,0,29.6,0.2c24.2,0.3,48.3,0.6,72.4,0.9c2.4,0,2.4,0,2.6-3
					c0-0.1,0.9,0,0.5,0v-40.9c0.6-0.5,0.6-1,0.4-1.5c-0.1-1.6-0.3-1.9-1.6-2c-1.7-0.1-3.3,0-5-0.1c-3.3,0-3,0.3-3-3.4
					c0.3-40.2,1-120.4,1-120.4s0,0.3,0-0.2c0.1-1.7,0.1-1.8,1.5-1.8c2.1,0,4.4,0.1,6.6,0.1c3,0,3.3-3.3,3.3-3.3s0.3-42.9,0.5-64.1
					c0-0.4,0,0,0-0.5c0-1.9-0.1-2-1.7-2c-2.1-0.1-4,0-6-0.1c-3.3,0-2.6,0.2-2.7-4.6c-0.6-39.2,0.1-78.3,1-117.5
					c0.1-4.5-0.4-4.2,2.8-4.2c23.4,0.3,47,0.6,70.4,0.9c0.6,0,1.1,0,1.7,0c1.5,0,1.6-0.1,1.7-2c0.1-3.6,0.1-7.3,0.1-10.9
					c0.1-9.9,0.2-19.9,0.2-29.9c0-2.5,0-2.5-2.1-2.5c-2.5,0-5.1-0.1-7.7-0.1c-2.1,0-2.1,0-2.3-2.8c0-0.3,0-0.8,0-0.8
					s0.5-79.7,0.7-119.8v-1.5c0.1-1.9,0.3-1.9,1.9-2.2h9.1c1.8,0.4,2.1,0.2,2.1-2c0.2-21.2,0.3-42.4,0.5-63.5c0-2.2-1.8-2.5-1.8-2.5
					h-9.4c0,0-1.6,0-1.7-2v-1c0.3-40.7,0.7-81.1,0.7-121.7v-1.7C221.9,48,223,47,223,47h2.6c0,0,3.3,0.6,5,0.6
					c3.5-0.2,3.5,0.5,3.6-2.3v-0.5c-0.1-13.4,0.1-26.9,0.7-40.3V3.3c-0.5-0.8-1.6-1.5-1.6-1.5s-1.8,0-2.4,0
					c-10.1-0.1-20.2-0.2-30.1-0.4C177.1,0.6,152.9,0.3,128.7,0z M142.5,410.8c0.2,0.7,0.2,1.1-0.5,1.2c-0.5,0.1-1,0-1.4,0
					c-0.7,0-1-0.5-1-1.3c-0.2-1.8,0-2.3,1.3-2.7c-0.2-0.4-0.5-0.5-0.9-0.6c-0.9-0.4-1.2,1.1-1.2,1.1s0,0,0,0.3
					c-0.1,3.1,0.1,2.7-2.6,2.8c-0.2,0-0.5,0-0.7,0c-2-0.2-2.1,0-2.1-2.2c0.1-6.3,0.1-12.7,0.1-19.1c0-0.6,0-1.1,0-1.6
					c0-1.7-0.3-2.1-1.7-2c-1,0.2-1.8-0.6-2.9-0.4c0.7,0.8,1.8,1,2.7,1.4c1.8,0.8,0.9,2.7,0,9.1c-0.5,3.4-0.2,7.1,0.5,10.4
					c0.7,3.3,0.5,4.5-1,4.4c-0.4,0-0.9,0-1.3,0c-19.1-0.2-38.4-0.5-57.6-0.7c-2.8,0-2.6,0-2.6-3.2c0.1-11.5,0.2-23,0.2-34.6
					c0-0.5,0-1,0-1.5c-0.1-1,0.3-1.6,1.3-1.5c0.4,0,1.5,0,1.5,0s38.4,0.8,57.4,1h0.4c2.1,0,2.1,0,2.1,2.5c0,0.9-0.1,1.9,0,2.7
					c0.1,1.3-0.4,1.8-1.4,2.1c-1.4,0.4-2.8,0.2-4.1,0.1c-2.6,0-3.1-0.2-2.1,3.7c0.1,0.3,0.3,0.5,0.5,0.8c-0.3-3-0.3-3,2.3-3
					c1.4,0,2.9,0,4.3-0.3c1.3-0.3,1.4-1,1.3-2.7c-0.1-0.6-0.1-1.2,0-1.8c0.2-3.9-0.2-4,1.7-4.1h0.6c3,0,3,0,3.3,3.4
					c0.1,1.5,0.1,1.5,1.3,1.1c-0.4-0.4-0.4-1-0.3-1.6c0.1-1,0.2-2,0.2-3c0-0.5-0.3-1.3-0.2-1.7c0.4-0.6,1.2-0.3,1.8-0.2
					c1.4,0,2.9,0,4.4,0.1c0.6,0,1,0.3,0.9,1.1c-0.3,1.2-0.3,2.5-0.3,3.6c0,1-0.6,1.3-1.2,1.3c0.2,0.4,0.5,0.5,0.9,0.7
					c0.7,0.4,1.2,0.1,1.3-0.9v-0.5c0.1-3.3,0.1-3.3,2.8-3.3c25.2,0.3,50.3,0.6,75.6,0.9c3,0,2.8-0.2,2.7,3.4
					c-0.1,11.3-0.6,33.9-0.6,33.9v1.5c0,0,0.3,1.7-1.3,1.3h-1c-25.3,0.2-50.5-0.1-75.8,1h-0.6c-2.1-1.4-2.1-1.4-2.1-3.8
					c0-0.8,0.3-1.9-0.3-2.3c-0.7-0.3-1.7,0.1-2.1,1.2c0.6,0.2,1.4-1.1,1.6,0.6c0.2,1.7-0.1,2.7-0.9,2.9c-1.1,0.3-1.7-0.1-2.1-1.5
					c-0.7-0.9-1.1-2.4-2.4-2.6C141.3,409,142.2,409.5,142.5,410.8z M148.4,370.1c0.1-0.9,1-0.5,1.5-0.6c0.2,0,0.6,0,0.9,0.1
					c0.3,0.1,0.7,0.3,0.6,0.8c-0.1,0.4-0.2,0.5-0.6,0.6c-0.3,0.1-0.6,0.1-0.9,0.1C149.3,370.8,148.4,371.3,148.4,370.1z
					 M136.3,412.5c0.7,0.2,1.8-0.3,1.8,0.8c0,1.1-1,0.7-1.7,0.7c-0.7,0-1.7,0.4-1.7-0.8S135.8,412.8,136.3,412.5z M134.1,425.9
					c0,0.5-0.1,1.1-0.6,1.1c-0.6,0-0.6-0.6-0.6-1.1c0-3.3,0.1-6.8,0.1-10.2c0-0.5,0.2-1,0.2-1.5c0-0.5,0.1-1.2,0.6-1.1
					c0.6,0.1,0.2,0.8,0.2,1.3c0,1.8,0,3.6-0.1,5.5l0,0C134.1,421.9,134.1,423.9,134.1,425.9z M70.6,456.2c-2.3,0-2.3,0-2.3-2.8
					c0.1-12.7,0.2-25.6,0.3-38.5c0-0.5,0-1.6,0-1.6s0.3-1.3,1-0.8h1.7c19.5-0.3,39,0,58.5,0.2c0.9,0,1.8-0.6,2.4,0.6
					c-0.7,0.7-1.5,0.4-2.3,0.4c-19.2-0.2-38.4-0.5-57.6-0.7c-3,0-2.8-0.2-2.8,3.3c-0.1,11.6-0.2,23.1-0.1,34.8v2
					c-0.1,0.9,1,1.8,1,1.8h1.4c0,0,38.9,0.2,58.2,0.4c2.6,0,2.6,0,2.1-3.1v-10c0.5-0.6,0.5-1.1,0.6-1.7c0-0.2,0.2-0.4,0.4-0.5
					c0.3-0.1,0.6,0.1,0.6,0.5c0.1,0.6-0.2,1.7-0.2,1.7s-0.1,7.8-0.1,11.7c0,2.8,0,2.8-2.3,2.8c-10.2-0.1-20.4-0.3-30.6-0.4
					C90.7,456.4,80.7,456.3,70.6,456.2z M132.9,457.7c0.4,0,0.5,0.4,0.6,0.9c0,1.7,0,3.4-0.1,5.1c0,1.7,0,3.4-0.1,5.1
					c0,0.5-0.2,0.9-0.6,0.9c-0.4,0-0.5-0.4-0.6-0.9c0-3.4,0.1-6.9,0.1-10.4C132.3,458.1,132.5,457.7,132.9,457.7z M71.1,498.3h-1.2
					c-1.8,1-1.8,1-1.8-1.2c0.1-12.7,0.2-25.4,0.3-38.1c0-0.5,0-1,0.1-1.5c0-0.2,0.2-0.5,0.4-0.4c0.1,0.1,0.2,0.2,0.2,0.3
					c0.1,1.3,0.1,2.7,0,3.9c-1,10.1-1.3,20.4-0.2,30.5c0.1,1.3,0,2.5,0.1,3.7C68.9,497.9,69.1,498.1,71.1,498.3
					c8.3,0,16.6,0.1,25,0.2c11.1,0.1,22.3,0.3,33.4,0.8h1c1.7-0.4,1.8-0.5,1.6-2.5v-11.5c0.3-0.7,0-2.1,0.8-2.1
					c1.1,0,0.7,1.4,0.7,2.2c0,3.9,0,8.1-0.1,12c0,2.5,0,2.5-2.1,2.5c-10.3-0.1-20.5-0.3-30.7-0.4C90.8,499.5,81,499.4,71.1,498.3z
					 M132.8,500.4c0.6,0,0.6,0.5,0.6,1.1c0,1.7,0,3.4,0.1,5.1l0,0v4.8c-0.2,0.5-0.3,0.9-0.9,0.9c-0.4,0-0.6-0.4-0.6-0.8v-10.3
					C132.3,500.9,132.3,500.4,132.8,500.4z M67.8,539.4v-14.3c-0.1-7.7,0.1-15.4,0.1-23c0-0.6-0.2-1.7,0.3-1.7
					c0.9,0,0.5,1.2,0.5,1.8c-0.1,12-0.2,24.1-0.3,36c0,3.4,2.7,3.3,2.7,3.3h58c0,0,0.4,0.6,0.6,0.6c2.1,0,2.1,0,1.6-2.4l0.7-10.5
					v-1.5c0,0-0.2-1.3,0.5-1.3c0.7,0,1,1.4,1,1.4v13.8c0,0-0.9,1.7-1.9,1.7c-0.6-0.1-1.1,0-1.7-0.8h-29.8c-10,0.3-20,0.2-30.1,0
					C67.5,542.4,67.5,542.6,67.8,539.4z M56.2,607.9c-1.9,0-2.1,0-1.9-2.4c0.1-9.2,0.4-27.4,0.4-27.4l0.6-3.6v-29.8
					c0.3,0-0.4-1.3-0.4-2c0-0.9,0.3-1.4,1.1-1.1h10c0.2-0.2,0.6-0.2,0.6,0.3s-0.3,0.5-0.6,0.5c-2.3,0-4.5-0.1-6.9,0
					c-0.6,0-1.3-0.1-1.8,0c-1.3,0.1-1.5,0.4-1.6,2c0,0.5,0.1,1.5,0.4,1.5v57.6c-0.4,0-1.1,0.9-1,1.3c0,2,0.2,2.3,1.9,2.3
					c2.4,0.1,4.9,0.1,7.3,0.1c0.5,0,1,0.1,1.4,0.2c0.1,0,0.2,0.2,0.2,0.3s-0.1,0.3-0.2,0.3c-0.4,0.1-0.9,0.1-1.2,0.1
					C61.7,608,58.9,608,56.2,607.9z M127.9,556.8c-0.7,7.8,1.1,5.9-4.4,6.5c-0.1,0-0.2,0-0.2,0c-1-0.3-1.8,0.1-1.6,1.1
					c0.2,1.2,0.2,2.5,1.2,3.3c-0.7-3.5-0.7-3.4,2.1-3.5c1.2-0.1,2.4,0.6,3.5-0.2c0.5-0.4,0.8,0.4,0.7,1.1c0,1.5,0,2.9,0,4.3
					c0.1,0.8-0.1,0.9-0.7,1c-1.1,0.2-2.1,0.1-3.3-0.5c-0.5-0.3-1-0.7-1.5-0.7c0.5,1.3,1.6,1.4,2.6,1.8c1,0.5,1.4,1.8,1,3
					c-0.2,0.5-0.4,0.6-0.9,0.6c-0.6,0-1.1,0.1-1.7,0c-22.1-0.3-44.2-0.5-66.4-0.8c-2.8,0-2.6,0.2-2.6-3.4c0.1-7.9,0.2-15.8,0.2-23.7
					c0-0.5,0-1,0-1.5c0.1-1.5,0.2-1.6,1.5-1.7c0.4,0,0.9,0,1.2,0c22,0.3,44,0.5,66.1,0.8c3.7,0,2.3-0.4,2.8,7.8
					C128.1,553.8,128.1,555.3,127.9,556.8z M129.4,544.4c0.2,0,0.4,0.2,0.4,0.4c0.1,0.4,0.1,0.8,0.1,1.2c0,4.6-0.1,9.4-0.1,14
					c0,0.6,0.2,1.6-0.6,1.6c-0.7,0-0.6-0.9-0.6-1.6c0-2.3,0-4.6,0.1-7c0-2.3,0-4.4,0.1-6.7c0-0.5,0.1-1,0.1-1.5
					C128.9,544.6,129.3,544.4,129.4,544.4z M122.7,581.1c-1.7,0-1.8,0.4-1.2,2.6c0-0.9,0.2-1.5,1.2-1.6c2-0.1,4.1,0.3,5.9-0.2
					c0.4-0.1,0.7,0.3,0.7,0.7c0,2.1,0,4-0.1,6.2c0,0,0,0.1-0.1,0.1c-1.2,0-2.2,0-3.4,0c2.7,1.7,1.2,0.7,1.9,10.7c0,0.1,0-0.3,0-0.3
					s0.6,8.3-2,8.4c-4.5-0.1-9.2-0.1-13.6-0.2c-18-0.2-35.8-0.4-53.6-0.7c-2.6,0-2.6,0-2.6-3.2c0.1-8.2,0.2-16.3,0.1-24.3v-1.7
					c0.1-0.9,0.4-1.3,1.3-1.5h1.4c22.2,0.5,66.5,1,66.5,1s0.4,0,0.7,0c1.8,0.1,1.8,0.2,1.8,2.3c-0.1,1.7-0.1,1.8-1.5,1.9
					C125.1,581.1,123.9,581,122.7,581.1z M128.7,590.1c0.2,0,0.4,0.2,0.4,0.4c0.1,0.4,0.1,0.8,0.1,1.2c0,4.6-0.1,9.4-0.1,14
					c0,0.6,0.2,1.6-0.6,1.6c-0.7,0-0.6-0.9-0.6-1.6c0-2.3,0-4.6,0.1-7c0-2.3,0-4.4,0.1-6.7c0-0.5,0.1-1,0.1-1.5
					C128.3,590.3,128.6,590.1,128.7,590.1z M128.4,579.5c0-1.3,0-2.7,0-3.8c0-1.1,0-2.3,0-3.4c0-0.4,0.2-0.6,0.6-0.6
					c0.2,0,0.6,0.3,0.5,0.6c0,2.5,0,4.8-0.1,7.4c0,0.4-0.2,0.6-0.6,0.6C128.7,580.2,128.5,579.9,128.4,579.5z M113.3,576.1
					c-7.3-0.1-14.5-0.2-21.7-0.3c-11.1-0.1-22.3-0.3-33.3-0.4c-0.7,0-1.4-0.1-2.1-0.2c-0.1,0-0.3-0.3-0.3-0.5c0-0.2,0.2-0.5,0.3-0.5
					c0.7-0.1,1.4-0.1,2.1-0.1c19.4,0.2,38.6,0.5,57.9,0l9.2,1h1c0.5-0.1,1.4-0.4,1.4,0.5c0,0.8-0.7,0.7-1.4,0.7
					C122,576.2,117.6,576.1,113.3,576.1z M69.3,651.9h-0.6c0,0-1.6-0.2-1.9-6.1c-0.5-11.1-0.5-22.2,0.2-33.3
					c0.3-5.6-0.6-5.7,2.1-5.7c10.3,0.1,20.5,0.3,30.7,0.4l0,0c10,0.1,20,0.2,29.9,0.5h1.4c1.4,0,1.4,0.1,0.9,1.7l0.7,11.1
					c0,0,0-0.1,0,0.1c-0.1,0.5-0.1,1.1-0.7,1c-0.4-0.1-0.5-0.5-0.5-0.9c0-2.4,0-4.7-0.1-7.2c-0.1-1,0-1.9,0.1-2.9
					c0.1-1.3-0.3-1.9-1.4-1.9c-0.5,0-1,0-1.4,0c-19.4-0.2-38.7-0.5-58.2-0.7c-2.6,0-2.6,0-2.6,3.1c-0.1,11.8-0.2,23.6-0.2,35.3
					c0,0.6,0,2.2,0,2.2s0.5,1.7,1.3,1.5h1.2c19.4,0.4,58.2,1,58.2,1h0.4c0,0,2.1-0.1,1.7-2.6V637c0.4-0.6,0.3-1.6,1.1-1.6
					c0.7,0,0.6,1,0.4,1.6v13.4c0.1,1.9,0.1,1.9-1.5,1.9c-10-0.1-20.2-0.2-30.2-0.4c-0.5,0-1,0-1.4-0.3c-0.7-0.5-1.2-0.9-1.8-0.2
					c-0.1,0.1-0.2,0.1-0.2,0.1c-1.8-0.8-3.6,0.4-5.4,0.3C84.1,652,69.3,651.9,69.3,651.9z M68.9,695.2c0,0-1,0-1.5,0
					c-0.7,0-1-0.5-1-1.4c0-0.4,0-0.8,0-1.3c0.1-12.4,0.1-24.9,0.3-37.3c0-0.7-0.3-2.1,0.4-2.1c0.7,0,0.3,1.3,0.3,2.1
					c-0.1,11.5-0.1,23-0.2,34.5c0,0.7,0,0.6,0,1.3c0.1,1.6,0.3,1.9,1.6,2c0.4,0.1,0.9,0,1.2,0c19.4,0.2,38.8,0.5,58.2,0.7
					c1.4,0,2.6-1.4,2.6-3.1c0-3.3,0-10,0-10s0-1.1,0-1.7c0-0.2,0.2-0.5,0.4-0.5c0.3-0.1,0.6,0.1,0.6,0.5c0.1,0.5,0.1,1,0.4,1.5v12.5
					c-0.4,2.3-0.5,2.3-2.5,2.3c-10.3-0.1-20.5-0.3-30.9-0.9L68.9,695.2z M66,734.9c0-0.7-0.1-1.3,0-2c0.1-5.8,0.1-11.7,0.2-17.5
					c0.1-5.7,0.1-11.4,0.1-17v-2c0-0.3,0.1-0.8,0.4-0.8c0.5-0.1,0.4,0.5,0.4,0.9c0.1,0.6,0,1.1,0,1.7c-0.1,9-0.2,17.8,0,26.8v8.4
					c-0.3,0.6-0.3,1.1-0.4,1.7c0,0.3-0.1,0.5-0.4,0.5C66.1,735.5,66,735.2,66,734.9z M133.8,734.8c-1.6,0-1.6-0.1-1.6-2
					c0-4,0.1-8.3,0.1-12c0-1.8,0-1.7-1.5-2.3c-1-0.4-2-0.2-3-0.3c-0.4,0-0.9,0-1.3-0.5c-0.6,0.6-0.4,1.2,0.2,1.3
					c0.8,0.2,1.5,0.2,2.2,0.1c1.1,0,1.6,0.6,1,3c0,2.9-0.1,6.9-0.1,10c0.5,2.3,0.3,3.4-0.9,3.4c-0.5,0-1.1,0-1.6,0
					c-18.8-0.2-37.5-0.5-56.4-0.7c-2.9,0-2.6,0.2-2.6-3.3c0.1-11.4,0.2-22.8,0.2-34.3c0-0.5,0-1,0-1.5c-0.1-1.1,0.3-1.7,1.4-1.6
					c0.5,0,1.3,0,1.3,0s37.5,0.3,56.4,0.5c3.3,0,2.6-0.3,3,4.6v3.9c-0.4,4.2-0.1,4.2-2.5,4.7h-0.5c-0.7-0.3-1.4-0.8-1.8,0.2
					c-0.3,0.9,0,1.7,0.7,2.4c-0.1-1.3,0.6-1.5,1.4-1.5c1.2,0.1,2.3,0,3.5-0.4c0.7-0.3,0.5-1.4,0.5-1.4l1-1.5l0.2-25.8
					c-0.1-0.5-0.2-1-0.1-1.5c0-0.9-0.2-1.3-1-1.6c-1.1-0.4-2.2-0.4-3.3-0.5c-0.7,0-1.4,0.3-1.9-0.5c-0.6,0.7-0.5,1.3,0.2,1.4
					c0.9,0.2,1.7,0.2,2.6,0.1c1.3,0,1.7,0.6,1.1,3.3c-0.1,3.2-0.1,6.2-0.2,9.4c0.6,2.4,0.4,3.6-0.9,3.6c-0.5,0-1,0-1.4-0.4
					l-57.3-0.7c-2.7,0.3-2.7,0.5-2.6-2.8c0.1-11.6,0.2-23.1,0.2-34.8c0-0.6,0-1.1,0-1.7c0-0.9,0.3-1.4,1.1-1.4c0.3,0,0.7,0,0.7,0
					s14.8,0.5,22,0.6c0.6,0,1.2-0.1,1.6,0.4c0.2-0.1,0.6-0.1,1-0.1c0.1,0,0.2,0.1,0.3,0.1c-0.1-0.1-0.1-0.1-0.1-0.1
					c0.1-0.1,0.2-0.1,0.3-0.1s0.1,0.1,0.2,0.1c-0.1,0.1-0.2,0.1-0.3,0.1c0.2,0.1,0.6,0.1,0.9,0.1c0.2,0,0.4,0.1,0.6,0.1l0.2,0.1
					c0.5,0.1,1,0.1,1.5,0.3c0.4-0.9,1.1-0.9,1.8-0.8c5.2,0.1,10.4,0.1,15.6,0.2c4.2,0.1,8.5,0.1,12.7,0.2c1.8,0,1.8,0.1,1.8,2.3v8.6
					c-0.1,2.1-0.1,2.1-1.9,1.8h-0.9c-0.7,0.5-1.5,0-1.8,1c-0.3,0.9,0,1.7,0.7,2.4c0-1.9,0-1.9,1.6-2c0.9,0,1.8,0.1,2.6-0.2
					c1.5-0.4,1.2-2.2,1.2-2.2v-12.3c0,0,0.5-10.9,0.7-16.3c0-2,0-1.9-1.6-2.5c-1.1-0.4-2.1-0.2-3.3-0.3c-0.5,0-1,0-1.4-0.5
					c-0.6,0.7-0.5,1.3,0.2,1.4c0.9,0.2,1.7,0.2,2.6,0.1c1.3,0,1.7,0.6,1.1,3.3c-0.1,3.1-0.1,6.1-0.2,9.3c0.6,2.4,0.4,3.5-0.9,3.5
					c-0.4,0-1.2,0.1-1.2,0.1s-38.4-0.5-57.6-0.5h-0.9c-1.5-0.3-1.6-0.4-1.6-2.3c0.1-5.4,0.1-10.7,0.2-16.1
					c0.1-6.7,0.1-13.3,0.2-20.1c0-2.4,0-2.4,1.9-2.4c19.5,0.2,39,0.5,58.5,0.7c1.8,0,1.8,0.1,1.7,2.3v8.6c0,2.1-1.8,2.8-1.8,2.8
					s-0.1,0-0.4,0c-0.7,0.1-1.4-0.4-1.8,0.6c-0.3,0.9,0,1.7,0.7,2.4c0-1.9,0-1.9,1.3-2c1,0,2.1,0,3.1-0.2c0.7-0.2,1-0.9,1-1.6
					l0.1-13.1c0-1.2-0.4-1.7-1.3-1.6c-0.3,0-0.7,0-1-0.1c-0.6-0.1-0.8-0.5-0.8-1.2c0-0.6,0-2.3,0-2.3v-57.5c0,0,0-0.3,0-0.9
					c-0.1-1.1,0.3-1.7,1.3-1.8c2.3-0.2,2.4-0.3,2.4-3.1c0-5.1,0.1-9.2,0.1-14c0-2.2-0.3-2.7-2.2-2.8c-0.8-0.1-1.6,0-2.4,0
					c-1.4,0-1.4,0-1.4-2.1c-0.4,0.3-0.7,0.9-0.8,1.6c-0.2,0.9,0.1,1.6,0.9,1.7c0.8,0.1,1.6,0.1,2.4,0c1,0,1.5,0.5,1.3,2.4
					c0,3.6-0.1,7.5-0.1,10.9c0.2,1.7,0.1,2.8-1.1,2.7c-0.4,0-0.9,0-1.2,0c-19.1-0.2-38.3-0.5-57.4-0.7c-2.6,0-2.6,0-2.6-3
					c0.1-11.4,0.2-22.7,0.2-34.1c0-0.4,0-1.8,0-1.8s0.1-1.7,1.4-1.9h0.2c7.6,0.1,15.4,0.2,23.1,0.3c0.9,0,1.4,0.2,1.4,1.2
					c0.2-0.1,0.5-0.1,0.7-0.1l0,0c0,0,0.6,0.9,0.9,0.8c0.2-0.1,0.4-0.1,0.6-0.1c0-0.1,0-0.1,0.1-0.2c0.1,0.1,0.1,1,0.1,1h0.1
					c0,0,1-1.1,1.5-1.1c0.2,0,0.3,0,0.4,0.1c0.2-0.3,0.6-0.4,1-0.4c1.8,0,3.8,0,5.6,0.1c7.3,0.1,22.2,0.3,22.2,0.3s1-0.3,1.4-0.3
					c1-0.1,1.4,0.6,1.4,1.7v9.6c-0.1,1.7-0.1,1.7-1.7,1.8c-0.7,0.1-1.5-0.1-2.3,0.1c-0.7,0.2-0.7,0.8-0.2,1.4
					c0.2-0.4,0.7-0.5,1.1-0.3h2.1c2.8-0.3,3-0.6,3-3.8c0.1-9.1,0.2-18,0.2-27c0-2.9-0.2-3.1-2.4-3.3c-0.7-0.1-1.5,0-2.3-0.1
					c-1-0.1-1.2-0.5-0.7-1.6c0.2-0.5,0.4-0.9,0.4-1.3c-0.4,0.2-0.7,0.5-1,0.9c-0.3,0.9-1,1.8-0.6,2.8c0.3,1,1.4,0.8,2.1,0.8
					c2.3,0.1,3,2.8,3,2.8v10.8c0,0-0.8,2-2.4,2c-10-0.1-20-0.2-29.9-0.4c-0.6,0-1-0.1-1.3-0.3c-0.4,0.2-1.2-0.3-1.2-0.9h-1
					c-0.3,0.6-0.6,0.5-0.9,0.4c-0.3-0.1-0.6-0.1-1-0.3c-0.1,0-0.1,0-0.1-0.1c-0.2,0.3-0.6,0.5-1.2,0.5c-4.1-0.3-12.4-0.5-12.4-0.5
					s-6.1-0.1-9.3-0.1c-1.9,0-1.9-0.1-1.8-2.4c0.1-10.1,0.2-20.3,0.2-30.5c0-1.7,0-3.5,0.1-5.4c0.1-2,0.1-2,1.8-2c0.2,0-0.6,0-0.2,0
					c19.3,0.2,38.4,0.5,57.7,0.7c3,0,2.5,0,2.5,4.2c0,1.7,0,3.3-0.1,5c-0.1,3.8,0.2,3.8-2.2,3.8c-0.5,0-1.1-0.1-1.6,0
					c-0.7,0.2-0.7,0.8-0.2,1.4c0.2-0.4,0.7-0.5,1.1-0.5c0.7,0,1.4,0,2.1,0c2.8-0.1,3.1-0.4,3.1-3.7c0.1-9.1,0.2-18.3,0.2-27.4
					c0-3-0.2-3.2-2.5-3.4c-0.7-0.1-1.6,0-2.4-0.1c-1-0.1-1.2-0.5-0.7-1.6c0.2-0.5,0.4-0.9,0.4-1.3c-0.4,0.2-0.7,0.5-1,0.9
					c-0.3,0.9-1,1.8-0.7,2.9c0.3,1,1.3,0.7,2.1,0.8c2.4,0.1,2.4,0.1,2.4,2.9c0,3.6-0.1,8.4-0.1,11.9c0,1.9-0.1,1.9-1.7,2
					c-1.6,0-3.1,0-4.7-0.4l-52.3-0.6c-0.4,0.3-0.9,0.3-1.2,0.3c-2.1,0-2.1,0-2.1-2.5l0.2-35c0-1.5,1.1-2.7,2.4-2.7l53.9,0.7
					c1.4,0,2.9,0,4.4,0.1c1.2,0,1.4,0.7,1.2,2.4c0,2.9,0,5.8,0,8.9c0.1,1.3-0.3,1.8-1.3,1.8c-0.7,0-1.3,0-1.9,0
					c-1.4,0-1.7,0.5-1.3,2c0.1,0.4,0.3,0.7,0.7,1c-0.1-1,0.3-1.5,1.3-1.5c1.2,0,2.2,0,3.4-0.3c1-0.3,1.4-0.8,1.4-2
					c0-3,0.7-9.5,0.7-9.5v-1.7c-0.7-0.9-0.2-1.3,0.5-1.9h1.8c0.7,0.6,1.4,0.6,1.7-0.4c0.2-0.8,0.9-1,1.5-1c1.5,0,3,0,4.5,0.1
					c0.5,0,1.1,0,1,0.8c-0.1,1.2,1.1,1.5,1.1,1.5s1.1,0,1.9,0c0.9,0,1.3,0.4,1.3,1.5c0,0.7,0,1.5,0.2,2.3L148.8,541
					c-0.2,3.7-0.2,3.7,2.8,3.7c1.9,0,3.8,0,5.5,0.1c1.6,0,1.7,0.1,1.7,2.1c0,0.3,0,0.7,0,1l-0.4,55.9c0,1.7-1.2,3.1-2.7,3l-4.9-0.1
					c-2.4,0-2.4,0-2.4,2.9c0,0.5,0,1,0,1.5c-0.3,40.6-0.7,81-1,121.5c0,3.4,0.2,3.3-2.7,3.3C142,734.9,137.9,734.8,133.8,734.8z
					 M131.5,734.7c0,0.5,0.1,1.2-0.5,1.3c-0.6,0.1-0.5-0.7-1.1-1.1v-1.1l0.7-8.7v-0.9c-0.1-0.5-0.4-1.4,0.3-1.5
					c0.7-0.1,0.5,0.8,0.6,1.4c0.1,1.2-0.2,2.5,0.6,3.4c-0.4,1.1-0.2,0.5-0.6,1.7l0,0C131.5,731.2,131.5,733,131.5,734.7z
					 M131.2,696.3c0.4,0,0.5,0.4,1,0.9v10.4c-0.5,0.5-0.7,0.9-1.1,0.9s-0.5-0.4-0.5-0.9c0-1.8,0-3.6,0.1-5.5v-4.9
					C130.6,696.7,130.8,696.3,131.2,696.3z M97.9,652.8c0,0.1,0,0.3,0.1,0.4c-0.1,0-0.2,0-0.3-0.1c0,0-0.1-0.1,0-0.2
					C97.5,652.8,97.8,652.7,97.9,652.8z M131.6,653.2c0.4,0,0.5,0.4,0.5,0.9c0,3.4-0.1,6.9-0.1,10.4c0,0.5-0.2,0.9-0.6,0.9
					s-0.5-0.4-0.5-0.9c0-1.7,0-3.4,0.1-5.1c0-1.7,0-3.4,0.1-5.1C131.2,653.6,131.3,653.2,131.6,653.2z M132.9,482.3l-0.2-0.1
					l0.2-0.1V482.3z M133.6,439.2V439l0.2,0.1L133.6,439.2z M136.9,737.6c1.7,0,3.5,0,5.2,0.1c1.4,0.1,1.5,0.4,1.2,1.8
					c-0.2,0.9-0.2,1.8-0.2,2.7c-0.1,1.8-0.1,1.8-1.7,1.5c0.3,1.2,1.4,1,2.1,1.2c0.5,0.1,0.7-0.5,0.7-1c0.1-0.8,0.1-1.7,0.1-2.5
					c-0.1-1.4,0.6-1.9,2.1-1.5c3,0.7,6.1,0.7,8.9,0.1c1.7-0.3,2.6,1.5,2.6,1.5v1.5v36.2c0,0,0,0.8,0,1.4c0,0.7-0.5,1.4-1.2,1.4
					c-0.5,0-1,0-1.4,0c-32.9-0.4-65.8-0.8-98.6-1.2c-1.4,0-2.7-1.4-2.6-3.2c0.1-12,0.1-24,0.3-36c0-0.6,0-1.1,0-1.7
					c0-0.9,0.4-1.3,1.2-1.3c0.4,0,1.3,0,1.3,0s50.4,0.7,75.7,1h1.2c0.7,0,1.1,0.5,1.2,1.4v2.7c-0.1,1.1,0.3,1.2,1.1,1
					c1-0.3,2.1-0.8,2.6-2c0.6-1.1,1-0.5,1.7-0.1c-0.1-0.4-0.2-0.8-0.2-1.2c-0.2-0.6-0.4-1.2-0.7-1.8c-0.5,0.4-0.2,1.2-0.6,1.7
					c-0.2,0.5-0.5,1-0.9,1.4c-0.4,0.6-1.1,1.3-1.7,1c-0.7-0.3-0.3-1.3-0.3-2c-0.1-0.8,0-1.7-0.2-2.5
					C135.7,737.7,135.7,737.7,136.9,737.6z M228.5,370.5c1.7,0,1.7,0.1,1.8,2.2c-0.1,9.1-0.6,27.2-0.6,27.2v13.3c0,0,0.2,2-1.4,2.4
					h-1.7c-23.4-0.6-69.7-1-69.7-1s-0.9,0-1.3,0c-2.5,0-2.5,0-2.5,3c-0.3,40.7-0.7,81.4-1,122c0,3.1,0,3.1,2.4,3.1
					c2.1,0,6.5,0,6.5,0s1.4,0.5,1.4,2.1v1.5c-0.1,20-0.2,40.2-0.7,60.2v1c0.2,2.2-1.6,2.3-1.6,2.3h-7.1c0,0-1.4-0.1-1.4,1.5
					c-0.1,0.7,0,1.3,0,2c-0.2,20.4-0.3,40.9-0.5,61.2c-0.2,20.3-0.3,40.7-0.5,61c0,0.9-0.2,2.1,0,2.7c0.5,0.9,1.8,0.2,2.6,0.4
					c1.4,0.4,2.7,0.4,4.1,0.1c1.5-0.4,2.1,0.1,2.2,1.6v1.5c-0.1,13.3,0,39.9,0,39.9s0,0.8,0,1.4c0,0.9-0.4,1.3-1.2,1.3
					c-0.5,0-1,0-1.4,0c-33.8-0.4-67.8-0.8-101.5-1.2c-2.7,0-2.6,0-2.6-3.2c0.1-13.2,0.2-26.5,0.3-39.7c0-0.6,0-1.2,0-1.7
					c0-1,0.3-1.6,1.3-1.5c0.5,0,1.3,0,1.8,0c25.5,0.3,50.8,0.6,76.3,0.9c0.7,0,2.1-0.6,2.1,0.6c0.1,0.7-1.4,0.4-2.1,0.4
					c-25-0.3-50.2-0.6-75.3-0.9c-3,0-3,0-3,3.5c-0.1,12.4-0.2,24.6-0.3,37c0,0.5,0,1,0,1.5c0,1.7,0.2,2.1,1.6,2.2c0.4,0,0.9,0,1.2,0
					c33,0.4,65.9,0.8,98.9,1.2c2.9,0,2.9,0,2.9-3.3c0.1-12.6,0.2-25.2,0.3-37.8c0-0.2,0-0.1,0-0.1s-0.4-2.5-2.5-3.3l-9.2,1
					c0,0-0.7,0-1.2,0c-0.3,0-0.9,0.1-0.7-0.5c0.1-0.5,0.6-0.4,0.9-0.5c1-0.1,2.3,0.6,3-0.4c0.4-0.7,0.1-2.3,0.1-3.3
					c0.3-40.9,0.7-81.6,1-122.6c0-3.7-0.2-3.4,3-3.3c1.8,0,3.8,0.1,5.6,0.1c1.5,0,1.8-0.3,1.8-2.2c0.1-1.3,0-2.5,0-3.6
					c0.2-18.2,0.3-36.3,0.4-54.6c0-0.6,0-1.2,0-1.7c0-2.2,0-2.2-1.8-2.3c-2.3,0-7.2,0-7.2,0s-1.6-0.7-1.3-2.6v-2
					c0-40.3,0.4-80.6,0.7-120.7v-1.5c-0.1-2.4,0.4-3.2-2.4-3c-0.2,0-0.4,0-0.6-0.1c-0.4-0.1-0.7-0.3-0.7-0.7
					c0.1-0.5,0.7-0.5,0.7-0.5h1.8c0,0,50.6,0.4,75.8,0.7c3,0,2.9,0.3,2.9-3.3c0.1-11.6,0.2-23.1,0-34.8V375c0.3-2.1,0.2-2.1-1.6-1.7
					h-6.9c-0.6-0.6-1.5-0.3-1.6-1.2c-0.1-1.3,1-0.8,1.6-0.8C223.4,370.3,225.8,370.4,228.5,370.5z M218.1,329.9
					c0.1,0.6,0.1,1.1,0.1,1.7c-0.1,12.5-0.2,25.1-0.3,37.5v0.7c-0.1,1.7-0.1,1.7-1.6,1.8c-0.5,0-1.4-1.4-1.4-1.4H185h-29.9
					c-0.5,0.7-1,0.6-1.4,0.7c-0.9,0.1-1.4-0.4-1.3-1.4c0-4.3,0.4-13.3,0.4-13.3v-0.3c0,0-0.2-0.7,0.2-0.7c0.1,0,0.2,0.3,0.2,0.5
					c0.1,0.6,0.1,1.1,0.3,1.7v9.6c-0.4,2.3-0.4,2.3,1.6,2.4c8.4,0.1,25.1-0.1,25.1-0.1H214c0,0,1.1,0.8,1.7,0.8
					c0.7,0,1.2-0.5,1.6-1.4v-2c-0.3-11.6-0.1-23.1-0.1-34.8c0-0.7,0.1-1.5,0.2-2.3c0-0.2,0.2-0.5,0.4-0.5
					C217.8,329.4,218.1,329.4,218.1,329.9z M218.5,287.3c0.1,0.6,0.1,1.1,0,1.7c-0.1,12.4-0.2,24.9-0.3,37.3c0,2.7,0,2.7-2.1,2.6
					c-6.6-0.1-13.2-0.2-20,0h-10.8c-10-0.4-20-0.5-30.1-1h-1.4c-0.7,0.3-1.2-0.1-1-1.1v-13.5c-0.1-0.3-0.1-0.8,0.2-0.8
					c0.5,0,0.4,0.5,0.5,0.9v9.6c-0.1,4.3-0.4,3.5,3.8,3.7c18.3,0.2,36.5,0.5,54.8,0.7c4.7-0.2,4.5,0.9,4.7-3.3
					c0.1-11.6,0.2-23.1,0.2-34.8c0-0.7,0-1.5,0.1-2.3c0-0.4,0.2-0.6,0.6-0.6C218.3,286.7,218.5,287,218.5,287.3z M217.3,290
					c-0.1,11.2-0.2,22.5-0.2,33.7c0,0.4,0,0.7,0,1.1c-0.1,2.1-0.1,2.1-1.7,2.2c-0.3,0-0.7,0-1,0c-19.1-0.2-38.3-0.5-57.5-0.7
					c-2.9,0-2.7,0.2-2.7-3.3c0-2.9,0.1-5.6,0.1-8.5c0-2.4,0-2.4,1.9-2.4c0.3,0,0.7,0,1,0c1.6,0,1.9-0.7,1.4-2.5
					c-0.2-0.6-0.4-1.3-1-1.5c0.7,3,0.7,3-1.8,3c-0.4,0-0.9,0-1.2,0c-2.1,0.2-2.4,0.5-2.4,3c-0.1,9.3-0.2,18.4-0.2,27.6
					c0,2.5,0.3,2.9,2.4,3c0.3,0,0.7,0,1,0c2.8,0,2.8,0,1.9,3.1c0.7-0.3,1-1.2,1.2-2c0.3-1.4,0-1.9-1.3-2.1c-1-0.1-2.1,0.4-2.8-0.4
					c-0.7-0.9-0.3-2.4-0.3-3.6c0-3,0-6,0.1-9c0-1.6,0.1-1.7,1.5-1.7c0.4,0,0.4,0,0.7,0c19.1,0.2,38.4,0.5,57.5,0.7
					c2.9,0,2.7-0.2,2.7,3.3c-0.1,11.4-0.2,22.8-0.2,34.2c0,0.5,0,1,0,1.5c-0.1,1.5-0.1,1.6-1.5,1.7c-0.4,0-0.9,0-1.2,0
					c-19.1-0.2-38.4-0.5-57.5-0.7c-2.7,0-2.7,0.2-2.7-3.1c0-3.2,0-9.8,0-9.8s0.7-1.8,2.1-2.2h1.7c1.2,0.2,1.6-0.3,1.3-1.8
					c-0.2-1.1-0.9-1.9-1.4-2.7c-0.9-1-0.9-1,0-2.3c-0.4,0.1-0.7,0.3-1.2,0.5c-0.6,0.3-1.2,0.5-1.7,0.7c0.4,0.6,1.1,0.6,1.6,0.9
					c1,0.6,1.8,1.6,2.3,2.8c0.2,0.6,0,1-0.5,1.1c-0.7,0.1-1.4,0-2.1,0c-0.6,0-1.3,0-1.8,0.1c-1.4,0.3-1.5,0.6-1.7,2.4v9.7
					c0.1,3.5-2.7,3.4-2.7,3.4s-7.8-0.1-11.8-0.1c-1.7,0-1.7-0.1-1.8-2.1c0-0.7,0-1.3,0-2c0.3-40.1,0.7-80.1,1-120
					c0-3.5,0.2-3.4-2.7-3.4c-1.9,0-3.8,0-5.8-0.1c-1,0-1.4-0.4-1.3-1.6c0-0.5,0-1.6,0-2.1c0.1-18.9,0.3-37.7,0.5-56.5
					c0-3.3-0.1-3.2,2.6-3.1c2,0,3.9,0,5.9,0.1c0.9,0,1.4-0.4,1.3-1.6c0-0.7,0-1.9,0-2.7c0.3-41.6,0.7-83.1,1-124.7
					c0-3.6-0.2-3.3,2.7-3.3c3.8,0,7.6,0.1,11.4,0.1c2.1,0,2.1,0,2.1,2.6c-0.1,12.6-0.1,25.1-0.3,37.7c-0.2,29-0.5,57.6-0.7,86.6
					c0,0.4,0,0.9,0,1.3c-0.1,1.1,0.3,1.7,1.3,1.7c0.2,0,0.8,0,0.8,0s1.4,0.1,0.8,1.7v1.3c0.5,7.2,0.5,14.4,0.4,21.7
					c0.3,2.7,0.4,8,0.4,8v5.3c0,0-0.3,1.3,0,2v20.4c-0.1,0-0.7,0.7-0.7,1c-0.1,2-0.1,2-1.8,2.1c-1.5,0.1-1.5,0.2-1.5,1.9
					c-0.1,4.5-0.1,9.3-0.1,13.8c0,1.2,0.2,1.7,1.3,2.1c1.2,0.3,2.3,0.3,3.5,0.4c0.6,0,1.3-0.1,1.4,1c0.5-1.7,0.4-1.9-0.7-2
					c-0.6-0.1-1.2,0-1.8,0c-1.5-0.1-1.8-1.8-1.8-1.8s0.1-7.4,0.1-11.1c0-1.1,0.3-1.7,1.3-1.7c0.4,0,0.9,0,1.2,0
					c19,0.2,38.1,0.5,57.1,0.7c2.9,0,2.6-0.2,2.6,3.3c-0.1,11.4-0.2,22.7-0.2,34.1c0,0.3,0,0.7,0,0.9c0,2.4,0,2.4-1.9,2.4
					c-0.2,0-0.6,0-0.9,0c-18.9-0.2-37.8-0.5-56.7-0.7c-2.8,0-2.6,0.2-2.6-3.2c0-2.8,0.1-5.8,0.1-8.6c0-2.4,0-2.4,1.9-2.4
					c0.3,0,0.8,0,1.1,0c1.6,0,1.9-0.7,1.4-2.5c-0.2-0.6-0.4-1.3-1-1.5c0.7,2.9,0.7,2.9-1.8,3c-0.4,0-0.9,0-1.2,0
					c-2.1,0.2-2.3,0.5-2.4,3c-0.1,9.2-0.2,18.3-0.2,27.5c0,2.3,0,2.3,1.8,2.8c1.1,0.3,2.2,0.1,3.3,0.2c1,0.1,1.2,0.5,0.7,1.4
					c-0.5,0.9-1.1,1.7-1.7,2.5c1.4-0.3,2.1-1.6,2.4-3c0.3-1.3,0-1.9-1.2-2c-0.6-0.1-1.2,0-1.8,0c-1.3-0.1-1.4-0.2-1.4-1.8
					c0-3.6,0.1-7.3,0.1-10.9c0-1.1,0.3-1.7,1.4-1.7c0.6,0.1,1.1,0,1.7,0c19,0.2,38.1,0.5,57,0.7C217.6,286.6,217.4,286.4,217.3,290z
					 M153.4,328.8c0.3,0.1,0.3,0.5,0.3,0.8c0,2,0,3.9-0.1,5.9c0,1.9,0,3.7-0.1,5.7c0,0.3,0,0.7-0.3,0.8c-0.4,0.1-0.4-0.3-0.4-0.7
					c0-3.9,0.1-8.1,0.1-12C153,329.2,153,328.7,153.4,328.8z M217.5,47.4c1-0.1,1.4,0.4,1.4,1.6c-0.1,12.4-0.2,24.9-0.3,37.3
					c0,1.2-1.4,2.2-1.4,2.2s0.8,0,0.5,0c-19.7-0.2-39.5-0.5-59.3-0.7c-2.9,0-2.7,0.1-2.7-3.3c0-3,0.1-6.1,0.1-9.2
					c0-2.6,0-2.6,2.1-2.6c0.5,0,1,0,1.5,0c1.2-0.1,1.3-0.3,0.7-2.1c-0.1,0.9-0.7,0.9-1.3,1c-1.3,0.1-2.5-0.2-3.7,0.3
					c-0.7,0.3-0.9-0.3-0.9-0.9c0-2.8,0-8.2,0-8.2s0.4-1.1,1.1-0.9c1.4,0.4,2.7,0.2,4.1,0.3c0.7,0.1,1,0.5,0.6,1.3
					c-0.7,1.5-1.8,2.8-3.3,3.1c-0.2,0.1-0.4,0.2-0.6,0.3c0.2,0.1,0.3,0.3,0.5,0.4c0.5,0.3,1,0.5,1.6,0.4c-0.3-0.7,0.1-1,0.5-1.4
					c1-0.9,1.7-1.8,1.9-3.1s0-1.9-1.2-2c-0.7-0.1-1.5,0-2.3-0.1c-0.7,0-1-0.5-1.4-1.3V48c0.5-0.9,1-1.2,1.6-0.8h1.2
					c19.3-0.2,38.5,0.1,57.8,0.3C216.8,47.4,217.1,47.4,217.5,47.4z M154.9,89.8c0.4,0,0.5,0.4,0.5,0.9c0,3.3-0.1,6.8,0,10.2
					c0,0.6,0,1.1-0.1,1.7c0,0.5-0.2,0.9-0.6,0.9c-0.4,0-0.5-0.4-0.5-0.9c0-2.1,0-4,0.1-6.2c0-1.9,0-3.7,0.1-5.7
					C154.3,90.2,154.4,89.8,154.9,89.8z M158.4,159.4c1-0.1,1.4-0.6,1.2-1.7c-0.2-0.9-0.3-1.8-1.2-2.2c0.6,2.5,0.6,2.5-1.7,2.5
					c-0.7,0-1.5,0-2.2,0.2c-0.7,0.3-1.1-0.2-1-1.1c0-2.5,0-5,0.1-7.5c0-0.9,0.4-1.2,1.1-1c1,0.5,2.1,0.2,3.3,0.3
					c1.2,0.1,1.2,0.1,0.9,1.5c-0.1,0.3-0.1,0.7-0.2,0.9c0.7-0.3,1-1.2,1.2-1.9c0.3-1.4,0-1.9-1.3-2.1c-1-0.1-2.1,0.4-2.8-0.4
					c-0.9-0.9-0.2-2.5-0.3-3.6c-0.1-1.2-0.2-2.4-0.1-3.5c0.3-6.4-0.6-6.4,2.4-6.4c5.5,0.1,10.9,0.1,16.4,0.2c1.4,0,2.9,0,4.4,0.1
					c0.4,0,0.9,0.1,1.2,0.4c0.2,0,0.3-0.1,0.5-0.1c0.1,0,0.1,0,0.1,0s0.4-0.2,0.5-0.2v-0.1c0.1-0.1,0.2-0.1,0.3-0.1
					c0.2,0,0.2,0,0.2,0.1c0.7-0.1,1.3-0.1,1.9,0c0.4,0,0.9,0.1,1.2,0.3c0.2-0.4,0.6-0.5,1,0h1.2c9.7-0.4,28.7,0,28.7,0s0.1,0,0.4,0
					c2.4,0,2.4,0,2.4,2.8c-0.1,5.9-0.1,11.7-0.2,17.6c-0.1,5.8-0.1,11.4-0.2,17.1c0,2.7,0,2.7-2.1,2.6c-19.6-0.2-39-0.5-58.7-0.7
					c-0.3,0-0.7,0-1,0c-1.2,0-1.2-1.4-0.5-3.3c0.9-2.5,0.7-5.4-0.1-7.9c-0.6-2-0.2-2.8,0.7-2.8C157,159.4,157.8,159.5,158.4,159.4z
					 M154.3,159.3l-0.2-0.1l0.2-0.1V159.3z M154.9,133.9c0,2,0,3.9-0.1,5.9c0,1.9,0,3.7-0.1,5.7c0,0.5-0.1,1.1-0.7,0.9
					c-0.4-0.1-0.5-0.5-0.5-0.9c0-3.8,0.1-7.9,0.1-11.7c0-0.5,0.1-1.1,0.7-0.9C154.7,133.1,154.9,133.6,154.9,133.9z M194.6,207.4
					c11.1,0.1,22.3,0.3,33.3,0.4c0.7,0,1.4,0.1,2.1,0.2c0.1,0,0.3,0.4,0.2,0.6c0,0.2-0.2,0.5-0.3,0.5c-0.4,0.1-1,0.1-1.4,0.1
					c-22.8-0.3-45.5-0.6-68.4-1.5h-0.6c-0.4,0.6-1.1,0.8-1.1,0c0-0.7,0.6-0.7,1-1h0.4C171.4,207.1,183,207.2,194.6,207.4z
					 M158,207.7c0,1,0,2,0,2.9c0,0.2-0.2,0.5-0.3,0.5c-0.2,0.1-0.4-0.2-0.4-0.4c0-2.1,0-4.2,0.1-6.4c0-0.2,0.1-0.5,0.4-0.4
					c0.2,0.1,0.3,0.3,0.3,0.5C158,205.6,158,206.6,158,207.7z M227.4,240c-22.3-0.3-44.5-0.5-66.9-0.8c-0.4,0-0.9,0-1.2,0
					c-1,0.1-1.4-0.6-1.4-1.7c0-3.5,0.1-6.8,0.1-10.4c0-1.8,0-3.6,0.1-5.5s0.1-2,1.6-2.1c0.7,0,1.5,0,2.3,0c1.6,0,1.7-0.4,1.1-2.5
					c0,0.8-0.2,1.5-1.1,1.5c-0.1,0,0.3,0,0.1,0c-3.6,0.2-4.4-0.7-3.6-5.2c0.1-0.9,0.5-1.2,1.3-0.8c0.7,0.3,1.2,0.7,1.8,0.8
					c-0.3-1.1-1.3-1.4-2.1-1.7c-1-0.3-0.9-1.2-0.9-2c0.1-0.9,0.7-1.1,1.3-1.1c0.4,0,0.5,0,0.8,0c22.3,0.3,44.5,0.5,66.9,0.8
					c2.6,0,2.6,0,2.6,3c-0.1,8.3-0.2,16.4-0.2,24.5c0,0.5,0,1,0,1.5c0.1,1-0.3,1.6-1.3,1.5C228.2,240,227.8,240,227.4,240z
					 M156.9,221.5c0-0.4-0.1-0.9,0.3-1c0.5-0.1,0.4,0.5,0.4,0.9c-0.1,5.7-0.1,11.3-0.2,17c0,0.3-0.1,0.5-0.1,0.7
					c-0.1,0.1-0.2,0.2-0.3,0.2c-0.1,0-0.2-0.2-0.2-0.3c-0.1-0.6-0.1-1.1-0.1-1.7c0-2.5,0-4.9,0.1-7.5l0,0
					C156.9,226.9,156.9,224.2,156.9,221.5z M157.1,218.8c-0.6,0-0.5-0.6-0.6-1.1v-3.6c0.1-0.7,0.1-1.4,1-1.3
					c0.7,0.1,0.7,0.8,0.5,1.5v1.3h0.3c-0.1,0.9,0,1.7-0.2,2.4C158.1,218.5,157.5,218.8,157.1,218.8z M160.3,206.7
					c-1.4-0.5-2.1-2.1-1.4-3.3c0.2-0.5,0.7-0.5,1-0.6h2.7c1.6,0.1,1.7-0.3,1.1-2.4c0,0.9-0.2,1.3-1.1,1.5c-3.6,0.5-4.2-0.2-4-4.4
					c0.1-1.1,0.3-1.5,1.3-1.1c0.2,0.1,0.6,0.1,0.9,0.1c-2.1-1.8-2.1-5.7-2.1-5.7v-11.9c0,0,0.1-2.5,1.9-2.5c5.7,0.1,11.3,0.1,17,0.2
					c16.8,0.2,33.6,0.4,50.3,0.6c2.6,0,2.6,0,2.6,3.2c-0.1,8.1-0.2,15.9-0.1,23.8v1.7c-0.1,0.9-0.5,1.3-1.3-0.1h-1.4
					c-22.2,1.1-66.5,1-66.5,1L160.3,206.7L160.3,206.7z M156.7,197.3c0-0.5,0.2-0.9,0.7-0.8c0.4,0.1,0.9,0.1,0.9,0.8
					c0,1.4,0,2.8-0.1,4.1c0,0.7-0.5,1.1-1,1.1c-0.7,0.1-0.5-0.7-0.6-1.3s0-1.1,0-1.7l0,0C156.7,198.8,156.7,198.1,156.7,197.3z
					 M158.1,177.6c-0.1,5.3-0.1,10.6-0.2,16.1c0,0.3-0.1,0.7-0.1,1c0,0.1-0.2,0.2-0.3,0.2c-0.1,0-0.2-0.1-0.2-0.3
					c-0.1-0.6-0.1-1.1-0.1-1.7c0-2.4,0-4.7,0.1-7.2l0,0c0-2.7,0.1-5.3,0.1-8.1c0-0.4-0.1-1,0.3-1.1
					C158.2,176.4,158.1,177.2,158.1,177.6z M153.3,285.7c0.5,0,0.4,0.5,0.4,0.9c0,1.8,0,3.6-0.1,5.5c0,1.8,0,3.6-0.1,5.5
					c0,0.4,0.1,0.9-0.4,0.9c-0.2,0-0.3-0.5-0.3-0.8c0-3.6,0.1-7.5,0.1-11.2C153,286.1,153,285.7,153.3,285.7z M218.2,243.5
					c-0.1,12.9-0.4,38.7-0.4,38.7s0,0.7,0,1.1c0,0.6-0.5,1.2-1,1.2c-0.5,0-1.3,0-1.3,0s-39.5-0.4-59.3-1H155
					c-0.9,0.5-1.2-0.1-1.5-1.2v-12.5c0.4-0.3,0.4-0.5,0.4-0.7c0.1-0.1,0.2-0.3,0.2-0.3c0.2-0.1,0.3,0.2,0.3,0.4
					c0.1,0.6-0.2,1.9-0.2,1.9s-0.1,6.5-0.1,9.6c0,1.8,0.1,1.9,1.6,2c0.7,0,1.5,0,2.3,0c18.5,0.2,37,0.5,55.3,0.7
					c2.8,0,2.6,0.2,2.6-3.1c0.1-11.3,0.2-22.8,0.2-34.2c0-0.3,0-0.5,0-0.7c0-2.5,0-2.5-2.1-2.5c-19.2-0.2-38.6-0.5-57.9-0.7
					c-0.1,0-0.2,0-0.2,0c-1.8,0-1.8,0-1.8,2.2c0,2.8,0,8.2,0,8.2s0.2,1,0.1,1.5s0.2,1.4-0.4,1.4c-0.5-0.1-0.3-1-0.3-1.5
					c-0.1-0.9,0-1.8,0-2.7c0-1.9,0-3.9,0.1-5.9c0.1-4.5-0.3-4.5,2.4-4.5c8.3,0.1,16.5,0.2,24.7,0.3c1.7,0,3.3,0,5.1,0.2l28.6,1h1.3
					C218.2,241,218.2,241,218.2,243.5z M231.2,175.2c1.4,0.2,1.5,0.3,1.4,2.2c-0.1,5.8-0.7,17.5-0.7,17.5l0.7,13.8v29.4v1.5
					c-0.5,2.5-2.4,2.7-2.4,2.7h-7.7c0,0-0.7-0.3-1.1-0.4c-0.2,0-0.4-0.1-0.2-0.5c0.1-0.1,0.2-0.3,0.2-0.3c0.4-0.1,0.9-0.1,1.4-0.1
					c2.1,0,4.1,0,6.1,0.1c2.3,0,2.3,0,2.4-2.9c0.1-9.1,0.2-17.8,0.2-26.9c0.1-10.3,0.2-20.5,0.4-30.8v-1.7c-0.2-2.1-0.4-2.3-1.8-2.4
					c-2.3-0.1-4.5-0.1-6.8-0.1c-0.5,0-1.4,0.2-1.4-0.4c0-1,1-0.5,1.4-0.7L231.2,175.2L231.2,175.2z M219.7,134.4
					c0.1,0.6,0.1,1.1,0,1.7c-0.1,12.4-0.2,24.9-0.4,37.3v0.7c0,1.9,0,1.9-1.6,1.9c-4.2-0.1-12.7-0.5-12.7-0.5l-18.7,0.6l0,0h-30.1
					c0,0.4-0.9-0.9-1.2-0.9c-1.4-0.1-1.4-0.2-1.6-1.8v-12c0.1-0.3,0.1-0.5,0.2-0.7c0.1-0.5,0.2-0.8,0.7-0.7c0.3,0.1,0.4,0.3,0.5,0.7
					c0.1,0.8,0.1,2.5,0.1,2.5v9.1c0,0,0.1,2,1.6,2.2c0.5,0.1,1.4,0.3,1.4-0.3h57.4c0,0.6,0.6,1.1,0.9,1.1c2.1,0,2.1,0,2.1-2.5
					c0.1-12,0.2-24.1,0.3-36c0-0.7,0-1.5,0.1-2.3c0-0.4,0.2-0.6,0.6-0.6C219.5,133.7,219.8,134,219.7,134.4z M220.1,92.3
					c0.1,0.3,0,0.7-0.1,1v36.4c-0.2,0.5-0.2,1-0.2,1.5c0.1,1.1-0.3,1.7-1.4,1.7c-0.4,0-1.2-0.1-1.2-0.1h-30.7c0,0-20.2-0.6-30.4-0.7
					c-2.3,0-2.3,0-2.6-2.7v-11c0.4-0.6,0.1-1.6,1-1.6c0.7,0,0.6,0.9,0.5,1.6v10c0.1,2.5,0.2,2.7,2.2,2.8c9.8,0.1,29.4,0.6,29.4,0.6
					h28.6c0,0,1,0.1,1.4,0.1c1.5,0,1.7-0.3,1.8-2c0-0.6,0-1.1,0-1.7V94v-1.7c0.3-0.6,0.1-1.6,0.9-1.5
					C220.4,90.8,220.1,91.7,220.1,92.3z M158.4,89.3c19.9,0.2,39.6,0.5,59.5,0.7c2.7,0,2.7,0,2.7,3c-0.1,11.6-0.2,23.1-0.2,34.8
					c0,2.8,0,2.8-2.2,2.8c-20-0.2-39.9-0.5-59.9-0.7c-0.4,0-0.9,0-1.3,0c-0.9,0-1.3-0.6-1.1-1.8c0.3-3.4,0.6-7,0.1-10.3
					c-0.2-1.8,0.3-2.4,1.4-2.3c0.7,0.1,1.4,0.1,2.1,0c1.2-0.1,1.3-0.3,0.7-2c-0.1,0.9-0.7,0.9-1.3,1c-1.3,0.1-2.5-0.2-3.7,0.3
					c-0.7,0.3-0.9-0.3-0.9-0.9c0-2.5,0.1-5,0.1-7.7c0-0.9,0.4-1.3,1.2-0.9c1,0.5,2.2,0.2,3.4,0.3c1.3,0.1,1.3,0.1,0.9,1.5
					c-0.1,0.3-0.1,0.7-0.2,0.9c0.7-0.3,1-1,1.2-1.7c0.4-1.5,0.1-2.1-1.3-2.3c-1-0.1-2.2,0.4-2.9-0.4c-0.7-0.9-0.3-2.4-0.3-3.5
					c0-2.9,0-5.8,0.1-8.9c0-1.6,0.1-1.7,1.5-1.8C157.6,89.3,158,89.3,158.4,89.3z M220,51.9c-3.6,10-3.1,21.3-0.2,31.6
					c0.5,1.6,0.3,3.2,0.2,4.8c0,0.9-1.2,1.2-1.2,1.2h-1.4c0,0-40.4-0.4-60.7-0.6c-2.6,0-2.6,0.2-2.4-3.2V75.2
					c-0.1-0.6-0.3-1.6,0.5-1.6s0.6,0.9,1,1.5V85c-0.4,2.5-0.4,2.5,1.7,2.5c14,0.2,27.9,0.3,41.9,0.5c5.7,0.1,17-0.4,17-0.4
					s1.1,0,1.7,0c0.4-0.1,0.7-0.5,0.9-0.9c0.1-0.6,0.1-1.1,0.1-1.7c0.1-11.9,0.2-24,0.3-35.9c0-0.4,0-0.9,0-1.3c0-1-0.3-1.6-1.2-1.6
					c-0.4,0-0.9,0-1.2,0c-19.5-0.2-39.1-0.5-58.6-0.7c-2.6,0-2.6,0-2.6,2.9c0,3.3,0,10.2,0,10.2s0.2,1.6-0.6,1.6s-0.6-0.9-0.9-1.6
					V46.3c0.4-1.9,0.4-1.9,2-1.9c4.7,0.1,9.5,0.1,14.3,0.2c5.7,0.1,11.3,0.1,17,0.2c10,0.1,20,0.2,30.1,0.4h1.7
					c0.7,0,1.2,0.4,1.2,1.4C220.6,48.5,220.7,50.2,220,51.9z M144.1,39.9c-1.5-0.9-2.4,1.6-2.4,1.6s0,0.7,0,1
					c0.1,1.1-0.4,1.4-1.2,1.4c-2,0-4-0.1-6.1-0.1c-1.6,0-3,0-4.5-0.1c-1.4-0.1-1.4-0.2-1.6-1.9c0-0.3,0-1.1,0-1.1s-0.3-23,0-34.5V5
					c-0.1-1.5-0.1-1.6,1.3-1.2h1.2c32.6-0.1,97.8,1,97.8,1s0.4,0,0.7,0c2.1,0,2.1,0,2.1,2.5c-0.1,11.7-0.2,23.6-0.2,35.4
					c0,0.4,0,0.8,0,1.3c0,0.8-0.3,1.3-1,1.3c-0.6,0-1.7,0-1.7,0s-50.4-0.8-75.7-1h-0.6c-1.8-0.2-1.8-0.2-2.3-2.3v-1
					c0.3-1.3,0.1-1.4-1.3-0.8c0.3,0.1,0.7,0.3,0.7,0.7c0.1,1.5,0.2,3,0.2,4.4c0.1,0.7-0.3,0.8-0.7,0.8c-1.7,0-3.3,0-5-0.1
					c-0.7,0-1.2-0.3-1-1.2c0.3-1.2,0.2-2.5,0.3-3.6c0.1-0.7,0.3-0.9,0.9-0.5c0.5,0.5,1.1,0.9,1.6,1.5
					C145.6,40.9,144.9,40.3,144.1,39.9z M151.2,46.2c-0.3-0.3-0.7-0.5-0.7-0.9c0.1-0.5,0.4-0.7,0.7-0.1h1.8c0.4-0.6,0.9-0.5,0.9,0.1
					c-0.1,0.7-0.6,0.7-1,0.9h-0.9l0,0H151.2z M232.9,5.6c-0.1,12.5-0.2,25.1-0.3,37.5c0,0.5,0,1.9,0,1.9s-0.4,1.9-1.8,2.2h-8.3
					c-0.2-0.4-0.6-0.4-0.9-0.5s-0.5-0.3-0.4-0.7c0.1-0.2,0.2-0.5,0.4-0.5c0.5-0.1,1-0.1,1.4-0.3h6.6c1.7,0.3,1.8,0.2,1.8-1.8
					c0.1-8.1,0.4-23.8,0.4-23.8s0.1-9.2,0.1-13.7c0-2-0.1-2.1-1.8-2.2c-0.4,0.1-1.2,0.1-1.2,0.1s-65.2-0.8-98.4-1.2
					c-3.3,0-3.3,0-3.3,3.7c-0.1,11.4-0.2,22.7-0.2,34.1c0,0.4,0,0.9,0,1.3c0,2.2,0.2,2.5,2.1,2.5c3.5,0,10.2,0,10.2,0
					s1.1,0.3,1.7,0.4c0.3,0,0.5,0.3,0.5,0.7c0,0.3-0.2,0.7-0.5,0.7c-0.7,0.1-1.4,0-2.1,0c-1.4,0.1-1.4,0.1-1.5,1.8v2
					c-0.1,20.7-0.3,41.5-0.4,62.1c-0.2,20.5-0.3,41.2-0.3,61.7v1.7c-0.3,1.9-1.9,1.9-1.9,1.9h-6.9c0,0-1.8,1-1.6,2.2v1.5
					c-0.5,19-0.7,38.1-0.7,57.1v1.3c-0.1,2.3,2.1,3,2.1,3h6.8c0,0,1.5-0.1,1.5,1.6v2c-0.4,40.1-1.6,119.6-1.5,119.6v1.3
					c-0.1,2.7-0.3,3,2.2,3c0.5,0,1.5-0.3,1.5,0.6c0.1,1.3-1,0.8-1.5,0.8c-12.3-0.2-24.5-0.3-36.8-0.5c-8.3-0.1-25-0.2-25-0.2
					s-1.5,0-2,0c-0.7,0.1-1.3,0.6-1.3,1.6c0,0.7,0,1.3,0,2c-0.1,11.6-0.2,23.2-0.2,34.8c0,0.8,0.2,2.2-0.3,2.2
					c-0.7,0-0.4-1.3-0.4-2.1c0.1-12.4,0.2-24.9,0.3-37.4c0-2.7,0-2.7,2.3-2.6c19.1,0.2,38.1,0.5,57.1,0.7c3.9,0.1,2.4,0.5,3-8.1
					c0.3-36.3,0.6-72.8,1-109.1c-0.7-9.3,1.1-8.7-3-8.8c-1.8,0-3.6,0-5.4-0.1c-1.3-0.1-1.4-0.2-1.4-1.8c0-0.5-0.4-1.5-0.4-1.5v-60.7
					c0,0,1-0.9,1.1-1.3c0.1-1.9,0.1-1.9,1.7-2c2.2,0,5,0.1,7.3,0.1c1.6,0,1.6-0.1,1.7-2c0-0.5,0-1,0-1.5c0.3-41.2,0.7-82.2,1-123.4
					c0-3.7,0.3-3.4-3-3.5c-1.9,0-3.8,0-5.8-0.1c-1.4-0.1-1.5-0.2-1.5-1.8c0-2.7,0.2-8.4,0.2-8.4V4.3c0,0,0.1-1,0.1-1.5
					c0.1-1.9,0.1-1.9,1.7-2c0.4,0,0.9,0,1.2,0c33.5,0.4,66.9,0.8,100.5,1.2C233.2,2.2,232.9,1.8,232.9,5.6z"/>
			</g>
			<line class="st0" x1="268.1" y1="0.2" x2="245.7" y2="0.2"/>
		</g>
		<polygon points="142,44.2 142.1,44.2 142,44 		"/>
		<path d="M128.4,715.6c0-0.3,0-0.7,0-1c0.2,0,0.4-0.1,0.6,0c0.5,0.1,1.4-0.2,1.4,0.7c-0.1,1-0.9,0.2-1.4,0.3
			C128.9,715.7,128.7,715.6,128.4,715.6z"/>
		<path d="M130.6,476.6c0-0.3,0-0.7,0-1c0.2,0,0.4-0.1,0.6,0c0.5,0.1,1.4-0.2,1.4,0.7c-0.1,1-0.9,0.2-1.4,0.3
			C131.1,476.6,130.9,476.6,130.6,476.6z"/>
		<path d="M130.6,434.2c0-0.3,0-0.7,0-1c0.2,0,0.4-0.1,0.6,0c0.5,0.1,1.4-0.2,1.4,0.7c-0.1,1-0.9,0.2-1.4,0.3
			C131,434.2,130.9,434.2,130.6,434.2z"/>
		<path d="M128.3,714.6c-1.2-0.3-1.8-1.1-2.1-2.5C127.1,712.8,127.9,713.6,128.3,714.6z"/>
		<path d="M127.9,672.9c0.2-0.8,1-0.9,1.3-1.5c0.2,0,0.4-0.1,0.6,0c0.2,0,0.5,0,0.6,0.2c0.2,0.3-0.1,0.3-0.2,0.4
			C129.3,672.3,128.7,673,127.9,672.9z"/>
		<path d="M128.3,629.8c0.2-0.8,1-0.9,1.3-1.5c0.2,0,0.6-0.1,0.7,0c0.2,0,0.3,0.2,0.5,0.3c-0.1,0.1-0.2,0.3-0.2,0.3
			C129.8,629.2,129.1,629.9,128.3,629.8z"/>
		<path d="M130.4,520.2c-0.3-0.6-1-0.7-1.2-1.5c0.6,0,1,0.3,1.5,0.7c0.3,0.3,1,0,0.9,0.7C131.5,520.2,130.7,520.1,130.4,520.2z"/>
		<path d="M130.6,433c-1.2-0.3-1.8-1.1-2.1-2.5C129.5,431,130.2,431.9,130.6,433z"/>
		<path d="M127.9,522.6c0.1-1.2,0.7-1.9,1.7-2C129.1,521.5,128.7,522.1,127.9,522.6z"/>
		<path d="M128.7,628c-1-0.1-1.5-0.8-1.6-2C127.7,626.3,128.3,627.1,128.7,628z"/>
		<path d="M128.3,670.9c-1-0.1-1.5-0.8-1.6-2C127.4,669.4,127.9,670.1,128.3,670.9z"/>
		<path d="M125.8,719.1c-0.1-0.9,0.1-1.6,0.9-2C126.6,717.9,126.3,718.7,125.8,719.1z"/>
		<path d="M128.3,517.7c-0.7-0.4-0.9-1.1-0.9-2C128.1,516.1,128.3,516.8,128.3,517.7z"/>
		<path d="M128.7,474.5c-0.7-0.4-0.9-1.1-0.9-2C128.4,472.9,128.7,473.6,128.7,474.5z"/>
		<path d="M126.2,676c-0.1-0.9,0.1-1.6,0.9-2C127,674.9,126.7,675.6,126.2,676z"/>
		<path d="M126.5,632.9c-0.1-0.9,0.1-1.6,0.9-2C127.3,631.6,127.1,632.5,126.5,632.9z"/>
		<path d="M129.4,434.9c0.2-0.7,0.7-1,1.2-1C130.4,434.5,130.1,434.9,129.4,434.9z"/>
		<path d="M130.3,476.1c-0.6,0-1-0.3-1.2-1C129.8,475,130.1,475.4,130.3,476.1z"/>
		<path d="M129.1,478c0.2-0.7,0.7-1,1.2-1C130.1,477.7,129.6,478.1,129.1,478z"/>
		<path d="M127.1,716.7c0.2-0.7,0.7-1,1.2-1C128.1,716.3,127.7,716.7,127.1,716.7z"/>
		<path d="M127.4,630.8c0-0.6,0.2-0.9,0.9-1C128.1,630.4,127.8,630.7,127.4,630.8z"/>
		<path d="M127,674.1c0-0.6,0.2-0.9,0.9-1C127.7,673.5,127.5,673.8,127,674.1z"/>
		<path d="M129.1,671.5c-0.3,0-0.7-0.1-0.9-0.5C128.7,670.9,129,671.1,129.1,671.5z"/>
		<path d="M129.5,628.5c-0.3,0-0.7-0.1-0.9-0.5C129,628,129.3,628.1,129.5,628.5z"/>
		<path d="M129.5,520.6c0.2-0.4,0.5-0.5,0.9-0.5C130.3,520.6,129.8,520.6,129.5,520.6z"/>
		<path d="M126.7,717.1c0.1-0.1,0.2-0.3,0.4-0.5C127,716.8,126.9,717,126.7,717.1z"/>
		<path d="M128.7,518.2c-0.1-0.1-0.2-0.3-0.4-0.5C128.4,517.9,128.6,518,128.7,518.2z"/>
		<path d="M129.1,475c-0.1-0.1-0.2-0.3-0.4-0.5C128.8,474.7,129,474.8,129.1,475z"/>
		<path d="M129.1,518.6c-0.1-0.1-0.2-0.3-0.4-0.5C128.9,518.4,129.1,518.5,129.1,518.6z"/>
		<path d="M156.2,304.8c-0.1,0.5-0.2,0.8,0.2,1.1c0.2,0.2,0.4,0.5,0.6,0.9c-1-0.1-1.7-1-2.6-1c-0.1,0-0.2-0.2-0.2-0.3
			c0.1-0.1,0.2-0.2,0.3-0.3C155,305,155.6,304.6,156.2,304.8z"/>
		<path d="M156.6,261.7c-0.2,0.5-0.2,0.8,0.2,1.1c0.2,0.2,0.4,0.5,0.6,0.9c-1-0.1-1.7-1-2.6-1c-0.1,0-0.2-0.2-0.2-0.3
			c0.1-0.1,0.2-0.2,0.3-0.3C155.4,261.9,155.9,261.6,156.6,261.7z"/>
		<path d="M158.3,259.7c-0.1,1.2-0.7,1.9-1.7,2C157,260.8,157.5,260.2,158.3,259.7z"/>
		<path d="M158.7,258.7c0,0.4-0.1,0.8-0.4,1C158.3,259.3,158.3,258.9,158.7,258.7z"/>
		<path d="M157.1,347c-0.1,0.1-0.2,0.3-0.4,0.5C156.8,347.3,157,347.1,157.1,347z"/>
		<path d="M157.1,306.9c0.1,0.1,0.2,0.3,0.4,0.5C157.3,307.2,157.1,307,157.1,306.9z"/>
		<path d="M157.4,263.8c0.1,0.1,0.2,0.3,0.4,0.5C157.6,264.1,157.5,263.9,157.4,263.8z"/>
		<path d="M74,766.9c5.1,0.1,10.3,0.1,15.4,0.2c0.5,0,1,0,1.4,0c0.9,0,1.3,0.6,1.3,1.6c0,3.4,0,9.8,0,9.8s-0.2,1.2-1,0.4H90
			c-10.6,0.8-31.9,1-31.9,1s-0.5,0-0.8,0c-0.9,0-1.3-0.4-1.3-1.5c0-3.4,0.1-6.9,0.1-10.4c0-0.9,0.4-1.3,1.2-1.3c1.5,0,3,0,4.5,0.1
			C65.8,766.8,69.9,766.8,74,766.9z M70.1,773L70.1,773c0,1.3,0,2.5,0,3.6c0,2.3,0,2.2,2.1,2.3c0.2,0,0.4,0,0.6,0
			c1.3-0.1,1.4-0.1,1.4-1.8c0.1-2.1,0-4.2,0.1-6.5c0-3.3-0.3-3.6-3-3.2c-0.7,0.1-1,0.5-1,1.3C70.1,770.2,70.1,771.7,70.1,773z
			 M69.3,773.2L69.3,773.2c0-1.1,0-2.4,0-3.5c0-2.6,0-2.6-2.1-2.6c-0.1,0-0.2,0-0.4,0c-1.7,0-1.6,0.1-1.7,2.4c0,2.2,0,4.1-0.1,6.4
			c0,3.1-0.2,3.1,2.1,3.1c0.2,0,0.4,0,0.7,0c1,0.1,1.5-0.4,1.4-1.7C69.3,776,69.3,774.7,69.3,773.2z M60.3,774L60.3,774
			c0-1.1,0.1-2.4,0-3.5c0-2.5,0-2.3-2.5-2.4c0,0,0,0-0.1,0c-2.1,0.1-1.6,0-1.8,4.8c-0.1,0.6-0.1,1.2,0,2c0.2,5-0.5,5,1.9,5.1
			c0.4,0,0.9,0,1.2,0c0.7,0,1-0.5,1-1.3C60.2,777.1,60.2,775.4,60.3,774z M82.9,773.2L82.9,773.2c0,1.3-0.1,2.7,0,3.9
			c0,1.9,0.1,1.7,1.8,1.8c0.1,0,0.2,0,0.2,0c2.4-0.1,1.8,0.2,2.1-3.5c0-0.5,0-1.1,0-1.5c-0.2-6.4,0.7-6.5-2.6-6.4
			c-0.4,0-1,0-1.4,0.1c-0.1,0-0.1,0.1-0.1,0.1C82.9,769.4,82.9,771.4,82.9,773.2z M78.2,772.3c0-1.1,0-2.3,0-3.4
			c0-1.2-0.3-1.7-1.2-1.8c-0.3,0-0.7,0-1,0c-1.3,0.1-1.4,0.1-1.5,1.8c-0.1,2.7-0.1,5.2-0.1,8.1c0,2,0.1,2,1.7,2.1c0.2,0,0.7,0,0.9,0
			c0.9,0.1,1.2-0.5,1.3-1.6C78.1,775.6,78.3,774,78.2,772.3z M61.2,773.1c0,1.4,0,2.9,0,4.2c-0.1,1.2,0.4,1.7,1.4,1.6
			c0.4,0,0.9,0,1.2,0c0.7,0,1.1-0.5,1.1-1.4c0-3,0.1-6,0.1-9c0-0.9-0.3-1.3-1.2-1.4c-0.4,0-0.9,0-1.2,0c-1-0.1-1.4,0.5-1.4,1.7
			C61.2,770.4,61.2,771.8,61.2,773.1z M91.3,774L91.3,774c-0.7,0-1-0.6-0.7-1.3c1.2-3.2,1-4.6-0.3-4.6c-0.5,0-1,0-1.5,0
			c-1.2,0-1.3,1-1,2.8c0.3,2.1,0.4,4.1-0.1,6.2c-0.4,1.9-0.2,2.8,1,2.9c0.4,0,0.9,0,1.2,0c1,0.1,1.4-0.5,1.4-1.8
			C91.3,776.8,91.3,775.3,91.3,774z M78.9,773.6L78.9,773.6c0,1.6,0,3.1,0,4.6c0,0.8,0.3,1.2,1,1.3c0.4,0,0.9,0.1,1.2,0
			c1.4-0.1,1.4-0.1,1.4-1.8c0.1-2.6,0.1-5.1,0.1-7.9c0-1.7-0.1-1.8-1.4-1.9c-0.3,0-0.7,0-1,0c-0.9-0.1-1.2,0.5-1.3,1.5
			C78.9,771.1,78.9,772.4,78.9,773.6z"/>
		<path d="M72.9,763.2c-3.3,0-6.6-0.1-10-0.1c-1,0-1.8-0.2-2.8,0.6c-0.7,0.7-1.4-0.4-1.9-0.8c-0.2-0.1-0.2-0.4-0.1-0.7
			c0.3-0.6,1.7-1.2,2.1-0.7c0.7,0.7,1.5,0.6,2.4,0.6c6.8,0.1,13.4,0.2,20.3,0.3c0.7,0,1.8-0.5,1.8,0.6c0.1,0.7-1.2,0.4-1.8,0.4
			C79.7,763.3,76.2,763.3,72.9,763.2z"/>
		<path d="M140.6,742.4c0.4,0.2,0.7,0.5,0.9,1C140.9,743.4,140.6,743,140.6,742.4z"/>
		<path d="M212.7,5.6c5,0.1,10,0.1,15.1,0.2c1.9,0,2.1,0.1,1.9,2.4c0,2.8-0.1,5.7-0.1,8.6c0,2.1-0.1,2.2-1.8,2.2
			c-6.9-0.1-13.6-0.2-20.5-0.3c-3.5,0-6.9-0.1-10.3-0.1c-1.6,0-1.7-0.2-1.7-2c0-3,0-6,0.1-9.1c0-2,0.2-2.1,1.8-2
			C202.3,5.5,207.5,5.5,212.7,5.6z M209,12.6L209,12.6c0,1.3,0,2.5,0,3.6c0,0.1,0,0.1,0,0.3c0,2,0.1,2.1,1.8,2.1c0.1,0,0.2,0,0.4,0
			c1.4,0,1.4-0.1,1.4-2.1c0-2.5,0-5,0.1-7.5c0-2.1,0-2.2-1.6-2.3c-0.2,0-0.6,0-0.9,0c-1.4-0.1-1.7,1.2-0.6,4.6
			C209.9,12.1,209.6,12.6,209,12.6z M216.4,12.8c0-1.6,0-3.1,0-4.6c0-1.1-0.3-1.5-1.2-1.5c-0.2,0-0.4,0-0.6,0c-1.7,0-1.8,0-1.8,2
			c0,2.7-0.1,5.3-0.1,7.9c0,1.9,0.1,1.9,1.6,2c0.2,0,0.6,0,0.9,0c0.9,0.1,1.2-0.5,1.3-1.5C216.4,15.6,216.4,14.2,216.4,12.8z
			 M226,12.7c0,1.4-0.1,2.8,0,4.1c0,1.6,0.1,1.7,1.4,1.8c0.4,0,0.9,0,1.3,0c0.7,0,1-0.4,1-1.2c0-3.1,0.1-6.3,0.1-9.6
			c0-0.8-0.3-1.3-1-1.3c-0.4,0-0.9-0.1-1.3,0C226,6.7,226,6.7,226,8.3C226,9.8,226,11.3,226,12.7z M220.8,12.7c0-1.4,0.1-2.8,0-4.1
			c0-1.6-0.1-1.7-1.4-1.8c-0.4,0-0.9,0-1.3,0c-0.7,0-1,0.4-1,1.2c0,3.1-0.1,6.3-0.1,9.6c0,0.8,0.3,1.3,1,1.3c0.4,0,0.9,0.1,1.3,0
			c1.4-0.1,1.4-0.1,1.5-1.7C220.8,15.6,220.8,14.1,220.8,12.7z M203.8,12.7L203.8,12.7c-0.7,0-1-0.6-0.7-1.3c1-3.1,1.2-4.7-0.2-4.7
			c-0.4,0-0.7,0-1.2,0c-0.7-0.1-1.5,0.7-1.5,1.6c0,3-0.1,5.9-0.1,8.9c0,0.9,0.3,1.4,1.2,1.4c0.4,0,0.7,0,1.2,0
			c1,0.1,1.5-0.4,1.4-1.6C203.8,15.5,203.8,14.1,203.8,12.7z M199.4,11.7L199.4,11.7c0-1.6,0-3.1,0-4.6c0-0.9-0.2-1.4-1.1-1.4
			c-0.4,0-0.9,0-1.2,0c-1-0.1-1.4,0.4-1.4,1.6c0,3-0.1,5.9-0.1,8.9c0,0.9,0.3,1.4,1.1,1.4c0.4,0,0.9,0,1.2,0c1,0.1,1.4-0.4,1.4-1.6
			C199.4,14.5,199.4,13.1,199.4,11.7z M204.7,12.1c0,1.5-0.1,3,0,4.4c0.1,1.4,0.2,1.5,1.6,1.6c1.4,0,1.7-0.1,1.7-1.4
			c0.1-3,0.1-6,0.1-9.1c0-1.4-0.2-1.5-1.6-1.6c-1.4-0.1-1.6,0.1-1.7,1.4C204.7,9.1,204.7,10.4,204.7,12.1z M225.2,12.5
			c0-1.6,0-3.1,0-4.6c0-1.3-0.7-1.4-1.5-1.4c-1.4,0-1.7,0.1-1.8,1.3c-0.1,3.1-0.1,6.1-0.1,9.3c0,1.3,0.7,1.4,1.5,1.4
			c1.4,0,1.7-0.1,1.8-1.3C225.2,15.5,225.2,14,225.2,12.5z"/>
		<path d="M209.8,22.1c4.9,0.1,9.7,0.1,14.6,0.2c0.4,0,0.7-0.2,1.1-0.4c0.7-0.5,2.1-0.2,2.4,0.5c0.1,0.2,0.1,0.5-0.1,0.7
			c-0.5,0.7-1.8,1-2.4,0.5c-0.7-0.7-1.6-0.5-2.4-0.5c-8.5-0.1-16.9-0.2-25.4-0.3c-0.6,0-1.1,0.2-1.6-0.2c0.5-0.6,1.1-0.5,1.7-0.5
			C201.7,22,205.8,22,209.8,22.1L209.8,22.1z"/>
		<path d="M146.2,42.4c0,0.3,0,0.7,0,1c0,0.2,0,0.5-0.2,0.5c-0.1,0-0.2-0.2-0.2-0.3c-0.1-0.5-0.2-1.1-0.3-1.7
			C145.6,42.1,145.9,42.4,146.2,42.4z"/>
		<path d="M148.4,40c-0.2,0.4-0.5,0.5-0.9,0.5C147.9,40,148.1,40,148.4,40z"/>
		<path d="M146.8,41.5c0,0.4-0.1,0.8-0.4,1C146.3,42,146.5,41.7,146.8,41.5z"/>
		<path d="M147.6,40.4c-0.1,0.1-0.2,0.3-0.4,0.5C147.3,40.8,147.5,40.6,147.6,40.4z"/>
		<path d="M147.2,41c-0.1,0.1-0.2,0.3-0.4,0.5C146.9,41.3,147.1,41.1,147.2,41z"/>
		<path d="M210.1,397.9c4.9,0.1,9.9,0.1,14.7,0.2c2,0,2,0.1,1.9,2.4c0,2.8-0.1,5.6-0.1,8.4c0,2.1-0.1,2.2-1.8,2.2
			c-6.7-0.1-13.4-0.2-20-0.3c-3.4,0-6.7-0.1-10.1-0.1c-1.6,0-1.6-0.2-1.6-2c0-3,0-5.9,0.1-8.9c0-2,0.1-2.1,1.8-2
			C199.8,397.8,204.9,397.9,210.1,397.9z M214.1,404.4L214.1,404.4c0,1.5,0,3,0,4.4c0,0.8,0.3,1.2,1,1.3c0.4,0,0.9,0.1,1.2,0
			c1.4,0,1.4-0.1,1.4-2.1c0-2.3,0-4.6,0.1-6.9c0-2.3,0-2.4-1.6-2.4c-0.2,0-0.6,0-0.9,0c-0.9-0.1-1.2,0.5-1.3,1.5
			C214.1,401.6,214.1,403,214.1,404.4z M222.2,404.7c0,1.3-0.1,2.8,0,4c0,1.8,0.1,1.8,1.4,1.9c0.4,0,0.9,0,1.2,0
			c0.7,0,1-0.4,1.2-1.2c0-3.1,0.1-6.2,0.1-9.3c0-0.9-0.4-1.3-1.2-1.3c-0.3,0-0.7,0-1,0c-1.4,0.1-1.4,0.1-1.5,1.8
			C222.2,402,222.2,403.4,222.2,404.7z M196.2,405.2L196.2,405.2c-0.4-0.8-0.4-0.7-0.9-1.6c1.2-2.9,1.1-4.2-0.2-4.3
			c-0.4,0-0.9-0.1-1.2,0c-1.4,0-1.4,0.2-1.4,2.1c0,2.4,0,4.6-0.1,7.1c0,2.1,0,2.1,1.6,2.2c0.2,0,0.6,0,0.9,0
			c0.9,0.1,1.2-0.5,1.3-1.5C196.1,407.7,196.2,406.5,196.2,405.2z M197.2,404.5c0,1.5,0,3.1,0,4.5c0,1.1,0.3,1.5,1.3,1.5
			c0.3,0,0.7,0,1,0c1.3-0.1,1.4-0.1,1.5-1.8c0.1-2.7,0.1-5.1,0.1-8c0-1.9-0.1-1.9-1.6-2.1c-0.2,0-0.7,0-0.9,0
			c-0.9-0.1-1.2,0.5-1.3,1.5C197.2,401.8,197.2,403.2,197.2,404.5z M205.3,404.5L205.3,404.5c0,1.5,0,3,0,4.4c0,0.8,0.3,1.2,1,1.3
			c0.4,0,0.9,0.1,1.2,0c1.4-0.1,1.4-0.1,1.4-1.8c0.1-2.6,0.1-5.1,0.1-7.9c0-1.7-0.1-1.7-1.4-1.9c-0.3,0-0.7,0-1,0
			c-0.9-0.1-1.2,0.5-1.3,1.5C205.3,401.7,205.3,403.1,205.3,404.5z M209.7,404.5L209.7,404.5c0,1.5,0,3,0,4.4c0,0.8,0.3,1.2,1,1.3
			c0.4,0,0.9,0.1,1.2,0c1.4-0.1,1.4-0.1,1.4-1.8c0.1-2.6,0.1-5.1,0.1-7.9c0-1.7-0.1-1.8-1.4-1.9c-0.3,0-0.7,0-1,0
			c-0.9-0.1-1.2,0.5-1.3,1.5C209.7,401.7,209.7,403.1,209.7,404.5z M221.8,405.2c0-1.4,0.1-2.8,0-4.2c-0.1-1.4-0.2-1.5-1.6-1.6
			c-1.4,0-1.7,0.1-1.7,1.4c-0.1,2.8-0.1,5.7-0.1,8.6c0,1.4,0.2,1.5,1.6,1.6c1.4,0,1.6-0.1,1.7-1.4
			C221.8,407.9,221.8,406.6,221.8,405.2z M204.7,405.4L204.7,405.4c0-1.4,0.1-2.8,0-4.2c0-1.6-0.2-1.7-1.6-1.8
			c-1.4,0-1.6,0.1-1.7,1.7c-0.1,2.5,0,4.9-0.1,7.5c0,2.2,0.2,2.4,2.1,2.3c0.7-0.1,1.3-0.7,1.3-1.6
			C204.7,407.9,204.7,406.6,204.7,405.4z"/>
		<path d="M207.4,394.5c4.4,0.1,8.7,0.1,13,0.2c0.7,0,1.5,0.2,2.1-0.6c0.1-0.1,0.2-0.2,0.3-0.3c0.9-0.1,1.4,0.5,2.1,1
			c0.3,0.3,0,0.7-0.2,0.7c-0.7,0.3-1.4,1.7-2.3,0.3c-0.6-1-1.4-0.7-2.1-0.7c-6.4-0.1-12.9-0.2-19.3-0.2c-2.4,0-5-0.1-7.5-0.1
			c-0.2,0-0.6-0.1-0.6-0.2c0.1-0.5,0.4-0.3,0.6-0.3C198.2,394.4,202.8,394.4,207.4,394.5L207.4,394.5z"/>
		<path d="M128.2,386.2c-1.4-0.4-2.1-1.4-2.4-3C126.7,384,127.5,385,128.2,386.2z"/>
		<path d="M142.5,374.3c0-0.9,0.4-1.5,0.7-2.3c0.1-0.3,0-0.7,0.4-0.6c0.1,0.1,0.1,0.6,0.2,0.9c0,0.1,0,0.3,0,0.5
			C143.4,373.3,143.3,374.1,142.5,374.3z"/>
		<path d="M144.1,373.9c0.6,0.3,1,0.8,1.2,1.5C144.5,375.2,144.1,374.8,144.1,373.9z"/>
		<path d="M140.2,375.7c0.4-0.7,1-0.9,1.7-1C141.7,375.7,141,375.8,140.2,375.7z"/>
		<path d="M129,386.7c-0.3,0-0.7-0.1-0.9-0.5C128.6,386.3,128.8,386.3,129,386.7z"/>
		<path d="M143.7,372.9c0.3,0.2,0.4,0.6,0.3,1C143.7,373.7,143.7,373.3,143.7,372.9z"/>
		<path d="M143.7,409.4c0,0.4-0.1,0.8-0.4,1C143.3,410,143.4,409.7,143.7,409.4z"/>
		<path d="M144.5,408.5c-0.1,0.1-0.2,0.3-0.4,0.5C144.3,408.8,144.5,408.6,144.5,408.5z"/>
		<path d="M144.1,409c-0.1,0.1-0.2,0.3-0.4,0.5C143.9,409.3,144.1,409.1,144.1,409z"/>
		<path d="M142,374.9c0.1-0.1,0.2-0.3,0.4-0.5C142.2,374.5,142.1,374.7,142,374.9z"/>
		<path d="M159.8,69.7c-0.7-0.5-1.3-1.2-1.6-2C159.2,67.9,159.7,68.5,159.8,69.7z"/>
		<path d="M160.2,70.7c-0.3-0.2-0.4-0.6-0.3-1C160.2,69.9,160.2,70.3,160.2,70.7z"/>
		<path d="M157.8,110.7c-0.2,0-0.4,0.1-0.6,0c-0.5-0.2-1.4-0.3-1.4-0.7c0-0.6,0.9-0.3,1.4-0.7c0.4-0.3,1-0.7,1.5-0.6
			c-0.2,0.3-0.3,0.7-0.6,0.9C157.6,109.9,157.6,110.3,157.8,110.7z"/>
		<path d="M159.5,112.8c-0.7-0.5-1.3-1.2-1.6-2C158.8,111,159.4,111.7,159.5,112.8z"/>
		<path d="M159.8,113.9c-0.3-0.2-0.4-0.6-0.3-1C159.8,113.1,159.8,113.5,159.8,113.9z"/>
		<path d="M158.7,108.7c0.1-0.1,0.2-0.3,0.4-0.5C159,108.4,158.7,108.6,158.7,108.7z"/>
		<path d="M157.8,154.4c-0.7-0.2-1.4-0.4-2.1-0.6c-0.2-0.1-0.4-0.2-0.4-0.4c-0.1-0.3,0.2-0.5,0.4-0.5c0.5-0.1,1-0.1,1.4,0
			C157.3,153.3,157.5,153.8,157.8,154.4z"/>
		<path d="M157.1,152.9c0.2-0.4,0.5-0.5,0.9-0.5C157.8,152.9,157.4,152.9,157.1,152.9z"/>
		<path d="M158.3,154.8c-0.1-0.1-0.2-0.3-0.4-0.5C158,154.5,158.2,154.7,158.3,154.8z"/>
		<path d="M157.9,152.5c0.1-0.1,0.2-0.3,0.4-0.5C158.2,152.1,158.1,152.3,157.9,152.5z"/>
		<path d="M158.7,155.4c-0.1-0.1-0.2-0.3-0.4-0.5C158.4,155,158.6,155.2,158.7,155.4z"/>
		<path d="M158.3,151.9c0.1-0.1,0.2-0.3,0.4-0.5C158.6,151.6,158.4,151.8,158.3,151.9z"/>
		<path d="M91.5,587.5c-0.4-0.3-0.7-0.9-0.7-1.5c0.3-1.7,0.2-3.3,0.3-4.8c0.1-0.7,0.3-1.1,1-1.1c0.7-0.1,1.4,0,2.1,0
			c1.4,0.1,1.4,0.1,1.4,1.8c0.1,1.2,0.3,2.5,0.3,3.6c0.1,1.5-0.3,2.8-1.8,3.1l-0.4-0.1l0.9-0.2V588l-0.4-0.1l0.6-0.7
			c0.2-0.3,0.3-0.5,0.4-0.8c0.5-1.3,0.2-2.7-0.2-4c-0.3-1.5-0.5-1.5-2.1-1.5c-1.2,0-1,1.1-1.2,1.9c-0.1,0.2-0.1,0.5,0,0.7
			c0.4,1.8,0.7-2.3,1.3,2.1c-0.2,0.5-0.3,0.9-0.5,1.4h-0.1c-0.2-0.2-0.4-0.6-0.5-0.5C91.5,586.6,91.7,587.1,91.5,587.5L91.5,587.5z"
			/>
		<path d="M99.6,588.6c-0.3-0.3-0.6-0.8-0.5-1.3c0.2-1.5,0.1-3,0.2-4.4c0.1-1.3,0.2-1.3,2.4-1.3c1.9,0,2.1,0.1,2.1,1.4
			c0.1,1.3,0,2.5,0.1,3.6c0.2,2.9-1.1,3.9-3.5,2.9l0.1-0.1c0.3,0,0.6-0.1,0.7-0.5c0.2,0,0.2,0,0.4,0c0.2,0.4,0.5,0.5,0.9,0
			c0.1-0.2,0.2-0.3,0.4-0.5c0.7-1.8,0.3-3.6,0.3-5.6c0-0.5-0.2-0.7-0.7-0.8c-0.4-0.1-0.9-0.1-1.2-0.1c-1.5,0-1.5,0-1.7,1.6
			c-0.1,1.6,0,3.1-0.1,4.6L99.6,588.6z"/>
		<path d="M94.2,588.4c-1,0.9-1.5,0.5-2.1-0.5l0.1-0.1c0.2-0.2,0.3-0.5,0.3-0.9l0.1-0.1c0.5,0.4,1,0.5,1.6,0.6
			c0,0.1,0.1,0.3,0.1,0.5l-0.1,0.1c-0.2,0.1-0.5,0.1-0.7,0.1C93.6,588.5,93.9,588.3,94.2,588.4L94.2,588.4z"/>
		<path d="M122.7,585.2c0.7,0.5,1.3,1.2,1.6,2C123.4,587.1,123,586.4,122.7,585.2z"/>
		<path d="M124.4,587.2c0.7,0.1,1.2,0.3,1.7,1C125.4,588.3,124.7,588.2,124.4,587.2z"/>
		<path d="M122,583.3c0.5,0.5,0.7,1.2,0.9,2C122,584.8,122,584.1,122,583.3z"/>
		<path d="M100.6,588.9c-0.5-0.1-0.7-0.4-0.9-1l0.1-0.1c0.1,0,0.2,0,0.4,0.1c0.1,0.2,0.2,0.3,0.4,0.5
			C100.6,588.6,100.6,588.8,100.6,588.9L100.6,588.9z"/>
		<path d="M92.1,587.9c-0.1-0.2-0.2-0.3-0.4-0.5l0.1-0.1C91.8,587.4,91.9,587.6,92.1,587.9L92.1,587.9z"/>
		<path d="M186.1,212.6c0.3,0,0.7,0,1,0c1-0.1,1.4,0.3,1,1.6c-0.2,0.8-0.1,1.7,0.1,2.5c0.1,0.2,0.1,0.5,0.2,0.7
			c0.2,1.5-0.1,2.8-1.2,3.6c-0.9,0.7-1.7,0.6-2.4,0c-1.2-0.9-1.4-2.2-1.2-3.6c0.2-1.3,0.5-2.5,0.2-3.8c-0.2-0.7,0.2-0.9,0.7-0.9
			C185.1,212.6,185.6,212.6,186.1,212.6L186.1,212.6z M187.2,220.3C187.1,220.4,187.1,220.4,187.2,220.3
			C187.1,220.6,187.2,220.5,187.2,220.3c0.2-0.3,0.4-0.6,0.4-1c0.1-0.1,0.2-0.2,0.2-0.3c0.1-0.2,0.2-0.5-0.1-0.6
			c-0.2-0.1-0.2,0.3-0.2,0.5c0,0.1,0,0.3,0,0.5C187.3,219.6,187.2,219.9,187.2,220.3z M183.9,220.3v-1c0,0,2.7,0.9,3.2-1
			c0.1-0.5,0.1-1,0.1-1.5c0.7-2.6,0.2-3.4-1.9-3c-0.6,0.1-0.9,0.5-1,1.1c0,0.7-0.1,1.3,0.4,1.9v2.7h-0.7v-0.7c0.2-0.2,0.2-0.5,0-0.5
			c-0.2,0.1-0.1,0.4-0.1,0.6c0.1,0.1,0.2,0.2,0.2,0.3c0.3,0.5,0.4,0.9,0.6,1.1c0.1,0.1,0.1,0.1,0.2,0.1
			C184.8,220.5,183.9,220.3,183.9,220.3z M185.8,221.3C185.9,221.3,185.9,221.4,185.8,221.3h0.1
			C185.9,221.3,185.9,221.2,185.8,221.3L185.8,221.3z"/>
		<path d="M195.7,221.5c-1,1.1-1.8,1.3-2.6,0.6c-0.9-0.8-1.3-2-1.1-3.3c0.2-1.3,0.4-2.6,0.3-3.8c-0.1-0.5,0.1-0.8,0.4-0.8
			c1.1,0,2.2,0,3.3,0.1c0.4,0.1,0.4,0.5,0.1,0.9l-0.1-0.1c-0.9-0.9-1.8-0.5-2.7-0.4c-0.6,0.1-1,1.5-0.6,2.5c0.3,0.9,0.6-0.3,0.9-0.4
			c0.6-0.1,0.9-0.3,1.3,0.4c-1.1,0.3-1.8,1-1.8,2c0,1,0.6,1.7,1.8,2c0,0.1,0,0.3,0,0.5c-0.6,0-1,0-1.6,0c-0.1-0.1-0.2-0.3-0.4-0.5
			c-0.1-0.4-0.1-0.8-0.3-1c0-0.1,0-0.3,0-0.5s0-0.5-0.2-0.5c-0.1,0.1-0.1,0.4,0,0.6c0.1,0.1,0.1,0.2,0.2,0.3c0,0.4,0.1,0.7,0.3,1
			c0.1,0.2,0.2,0.3,0.4,0.5c0.4,0.7,1,0.7,1.6,0C195.2,221.4,195.5,221.4,195.7,221.5L195.7,221.5z"/>
		<path d="M196.2,214.7c0.1,1.5,0.5,2.9,0.4,4.3c-0.1,0.9-0.1,1.7-0.9,2.1l-0.1-0.1c0-0.3,0-0.7,0-1c0.7-1.1,0.4-2.3,0.2-3.4
			C195.7,216,195.5,215.3,196.2,214.7L196.2,214.7z"/>
		<path d="M162.7,215.1c-0.6-0.3-1-0.8-1.2-1.5C162.3,213.7,162.7,214.2,162.7,215.1z"/>
		<path d="M163.6,217.1c-0.5-0.5-0.7-1.2-0.9-2C163.5,215.5,163.7,216.3,163.6,217.1z"/>
		<path d="M187.5,195.9c1,0.6,1,1.8,0.7,2.8c-0.2,1.2-0.4,2.4-0.2,3.6c0.2,0.7-0.2,0.9-0.6,1c-1.1,0.1-2.1,0-3.3,0
			c-0.4,0-0.7-0.3-0.6-0.8c0.4-1.5,0-2.9-0.2-4.3c-0.1-1.2,0.2-2.4,1.1-3.1c0.9-0.7,1.8-0.7,2.7,0
			C187.5,195.3,187.5,195.6,187.5,195.9c-0.2,0-0.2,0-0.4,0c-0.1-0.1-0.1-0.1-0.2-0.1c0.1,0,0.1,0.1,0.2,0.1c0,0.4,0.1,0.7,0.4,1
			c0,0.1,0,0.3,0,0.5s0,0.5,0.2,0.5c0.2-0.1,0.1-0.4,0.1-0.6c-0.1-0.1-0.2-0.2-0.2-0.3C187.5,196.6,187.5,196.3,187.5,195.9z
			 M185,195.9C185,195.8,185,195.8,185,195.9C185,195.8,185,195.8,185,195.9c-0.2,0.3-0.4,0.6-0.4,1c-0.1,0.1-0.2,0.2-0.2,0.3
			c-0.1,0.2-0.2,0.5,0.1,0.6c0.2,0.1,0.2-0.3,0.2-0.5c0-0.1,0-0.3,0-0.5C184.8,196.6,185,196.3,185,195.9z M184.8,199.3
			c-0.6,0.7-0.4,1.7-0.3,2.6c0,0.3,0.2,0.7,0.4,0.7c0.7,0.2,1.5,0.4,2.1,0c0.7-0.3,0.6-1.3,0.5-1.9c-0.2-0.9-0.6-0.2-0.9-0.1
			C185.8,201.1,185.1,200.9,184.8,199.3c0.6,0.3,1.1,1.4,1.9,0.4c0.7-0.9,0.6-1.8,0.2-2.7c-0.1-0.1-0.1-0.3-0.2-0.4
			c-0.4-0.7-0.9-0.7-1.4-0.1C185,197.4,184.8,198.4,184.8,199.3z"/>
		<path d="M196.6,203c0.2,0.4,0.3,0.9-0.1,0.9c-1.2,0.1-2.4,0-3.8,0c-0.5,0-0.5-0.5-0.4-0.9c0.2-1.3,0-2.5-0.2-3.6
			c-0.2-1.4,0.4-3.2,1.4-3.5c1-0.5,2.1-0.6,2.8,0.8l-0.1,0.1c-0.4,0.3-0.3,0.7,0.1,0.9l0,0c-0.1,1.2,0.4,2.7-0.9,3.4
			c0.1-1,0.7-2,0.2-3.1c-0.4-0.9-1.1-1.1-1.6-0.3c-0.4,0.6-0.6,1.2-0.3,2.1c0.3,1,1,1.3,1.8,1.4c-0.7,0.8-1.4,0.5-1.9-0.2
			c-0.1-0.1-0.2-0.4-0.4-0.1c-0.4,0.5,0,2.7,0.7,2.7c1,0.1,2.1,0.5,3-0.4L196.6,203z M193.5,196.5c-0.1,0.2-0.2,0.3-0.4,0.5
			c-0.2,0.3-0.4,0.6-0.4,1c-0.1,0.1-0.2,0.2-0.2,0.3c-0.1,0.2-0.2,0.5,0.1,0.6c0.2,0.1,0.2-0.3,0.2-0.5c0-0.1,0-0.3,0-0.5
			c0.3-0.2,0.4-0.6,0.4-1C193.3,196.8,193.4,196.7,193.5,196.5c0.2-0.1,0.4,0,0.4-0.3c0,0-0.1-0.1-0.2-0.1
			C193.7,196.3,193.7,196.4,193.5,196.5z"/>
		<path d="M196.2,196.5c1.4,1.2,0.7,2.9,0.7,4.3c0,0.7-0.4,1.4-0.3,2.2l-0.1,0.1c-0.5-0.6-0.3-1.3-0.2-2c0.2-1.2,0.5-2.4-0.2-3.4
			l0,0c0-0.3,0-0.6-0.1-0.9L196.2,196.5z"/>
		<path d="M163.8,200.6c-0.5-0.5-0.7-1.2-0.9-2C163.6,198.9,163.8,199.7,163.8,200.6z"/>
		<path d="M162.1,197.6c-0.6,0-1-0.3-1.2-1C161.5,196.6,161.8,196.9,162.1,197.6z"/>
		<path d="M162.5,198.1c-0.1-0.1-0.2-0.3-0.4-0.5C162.2,197.7,162.4,197.9,162.5,198.1z"/>
		<path d="M162.9,198.6c-0.1-0.1-0.2-0.3-0.4-0.5C162.6,198.3,162.7,198.4,162.9,198.6z"/>
		<path d="M92.4,560.6c1.8-1.3,3.3-0.4,3.3,2.1c0.1,1.5-0.5,2.9-0.2,4.3c0.1,0.4-0.2,0.7-0.6,0.7c-0.2,0.1-0.5,0.1-0.7,0.1
			c-3,0-2.7,0.1-2.7-3c0-0.6,0-1.2-0.2-1.8c-0.2-0.8,0-1.4,0.5-2l0.1,0.1c0.1,0.3-0.2,0.7,0.2,0.9c0.1,0.1,0.9-0.5,0.9-0.5v3.1
			c-0.2,0.1-0.3-1.1-0.6-0.1c-0.1,0.4,0,0.7,0,1.1c0.2,1.6,0.2,1.6,1.5,1.6c1.3,0,1.3,0,1.3-1.8c0-0.3,0-0.9,0-0.9s0.2-2.1-0.4-3.1
			c-0.1-0.2-0.2-0.3-0.3-0.5c-0.1-0.1-0.1-0.1-0.1-0.1c0.1,0.1,0.1,0.1,0.2,0.1c0.2,0.1,0.6,0.4,0.6,0.4v3.2c0,0-1.3,1.5-2.1,0.4
			c1-0.2,1.4-0.8,1.4-1.9c0.1-1.2-0.4-1.9-1.4-2.2c-0.2-0.3-0.4-0.4-0.7-0.4L92.4,560.6z"/>
		<path d="M103.9,561.9c0.4,0.5,0.5,1.1,0.5,1.8c-0.1,1.3-0.2,2.7-0.2,3.8c0,1.1-0.6,1.5-1.4,1.3c-1-0.2-2.6,0.9-3.1-0.9
			c-0.3-1.7-0.3-3.6-0.1-5.6c0-0.2,0.2-0.4,0.4-0.5l0.1,0.1c0,1.7,0,3.4,0.1,5.1c0,0.9,0.2,1.4,1.1,1.3c0.4-0.1,0.9-0.1,1.2,0
			c0.9,0.1,1-0.4,1.2-1.3C103.9,565.5,103.8,563.7,103.9,561.9L103.9,561.9z"/>
		<path d="M100.9,560.8c0.7-0.7,1.4-0.7,2.1,0l-0.1,0.1c-0.2,0.1-0.3,0.1-0.5,0.2c0.2,0.1,0.3,0.1,0.5,0.2l0.1,0.1
			c0.1,0.1,0.2,0.3,0.4,0.5l0,0c0,1.1,0,2.1-0.1,3.2c-0.1,0.7-0.4,1.2-1.1,1.3c-0.7,0.1-1.3,0.1-1.4-1c0.7,0.3,1.4,0.8,1.8-0.2
			c0.4-0.8,0.3-1.8,0-2.7c-0.2-0.4-0.5-0.6-0.9-0.6c-0.4,0.1-0.9,0.4-1,0.9c-0.1,0.8-0.1,1.7-0.2,2.5c-0.7-1.1-0.2-2.3-0.4-3.4l0,0
			c0.1-0.1,0.2-0.3,0.4-0.5l0,0c0.2-0.1,0.3-0.1,0.5-0.2C101.3,561,101.1,561,100.9,560.8L100.9,560.8z"/>
		<path d="M123.4,567.7c0.4,0.2,0.7,0.5,0.9,1C123.6,568.8,123.4,568.3,123.4,567.7z"/>
		<path d="M103.2,560.8c0.5,0.1,0.7,0.4,0.9,1l-0.1,0.1c-0.1,0-0.2,0-0.4-0.1l0,0c-0.1-0.1-0.2-0.3-0.4-0.5l-0.1-0.1
			C103,561.2,103,561.1,103.2,560.8L103.2,560.8z"/>
		<path d="M100.1,562.2c0.1-0.6,0.3-0.9,0.9-1l0.1,0.1c0,0.1,0,0.3,0,0.5l0,0c-0.1,0.1-0.2,0.3-0.4,0.5l0,0
			C100.6,562.3,100.4,562.3,100.1,562.2L100.1,562.2z"/>
		<path d="M91.9,560.7c0.1-0.1,0.2-0.3,0.4-0.5l0.1,0.1C92.2,560.4,92,560.6,91.9,560.7L91.9,560.7z"/>
		<path d="M122.9,567.2c0.1,0.1,0.2,0.3,0.4,0.5C123.2,567.5,123,567.3,122.9,567.2z"/>
		<path d="M95.2,586.9c-0.1,0-0.2,0-0.4,0c0.1-1.4,0.1-2.9-0.7-3.9c0.9,0.1,1.2,0.7,1.2,1.6C95.2,585.3,95.2,586.1,95.2,586.9z"/>
		<path d="M93.8,583c-0.4,0.2-0.7,0.5-1.2,0.5C92.8,582.9,93.1,582.1,93.8,583z"/>
		<path d="M95.2,586.9c0,0-1,0-1.1,0c0.1-0.1,0.2-0.5,0.2-0.5l0.9,0.3V586.9L95.2,586.9z"/>
		<path d="M103.2,588.4c-0.2,0.1-0.2,0.3-0.4,0.5c-0.2,0-0.6,0-0.9,0c1-1.1,1-2.5,0.9-3.9C103.7,585.9,103.2,587.2,103.2,588.4z"/>
		<path d="M100.4,588.3c0.1-1.1-0.3-2.4,0.4-3.3c-0.1,1.4-0.1,2.9,0.7,3.9c-0.2,0-0.6,0-0.9,0C100.6,588.6,100.6,588.6,100.4,588.3z
			"/>
		<path d="M102.9,584.4c-0.7-0.5-1.4-0.6-2.1,0C101.6,583.1,102.1,583.1,102.9,584.4z"/>
		<path d="M185.6,215.9c1-0.8,1.4,0,1.7,1C186.7,216.6,186.1,216.3,185.6,215.9z"/>
		<path d="M184.7,216.9c0-0.6,0.2-0.9,0.9-1C185.4,216.4,185.1,216.7,184.7,216.9z"/>
		<path d="M195.9,220.5c-0.2,0.1-0.6,0.3-0.9,0.5c0.4-1.3,0.4-2.7,0-3.9C196.3,217.9,195.8,219.2,195.9,220.5z"/>
		<path d="M92.7,564.8c0.1,0.1,0.2,0.3,0.4,0.5C93,565.1,92.8,564.9,92.7,564.8z"/>
		<path d="M92.7,561.3c0.1-0.1,0.2-0.3,0.4-0.5C93,560.9,92.8,561.1,92.7,561.3z"/>
	</g>
	<text transform="matrix(0.8047 1.020288e-02 -8.060924e-03 1 164.1003 74.4815)" class="st1 st2 st3">Lab HES</text>
	<text transform="matrix(1.001855e-02 -1.2425 0.9999 1.268068e-02 186.9436 174.254)" class="st1 st2 st4">Ruang Dosen</text>
	<text transform="matrix(1.001855e-02 -1.2425 0.9999 1.268068e-02 185.7389 323.6041)" class="st1 st2 st4">Ruang Dosen</text>
	<text transform="matrix(1.001855e-02 -1.2425 0.9999 1.268068e-02 101.1759 690.1564)" class="st1 st2 st4">Ruang Dosen</text>
	<text transform="matrix(0.8047 1.020333e-02 -8.061292e-03 1 79.3255 442.0575)" class="st1 st2 st3">Lab IoT</text>
	<text transform="matrix(0.8047 1.020333e-02 -8.061292e-03 1 75.4388 717.9454)" class="st1 st2 st3">Lab NOS</text>
	<text transform="matrix(0.8047 1.020333e-02 -8.061292e-03 1 157.4482 354.2137)" class="st1 st2 st3">Lab Foresty</text>
	<text transform="matrix(0.8047 1.020333e-02 -8.061292e-03 1 59.0256 760.4375)" class="st1 st2 st5">Arah GSG</text>
	<text transform="matrix(0.8047 1.020333e-02 -8.061292e-03 1 190.6513 35.0949)" class="st1 st2 st5">Arah Parkiran</text>
	<text transform="matrix(1.001855e-02 -1.2425 0.9999 1.268068e-02 102.3703 539.0527)" class="st1 st2 st4">Ruang Dosen</text>
	<text transform="matrix(0.6863 1.020293e-02 -6.875441e-03 1 73.4045 397.561)" class="st1 st2 st6">Ruang Sidang</text>
</g>
</svg>
