<?xml version="1.0" encoding="utf-8"?>
<!-- Generator: Adobe Illustrator 22.1.0, SVG Export Plug-In . SVG Version: 6.00 Build 0)  -->
<svg version="1.1" id="Layer_1" xmlns="http://www.w3.org/2000/svg" xmlns:xlink="http://www.w3.org/1999/xlink" x="0px" y="0px"
	 viewBox="0 0 268.1 784" style="enable-background:new 0 0 268.1 784;" xml:space="preserve">
<style type="text/css">
	.st0{fill:none;stroke:#000000;stroke-width:0.3;}
	.st1{opacity:0.5;enable-background:new    ;}
	.st2{font-family:'ArialMT';}
	.st3{font-size:11.9629px;}
	.st4{font-size:11.9442px;}
	.st5{font-size:6.6459px;}
	.st6{font-size:11.5286px;}
</style>
<title>EditDenahSVG4</title>
<g>
	<g>
		<g>
			<g>
				<path d="M95,0c-3.1,0-3.1,0-3.1,3c0,0.3,0,0.7,0,1c-0.1,11.9-0.3,24.2-0.4,35.9c0,1.4-0.1,2.9,0,4.2c0.1,0.9,0.8,1.7,1.7,1.8
					c2.7,0.1,5.5,0.1,8.3,0.1c2.3,0,2.3,0.1,2.3,2.3c0,0.3,0,1.3,0,1.3l-0.9,122.6c0,0,0,1,0,1.5c-0.1,1.6-0.1,1.7-1.8,1.7
					c-2.6,0-5,0-7.6-0.1c-3.6,0-3.6,0-3.7,3.4c-0.3,20.6-0.4,41.2-0.6,61.8c0,0.5,0,0.7,0,1.3c0.1,1.7,0.4,2,2.3,2
					c2.4,0.1,4.8,0,7.2,0.1c1.8,0,3.5,1.6,3.5,3.4c-0.4,39.6-0.8,79.1-1.3,118.7c0,3.5,0.3,3.3-3.8,3.3c-24.7-0.2-49.5-0.5-74.2-0.7
					c-3.4,0-3.4,0-3.5,3.4c0,0.5,0,0.8,0,1.3l-0.9,82c-0.4,27.5-0.6,54.9-0.9,82.4c0,0.7,0,1.3,0,2c-0.1,1-1,1.9-2.2,1.8
					c-4,0-7.9-0.1-11.9-0.1c-2.6,0-2.6,0-2.8,2.4c-0.3,21-0.5,42-0.6,63.1c0,2.5,0.3,2.6,3.1,2.7c3.7,0,11.6,0,11.6,0s2.6,0.2,2,2.9
					v0.5c0.2,40.3-0.3,80.6-0.9,120.8v1.7c0.3,0.9-1,1.5-1,1.5h-3c0,0-5-0.4-7.3-0.4c-3.7,0-3.7-0.4-4.2,2.3v0.5
					c0.4,14,0.2,28.1,0,42.1v1.5c0.1,0.8,1.3,1.4,1.3,1.4h2.1c0,0,24.5,0,36.8,0.2c30,0.3,60,0.6,90,0.9c3,0,3,0,3.2-3
					c0-0.1,1.1,0,0.6,0V741c0.7-0.5,0.7-1,0.6-1.5c-0.1-1.6-0.4-1.9-2-2c-2.1-0.1-4.1,0-6.2-0.1c-4,0-3.7,0.3-3.7-3.5
					c0.4-40.2,1.2-120.5,1.2-120.5s0,0.3,0-0.2c0.1-1.7,0.1-1.8,1.8-1.8c2.7,0,5.4,0.1,8.2,0.1c3.7,0,4-3.4,4-3.4s0.4-43,0.6-64.2
					c0-0.4,0,0,0-0.5c0-1.9-0.1-2-2.1-2c-2.6-0.1-5,0-7.4-0.1c-4,0-3.2,0.2-3.4-4.6c-0.7-39.2,0.1-78.4,1.2-117.6
					c0.1-4.5-0.6-4.2,3.5-4.2c29.1,0.3,58.4,0.6,87.5,0.9c0.7,0,1.4,0,2.1,0c1.8,0,2-0.1,2.1-2c0.1-3.6,0.1-7.3,0.1-10.9
					c0.1-10,0.3-19.9,0.3-30c0-2.5,0-2.5-2.6-2.5c-3.1,0-6.3-0.1-9.5-0.1c-2.7,0-2.7,0-2.8-2.8c0-0.3,0-0.8,0-0.8
					s0.6-79.8,0.9-119.9v-1.5c0.2-1.9,0.4-1.9,2.4-2.2h11.3c2.3,0.4,2.6,0.2,2.7-2c0.3-21.2,0.4-42.5,0.6-63.6
					c0-2.2-2.3-2.5-2.3-2.5h-11.7c0,0-2,0-2.1-2v-1c0.4-40.7,0.8-81.1,0.9-121.9v-1.7c0.4-0.8,1.7-1.8,1.7-1.8h3.2
					c0,0,4.1,0.6,6.2,0.6c4.3-0.2,4.3,0.5,4.5-2.3v-0.5c-0.1-13.4,0.2-26.9,0.9-40.3V3.4c-0.6-0.8-1.9-1.5-1.9-1.5s-2.3,0-3,0
					c-12.6-0.1-25.1-0.2-37.5-0.4C155.1,0.6,125,0.3,95,0z M112.1,411.3c0.3,0.7,0.3,1.1-0.6,1.2c-0.6,0.1-1.2,0-1.7,0
					c-0.8,0-1.2-0.5-1.2-1.3c-0.3-1.8,0-2.3,1.6-2.7c-0.3-0.4-0.6-0.5-1.1-0.6c-1.1-0.4-1.5,1.1-1.5,1.1s0,0,0,0.3
					c-0.2,3.1,0.2,2.7-3.2,2.8c-0.3,0-0.6,0-0.9,0c-2.5-0.2-2.6,0-2.6-2.2c0.1-6.3,0.1-12.7,0.2-19.1c0-0.6,0-1.1,0-1.6
					c0-1.7-0.4-2.1-2.1-2c-1.3,0.2-2.3-0.6-3.6-0.4c0.9,0.8,2.3,1,3.3,1.4c2.3,0.8,1.1,2.7,0,9.1c-0.6,3.5-0.3,7.1,0.6,10.5
					c0.9,3.4,0.6,4.5-1.3,4.4c-0.6,0-1.1,0-1.6,0c-23.8-0.2-47.6-0.5-71.5-0.7c-3.5,0-3.2,0-3.2-3.2c0.1-11.5,0.3-23.1,0.3-34.6
					c0-0.5,0-1,0-1.5c-0.1-1,0.4-1.6,1.6-1.5c0.6,0,1.8,0,1.8,0s47.6,0.8,71.3,1h0.6c2.7,0,2.7,0,2.7,2.5c0,0.9-0.1,1.9,0,2.7
					c0.1,1.3-0.6,1.8-1.7,2.1c-1.7,0.4-3.5,0.2-5.1,0.1c-3.2,0-3.9-0.2-2.7,3.7c0.1,0.3,0.4,0.5,0.6,0.8c-0.4-3-0.4-3,2.8-3
					c1.7,0,3.6,0,5.3-0.3c1.6-0.3,1.7-1,1.6-2.7c-0.1-0.6-0.1-1.2,0-1.8c0.3-3.9-0.3-4,2.1-4.1h0.7c3.7,0,3.7,0,4,3.5
					c0.1,1.5,0.1,1.5,1.6,1.1c-0.6-0.4-0.6-1-0.4-1.6c0.1-1,0.3-2,0.3-3c0-0.5-0.4-1.3-0.3-1.7c0.6-0.6,1.5-0.3,2.2-0.2
					c1.7,0,3.6,0,5.5,0.1c0.7,0,1.2,0.3,1.1,1.1c-0.4,1.2-0.4,2.5-0.4,3.6c0,1-0.7,1.3-1.5,1.3c0.3,0.4,0.6,0.5,1.1,0.7
					c0.9,0.4,1.5,0.1,1.6-0.9v-0.5c0.2-3.3,0.2-3.3,3.5-3.3c31.3,0.3,62.5,0.6,93.9,0.9c3.8,0,3.5-0.2,3.4,3.5
					c-0.1,11.3-0.7,33.9-0.7,33.9v1.5c0,0,0.4,1.7-1.6,1.3h-1.2c-31.5,0.2-62.8-0.1-94.2,1h-0.7c-2.7-1.4-2.7-1.4-2.7-3.8
					c0-0.8,0.4-1.9-0.4-2.3c-0.8-0.3-2.1,0.1-2.7,1.2c0.7,0.2,1.7-1.1,2,0.6c0.3,1.7-0.1,2.7-1.1,2.9c-1.4,0.3-2.1-0.1-2.6-1.5
					c-0.9-0.9-1.4-2.4-3-2.6C110.6,409.5,111.7,410,112.1,411.3z M119.4,370.5c0.1-0.9,1.2-0.5,1.8-0.6c0.3,0,0.7,0,1.1,0.1
					c0.4,0.1,0.8,0.3,0.7,0.8c-0.1,0.4-0.3,0.5-0.7,0.6c-0.4,0.1-0.7,0.1-1.1,0.1C120.6,371.2,119.4,371.7,119.4,370.5z
					 M104.5,412.9c0.8,0.2,2.2-0.3,2.2,0.8c0,1.1-1.2,0.7-2.1,0.7c-0.9,0-2.1,0.4-2.1-0.8C102.4,412.4,103.8,413.2,104.5,412.9z
					 M101.7,426.4c0,0.5-0.1,1.1-0.7,1.1c-0.7,0-0.7-0.6-0.7-1.1c0-3.4,0.1-6.8,0.1-10.3c0-0.5,0.3-1,0.3-1.5s0.1-1.2,0.7-1.1
					c0.7,0.1,0.3,0.8,0.3,1.3c0,1.8,0,3.6-0.1,5.5l0,0C101.7,422.4,101.7,424.4,101.7,426.4z M22.8,456.7c-2.8,0-2.8,0-2.8-2.8
					c0.1-12.7,0.3-25.6,0.4-38.6c0-0.5,0-1.6,0-1.6s0.4-1.3,1.2-0.8h2.1c24.2-0.3,48.5,0,72.7,0.2c1.1,0,2.2-0.6,3,0.6
					c-0.9,0.7-1.8,0.4-2.8,0.4c-23.9-0.2-47.7-0.5-71.6-0.7c-3.7,0-3.5-0.2-3.5,3.4c-0.1,11.6-0.3,23.2-0.2,34.8v2
					c-0.2,0.9,1.3,1.8,1.3,1.8h1.7c0,0,48.3,0.2,72.3,0.4c3.2,0,3.2,0,2.7-3.1v-10.1c0.6-0.6,0.6-1.1,0.7-1.7c0-0.2,0.3-0.4,0.6-0.5
					c0.4-0.1,0.7,0.1,0.7,0.5c0.1,0.6-0.3,1.7-0.3,1.7s-0.1,7.8-0.1,11.7c0,2.8,0,2.8-2.8,2.8c-12.7-0.1-25.3-0.3-38-0.4
					C47.7,456.9,35.3,456.8,22.8,456.7z M100.2,458.2c0.6,0,0.6,0.4,0.7,0.9c0,1.7,0,3.5-0.1,5.1c0,1.7,0,3.5-0.1,5.1
					c0,0.5-0.3,0.9-0.7,0.9c-0.6,0-0.6-0.4-0.7-0.9c0-3.5,0.1-6.9,0.1-10.5C99.5,458.6,99.7,458.2,100.2,458.2z M23.4,498.8h-1.5
					c-2.3,1-2.3,1-2.3-1.2c0.1-12.7,0.3-25.4,0.4-38.2c0-0.5,0-1,0.1-1.5c0-0.2,0.3-0.5,0.6-0.4c0.1,0.1,0.3,0.2,0.3,0.3
					c0.1,1.3,0.1,2.7,0,3.9c-1.2,10.2-1.6,20.4-0.3,30.6c0.1,1.3,0,2.5,0.1,3.7C20.7,498.4,20.9,498.6,23.4,498.8
					c10.4,0,20.7,0.1,31.1,0.2c13.8,0.1,27.7,0.3,41.5,0.8h1.2c2.1-0.4,2.2-0.5,1.9-2.5v-11.5c0.4-0.7,0-2.1,1-2.1
					c1.4,0,0.8,1.4,0.8,2.2c0,3.9,0,8.1-0.1,12c0,2.5,0,2.5-2.6,2.5c-12.8-0.1-25.4-0.3-38.2-0.4C47.9,500.1,35.7,500,23.4,498.8z
					 M100.1,501c0.7,0,0.7,0.5,0.7,1.1c0,1.7,0,3.5,0.2,5.1l0,0v4.8c-0.3,0.5-0.4,0.9-1.1,0.9c-0.6,0-0.7-0.4-0.7-0.8v-10.4
					C99.4,501.5,99.5,501,100.1,501z M19.4,540v-14.3c-0.1-7.7,0.1-15.4,0.1-23.1c0-0.6-0.3-1.7,0.4-1.7c1.1,0,0.6,1.2,0.6,1.8
					c-0.1,12-0.3,24.2-0.4,36.1c0,3.5,3.4,3.4,3.4,3.4h72.1c0,0,0.6,0.6,0.7,0.6c2.7,0,2.7,0,1.9-2.4l0.9-10.6v-1.5
					c0,0-0.3-1.3,0.6-1.3s1.2,1.4,1.2,1.4v13.8c0,0-1.1,1.7-2.4,1.7c-0.7-0.1-1.4,0-2.1-0.8h-37c-12.4,0.3-24.9,0.2-37.4,0
					C19,543,19,543.2,19.4,540z M4.9,608.6c-2.4,0-2.6,0-2.4-2.4C2.6,597,3,578.8,3,578.8l0.7-3.6v-29.9c0.4,0-0.6-1.3-0.6-2
					c0-0.9,0.4-1.4,1.4-1.1H17c0.3-0.2,0.7-0.2,0.7,0.3c0,0.5-0.4,0.5-0.7,0.5c-2.8,0-5.6-0.1-8.5,0c-0.7,0-1.6-0.1-2.3,0
					c-1.6,0.1-1.8,0.4-2,2c0,0.5,0.1,1.5,0.6,1.5v57.7c-0.5,0-1.4,0.9-1.3,1.3c0,2,0.3,2.3,2.4,2.3c3,0.1,6.1,0.1,9.1,0.1
					c0.6,0,1.2,0.1,1.7,0.2c0.1,0,0.3,0.2,0.3,0.3s-0.1,0.3-0.3,0.3c-0.6,0.1-1.1,0.1-1.5,0.1C11.8,608.7,8.3,608.7,4.9,608.6z
					 M94,557.4c-0.8,7.8,1.4,5.9-5.5,6.5c-0.1,0-0.3,0-0.3,0c-1.2-0.3-2.2,0.1-2,1.1c0.3,1.2,0.3,2.5,1.5,3.4
					c-0.9-3.5-0.9-3.5,2.7-3.5c1.5-0.1,3,0.6,4.4-0.2c0.6-0.4,1,0.4,0.9,1.1c0,1.5,0,2.9,0,4.3c0.2,0.8-0.2,0.9-0.8,1
					c-1.4,0.2-2.7,0.1-4-0.5c-0.6-0.3-1.2-0.7-1.8-0.7c0.6,1.3,2,1.4,3.2,1.8c1.2,0.5,1.7,1.8,1.2,3c-0.3,0.5-0.6,0.6-1.1,0.6
					c-0.7,0-1.4,0.1-2.1,0c-27.4-0.3-54.9-0.5-82.4-0.8c-3.5,0-3.2,0.2-3.2-3.5c0.1-7.9,0.3-15.8,0.3-23.8c0-0.5,0-1,0-1.5
					c0.1-1.5,0.3-1.6,1.8-1.7c0.6,0,1.1,0,1.5,0c27.4,0.3,54.7,0.5,82.2,0.8c4.6,0,2.8-0.4,3.5,7.8C94.2,554.4,94.2,555.9,94,557.4z
					 M95.8,545c0.3,0,0.6,0.2,0.6,0.4c0.1,0.4,0.1,0.8,0.1,1.2c0,4.6-0.1,9.4-0.1,14c0,0.6,0.3,1.6-0.7,1.6c-0.9,0-0.7-0.9-0.7-1.6
					c0-2.3,0-4.6,0.1-7c0-2.3,0-4.4,0.1-6.7c0-0.5,0.1-1,0.1-1.5C95.3,545.2,95.7,545,95.8,545z M87.6,581.7c-2.1,0-2.2,0.4-1.5,2.6
					c0-0.9,0.3-1.5,1.5-1.6c2.5-0.1,5,0.3,7.3-0.2c0.6-0.1,0.8,0.3,0.8,0.7c0,2.1,0,4-0.1,6.2c0,0,0,0.1-0.1,0.1c-1.5,0-2.8,0-4.2,0
					c3.3,1.7,1.5,0.7,2.4,10.7c0,0.1,0-0.3,0-0.3s0.7,8.3-2.5,8.4c-5.6-0.1-11.4-0.1-16.9-0.2c-22.3-0.2-44.4-0.4-66.6-0.7
					c-3.2,0-3.2,0-3.2-3.2c0.1-8.2,0.3-16.3,0.2-24.4v-1.7c0.1-0.9,0.6-1.3,1.6-1.5H8c27.5,0.5,82.6,1,82.6,1s0.6,0,0.8,0
					c2.2,0.1,2.3,0.2,2.2,2.3c-0.1,1.7-0.1,1.8-1.8,1.9C90.5,581.7,89,581.6,87.6,581.7z M94.9,590.7c0.3,0,0.6,0.2,0.6,0.4
					c0.1,0.4,0.1,0.8,0.1,1.2c0,4.6-0.1,9.4-0.1,14c0,0.6,0.3,1.6-0.7,1.6c-0.9,0-0.7-0.9-0.7-1.6c0-2.3,0-4.6,0.1-7
					c0-2.3,0-4.4,0.1-6.7c0-0.5,0.1-1,0.1-1.5C94.5,590.9,94.8,590.7,94.9,590.7z M94.6,580.2c0-1.3,0-2.7,0-3.8c0-1.1,0-2.3,0-3.5
					c0-0.4,0.3-0.6,0.7-0.6c0.3,0,0.7,0.3,0.6,0.6c0,2.5,0,4.8-0.1,7.4c0,0.4-0.3,0.6-0.7,0.6C94.9,580.9,94.7,580.6,94.6,580.2z
					 M75.8,576.7c-9.1-0.1-18-0.2-27-0.3c-13.8-0.1-27.7-0.3-41.4-0.4c-0.8,0-1.7-0.1-2.6-0.2c-0.1,0-0.4-0.3-0.4-0.5
					s0.3-0.5,0.4-0.5c0.8-0.1,1.7-0.1,2.6-0.1c24.1,0.2,48,0.5,72,0l11.4,1H92c0.6-0.1,1.7-0.4,1.7,0.5c0,0.8-0.9,0.7-1.7,0.7
					C86.7,576.8,81.2,576.7,75.8,576.7z M21.2,652.6h-0.7c0,0-2-0.2-2.4-6.1c-0.6-11.1-0.6-22.2,0.3-33.3c0.4-5.6-0.7-5.7,2.7-5.7
					c12.8,0.1,25.4,0.3,38.2,0.4l0,0c12.4,0.1,24.8,0.2,37.1,0.5H98c1.7,0,1.7,0.1,1.1,1.7l0.9,11.1c0,0,0-0.1,0,0.1
					c-0.1,0.5-0.1,1.1-0.8,1c-0.6-0.1-0.6-0.5-0.6-0.9c0-2.4,0-4.7-0.1-7.2c-0.1-1,0-1.9,0.1-2.9c0.1-1.3-0.4-1.9-1.7-1.9
					c-0.6,0-1.2,0-1.7,0c-24.1-0.2-48.1-0.5-72.2-0.7c-3.2,0-3.2,0-3.2,3.1c-0.1,11.8-0.3,23.7-0.3,35.3c0,0.6,0,2.2,0,2.2
					s0.6,1.7,1.6,1.5h1.5c24.1,0.4,72.3,1,72.3,1h0.6c0,0,2.7-0.1,2.1-2.6v-11.4c0.6-0.6,0.4-1.6,1.4-1.6c0.9,0,0.7,1,0.5,1.6v13.4
					c0.2,1.9,0.1,1.9-1.8,1.9c-12.5-0.1-25.1-0.2-37.5-0.4c-0.6,0-1.2,0-1.7-0.3c-0.8-0.5-1.5-0.9-2.3-0.2c-0.1,0.1-0.3,0.1-0.3,0.1
					c-2.2-0.8-4.5,0.4-6.7,0.3C39.6,652.7,21.2,652.6,21.2,652.6z M20.7,696c0,0-1.3,0-1.8,0c-0.8,0-1.3-0.5-1.3-1.4
					c0-0.4,0-0.8,0-1.3c0.1-12.4,0.2-24.9,0.4-37.4c0-0.7-0.4-2.1,0.5-2.1s0.4,1.3,0.4,2.1c-0.1,11.5-0.2,23.1-0.3,34.5
					c0,0.7,0,0.6,0,1.3c0.1,1.6,0.4,1.9,2,2c0.6,0.1,1.1,0,1.5,0c24.1,0.2,48.2,0.5,72.2,0.7c1.7,0,3.2-1.4,3.2-3.1
					c0-3.3,0-10.1,0-10.1s0-1.1,0-1.7c0-0.2,0.3-0.5,0.6-0.5c0.4-0.1,0.7,0.1,0.7,0.5c0.1,0.5,0.1,1,0.6,1.5v12.5
					c-0.6,2.3-0.6,2.3-3.1,2.3c-12.9-0.1-25.5-0.3-38.4-0.9L20.7,696z M17.1,735.8c0-0.7-0.1-1.3,0-2c0.1-5.8,0.1-11.7,0.3-17.6
					c0.1-5.7,0.1-11.4,0.2-17.1v-2c0-0.3,0.1-0.8,0.5-0.8c0.6-0.1,0.6,0.5,0.6,0.9c0.1,0.6,0,1.1,0,1.7c-0.1,9-0.3,17.8,0,26.8v8.4
					c-0.4,0.6-0.4,1.1-0.5,1.7c0,0.3-0.1,0.5-0.6,0.5C17.2,736.4,17.1,736.1,17.1,735.8z M101.3,735.7c-2,0-2-0.1-2-2
					c0-4,0.1-8.3,0.1-12c0-1.8,0-1.7-1.8-2.3c-1.3-0.4-2.5-0.2-3.8-0.3c-0.6,0-1.1,0-1.6-0.5c-0.7,0.6-0.6,1.2,0.3,1.3
					c1,0.2,1.8,0.2,2.8,0.1c1.4,0,1.9,0.6,1.3,3c0,2.9-0.1,6.9-0.1,10.1c0.6,2.3,0.4,3.5-1.1,3.5c-0.6,0-1.4,0-2,0
					c-23.3-0.2-46.5-0.5-70-0.7c-3.6,0-3.2,0.2-3.2-3.4c0.1-11.4,0.3-22.9,0.3-34.3c0-0.5,0-1,0-1.5c-0.1-1.1,0.4-1.7,1.7-1.6
					c0.6,0,1.7,0,1.7,0s46.5,0.3,70,0.5c4,0,3.2-0.3,3.8,4.6v3.9c-0.6,4.2-0.1,4.2-3.1,4.7h-0.6c-0.8-0.3-1.7-0.8-2.3,0.2
					c-0.4,0.9,0,1.7,0.8,2.4c-0.1-1.3,0.7-1.5,1.7-1.5c1.5,0.1,2.8,0,4.3-0.4c0.8-0.3,0.6-1.4,0.6-1.4l1.2-1.5l0.3-25.8
					c-0.1-0.5-0.3-1-0.1-1.5c0-0.9-0.3-1.3-1.2-1.6c-1.4-0.4-2.8-0.4-4.1-0.5c-0.8,0-1.7,0.3-2.4-0.5c-0.7,0.7-0.6,1.3,0.3,1.4
					c1.1,0.2,2.1,0.2,3.2,0.1c1.6,0,2.1,0.6,1.4,3.4c-0.1,3.2-0.1,6.2-0.3,9.4c0.7,2.4,0.6,3.6-1.1,3.6c-0.6,0-1.2,0-1.7-0.4
					l-71.2-0.7c-3.4,0.3-3.4,0.5-3.2-2.8c0.1-11.6,0.3-23.2,0.3-34.8c0-0.6,0-1.1,0-1.7c0-0.9,0.4-1.4,1.4-1.4c0.4,0,0.9,0,0.9,0
					s18.4,0.5,27.4,0.6c0.7,0,1.5-0.1,2,0.4c0.3-0.1,0.7-0.1,1.2-0.1c0.1,0,0.3,0.1,0.4,0.1c-0.1-0.1-0.1-0.1-0.1-0.1
					c0.1-0.1,0.3-0.1,0.4-0.1c0.1,0,0.1,0.1,0.3,0.1c-0.1,0.1-0.3,0.1-0.4,0.1c0.3,0.1,0.7,0.1,1.1,0.1c0.3,0,0.6,0.1,0.7,0.1
					l0.3,0.1c0.6,0.1,1.2,0.1,1.8,0.3c0.6-0.9,1.4-0.9,2.3-0.8c6.5,0.1,12.9,0.1,19.4,0.2c5.2,0.1,10.6,0.1,15.8,0.2
					c2.3,0,2.3,0.1,2.3,2.3v8.6c-0.1,2.1-0.2,2.1-2.4,1.8h-1.1c-0.8,0.5-1.8,0-2.3,1c-0.4,0.9,0,1.7,0.8,2.4c0-1.9,0-1.9,2-2
					c1.1,0,2.2,0.1,3.2-0.2c1.8-0.4,1.5-2.2,1.5-2.2v-12.3c0,0,0.6-10.9,0.8-16.4c0-2,0-1.9-2-2.5c-1.4-0.4-2.7-0.2-4.1-0.3
					c-0.6,0-1.2,0-1.7-0.5c-0.7,0.7-0.6,1.3,0.3,1.4c1.1,0.2,2.1,0.2,3.2,0.1c1.6,0,2.1,0.6,1.4,3.3c-0.1,3.1-0.1,6.1-0.3,9.3
					c0.7,2.4,0.6,3.5-1.1,3.5c-0.6,0-1.5,0.1-1.5,0.1S46.3,651,22.5,651h-1.1c-1.8-0.3-2-0.4-2-2.3c0.1-5.4,0.1-10.7,0.3-16.1
					c0.1-6.7,0.1-13.3,0.3-20.1c0-2.4,0-2.4,2.4-2.4c24.2,0.2,48.5,0.5,72.7,0.7c2.2,0,2.3,0.1,2.1,2.3v8.6c0,2.1-2.2,2.8-2.2,2.8
					s-0.2,0-0.5,0c-0.8,0.1-1.7-0.4-2.2,0.6c-0.4,0.9,0,1.7,0.8,2.4c0-1.9,0-1.9,1.6-2c1.3,0,2.7,0,3.9-0.2c0.8-0.2,1.3-0.9,1.3-1.6
					l0.1-13.1c0-1.2-0.5-1.7-1.6-1.6c-0.4,0-0.8,0-1.2-0.1c-0.7-0.1-1-0.5-1-1.2c0-0.6,0-2.3,0-2.3v-57.6c0,0,0-0.3,0-0.9
					c-0.1-1.1,0.4-1.7,1.7-1.8c2.8-0.2,2.9-0.3,2.9-3.1c0-5.1,0.1-9.2,0.1-14c0-2.2-0.4-2.7-2.8-2.8c-1-0.1-1.9,0-3,0
					c-1.7,0-1.7,0-1.7-2.1c-0.6,0.3-0.8,0.9-1,1.6c-0.3,0.9,0.1,1.6,1.1,1.7c1,0.1,1.9,0.1,3,0c1.3,0,1.8,0.5,1.6,2.4
					c0,3.6-0.1,7.5-0.1,10.9c0.3,1.7,0.1,2.8-1.4,2.7c-0.6,0-1.1,0-1.5,0c-23.8-0.2-47.6-0.5-71.3-0.7c-3.2,0-3.2,0-3.2-3
					c0.1-11.4,0.3-22.7,0.3-34.1c0-0.4,0-1.8,0-1.8s0.1-1.7,1.7-1.9h0.3c9.5,0.1,19.1,0.2,28.6,0.3c1.1,0,1.7,0.2,1.7,1.2
					c0.3-0.1,0.6-0.1,0.9-0.1l0,0c0,0,0.7,0.9,1.1,0.8c0.3-0.1,0.6-0.1,0.7-0.1c0-0.1,0-0.1,0.1-0.2c0.1,0.1,0.1,1,0.1,1h0.1
					c0,0,1.2-1.1,1.8-1.1c0.3,0,0.4,0,0.6,0.1c0.3-0.3,0.7-0.4,1.2-0.4c2.3,0,4.7,0,7,0.1c9.1,0.1,27.5,0.3,27.5,0.3
					s1.2-0.3,1.7-0.3c1.2-0.1,1.7,0.6,1.7,1.7v9.6c-0.1,1.7-0.2,1.7-2.1,1.8c-0.9,0.1-1.8-0.1-2.8,0.1c-0.9,0.2-0.9,0.8-0.3,1.4
					c0.3-0.4,0.9-0.5,1.4-0.3h2.6c3.5-0.3,3.8-0.6,3.8-3.8c0.1-9.1,0.3-18,0.3-27c0-2.9-0.3-3.1-3-3.4c-0.9-0.1-1.8,0-2.8-0.1
					c-1.2-0.1-1.5-0.5-0.8-1.6c0.3-0.5,0.6-0.9,0.6-1.3c-0.6,0.2-0.9,0.5-1.2,0.9c-0.4,0.9-1.2,1.8-0.7,2.8c0.4,1,1.7,0.8,2.6,0.8
					c2.8,0.1,3.8,2.8,3.8,2.8v10.8c0,0-1,2-3,2c-12.4-0.1-24.8-0.2-37.1-0.4c-0.7,0-1.2-0.1-1.6-0.3c-0.6,0.2-1.5-0.3-1.5-0.9h-1.2
					c-0.4,0.6-0.7,0.5-1.1,0.4c-0.4-0.1-0.7-0.1-1.2-0.3c-0.1,0-0.1,0-0.1-0.1c-0.3,0.3-0.7,0.5-1.5,0.5c-5.1-0.3-15.4-0.5-15.4-0.5
					s-7.6-0.1-11.6-0.1c-2.4,0-2.4-0.1-2.3-2.4c0.1-10.2,0.3-20.3,0.3-30.6c0-1.7,0-3.5,0.1-5.4c0.1-2,0.1-2,2.3-2
					c0.3,0-0.7,0-0.3,0c24,0.2,47.7,0.5,71.7,0.7c3.8,0,3.1,0,3.1,4.2c0,1.7,0,3.4-0.1,5c-0.1,3.8,0.3,3.8-2.8,3.8
					c-0.6,0-1.4-0.1-2,0c-0.9,0.2-0.9,0.8-0.3,1.4c0.3-0.4,0.8-0.5,1.4-0.5c0.8,0,1.7,0,2.6,0c3.5-0.1,3.9-0.4,3.9-3.7
					c0.1-9.1,0.3-18.3,0.3-27.4c0-3-0.3-3.2-3.1-3.5c-0.9-0.1-1.9,0-2.9-0.1c-1.3-0.1-1.5-0.5-0.8-1.6c0.3-0.5,0.6-0.9,0.6-1.3
					c-0.6,0.2-0.9,0.5-1.2,0.9c-0.4,0.9-1.2,1.8-0.8,2.9c0.4,1,1.6,0.7,2.6,0.8c2.9,0.1,2.9,0.1,2.9,2.9c0,3.6-0.1,8.4-0.1,11.9
					c0,1.9-0.1,1.9-2.1,2c-2,0-3.9,0-5.9-0.4l-65-0.6c-0.6,0.3-1.1,0.3-1.5,0.3c-2.6,0-2.7,0-2.6-2.5l0.3-35c0-1.5,1.4-2.7,2.9-2.7
					l66.9,0.7c1.7,0,3.6,0,5.4,0.1c1.5,0,1.7,0.7,1.5,2.4c0,2.9,0,5.8,0,8.9c0.1,1.3-0.4,1.8-1.7,1.8c-0.8,0-1.7,0-2.4,0
					c-1.7,0-2.1,0.5-1.6,2c0.1,0.4,0.4,0.7,0.8,1c-0.1-1,0.4-1.5,1.6-1.5c1.5,0,2.8,0,4.2-0.3c1.3-0.3,1.7-0.8,1.7-2
					c0-3,0.9-9.5,0.9-9.5v-1.7c-0.8-0.9-0.3-1.3,0.6-1.9h2.3c0.8,0.6,1.7,0.6,2.1-0.4c0.3-0.8,1.1-1,1.8-1c1.8,0,3.8,0,5.6,0.1
					c0.6,0,1.4,0,1.2,0.8c-0.1,1.2,1.4,1.5,1.4,1.5s1.4,0,2.4,0c1.1,0,1.6,0.4,1.6,1.5c0,0.7,0,1.5,0.3,2.3L120,541.6
					c-0.3,3.7-0.3,3.7,3.5,3.7c2.4,0,4.7,0,6.9,0.1c2,0,2.1,0.1,2.1,2.1c0,0.3,0,0.7,0,1l-0.6,56c0,1.7-1.5,3.1-3.3,3l-6.1-0.1
					c-2.9,0-2.9,0-2.9,2.9c0,0.5,0,1,0,1.5c-0.4,40.6-0.8,81-1.3,121.7c0,3.5,0.3,3.3-3.3,3.3C111.5,735.8,106.4,735.7,101.3,735.7z
					 M98.4,735.6c0,0.5,0.1,1.2-0.6,1.3c-0.7,0.1-0.6-0.7-1.4-1.1v-1.1l0.9-8.7v-0.9c-0.2-0.5-0.5-1.4,0.4-1.5
					c0.8-0.1,0.6,0.8,0.7,1.4c0.1,1.2-0.3,2.5,0.7,3.5c-0.6,1.1-0.3,0.5-0.7,1.7l0,0C98.4,732,98.4,733.8,98.4,735.6z M98,697.1
					c0.6,0,0.6,0.4,1.2,0.9v10.5c-0.6,0.5-0.8,0.9-1.4,0.9s-0.6-0.4-0.6-0.9c0-1.8,0-3.6,0.2-5.5V698
					C97.4,697.5,97.6,697.1,98,697.1z M56.7,653.5c0,0.1,0,0.3,0.1,0.4c-0.1,0-0.3,0-0.4-0.1c0,0-0.1-0.1,0-0.2
					C56.3,653.5,56.5,653.4,56.7,653.5z M98.6,653.9c0.6,0,0.6,0.4,0.6,0.9c0,3.5-0.1,6.9-0.1,10.5c0,0.5-0.3,0.9-0.7,0.9
					s-0.6-0.4-0.6-0.9c0-1.7,0-3.5,0.1-5.1c0-1.7,0-3.5,0.1-5.1C98,654.3,98.2,653.9,98.6,653.9z M100.2,482.8l-0.3-0.1l0.3-0.1
					V482.8z M101.1,439.7v-0.2l0.3,0.1L101.1,439.7z M105.2,738.4c2.1,0,4.3,0,6.4,0.1c1.7,0.1,1.8,0.4,1.5,1.8
					c-0.3,0.9-0.3,1.8-0.3,2.7c-0.1,1.8-0.1,1.8-2.1,1.5c0.4,1.2,1.7,1,2.7,1.2c0.6,0.1,0.9-0.5,0.9-1c0.1-0.8,0.1-1.7,0.1-2.5
					c-0.1-1.4,0.7-1.9,2.7-1.5c3.7,0.7,7.5,0.7,11.1,0.1c2.1-0.3,3.2,1.5,3.2,1.5v1.5V780c0,0,0,0.8,0,1.4c0,0.7-0.6,1.4-1.5,1.4
					c-0.6,0-1.2,0-1.7,0c-40.8-0.4-81.7-0.8-122.5-1.2c-1.7,0-3.3-1.4-3.2-3.2c0.1-12,0.2-24.1,0.4-36.1c0-0.6,0-1.1,0-1.7
					c0-0.9,0.6-1.3,1.5-1.3c0.6,0,1.7,0,1.7,0s62.6,0.7,94,1h1.5c0.9,0,1.4,0.5,1.5,1.4v2.7c-0.1,1.1,0.4,1.2,1.4,1
					c1.2-0.3,2.6-0.8,3.2-2c0.7-1.1,1.2-0.5,2.1-0.1c-0.1-0.4-0.3-0.8-0.3-1.2c-0.3-0.6-0.6-1.2-0.8-1.8c-0.6,0.4-0.3,1.2-0.7,1.7
					c-0.3,0.5-0.6,1-1.1,1.4c-0.6,0.6-1.4,1.3-2.1,1c-0.8-0.3-0.4-1.3-0.4-2c-0.1-0.8,0-1.7-0.3-2.5
					C103.6,738.5,103.7,738.5,105.2,738.4z M218.9,370.9c2.1,0,2.1,0.1,2.2,2.2c-0.1,9.1-0.7,27.2-0.7,27.2v13.3c0,0,0.3,2-1.7,2.4
					h-2.1c-29-0.6-86.6-1-86.6-1s-1.1,0-1.6,0c-3.1,0-3.1,0-3.1,3c-0.4,40.7-0.8,81.4-1.2,122.2c0,3.1,0,3.1,3,3.1
					c2.7,0,8.1,0,8.1,0s1.7,0.5,1.7,2.1v1.5c-0.2,20-0.3,40.2-0.9,60.2v1c0.3,2.2-1.9,2.3-1.9,2.3h-8.8c0,0-1.7-0.1-1.7,1.5
					c-0.1,0.7,0,1.3,0,2c-0.3,20.4-0.4,40.9-0.6,61.2c-0.3,20.3-0.4,40.7-0.6,61c0,0.9-0.3,2.1,0,2.7c0.6,0.9,2.3,0.2,3.2,0.4
					c1.7,0.4,3.4,0.4,5,0.1c1.8-0.4,2.7,0.1,2.8,1.6v1.5c-0.2,13.3,0,39.9,0,39.9s0,0.8,0,1.4c0,0.9-0.6,1.3-1.5,1.3
					c-0.6,0-1.3,0-1.7,0c-42-0.4-84.2-0.8-126.1-1.2c-3.4,0-3.2,0-3.2-3.2c0.1-13.2,0.3-26.5,0.4-39.7c0-0.6,0-1.2,0-1.7
					c0-1,0.4-1.6,1.6-1.5c0.6,0,1.7,0,2.2,0c31.7,0.3,63.2,0.6,94.7,0.9c0.8,0,2.6-0.6,2.7,0.6c0.1,0.7-1.7,0.4-2.6,0.4
					c-31.1-0.3-62.3-0.6-93.5-0.9c-3.8,0-3.8,0-3.8,3.5c-0.1,12.4-0.3,24.7-0.4,37.1c0,0.5,0,1,0,1.5c0,1.7,0.3,2.1,2,2.2
					c0.6,0,1.1,0,1.5,0c41,0.4,81.9,0.8,122.9,1.2c3.6,0,3.6,0,3.6-3.4c0.1-12.6,0.3-25.2,0.4-37.9c0-0.2,0-0.1,0-0.1
					s-0.6-2.5-3.1-3.3l-11.4,1c0,0-0.9,0-1.5,0c-0.4,0-1.1,0.1-0.9-0.5c0.1-0.5,0.7-0.4,1.1-0.5c1.2-0.1,2.8,0.6,3.7-0.4
					c0.6-0.7,0.1-2.3,0.1-3.4c0.4-40.9,0.8-81.7,1.2-122.8c0-3.7-0.3-3.5,3.7-3.4c2.3,0,4.7,0.1,7,0.1c1.8,0,2.2-0.3,2.3-2.2
					c0.1-1.3,0-2.5,0-3.6c0.3-18.2,0.4-36.4,0.6-54.6c0-0.6,0-1.2,0-1.7c0-2.2,0-2.2-2.3-2.3c-2.8,0-8.9,0-8.9,0s-2-0.7-1.7-2.6v-2
					c0-40.3,0.5-80.7,0.9-120.9v-1.5c-0.1-2.4,0.6-3.2-2.9-3c-0.3,0-0.6,0-0.7-0.1c-0.6-0.1-0.8-0.3-0.8-0.7
					c0.1-0.5,0.9-0.5,0.9-0.5h2.3c0,0,62.9,0.4,94.2,0.7c3.8,0,3.6,0.3,3.6-3.3c0.1-11.6,0.3-23.2,0-34.8v-1.3
					c0.4-2.1,0.3-2.1-1.9-1.7h-8.5c-0.7-0.6-1.8-0.3-2-1.2c-0.1-1.3,1.2-0.8,2-0.8C212.6,370.7,215.6,370.8,218.9,370.9z M206,330.3
					c0.1,0.6,0.1,1.1,0.1,1.7c-0.1,12.5-0.3,25.1-0.4,37.6v0.7c-0.1,1.7-0.1,1.7-2,1.8c-0.6,0-1.7-1.4-1.7-1.4h-37h-37.1
					c-0.6,0.7-1.2,0.6-1.7,0.7c-1.1,0.1-1.7-0.4-1.6-1.4c0-4.3,0.6-13.3,0.6-13.3v-0.3c0,0-0.3-0.7,0.3-0.7c0.1,0,0.3,0.3,0.3,0.5
					c0.1,0.6,0.1,1.1,0.4,1.7v9.6c-0.5,2.3-0.5,2.3,1.9,2.4c10.5,0.1,31.2-0.1,31.2-0.1h41.8c0,0,1.4,0.8,2.1,0.8
					c0.9,0,1.5-0.5,1.9-1.4v-2c-0.4-11.6-0.2-23.2-0.1-34.8c0-0.7,0.1-1.5,0.3-2.3c0-0.2,0.3-0.5,0.6-0.5
					C205.7,329.7,206,329.8,206,330.3z M206.5,287.6c0.1,0.6,0.1,1.1,0,1.7c-0.1,12.4-0.3,24.9-0.4,37.4c0,2.7,0,2.7-2.7,2.6
					c-8.2-0.1-16.4-0.2-24.8,0h-13.4c-12.4-0.4-24.9-0.5-37.4-1h-1.7c-0.9,0.3-1.5-0.1-1.3-1.1v-13.5c-0.1-0.3-0.1-0.8,0.3-0.8
					c0.6,0,0.6,0.5,0.6,0.9v9.6c-0.2,4.3-0.6,3.5,4.8,3.7c22.8,0.2,45.3,0.5,68.1,0.7c5.9-0.2,5.6,0.9,5.8-3.3
					c0.1-11.6,0.3-23.2,0.3-34.8c0-0.7,0-1.5,0.1-2.3c0-0.4,0.3-0.6,0.7-0.6C206.3,287,206.5,287.3,206.5,287.6z M205.1,290.3
					c-0.1,11.2-0.3,22.5-0.3,33.7c0,0.4,0,0.7,0,1.1c-0.1,2.1-0.1,2.1-2.1,2.2c-0.4,0-0.8,0-1.3,0c-23.8-0.2-47.6-0.5-71.4-0.7
					c-3.6,0-3.3,0.2-3.3-3.3c0-2.9,0.1-5.6,0.1-8.5c0-2.4,0-2.4,2.4-2.4c0.4,0,0.8,0,1.2,0c2,0,2.4-0.7,1.7-2.5
					c-0.3-0.6-0.6-1.3-1.2-1.5c0.9,3,0.9,3-2.2,3c-0.6,0-1.1,0-1.5,0c-2.6,0.2-2.9,0.5-2.9,3c-0.1,9.3-0.3,18.4-0.3,27.6
					c0,2.5,0.4,2.9,2.9,3c0.4,0,0.8,0,1.2,0c3.5,0,3.5,0,2.4,3.1c0.9-0.3,1.2-1.2,1.5-2c0.4-1.4,0-1.9-1.6-2.1
					c-1.2-0.1-2.7,0.4-3.5-0.4c-0.9-0.9-0.4-2.4-0.4-3.6c0-3,0-6,0.1-9c0-1.6,0.1-1.7,1.8-1.7c0.6,0,0.5,0,0.8,0
					c23.8,0.2,47.6,0.5,71.4,0.7c3.6,0,3.4-0.2,3.4,3.3c-0.1,11.4-0.3,22.9-0.3,34.2c0,0.5,0,1,0,1.5c-0.1,1.5-0.1,1.6-1.8,1.7
					c-0.6,0-1.1,0-1.5,0c-23.8-0.2-47.6-0.5-71.4-0.7c-3.4,0-3.3,0.2-3.3-3.1c0-3.2,0-9.8,0-9.8s0.8-1.8,2.6-2.2h2.1
					c1.5,0.2,2-0.3,1.6-1.8c-0.3-1.1-1.1-1.9-1.7-2.7c-1.1-1-1.1-1,0-2.3c-0.6,0.1-0.9,0.3-1.5,0.5c-0.7,0.3-1.5,0.5-2.1,0.7
					c0.6,0.6,1.4,0.6,2,0.9c1.2,0.6,2.2,1.6,2.8,2.8c0.3,0.6,0,1-0.6,1.1c-0.8,0.1-1.7,0-2.6,0c-0.7,0-1.6,0-2.3,0.1
					c-1.7,0.3-1.8,0.6-2.1,2.4v9.7c0.2,3.5-3.3,3.5-3.3,3.5s-9.7-0.1-14.7-0.1c-2.1,0-2.1-0.1-2.2-2.1c0-0.7,0-1.3,0-2
					c0.4-40.1,0.8-80.2,1.2-120.1c0-3.5,0.3-3.5-3.4-3.5c-2.4,0-4.8,0-7.2-0.1c-1.2,0-1.7-0.4-1.7-1.6c0-0.5,0-1.6,0-2.1
					c0.2-18.9,0.4-37.8,0.6-56.6c0-3.3-0.2-3.2,3.2-3.1c2.5,0,4.9,0,7.3,0.1c1.1,0,1.7-0.4,1.7-1.6c0-0.7,0-1.9,0-2.7
					c0.4-41.6,0.8-83.2,1.2-124.8c0-3.6-0.3-3.4,3.4-3.4c4.8,0,9.5,0.1,14.1,0.1c2.6,0,2.7,0,2.7,2.6c-0.1,12.6-0.2,25.1-0.4,37.8
					c-0.3,29-0.6,57.7-0.8,86.7c0,0.4,0,0.9,0,1.3c-0.1,1.1,0.4,1.7,1.7,1.7c0.3,0,1,0,1,0s1.7,0.1,1,1.7v1.3
					c0.6,7.2,0.6,14.4,0.5,21.7c0.4,2.7,0.5,8,0.5,8v5.3c0,0-0.4,1.3,0,2v20.4c-0.1,0-0.8,0.7-0.8,1c-0.1,2-0.1,2-2.2,2.1
					c-1.8,0.1-1.8,0.2-1.8,1.9c-0.1,4.5-0.1,9.3-0.1,13.8c0,1.2,0.3,1.7,1.6,2.1c1.5,0.3,2.8,0.3,4.3,0.4c0.7,0,1.6-0.1,1.7,1
					c0.6-1.7,0.6-1.9-0.8-2c-0.7-0.1-1.5,0-2.3,0c-1.8-0.1-2.2-1.8-2.2-1.8s0.1-7.4,0.1-11.1c0-1.1,0.4-1.7,1.7-1.7
					c0.6,0,1.1,0,1.5,0c23.6,0.2,47.4,0.5,71,0.7c3.6,0,3.2-0.2,3.2,3.4c-0.1,11.4-0.3,22.7-0.3,34.1c0,0.3,0,0.7,0,0.9
					c0,2.4,0,2.4-2.4,2.4c-0.3,0-0.7,0-1.1,0c-23.5-0.2-46.9-0.5-70.4-0.7c-3.5,0-3.2,0.2-3.2-3.2c0-2.8,0.1-5.8,0.1-8.6
					c0-2.4,0-2.4,2.4-2.4c0.4,0,1,0,1.4,0c2,0,2.4-0.7,1.7-2.5c-0.3-0.6-0.6-1.3-1.3-1.5c0.9,2.9,0.9,2.9-2.3,3c-0.6,0-1.1,0-1.5,0
					c-2.6,0.2-2.8,0.5-2.9,3c-0.1,9.2-0.3,18.3-0.3,27.5c0,2.3,0,2.3,2.2,2.8c1.4,0.3,2.8,0.1,4.1,0.2c1.2,0.1,1.5,0.5,0.8,1.4
					c-0.6,0.9-1.4,1.7-2.1,2.5c1.7-0.3,2.6-1.6,3-3c0.4-1.3,0-1.9-1.5-2c-0.7-0.1-1.5,0-2.3,0c-1.6-0.1-1.7-0.2-1.7-1.8
					c0-3.6,0.1-7.3,0.1-10.9c0-1.1,0.4-1.7,1.7-1.7c0.7,0.1,1.4,0,2.1,0c23.6,0.2,47.3,0.5,70.9,0.7
					C205.4,286.9,205.2,286.7,205.1,290.3z M125.7,329.1c0.4,0.1,0.4,0.5,0.4,0.8c0,2,0,3.9-0.1,5.9c0,1.9,0,3.7-0.1,5.7
					c0,0.3,0,0.7-0.4,0.8c-0.6,0.1-0.6-0.3-0.6-0.7c0-3.9,0.1-8.1,0.1-12C125.2,329.5,125.2,329,125.7,329.1z M205.3,47.4
					c1.2-0.1,1.7,0.4,1.7,1.6c-0.1,12.4-0.3,24.9-0.4,37.4c0,1.2-1.7,2.2-1.7,2.2s1,0,0.6,0c-24.5-0.2-49.1-0.5-73.7-0.7
					c-3.6,0-3.3,0.1-3.3-3.3c0-3,0.1-6.1,0.1-9.2c0-2.6,0-2.6,2.7-2.6c0.6,0,1.3,0,1.8,0c1.5-0.1,1.6-0.3,0.9-2.1
					c-0.1,0.9-0.8,0.9-1.6,1c-1.6,0.1-3.1-0.2-4.6,0.3c-0.8,0.3-1.1-0.3-1.1-0.9c0-2.8,0-8.2,0-8.2s0.6-1.1,1.4-0.9
					c1.7,0.4,3.4,0.2,5,0.3c0.9,0.1,1.2,0.5,0.7,1.3c-0.9,1.5-2.2,2.8-4.1,3.1c-0.3,0.1-0.6,0.2-0.7,0.3c0.3,0.1,0.4,0.3,0.6,0.4
					c0.6,0.3,1.2,0.5,2,0.4c-0.4-0.7,0.1-1,0.6-1.4c1.2-0.9,2.1-1.8,2.4-3.1c0.3-1.3,0-1.9-1.5-2c-0.9-0.1-1.8,0-2.8-0.1
					c-0.8,0-1.2-0.5-1.7-1.3V48c0.6-0.9,1.2-1.2,2-0.8h1.5c24-0.2,47.8,0.1,71.8,0.3C204.4,47.4,204.8,47.4,205.3,47.4z M127.5,89.9
					c0.6,0,0.6,0.4,0.6,0.9c0,3.4-0.1,6.8,0,10.3c0,0.6,0,1.1-0.1,1.7c0,0.5-0.3,0.9-0.7,0.9c-0.5,0-0.6-0.4-0.6-0.9
					c0-2.1,0-4,0.1-6.2c0-1.9,0-3.7,0.1-5.7C126.8,90.3,127,89.9,127.5,89.9z M131.9,159.5c1.3-0.1,1.7-0.6,1.5-1.7
					c-0.3-0.9-0.4-1.8-1.5-2.2c0.7,2.5,0.7,2.5-2.1,2.5c-0.9,0-1.8,0-2.8,0.2c-0.8,0.3-1.4-0.2-1.3-1.1c0-2.5,0-5,0.1-7.5
					c0-0.9,0.6-1.2,1.4-1c1.3,0.5,2.7,0.2,4.1,0.3s1.5,0.1,1.1,1.5c-0.1,0.3-0.1,0.7-0.3,0.9c0.9-0.3,1.2-1.2,1.5-1.9
					c0.4-1.4,0-1.9-1.6-2.1c-1.2-0.1-2.7,0.4-3.5-0.4c-1.1-0.9-0.3-2.5-0.4-3.6c-0.1-1.2-0.3-2.4-0.1-3.5c0.4-6.4-0.7-6.4,2.9-6.4
					c6.8,0.1,13.6,0.1,20.4,0.2c1.7,0,3.6,0,5.5,0.1c0.6,0,1.1,0.1,1.5,0.4c0.3,0,0.4-0.1,0.6-0.1c0.1,0,0.1,0,0.1,0
					s0.6-0.2,0.6-0.2v-0.1c0.2-0.1,0.3-0.1,0.4-0.1c0.3,0,0.3,0,0.3,0.1c0.8-0.1,1.6-0.1,2.4,0c0.6,0,1.1,0.1,1.5,0.3
					c0.3-0.4,0.7-0.5,1.2,0h1.5c12-0.4,35.7,0,35.7,0s0.2,0,0.5,0c3,0,3,0,2.9,2.8c-0.1,5.9-0.1,11.7-0.3,17.6
					c-0.1,5.8-0.1,11.4-0.3,17.2c0,2.7,0,2.7-2.7,2.6c-24.3-0.2-48.5-0.5-73-0.7c-0.4,0-0.8,0-1.3,0c-1.5,0-1.5-1.4-0.6-3.4
					c1.1-2.5,0.8-5.4-0.1-7.9c-0.7-2-0.3-2.8,0.9-2.8C130.1,159.5,131.2,159.6,131.9,159.5z M126.8,159.4l-0.3-0.1l0.3-0.1V159.4z
					 M127.5,134.1c0,2,0,3.9-0.1,5.9c0,1.9,0,3.7-0.1,5.7c0,0.5-0.1,1.1-0.8,0.9c-0.6-0.1-0.6-0.5-0.6-0.9c0-3.8,0.1-7.9,0.1-11.7
					c0-0.5,0.1-1.1,0.8-0.9C127.3,133.2,127.5,133.7,127.5,134.1z M176.8,207.7c13.8,0.1,27.7,0.3,41.4,0.4c0.8,0,1.7,0.1,2.6,0.2
					c0.1,0,0.4,0.4,0.3,0.6c0,0.2-0.3,0.5-0.4,0.5c-0.6,0.1-1.2,0.1-1.7,0.1c-28.3-0.3-56.5-0.6-85-1.5h-0.7c-0.6,0.6-1.4,0.8-1.4,0
					c0-0.7,0.7-0.7,1.2-1h0.6C148.1,207.4,162.5,207.5,176.8,207.7z M131.4,207.9c0,1,0,2,0,2.9c0,0.2-0.3,0.5-0.4,0.5
					c-0.3,0.1-0.6-0.2-0.6-0.4c0-2.1,0-4.2,0.1-6.4c0-0.2,0.1-0.5,0.6-0.4c0.3,0.1,0.4,0.3,0.4,0.5
					C131.4,205.9,131.4,206.9,131.4,207.9z M217.7,240.3c-27.7-0.3-55.3-0.5-83.1-0.8c-0.6,0-1.1,0-1.5,0c-1.2,0.1-1.7-0.6-1.7-1.7
					c0-3.5,0.1-6.8,0.1-10.5c0-1.8,0-3.6,0.1-5.5c0.1-1.9,0.1-2,2-2.1c0.9,0,1.8,0,2.8,0c2,0,2.1-0.4,1.4-2.5c0,0.8-0.3,1.5-1.4,1.5
					c-0.1,0,0.4,0,0.1,0c-4.5,0.2-5.4-0.7-4.5-5.2c0.1-0.9,0.6-1.2,1.6-0.8c0.8,0.3,1.5,0.7,2.2,0.8c-0.4-1.1-1.6-1.4-2.7-1.7
					c-1.3-0.3-1.1-1.2-1.1-2c0.1-0.9,0.8-1.1,1.6-1.1c0.6,0,0.6,0,1,0c27.7,0.3,55.3,0.5,83.1,0.8c3.2,0,3.2,0,3.2,3
					c-0.1,8.3-0.3,16.5-0.3,24.6c0,0.5,0,1,0,1.5c0.1,1-0.4,1.6-1.6,1.5C218.6,240.3,218.1,240.3,217.7,240.3z M130,221.8
					c0-0.4-0.1-0.9,0.4-1c0.6-0.1,0.6,0.5,0.6,0.9c-0.1,5.7-0.1,11.3-0.3,17.1c0,0.3-0.1,0.5-0.1,0.7c-0.1,0.1-0.3,0.2-0.4,0.2
					s-0.3-0.2-0.3-0.3c-0.1-0.6-0.1-1.1-0.1-1.7c0-2.5,0-4.9,0.1-7.5l0,0C130,227.2,130,224.4,130,221.8z M130.3,219.1
					c-0.7,0-0.6-0.6-0.7-1.1v-3.6c0.1-0.7,0.2-1.4,1.2-1.3c0.9,0.1,0.9,0.8,0.6,1.5v1.3h0.4c-0.1,0.9,0,1.7-0.3,2.4
					C131.5,218.7,130.8,219.1,130.3,219.1z M134.2,207c-1.7-0.5-2.6-2.1-1.7-3.4c0.3-0.5,0.8-0.5,1.2-0.6h3.4c2,0.1,2.1-0.3,1.4-2.4
					c0,0.9-0.3,1.3-1.4,1.5c-4.5,0.5-5.2-0.2-5-4.4c0.1-1.1,0.4-1.5,1.6-1.1c0.3,0.1,0.7,0.1,1.1,0.1c-2.7-1.8-2.6-5.7-2.6-5.7
					v-11.9c0,0,0.1-2.5,2.4-2.5c7.1,0.1,14,0.1,21.1,0.2c20.9,0.2,41.8,0.4,62.5,0.6c3.2,0,3.2,0,3.2,3.2
					c-0.1,8.1-0.3,15.9-0.1,23.9v1.7c-0.1,0.9-0.6,1.3-1.6-0.1H218c-27.5,1.1-82.6,1-82.6,1L134.2,207L134.2,207z M129.8,197.5
					c0-0.5,0.3-0.9,0.9-0.8c0.6,0.1,1.1,0.1,1.1,0.8c0,1.4,0,2.8-0.1,4.1c0,0.7-0.6,1.1-1.2,1.1c-0.8,0.1-0.6-0.7-0.7-1.3
					c-0.1-0.6,0-1.1,0-1.7l0,0C129.8,199,129.7,198.3,129.8,197.5z M131.5,177.8c-0.1,5.3-0.1,10.6-0.3,16.1c0,0.3-0.1,0.7-0.1,1
					c0,0.1-0.3,0.2-0.4,0.2c-0.1,0-0.3-0.1-0.3-0.3c-0.1-0.6-0.1-1.1-0.1-1.7c0-2.4,0-4.7,0.1-7.2l0,0c0-2.7,0.1-5.3,0.1-8.1
					c0-0.4-0.1-1,0.4-1.1C131.6,176.6,131.5,177.4,131.5,177.8z M125.5,286c0.6,0,0.6,0.5,0.6,0.9c0,1.8,0,3.6-0.1,5.5
					c0,1.8,0,3.6-0.1,5.5c0,0.4,0.1,0.9-0.6,0.9c-0.3,0-0.4-0.5-0.4-0.8c0-3.6,0.1-7.5,0.1-11.2C125.1,286.4,125.1,286,125.5,286z
					 M206.2,243.7c-0.1,12.9-0.5,38.8-0.5,38.8s0,0.7,0,1.1c0,0.6-0.6,1.2-1.2,1.2c-0.6,0-1.7,0-1.7,0s-49.1-0.4-73.6-1h-1.6
					c-1.1,0.5-1.5-0.1-1.8-1.2v-12.5c0.5-0.3,0.5-0.5,0.5-0.7c0.1-0.1,0.3-0.3,0.3-0.3c0.3-0.1,0.4,0.2,0.4,0.4
					c0.1,0.6-0.3,1.9-0.3,1.9s-0.1,6.5-0.1,9.6c0,1.8,0.1,1.9,2,2c0.9,0,1.8,0,2.8,0c22.9,0.2,46,0.5,68.8,0.7
					c3.5,0,3.2,0.2,3.2-3.1c0.1-11.3,0.3-22.9,0.3-34.2c0-0.3,0-0.5,0-0.7c0-2.5,0-2.5-2.6-2.5c-23.9-0.2-47.9-0.5-72-0.7
					c-0.1,0-0.3,0-0.3,0c-2.3,0-2.3,0-2.3,2.2c0,2.8,0,8.2,0,8.2s0.3,1,0.2,1.5c-0.1,0.5,0.3,1.4-0.6,1.4c-0.6-0.1-0.4-1-0.4-1.5
					c-0.1-0.9,0-1.8,0-2.7c0-1.9,0-3.9,0.1-5.9c0.1-4.5-0.4-4.5,3-4.5c10.3,0.1,20.5,0.2,30.7,0.3c2.1,0,4.1,0,6.3,0.2l35.5,1h1.6
					C206.2,241.3,206.2,241.3,206.2,243.7z M222.3,175.4c1.7,0.2,1.8,0.3,1.7,2.2c-0.1,5.8-0.9,17.6-0.9,17.6l0.9,13.8v29.4v1.5
					c-0.6,2.5-2.9,2.7-2.9,2.7h-9.5c0,0-0.9-0.3-1.4-0.4c-0.3,0-0.6-0.1-0.3-0.5c0.1-0.1,0.3-0.3,0.3-0.3c0.6-0.1,1.1-0.1,1.7-0.1
					c2.6,0,5,0,7.5,0.1c2.8,0,2.8,0,2.9-2.9c0.1-9.1,0.3-17.8,0.3-26.9c0.1-10.4,0.3-20.5,0.6-30.9V179c-0.3-2.1-0.5-2.3-2.3-2.4
					c-2.8-0.1-5.6-0.1-8.4-0.1c-0.6,0-1.7,0.2-1.7-0.4c0-1,1.2-0.5,1.7-0.7L222.3,175.4L222.3,175.4z M208,134.6
					c0.1,0.6,0.1,1.1,0,1.7c-0.1,12.4-0.3,24.9-0.5,37.4v0.7c0,1.9,0,1.9-2,1.9c-5.2-0.1-15.8-0.5-15.8-0.5l-23.2,0.6l0,0h-37.4
					c0,0.4-1.1-0.9-1.5-0.9c-1.7-0.1-1.7-0.2-1.9-1.8v-12c0.2-0.3,0.2-0.5,0.3-0.7c0.1-0.5,0.3-0.8,0.8-0.7c0.4,0.1,0.6,0.3,0.6,0.7
					c0.1,0.8,0.1,2.5,0.1,2.5v9.1c0,0,0.1,2,1.9,2.2c0.6,0.1,1.7,0.3,1.7-0.3h71.3c0,0.6,0.7,1.1,1.1,1.1c2.6,0,2.7,0,2.7-2.5
					c0.1-12,0.3-24.2,0.4-36.1c0-0.7,0-1.5,0.1-2.3c0-0.4,0.3-0.6,0.7-0.6C207.7,133.9,208.1,134.2,208,134.6z M208.6,92.4
					c0.1,0.3,0,0.7-0.1,1v36.5c-0.3,0.5-0.3,1-0.3,1.5c0.1,1.1-0.4,1.7-1.7,1.7c-0.6,0-1.5-0.1-1.5-0.1h-38.2c0,0-25.2-0.6-37.7-0.7
					c-2.8,0-2.8,0-3.2-2.7v-11c0.5-0.6,0.2-1.6,1.2-1.6c0.9,0,0.7,0.9,0.6,1.6v10.1c0.1,2.5,0.3,2.7,2.8,2.8
					c12.2,0.1,36.5,0.6,36.5,0.6h35.5c0,0,1.2,0.1,1.7,0.1c1.8,0,2.1-0.3,2.2-2c0-0.6,0-1.1,0-1.7V94.1v-1.7
					c0.4-0.6,0.1-1.6,1.1-1.5C208.8,90.9,208.6,91.8,208.6,92.4z M131.8,89.4c24.7,0.2,49.2,0.5,73.9,0.7c3.3,0,3.3,0,3.3,3
					c-0.1,11.6-0.3,23.2-0.3,34.8c0,2.8,0,2.8-2.8,2.8c-24.8-0.2-49.6-0.5-74.4-0.7c-0.6,0-1.1,0-1.6,0c-1.1,0-1.6-0.6-1.4-1.8
					c0.4-3.5,0.7-7,0.1-10.4c-0.3-1.8,0.4-2.4,1.7-2.3c0.9,0.1,1.7,0.1,2.7,0c1.5-0.1,1.6-0.3,0.9-2c-0.1,0.9-0.8,0.9-1.6,1
					c-1.6,0.1-3.1-0.2-4.6,0.3c-0.8,0.3-1.1-0.3-1.1-0.9c0-2.5,0.1-5,0.1-7.7c0-0.9,0.6-1.3,1.5-0.9c1.3,0.5,2.8,0.2,4.2,0.3
					c1.6,0.1,1.6,0.1,1.1,1.5c-0.1,0.3-0.1,0.7-0.3,0.9c0.9-0.3,1.2-1,1.5-1.7c0.6-1.5,0.1-2.1-1.6-2.3c-1.2-0.1-2.8,0.4-3.6-0.4
					c-0.9-0.9-0.4-2.4-0.4-3.5c0-2.9,0-5.8,0.1-8.9c0-1.6,0.1-1.7,1.8-1.8C130.9,89.4,131.4,89.4,131.8,89.4z M208.4,52
					c-4.5,10.1-3.9,21.3-0.3,31.7c0.6,1.6,0.4,3.2,0.3,4.8c0,0.9-1.5,1.2-1.5,1.2h-1.7c0,0-50.2-0.4-75.5-0.6c-3.2,0-3.2,0.2-3-3.2
					V75.3c-0.1-0.6-0.4-1.6,0.6-1.6c1,0,0.7,0.9,1.2,1.5v9.9c-0.5,2.5-0.5,2.5,2.1,2.5c17.3,0.2,34.7,0.3,52,0.5
					c7.1,0.1,21.1-0.4,21.1-0.4s1.4,0,2.1,0c0.6-0.1,0.9-0.5,1.1-0.9c0.1-0.6,0.1-1.1,0.1-1.7c0.1-11.9,0.3-24.1,0.4-36
					c0-0.4,0-0.9,0-1.3c0-1-0.4-1.6-1.5-1.6c-0.6,0-1.1,0-1.5,0c-24.2-0.2-48.6-0.5-72.8-0.7c-3.2,0-3.2,0-3.2,2.9
					c0,3.3,0,10.3,0,10.3s0.3,1.6-0.7,1.6c-1,0-0.7-0.9-1.1-1.6V46.3c0.5-1.9,0.6-1.9,2.5-1.9c5.9,0.1,11.8,0.1,17.8,0.2
					c7.1,0.1,14,0.1,21.1,0.2c12.4,0.1,24.9,0.2,37.4,0.4h2.1c0.9,0,1.5,0.4,1.5,1.4C209.1,48.5,209.2,50.3,208.4,52z M114.1,39.9
					c-1.8-0.9-2.9,1.6-2.9,1.6s0,0.7,0,1c0.1,1.1-0.6,1.4-1.5,1.4c-2.5,0-5-0.1-7.5-0.1c-1.9,0-3.7,0-5.6-0.1
					c-1.7-0.1-1.7-0.2-1.9-1.9c0-0.3,0-1.1,0-1.1s-0.4-23.1,0-34.5V5c-0.2-1.5-0.2-1.6,1.6-1.2h1.5c40.5-0.1,121.4,1,121.4,1
					s0.6,0,0.8,0c2.6,0,2.7,0,2.7,2.5c-0.1,11.7-0.3,23.7-0.3,35.4c0,0.4,0,0.8,0,1.3c0,0.8-0.4,1.3-1.2,1.3c-0.7,0-2.1,0-2.1,0
					s-62.6-0.8-94-1h-0.7c-2.3-0.2-2.3-0.2-2.8-2.3v-1c0.4-1.3,0.2-1.4-1.7-0.8c0.4,0.1,0.8,0.3,0.8,0.7c0.1,1.5,0.3,3,0.3,4.4
					c0.1,0.7-0.4,0.8-0.9,0.8c-2.1,0-4.1,0-6.2-0.1c-0.8,0-1.5-0.3-1.2-1.2c0.4-1.2,0.3-2.5,0.4-3.6c0.1-0.7,0.4-0.9,1.1-0.5
					c0.6,0.5,1.4,0.9,2,1.5C116,40.9,115.1,40.3,114.1,39.9z M122.9,46.2c-0.4-0.3-0.8-0.5-0.8-0.9c0.1-0.5,0.6-0.7,0.9-0.1h2.3
					c0.6-0.6,1.1-0.5,1.1,0.1c-0.1,0.7-0.7,0.7-1.2,0.9h-1.1l0,0H122.9z M224.4,5.6c-0.1,12.5-0.3,25.1-0.4,37.6c0,0.5,0,1.9,0,1.9
					s-0.6,1.9-2.3,2.2h-10.3c-0.3-0.4-0.7-0.4-1.1-0.5c-0.4-0.1-0.6-0.3-0.6-0.7c0.1-0.2,0.3-0.5,0.6-0.5c0.6-0.1,1.2-0.1,1.7-0.3
					h8.2c2.1,0.3,2.2,0.2,2.2-1.8c0.1-8.1,0.6-23.9,0.6-23.9s0.1-9.2,0.1-13.7c0-2-0.1-2.1-2.2-2.2c-0.6,0.1-1.5,0.1-1.5,0.1
					S138.4,3.1,97.2,2.7c-4.1,0-4.1,0-4.1,3.7c-0.1,11.4-0.3,22.7-0.3,34.1c0,0.4,0,0.9,0,1.3c0,2.2,0.3,2.5,2.6,2.5
					c4.3,0,12.7,0,12.7,0s1.4,0.3,2.1,0.4c0.4,0,0.6,0.3,0.6,0.7c0,0.3-0.3,0.7-0.6,0.7c-0.8,0.1-1.7,0-2.7,0
					c-1.7,0.1-1.7,0.1-1.8,1.8v2c-0.2,20.7-0.4,41.5-0.6,62.2c-0.3,20.5-0.4,41.2-0.4,61.7v1.7c-0.4,1.9-2.4,1.9-2.4,1.9h-8.5
					c0,0-2.3,1-1.9,2.2v1.5c-0.6,19-0.8,38.2-0.9,57.2v1.3c-0.1,2.3,2.6,3,2.6,3h8.4c0,0,1.8-0.1,1.8,1.6v2
					c-0.5,40.1-1.9,119.7-1.8,119.7v1.3c-0.1,2.7-0.4,3,2.8,3c0.6,0,1.8-0.3,1.8,0.6c0.1,1.3-1.2,0.8-1.8,0.8
					c-15.2-0.2-30.5-0.3-45.7-0.5c-10.3-0.1-31.1-0.2-31.1-0.2s-1.8,0-2.5,0c-0.9,0.1-1.6,0.6-1.6,1.6c0,0.7,0,1.3,0,2
					c-0.1,11.6-0.3,23.3-0.3,34.8c0,0.8,0.3,2.2-0.4,2.2c-0.9,0-0.6-1.3-0.6-2.1c0.1-12.4,0.3-24.9,0.4-37.5c0-2.7,0-2.7,2.8-2.6
					c23.7,0.2,47.3,0.5,71,0.7c4.9,0.1,2.9,0.5,3.8-8.1c0.4-36.4,0.7-72.9,1.2-109.2c-0.8-9.3,1.4-8.7-3.8-8.8c-2.2,0-4.5,0-6.7-0.1
					c-1.6-0.1-1.7-0.2-1.7-1.8c0-0.5-0.6-1.5-0.6-1.5v-60.7c0,0,1.3-0.9,1.4-1.3c0.1-1.9,0.1-1.9,2.1-2c2.8,0,6.2,0.1,9.1,0.1
					c1.9,0,2-0.1,2.1-2c0-0.5,0-1,0-1.5c0.4-41.2,0.8-82.3,1.3-123.5c0-3.7,0.4-3.5-3.7-3.5c-2.4,0-4.8,0-7.2-0.1
					c-1.7-0.1-1.8-0.2-1.8-1.8c0-2.7,0.3-8.4,0.3-8.4V4.3c0,0,0.1-1,0.1-1.5c0.1-1.9,0.1-1.9,2.1-2c0.6,0,1.1,0,1.5,0
					c41.6,0.4,83.2,0.8,124.8,1.2C224.8,2.2,224.4,1.8,224.4,5.6z"/>
			</g>
			<line class="st0" x1="268.1" y1="0.2" x2="240.3" y2="0.2"/>
		</g>
		<polygon points="111.4,44.3 111.6,44.3 111.5,44.1 		"/>
		<path d="M94.6,716.4c0-0.3,0-0.7,0-1c0.3,0,0.6-0.1,0.7,0c0.6,0.1,1.7-0.2,1.7,0.7c-0.1,1-1.1,0.2-1.7,0.3
			C95.3,716.5,94.9,716.4,94.6,716.4z"/>
		<path d="M97.4,477.1c0-0.3,0-0.7,0-1c0.3,0,0.6-0.1,0.7,0c0.6,0.1,1.7-0.2,1.7,0.7c-0.1,1-1.1,0.2-1.7,0.3
			C97.9,477.1,97.7,477.1,97.4,477.1z"/>
		<path d="M97.4,434.7c0-0.3,0-0.7,0-1c0.3,0,0.6-0.1,0.7,0c0.6,0.1,1.7-0.2,1.7,0.7c-0.1,1-1.1,0.2-1.7,0.3
			C97.9,434.7,97.7,434.7,97.4,434.7z"/>
		<path d="M94.5,715.4c-1.5-0.3-2.3-1.1-2.6-2.5C93,713.6,94,714.4,94.5,715.4z"/>
		<path d="M94,673.6c0.3-0.8,1.2-0.9,1.6-1.5c0.3,0,0.6-0.1,0.7,0c0.3,0,0.6,0,0.7,0.2c0.3,0.3-0.1,0.3-0.3,0.4
			C95.7,673,94.9,673.7,94,673.6z"/>
		<path d="M94.5,630.6c0.3-0.8,1.2-0.9,1.6-1.5c0.3,0,0.7-0.1,0.9,0c0.3,0,0.4,0.2,0.6,0.3c-0.1,0.1-0.3,0.3-0.3,0.3
			C96.3,629.9,95.5,630.7,94.5,630.6z"/>
		<path d="M97.1,520.8c-0.4-0.6-1.2-0.7-1.5-1.5c0.7,0,1.2,0.3,1.8,0.7c0.4,0.3,1.2,0,1.1,0.7C98.4,520.8,97.5,520.7,97.1,520.8z"/>
		<path d="M97.4,433.4c-1.5-0.3-2.3-1.1-2.6-2.5C95.9,431.5,96.8,432.4,97.4,433.4z"/>
		<path d="M94,523.2c0.1-1.2,0.8-1.9,2.1-2C95.5,522.1,94.9,522.7,94,523.2z"/>
		<path d="M94.9,628.7c-1.2-0.1-1.8-0.8-2-2C93.7,627,94.5,627.8,94.9,628.7z"/>
		<path d="M94.5,671.7c-1.2-0.1-1.8-0.8-2-2C93.4,670.2,94,670.9,94.5,671.7z"/>
		<path d="M91.4,719.9c-0.1-0.9,0.1-1.6,1.1-2C92.3,718.7,92,719.5,91.4,719.9z"/>
		<path d="M94.5,518.2c-0.9-0.4-1.1-1.1-1.1-2C94.2,516.7,94.5,517.4,94.5,518.2z"/>
		<path d="M94.9,475.1c-0.9-0.4-1.1-1.1-1.1-2C94.6,473.5,94.9,474.2,94.9,475.1z"/>
		<path d="M91.9,676.8c-0.1-0.9,0.1-1.6,1.1-2C92.8,675.6,92.5,676.4,91.9,676.8z"/>
		<path d="M92.3,633.6c-0.1-0.9,0.1-1.6,1.1-2C93.2,632.3,93,633.2,92.3,633.6z"/>
		<path d="M95.8,435.4c0.3-0.7,0.8-1,1.5-1C97.1,435,96.7,435.4,95.8,435.4z"/>
		<path d="M96.9,476.6c-0.7,0-1.2-0.3-1.5-1C96.3,475.6,96.7,475.9,96.9,476.6z"/>
		<path d="M95.5,478.5c0.3-0.7,0.8-1,1.5-1C96.7,478.2,96.1,478.6,95.5,478.5z"/>
		<path d="M93,717.5c0.3-0.7,0.8-1,1.5-1C94.3,717.1,93.7,717.5,93,717.5z"/>
		<path d="M93.4,631.5c0-0.6,0.3-0.9,1.1-1C94.3,631.1,93.8,631.4,93.4,631.5z"/>
		<path d="M92.9,674.8c0-0.6,0.3-0.9,1.1-1C93.7,674.2,93.4,674.5,92.9,674.8z"/>
		<path d="M95.5,672.3c-0.4,0-0.8-0.1-1.1-0.5C94.9,671.7,95.4,671.9,95.5,672.3z"/>
		<path d="M95.9,629.2c-0.4,0-0.8-0.1-1.1-0.5C95.4,628.7,95.7,628.8,95.9,629.2z"/>
		<path d="M96,521.2c0.3-0.4,0.6-0.5,1.1-0.5C96.9,521.2,96.4,521.2,96,521.2z"/>
		<path d="M92.5,717.9c0.1-0.1,0.3-0.3,0.6-0.5C92.8,717.6,92.7,717.8,92.5,717.9z"/>
		<path d="M94.9,518.7c-0.1-0.1-0.3-0.3-0.6-0.5C94.6,518.4,94.8,518.5,94.9,518.7z"/>
		<path d="M95.5,475.6c-0.1-0.1-0.3-0.3-0.6-0.5C95.1,475.3,95.4,475.4,95.5,475.6z"/>
		<path d="M95.5,519.2c-0.1-0.1-0.3-0.3-0.6-0.5C95.2,518.9,95.5,519.1,95.5,519.2z"/>
		<path d="M129.2,305.2c-0.1,0.5-0.3,0.8,0.3,1.1c0.3,0.2,0.6,0.5,0.7,0.9c-1.2-0.1-2.1-1-3.2-1c-0.1,0-0.3-0.2-0.3-0.3
			c0.1-0.1,0.3-0.2,0.4-0.3C127.7,305.4,128.3,305,129.2,305.2z"/>
		<path d="M129.6,262c-0.3,0.5-0.3,0.8,0.3,1.1c0.3,0.2,0.6,0.5,0.7,0.9c-1.2-0.1-2.1-1-3.2-1c-0.1,0-0.3-0.2-0.3-0.3
			c0.1-0.1,0.3-0.2,0.4-0.3C128.1,262.2,128.8,261.9,129.6,262z"/>
		<path d="M131.7,260c-0.1,1.2-0.8,1.9-2.1,2C130.2,261.1,130.8,260.5,131.7,260z"/>
		<path d="M132.2,259c0,0.4-0.1,0.8-0.6,1C131.7,259.6,131.7,259.2,132.2,259z"/>
		<path d="M130.3,347.4c-0.1,0.1-0.3,0.3-0.6,0.5C129.9,347.7,130.2,347.5,130.3,347.4z"/>
		<path d="M130.3,307.2c0.1,0.1,0.3,0.3,0.6,0.5C130.5,307.5,130.3,307.3,130.3,307.2z"/>
		<path d="M130.6,264.1c0.1,0.1,0.3,0.3,0.6,0.5C130.9,264.3,130.7,264.2,130.6,264.1z"/>
		<path d="M27.1,767.8c6.3,0.1,12.8,0.1,19.2,0.2c0.6,0,1.2,0,1.7,0c1.1,0,1.7,0.6,1.7,1.6c0,3.5,0,9.9,0,9.9s-0.3,1.2-1.3,0.4h-1.5
			c-13.1,0.8-39.7,1-39.7,1s-0.6,0-1,0c-1.1,0-1.7-0.4-1.6-1.5c0-3.5,0.1-6.9,0.1-10.5c0-0.9,0.6-1.3,1.5-1.3c1.8,0,3.8,0,5.6,0.1
			C16.8,767.7,21.9,767.7,27.1,767.8z M22.1,773.9L22.1,773.9c0,1.3,0,2.5,0,3.6c0,2.3,0,2.2,2.7,2.3c0.3,0,0.6,0,0.7,0
			c1.6-0.1,1.7-0.1,1.7-1.8c0.1-2.1,0-4.2,0.1-6.5c0-3.3-0.4-3.6-3.8-3.2c-0.8,0.1-1.2,0.5-1.2,1.3
			C22.2,771.1,22.1,772.5,22.1,773.9z M21.2,774.1L21.2,774.1c0-1.1,0-2.4,0-3.5c0-2.6,0-2.6-2.7-2.6c-0.1,0-0.3,0-0.6,0
			c-2.1,0-1.9,0.1-2.1,2.4c0,2.2,0,4.1-0.1,6.4c0,3.1-0.3,3.1,2.7,3.1c0.3,0,0.6,0,0.8,0c1.2,0.1,1.8-0.4,1.7-1.7
			C21.2,776.9,21.2,775.6,21.2,774.1z M10,774.9L10,774.9c0-1.1,0.1-2.4,0-3.5c0-2.5,0-2.3-3.1-2.4c0,0,0,0-0.1,0
			c-2.7,0.1-1.9,0-2.3,4.8c-0.1,0.6-0.1,1.2,0,2c0.3,5-0.6,5,2.4,5.1c0.6,0,1.1,0,1.5,0c0.9,0,1.3-0.5,1.3-1.3
			C9.9,778,9.9,776.3,10,774.9z M38.1,774.1L38.1,774.1c0,1.3-0.1,2.7,0,3.9c0,1.9,0.1,1.7,2.3,1.8c0.1,0,0.3,0,0.3,0
			c2.9-0.1,2.3,0.2,2.6-3.5c0-0.5,0-1.1,0-1.5c-0.3-6.4,0.8-6.5-3.2-6.4c-0.6,0-1.2,0-1.7,0.1c-0.1,0-0.1,0.1-0.1,0.1
			C38.1,770.3,38.1,772.2,38.1,774.1z M32.2,773.1c0-1.1,0-2.3,0-3.5s-0.4-1.7-1.5-1.8c-0.4,0-0.9,0-1.3,0c-1.6,0.1-1.7,0.1-1.8,1.8
			c-0.1,2.7-0.1,5.2-0.1,8.1c0,2,0.1,2,2.1,2.1c0.3,0,0.8,0,1.1,0c1.1,0.1,1.5-0.5,1.6-1.6C32.1,776.5,32.3,774.9,32.2,773.1z
			 M11.1,774c0,1.4,0,2.9,0,4.2c-0.1,1.2,0.6,1.7,1.7,1.6c0.6,0,1.1,0,1.5,0c0.9,0,1.4-0.5,1.4-1.4c0-3,0.1-6,0.1-9
			c0-0.9-0.4-1.3-1.5-1.4c-0.6,0-1.1,0-1.5,0c-1.3-0.1-1.7,0.5-1.7,1.7C11.1,771.3,11.1,772.6,11.1,774z M48.6,774.9L48.6,774.9
			c-0.9,0-1.3-0.6-0.9-1.3c1.5-3.2,1.3-4.6-0.4-4.6c-0.6,0-1.2,0-1.8,0c-1.5,0-1.6,1-1.2,2.8c0.4,2.1,0.6,4.1-0.1,6.2
			c-0.6,1.9-0.3,2.8,1.2,2.9c0.6,0,1.1,0,1.5,0c1.3,0.1,1.7-0.5,1.7-1.8C48.6,777.7,48.6,776.2,48.6,774.9z M33.1,774.5L33.1,774.5
			c0,1.6,0,3.1,0,4.6c0,0.8,0.4,1.2,1.2,1.3c0.6,0,1.1,0.1,1.5,0c1.7-0.1,1.7-0.1,1.7-1.8c0.1-2.6,0.1-5.1,0.1-7.9
			c0-1.7-0.1-1.8-1.7-1.9c-0.4,0-0.8,0-1.2,0c-1.1-0.1-1.5,0.5-1.6,1.5C33.1,771.9,33.1,773.2,33.1,774.5z"/>
		<path d="M25.7,764.1c-4.1,0-8.2-0.1-12.4-0.1c-1.2,0-2.3-0.2-3.5,0.6c-0.9,0.7-1.7-0.4-2.4-0.8c-0.3-0.1-0.3-0.4-0.1-0.7
			c0.4-0.6,2.1-1.2,2.7-0.7c0.9,0.7,1.8,0.6,2.9,0.6c8.4,0.1,16.7,0.2,25.2,0.3c0.8,0,2.3-0.5,2.3,0.6c0.1,0.7-1.5,0.4-2.3,0.4
			C34.1,764.2,29.7,764.2,25.7,764.1z"/>
		<path d="M109.7,743.3c0.6,0.2,0.8,0.5,1.1,1C110.2,744.2,109.7,743.8,109.7,743.3z"/>
		<path d="M199.3,5.6c6.2,0.1,12.5,0.1,18.7,0.2c2.4,0,2.6,0.1,2.4,2.4c0,2.8-0.1,5.7-0.1,8.6c0,2.1-0.1,2.2-2.3,2.2
			c-8.5-0.1-16.9-0.2-25.4-0.3c-4.3,0-8.5-0.1-12.9-0.1c-2,0-2.1-0.2-2.1-2c0-3,0-6,0.1-9.1c0-2,0.3-2.1,2.3-2
			C186.4,5.5,192.9,5.5,199.3,5.6z M194.7,12.6L194.7,12.6c0,1.3,0,2.5,0,3.6c0,0.1,0,0.1,0,0.3c0,2,0.1,2.1,2.2,2.1
			c0.1,0,0.3,0,0.6,0c1.7,0,1.7-0.1,1.7-2.1c0-2.5,0-5,0.1-7.5c0-2.1,0-2.2-2-2.3c-0.3,0-0.7,0-1.1,0c-1.7-0.1-2.1,1.2-0.7,4.6
			C195.9,12.1,195.4,12.6,194.7,12.6z M203.9,12.8c0-1.6,0-3.1,0-4.6c0-1.1-0.4-1.5-1.5-1.5c-0.3,0-0.6,0-0.7,0c-2.1,0-2.3,0-2.3,2
			c0,2.7-0.1,5.3-0.1,7.9c0,1.9,0.1,1.9,2,2c0.3,0,0.7,0,1.1,0c1.1,0.1,1.5-0.5,1.6-1.5C203.9,15.6,203.9,14.2,203.9,12.8z
			 M215.8,12.7c0,1.4-0.1,2.8,0,4.1c0,1.6,0.1,1.7,1.7,1.8c0.6,0,1.1,0,1.6,0c0.9,0,1.3-0.4,1.3-1.2c0-3.1,0.1-6.3,0.1-9.6
			c0-0.8-0.4-1.3-1.3-1.3c-0.6,0-1.1-0.1-1.6,0c-1.7,0.1-1.7,0.1-1.8,1.7C215.8,9.8,215.8,11.3,215.8,12.7z M209.4,12.7
			c0-1.4,0.1-2.8,0-4.1c0-1.6-0.1-1.7-1.7-1.8c-0.6,0-1.1,0-1.6,0c-0.9,0-1.3,0.4-1.3,1.2c0,3.1-0.1,6.3-0.1,9.6
			c0,0.8,0.4,1.3,1.3,1.3c0.6,0,1.1,0.1,1.6,0c1.7-0.1,1.7-0.1,1.8-1.7C209.4,15.6,209.4,14.1,209.4,12.7z M188.3,12.7L188.3,12.7
			c-0.8,0-1.3-0.6-0.9-1.3c1.3-3.1,1.5-4.7-0.3-4.7c-0.6,0-0.9,0-1.5,0c-0.9-0.1-1.8,0.7-1.8,1.6c0,3-0.1,5.9-0.1,8.9
			c0,0.9,0.4,1.4,1.5,1.4c0.6,0,0.8,0,1.5,0c1.3,0.1,1.8-0.4,1.7-1.6C188.3,15.5,188.3,14.1,188.3,12.7z M182.8,11.7L182.8,11.7
			c0-1.6,0-3.1,0-4.6c0-0.9-0.3-1.4-1.4-1.4c-0.6,0-1.1,0-1.5,0c-1.2-0.1-1.7,0.4-1.7,1.6c0,3-0.1,5.9-0.1,8.9
			c0,0.9,0.4,1.4,1.4,1.4c0.6,0,1.1,0,1.5,0c1.2,0.1,1.7-0.4,1.7-1.6C182.8,14.5,182.8,13.1,182.8,11.7z M189.4,12.1
			c0,1.5-0.1,3,0,4.4c0.1,1.4,0.3,1.5,2,1.6c1.7,0,2.1-0.1,2.1-1.4c0.1-3,0.1-6,0.1-9.1c0-1.4-0.3-1.5-2-1.6s-2,0.1-2.1,1.4
			C189.4,9.1,189.4,10.5,189.4,12.1z M214.9,12.5c0-1.6,0-3.1,0-4.6c0-1.3-0.8-1.4-1.8-1.4c-1.7,0-2.1,0.1-2.2,1.3
			c-0.1,3.1-0.1,6.1-0.1,9.3c0,1.3,0.8,1.4,1.8,1.4c1.7,0,2.1-0.1,2.2-1.3C214.9,15.5,214.9,14,214.9,12.5z"/>
		<path d="M195.7,22.1c6.1,0.1,12,0.1,18.1,0.2c0.6,0,0.9-0.2,1.4-0.4c0.9-0.5,2.6-0.2,3,0.5c0.1,0.2,0.1,0.5-0.1,0.7
			c-0.6,0.7-2.3,1-2.9,0.5c-0.9-0.7-2-0.5-2.9-0.5c-10.6-0.1-21-0.2-31.6-0.3c-0.7,0-1.4,0.2-2-0.2c0.6-0.6,1.4-0.5,2.1-0.5
			C185.7,22,190.8,22,195.7,22.1L195.7,22.1z"/>
		<path d="M116.7,42.5c0,0.3,0,0.7,0,1c0,0.2,0,0.5-0.3,0.5c-0.1,0-0.3-0.2-0.3-0.3c-0.1-0.5-0.3-1.1-0.4-1.7
			C116,42.1,116.4,42.4,116.7,42.5z"/>
		<path d="M119.4,40c-0.3,0.4-0.6,0.5-1.1,0.5C118.8,40,119.1,40,119.4,40z"/>
		<path d="M117.5,41.5c0,0.4-0.1,0.8-0.6,1C116.9,42,117,41.7,117.5,41.5z"/>
		<path d="M118.5,40.4c-0.1,0.1-0.3,0.3-0.6,0.5C118.1,40.8,118.3,40.6,118.5,40.4z"/>
		<path d="M118,41c-0.1,0.1-0.3,0.3-0.6,0.5C117.6,41.3,117.8,41.1,118,41z"/>
		<path d="M196.1,398.3c6.1,0.1,12.3,0.1,18.3,0.2c2.5,0,2.5,0.1,2.4,2.4c0,2.8-0.1,5.6-0.1,8.4c0,2.1-0.1,2.2-2.3,2.2
			c-8.3-0.1-16.6-0.2-24.9-0.3c-4.2,0-8.4-0.1-12.6-0.1c-1.9,0-2-0.2-2-2c0-3,0-5.9,0.1-8.9c0-2,0.2-2.1,2.3-2
			C183.3,398.2,189.7,398.3,196.1,398.3z M201.1,404.9L201.1,404.9c0,1.5,0,3,0,4.4c0,0.8,0.4,1.2,1.2,1.3c0.6,0,1.1,0.1,1.5,0
			c1.7,0,1.7-0.1,1.7-2.1c0-2.3,0-4.6,0.1-6.9c0-2.3,0-2.4-2-2.4c-0.3,0-0.7,0-1.1,0c-1.1-0.1-1.5,0.5-1.6,1.5
			C201.1,402.1,201.1,403.5,201.1,404.9z M211.1,405.2c0,1.3-0.1,2.8,0,4c0,1.8,0.1,1.8,1.7,1.9c0.6,0,1.1,0,1.5,0
			c0.9,0,1.3-0.4,1.5-1.2c0-3.1,0.1-6.2,0.1-9.3c0-0.9-0.6-1.3-1.5-1.3c-0.4,0-0.9,0-1.3,0c-1.7,0.1-1.7,0.1-1.8,1.8
			C211.1,402.5,211.1,403.9,211.1,405.2z M178.8,405.6L178.8,405.6c-0.6-0.8-0.6-0.7-1.1-1.6c1.5-2.9,1.4-4.2-0.3-4.3
			c-0.6,0-1.1-0.1-1.5,0c-1.7,0-1.7,0.2-1.7,2.1c0,2.4,0,4.6-0.1,7.1c0,2.1,0,2.1,2,2.2c0.3,0,0.7,0,1.1,0c1.1,0.1,1.5-0.5,1.6-1.5
			C178.7,408.2,178.8,406.9,178.8,405.6z M180,405c0,1.5,0,3.1,0,4.5c0,1.1,0.4,1.5,1.6,1.5c0.4,0,0.8,0,1.3,0
			c1.6-0.1,1.7-0.1,1.8-1.8c0.1-2.7,0.1-5.1,0.1-8c0-1.9-0.1-1.9-2-2.1c-0.3,0-0.8,0-1.1,0c-1.1-0.1-1.5,0.5-1.6,1.5
			C180,402.3,180,403.7,180,405z M190.1,405L190.1,405c0,1.5,0,3,0,4.4c0,0.8,0.4,1.2,1.2,1.3c0.6,0,1.1,0.1,1.5,0
			c1.7-0.1,1.7-0.1,1.7-1.8c0.1-2.6,0.1-5.1,0.1-7.9c0-1.7-0.1-1.7-1.7-1.9c-0.4,0-0.8,0-1.2,0c-1.1-0.1-1.5,0.5-1.6,1.5
			C190.1,402.2,190.1,403.6,190.1,405z M195.6,405L195.6,405c0,1.5,0,3,0,4.4c0,0.8,0.4,1.2,1.2,1.3c0.6,0,1.1,0.1,1.5,0
			c1.7-0.1,1.7-0.1,1.7-1.8c0.1-2.6,0.1-5.1,0.1-7.9c0-1.7-0.1-1.8-1.7-1.9c-0.4,0-0.8,0-1.2,0c-1.1-0.1-1.5,0.5-1.6,1.5
			C195.6,402.2,195.6,403.6,195.6,405z M210.6,405.6c0-1.4,0.1-2.8,0-4.2c-0.1-1.4-0.3-1.5-2-1.6c-1.7,0-2.1,0.1-2.1,1.4
			c-0.1,2.8-0.1,5.7-0.1,8.6c0,1.4,0.3,1.5,2,1.6c1.7,0,2-0.1,2.1-1.4C210.7,408.4,210.6,407,210.6,405.6z M189.4,405.8L189.4,405.8
			c0-1.4,0.1-2.8,0-4.2c0-1.6-0.3-1.7-2-1.8c-1.7,0-2,0.1-2.1,1.7c-0.1,2.5,0,4.9-0.1,7.5c0,2.2,0.3,2.4,2.6,2.3
			c0.8-0.1,1.6-0.7,1.6-1.6C189.4,408.4,189.4,407,189.4,405.8z"/>
		<path d="M192.7,394.9c5.5,0.1,10.8,0.1,16.2,0.2c0.8,0,1.8,0.2,2.7-0.6c0.1-0.1,0.3-0.2,0.4-0.3c1.1-0.1,1.7,0.5,2.6,1
			c0.4,0.3,0,0.7-0.3,0.7c-0.9,0.3-1.7,1.7-2.8,0.3c-0.7-1-1.7-0.7-2.6-0.7c-8-0.1-16-0.2-24-0.2c-3,0-6.2-0.1-9.3-0.1
			c-0.3,0-0.7-0.1-0.7-0.2c0.1-0.5,0.6-0.3,0.7-0.3C181.3,394.8,187,394.8,192.7,394.9L192.7,394.9z"/>
		<path d="M94.4,386.6c-1.7-0.4-2.7-1.4-3-3C92.5,384.4,93.4,385.4,94.4,386.6z"/>
		<path d="M112.2,374.7c0-0.9,0.6-1.5,0.9-2.3c0.1-0.3,0-0.7,0.6-0.6c0.1,0.1,0.1,0.6,0.3,0.9c0,0.1,0,0.3,0,0.5
			C113.3,373.7,113.1,374.5,112.2,374.7z"/>
		<path d="M114.1,374.3c0.7,0.3,1.2,0.8,1.5,1.5C114.6,375.7,114.1,375.2,114.1,374.3z"/>
		<path d="M109.2,376.2c0.6-0.7,1.2-0.9,2.1-1C111.1,376.2,110.2,376.3,109.2,376.2z"/>
		<path d="M95.4,387.1c-0.4,0-0.8-0.1-1.1-0.5C94.8,386.7,95.1,386.7,95.4,387.1z"/>
		<path d="M113.6,373.3c0.4,0.2,0.6,0.6,0.4,1C113.6,374.1,113.6,373.7,113.6,373.3z"/>
		<path d="M113.6,409.9c0,0.4-0.1,0.8-0.6,1C113.1,410.5,113.3,410.2,113.6,409.9z"/>
		<path d="M114.7,409c-0.1,0.1-0.3,0.3-0.6,0.5C114.4,409.3,114.6,409.1,114.7,409z"/>
		<path d="M114.1,409.5c-0.1,0.1-0.3,0.3-0.6,0.5C113.8,409.8,114.1,409.6,114.1,409.5z"/>
		<path d="M111.4,375.3c0.1-0.1,0.3-0.3,0.6-0.5C111.7,374.9,111.6,375.1,111.4,375.3z"/>
		<path d="M133.7,69.8c-0.8-0.5-1.6-1.2-2-2C132.8,67.9,133.5,68.6,133.7,69.8z"/>
		<path d="M134.1,70.8c-0.4-0.2-0.6-0.6-0.4-1C134.1,70,134.1,70.4,134.1,70.8z"/>
		<path d="M131.2,110.8c-0.3,0-0.6,0.1-0.7,0c-0.6-0.2-1.7-0.3-1.7-0.7c0-0.6,1.1-0.3,1.7-0.7c0.6-0.3,1.2-0.7,1.8-0.6
			c-0.3,0.3-0.4,0.7-0.7,0.9C130.9,110,130.9,110.4,131.2,110.8z"/>
		<path d="M133.2,112.9c-0.8-0.5-1.6-1.2-2-2C132.4,111.1,133.1,111.8,133.2,112.9z"/>
		<path d="M133.7,114c-0.4-0.2-0.6-0.6-0.4-1C133.6,113.2,133.7,113.6,133.7,114z"/>
		<path d="M132.2,108.9c0.1-0.1,0.3-0.3,0.6-0.5C132.6,108.6,132.3,108.8,132.2,108.9z"/>
		<path d="M131.2,154.6c-0.8-0.2-1.7-0.4-2.7-0.6c-0.3-0.1-0.6-0.2-0.6-0.4c-0.1-0.3,0.3-0.5,0.6-0.5c0.6-0.1,1.2-0.1,1.7,0
			C130.5,153.5,130.8,154,131.2,154.6z"/>
		<path d="M130.3,153c0.3-0.4,0.6-0.5,1.1-0.5C131.1,153,130.6,153,130.3,153z"/>
		<path d="M131.7,155c-0.1-0.1-0.3-0.3-0.6-0.5C131.4,154.7,131.6,154.9,131.7,155z"/>
		<path d="M131.3,152.6c0.1-0.1,0.3-0.3,0.6-0.5C131.6,152.2,131.5,152.4,131.3,152.6z"/>
		<path d="M132.2,155.6c-0.1-0.1-0.3-0.3-0.6-0.5C131.9,155.2,132.1,155.4,132.2,155.6z"/>
		<path d="M131.7,152c0.1-0.1,0.3-0.3,0.6-0.5C132.1,151.7,131.9,151.9,131.7,152z"/>
		<path d="M48.7,588.2c-0.6-0.3-0.8-0.9-0.8-1.5c0.4-1.7,0.3-3.3,0.4-4.8c0.1-0.7,0.4-1.1,1.2-1.1c0.8-0.1,1.7,0,2.6,0
			c1.7,0.1,1.7,0.1,1.7,1.8c0.1,1.2,0.4,2.5,0.4,3.6c0.1,1.5-0.4,2.8-2.2,3.1l-0.6-0.1l1.1-0.2v-0.3l-0.6-0.1l0.7-0.7
			c0.3-0.3,0.4-0.5,0.6-0.8c0.6-1.3,0.3-2.7-0.3-4c-0.4-1.5-0.6-1.5-2.7-1.5c-1.5,0-1.2,1.1-1.5,1.9c-0.1,0.2-0.1,0.5,0,0.7
			c0.6,1.8,0.9-2.3,1.6,2.1c-0.3,0.5-0.4,0.9-0.6,1.4h-0.1c-0.3-0.2-0.6-0.6-0.6-0.5C48.7,587.3,49,587.8,48.7,588.2L48.7,588.2z"/>
		<path d="M58.8,589.2c-0.4-0.3-0.7-0.8-0.6-1.3c0.3-1.5,0.1-3,0.3-4.4c0.1-1.3,0.3-1.3,2.9-1.3c2.4,0,2.6,0.1,2.7,1.4
			c0.1,1.3,0,2.5,0.1,3.6c0.3,2.9-1.4,3.9-4.3,2.9l0.1-0.1c0.4,0,0.7-0.1,0.9-0.5c0.3,0,0.3,0,0.6,0c0.3,0.4,0.6,0.5,1.1,0
			c0.1-0.2,0.3-0.3,0.6-0.5c0.9-1.8,0.4-3.6,0.4-5.6c0-0.5-0.3-0.7-0.8-0.8c-0.6-0.1-1.1-0.1-1.5-0.1c-1.8,0-1.8,0-2.1,1.6
			c-0.1,1.6,0,3.1-0.1,4.6L58.8,589.2z"/>
		<path d="M52.1,589c-1.2,0.9-1.8,0.5-2.7-0.5l0.1-0.1c0.3-0.2,0.4-0.5,0.4-0.9l0.1-0.1c0.6,0.4,1.2,0.5,2,0.6
			c0,0.1,0.1,0.3,0.1,0.5l-0.1,0.1c-0.3,0.1-0.6,0.1-0.9,0.1C51.3,589.1,51.7,588.9,52.1,589L52.1,589z"/>
		<path d="M87.6,585.9c0.8,0.5,1.6,1.2,2,2C88.4,587.8,87.9,587.1,87.6,585.9z"/>
		<path d="M89.6,587.9c0.8,0.1,1.5,0.3,2.1,1C90.9,588.9,90.1,588.8,89.6,587.9z"/>
		<path d="M86.7,583.9c0.6,0.5,0.9,1.2,1.1,2C86.7,585.5,86.7,584.8,86.7,583.9z"/>
		<path d="M60.1,589.5c-0.6-0.1-0.9-0.4-1.1-1l0.1-0.1c0.1,0,0.3,0,0.6,0.1c0.1,0.2,0.3,0.3,0.6,0.5
			C60.1,589.2,60.1,589.4,60.1,589.5L60.1,589.5z"/>
		<path d="M49.5,588.5c-0.1-0.2-0.3-0.3-0.6-0.5L49,588C49.1,588.1,49.3,588.3,49.5,588.5L49.5,588.5z"/>
		<path d="M166.2,212.9c0.4,0,0.8,0,1.2,0c1.2-0.1,1.7,0.3,1.2,1.6c-0.3,0.8-0.1,1.7,0.1,2.5c0.1,0.2,0.1,0.5,0.3,0.7
			c0.3,1.5-0.1,2.8-1.5,3.6c-1.1,0.7-2.1,0.6-3,0c-1.5-0.9-1.7-2.2-1.5-3.6c0.3-1.3,0.6-2.5,0.3-3.8c-0.3-0.7,0.3-0.9,0.9-0.9
			C165.1,212.9,165.6,212.9,166.2,212.9L166.2,212.9z M167.6,220.6C167.5,220.7,167.5,220.7,167.6,220.6
			C167.5,220.9,167.6,220.8,167.6,220.6c0.3-0.3,0.6-0.6,0.6-1c0.1-0.1,0.3-0.2,0.3-0.3c0.1-0.2,0.3-0.5-0.1-0.6
			c-0.3-0.1-0.3,0.3-0.3,0.5c0,0.1,0,0.3,0,0.5C167.7,219.9,167.6,220.2,167.6,220.6z M163.5,220.6v-1c0,0,3.4,0.9,3.9-1
			c0.1-0.5,0.1-1,0.1-1.5c0.9-2.6,0.3-3.5-2.4-3c-0.7,0.1-1.1,0.5-1.2,1.1c0,0.7-0.1,1.3,0.5,1.9v2.7h-0.9v-0.7
			c0.3-0.2,0.3-0.5,0-0.5c-0.3,0.1-0.1,0.4-0.1,0.6c0.1,0.1,0.3,0.2,0.3,0.3c0.4,0.5,0.5,0.9,0.7,1.1c0.1,0.1,0.1,0.1,0.3,0.1
			C164.7,220.8,163.5,220.6,163.5,220.6z M166,221.6C166.1,221.6,166.1,221.7,166,221.6h0.2C166.1,221.6,166.1,221.5,166,221.6
			L166,221.6z"/>
		<path d="M178.3,221.8c-1.3,1.1-2.3,1.3-3.2,0.6c-1.1-0.8-1.7-2-1.4-3.4c0.3-1.3,0.5-2.6,0.4-3.8c-0.1-0.5,0.1-0.8,0.6-0.8
			c1.4,0,2.8,0,4.1,0.1c0.5,0.1,0.5,0.5,0.1,0.9l-0.1-0.1c-1.1-0.9-2.2-0.5-3.4-0.4c-0.7,0.1-1.3,1.5-0.7,2.5
			c0.4,0.9,0.7-0.3,1.1-0.4c0.7-0.1,1.1-0.3,1.7,0.4c-1.4,0.3-2.2,1-2.2,2s0.7,1.7,2.2,2c0,0.1,0,0.3,0,0.5c-0.7,0-1.3,0-1.9,0
			c-0.2-0.1-0.3-0.3-0.5-0.5c-0.1-0.4-0.1-0.8-0.4-1c0-0.1,0-0.3,0-0.5c0-0.2,0-0.5-0.3-0.5c-0.2,0.1-0.1,0.4,0,0.6
			c0.1,0.1,0.2,0.2,0.3,0.3c0,0.4,0.1,0.7,0.4,1c0.1,0.2,0.3,0.3,0.5,0.5c0.6,0.7,1.3,0.7,1.9,0C177.5,221.7,178,221.7,178.3,221.8
			L178.3,221.8z"/>
		<path d="M178.8,215c0.1,1.5,0.6,2.9,0.6,4.3c-0.1,0.9-0.1,1.7-1.1,2.1l-0.1-0.1c0-0.3,0-0.7,0-1c0.9-1.1,0.6-2.3,0.3-3.5
			C178.3,216.2,177.9,215.5,178.8,215L178.8,215z"/>
		<path d="M137.2,215.3c-0.7-0.3-1.2-0.8-1.5-1.5C136.7,214,137.2,214.5,137.2,215.3z"/>
		<path d="M138.3,217.3c-0.6-0.5-0.9-1.2-1.1-2C138.2,215.7,138.4,216.5,138.3,217.3z"/>
		<path d="M168.1,196.1c1.2,0.6,1.2,1.8,0.9,2.8c-0.3,1.2-0.6,2.4-0.3,3.6c0.3,0.7-0.3,0.9-0.7,1c-1.4,0.1-2.7,0-4.1,0
			c-0.6,0-0.8-0.3-0.7-0.8c0.6-1.5,0-2.9-0.3-4.3c-0.1-1.2,0.3-2.4,1.4-3.1s2.3-0.7,3.4,0C168,195.5,168.1,195.8,168.1,196.1
			c-0.3,0-0.3,0-0.6,0c-0.1-0.1-0.1-0.1-0.3-0.1c0.1,0,0.1,0.1,0.3,0.1c0,0.4,0.1,0.7,0.6,1c0,0.1,0,0.3,0,0.5s0,0.5,0.3,0.5
			c0.3-0.1,0.1-0.4,0.1-0.6c-0.1-0.1-0.3-0.2-0.3-0.3C168.1,196.8,168.1,196.5,168.1,196.1z M164.9,196.1
			C165,196,165,196,164.9,196.1C164.9,196,164.9,196,164.9,196.1c-0.3,0.3-0.6,0.6-0.6,1c-0.1,0.1-0.3,0.2-0.3,0.3
			c-0.1,0.2-0.3,0.5,0.1,0.6c0.3,0.1,0.3-0.3,0.3-0.5c0-0.1,0-0.3,0-0.5C164.7,196.8,164.9,196.5,164.9,196.1z M164.7,199.6
			c-0.7,0.7-0.6,1.7-0.4,2.6c0,0.3,0.3,0.7,0.6,0.7c0.8,0.2,1.8,0.4,2.7,0c0.9-0.3,0.7-1.3,0.6-1.9c-0.3-0.9-0.7-0.2-1.1-0.1
			C165.9,201.3,165.1,201.1,164.7,199.6c0.7,0.3,1.4,1.4,2.4,0.4c0.8-0.9,0.7-1.8,0.3-2.7c-0.1-0.1-0.1-0.3-0.3-0.4
			c-0.6-0.7-1.1-0.7-1.7-0.1C165,197.6,164.7,198.6,164.7,199.6z"/>
		<path d="M179.3,203.2c0.3,0.4,0.4,0.9-0.1,0.9c-1.5,0.1-3,0-4.7,0c-0.6,0-0.6-0.5-0.6-0.9c0.3-1.3,0-2.5-0.3-3.6
			c-0.3-1.4,0.6-3.2,1.7-3.5c1.2-0.5,2.6-0.6,3.5,0.8l-0.1,0.1c-0.6,0.3-0.4,0.7,0.1,0.9l0,0c-0.1,1.2,0.6,2.7-1.1,3.5
			c0.1-1,0.8-2,0.3-3.1c-0.6-0.9-1.4-1.1-2-0.3c-0.6,0.6-0.7,1.2-0.4,2.1c0.4,1,1.2,1.3,2.2,1.4c-0.9,0.8-1.7,0.5-2.4-0.2
			c-0.1-0.1-0.3-0.4-0.6-0.1c-0.6,0.5,0,2.7,0.8,2.7c1.2,0.1,2.6,0.5,3.7-0.4L179.3,203.2z M175.5,196.7c-0.1,0.2-0.3,0.3-0.6,0.5
			c-0.3,0.3-0.6,0.6-0.6,1c-0.1,0.1-0.3,0.2-0.3,0.3c-0.1,0.2-0.3,0.5,0.1,0.6c0.3,0.1,0.3-0.3,0.3-0.5c0-0.1,0-0.3,0-0.5
			c0.4-0.2,0.6-0.6,0.6-1C175.2,197,175.3,196.9,175.5,196.7c0.3-0.1,0.6,0,0.6-0.3c0,0-0.1-0.1-0.3-0.1
			C175.7,196.5,175.7,196.6,175.5,196.7z"/>
		<path d="M178.8,196.7c1.7,1.2,0.8,2.9,0.8,4.3c0,0.7-0.6,1.4-0.4,2.2l-0.1,0.1c-0.6-0.6-0.4-1.3-0.3-2c0.3-1.2,0.6-2.4-0.3-3.5
			l0,0c0-0.3,0-0.6-0.1-0.9L178.8,196.7z"/>
		<path d="M138.5,200.9c-0.6-0.5-0.9-1.2-1.1-2C138.3,199.2,138.5,200,138.5,200.9z"/>
		<path d="M136.4,197.8c-0.7,0-1.2-0.3-1.5-1C135.7,196.8,136.1,197.1,136.4,197.8z"/>
		<path d="M137,198.3c-0.1-0.1-0.3-0.3-0.6-0.5C136.6,197.9,136.9,198.1,137,198.3z"/>
		<path d="M137.5,198.8c-0.1-0.1-0.3-0.3-0.6-0.5C137.1,198.5,137.2,198.6,137.5,198.8z"/>
		<path d="M49.9,561.2c2.3-1.3,4-0.4,4.1,2.1c0.1,1.5-0.6,2.9-0.3,4.3c0.1,0.4-0.3,0.7-0.7,0.7c-0.3,0.1-0.6,0.1-0.9,0.1
			c-3.8,0-3.4,0.1-3.4-3c0-0.6,0-1.2-0.3-1.8c-0.3-0.8,0-1.4,0.6-2l0.1,0.1c0.1,0.3-0.3,0.7,0.3,0.9c0.1,0.1,1.1-0.5,1.1-0.5v3.1
			c-0.3,0.1-0.4-1.1-0.7-0.1c-0.1,0.4,0,0.7,0,1.1c0.3,1.6,0.3,1.6,1.8,1.6c1.7,0,1.7,0,1.7-1.8c0-0.3,0-0.9,0-0.9s0.3-2.1-0.6-3.1
			c-0.1-0.2-0.3-0.3-0.4-0.5c-0.1-0.1-0.1-0.1-0.1-0.1c0.1,0.1,0.1,0.1,0.3,0.1c0.3,0.1,0.7,0.4,0.7,0.4v3.2c0,0-1.6,1.5-2.7,0.4
			c1.2-0.2,1.7-0.8,1.7-1.9c0.1-1.2-0.6-1.9-1.7-2.2c-0.3-0.3-0.6-0.4-0.9-0.4L49.9,561.2z"/>
		<path d="M64.2,562.5c0.6,0.5,0.6,1.1,0.6,1.8c-0.1,1.3-0.3,2.7-0.3,3.8c0,1.1-0.7,1.5-1.7,1.3c-1.2-0.2-3.2,0.9-3.9-0.9
			c-0.4-1.7-0.4-3.6-0.1-5.6c0-0.2,0.3-0.4,0.6-0.5l0.1,0.1c0,1.7,0,3.5,0.1,5.1c0,0.9,0.3,1.4,1.4,1.3c0.6-0.1,1.1-0.1,1.5,0
			c1.1,0.1,1.2-0.4,1.5-1.3C64.2,566.2,64.1,564.3,64.2,562.5L64.2,562.5z"/>
		<path d="M60.5,561.4c0.9-0.7,1.7-0.7,2.7,0l-0.1,0.1c-0.3,0.1-0.4,0.1-0.6,0.2c0.3,0.1,0.4,0.1,0.6,0.2l0.1,0.1
			c0.1,0.1,0.3,0.3,0.6,0.5l0,0c0,1.1,0,2.1-0.1,3.2c-0.1,0.7-0.6,1.2-1.4,1.3s-1.6,0.1-1.7-1c0.8,0.3,1.7,0.8,2.3-0.2
			c0.6-0.8,0.4-1.8,0-2.7c-0.3-0.4-0.6-0.6-1.1-0.6c-0.6,0.1-1.1,0.4-1.2,0.9c-0.1,0.8-0.1,1.7-0.3,2.5c-0.9-1.1-0.3-2.3-0.6-3.5
			l0,0c0.1-0.1,0.3-0.3,0.6-0.5l0,0c0.3-0.1,0.4-0.1,0.6-0.2C61,561.6,60.7,561.6,60.5,561.4L60.5,561.4z"/>
		<path d="M88.4,568.3c0.6,0.2,0.8,0.5,1.1,1C88.7,569.4,88.4,568.9,88.4,568.3z"/>
		<path d="M63.2,561.4c0.6,0.1,0.9,0.4,1.1,1l-0.1,0.1c-0.1,0-0.3,0-0.6-0.1l0,0c-0.1-0.1-0.3-0.3-0.6-0.5l-0.1-0.1
			C63.1,561.8,63.1,561.7,63.2,561.4L63.2,561.4z"/>
		<path d="M59.5,562.8c0.1-0.6,0.4-0.9,1.1-1l0.1,0.1c0,0.1,0,0.3,0,0.5l0,0c-0.1,0.1-0.3,0.3-0.6,0.5l0,0
			C60,562.9,59.9,562.9,59.5,562.8L59.5,562.8z"/>
		<path d="M49.2,561.3c0.1-0.1,0.3-0.3,0.6-0.5l0.1,0.1C49.6,561,49.4,561.2,49.2,561.3L49.2,561.3z"/>
		<path d="M87.8,567.8c0.1,0.1,0.3,0.3,0.6,0.5C88.1,568.1,87.9,567.9,87.8,567.8z"/>
		<path d="M53.3,587.6c-0.1,0-0.3,0-0.6,0c0.1-1.4,0.1-2.9-0.9-3.9c1.1,0.1,1.5,0.7,1.5,1.6C53.3,586,53.3,586.8,53.3,587.6z"/>
		<path d="M51.6,583.6c-0.6,0.2-0.9,0.5-1.5,0.5C50.4,583.5,50.8,582.7,51.6,583.6z"/>
		<path d="M53.3,587.6c0,0-1.2,0-1.4,0c0.1-0.1,0.3-0.5,0.3-0.5l1.1,0.3V587.6L53.3,587.6z"/>
		<path d="M63.3,589c-0.3,0.1-0.3,0.3-0.6,0.5c-0.3,0-0.7,0-1.1,0c1.2-1.1,1.2-2.5,1.1-3.9C63.9,586.6,63.2,587.9,63.3,589z"/>
		<path d="M59.8,588.9c0.1-1.1-0.4-2.4,0.6-3.4c-0.1,1.4-0.1,2.9,0.9,3.9c-0.3,0-0.7,0-1.1,0C60.1,589.2,60,589.2,59.8,588.9z"/>
		<path d="M63,585.1c-0.8-0.5-1.7-0.6-2.6,0C61.3,583.7,62,583.7,63,585.1z"/>
		<path d="M165.6,216.1c1.2-0.8,1.7,0,2.1,1C167,216.8,166.2,216.5,165.6,216.1z"/>
		<path d="M164.6,217.1c0-0.6,0.3-0.9,1.1-1C165.4,216.6,165.1,216.9,164.6,217.1z"/>
		<path d="M178.5,220.8c-0.3,0.1-0.7,0.3-1.1,0.5c0.6-1.3,0.6-2.7,0-3.9C179,218.1,178.4,219.5,178.5,220.8z"/>
		<path d="M50.2,565.5c0.1,0.1,0.3,0.3,0.6,0.5C50.7,565.8,50.4,565.6,50.2,565.5z"/>
		<path d="M50.3,561.9c0.1-0.1,0.3-0.3,0.6-0.5C50.7,561.5,50.4,561.7,50.3,561.9z"/>
	</g>
	<text transform="matrix(0.9986 1.020288e-02 -1.000284e-02 1 138.9538 74.5664)" class="st1 st2 st3">Lab HES</text>
	<text transform="matrix(1.001886e-02 -1.0013 0.9999 1.021921e-02 167.3323 174.4505)" class="st1 st2 st4">Ruang Dosen</text>
	<text transform="matrix(1.001886e-02 -1.0013 0.9999 1.021921e-02 165.8353 323.9691)" class="st1 st2 st4">Ruang Dosen</text>
	<text transform="matrix(1.001886e-02 -1.0013 0.9999 1.021921e-02 60.7817 690.9334)" class="st1 st2 st4">Ruang Dosen</text>
	<text transform="matrix(0.9986 1.020333e-02 -1.000330e-02 1 33.6375 442.5559)" class="st1 st2 st3">Lab IoT</text>
	<text transform="matrix(0.9986 1.020333e-02 -1.000330e-02 1 28.809 718.7544)" class="st1 st2 st3">Lab NOS</text>
	<text transform="matrix(0.9986 1.020333e-02 -1.000330e-02 1 130.6896 354.6132)" class="st1 st2 st3">Lab Foresty</text>
	<text transform="matrix(0.9986 1.020333e-02 -1.000330e-02 1 8.4186 761.2951)" class="st1 st2 st5">Arah GSG</text>
	<text transform="matrix(0.9986 1.020333e-02 -1.000330e-02 1 171.9382 35.1344)" class="st1 st2 st5">Arah Parkiran</text>
	<text transform="matrix(1.001886e-02 -1.0013 0.9999 1.021921e-02 62.2659 539.6587)" class="st1 st2 st4">Ruang Dosen</text>
	<text transform="matrix(0.8517 1.020293e-02 -8.531770e-03 1 26.2813 398.0088)" class="st1 st2 st6">Ruang Sidang</text>
</g>
</svg>
