<svg id="Layer_1" data-name="Layer 1" xmlns="http://www.w3.org/2000/svg" viewBox="0 0 279.66 784"><defs><style>.cls-1{opacity:0.5;isolation:isolate;}.cls-2{fill:none;}</style></defs><title>EditDenahSVG2</title><path d="M263.18,3.15c-3,0-3,0-3,3v1c-.1,11.9-.2,24.1-.4,35.9,0,1.4-.1,2.9,0,4.3a2,2,0,0,0,1.71,1.8c2.61.1,5.31.1,7.92.1,2.21,0,2.21.1,2.21,2.3v1c-.4,40.81-.81,81.41-1.21,122.32v1.5c-.1,1.6-.1,1.7-1.8,1.7-2.41,0-4.82,0-7.22-.1-3.41,0-3.41,0-3.51,3.4-.2,20.6-.4,41.1-.6,61.71v1.5c.1,1.7.4,2,2.1,2,2.31.1,4.51,0,6.82.1a3.42,3.42,0,0,1,3.31,3.4q-.6,59.1-1.2,118.11c0,3.6.2,3.3-3.51,3.3-23.47-.2-47-.5-70.5-.7-3.21,0-3.21,0-3.31,3.4v1.5l-.81,81.91c-.3,27.41-.5,54.91-.8,82.31v2a1.88,1.88,0,0,1-1.9,1.8c-3.51,0-7-.1-10.53-.1-2.31,0-2.31,0-2.41,2.4l-.6,63c0,2.5.2,2.6,2.71,2.7,3.2,0,6.41.1,9.52.1,2.41,0,2.41,0,2.41,2.6v.5l-1.2,120.62v1.7a1.07,1.07,0,0,1-1.21,1.2h-2.91c-2.3-.1-4.71-.1-7-.1-3.51,0-3.51-.4-3.61,2.3v.5c-.1,14-.3,28-.4,42v1.5a1.06,1.06,0,0,0,1.21,1.2h2c11.74.1,23.37.2,35.1.4l85.85.9c2.91,0,2.91,0,3-3,0-.1,1,0,1,0l.4-40.8c-.1-.5-.1-1-.2-1.5-.1-1.6-.4-1.9-1.91-2-2-.1-3.91,0-5.91-.1-3.81,0-3.51.3-3.51-3.5l1.2-120.32v-1.7c.1-1.6.1-1.7,1.71-1.7,2.4,0,4.91.1,7.42.1a3.58,3.58,0,0,0,3.71-3.2s.4-41.1.6-61.41v-1.3c0-1.9-.1-2-2-2-2.4-.1-4.71,0-7.12-.1-3.91,0-3.11.2-3.21-4.7-.7-39.3.1-78.61,1.21-117.91.1-4.6-.5-4.3,3.31-4.3l84,.9h2c1.81,0,1.91-.1,2-2,.1-3.7.1-7.3.1-11l.3-30c0-2.5,0-2.5-2.51-2.5-3,0-6-.1-9.12-.1-2.61,0-2.61,0-2.71-2.8v-.7c.4-39.8.8-79.61,1.2-119.71v-1.5c.1-1.9.2-1.9,2.11-1.9,3.61,0,7.22.1,10.83.1,2.21,0,2.41-.2,2.51-2.4q.3-31.82.6-63.51c0-2.2,0-2.3-2.21-2.3-3.71,0-7.42-.1-11.13-.1-1.91,0-1.91-.1-2-2v-1c.41-40.61.81-81,1.21-121.62v-1.7c0-.8.4-1.2,1.3-1.2h3c2,.1,3.91.1,5.92.1,4.11-.2,4.11.5,4.21-2.3V48c.1-13.4.3-26.8.4-40.2V6.26a1.06,1.06,0,0,0-1.2-1.2h-2c-12-.1-24-.2-35.9-.4C320.75,3.75,291.86,3.45,263.18,3.15Zm15.95,410.36c.3.7.2,1.1-.6,1.2a9.77,9.77,0,0,1-1.71,0c-.8,0-1.1-.5-1.2-1.3-.2-1.8,0-2.3,1.5-2.7a1.52,1.52,0,0,0-1-.6c-1-.4-1.5-.1-1.4,1.1v.7c-.2,3.1.2,2.7-3.11,2.8H271c-2.61-.2-2.71.1-2.71-2.2.1-6.3.1-12.7.2-19.11v-1.7c0-1.7-.4-2.1-2-2-1.2.2-2.2-.6-3.41-.4a9.72,9.72,0,0,0,3.11,1.4c2.21.8,1,2.7,0,9a24.34,24.34,0,0,0,.6,10.4c.91,3.4.6,4.6-1.2,4.5h-1.5c-22.57-.2-45.23-.5-67.9-.7-3.31,0-3,0-3-3.2l.3-34.51v-1.5c-.1-1,.4-1.6,1.51-1.5h1.5c22.67.2,45.43.5,68.1.7h.5c2.51,0,2.51,0,2.51,2.5a24.3,24.3,0,0,0,0,2.7c.1,1.3-.51,1.8-1.71,2.1a16.18,16.18,0,0,1-4.91.1c-3.11,0-3.71-.2-2.51,3.8.1.3.4.5.6.8-.4-3-.4-3,2.71-3a29.22,29.22,0,0,0,5.11-.3c1.51-.3,1.71-1,1.51-2.7a5.44,5.44,0,0,1,0-1.8c.3-4-.3-4.1,2-4.2h.71c3.51,0,3.51,0,3.81,3.5.1,1.5.1,1.5,1.5,1.1a1.56,1.56,0,0,1-.4-1.6c.1-1,.2-2,.2-3,0-.5-.4-1.3-.2-1.7.5-.6,1.4-.3,2.11-.2,1.7,0,3.41,0,5.21.1.7,0,1.2.3,1,1.1a11.68,11.68,0,0,0-.4,3.7,1.23,1.23,0,0,1-1.4,1.3c.2.4.6.5,1,.7.9.4,1.41.1,1.51-.9v-.5c.2-3.3.2-3.3,3.41-3.3l89.55.9c3.61,0,3.31-.2,3.21,3.5l-.3,33.91V414c-.1,1.7-.1,1.7-1.91,1.8h-1.2l-89.86-.9h-.7c-2.51,0-2.51,0-2.51-2.5,0-.8.41-1.9-.4-2.3a2.09,2.09,0,0,0-2.5,1.2c.7.2,1.6-1.1,1.9.6s-.1,2.7-1,2.9c-1.3.3-2-.1-2.41-1.5-.9-.9-1.3-2.4-2.91-2.6C277.62,411.81,278.73,412.31,279.13,413.51Zm7-40.61c.1-.9,1.2-.5,1.8-.6a3.47,3.47,0,0,1,1,.1c.4.1.8.3.7.8s-.3.5-.7.6a3.82,3.82,0,0,1-1,.1C287.25,373.6,286.05,374.1,286.15,372.9Zm-14.34,42.31c.8.2,2.1-.3,2.1.8s-1.2.7-2,.7-2,.4-2-.8S271.21,415.51,271.81,415.21Zm-2.71,13.4c0,.5-.1,1.1-.7,1.1s-.7-.6-.7-1.1c0-3.4.1-6.8.1-10.2a8,8,0,0,1,.3-1.5c.1-.5.1-1.2.7-1.1s.3.8.3,1.3c0,1.8,0,3.7-.1,5.5h0C269.1,424.71,269.1,426.61,269.1,428.61ZM193.88,459c-2.7,0-2.7,0-2.7-2.8.1-12.8.3-25.7.4-38.6v-1.5c0-.8.4-1.3,1.2-1.3h2c23.06.2,46.23.5,69.3.7,1,0,2.1-.6,2.9.6-.9.7-1.8.4-2.7.4-22.77-.2-45.53-.5-68.3-.7-3.51,0-3.31-.2-3.31,3.4l-.3,34.8v2a1.22,1.22,0,0,0,1.4,1.4h1.71c23,.2,46,.5,69,.7,3.11,0,3.11,0,3.11-3.1,0-3.3.1-6.7.1-10a9.7,9.7,0,0,1,.1-1.7c0-.2.3-.4.5-.5a.51.51,0,0,1,.7.5,9.7,9.7,0,0,1,.1,1.7c0,3.9-.1,7.8-.1,11.8,0,2.8,0,2.8-2.71,2.8-12.13-.1-24.27-.3-36.4-.4S205.92,459.11,193.88,459Zm74.22,1.4c.5,0,.6.4.7.9,0,1.7,0,3.5-.1,5.2s0,3.5-.1,5.2c0,.5-.2.9-.7.9s-.61-.4-.71-.9c0-3.5.1-6.9.1-10.4C267.39,460.81,267.6,460.41,268.1,460.41Zm-73.61,41.71h-1.41c-2.2-.1-2.2-.1-2.2-2.3.1-12.7.2-25.4.4-38.11a7.57,7.57,0,0,1,.1-1.5.4.4,0,0,1,.5-.4c.1.1.3.2.3.3a26.7,26.7,0,0,1,0,4,129.75,129.75,0,0,0-.3,30.51c.1,1.3,0,2.5.1,3.8,0,2.3.2,2.5,2.51,2.6l29.78.3c13.14.1,26.38.3,39.61.4h1.21c2,0,2.1-.1,2.1-2.1,0-3.8.1-7.7.1-11.5,0-.7-.4-2.1.61-2.1,1.3,0,.8,1.4.8,2.2,0,4,0,8-.1,12,0,2.5,0,2.5-2.41,2.5-12.13-.1-24.27-.3-36.4-.4C217.85,502.32,206.22,502.22,194.49,502.12Zm73.11,1.1c.7,0,.7.5.7,1.1,0,1.7,0,3.5-.1,5.2h0v4.9c0,.5-.1.9-.7.9a.71.71,0,0,1-.71-.8c0-3.5.1-6.9.1-10.4C267,503.72,267.09,503.22,267.6,503.22Zm-77.23,38.9c0-4.7.11-9.5.11-14.3.1-7.7.2-15.4.2-23.1,0-.6-.2-1.7.4-1.7,1,0,.6,1.2.6,1.8-.1,12-.2,24.1-.4,36.1,0,3.5-.2,3.3,3.21,3.7h68.79a2.35,2.35,0,0,0,.71.3c2.5,0,2.5,0,2.5-2.4,0-3.5.1-7,.1-10.5v-1.5c0-.5-.1-1.3.7-1.3s.61.8.61,1.4c0,4.6-.1,9.2-.1,13.8,0,1.1-.41,1.7-1.61,1.7a4.77,4.77,0,0,1-2-.4H228.78c-11.83-.1-23.76-.2-35.6-.4C190.27,545.12,190.27,545.32,190.37,542.12Zm-13.53,68.51c-2.31,0-2.41,0-2.31-2.4.1-9.1.5-27.3.5-27.3l1-3.7V547.42a5.37,5.37,0,0,1-.9-2c0-.9.4-1.4,1.31-1.4,3.91,0,7.82.1,11.83.1.3,0,.7,0,.7.5s-.4.5-.7.5c-2.71,0-5.42-.1-8.12,0a16.3,16.3,0,0,0-2.21,0c-1.5.1-1.81.4-1.91,2,0,.5.1,1.5.1,1.5v57.61s-.8.9-.7,1.3c0,2,.3,2.3,2.31,2.3,2.91.1,5.72.1,8.62.1a9.85,9.85,0,0,1,1.71.2.45.45,0,0,1,.3.3.32.32,0,0,1-.3.3,7.13,7.13,0,0,1-1.41.1C183.35,610.73,180.05,610.73,176.84,610.63Zm85-51.5c-.8,7.7,1.3,5.8-5.32,6.4h-.3c-1.2-.3-2.1.1-1.9,1.1.2,1.2.2,2.5,1.4,3.3-.9-3.5-.9-3.4,2.61-3.5,1.4-.1,2.91.6,4.21-.2.5-.3.9.2.9.8v5c0,.5-.3.6-.8.7a6.35,6.35,0,0,1-3.81-.5,4,4,0,0,0-1.8-.7c.6,1.3,1.9,1.4,3.1,1.8a2.12,2.12,0,0,1,1.11,3c-.2.5-.5.6-1,.6a13.35,13.35,0,0,1-2,0c-26.28-.3-52.55-.5-78.83-.8-3.31,0-3.11.2-3.11-3.4.11-7.8.21-15.7.21-23.51v-1.5c.1-1.5.2-1.6,1.8-1.7h1.4c26.18.3,52.35.5,78.53.8,4.41,0,2.71-.4,3.31,7.71A10.36,10.36,0,0,1,261.88,559.13Zm1.4-12c.2,0,.5.2.5.4a4.87,4.87,0,0,1,.1,1.2c0,4.71-.1,9.31-.1,14,0,.6.21,1.6-.7,1.6s-.7-.9-.7-1.6c0-2.3,0-4.7.1-7s0-4.51.1-6.71c0-.5.1-1,.1-1.5A.82.82,0,0,1,263.28,547.12Zm-7.22,36.51c-1.9,0-2,.4-1.3,2.5,0-.9.2-1.4,1.3-1.5,2.31-.1,4.62.3,6.82-.2.5-.1.7.3.7.7,0,2,0,3.9-.1,5.9a.1.1,0,0,1-.1.1h-3.91c3,1.6,1.31.7,2.21,10.3v.5c-1.1,8.1.6,8.2-2.51,8.3-5.41-.1-10.83-.1-16.14-.2-21.27-.2-42.43-.4-63.59-.7-3.11,0-3.11,0-3-3.2.1-8.1.2-16.2.2-24.3v-1.7c0-.9.5-1.3,1.4-1.3h1.7c26.28.3,52.55.5,78.83.8h1c2,.1,2.11.2,2,2.2-.1,1.6-.1,1.7-1.71,1.8C258.77,583.63,257.37,583.53,256.06,583.63Zm6.72,9.1c.2,0,.5.2.5.4a4.87,4.87,0,0,1,.1,1.2c0,4.7-.1,9.3-.1,14,0,.6.2,1.6-.7,1.6s-.7-.9-.7-1.6c0-2.3,0-4.7.1-7s0-4.5.1-6.7c0-.5.1-1,.1-1.5A1.06,1.06,0,0,1,262.78,592.73Zm-.5-10.5v-7.4c0-.4.3-.6.7-.6s.7.3.6.6c0,2.5,0,4.9-.1,7.4,0,.4-.3.6-.7.6C262.58,582.83,262.38,582.63,262.28,582.23Zm-17.75-3.4-25.77-.3c-13.14-.1-26.38-.3-39.52-.4a19.42,19.42,0,0,1-2.4-.2.7.7,0,0,1-.4-.5c0-.2.2-.5.4-.5a19.27,19.27,0,0,1,2.4-.1c23,.2,45.83.5,68.7.7,3.61,0,7.22.1,10.83.1H260c.61.1,1.61-.2,1.61.7s-.9.7-1.61.7C254.86,578.93,249.64,578.83,244.53,578.83Zm-52.15,75.71h-.7c-3-.1-1.91-.1-2.31-6a246.88,246.88,0,0,1,.3-33.31c.4-5.6-.7-5.7,2.61-5.7,12.14.1,24.27.3,36.4.4h0c11.84.1,23.57.2,35.41.4h1.7c1.6.1,1.6.2,1.71,1.8,0,3.7-.11,7.4-.11,11.1v.5c-.1.5-.1,1.1-.8,1-.5-.1-.6-.5-.6-.9,0-2.4,0-4.8-.1-7.2a14.08,14.08,0,0,1,.1-2.9c.1-1.3-.4-1.9-1.6-1.9h-1.71c-23-.2-45.83-.5-68.8-.7-3.1,0-3.1,0-3.1,3.1-.1,11.8-.2,23.61-.3,35.31v1.8a1.75,1.75,0,0,0,1.7,1.7h1.4c23,.2,46,.5,69,.7h.5c2.41,0,2.51,0,2.51-2.5,0-3.8.1-7.5.1-11.4,0-.6-.2-1.6.7-1.6s.7,1,.7,1.6c0,4.5-.1,8.9-.1,13.4,0,1.9-.1,1.9-2,1.9-11.94-.1-23.87-.2-35.8-.4a3.25,3.25,0,0,1-1.71-.3c-.8-.5-1.4-.9-2.21-.2a.31.31,0,0,1-.2.1c-2.1-.8-4.31.4-6.41.3C209.83,654.74,201.11,654.64,192.38,654.54Zm-.5,42.7h-1.71c-.9,0-1.3-.5-1.3-1.4v-1.3c.1-12.4.2-24.9.4-37.3,0-.7-.4-2.1.5-2.1s.4,1.3.4,2.1c-.1,11.5-.2,23.1-.3,34.5v2c.1,1.6.4,1.9,1.91,2a6.53,6.53,0,0,0,1.4,0c23,.2,45.83.5,68.7.7a3.12,3.12,0,0,0,3.11-3.1c0-3.3.1-6.7.1-10,0-.6.1-1.1.1-1.7a.54.54,0,0,1,.5-.5.51.51,0,0,1,.7.5,7.57,7.57,0,0,1,.1,1.5c0,4.1-.1,8.4-.1,12.5,0,2.3-.1,2.3-2.4,2.3-12.24-.1-24.37-.3-36.61-.4Zm-3.41,40.41a13.35,13.35,0,0,1,0-2c.1-5.8.1-11.7.2-17.5s.1-11.41.2-17v-2c0-.3.1-.8.4-.8.6-.1.5.5.5.9a9.65,9.65,0,0,1,0,1.7l-.3,26.71c0,2.7-.1,5.5-.1,8.3a9.7,9.7,0,0,1-.1,1.7c0,.3-.1.5-.5.5C188.57,738.25,188.47,738,188.47,737.65Zm80.33,0c-1.91,0-1.91-.1-1.91-2,0-4.1.1-8.1.1-12.2,0-2,0-1.9-1.9-2.5a17.24,17.24,0,0,0-3.91-.3,1.86,1.86,0,0,1-1.61-.5c-.7.7-.6,1.3.3,1.4a9.49,9.49,0,0,0,2.91.1c1.51,0,2,.6,1.31,3.3,0,3.2-.1,6.2-.1,9.3.6,2.3.4,3.4-1,3.4h-1.9c-22.27-.2-44.43-.5-66.79-.7-3.41,0-3.11.2-3.11-3.3l.3-33.91v-1.5c-.1-1.1.4-1.7,1.6-1.6h1.71c22.26.2,44.42.5,66.79.7,3.81,0,3-.3,3.11,4.7v4c-.1,4.31.4,4.31-2.51,4.31h-.5c-.8.1-1.71-.4-2.21.6a2,2,0,0,0,.8,2.4c-.1-1.3.71-1.5,1.71-1.5a11.51,11.51,0,0,0,4.11-.4c.8-.3.6-1.4.6-1.4s0-1.51.7-1.51l.31-25.8a3.81,3.81,0,0,1-.1-1.5,1.44,1.44,0,0,0-1.21-1.6,17.46,17.46,0,0,0-3.91-.5c-.8,0-1.6.3-2.31-.5-.7.7-.6,1.3.31,1.4a10.07,10.07,0,0,0,3,.1c1.51,0,2,.6,1.31,3.3-.1,3.1-.1,6.1-.2,9.2.7,2.4.5,3.6-1,3.6a2.68,2.68,0,0,1-1.7-.4l-67.89-.7c-3.21.3-3.21.5-3.11-2.8.1-11.5.2-22.9.3-34.4v-1.7c0-.9.4-1.4,1.3-1.4h1.2l26.08.3c.7,0,1.4-.1,1.9.4a3.85,3.85,0,0,1,1.11-.1c.1,0,.3.1.4.1l-.1-.1a.6.6,0,0,1,.4-.1c.1,0,.1.1.2.1a.6.6,0,0,1-.4.1,3.4,3.4,0,0,0,1,.1c.2,0,.5.1.7.1l.3.1a11.21,11.21,0,0,1,1.81.3c.5-.9,1.3-.9,2.21-.8,6.21.1,12.33.1,18.45.2,5,.1,10,.1,15,.2,2.21,0,2.21.1,2.11,2.3,0,2.8-.1,5.7-.1,8.5,0,2.1-.1,2.1-2.11,2.2h-1c-.8.1-1.81-.4-2.21.6a2,2,0,0,0,.8,2.4c0-1.9,0-1.9,1.91-2a10.87,10.87,0,0,0,3.11-.2c1.8-.4,1.9-.3,1.9-2.2,0-4.1.1-8.2.1-12.3.1-5.4.1-10.9.21-16.3,0-2,0-1.9-1.91-2.5a17.19,17.19,0,0,0-3.91-.3,1.87,1.87,0,0,1-1.61-.5c-.7.7-.6,1.3.3,1.4a10.15,10.15,0,0,0,3,.1c1.51,0,2,.6,1.31,3.3-.1,3.1-.1,6.1-.2,9.2.7,2.4.5,3.6-1,3.6-.5,0-1.4.1-1.4.1s-45.53-.5-68.2-.7h-1c-1.8-.1-1.9-.2-1.9-2.1.1-5.4.1-10.7.2-16,.1-6.71.1-13.31.2-20.11,0-2.4,0-2.4,2.3-2.4,23.07.2,46.24.5,69.3.7,2.11,0,2.21.1,2.11,2.3,0,2.8-.1,5.7-.1,8.5,0,2.1-.1,2.1-2.11,2.2h-1c-.8.1-1.81-.4-2.21.6a2,2,0,0,0,.81,2.4c0-1.9,0-1.9,1.6-2a26.94,26.94,0,0,0,4-.2,1.69,1.69,0,0,0,1.3-1.6l.11-13.1c0-1.2-.51-1.7-1.61-1.6a4.87,4.87,0,0,1-1.2-.1,1.06,1.06,0,0,1-1-1.2V607c.2-19.2.41-38.3.61-57.51v-1.3c-.1-1,.3-1.5,1.4-1.6,2.51-.2,2.61-.3,2.61-2.8,0-4.7.1-9.4.1-14,0-2.1-.4-2.6-2.51-2.7a24.5,24.5,0,0,0-2.71,0c-1.6,0-1.6,0-1.6-2a2.55,2.55,0,0,0-.9,1.5c-.21.9.1,1.5,1,1.6a12.28,12.28,0,0,0,2.71,0c1.2,0,1.7.5,1.4,2.3,0,3.5-.1,7-.1,10.5.3,1.7.1,2.8-1.3,2.7H263c-22.66-.2-45.23-.5-67.89-.7-3,0-3,0-3-3,.1-11.4.2-22.7.3-34.1v-1.3c.1-1.6.1-1.7,1.71-1.8h.3l27.27.3c1,0,1.61.2,1.71,1.2a2.77,2.77,0,0,1,.9-.1h0s.7.9,1,.8a2,2,0,0,1,.71-.1c0-.1,0-.1.1-.2.1.1.1.5.1.5h.1a6,6,0,0,1,1.8-.6.75.75,0,0,1,.5.1,1.62,1.62,0,0,1,1.21-.4c2.2,0,4.41,0,6.62.1l26.27.3a10.88,10.88,0,0,1,1.71-.3c1.2-.1,1.6.6,1.6,1.7,0,3.1-.1,6.3-.1,9.5,0,1.7-.1,1.7-1.9,1.8a24.46,24.46,0,0,0-2.71.1c-.91.2-.91.8-.3,1.4a1.66,1.66,0,0,1,1.3-.5h2.41c3.31-.1,3.61-.4,3.61-3.7.1-9,.2-18,.3-26.9,0-2.9-.2-3.1-2.91-3.4-.9-.1-1.81,0-2.71-.1-1.2-.1-1.4-.5-.8-1.6a4.28,4.28,0,0,0,.5-1.3,2,2,0,0,0-1.1.9c-.4.9-1.1,1.8-.7,2.8s1.6.8,2.4.8c2.71.1,2.71.1,2.71,2.8,0,3.6-.1,7.1-.1,10.8,0,1.9-.1,2-2,2-11.83-.1-23.56-.2-35.4-.4a2.81,2.81,0,0,1-1.5-.3c-.5.2-1.4-.3-1.4-.3h-1.11a3,3,0,0,1-1-.2,4.51,4.51,0,0,1-1.1-.3c-.1,0-.1,0-.1-.1a1.85,1.85,0,0,1-1.41.5c-4.91-.3-9.73-.2-14.64-.2-3.61,0-7.32-.1-11-.1-2.31,0-2.31-.1-2.21-2.4.1-10,.2-20.1.3-30.21,0-1.7,0-3.5.1-5.3.1-2,.1-2,2.21-2h1c22.37.2,44.63.5,67,.7,3.51,0,2.91,0,2.91,4.2,0,1.7,0,3.3-.1,5-.1,3.8.2,3.8-2.61,3.8a12.05,12.05,0,0,0-1.9,0c-.9.2-.9.8-.3,1.4a1.54,1.54,0,0,1,1.3-.5h2.41c3.21-.1,3.61-.4,3.61-3.7.1-8.9.2-17.9.3-26.8,0-2.9-.2-3.1-2.91-3.4-.9-.1-1.8,0-2.71-.1-1.2-.1-1.4-.5-.8-1.6a4.28,4.28,0,0,0,.5-1.3,2,2,0,0,0-1.1.9c-.4.9-1.1,1.8-.7,2.8s1.5.7,2.4.8c2.71.1,2.71.1,2.71,2.8,0,3.6-.1,7.1-.1,10.7,0,1.9-.1,1.9-2,2a26.6,26.6,0,0,1-5.62-.4l-61.68-.6a2.54,2.54,0,0,1-1.4.3c-2.41,0-2.51,0-2.41-2.5l.3-35.1a2.78,2.78,0,0,1,2.81-2.7l64.09.7c1.6,0,3.2,0,4.91.1,1.3,0,1.6.7,1.3,2.4v8.8c.1,1.3-.4,1.8-1.5,1.8h-2.21c-1.6,0-1.9.5-1.4,2a1.69,1.69,0,0,0,.7,1c-.1-1,.4-1.5,1.4-1.5a16.42,16.42,0,0,0,3.82-.3,1.74,1.74,0,0,0,1.6-2c0-3,.1-6,.1-9v-1.7c0-.9.5-1.3,1.4-1.3h2.21c.8,0,1.61,0,2-1a1.68,1.68,0,0,1,1.8-1c1.81,0,3.61,0,5.32.1.6,0,1.3,0,1.2.8-.1,1.2.5,1.2,1.3,1.2h2.71c1,0,1.51.4,1.51,1.5a9.34,9.34,0,0,0,.2,2.3l-1.21,121.61c-.2,3.8-.2,3.8,3.31,3.8,2.21,0,4.41,0,6.52.1,1.91,0,2,.1,2,2.1v1l-.5,56.11a3,3,0,0,1-3.11,3l-6.32-.1c-2.71,0-2.71,0-2.81,2.9v1.5c-.4,40.51-.8,80.91-1.2,121.42,0,3.5.2,3.3-3.11,3.3A74.94,74.94,0,0,0,268.8,737.65Zm-2.71-.2c0,.5.1,1.2-.6,1.3s-.6-.7-.7-1.1v-1.1c0-2.9.1-5.7.1-8.6v-.9c.1-.5-.2-1.4.6-1.5s.6.8.7,1.4c.1,1.2-.3,2.5.7,3.5a8.65,8.65,0,0,0-.7,1.7h0C266.09,733.85,266.09,735.65,266.09,737.45Zm-.4-38.51c.5,0,.6.4.6.9,0,3.5-.1,6.9-.1,10.41,0,.5-.2.9-.7.9s-.6-.4-.6-.9c0-1.81,0-3.71.1-5.51v-4.9C265.09,699.34,265.29,698.94,265.69,698.94Zm-39.41-43.4a.6.6,0,0,0,.1.4.6.6,0,0,1-.4-.1.14.14,0,0,1,0-.2C225.88,655.54,226.08,655.44,226.28,655.54Zm39.81.3c.5,0,.6.4.6.9,0,3.5-.1,6.9-.1,10.4,0,.5-.2.9-.7.9s-.6-.4-.6-.9c0-1.7,0-3.5.1-5.2s0-3.5.1-5.2C265.49,656.24,265.69,655.84,266.09,655.84Zm1.2-170.72-.2-.1.2-.1Zm1-43.11v-.2l.2.1Zm4.21,298.14c2,0,4.11,0,6.12.1,1.6.1,1.8.4,1.4,1.8a12.41,12.41,0,0,0-.3,2.7c-.1,1.8-.1,1.8-2,1.5.41,1.2,1.61,1,2.51,1.2.6.1.9-.5.9-1a20.9,20.9,0,0,0,.1-2.5c-.1-1.4.71-1.9,2.61-1.5a29.22,29.22,0,0,0,10.63.1c2-.3,3,0,2.91,1.5v1.5c-.1,12.1-.2,24.2-.4,36.3v1.7a1.43,1.43,0,0,1-1.4,1.4h-1.71l-116.13-1.2a3,3,0,0,1-3-3.2c.1-12.1.2-24.2.4-36.3v-1.7c0-.9.5-1.3,1.41-1.3h1.4l89.66.9H269c.9,0,1.3.5,1.3,1.4v2.7c0,1.1.4,1.2,1.41,1a4.25,4.25,0,0,0,3-2c.7-1.1,1.2-.5,2-.1l-.3-1.2c-.3-.6-.5-1.2-.8-1.8-.6.4-.3,1.2-.7,1.7a7.14,7.14,0,0,1-1,1.4c-.5.6-1.3,1.3-2,1s-.4-1.3-.4-2a21.05,21.05,0,0,0-.2-2.5C271,740.25,271.11,740.25,272.51,740.15ZM381,373.3c2,0,2,.1,2.11,2.2-.1,9-.21,18-.31,27.11,0,4.4-.1,8.9-.1,13.3,0,1.9-.1,2-2,2.1h-2l-82.63-.9h-1.51c-3,0-3,0-3,3q-.6,61.2-1.2,122.31c0,3.1,0,3.1,2.91,3.1,2.51,0,5.21.1,7.72.1,1.61,0,1.71.2,1.71,1.8v1.5c-.2,20-.41,40.11-.61,60.11v1c-.1,2.2-.1,2.2-2.2,2.2-2.81,0-5.62-.1-8.43-.1-1.6,0-1.6.1-1.7,1.7a13.35,13.35,0,0,0,0,2q-.3,30.61-.6,61.11l-.6,60.91c0,.9-.31,2.1,0,2.7.6.9,2.2.2,3.1.4a11.2,11.2,0,0,0,4.82.1c1.8-.4,2.61.1,2.51,1.6v1.5c-.11,13.3-.31,26.5-.41,39.8v1.7c0,.9-.5,1.3-1.4,1.3h-1.7l-119.65-1.2c-3.21,0-3,0-3-3.2.11-13.2.31-26.4.41-39.6v-1.7c0-1,.4-1.6,1.5-1.5h1.71l90.15.9c.8,0,2.41-.6,2.51.6.1.7-1.6.4-2.41.4l-88.95-.9c-3.51,0-3.51,0-3.61,3.6-.1,12.3-.2,24.5-.4,36.8v1.5c0,1.7.3,2.1,1.9,2.2H177L294,786.05c3.41,0,3.41,0,3.41-3.4.1-12.5.2-25.1.4-37.5v-.5c0-2.5,0-2.5-2.41-2.6-3.61,0-7.22-.1-10.83-.1h-1.7c-.4,0-1,.1-.9-.5s.7-.4,1-.5c1.2-.1,2.71.6,3.51-.4.5-.7.1-2.3.1-3.4q.6-61.21,1.2-122.52c0-3.8-.2-3.5,3.51-3.4,2.21,0,4.42.1,6.62.1,1.81,0,2.11-.3,2.21-2.2.1-1.3,0-2.5,0-3.7.2-18.2.4-36.4.5-54.61v-1.7c0-2.2,0-2.2-2.21-2.3-2.7,0-5.51-.1-8.22-.1-1.91,0-1.91-.1-1.91-2v-2c.41-40.2.81-80.51,1.21-120.71v-1.5c0-2.4.6-3.2-2.71-3a1.48,1.48,0,0,1-.7-.1c-.5-.1-.8-.3-.8-.7s.5-.6.9-.7h2.2l89.86.9c3.61,0,3.41.3,3.41-3.3l.3-34.81v-1.3c0-2.1-.1-2.1-2.1-2.2-2.71,0-5.52-.1-8.23-.1-.7,0-1.8.3-1.9-.6-.1-1.3,1.2-.8,1.9-.8A37.84,37.84,0,0,1,381,373.3Zm-12.34-40.6a9.7,9.7,0,0,1,.1,1.7c-.1,12.5-.2,25.1-.4,37.5v.7c-.1,1.7-.1,1.7-1.9,1.8-.6,0-1.71-.9-1.71-.9h-70.7a11.14,11.14,0,0,1-1.7.2c-1,.1-1.61-.4-1.51-1.4,0-4.4.5-13.3.5-13.3v-.3s-.3-.7.2-.7c.1,0,.3.3.3.5a4.42,4.42,0,0,1,0,1.7c0,3.1-.1,6.3-.1,9.5,0,2.3,0,2.3,2.31,2.4l29.79.3h39.81a3.62,3.62,0,0,0,2,.4,1.27,1.27,0,0,0,1.4-1.4v-2l.3-34.8a19.53,19.53,0,0,1,.2-2.3.54.54,0,0,1,.5-.5C368.38,332.2,368.68,332.3,368.68,332.7Zm.51-42.61a4.85,4.85,0,0,1,0,1.7c-.1,12.4-.2,24.9-.41,37.31,0,2.7,0,2.7-2.6,2.6-7.83-.1-15.75-.2-23.57-.2l-12.74-.1c-11.83-.1-23.76-.2-35.6-.4h-1.7a1.23,1.23,0,0,1-1.41-1.4c0-4.5.1-9,.1-13.51,0-.3.1-.8.4-.8.61,0,.51.5.51.9,0,3.11-.1,6.31-.1,9.51,0,4.4-.41,3.6,4.71,3.8,21.66.2,43.32.5,65,.7,5.62-.2,5.42.9,5.52-3.3l.3-34.81a18.48,18.48,0,0,1,.1-2.3c0-.4.3-.6.7-.6C369,289.49,369.19,289.79,369.19,290.09Zm-1.81,2.4-.3,33.91v1.3c-.1,2.1-.1,2.1-2,2.2h-1.2c-22.56-.2-45.13-.5-67.79-.7-3.41,0-3.11.2-3.11-3.3,0-2.9.1-5.9.1-8.81,0-2.4,0-2.4,2.3-2.4h1.21c1.9,0,2.3-.7,1.7-2.5-.3-.6-.5-1.3-1.2-1.5.9,3,.9,3-2.11,3h-1.4c-2.41.2-2.81.5-2.81,3-.1,9.21-.2,18.41-.3,27.51,0,2.5.4,2.9,2.81,3h1.2c3.31,0,3.31,0,2.31,3,.9-.3,1.1-1.2,1.4-2,.4-1.4,0-1.9-1.5-2.1-1.1-.1-2.51.4-3.31-.4s-.4-2.4-.4-3.6c0-2.9,0-5.9.1-8.8,0-1.6.1-1.7,1.7-1.7h1.41c22.56.2,45.23.5,67.79.7,3.41,0,3.21-.2,3.21,3.3-.1,11.4-.2,22.8-.3,34.1v1.5c-.1,1.5-.1,1.6-1.81,1.7h-1.4c-22.56-.2-45.23-.5-67.79-.7-3.21,0-3.11.2-3.11-3.1s.1-6.3.1-9.6c0-1.7.1-1.8,1.8-1.9h2c1.4-.1,1.9-.6,1.5-2.1a6.9,6.9,0,0,0-1.7-2.7c-1-1-1-1,0-2.3a8.22,8.22,0,0,0-1.41.5c-.7.3-1.4.5-2,.7.5.6,1.3.6,1.9.9a6.08,6.08,0,0,1,2.71,2.8c.3.6,0,1-.6,1.1a19.38,19.38,0,0,1-2.41,0,16.2,16.2,0,0,0-2.2.1c-1.61.3-1.81.6-1.81,2.4,0,3.2-.1,6.3-.1,9.6,0,3.6.3,3.4-3.31,3.4-4.71,0-9.53-.1-14.24-.1-2,0-2-.1-2.11-2.1v-2q.62-60,1.21-119.91c0-3.6.3-3.5-3.21-3.5-2.31,0-4.61,0-6.92-.1-1.1,0-1.71-.4-1.61-1.6v-1.5c.21-19.21.41-38.31.61-57.51,0-3.3-.2-3.2,3.11-3.1,2.4,0,4.71,0,7.12.1,1.1,0,1.7-.4,1.6-1.6v-2.3L274,52.56c0-3.7-.3-3.4,3.31-3.4,4.62,0,9.13.1,13.74.1,2.51,0,2.61,0,2.61,2.6-.1,12.6-.2,25.1-.4,37.61-.3,28.8-.6,57.5-.8,86.31v1.3c-.1,1.1.4,1.7,1.6,1.7h.7c1.51.1,1.61.2,1.61,1.8v1.3c-.1,7.2-.1,14.4-.2,21.7a42.7,42.7,0,0,1,.4,7.9v5.3a2.33,2.33,0,0,0,0,2v20.4s-.7.71-.7,1c-.1,2-.1,2-2.11,2.1-1.8.1-1.8.2-1.8,1.9-.11,4.6-.11,9.2-.11,13.8a1.82,1.82,0,0,0,1.51,2.1,28.59,28.59,0,0,0,4.11.4c.7,0,1.51-.1,1.71,1,.6-1.7.5-1.9-.81-2a16.13,16.13,0,0,0-2.2,0c-1.81-.1-1.91-.2-1.91-1.8,0-3.7.1-7.3.1-11,0-1.1.4-1.7,1.61-1.7h1.4c22.67.2,45.33.5,68,.7,3.41,0,3.11-.2,3.11,3.4-.1,11.4-.2,22.7-.3,34.1v.7c0,2.4,0,2.4-2.3,2.4h-1c-22.56-.2-45.13-.5-67.79-.7-3.41,0-3.11.2-3.11-3.3,0-2.9.1-5.9.1-8.8,0-2.4,0-2.4,2.31-2.4h1.2c1.91,0,2.31-.7,1.71-2.5-.3-.6-.51-1.3-1.21-1.5.91,2.9.91,2.9-2.2,3h-1.41c-2.4.2-2.71.5-2.81,3l-.3,27.6c0,2.3,0,2.3,2.11,2.8a25.62,25.62,0,0,0,3.91.2c1.1.1,1.4.5.8,1.4a24.33,24.33,0,0,1-2,2.5c1.7-.3,2.4-1.6,2.91-3s0-1.9-1.41-2a16.13,16.13,0,0,0-2.2,0c-1.51-.1-1.61-.2-1.61-1.8,0-3.7.1-7.3.1-11,0-1.1.4-1.7,1.61-1.7a13.35,13.35,0,0,0,2,0c22.47.2,45,.5,67.49.7C367.68,289.09,367.48,288.89,367.38,292.49ZM291.76,331.6c.41.1.41.5.41.8,0,2,0,4-.1,5.9s0,3.8-.1,5.7c0,.3,0,.7-.41.8s-.5-.3-.5-.7c0-4,.1-8,.1-12C291.26,332,291.26,331.5,291.76,331.6ZM368,50.36c1.11-.1,1.61.4,1.61,1.6-.1,12.4-.2,24.9-.4,37.31,0,1.2-.51,1.7-1.61,1.6h-1.4c-22.67-.2-45.33-.5-68.1-.7-3.31,0-3,.1-3-3.2,0-2.9.1-5.81.1-8.81,0-2.5,0-2.5,2.41-2.5h1.71c1.3-.1,1.4-.3.8-2-.1.9-.7.9-1.41,1-1.4.1-2.9-.2-4.31.3-.7.3-1-.3-1-.9,0-2.7.1-5.5.1-8.2,0-.5.1-1.1.9-.9a26,26,0,0,0,4.82.3c.9.1,1.2.5.7,1.3a5.82,5.82,0,0,1-3.91,3.1c-.2.1-.5.2-.71.3.21.1.41.3.61.4a3.13,3.13,0,0,0,1.9.4c-.4-.7.1-1,.6-1.4a5.77,5.77,0,0,0,2.31-3.1c.3-1.3,0-1.9-1.4-2-.91-.1-1.81,0-2.71-.1a1.14,1.14,0,0,1-1.21-1.3c0-4,.11-8,.11-12,0-.9.5-1.2,1.3-1.2h1.4c22.87.2,45.63.5,68.5.7ZM293.77,92.77c.5,0,.6.4.6.9,0,3.4-.1,6.8,0,10.2a9.7,9.7,0,0,1-.1,1.7c0,.5-.2.9-.7.9s-.6-.4-.6-.9c0-2.1,0-4.1.1-6.2,0-1.9,0-3.8.1-5.7C293.07,93.17,293.27,92.77,293.77,92.77ZM298.18,162c1.21-.1,1.61-.6,1.41-1.71-.2-.9-.4-1.8-1.41-2.2.7,2.5.7,2.5-2,2.5a11,11,0,0,0-2.61.2c-.8.31-1.3-.2-1.2-1.1,0-2.5,0-5,.1-7.4,0-.9.5-1.2,1.3-1,1.2.5,2.51.2,3.91.3s1.41.1,1,1.5c-.1.3-.1.7-.3.9.91-.3,1.11-1.2,1.41-1.9.4-1.4,0-1.9-1.51-2.1-1.1-.1-2.5.4-3.31-.4-1-.9-.3-2.5-.4-3.7a21.66,21.66,0,0,1-.1-3.6c.4-6.3-.7-6.3,2.81-6.3,6.52.1,12.94.1,19.36.2,1.7,0,3.41,0,5.21.1a2.3,2.3,0,0,1,1.4.4c.21,0,.41-.1.61-.1h.1c.2,0,.5-.1.7-.1v-.1c0-.1.1-.1.2-.1s.3,0,.3.1a8.93,8.93,0,0,1,2.31,0,3.19,3.19,0,0,1,1.4.3,1.35,1.35,0,0,1,1.2-.5h1.41c11.43.1,22.76.2,34.1.4h.3c2.9,0,2.9,0,2.8,2.8-.1,5.8-.1,11.7-.2,17.5s-.1,11.41-.2,17c0,2.7,0,2.7-2.5,2.6-23.07-.2-46.14-.5-69.3-.7h-1.21c-1.4,0-1.4-1.4-.6-3.4a10.93,10.93,0,0,0-.1-7.8c-.7-2-.2-2.8.91-2.8A8.42,8.42,0,0,0,298.18,162Zm-4.81.1-.2-.1.2-.1Zm.7-25.21c0,2,0,4-.1,5.9s0,3.8-.1,5.7c0,.5-.1,1.1-.8.9-.5-.1-.6-.5-.6-.9,0-3.9.1-7.8.1-11.7,0-.5.1-1.1.8-.9S294.07,136.47,294.07,136.87Zm46.73,73.41c13.14.1,26.38.3,39.52.4a19.42,19.42,0,0,1,2.4.2c.1,0,.41.4.31.6s-.21.5-.41.5a9.15,9.15,0,0,1-1.7.1q-40.47-.45-81-.8h-.7c-.51-.1-1.31.1-1.31-.7s.7-.7,1.21-.7h.5C313.43,210,327.17,210.08,340.8,210.28Zm-43.52.3v2.9c0,.2-.2.5-.4.5a.4.4,0,0,1-.5-.4c0-2.1,0-4.3.1-6.4,0-.2.1-.5.5-.4a.66.66,0,0,1,.4.5C297.28,208.48,297.28,209.48,297.28,210.58Zm82.84,32.81c-26.38-.3-52.65-.5-79.13-.8h-1.4c-1.21.1-1.61-.6-1.61-1.7,0-3.61.1-7.11.1-10.81,0-1.8,0-3.7.1-5.5s.1-2,1.91-2.1h2.71c1.9,0,2-.4,1.3-2.5,0,.8-.2,1.5-1.3,1.5h-.51c-4.11.2-4.91-.7-4.11-5,.1-.9.6-1.1,1.41-.8a8.36,8.36,0,0,0,2,.8c-.4-1-1.4-1.3-2.4-1.6-1.21-.3-1-1.1-1-1.9s.7-1,1.41-1H301c26.38.3,52.65.5,79.13.8,3,0,3,0,3,3-.1,8.2-.21,16.4-.21,24.51v1.5c.11,1-.4,1.6-1.5,1.5A5.7,5.7,0,0,1,380.12,243.39Zm-83.94-19.11c0-.4-.1-.9.4-1s.5.5.5.9c-.1,5.7-.1,11.3-.2,17,0,.3-.1.5-.1.7a.76.76,0,0,1-.4.2.45.45,0,0,1-.3-.3,9.7,9.7,0,0,1-.1-1.7c0-2.51,0-5,.1-7.51h0C296.18,229.78,296.18,227,296.18,224.28Zm.2-2.5c-.7,0-.6-.6-.6-1.1V217c0-.7.1-1.4,1.1-1.3s.9.8.9,1.5v1.5h.1a16.35,16.35,0,0,1-.2,2.2A1.32,1.32,0,0,1,296.38,221.78Zm3.81-12.6a1.87,1.87,0,0,1-1.61-2.9,1.23,1.23,0,0,1,1.21-.5H303c1.9,0,2-.4,1.3-2.5,0,.9-.3,1.3-1.3,1.5-4.32.5-5-.2-4.72-4.5.1-1.1.4-1.5,1.51-1.1a3.4,3.4,0,0,0,1,.1c-2.61-1.8-2.41-1.7-2.41-5.7s.1-7.9.1-11.9c0-2.4,0-2.5,2.11-2.5,6.72.1,13.44.1,20.16.2l59.67.6c3,0,3,0,3,3.2-.1,8-.2,15.8-.2,23.8v1.7c0,.9-.51,1.3-1.41,1.3h-1.7c-26.28-.3-52.55-.5-78.83-.8Zm-4.21-9a.73.73,0,0,1,.9-.8c.5.1,1,.1,1,.8,0,1.4,0,2.8-.1,4.2a1.13,1.13,0,0,1-1.2,1.1c-.8.1-.6-.7-.7-1.3a9.65,9.65,0,0,1,0-1.7h0C296,201.68,295.88,201,296,200.18Zm1.6-19.7c-.1,5.3-.1,10.6-.2,16,0,.3-.1.7-.1,1,0,.1-.3.2-.4.2a.32.32,0,0,1-.3-.3,9.7,9.7,0,0,1-.1-1.7c0-2.4,0-4.8.1-7.2h0c0-2.7.1-5.3.1-8,0-.4-.1-1,.4-1.1C297.78,179.28,297.58,180.08,297.58,180.48Zm-5.51,108c.6,0,.5.5.5.9,0,1.8,0,3.7-.1,5.5s0,3.7-.1,5.5c0,.4.1.9-.51.9-.3,0-.4-.5-.4-.8,0-3.7.1-7.5.1-11.2C291.66,288.89,291.66,288.49,292.07,288.49Zm76.71-42.2c-.1,12.9-.3,25.8-.4,38.7v1.2a1.29,1.29,0,0,1-1.2,1.2h-1.6c-23.37-.2-46.84-.5-70.21-.7h-1.5c-1,.1-1.4-.5-1.4-1.5,0-4.2.1-8.5.1-12.7a1.48,1.48,0,0,1,.1-.7c.1-.1.2-.3.3-.3.3-.1.4.2.4.4a6.05,6.05,0,0,1,0,1.9c0,3.2-.1,6.4-.1,9.5,0,1.8.1,1.9,1.9,2h2.71c22,.2,43.93.5,65.79.7,3.31,0,3.11.2,3.11-3.1.1-11.4.2-22.9.3-34.3v-.7c0-2.5,0-2.5-2.41-2.5-22.86-.2-45.83-.5-68.79-.7h-.3c-2.21,0-2.21,0-2.21,2.2,0,2.8-.1,5.6-.1,8.3a7.52,7.52,0,0,1,0,1.5c-.1.5.2,1.4-.5,1.4s-.4-1-.4-1.5a24.32,24.32,0,0,1,0-2.7c0-1.9,0-4,.1-5.9.1-4.6-.4-4.6,2.9-4.6l29.29.3c2,0,4,0,6,.1l33.89.4h1.51C368.78,243.89,368.78,243.89,368.78,246.29Zm15.45-68c1.7,0,1.8.1,1.7,2-.1,5.8-.1,11.7-.2,17.5,0,4.6-.1,9.2-.1,13.8l-.3,29.31v1.5c0,2.5,0,2.5-2.2,2.5-3.11,0-6.12-.1-9.13-.1a5.28,5.28,0,0,1-1.3-.1c-.2,0-.51-.1-.31-.5.11-.1.21-.3.31-.3a8.08,8.08,0,0,1,1.6-.1c2.41,0,4.81,0,7.12.1,2.71,0,2.71,0,2.81-2.9.1-9,.2-17.81.3-26.81.1-10.3.2-20.5.3-30.8v-1.7c0-2.1-.2-2.3-2-2.4-2.7-.1-5.41-.1-8-.1-.6,0-1.6.2-1.6-.4,0-1,1.1-.5,1.6-.6C377.81,178.18,381,178.28,384.23,178.28Zm-13.64-40.91a4.85,4.85,0,0,1,0,1.7c-.1,12.4-.2,24.91-.4,37.31v.7c-.1,1.9-.1,1.9-2,1.9-5-.1-15-.5-15-.5l-22.16,1H295.37s-1-1.3-1.4-1.3c-1.6-.1-1.6-.2-1.7-1.8,0-4,.1-8,.1-12a1.48,1.48,0,0,1,.1-.7c.1-.5.3-.8.8-.7s.5.3.6.7a20.85,20.85,0,0,1,0,2.5c0,3-.1,6-.1,9,0,1.7.3,2,2,2.2l1.7.3h68a3,3,0,0,0,1,.5c2.4,0,2.51,0,2.51-2.5.1-12,.2-24.11.4-36.11a18.48,18.48,0,0,1,.1-2.3c0-.4.3-.6.7-.6A.55.55,0,0,1,370.59,137.37Zm.5-42.1c.1.3,0,.7.5,1v36.5a1.58,1.58,0,0,0-.9,1.5c.1,1.1-.4,1.7-1.6,1.7a1.8,1.8,0,0,1-1.41-.4h-36.4c-12-.1-24-.3-36-.4-2.7,0-2.7,0-2.7-2.7,0-3.7.1-7.3.1-11,0-.6-.2-1.6.7-1.6s.7.9.7,1.6c0,3.3-.1,6.7-.1,10,0,2.5.2,2.7,2.61,2.8l34.9.3h33.89a8.66,8.66,0,0,0,1.71.4c1.8,0,2-.3,2.11-2a3.42,3.42,0,0,1,.3-1.7v-36c.1-.6-.2-1.6.8-1.5S371.09,94.67,371.09,95.27ZM298,92.67c22.77.2,45.43.5,68.3.7,3,0,3,0,3,3l-.3,34.8c0,2.8,0,2.8-2.61,2.8-23-.2-45.83-.5-68.7-.7h-1.4c-.91,0-1.31-.5-1.31-1.4,0-3.8.1-7.7.1-11.5,0-1.2.61-1.6,1.71-1.5a9.72,9.72,0,0,0,2.41,0c1.3-.1,1.4-.3.8-2-.1.9-.7.9-1.41,1-1.4.1-2.9-.2-4.31.3-.7.3-1-.3-1-.9,0-2.5.1-5.1.1-7.7,0-.9.5-1.3,1.3-.9,1.21.5,2.51.2,3.91.3s1.41.1,1,1.5c-.1.3-.1.7-.3.9a2.26,2.26,0,0,0,1.3-1.7c.5-1.5.1-2.1-1.5-2.3-1.11-.1-2.51.4-3.31-.4s-.41-2.4-.41-3.6c0-2.9,0-5.8.11-8.8,0-1.6.1-1.7,1.7-1.8C297.18,92.67,297.58,92.67,298,92.67Zm73-37.81c-4.31,10-3.71,21.3-.2,31.61a11.53,11.53,0,0,1,.3,4.9,1.16,1.16,0,0,1-1.4,1.3H368c-24-.2-47.93-.5-72-.7-3.11,0-3,.2-3-3.2s.1-7,.1-10.51c0-.6-.2-1.6.7-1.6s.7.9.7,1.5c0,3.3-.1,6.51-.1,9.81,0,2.5,0,2.5,2.51,2.5,16.55.2,33.09.3,49.64.5,6.72.1,13.44.1,20.16.2h2a1.32,1.32,0,0,0,1-.9,9.7,9.7,0,0,0,.1-1.7c.1-12,.2-24.11.4-36.11v-1.3c0-1-.4-1.6-1.41-1.6h-1.4c-23.07-.2-46.23-.5-69.3-.7-3,0-3,0-3,2.9,0,3.3-.1,6.5-.1,9.8,0,.6.2,1.6-.7,1.6s-.7-.9-.7-1.6c0-4.1.1-8.2.1-12.3,0-1.9.1-1.9,2-1.9,5.61.1,11.23.1,16.94.2,6.72.1,13.44.1,20.16.2,11.84.1,23.77.2,35.6.4h2a1.22,1.22,0,0,1,1.4,1.4C371.59,51.36,371.69,53.16,371,54.86Zm-90-12c-1.8-.9-2.5-.4-2.6,1.6v1c.1,1.1-.5,1.5-1.51,1.5-2.51,0-5-.1-7.62-.1-1.91,0-3.71,0-5.62-.1s-1.8-.2-1.9-2v-1c.1-11.5.2-23.1.3-34.5V8c.1-1.5.1-1.6,1.8-1.7h1.41l115.93,1.2h.7c2.41,0,2.51,0,2.51,2.5-.1,11.8-.2,23.7-.3,35.5v1.3a1.14,1.14,0,0,1-1.21,1.3h-2l-89.66-.9h-.7c-2.21-.1-2.21-.1-2.31-2.2V44c-.1-1.3-.3-1.4-2-.8.4.1.8.3.8.7l.3,4.5c.1.7-.4.8-.9.8-2,0-3.91,0-5.92-.1-.8,0-1.4-.3-1.1-1.2a15.53,15.53,0,0,0,.4-3.7c.1-.7.4-.9,1-.5a23.19,23.19,0,0,1,1.91,1.5C282.84,43.86,282,43.26,281,42.86Zm8.33,6.1c-.4-.1-.8-.3-.8-.7a.86.86,0,0,1,.9-.7h2.2c.51,0,1,.1,1,.7s-.7.7-1.11.7h-2.2ZM385.83,9c-.1,12.5-.2,25.1-.4,37.5V48c-.1,1.8-.1,1.9-1.8,1.9-3.31,0-6.52-.1-9.83-.1a3.4,3.4,0,0,1-1-.1c-.3-.1-.61-.3-.51-.7.1-.2.31-.5.51-.5a9.7,9.7,0,0,1,1.7-.1c2.61,0,5.22.1,7.82.1,2,0,2.11-.1,2.11-2.1.1-8,.2-15.8.2-23.8,0-4.5.1-9,.1-13.5,0-2-.1-2.1-2.11-2.2h-1.4L264.69,5.66c-3.91,0-3.91,0-3.91,3.8-.1,11.4-.2,22.7-.3,34.1v1.3c0,2.2.2,2.5,2.4,2.5,4.11,0,8.13.1,12.24.1a13.4,13.4,0,0,1,2,.1c.4,0,.6.3.6.7s-.3.7-.6.7a20.83,20.83,0,0,1-2.5,0c-1.61.1-1.61.1-1.71,1.8v2l-.6,62.11c-.2,20.5-.4,41.1-.6,61.61v1.7c-.1,1.9-.1,1.9-2,2-2.71,0-5.41-.1-8.22-.1a2.22,2.22,0,0,0-2.21,2.2v1.5c-.2,19-.4,38.1-.6,57.11v1.3c0,2.3.2,2.5,2.61,2.6,2.71,0,5.31.1,8,.1,1.71,0,1.81.2,1.91,1.9v2c-.41,39.8-1.81,119.31-1.81,119.31v1.3c0,2.7-.3,3,2.71,3,.6,0,1.8-.3,1.8.6.1,1.3-1.1.8-1.8.8-14.54-.2-29.08-.3-43.63-.5L198.8,373h-1.91a1.5,1.5,0,0,0-1.5,1.6v2l-.3,34.81c0,.8.3,2.2-.4,2.2-.91,0-.5-1.3-.5-2.1.1-12.4.2-24.91.4-37.31,0-2.7,0-2.7,2.7-2.6,22.57.2,45,.5,67.6.7,4.61.1,2.81.5,3.51-8,.4-36.4.7-72.71,1.1-109.11-.8-9.2,1.3-8.6-3.51-8.7-2.11,0-4.31,0-6.42-.1-1.5-.1-1.6-.2-1.6-1.8a5,5,0,0,0-.5-1.5V182.48s1.2-.9,1.3-1.3c.1-1.9.1-1.9,2-2,2.6,0,5.21.1,7.82.1,1.8,0,1.9-.1,2-2v-1.5q.61-61.67,1.21-123.32c0-3.8.4-3.5-3.41-3.6-2.21,0-4.41,0-6.62-.1-1.61-.1-1.71-.2-1.71-1.8,0-2.7.3-8.3.3-8.3v-31s.11-1,.11-1.5c.1-1.9.1-1.9,2-2h1.4l118.94,1.2C386.13,5.46,385.83,5.06,385.83,9Z" transform="translate(-120 -3.15)"/><polygon points="158.43 44.41 158.63 44.41 158.53 44.21 158.43 44.41"/><path d="M262.28,718.35v-1c.3,0,.5-.1.7,0,.6.1,1.61-.2,1.61.7s-1,.2-1.61.3C262.88,718.45,262.58,718.35,262.28,718.35Z" transform="translate(-120 -3.15)"/><path d="M264.69,479.82v-1c.3,0,.5-.1.7,0,.6.1,1.6-.2,1.6.7s-1,.2-1.6.3Z" transform="translate(-120 -3.15)"/><path d="M265.09,436.71v-1c.3,0,.5-.1.7,0,.6.1,1.6-.2,1.6.7s-1,.2-1.6.3Z" transform="translate(-120 -3.15)"/><path d="M262.28,717.35a2.77,2.77,0,0,1-2.41-2.5A5.76,5.76,0,0,1,262.28,717.35Z" transform="translate(-120 -3.15)"/><path d="M261.78,675.64c.2-.8,1.1-.9,1.5-1.5.3,0,.5-.1.71,0s.6,0,.7.2-.1.3-.3.4C263.48,675,262.78,675.74,261.78,675.64Z" transform="translate(-120 -3.15)"/><path d="M262.28,632.54c.2-.8,1.1-.9,1.5-1.5.31,0,.71-.1.91,0s.4.2.6.3c-.1.1-.2.3-.3.3C264,631.84,263.18,632.64,262.28,632.54Z" transform="translate(-120 -3.15)"/><path d="M264.79,522.92c-.4-.6-1.21-.7-1.41-1.5a3.12,3.12,0,0,1,1.81.7c.4.3,1.2,0,1,.7C266.09,522.92,265.19,522.82,264.79,522.92Z" transform="translate(-120 -3.15)"/><path d="M265.09,435.71a2.77,2.77,0,0,1-2.41-2.5A6.45,6.45,0,0,1,265.09,435.71Z" transform="translate(-120 -3.15)"/><path d="M261.78,525.32a2,2,0,0,1,2-2A4.82,4.82,0,0,1,261.78,525.32Z" transform="translate(-120 -3.15)"/><path d="M262.68,630.63a1.92,1.92,0,0,1-1.9-2A4.12,4.12,0,0,1,262.68,630.63Z" transform="translate(-120 -3.15)"/><path d="M262.28,673.64a1.94,1.94,0,0,1-1.91-2A5.15,5.15,0,0,1,262.28,673.64Z" transform="translate(-120 -3.15)"/><path d="M259.37,721.75a1.7,1.7,0,0,1,1-2A2.77,2.77,0,0,1,259.37,721.75Z" transform="translate(-120 -3.15)"/><path d="M262.28,520.32c-.9-.4-1-1.1-1-2A2.33,2.33,0,0,1,262.28,520.32Z" transform="translate(-120 -3.15)"/><path d="M262.68,477.22c-.9-.4-1-1.1-1-2A2.33,2.33,0,0,1,262.68,477.22Z" transform="translate(-120 -3.15)"/><path d="M259.77,678.64a1.7,1.7,0,0,1,1-2A2.78,2.78,0,0,1,259.77,678.64Z" transform="translate(-120 -3.15)"/><path d="M260.17,635.54a1.7,1.7,0,0,1,1-2A2.44,2.44,0,0,1,260.17,635.54Z" transform="translate(-120 -3.15)"/><path d="M263.58,437.71a1.47,1.47,0,0,1,1.41-1A1.34,1.34,0,0,1,263.58,437.71Z" transform="translate(-120 -3.15)"/><path d="M264.69,478.82a1.32,1.32,0,0,1-1.41-1C264,477.72,264.39,478.12,264.69,478.82Z" transform="translate(-120 -3.15)"/><path d="M263.18,480.72a1.47,1.47,0,0,1,1.41-1A1.23,1.23,0,0,1,263.18,480.72Z" transform="translate(-120 -3.15)"/><path d="M260.88,719.35a1.46,1.46,0,0,1,1.4-1A1.41,1.41,0,0,1,260.88,719.35Z" transform="translate(-120 -3.15)"/><path d="M261.18,633.54c0-.6.3-.9,1-1A1.17,1.17,0,0,1,261.18,633.54Z" transform="translate(-120 -3.15)"/><path d="M260.78,676.64c0-.6.3-.9,1-1A1.28,1.28,0,0,1,260.78,676.64Z" transform="translate(-120 -3.15)"/><path d="M263.28,674.24a1,1,0,0,1-1-.5A.88.88,0,0,1,263.28,674.24Z" transform="translate(-120 -3.15)"/><path d="M263.68,631.13a1,1,0,0,1-1-.5A1,1,0,0,1,263.68,631.13Z" transform="translate(-120 -3.15)"/><path d="M263.78,523.32a1,1,0,0,1,1-.5C264.59,523.32,264.19,523.32,263.78,523.32Z" transform="translate(-120 -3.15)"/><path d="M260.37,719.75l.51-.5C260.68,719.45,260.58,719.65,260.37,719.75Z" transform="translate(-120 -3.15)"/><path d="M262.78,520.82l-.5-.5Z" transform="translate(-120 -3.15)"/><path d="M263.28,477.72l-.5-.5C262.88,477.42,263.08,477.52,263.28,477.72Z" transform="translate(-120 -3.15)"/><path d="M263.28,521.32l-.5-.5Z" transform="translate(-120 -3.15)"/><path d="M295.37,307.69c-.1.5-.3.8.31,1.1a2.18,2.18,0,0,1,.7.9c-1.11-.1-2-1-3.11-1-.1,0-.2-.2-.3-.3.1-.1.3-.2.4-.3A3.29,3.29,0,0,1,295.37,307.69Z" transform="translate(-120 -3.15)"/><path d="M295.78,264.59c-.2.5-.3.8.3,1.1a2.18,2.18,0,0,1,.7.9c-1.1-.1-2-1-3.11-1-.1,0-.2-.2-.3-.3.1-.1.3-.2.4-.3A4.23,4.23,0,0,1,295.78,264.59Z" transform="translate(-120 -3.15)"/><path d="M297.78,262.59a2,2,0,0,1-2,2A5.48,5.48,0,0,1,297.78,262.59Z" transform="translate(-120 -3.15)"/><path d="M298.28,261.59a1,1,0,0,1-.5,1A1,1,0,0,1,298.28,261.59Z" transform="translate(-120 -3.15)"/><path d="M296.38,349.8l-.5.5Z" transform="translate(-120 -3.15)"/><path d="M296.38,309.69l.5.5Z" transform="translate(-120 -3.15)"/><path d="M296.78,266.59l.5.5Z" transform="translate(-120 -3.15)"/><path d="M197.9,769.25c6.11.1,12.23.1,18.45.2h1.7a1.47,1.47,0,0,1,1.61,1.6c0,3.4-.1,6.8-.1,10.2,0,.8-.4,1.2-1.31,1.3h-1.4c-12.54-.1-25.17-.3-37.81-.4h-1.2c-1,0-1.61-.4-1.51-1.5,0-3.4.11-6.8.11-10.3,0-.9.5-1.3,1.4-1.3,1.8,0,3.61,0,5.41.1C188.07,769.15,193,769.15,197.9,769.25Zm-4.92,6.8h0v3.7c0,2.3,0,2.2,2.51,2.3h.7c1.51-.1,1.61-.1,1.71-1.8.1-2.1,0-4.3.1-6.5,0-3.3-.4-3.7-3.61-3.2a1.18,1.18,0,0,0-1.21,1.3C193.08,773.25,193,774.65,193,776.05Zm-.6,0h0v-3.5c0-2.5,0-2.5-2.51-2.5h-.5c-1.9,0-1.8.1-1.9,2.3s0,4.1-.1,6.2c0,3-.2,3,2.5,3h.71c1.1.1,1.7-.4,1.6-1.6A24.22,24.22,0,0,0,192.38,776.05Zm-10.73.4h0c0-1.1.1-2.3,0-3.5,0-2.4,0-2.2-2.91-2.3h-.1c-2.51.1-1.8,0-2.1,4.7a6,6,0,0,0,0,1.9c.2,4.9-.61,4.9,2.2,5h1.41c.8,0,1.2-.5,1.2-1.3C181.55,779.45,181.55,777.85,181.65,776.45Zm27.08-.6h0c0,1.3-.1,2.7,0,4,0,1.9.1,1.7,2.2,1.8h.2c2.81-.1,2.21.2,2.41-3.6v-1.5c-.2-6.4.8-6.5-3.11-6.4a8.6,8.6,0,0,0-1.6.1.1.1,0,0,0-.1.1Zm-5.92.5v-4.5c0-1.1-.4-1.5-1.4-1.6H200.2c-1.5.1-1.6.1-1.7,1.7-.1,2.6-.1,5.1-.1,7.8,0,1.9.1,1.9,1.9,2h1c1,.1,1.4-.5,1.5-1.5C202.71,779,202.81,777.65,202.81,776.35Zm-20.16-.6V780c-.1,1.2.5,1.7,1.61,1.6h1.4c.9,0,1.31-.5,1.31-1.4,0-2.9.1-5.8.1-8.8,0-.9-.41-1.3-1.41-1.4h-1.4c-1.21-.1-1.61.5-1.61,1.7Zm35.81.6h0c-.81,0-1.21-.6-.81-1.3,1.31-3.1,1.21-4.5-.4-4.5h-1.7c-1.31,0-1.51,1-1.11,2.7a12.05,12.05,0,0,1-.1,6c-.5,1.8-.2,2.7,1.11,2.8h1.4c1.2.1,1.61-.5,1.61-1.7Zm-14.65-.2h0v4.7a1.18,1.18,0,0,0,1.21,1.3,6.53,6.53,0,0,0,1.4,0c1.61-.1,1.61-.1,1.71-1.8.1-2.6.1-5.2.1-7.8,0-1.7-.1-1.8-1.71-1.9h-1.2c-1-.1-1.41.5-1.51,1.5Z" transform="translate(-120 -3.15)"/><path d="M196.69,766.25c-3.91,0-7.82-.1-11.83-.1-1.1,0-2.21-.2-3.31.6-.9.7-1.6-.4-2.31-.8-.3-.1-.2-.4-.1-.7.4-.6,2-1.2,2.61-.7a4,4,0,0,0,2.81.6l24.07.3c.8,0,2.2-.5,2.2.6.1.7-1.4.4-2.2.4C204.62,766.35,200.6,766.35,196.69,766.25Z" transform="translate(-120 -3.15)"/><path d="M276.82,745.05a1.65,1.65,0,0,1,1,1A.94.94,0,0,1,276.82,745.05Z" transform="translate(-120 -3.15)"/><path d="M362.57,8.66c5.91.1,11.93.1,17.85.2,2.3,0,2.4.1,2.3,2.4,0,2.8-.1,5.7-.1,8.5,0,2.1-.1,2.2-2.2,2.2l-24.27-.3c-4.11,0-8.23-.1-12.24-.1-1.9,0-2-.2-2-2,0-3,0-6,.1-9,0-2,.2-2.1,2.2-2C350.33,8.56,356.45,8.56,362.57,8.66Zm-4.92,6.6h0v4c0,2,.1,2.1,2.11,2.1h.5c1.71,0,1.71-.1,1.71-2.1,0-2.5,0-5.1.1-7.5,0-2.1,0-2.2-1.91-2.3h-1c-1.71-.1-2,1.2-.7,4.7C358.76,14.76,358.35,15.26,357.65,15.26Zm9.33.2v-4.7c0-1.1-.4-1.5-1.4-1.5h-.71c-2,0-2.1,0-2.2,2,0,2.7-.1,5.3-.1,8,0,1.9.1,1.9,1.9,2h1c1,.1,1.4-.5,1.5-1.5Zm10.93-.2c0,1.4-.1,2.8,0,4.2,0,1.6.1,1.7,1.61,1.8h1.4a1.06,1.06,0,0,0,1.2-1.2c0-3.1.1-6.3.1-9.5,0-.8-.4-1.3-1.2-1.3a6.53,6.53,0,0,0-1.4,0c-1.61.1-1.61.1-1.71,1.7Zm-6,0c0-1.4.1-2.8,0-4.2,0-1.6-.1-1.7-1.6-1.8h-1.41a1.06,1.06,0,0,0-1.2,1.2c0,3.1-.1,6.3-.1,9.5,0,.8.3,1.3,1.2,1.3a6.62,6.62,0,0,0,1.41,0c1.6-.1,1.6-.1,1.7-1.7Zm-20.15,0h0a.89.89,0,0,1-.91-1.3c1.21-3.1,1.41-4.8-.3-4.8h-1.4a1.61,1.61,0,0,0-1.71,1.6c0,3-.1,6-.1,9a1.23,1.23,0,0,0,1.41,1.4H350c1.2.1,1.71-.4,1.61-1.6C351.74,18.06,351.74,16.66,351.74,15.26Zm-4.92-.1h0v-4.7c0-.9-.3-1.4-1.3-1.4h-1.41c-1.1-.1-1.6.4-1.6,1.6,0,3-.1,6-.1,9,0,.9.4,1.4,1.3,1.4h1.41c1.1.1,1.6-.4,1.6-1.6C346.82,18,346.82,16.56,346.82,15.16Zm6-.1c0,1.5-.1,3,0,4.5s.2,1.5,1.9,1.6,2-.1,2-1.4c.1-3,.1-6,.1-9,0-1.4-.2-1.5-1.9-1.6s-1.91.1-2,1.4C352.84,12.06,352.84,13.46,352.84,15.06Zm24.07.4v-4.7c0-1.3-.8-1.4-1.81-1.4-1.7,0-2,.1-2.1,1.3-.1,3.1-.1,6.1-.1,9.2,0,1.3.8,1.4,1.8,1.4,1.71,0,2-.1,2.11-1.3C376.91,18.46,376.91,17,376.91,15.46Z" transform="translate(-120 -3.15)"/><path d="M358.86,25c5.71.1,11.53.1,17.25.2a2.84,2.84,0,0,0,1.3-.4,2.55,2.55,0,0,1,2.91.5.62.62,0,0,1-.1.7,2.51,2.51,0,0,1-2.81.5,4.07,4.07,0,0,0-2.81-.5l-30.08-.3c-.71,0-1.31.2-1.91-.2a2.46,2.46,0,0,1,2-.5c4.71-.1,9.52-.1,14.24,0Z" transform="translate(-120 -3.15)"/><path d="M283.64,45.36v1c0,.2,0,.5-.3.5-.1,0-.2-.2-.3-.3-.1-.5-.3-1.1-.4-1.7A9.25,9.25,0,0,0,283.64,45.36Z" transform="translate(-120 -3.15)"/><path d="M286.15,43a1,1,0,0,1-1,.5A.93.93,0,0,1,286.15,43Z" transform="translate(-120 -3.15)"/><path d="M284.24,44.46a1,1,0,0,1-.5,1A.83.83,0,0,1,284.24,44.46Z" transform="translate(-120 -3.15)"/><path d="M285.25,43.36l-.51.5Z" transform="translate(-120 -3.15)"/><path d="M284.64,44l-.5.5Z" transform="translate(-120 -3.15)"/><path d="M358.76,401c5.91.1,11.93.1,17.85.2,2.4,0,2.4.1,2.3,2.4,0,2.8-.1,5.7-.1,8.5,0,2.1-.1,2.2-2.2,2.2l-24.27-.3c-4.11,0-8.23-.1-12.24-.1-1.9,0-2-.2-2-2,0-3,0-6,.1-9,0-2,.2-2.1,2.2-2C346.42,400.91,352.54,401,358.76,401Zm5,6.6h0v4.5a1.18,1.18,0,0,0,1.2,1.3,6.62,6.62,0,0,0,1.41,0c1.6,0,1.6-.1,1.7-2.1,0-2.3,0-4.7.1-6.9s0-2.4-1.9-2.4h-1c-1-.1-1.4.5-1.5,1.5Zm10.23.3c0,1.3-.1,2.7,0,4,0,1.7.1,1.7,1.6,1.8H377a1.18,1.18,0,0,0,1.3-1.2c0-3,.1-6,.1-9,0-.9-.5-1.3-1.4-1.3H375.8c-1.6.1-1.6.1-1.7,1.7C374,405.31,374,406.61,374,407.91Zm-31.29.2h0c-.5-.8-.5-.7-1-1.6,1.4-2.9,1.3-4.3-.2-4.4a6.63,6.63,0,0,0-1.41,0c-1.6,0-1.6.2-1.7,2.1,0,2.4,0,4.7-.1,7.1,0,2.1,0,2.1,1.9,2.2h1c1,.1,1.4-.5,1.5-1.5C342.61,410.71,342.71,409.41,342.71,408.11Zm.9-.7v4.5c0,1.1.4,1.5,1.51,1.5h1.2c1.5-.1,1.6-.1,1.71-1.8.1-2.6.1-5.1.1-7.8,0-1.9-.1-1.9-1.91-2h-1c-1-.1-1.41.5-1.51,1.5C343.61,404.71,343.61,406.11,343.61,407.41Zm10.33.1h0V412a1.18,1.18,0,0,0,1.21,1.3,6.53,6.53,0,0,0,1.4,0c1.6-.1,1.6-.1,1.7-1.8.1-2.6.1-5.2.1-7.8,0-1.7-.1-1.7-1.7-1.9h-1.2c-1-.1-1.41.5-1.51,1.5Zm4.92.1h0v4.5a1.18,1.18,0,0,0,1.2,1.3,6.53,6.53,0,0,0,1.4,0c1.61-.1,1.61-.1,1.71-1.8.1-2.6.1-5.2.1-7.8,0-1.7-.1-1.8-1.71-1.9h-1.2c-1-.1-1.4.5-1.5,1.5ZM373,408c0-1.4.1-2.8,0-4.3s-.2-1.5-1.91-1.6-2,.1-2,1.4c-.1,2.8-.1,5.7-.1,8.5,0,1.4.2,1.5,1.9,1.6s1.91-.1,2-1.4A29.46,29.46,0,0,0,373,408Zm-20.16.2h0c0-1.4.1-2.8,0-4.3s-.2-1.7-1.91-1.8-1.9.1-2,1.7c-.1,2.5,0,5-.1,7.5,0,2.2.3,2.4,2.4,2.3a1.63,1.63,0,0,0,1.51-1.6C352.84,410.81,352.84,409.41,352.84,408.21Z" transform="translate(-120 -3.15)"/><path d="M356,397c5.21.1,10.33.1,15.44.2a3.21,3.21,0,0,0,2.61-.6c.1-.1.3-.2.4-.3a3.52,3.52,0,0,1,2.41,1c.4.3,0,.7-.3.7-.91.3-1.71,1.7-2.71.3-.7-1-1.61-.7-2.41-.7-7.62-.1-15.24-.2-22.86-.2-2.91,0-5.92-.1-8.83-.1-.2,0-.7-.1-.7-.2.1-.5.5-.3.7-.3,5.42.1,10.83.1,16.25.2Z" transform="translate(-120 -3.15)"/><path d="M262.18,389a3.75,3.75,0,0,1-2.91-3A11.88,11.88,0,0,1,262.18,389Z" transform="translate(-120 -3.15)"/><path d="M278.93,377.1a5,5,0,0,1,.9-2.3c.1-.3,0-.7.5-.6.1.1.1.6.2.9v.5C279.93,376.1,279.73,376.9,278.93,377.1Z" transform="translate(-120 -3.15)"/><path d="M280.93,376.7a2.31,2.31,0,0,1,1.41,1.5A1.46,1.46,0,0,1,280.93,376.7Z" transform="translate(-120 -3.15)"/><path d="M276.42,378.6a2.61,2.61,0,0,1,2-1C278.13,378.6,277.32,378.7,276.42,378.6Z" transform="translate(-120 -3.15)"/><path d="M263.08,389.5a1,1,0,0,1-1-.5C262.58,389.1,262.88,389.1,263.08,389.5Z" transform="translate(-120 -3.15)"/><path d="M280.43,375.7a.82.82,0,0,1,.4,1A1.16,1.16,0,0,1,280.43,375.7Z" transform="translate(-120 -3.15)"/><path d="M280.63,412.21a1,1,0,0,1-.5,1C280,412.81,280.23,412.51,280.63,412.21Z" transform="translate(-120 -3.15)"/><path d="M281.54,411.31l-.51.5Z" transform="translate(-120 -3.15)"/><path d="M281,411.81l-.5.5Z" transform="translate(-120 -3.15)"/><path d="M278.43,377.7l.5-.5C278.73,377.3,278.63,377.5,278.43,377.7Z" transform="translate(-120 -3.15)"/><path d="M299.69,72.66a5.15,5.15,0,0,1-1.91-2A2.07,2.07,0,0,1,299.69,72.66Z" transform="translate(-120 -3.15)"/><path d="M300.09,73.66a.82.82,0,0,1-.4-1C300.09,72.86,300.09,73.26,300.09,73.66Z" transform="translate(-120 -3.15)"/><path d="M297.28,113.67c-.3,0-.5.1-.7,0-.6-.2-1.61-.3-1.61-.7,0-.6,1-.3,1.61-.7a2.79,2.79,0,0,1,1.8-.6c-.3.3-.4.7-.7.9A.72.72,0,0,0,297.28,113.67Z" transform="translate(-120 -3.15)"/><path d="M299.19,115.67a5.15,5.15,0,0,1-1.91-2A2.06,2.06,0,0,1,299.19,115.67Z" transform="translate(-120 -3.15)"/><path d="M299.69,116.77a.82.82,0,0,1-.4-1A1.16,1.16,0,0,1,299.69,116.77Z" transform="translate(-120 -3.15)"/><path d="M298.28,111.67l.5-.5Z" transform="translate(-120 -3.15)"/><path d="M297.28,157.37c-.8-.2-1.7-.4-2.61-.6-.3-.1-.5-.2-.5-.4s.2-.5.5-.5a4.91,4.91,0,0,1,1.71,0A9.88,9.88,0,0,1,297.28,157.37Z" transform="translate(-120 -3.15)"/><path d="M296.38,155.77a1,1,0,0,1,1-.5C297.18,155.77,296.78,155.77,296.38,155.77Z" transform="translate(-120 -3.15)"/><path d="M297.88,157.77l-.5-.5A1.21,1.21,0,0,0,297.88,157.77Z" transform="translate(-120 -3.15)"/><path d="M297.38,155.37l.5-.5C297.68,155,297.58,155.17,297.38,155.37Z" transform="translate(-120 -3.15)"/><path d="M298.28,158.37l-.5-.5A1.21,1.21,0,0,1,298.28,158.37Z" transform="translate(-120 -3.15)"/><path d="M297.88,154.77l.5-.5Z" transform="translate(-120 -3.15)"/><path d="M218.66,590.13a1.75,1.75,0,0,1-.81-1.5,42.16,42.16,0,0,0,.4-4.9c.1-.7.41-1.1,1.11-1.1a19.22,19.22,0,0,1,2.4,0c1.61.1,1.61.1,1.61,1.8.1,1.2.4,2.5.4,3.7.1,1.5-.4,2.8-2.11,3.1l-.5-.1,1-.2v-.3l-.51-.1.71-.7a3.51,3.51,0,0,0,.5-.8c.6-1.3.2-2.7-.2-4.1s-.6-1.5-2.51-1.5c-1.4,0-1.2,1.1-1.4,1.9a.85.85,0,0,0,0,.7c.5,1.8.9-2.3,1.5,2.1-.2.5-.4.9-.6,1.4h-.1c-.2-.2-.5-.6-.6-.5-.3.2-.1.7-.3,1.1Z" transform="translate(-120 -3.15)"/><path d="M228.68,590.83a1.37,1.37,0,0,1-.6-1.3,33.89,33.89,0,0,0,.2-4.5c.1-1.3.3-1.3,2.81-1.3,2.31,0,2.41.1,2.51,1.4s0,2.5.1,3.7c.2,2.9-1.31,4-4.11,2.9l.1-.1a.87.87,0,0,0,.9-.5h.5c.3.4.6.5,1,0,.1-.2.3-.3.51-.5.9-1.8.4-3.7.4-5.6,0-.5-.3-.7-.81-.8a7.08,7.08,0,0,0-1.4-.1c-1.8,0-1.8,0-2,1.6s0,3.1-.1,4.7Z" transform="translate(-120 -3.15)"/><path d="M221.86,591.13c-1.1.9-1.8.5-2.5-.5l.1-.1a1,1,0,0,0,.4-.9l.1-.1a4.24,4.24,0,0,0,1.9.6,4,4,0,0,1,.11.5l-.11.1a2.77,2.77,0,0,1-.9.1c.1.4.5.2.9.3Z" transform="translate(-120 -3.15)"/><path d="M255.76,587.93a5.23,5.23,0,0,1,1.91,2C256.46,589.83,256,589.13,255.76,587.93Z" transform="translate(-120 -3.15)"/><path d="M257.67,589.93a2.78,2.78,0,0,1,2,1A1.65,1.65,0,0,1,257.67,589.93Z" transform="translate(-120 -3.15)"/><path d="M254.76,585.93a3,3,0,0,1,1,2C254.86,587.53,254.76,586.83,254.76,585.93Z" transform="translate(-120 -3.15)"/><path d="M229.59,591.63a1.08,1.08,0,0,1-1-1l.1-.1a1.12,1.12,0,0,1,.51.1c.1.2.3.3.5.5a1.09,1.09,0,0,0-.1.5Z" transform="translate(-120 -3.15)"/><path d="M219.36,590.63c-.1-.2-.3-.3-.5-.5l.1-.1.5.5Z" transform="translate(-120 -3.15)"/><path d="M330.78,215.78H332c1.2-.1,1.6.3,1.2,1.6a4.27,4.27,0,0,0,.1,2.5c.1.2.1.5.2.7a3.53,3.53,0,0,1-1.4,3.7,2.41,2.41,0,0,1-2.91,0,3.23,3.23,0,0,1-1.4-3.7,7.35,7.35,0,0,0,.2-3.9c-.2-.7.3-.9.9-.9Zm1.3,7.5-.1.1c0,.1.1,0,.1-.1a1.39,1.39,0,0,0,.5-1c.1-.1.3-.2.3-.3s.2-.5-.1-.6-.2.3-.3.5v.5A1,1,0,0,0,332.08,223.28Zm-3,0v-1c1.81,1.1,2.31.9,2.81-1a7.57,7.57,0,0,0,.1-1.5c.9-2.6.3-3.5-2.31-3a1.18,1.18,0,0,0-1.1,1.1,2.56,2.56,0,0,0,.4,1.9v2.5h-.5v-.5c0-.2,0-.5-.3-.5s-.1.4-.1.6l.3.3c.3.5.4.9.7,1.1.1.1.1.1.2.1A.31.31,0,0,1,329.07,223.28Zm1.41.8a.1.1,0,0,1,.1.1l.1-.1a.1.1,0,0,1-.1-.1Z" transform="translate(-120 -3.15)"/><path d="M342.41,224.48c-1.3,1.1-2.41,1.3-3.41.6a3.23,3.23,0,0,1-1.4-3.4,13,13,0,0,0,.4-3.9c-.1-.5.1-.8.6-.8,1.4,0,2.91,0,4.31.1.5.1.5.5.1.9l-.1-.1c-1.1-.9-2.31-.5-3.51-.4-.7.1-1.3,1.5-.8,2.5s.7-.3,1.1-.4c.7-.1,1.2-.3,1.81.4-1.51.3-2.31,1-2.31,2s.8,1.7,2.31,2v.5h-2c-.2-.1-.3-.3-.5-.5-.1-.4-.1-.8-.4-1v-.5c0-.2,0-.5-.3-.5s-.1.4,0,.6l.3.3a1.28,1.28,0,0,0,.4,1c.1.2.3.3.5.5a1.22,1.22,0,0,0,2,0,3.08,3.08,0,0,1,.9.1Z" transform="translate(-120 -3.15)"/><path d="M343,217.58a32.93,32.93,0,0,1,.5,4.4c-.1.9-.1,1.7-1,2.1l-.1-.1v-1c.9-1.1.5-2.3.3-3.5-.2-.6-.5-1.3.3-1.9Z" transform="translate(-120 -3.15)"/><path d="M303.1,218a2.31,2.31,0,0,1-1.41-1.5A1.39,1.39,0,0,1,303.1,218Z" transform="translate(-120 -3.15)"/><path d="M304.1,220a3,3,0,0,1-1-2A1.75,1.75,0,0,1,304.1,220Z" transform="translate(-120 -3.15)"/><path d="M332.78,198.78c1.21.6,1.1,1.8.9,2.8a7.68,7.68,0,0,0-.2,3.7c.2.7-.2.9-.7,1-1.3.1-2.61,0-3.91,0-.5,0-.8-.3-.7-.8.5-1.5,0-2.9-.2-4.4a3.14,3.14,0,0,1,1.3-3.1,2.71,2.71,0,0,1,3.21,0,1.14,1.14,0,0,1,.3.8h-.5c-.1-.1-.1-.1-.2-.1.1,0,.1.1.2.1a1.11,1.11,0,0,0,.5,1v.5c0,.2,0,.5.3.5s.1-.4.1-.6l-.3-.3A4.1,4.1,0,0,1,332.78,198.78Zm-3.41,0,.1-.1c-.1,0-.1,0-.1.1a1.39,1.39,0,0,0-.5,1c-.1.1-.3.2-.3.3s-.2.5.1.6.2-.3.3-.5v-.5A1.27,1.27,0,0,0,329.37,198.78Zm-.1,3.5c-.7.7-.5,1.7-.4,2.6,0,.3.2.7.5.7a3.9,3.9,0,0,0,2.61,0c.9-.3.7-1.3.6-1.9-.2-.9-.7-.2-1-.1-1.21.4-2,.2-2.31-1.3.7.3,1.31,1.4,2.31.4a2.13,2.13,0,0,0,.2-2.7c-.1-.1-.1-.3-.3-.4-.5-.7-1-.7-1.61-.1A6.39,6.39,0,0,0,329.27,202.28Z" transform="translate(-120 -3.15)"/><path d="M343.11,205.88c.3.4.4.9-.1.9-1.4.1-2.91,0-4.41,0-.6,0-.6-.5-.5-.9a9.16,9.16,0,0,0-.3-3.7c-.3-1.4.5-3.2,1.6-3.6s2.41-.6,3.31.8l-.1.1c-.5.3-.4.7.1.9h0c-.1,1.2.5,2.7-1,3.5.1-1,.8-2,.2-3.1-.5-.9-1.31-1.1-1.91-.3a2,2,0,0,0-.4,2.1,2.17,2.17,0,0,0,2.11,1.4c-.91.8-1.61.5-2.31-.2-.1-.1-.3-.4-.5-.1-.5.5,0,2.7.8,2.7,1.2.1,2.41.5,3.51-.4Zm-3.41-6.5c-.1.2-.3.3-.5.5a1.39,1.39,0,0,0-.5,1c-.1.1-.3.2-.3.3s-.2.5.1.6.2-.3.3-.5v-.5a1,1,0,0,0,.5-1l.4-.4c.2-.1.5,0,.5-.3a.35.35,0,0,0-.2-.1A1.38,1.38,0,0,1,339.7,199.38Z" transform="translate(-120 -3.15)"/><path d="M342.71,199.38c1.6,1.2.8,2.9.8,4.4,0,.7-.5,1.4-.4,2.2l-.1.1c-.6-.6-.4-1.3-.2-2,.3-1.2.6-2.4-.2-3.5h0a2.77,2.77,0,0,0-.1-.9Z" transform="translate(-120 -3.15)"/><path d="M304.3,203.48a3,3,0,0,1-1-2A2,2,0,0,1,304.3,203.48Z" transform="translate(-120 -3.15)"/><path d="M302.29,200.48a1.31,1.31,0,0,1-1.4-1A1.31,1.31,0,0,1,302.29,200.48Z" transform="translate(-120 -3.15)"/><path d="M302.8,201l-.51-.5A1.17,1.17,0,0,1,302.8,201Z" transform="translate(-120 -3.15)"/><path d="M303.3,201.48l-.5-.5Z" transform="translate(-120 -3.15)"/><path d="M219.86,563.33c2.21-1.3,3.81-.4,4,2.1.1,1.5-.6,2.9-.2,4.4.1.4-.3.7-.7.7a2.77,2.77,0,0,1-.9.1c-3.61,0-3.21.1-3.21-3a5.54,5.54,0,0,0-.2-1.8,1.92,1.92,0,0,1,.6-2l.1.1c.1.3-.2.7.2.9.1.1.4-.3.5-.5v3.1c-.2.1-.4-1.1-.7-.1a4.05,4.05,0,0,0,0,1.1c.2,1.6.2,1.6,1.8,1.6s1.61,0,1.61-1.8v-.9a2.55,2.55,0,0,0,0-3.1c-.1-.2-.3-.3-.4-.5l-.1-.1c.1.1.1.1.2.1s.3.3.6.4v3.2c-.9.2-1.41,1.5-2.41.4a1.8,1.8,0,0,0,1.71-1.9,1.93,1.93,0,0,0-1.71-2.2,1,1,0,0,0-.9-.4Z" transform="translate(-120 -3.15)"/><path d="M233.4,564.63a2.33,2.33,0,0,1,.6,1.8c-.1,1.3-.2,2.7-.2,3.9a1.2,1.2,0,0,1-1.61,1.3c-1.2-.2-3.1.9-3.71-.9a15,15,0,0,1-.1-5.6c0-.2.3-.4.5-.5l.11.1c0,1.7,0,3.5.1,5.2,0,.9.3,1.4,1.3,1.3a3.3,3.3,0,0,1,1.4,0c1,.1,1.21-.4,1.41-1.3a45.13,45.13,0,0,0,.1-5.2Z" transform="translate(-120 -3.15)"/><path d="M229.89,563.53a1.75,1.75,0,0,1,2.5,0l-.1.1c-.2.1-.4.1-.6.2.2.1.4.1.6.2l.1.1.51.5h0c0,1.1,0,2.1-.1,3.2a1.41,1.41,0,0,1-1.31,1.3c-.8.1-1.5.1-1.6-1,.8.3,1.6.8,2.2-.2a2.81,2.81,0,0,0,0-2.7,1.1,1.1,0,0,0-1-.6,1.3,1.3,0,0,0-1.1.9c-.1.8-.1,1.7-.2,2.5-.91-1.1-.3-2.3-.5-3.5h0l.5-.5h0c.2-.1.4-.1.6-.2-.1-.1-.3-.1-.5-.3Z" transform="translate(-120 -3.15)"/><path d="M256.46,570.43a1.64,1.64,0,0,1,1,1A.9.9,0,0,1,256.46,570.43Z" transform="translate(-120 -3.15)"/><path d="M232.5,563.53a1.08,1.08,0,0,1,1,1l-.1.1a1.09,1.09,0,0,1-.5-.1h0l-.51-.5-.1-.1c.1,0,.1-.1.21-.4Z" transform="translate(-120 -3.15)"/><path d="M228.88,564.63a1.09,1.09,0,0,1,1-1l.1.1v.5h0l-.5.5H229Z" transform="translate(-120 -3.15)"/><path d="M219.06,563.43l.5-.5.1.1c-.2.1-.4.3-.6.4Z" transform="translate(-120 -3.15)"/><path d="M255.86,569.93l.5.5A1.21,1.21,0,0,0,255.86,569.93Z" transform="translate(-120 -3.15)"/><path d="M222.87,589.63h-.5c.1-1.4.1-2.9-.91-4a1.42,1.42,0,0,1,1.41,1.6Z" transform="translate(-120 -3.15)"/><path d="M221.36,585.63a3.94,3.94,0,0,1-1.4.5C220.26,585.53,220.56,584.73,221.36,585.63Z" transform="translate(-120 -3.15)"/><path d="M223.17,590h-1.31a2.74,2.74,0,0,0,.31-.5l1,.3Z" transform="translate(-120 -3.15)"/><path d="M232.6,590.73c-.21.1-.31.3-.51.5h-1c1.1-1.1,1.1-2.5,1-4C233.1,588.23,232.5,589.53,232.6,590.73Z" transform="translate(-120 -3.15)"/><path d="M229.19,590.73c.1-1.1-.41-2.4.5-3.4a5.13,5.13,0,0,0,.9,4h-1C229.49,591,229.39,591,229.19,590.73Z" transform="translate(-120 -3.15)"/><path d="M232.19,587.13a2,2,0,0,0-2.4,0C230.69,585.73,231.29,585.73,232.19,587.13Z" transform="translate(-120 -3.15)"/><path d="M330.17,218.78c1.21-.8,1.61,0,2,1A13,13,0,0,1,330.17,218.78Z" transform="translate(-120 -3.15)"/><path d="M329.17,219.78c0-.6.3-.9,1-1A1.65,1.65,0,0,1,329.17,219.78Z" transform="translate(-120 -3.15)"/><path d="M342.41,223.38a4.67,4.67,0,0,0-1,.5,5.52,5.52,0,0,0,0-4C342.91,220.78,342.31,222.18,342.41,223.38Z" transform="translate(-120 -3.15)"/><path d="M220.06,567.53l.5.5A1.21,1.21,0,0,0,220.06,567.53Z" transform="translate(-120 -3.15)"/><path d="M220.16,564l.5-.5A1.21,1.21,0,0,0,220.16,564Z" transform="translate(-120 -3.15)"/><g class="cls-1"><path d="M310,74V65h1v8l4,0v1Z" transform="translate(-120 -3.15)"/><path d="M321,73.22a3.74,3.74,0,0,1-1.12.69,3.1,3.1,0,0,1-1.14.19,2.21,2.21,0,0,1-1.55-.51,1.69,1.69,0,0,1-.53-1.29,1.8,1.8,0,0,1,.21-.84,1.67,1.67,0,0,1,.55-.6,2.57,2.57,0,0,1,.75-.34,8.34,8.34,0,0,1,.92-.15A9.66,9.66,0,0,0,321,70c0-.15,0-.24,0-.28a1.17,1.17,0,0,0-.29-.91,1.67,1.67,0,0,0-1.17-.37,1.69,1.69,0,0,0-1.08.25,1.56,1.56,0,0,0-.53.92l-1-.15a2.51,2.51,0,0,1,.46-1.07,2,2,0,0,1,.93-.62,4.19,4.19,0,0,1,1.39-.21,4,4,0,0,1,1.27.2,1.63,1.63,0,0,1,.71.49A1.7,1.7,0,0,1,322,69a7.13,7.13,0,0,1,0,1v1.41a16.27,16.27,0,0,0,0,1.87,2.57,2.57,0,0,0,.26.75h-1.08A2,2,0,0,1,321,73.22Zm0-2.57a7.41,7.41,0,0,1-1.69.38,4.4,4.4,0,0,0-.91.2.92.92,0,0,0-.41.34.89.89,0,0,0-.15.5.9.9,0,0,0,.31.71,1.29,1.29,0,0,0,.91.29,2.09,2.09,0,0,0,1.07-.25,1.67,1.67,0,0,0,.69-.73,2.39,2.39,0,0,0,.18-1Z" transform="translate(-120 -3.15)"/><path d="M325,74h-2l.09-9H324v3.28a3.35,3.35,0,0,1,2-.82,2.46,2.46,0,0,1,1.07.24,2.22,2.22,0,0,1,.82.66,3,3,0,0,1,.5,1,4.06,4.06,0,0,1,.17,1.27,3.63,3.63,0,0,1-.8,2.47,2.43,2.43,0,0,1-1.87.86c-.73,0-1.29-.32-.91-.94Zm-.77-3.35a3.26,3.26,0,0,0,.28,1.63,1.47,1.47,0,0,0,2.5.24,2.83,2.83,0,0,0,.51-1.79,2.76,2.76,0,0,0-.46-1.81,1.41,1.41,0,0,0-1.14-.59,1.46,1.46,0,0,0-1.18.59A2.68,2.68,0,0,0,324.23,70.65Z" transform="translate(-120 -3.15)"/><path d="M333,74V65h1v4h5V66h1v8h-1V70h-5v4Z" transform="translate(-120 -3.15)"/><path d="M342,73.94l.08-8.94,5.92.06V66h-5v3h5v1l-5,0,0,3,5,0v1Z" transform="translate(-120 -3.15)"/><path d="M349.25,71.31l1.05-.08a2.41,2.41,0,0,0,.34,1.06,1.85,1.85,0,0,0,.85.68,3,3,0,0,0,1.29.27,3.27,3.27,0,0,0,1.13-.18,1.53,1.53,0,0,0,.73-.53,1.22,1.22,0,0,0,.25-.73,1.15,1.15,0,0,0-.22-.71,1.81,1.81,0,0,0-.76-.52c-.23-.09-.72-.23-1.5-.43a7.2,7.2,0,0,1-1.62-.56,2.38,2.38,0,0,1-.9-.81,2.06,2.06,0,0,1-.28-1.07,2.24,2.24,0,0,1,.37-1.22,2.29,2.29,0,0,1,1.07-.85,3.92,3.92,0,0,1,1.55-.27,4,4,0,0,1,1.65.32,2.39,2.39,0,0,1,1.1.92,2.64,2.64,0,0,1,.4,1.36l-1.07.07a1.77,1.77,0,0,0-.57-1.24,3,3,0,0,0-2.95-.07,1.15,1.15,0,0,0-.47.91,1,1,0,0,0,.32.77,4.41,4.41,0,0,0,1.68.63,11.31,11.31,0,0,1,1.86.57,2.57,2.57,0,0,1,1.08.89,2.21,2.21,0,0,1,.34,1.23,2.47,2.47,0,0,1-.4,1.29,2.53,2.53,0,0,1-1.12.93,3.74,3.74,0,0,1-1.63.32,4.91,4.91,0,0,1-1.92-.36,2.7,2.7,0,0,1-1.2-1A2.9,2.9,0,0,1,349.25,71.31Z" transform="translate(-120 -3.15)"/></g><rect class="cls-2" x="297.86" y="128.67" width="73.51" height="13.94" transform="translate(75.69 465.75) rotate(-89.44)"/><g class="cls-1"><path d="M337.38,171.47l-8.44-.09,0-3.82a5.05,5.05,0,0,1,.25-1.74,1.83,1.83,0,0,1,.81-.95,2.34,2.34,0,0,1,1.27-.35,2.11,2.11,0,0,1,1.51.61,3,3,0,0,1,.77,1.84,3,3,0,0,1,.42-.68,6.14,6.14,0,0,1,1.14-.94l2.31-1.47v1.43l-1.77,1.12q-.76.49-1.17.81a2.75,2.75,0,0,0-.57.58,1.64,1.64,0,0,0-.23.51,3.07,3.07,0,0,0,0,.64v1.32l3.75,0Zm-4.7-1.19,0-2.45a3.67,3.67,0,0,0-.14-1.22,1.35,1.35,0,0,0-.5-.68,1.38,1.38,0,0,0-.76-.23,1.24,1.24,0,0,0-1,.43,2.07,2.07,0,0,0-.39,1.4l0,2.72Z" transform="translate(-120 -3.15)"/><path d="M337.51,158.85h-.9a2.28,2.28,0,0,1,1,2,2.71,2.71,0,0,1-.22,1,1.71,1.71,0,0,1-.53.7,2,2,0,0,1-.77.32,4.89,4.89,0,0,1-1,.05l-3.79,0v-1l3.39,0a5.75,5.75,0,0,0,1.1-.05,1.06,1.06,0,0,0,.65-.42,1.42,1.42,0,0,0,.24-.79,1.88,1.88,0,0,0-.23-.9,1.35,1.35,0,0,0-.65-.6,3.26,3.26,0,0,0-1.19-.18l-3.28,0v-1.06l6.12.06Z" transform="translate(-120 -3.15)"/><path d="M336.82,152.17a3.85,3.85,0,0,1,.68,1.14,3.4,3.4,0,0,1,.19,1.16,2.34,2.34,0,0,1-.51,1.58,1.63,1.63,0,0,1-1.26.54,1.76,1.76,0,0,1-.82-.22,1.73,1.73,0,0,1-.59-.55,2.42,2.42,0,0,1-.33-.77,8.46,8.46,0,0,1-.15-.94,9.43,9.43,0,0,0-.34-1.89h-.27a1.16,1.16,0,0,0-.89.29,1.82,1.82,0,0,0-.37,1.21,1.92,1.92,0,0,0,.25,1.1,1.52,1.52,0,0,0,.9.53l-.15,1a2.45,2.45,0,0,1-1-.48,2,2,0,0,1-.61-.94,4.13,4.13,0,0,1-.2-1.42,3.82,3.82,0,0,1,.19-1.29,1.81,1.81,0,0,1,.47-.73,1.6,1.6,0,0,1,.71-.32,5.4,5.4,0,0,1,1,0l1.38,0a14.76,14.76,0,0,0,1.83,0,2.26,2.26,0,0,0,.74-.26V152A2.18,2.18,0,0,1,336.82,152.17Zm-2.32.06a7.86,7.86,0,0,1,.38,1.73,3.92,3.92,0,0,0,.2.93.87.87,0,0,0,.33.42.9.9,0,0,0,1.18-.16,1.37,1.37,0,0,0,.29-.94,2.3,2.3,0,0,0-.25-1.09,1.6,1.6,0,0,0-.71-.7,2.34,2.34,0,0,0-1-.18Z" transform="translate(-120 -3.15)"/><path d="M337.6,149.56l-6.12-.07v-1h.87a2.27,2.27,0,0,1-1-2,2.68,2.68,0,0,1,.2-1,1.71,1.71,0,0,1,.53-.7,1.9,1.9,0,0,1,.77-.32,5.08,5.08,0,0,1,1-.05l3.76,0v1.06l-3.72,0a2.64,2.64,0,0,0-.95.11,1,1,0,0,0-.5.43,1.39,1.39,0,0,0-.2.74,1.74,1.74,0,0,0,.41,1.17,2,2,0,0,0,1.59.5l3.34,0Z" transform="translate(-120 -3.15)"/><path d="M338.17,143.07l.16-1a1,1,0,0,0,.68-.35,1.72,1.72,0,0,0,.3-1.07,2,2,0,0,0-.27-1.14,1.46,1.46,0,0,0-.81-.55,6.78,6.78,0,0,0-1.33-.09,2.23,2.23,0,0,1,.79,1.74,2.39,2.39,0,0,1-.93,2,3.47,3.47,0,0,1-2.19.68,4.07,4.07,0,0,1-1.61-.34,2.47,2.47,0,0,1-1.53-2.39,2.28,2.28,0,0,1,.9-1.82h-.74v-1l5.29.06a5,5,0,0,1,2,.31,2.25,2.25,0,0,1,.93.95,3.25,3.25,0,0,1,.33,1.59,3.09,3.09,0,0,1-.51,1.8A1.67,1.67,0,0,1,338.17,143.07Zm-3.67-.92a2.64,2.64,0,0,0,1.77-.47,1.53,1.53,0,0,0,.56-1.21,1.57,1.57,0,0,0-.54-1.23,2.54,2.54,0,0,0-1.72-.51,2.42,2.42,0,0,0-1.69.49,1.58,1.58,0,0,0-.59,1.22,1.55,1.55,0,0,0,.55,1.2A2.39,2.39,0,0,0,334.5,142.15Z" transform="translate(-120 -3.15)"/><path d="M337.77,132.7l-8.45-.09,0-3a7.79,7.79,0,0,1,.14-1.53,2.93,2.93,0,0,1,.62-1.26,3.41,3.41,0,0,1,1.45-1,5.51,5.51,0,0,1,2-.32,5.8,5.8,0,0,1,1.7.25,3.76,3.76,0,0,1,1.22.6,2.83,2.83,0,0,1,.76.79,3.22,3.22,0,0,1,.42,1,6.35,6.35,0,0,1,.13,1.38Zm-1-1.15,0-1.84a4.73,4.73,0,0,0-.14-1.33,1.94,1.94,0,0,0-.43-.78,2.68,2.68,0,0,0-1.07-.64,5,5,0,0,0-1.62-.25,3.87,3.87,0,0,0-2,.43,2.15,2.15,0,0,0-1,1.06,4.63,4.63,0,0,0-.19,1.48l0,1.8Z" transform="translate(-120 -3.15)"/><path d="M334.79,124.51a3.12,3.12,0,0,1-2.51-1,2.9,2.9,0,0,1-.66-2,2.83,2.83,0,0,1,.85-2.09,3.09,3.09,0,0,1,2.29-.79,3.93,3.93,0,0,1,1.85.38,2.48,2.48,0,0,1,1,1.06,3,3,0,0,1,.36,1.51,2.85,2.85,0,0,1-.84,2.11A3.27,3.27,0,0,1,334.79,124.51Zm0-1.08a2.57,2.57,0,0,0,1.76-.51,1.75,1.75,0,0,0,0-2.62,2.58,2.58,0,0,0-1.78-.55,2.54,2.54,0,0,0-1.72.51,1.76,1.76,0,0,0,0,2.62A2.53,2.53,0,0,0,334.8,123.43Z" transform="translate(-120 -3.15)"/><path d="M336.09,117.86l-.16-1a1.45,1.45,0,0,0,.95-.48,2.13,2.13,0,0,0,.06-2.21.89.89,0,0,0-.68-.36.62.62,0,0,0-.55.31,4,4,0,0,0-.36,1.08,9.26,9.26,0,0,1-.52,1.6,1.52,1.52,0,0,1-.59.68,1.55,1.55,0,0,1-.82.22,1.5,1.5,0,0,1-.75-.2,1.62,1.62,0,0,1-.58-.52,2.17,2.17,0,0,1-.29-.68,3.34,3.34,0,0,1-.12-.91,3.86,3.86,0,0,1,.22-1.29,1.69,1.69,0,0,1,.57-.81,2.1,2.1,0,0,1,.95-.36l.13,1a1.07,1.07,0,0,0-.74.4,1.53,1.53,0,0,0-.28,1,1.76,1.76,0,0,0,.23,1,.69.69,0,0,0,.55.32.53.53,0,0,0,.36-.13.82.82,0,0,0,.28-.4c0-.11.13-.42.28-.93a13.85,13.85,0,0,1,.49-1.56,1.6,1.6,0,0,1,.56-.69,1.42,1.42,0,0,1,.89-.24,1.77,1.77,0,0,1,1,.31,2.07,2.07,0,0,1,.7.9,3.45,3.45,0,0,1,.24,1.32,3,3,0,0,1-.52,1.85A2.26,2.26,0,0,1,336.09,117.86Z" transform="translate(-120 -3.15)"/><path d="M336.05,107.16l.14-1.09a2.63,2.63,0,0,1,1.45,1,3.29,3.29,0,0,1-.35,3.95,3.19,3.19,0,0,1-2.33.78,3.31,3.31,0,0,1-2.38-.84,2.73,2.73,0,0,1-.83-2.11,2.66,2.66,0,0,1,.85-2A3.25,3.25,0,0,1,335,106h.27l0,4.65a2.29,2.29,0,0,0,1.55-.57,1.75,1.75,0,0,0,.55-1.3,1.72,1.72,0,0,0-.29-1A2,2,0,0,0,336.05,107.16Zm-1.71,3.45,0-3.48a2,2,0,0,0-1.16.39,1.61,1.61,0,0,0-.61,1.3,1.71,1.71,0,0,0,.46,1.23A1.9,1.9,0,0,0,334.34,110.61Z" transform="translate(-120 -3.15)"/><path d="M338,104.76l-6.12-.07v-1h.87a2.28,2.28,0,0,1-1-2,2.92,2.92,0,0,1,.21-1,1.63,1.63,0,0,1,.53-.7,2.13,2.13,0,0,1,.77-.32,6,6,0,0,1,1,0l3.76,0v1.06l-3.72,0a2.64,2.64,0,0,0-.95.11,1,1,0,0,0-.5.43,1.39,1.39,0,0,0-.2.74,1.74,1.74,0,0,0,.41,1.17,2.06,2.06,0,0,0,1.59.51l3.34,0Z" transform="translate(-120 -3.15)"/></g><rect class="cls-2" x="192.69" y="648.04" width="73.51" height="13.94" transform="translate(-547.79 874.85) rotate(-89.44)"/><g class="cls-1"><path d="M232.18,690.83l-8.44-.09,0-3.82a5.47,5.47,0,0,1,.24-1.75,1.91,1.91,0,0,1,.82-.94,2.34,2.34,0,0,1,1.27-.35,2.11,2.11,0,0,1,1.51.61,3,3,0,0,1,.77,1.84,2.68,2.68,0,0,1,.42-.68,6.14,6.14,0,0,1,1.14-.94l2.31-1.47,0,1.43-1.76,1.12q-.76.5-1.17.81a2.33,2.33,0,0,0-.57.58,1.64,1.64,0,0,0-.23.51,3.07,3.07,0,0,0,0,.64v1.32l3.74,0Zm-4.7-1.19,0-2.45a3.67,3.67,0,0,0-.14-1.22,1.35,1.35,0,0,0-.5-.68,1.48,1.48,0,0,0-.76-.24,1.28,1.28,0,0,0-1,.44,2.11,2.11,0,0,0-.4,1.39l0,2.73Z" transform="translate(-120 -3.15)"/><path d="M232.31,678.21h-.9a2.3,2.3,0,0,1,1,2,2.75,2.75,0,0,1-.22,1,1.71,1.71,0,0,1-.53.7,2,2,0,0,1-.77.32,4.89,4.89,0,0,1-1,0l-3.79,0v-1l3.39,0a5.75,5.75,0,0,0,1.1-.05,1.06,1.06,0,0,0,.64-.42,1.35,1.35,0,0,0,.25-.79,1.88,1.88,0,0,0-.23-.9,1.39,1.39,0,0,0-.65-.6,3.26,3.26,0,0,0-1.19-.18l-3.28,0v-1l6.12.06Z" transform="translate(-120 -3.15)"/><path d="M231.62,671.53a3.85,3.85,0,0,1,.68,1.14,3.4,3.4,0,0,1,.19,1.16,2.34,2.34,0,0,1-.51,1.58,1.63,1.63,0,0,1-1.26.54,1.76,1.76,0,0,1-.82-.22,1.73,1.73,0,0,1-.59-.55,2.42,2.42,0,0,1-.33-.77,6.59,6.59,0,0,1-.15-.94,9.43,9.43,0,0,0-.34-1.89h-.27a1.12,1.12,0,0,0-.89.28,1.81,1.81,0,0,0-.37,1.2,1.94,1.94,0,0,0,.25,1.11,1.52,1.52,0,0,0,.9.53l-.15,1a2.55,2.55,0,0,1-1.05-.48,2.07,2.07,0,0,1-.6-.94,4.13,4.13,0,0,1-.2-1.42,3.82,3.82,0,0,1,.19-1.29,1.81,1.81,0,0,1,.47-.73,1.6,1.6,0,0,1,.71-.32,5.4,5.4,0,0,1,1,0l1.38,0a14.86,14.86,0,0,0,1.83,0,2.34,2.34,0,0,0,.74-.26v1.1A2.18,2.18,0,0,1,231.62,671.53Zm-2.32.06a7.86,7.86,0,0,1,.38,1.73,3.92,3.92,0,0,0,.2.93.87.87,0,0,0,.33.42.9.9,0,0,0,1.18-.16,1.39,1.39,0,0,0,.29-.94,2.3,2.3,0,0,0-.25-1.09,1.6,1.6,0,0,0-.71-.7,2.34,2.34,0,0,0-1-.18Z" transform="translate(-120 -3.15)"/><path d="M232.4,668.92l-6.12-.07v-1h.87a2.29,2.29,0,0,1-1-2,2.87,2.87,0,0,1,.21-1,1.63,1.63,0,0,1,.53-.7,1.9,1.9,0,0,1,.77-.32,5.08,5.08,0,0,1,1-.05l3.76,0v1l-3.72,0a2.64,2.64,0,0,0-.95.11,1,1,0,0,0-.5.43,1.39,1.39,0,0,0-.2.74,1.74,1.74,0,0,0,.41,1.17,2,2,0,0,0,1.59.5l3.34,0Z" transform="translate(-120 -3.15)"/><path d="M233,662.43l.16-1a1,1,0,0,0,.68-.35,1.72,1.72,0,0,0,.3-1.07,1.89,1.89,0,0,0-.28-1.14,1.4,1.4,0,0,0-.8-.55,6.78,6.78,0,0,0-1.33-.09,2.23,2.23,0,0,1,.79,1.74,2.39,2.39,0,0,1-.93,2,3.47,3.47,0,0,1-2.19.68,4.07,4.07,0,0,1-1.61-.34,2.47,2.47,0,0,1-1.53-2.39,2.27,2.27,0,0,1,.9-1.82h-.74v-1l5.29.06a4.8,4.8,0,0,1,2,.32,2.17,2.17,0,0,1,.93.94A3.23,3.23,0,0,1,235,660a3.09,3.09,0,0,1-.51,1.8A1.67,1.67,0,0,1,233,662.43Zm-3.67-.92a2.64,2.64,0,0,0,1.77-.47,1.63,1.63,0,0,0,0-2.44,2.54,2.54,0,0,0-1.72-.51,2.45,2.45,0,0,0-1.7.49,1.6,1.6,0,0,0-.58,1.22,1.55,1.55,0,0,0,.55,1.2A2.49,2.49,0,0,0,229.3,661.51Z" transform="translate(-120 -3.15)"/><path d="M232.56,652.06l-8.44-.09,0-3a7.08,7.08,0,0,1,.14-1.53,2.82,2.82,0,0,1,.62-1.26,3.43,3.43,0,0,1,1.45-1,5.74,5.74,0,0,1,2-.31,5.8,5.8,0,0,1,1.7.25,3.76,3.76,0,0,1,1.22.6,2.83,2.83,0,0,1,.76.79,3,3,0,0,1,.41,1,5.75,5.75,0,0,1,.14,1.38Zm-1-1.15,0-1.84a4.69,4.69,0,0,0-.14-1.33A2.06,2.06,0,0,0,231,647a2.68,2.68,0,0,0-1.07-.64,5,5,0,0,0-1.62-.25,3.87,3.87,0,0,0-2,.43,2.15,2.15,0,0,0-1,1.06,4.36,4.36,0,0,0-.19,1.48l0,1.8Z" transform="translate(-120 -3.15)"/><path d="M229.59,643.87a3.11,3.11,0,0,1-2.51-1,2.92,2.92,0,0,1-.66-2,2.83,2.83,0,0,1,.85-2.09,3.09,3.09,0,0,1,2.29-.79,3.93,3.93,0,0,1,1.85.38,2.48,2.48,0,0,1,1,1.06,3,3,0,0,1,.36,1.51,2.85,2.85,0,0,1-.84,2.11A3.27,3.27,0,0,1,229.59,643.87Zm0-1.09a2.52,2.52,0,0,0,1.76-.5A1.68,1.68,0,0,0,232,641a1.71,1.71,0,0,0-.57-1.31,2.62,2.62,0,0,0-1.79-.55,2.54,2.54,0,0,0-1.72.51,1.76,1.76,0,0,0,0,2.62A2.46,2.46,0,0,0,229.6,642.78Z" transform="translate(-120 -3.15)"/><path d="M230.88,637.22l-.15-1a1.45,1.45,0,0,0,1-.48,1.72,1.72,0,0,0,.34-1.12,1.67,1.67,0,0,0-.28-1.09.91.91,0,0,0-.68-.36.62.62,0,0,0-.55.31,4,4,0,0,0-.36,1.08,10.25,10.25,0,0,1-.52,1.6,1.52,1.52,0,0,1-.59.68,1.55,1.55,0,0,1-.82.22,1.5,1.5,0,0,1-.75-.2,1.62,1.62,0,0,1-.58-.52,2.17,2.17,0,0,1-.29-.68,3.34,3.34,0,0,1-.12-.91,3.86,3.86,0,0,1,.22-1.29,1.69,1.69,0,0,1,.57-.81,2.1,2.1,0,0,1,.95-.36l.13,1a1.05,1.05,0,0,0-.74.4,1.53,1.53,0,0,0-.28.95,1.76,1.76,0,0,0,.23,1,.69.69,0,0,0,.55.32.53.53,0,0,0,.36-.13.82.82,0,0,0,.28-.4c0-.1.14-.42.28-.93a13.85,13.85,0,0,1,.49-1.56,1.6,1.6,0,0,1,.56-.69,1.4,1.4,0,0,1,.88-.24,1.77,1.77,0,0,1,1,.31,2.07,2.07,0,0,1,.7.9,3.27,3.27,0,0,1,.23,1.32,2.89,2.89,0,0,1-.51,1.85A2.26,2.26,0,0,1,230.88,637.22Z" transform="translate(-120 -3.15)"/><path d="M230.85,626.52l.14-1.09a2.63,2.63,0,0,1,1.45,1,3,3,0,0,1,.5,1.79,2.88,2.88,0,0,1-.85,2.16,3.19,3.19,0,0,1-2.33.78,3.31,3.31,0,0,1-2.38-.84,2.77,2.77,0,0,1-.84-2.11,2.7,2.7,0,0,1,.86-2,3.25,3.25,0,0,1,2.36-.77H230l0,4.65a2.29,2.29,0,0,0,1.55-.57,1.75,1.75,0,0,0,.55-1.3,1.72,1.72,0,0,0-.29-1A2,2,0,0,0,230.85,626.52ZM229.14,630l0-3.48a2,2,0,0,0-1.16.39,1.61,1.61,0,0,0-.61,1.3,1.71,1.71,0,0,0,.46,1.23A1.9,1.9,0,0,0,229.14,630Z" transform="translate(-120 -3.15)"/><path d="M232.84,624.12l-6.12-.07v-.95h.87a2.28,2.28,0,0,1-1-2,2.92,2.92,0,0,1,.21-1,1.63,1.63,0,0,1,.53-.7,2.06,2.06,0,0,1,.77-.32,6,6,0,0,1,1,0l3.76,0v1.06l-3.72,0a2.64,2.64,0,0,0-.95.11,1,1,0,0,0-.5.43,1.39,1.39,0,0,0-.2.74,1.74,1.74,0,0,0,.41,1.17,2.06,2.06,0,0,0,1.59.51l3.34,0Z" transform="translate(-120 -3.15)"/></g><rect class="cls-2" x="214.03" y="403.98" width="22.5" height="75.31" transform="translate(-338.69 659.12) rotate(-89.4)"/><g class="cls-1"><path d="M206.24,438.76l.08-8.61h1.12l-.08,7.59,4.16.05v1Z" transform="translate(-120 -3.15)"/><path d="M216.71,438.1a3.74,3.74,0,0,1-1.12.69,3.33,3.33,0,0,1-1.14.2,2.21,2.21,0,0,1-1.55-.52,1.69,1.69,0,0,1-.53-1.29,1.81,1.81,0,0,1,.22-.84,1.56,1.56,0,0,1,.54-.6,2.57,2.57,0,0,1,.75-.34,8.34,8.34,0,0,1,.92-.15,9.66,9.66,0,0,0,1.85-.34c0-.15,0-.24,0-.28a1.21,1.21,0,0,0-.28-.91,1.72,1.72,0,0,0-1.18-.37,1.76,1.76,0,0,0-1.08.25,1.6,1.6,0,0,0-.53.92l-1-.15a2.64,2.64,0,0,1,.46-1.07,2,2,0,0,1,.93-.62,4.19,4.19,0,0,1,1.39-.21,3.69,3.69,0,0,1,1.27.21,1.54,1.54,0,0,1,.71.48,1.7,1.7,0,0,1,.32.72,7.13,7.13,0,0,1,0,1v1.41a16.27,16.27,0,0,0,0,1.87,2.57,2.57,0,0,0,.26.75h-1.08A2,2,0,0,1,216.71,438.1Zm-.07-2.36a7.41,7.41,0,0,1-1.69.38,3.82,3.82,0,0,0-.91.2.92.92,0,0,0-.41.34.89.89,0,0,0-.15.5.92.92,0,0,0,.31.71,1.29,1.29,0,0,0,.91.29,2.1,2.1,0,0,0,1.07-.26,1.6,1.6,0,0,0,.69-.72,2.6,2.6,0,0,0,.18-1.06Z" transform="translate(-120 -3.15)"/><path d="M220.22,438.9h-1l.09-8.61h1l0,3.08a2.07,2.07,0,0,1,1.69-.83,2.58,2.58,0,0,1,1.06.25,2.25,2.25,0,0,1,.83.66,3,3,0,0,1,.49,1,4.33,4.33,0,0,1,.18,1.27,3.58,3.58,0,0,1-.81,2.47,2.37,2.37,0,0,1-1.87.85,1.93,1.93,0,0,1-1.69-.94Zm0-3.16a3.29,3.29,0,0,0,.29,1.62,1.47,1.47,0,0,0,1.31.83,1.44,1.44,0,0,0,1.18-.59,2.73,2.73,0,0,0,.52-1.79,2.87,2.87,0,0,0-.46-1.8,1.47,1.47,0,0,0-1.14-.6,1.5,1.5,0,0,0-1.19.59A2.73,2.73,0,0,0,220.24,435.74Z" transform="translate(-120 -3.15)"/><path d="M229.43,439l.08-8.61h1.12l-.09,8.61Z" transform="translate(-120 -3.15)"/><path d="M232,435.91a3.3,3.3,0,0,1,1-2.56,2.84,2.84,0,0,1,1.93-.67,2.75,2.75,0,0,1,2.06.86,3.25,3.25,0,0,1,.77,2.34,4.12,4.12,0,0,1-.37,1.89,2.53,2.53,0,0,1-1,1.06,3,3,0,0,1-1.48.37,2.74,2.74,0,0,1-2.07-.86A3.43,3.43,0,0,1,232,435.91Zm1.07,0a2.72,2.72,0,0,0,.49,1.8,1.66,1.66,0,0,0,1.29.61,1.64,1.64,0,0,0,1.29-.59,2.78,2.78,0,0,0,.53-1.82,2.6,2.6,0,0,0-.5-1.76,1.64,1.64,0,0,0-1.27-.61,1.65,1.65,0,0,0-1.3.58A2.69,2.69,0,0,0,233.09,435.92Z" transform="translate(-120 -3.15)"/><path d="M241.22,439.12l.07-7.59-2.78,0v-1l6.69.07v1l-2.79,0-.07,7.59Z" transform="translate(-120 -3.15)"/></g><rect class="cls-2" x="213.83" y="690.75" width="22.5" height="75.31" transform="translate(-625.64 942.69) rotate(-89.4)"/><g class="cls-1"><path d="M201.8,725.46l.09-8.61H203l-.07,7.59,4.16,0v1Z" transform="translate(-120 -3.15)"/><path d="M212.27,724.8a3.71,3.71,0,0,1-1.11.69,3.12,3.12,0,0,1-1.15.19,2.2,2.2,0,0,1-1.54-.51,1.82,1.82,0,0,1-.32-2.13,1.74,1.74,0,0,1,.54-.6,2.83,2.83,0,0,1,.75-.34,9.07,9.07,0,0,1,.93-.15,9.82,9.82,0,0,0,1.85-.34c0-.15,0-.24,0-.28a1.17,1.17,0,0,0-.29-.91,1.67,1.67,0,0,0-1.17-.37,1.81,1.81,0,0,0-1.09.25,1.56,1.56,0,0,0-.52.92l-1-.16a2.53,2.53,0,0,1,.46-1.06,2,2,0,0,1,.92-.62,4.23,4.23,0,0,1,1.39-.21,3.88,3.88,0,0,1,1.27.2,1.45,1.45,0,0,1,1,1.21,5.46,5.46,0,0,1,.05,1l0,1.41a15.37,15.37,0,0,0,.05,1.87,2.31,2.31,0,0,0,.26.75h-1.09A2.48,2.48,0,0,1,212.27,724.8Zm-.06-2.37a7.43,7.43,0,0,1-1.7.39,3.28,3.28,0,0,0-.9.2.89.89,0,0,0-.42.34.94.94,0,0,0-.14.5.91.91,0,0,0,.3.71,1.39,1.39,0,0,0,.92.29,2.12,2.12,0,0,0,1.07-.26,1.6,1.6,0,0,0,.69-.72,2.78,2.78,0,0,0,.18-1.06Z" transform="translate(-120 -3.15)"/><path d="M215.79,725.6h-1l.08-8.61h1l0,3.07a2.06,2.06,0,0,1,1.68-.82,2.62,2.62,0,0,1,1.07.25,2,2,0,0,1,.82.66,3.08,3.08,0,0,1,.5,1,4.06,4.06,0,0,1,.17,1.27,3.6,3.6,0,0,1-.8,2.48,2.42,2.42,0,0,1-1.87.85,1.94,1.94,0,0,1-1.69-.94Zm0-3.16a3.33,3.33,0,0,0,.28,1.62,1.49,1.49,0,0,0,1.32.83,1.46,1.46,0,0,0,1.18-.59,2.75,2.75,0,0,0,.51-1.79,2.85,2.85,0,0,0-.45-1.81,1.47,1.47,0,0,0-1.15-.59,1.5,1.5,0,0,0-1.18.59A2.73,2.73,0,0,0,215.81,722.44Z" transform="translate(-120 -3.15)"/><path d="M224.79,725.7l.09-8.61H226l4.37,6.8.07-6.75h1.07l-.09,8.61-1.14,0-4.37-6.81-.07,6.77Z" transform="translate(-120 -3.15)"/><path d="M233,721.59a4.73,4.73,0,0,1,1.16-3.35,3.82,3.82,0,0,1,2.93-1.18,4,4,0,0,1,2.1.59,3.77,3.77,0,0,1,1.42,1.61,5.36,5.36,0,0,1,.47,2.31,5.08,5.08,0,0,1-.55,2.34,3.53,3.53,0,0,1-1.48,1.55A4.09,4.09,0,0,1,237,726a3.92,3.92,0,0,1-2.12-.61,3.83,3.83,0,0,1-1.41-1.62A5,5,0,0,1,233,721.59Zm1.15,0a3.49,3.49,0,0,0,.8,2.46,2.81,2.81,0,0,0,4.13,0,3.7,3.7,0,0,0,.84-2.56,4.41,4.41,0,0,0-.33-1.84,2.68,2.68,0,0,0-1-1.22,2.9,2.9,0,0,0-3.56.36A3.82,3.82,0,0,0,234.17,721.62Z" transform="translate(-120 -3.15)"/><path d="M242.14,723.11l1.05-.08a2.46,2.46,0,0,0,.34,1.06,1.85,1.85,0,0,0,.85.68,3.4,3.4,0,0,0,2.42.09,1.53,1.53,0,0,0,.73-.53,1.24,1.24,0,0,0,.25-.73,1.15,1.15,0,0,0-.22-.71,1.73,1.73,0,0,0-.76-.52,12.93,12.93,0,0,0-1.5-.43,7.75,7.75,0,0,1-1.62-.56,2.38,2.38,0,0,1-.9-.81,2,2,0,0,1-.28-1.07,2.24,2.24,0,0,1,.37-1.22,2.29,2.29,0,0,1,1.07-.85,4.07,4.07,0,0,1,1.55-.28,4.27,4.27,0,0,1,1.66.33,2.41,2.41,0,0,1,1.09.92,2.61,2.61,0,0,1,.4,1.36l-1.07.07a1.77,1.77,0,0,0-.57-1.24,3,3,0,0,0-2.95-.07,1.13,1.13,0,0,0-.47.91,1,1,0,0,0,.32.77,4.42,4.42,0,0,0,1.67.63,11.19,11.19,0,0,1,1.87.57,2.5,2.5,0,0,1,1.08.89,2.18,2.18,0,0,1,.34,1.22,2.48,2.48,0,0,1-.4,1.3,2.58,2.58,0,0,1-1.12.93,3.74,3.74,0,0,1-1.63.32,4.91,4.91,0,0,1-1.92-.36,2.7,2.7,0,0,1-1.2-1A2.93,2.93,0,0,1,242.14,723.11Z" transform="translate(-120 -3.15)"/></g><rect class="cls-2" x="321.04" y="318.89" width="22.5" height="75.31" transform="translate(-147.71 681.93) rotate(-89.4)"/><g class="cls-1"><path d="M302.06,353.59l.09-8.61h1.11l-.07,7.59,4.16.05v1Z" transform="translate(-120 -3.15)"/><path d="M312.53,352.93a3.83,3.83,0,0,1-1.11.69,3.12,3.12,0,0,1-1.15.19,2.14,2.14,0,0,1-1.54-.51,1.66,1.66,0,0,1-.53-1.29,1.69,1.69,0,0,1,.21-.84,1.74,1.74,0,0,1,.54-.6,2.57,2.57,0,0,1,.75-.34,8.61,8.61,0,0,1,.93-.15,9.07,9.07,0,0,0,1.85-.34v-.28a1.17,1.17,0,0,0-.28-.91,1.7,1.7,0,0,0-1.18-.37,1.8,1.8,0,0,0-1.08.25,1.59,1.59,0,0,0-.52.92l-1-.15a2.65,2.65,0,0,1,.47-1.07,2,2,0,0,1,.92-.62,4.23,4.23,0,0,1,1.39-.21,3.65,3.65,0,0,1,1.27.21,1.52,1.52,0,0,1,.72.48,1.69,1.69,0,0,1,.31.72,5.46,5.46,0,0,1,0,1l0,1.41a15.37,15.37,0,0,0,.05,1.87,2.55,2.55,0,0,0,.25.75h-1.08A2.48,2.48,0,0,1,312.53,352.93Zm-.06-2.36a7.66,7.66,0,0,1-1.7.38,3.59,3.59,0,0,0-.9.2,1,1,0,0,0-.42.34,1.08,1.08,0,0,0-.15.5.92.92,0,0,0,.31.71,1.32,1.32,0,0,0,.92.29,2.06,2.06,0,0,0,1.06-.26,1.57,1.57,0,0,0,.7-.72,2.62,2.62,0,0,0,.17-1.06Z" transform="translate(-120 -3.15)"/><path d="M316.05,353.73h-1l.08-8.61h1l0,3.08a2,2,0,0,1,1.68-.83,2.62,2.62,0,0,1,1.07.25,2.13,2.13,0,0,1,.82.66,3.24,3.24,0,0,1,.5,1,4,4,0,0,1,.17,1.27,3.63,3.63,0,0,1-.8,2.47,2.42,2.42,0,0,1-1.87.85,1.91,1.91,0,0,1-1.69-.94Zm0-3.16a3.19,3.19,0,0,0,.28,1.62,1.47,1.47,0,0,0,2.5.24,2.81,2.81,0,0,0,.51-1.79,2.75,2.75,0,0,0-.46-1.8,1.42,1.42,0,0,0-1.14-.6,1.49,1.49,0,0,0-1.18.59A2.73,2.73,0,0,0,316.07,350.57Z" transform="translate(-120 -3.15)"/><path d="M325.12,353.83l.08-8.61,5.7.06v1l-4.58,0,0,2.66,4,0v1l-4,0,0,3.91Z" transform="translate(-120 -3.15)"/><path d="M331.78,350.78a3.23,3.23,0,0,1,1-2.56,2.82,2.82,0,0,1,1.93-.67,2.74,2.74,0,0,1,2.05.86,3.25,3.25,0,0,1,.78,2.34,4.11,4.11,0,0,1-.38,1.89,2.47,2.47,0,0,1-1,1.06,3,3,0,0,1-1.48.37,2.77,2.77,0,0,1-2.07-.86A3.43,3.43,0,0,1,331.78,350.78Zm1.06,0a2.67,2.67,0,0,0,.5,1.8,1.68,1.68,0,0,0,2.57,0,2.73,2.73,0,0,0,.53-1.82,2.62,2.62,0,0,0-.5-1.76,1.64,1.64,0,0,0-1.27-.61,1.67,1.67,0,0,0-1.3.58A2.75,2.75,0,0,0,332.84,350.79Z" transform="translate(-120 -3.15)"/><path d="M338.68,354l.06-6.24h.93v.95a2.6,2.6,0,0,1,.66-.87,1.18,1.18,0,0,1,.67-.21,2.07,2.07,0,0,1,1.06.36l-.37,1a1.45,1.45,0,0,0-.75-.23.9.9,0,0,0-.61.2,1.12,1.12,0,0,0-.4.57,4.06,4.06,0,0,0-.18,1.23l0,3.27Z" transform="translate(-120 -3.15)"/><path d="M346.83,352.05l1.06.14a2.64,2.64,0,0,1-.95,1.48,3.12,3.12,0,0,1-3.87-.36,3.3,3.3,0,0,1-.77-2.37,3.49,3.49,0,0,1,.82-2.43,2.65,2.65,0,0,1,2.07-.85,2.61,2.61,0,0,1,2,.87,3.44,3.44,0,0,1,.75,2.4c0,.07,0,.16,0,.29l-4.56-.05a2.43,2.43,0,0,0,.56,1.58,1.69,1.69,0,0,0,1.27.56,1.61,1.61,0,0,0,1-.3A2.09,2.09,0,0,0,346.83,352.05Zm-3.39-1.75,3.41,0a2.1,2.1,0,0,0-.38-1.19,1.54,1.54,0,0,0-1.27-.62A1.62,1.62,0,0,0,344,349,1.94,1.94,0,0,0,343.44,350.3Z" transform="translate(-120 -3.15)"/><path d="M348.78,352.21l1-.15a1.47,1.47,0,0,0,.47,1,1.66,1.66,0,0,0,1.1.34,1.6,1.6,0,0,0,1.06-.28.9.9,0,0,0,.35-.69.62.62,0,0,0-.3-.57,4.14,4.14,0,0,0-1.05-.37,8.7,8.7,0,0,1-1.58-.53,1.48,1.48,0,0,1-.66-.6,1.59,1.59,0,0,1-.22-.83,1.62,1.62,0,0,1,.2-.78,1.58,1.58,0,0,1,.51-.58,2,2,0,0,1,.66-.3,3.26,3.26,0,0,1,.9-.12,3.45,3.45,0,0,1,1.26.23,1.65,1.65,0,0,1,.8.58,2.21,2.21,0,0,1,.35,1l-1,.13a1.13,1.13,0,0,0-.39-.76,1.49,1.49,0,0,0-.93-.28,1.72,1.72,0,0,0-1,.23.75.75,0,0,0-.31.56.56.56,0,0,0,.13.37.87.87,0,0,0,.39.29l.92.28a12.18,12.18,0,0,1,1.52.51,1.51,1.51,0,0,1,.68.56,1.59,1.59,0,0,1,.24.9,1.81,1.81,0,0,1-.31,1,2,2,0,0,1-.88.71,3,3,0,0,1-1.29.24,2.88,2.88,0,0,1-1.82-.52A2.37,2.37,0,0,1,348.78,352.21Z" transform="translate(-120 -3.15)"/><path d="M357.35,353.22l.14.93a4,4,0,0,1-.79.09,1.75,1.75,0,0,1-.87-.19,1,1,0,0,1-.43-.49,4,4,0,0,1-.12-1.24l0-3.59h-.76v-.82h.76v-1.54l1-.62,0,2.18h1v.82h-1l0,3.64a2.24,2.24,0,0,0,.05.59.49.49,0,0,0,.18.2.59.59,0,0,0,.35.08A2.76,2.76,0,0,0,357.35,353.22Z" transform="translate(-120 -3.15)"/><path d="M358.28,356.58l-.1-1a2,2,0,0,0,.59.1,1.1,1.1,0,0,0,.55-.11,1,1,0,0,0,.35-.32,6.77,6.77,0,0,0,.32-.79l.09-.26-2.25-6.27h1.11l1.24,3.63c.16.46.3.94.43,1.45a13,13,0,0,1,.44-1.42l1.34-3.62h1L361,354.31a13.84,13.84,0,0,1-.6,1.41,2.05,2.05,0,0,1-.64.76,1.41,1.41,0,0,1-.85.23A2.25,2.25,0,0,1,358.28,356.58Z" transform="translate(-120 -3.15)"/></g><rect class="cls-2" x="184.18" y="731.49" width="22.5" height="75.31" transform="translate(-695.72 953.36) rotate(-89.4)"/><g class="cls-1"><path d="M180.46,762.52l1.85-4.76H183l1.87,4.8h-.7l-.54-1.45-2,0-.53,1.44Zm1.38-1.95,1.59,0-.48-1.33c-.15-.4-.25-.73-.32-1a6.27,6.27,0,0,1-.27.91Z" transform="translate(-120 -3.15)"/><path d="M185.27,762.57l0-3.46h.52v.53a1.36,1.36,0,0,1,.38-.48.61.61,0,0,1,.37-.12,1.1,1.1,0,0,1,.59.2l-.21.54a.86.86,0,0,0-.42-.13.6.6,0,0,0-.34.11.68.68,0,0,0-.22.32,2.5,2.5,0,0,0-.1.69l0,1.81Z" transform="translate(-120 -3.15)"/><path d="M189.68,762.19a2.17,2.17,0,0,1-.62.39,1.69,1.69,0,0,1-.64.1,1.25,1.25,0,0,1-.86-.28,1,1,0,0,1-.29-.72.9.9,0,0,1,.12-.46,1.1,1.1,0,0,1,.3-.34,1.62,1.62,0,0,1,.42-.19l.51-.08a4.88,4.88,0,0,0,1-.19v-.15a.66.66,0,0,0-.16-.51,1,1,0,0,0-.65-.21,1.06,1.06,0,0,0-.6.14.9.9,0,0,0-.29.51l-.57-.08a1.46,1.46,0,0,1,.26-.59,1.11,1.11,0,0,1,.52-.35,2,2,0,0,1,.77-.11,1.94,1.94,0,0,1,.7.11.88.88,0,0,1,.4.27.92.92,0,0,1,.18.4c0,.1,0,.28,0,.54v.78a10.36,10.36,0,0,0,0,1,1.39,1.39,0,0,0,.14.42h-.6A1.09,1.09,0,0,1,189.68,762.19Zm0-1.31a4,4,0,0,1-.94.21,1.89,1.89,0,0,0-.5.12.47.47,0,0,0-.23.18.58.58,0,0,0-.09.28.48.48,0,0,0,.18.39.73.73,0,0,0,.5.17,1.19,1.19,0,0,0,.6-.15.87.87,0,0,0,.38-.4,1.29,1.29,0,0,0,.1-.58Z" transform="translate(-120 -3.15)"/><path d="M191.1,762.63l.05-4.78h.57v1.71a1.26,1.26,0,0,1,1-.46,1.23,1.23,0,0,1,.65.16.86.86,0,0,1,.4.42,2.23,2.23,0,0,1,.11.78l0,2.19h-.58l0-2.2a.85.85,0,0,0-.18-.64.66.66,0,0,0-.53-.21.91.91,0,0,0-.48.13.72.72,0,0,0-.32.37,1.72,1.72,0,0,0-.11.64v1.89Z" transform="translate(-120 -3.15)"/><path d="M198.85,760.84v-.56l2,0v1.77a3.71,3.71,0,0,1-1,.55,2.89,2.89,0,0,1-1,.18,2.68,2.68,0,0,1-1.26-.32,2,2,0,0,1-.84-.88,2.83,2.83,0,0,1-.28-1.28,3.18,3.18,0,0,1,.3-1.3,2,2,0,0,1,.84-.89,2.61,2.61,0,0,1,1.24-.28,2.29,2.29,0,0,1,.92.18,1.55,1.55,0,0,1,.64.47,2.12,2.12,0,0,1,.34.79l-.56.15a2,2,0,0,0-.25-.58,1.22,1.22,0,0,0-.45-.34,1.87,1.87,0,0,0-.64-.13,1.85,1.85,0,0,0-.74.13,1.34,1.34,0,0,0-.51.34,2.09,2.09,0,0,0-.3.47,2.49,2.49,0,0,0-.18,1,2.3,2.3,0,0,0,.2,1.07,1.4,1.4,0,0,0,.62.65,2.08,2.08,0,0,0,.88.22,2.17,2.17,0,0,0,1.37-.49v-.89Z" transform="translate(-120 -3.15)"/><path d="M201.54,761.21l.58-.05a1.37,1.37,0,0,0,.19.59,1.07,1.07,0,0,0,.47.38,1.81,1.81,0,0,0,.72.15,1.77,1.77,0,0,0,.63-.1.83.83,0,0,0,.4-.3.65.65,0,0,0,.14-.4.7.7,0,0,0-.12-.4,1,1,0,0,0-.42-.28,6.56,6.56,0,0,0-.83-.25,4.72,4.72,0,0,1-.91-.3,1.35,1.35,0,0,1-.49-.45,1.12,1.12,0,0,1-.16-.6,1.21,1.21,0,0,1,.21-.68,1.28,1.28,0,0,1,.59-.47,2.19,2.19,0,0,1,.86-.15,2.22,2.22,0,0,1,.92.18,1.4,1.4,0,0,1,.61.51,1.46,1.46,0,0,1,.22.75l-.6,0a1,1,0,0,0-.31-.68,1.64,1.64,0,0,0-1.64,0,.63.63,0,0,0-.26.5.53.53,0,0,0,.17.43,2.47,2.47,0,0,0,.94.35,7.22,7.22,0,0,1,1,.31,1.52,1.52,0,0,1,.6.5,1.2,1.2,0,0,1,.19.68,1.35,1.35,0,0,1-.22.72,1.52,1.52,0,0,1-.62.52,2.21,2.21,0,0,1-.91.18,2.9,2.9,0,0,1-1.06-.2,1.52,1.52,0,0,1-.67-.58A1.6,1.6,0,0,1,201.54,761.21Z" transform="translate(-120 -3.15)"/><path d="M208.32,760.94v-.56h2l0,1.78a3.4,3.4,0,0,1-.95.55,2.81,2.81,0,0,1-1,.18,2.64,2.64,0,0,1-1.25-.32,2,2,0,0,1-.84-.88,2.83,2.83,0,0,1-.28-1.28,3.14,3.14,0,0,1,.3-1.3,1.94,1.94,0,0,1,.83-.89,2.52,2.52,0,0,1,1.24-.28,2.25,2.25,0,0,1,.92.18,1.43,1.43,0,0,1,.64.47,2.06,2.06,0,0,1,.35.79l-.56.15a1.85,1.85,0,0,0-.26-.58,1.1,1.1,0,0,0-.44-.34,1.71,1.71,0,0,0-.65-.13,1.88,1.88,0,0,0-.74.13,1.39,1.39,0,0,0-.5.34,1.57,1.57,0,0,0-.3.47,2.69,2.69,0,0,0-.19,1,2.46,2.46,0,0,0,.21,1.07,1.45,1.45,0,0,0,.62.65,1.86,1.86,0,0,0,.87.21,1.79,1.79,0,0,0,.79-.15,2,2,0,0,0,.59-.33V761Z" transform="translate(-120 -3.15)"/></g><rect class="cls-2" x="350.64" y="1.34" width="22.5" height="75.31" transform="translate(199.1 397.3) rotate(-89.4)"/><g class="cls-1"><path d="M341.92,32.32l1.84-4.76h.67l1.87,4.8h-.7l-.54-1.45-2,0-.53,1.44Zm1.37-1.95,1.59,0-.48-1.33c-.14-.4-.25-.73-.32-1a6.22,6.22,0,0,1-.26.91Z" transform="translate(-120 -3.15)"/><path d="M346.72,32.38l0-3.47h.52v.52a1.36,1.36,0,0,1,.37-.48.63.63,0,0,1,.37-.12,1.19,1.19,0,0,1,.59.2l-.2.54a.86.86,0,0,0-.42-.13.63.63,0,0,0-.35.11.64.64,0,0,0-.21.32,2.49,2.49,0,0,0-.11.69v1.81Z" transform="translate(-120 -3.15)"/><path d="M351.13,32a2,2,0,0,1-.62.39,1.9,1.9,0,0,1-.63.11,1.24,1.24,0,0,1-.86-.29,1,1,0,0,1-.3-.72.9.9,0,0,1,.12-.46,1.1,1.1,0,0,1,.3-.34,1.44,1.44,0,0,1,.42-.18,4.17,4.17,0,0,1,.51-.09,4.76,4.76,0,0,0,1-.19v-.15a.66.66,0,0,0-.15-.51,1,1,0,0,0-.66-.21,1.06,1.06,0,0,0-.6.14.9.9,0,0,0-.29.51l-.56-.08a1.34,1.34,0,0,1,.26-.59,1.13,1.13,0,0,1,.51-.35,2.27,2.27,0,0,1,.77-.11,2,2,0,0,1,.71.11.84.84,0,0,1,.39.27.82.82,0,0,1,.18.4,3.58,3.58,0,0,1,0,.54V31a10.36,10.36,0,0,0,0,1,1.3,1.3,0,0,0,.14.42h-.6A1.29,1.29,0,0,1,351.13,32Zm0-1.31a3.77,3.77,0,0,1-1,.21,2.14,2.14,0,0,0-.5.12.47.47,0,0,0-.23.18.57.57,0,0,0-.08.28.51.51,0,0,0,.17.4A.79.79,0,0,0,350,32a1.15,1.15,0,0,0,.59-.15.94.94,0,0,0,.39-.4,1.46,1.46,0,0,0,.09-.58Z" transform="translate(-120 -3.15)"/><path d="M352.55,32.44l.05-4.79h.57v1.71a1.26,1.26,0,0,1,1-.46,1.23,1.23,0,0,1,.65.16.86.86,0,0,1,.4.42,2,2,0,0,1,.11.78l0,2.19h-.58l0-2.2a.85.85,0,0,0-.18-.64.68.68,0,0,0-.52-.21,1,1,0,0,0-.49.13.72.72,0,0,0-.32.37,1.56,1.56,0,0,0-.1.64l0,1.89Z" transform="translate(-120 -3.15)"/><path d="M358.09,32.49l.05-4.78,1.77,0a4.08,4.08,0,0,1,.71.05,1.44,1.44,0,0,1,.58.23,1.18,1.18,0,0,1,.37.47,1.38,1.38,0,0,1,.13.65,1.45,1.45,0,0,1-.39,1,1.81,1.81,0,0,1-1.38.41l-1.2,0,0,1.95Zm.65-2.5H360a1.27,1.27,0,0,0,.86-.22.83.83,0,0,0,.25-.64.79.79,0,0,0-.14-.51.7.7,0,0,0-.39-.29,3,3,0,0,0-.58-.05h-1.2Z" transform="translate(-120 -3.15)"/><path d="M364.61,32.13a2.17,2.17,0,0,1-.62.39,1.91,1.91,0,0,1-.64.11,1.25,1.25,0,0,1-.86-.29,1,1,0,0,1-.29-.72.9.9,0,0,1,.12-.46,1.1,1.1,0,0,1,.3-.34,1.33,1.33,0,0,1,.42-.18,4.17,4.17,0,0,1,.51-.09,4.88,4.88,0,0,0,1-.19v-.15a.66.66,0,0,0-.16-.51,1,1,0,0,0-.65-.21,1.06,1.06,0,0,0-.6.14.9.9,0,0,0-.29.51l-.56-.08a1.46,1.46,0,0,1,.25-.59,1.11,1.11,0,0,1,.52-.35,2.27,2.27,0,0,1,.77-.11,1.94,1.94,0,0,1,.7.11.83.83,0,0,1,.4.27.92.92,0,0,1,.18.4,3.58,3.58,0,0,1,0,.54v.78a10.36,10.36,0,0,0,0,1,1.23,1.23,0,0,0,.14.42h-.6A1.09,1.09,0,0,1,364.61,32.13Zm0-1.31a3.58,3.58,0,0,1-.94.21,2,2,0,0,0-.5.12.47.47,0,0,0-.23.18.58.58,0,0,0-.09.28.52.52,0,0,0,.18.4.74.74,0,0,0,.51.16,1.28,1.28,0,0,0,.59-.14.94.94,0,0,0,.38-.41,1.26,1.26,0,0,0,.1-.58Z" transform="translate(-120 -3.15)"/><path d="M366,32.58l0-3.47h.52v.52a1.62,1.62,0,0,1,.37-.48.57.57,0,0,1,.37-.11,1,1,0,0,1,.59.19l-.2.54a.86.86,0,0,0-.42-.13.58.58,0,0,0-.34.11.74.74,0,0,0-.22.32,2.5,2.5,0,0,0-.1.69l0,1.81Z" transform="translate(-120 -3.15)"/><path d="M368.22,32.6l0-4.79h.58l0,2.73,1.38-1.4h.74l-1.31,1.27,1.41,2.2h-.71l-1.11-1.78-.41.39V32.6Z" transform="translate(-120 -3.15)"/><path d="M371.49,32.63l0-3.46h.57l0,3.47Zm0-4.11v-.67h.57v.68Z" transform="translate(-120 -3.15)"/><path d="M372.94,32.65l0-3.47h.52v.52a1.47,1.47,0,0,1,.38-.48.6.6,0,0,1,.37-.11,1.08,1.08,0,0,1,.59.19l-.21.55a.87.87,0,0,0-.42-.14.54.54,0,0,0-.34.12.63.63,0,0,0-.22.32,2.37,2.37,0,0,0-.1.68l0,1.81Z" transform="translate(-120 -3.15)"/><path d="M377.35,32.27a2.12,2.12,0,0,1-.62.38,1.69,1.69,0,0,1-.64.11,1.25,1.25,0,0,1-.86-.29,1,1,0,0,1-.29-.72.9.9,0,0,1,.12-.46.87.87,0,0,1,.3-.33,1.15,1.15,0,0,1,.42-.19,3,3,0,0,1,.51-.08,5.47,5.47,0,0,0,1-.2v-.15a.66.66,0,0,0-.16-.51.94.94,0,0,0-.65-.2.92.92,0,0,0-.6.14.83.83,0,0,0-.29.51l-.57-.09a1.7,1.7,0,0,1,.26-.59,1.1,1.1,0,0,1,.52-.34,2.26,2.26,0,0,1,.77-.12,2.18,2.18,0,0,1,.7.11,1,1,0,0,1,.4.27,1,1,0,0,1,.18.4c0,.1,0,.28,0,.54v.79a10.25,10.25,0,0,0,0,1,1.23,1.23,0,0,0,.14.42h-.6A1.08,1.08,0,0,1,377.35,32.27Zm0-1.32a4,4,0,0,1-.94.22,2,2,0,0,0-.5.11.43.43,0,0,0-.23.19.51.51,0,0,0-.09.27.52.52,0,0,0,.18.4.73.73,0,0,0,.5.16,1.18,1.18,0,0,0,.6-.14.92.92,0,0,0,.38-.4,1.33,1.33,0,0,0,.1-.59Z" transform="translate(-120 -3.15)"/><path d="M378.77,32.71l0-3.47h.52v.49a1.21,1.21,0,0,1,1.08-.56,1.32,1.32,0,0,1,.57.12.91.91,0,0,1,.38.3,1.35,1.35,0,0,1,.18.44,3.9,3.9,0,0,1,0,.57l0,2.13H381l0-2.11a1.4,1.4,0,0,0-.07-.53.55.55,0,0,0-.23-.29.77.77,0,0,0-.4-.11.92.92,0,0,0-.64.23,1.22,1.22,0,0,0-.28.9v1.89Z" transform="translate(-120 -3.15)"/></g><rect class="cls-2" x="194.15" y="495.88" width="73.51" height="13.94" transform="translate(-394.19 725.65) rotate(-89.44)"/><g class="cls-1"><path d="M233.65,538.71l-8.44-.09,0-3.81a4.88,4.88,0,0,1,.24-1.75,1.92,1.92,0,0,1,.81-.95,2.37,2.37,0,0,1,1.28-.35,2.12,2.12,0,0,1,1.51.61,3,3,0,0,1,.76,1.84,3.22,3.22,0,0,1,.43-.68,5.67,5.67,0,0,1,1.13-.93l2.31-1.48v1.44l-1.77,1.12a12.2,12.2,0,0,0-1.17.81,2.52,2.52,0,0,0-.57.57,1.84,1.84,0,0,0-.23.52,3.21,3.21,0,0,0,0,.63l0,1.32,3.75,0Zm-4.7-1.19,0-2.45a3.63,3.63,0,0,0-.15-1.22,1.3,1.3,0,0,0-.5-.68,1.35,1.35,0,0,0-.75-.23,1.24,1.24,0,0,0-1,.43,2.13,2.13,0,0,0-.4,1.4l0,2.72Z" transform="translate(-120 -3.15)"/><path d="M233.77,526.09h-.89a2.3,2.3,0,0,1,1,2,2.38,2.38,0,0,1-.22,1,1.63,1.63,0,0,1-.52.7,1.85,1.85,0,0,1-.77.32,5.65,5.65,0,0,1-1,.06l-3.79,0v-1.06l3.39,0a6.26,6.26,0,0,0,1.09-.06,1,1,0,0,0,.65-.42,1.26,1.26,0,0,0,.24-.79,1.77,1.77,0,0,0-.23-.9,1.26,1.26,0,0,0-.64-.59,3.29,3.29,0,0,0-1.2-.19l-3.27,0v-1.06l6.11.06Z" transform="translate(-120 -3.15)"/><path d="M233.08,519.41a3.65,3.65,0,0,1,.68,1.14,3.18,3.18,0,0,1,.2,1.16,2.34,2.34,0,0,1-.51,1.58,1.67,1.67,0,0,1-1.27.54,1.58,1.58,0,0,1-.81-.22,1.67,1.67,0,0,1-.6-.55,3,3,0,0,1-.33-.77,6.92,6.92,0,0,1-.14-.94,11.14,11.14,0,0,0-.34-1.89h-.27a1.11,1.11,0,0,0-.9.29,1.72,1.72,0,0,0-.36,1.2,1.93,1.93,0,0,0,.24,1.1,1.52,1.52,0,0,0,.91.53l-.15,1a2.49,2.49,0,0,1-1.05-.48,2.08,2.08,0,0,1-.61-.94,4.37,4.37,0,0,1-.2-1.41,3.81,3.81,0,0,1,.2-1.3,1.71,1.71,0,0,1,.47-.73,1.66,1.66,0,0,1,.71-.32,4.66,4.66,0,0,1,1,0h1.39a14.86,14.86,0,0,0,1.83,0,2.2,2.2,0,0,0,.73-.26v1.11A2.35,2.35,0,0,1,233.08,519.41Zm-2.31.06a8.1,8.1,0,0,1,.37,1.73,4.51,4.51,0,0,0,.2.93,1,1,0,0,0,.34.42.84.84,0,0,0,.49.15.89.89,0,0,0,.69-.31,1.43,1.43,0,0,0,.29-.94,2.13,2.13,0,0,0-.26-1.08,1.57,1.57,0,0,0-.71-.71,2.29,2.29,0,0,0-1-.18Z" transform="translate(-120 -3.15)"/><path d="M233.87,516.8l-6.12-.07v-1h.87a2.24,2.24,0,0,1-1-2,2.54,2.54,0,0,1,.21-1,1.55,1.55,0,0,1,.53-.7,2,2,0,0,1,.77-.32,5.87,5.87,0,0,1,1-.05l3.76,0v1.06l-3.72,0a2.58,2.58,0,0,0-.94.11,1.06,1.06,0,0,0-.51.43,1.38,1.38,0,0,0-.19.74,1.69,1.69,0,0,0,.41,1.17,2,2,0,0,0,1.59.51l3.34,0Z" transform="translate(-120 -3.15)"/><path d="M234.44,510.31l.16-1a.94.94,0,0,0,.68-.35,1.86,1.86,0,0,0,.3-1.07,2,2,0,0,0-.28-1.14,1.44,1.44,0,0,0-.8-.55,7.71,7.71,0,0,0-1.33-.09,2.19,2.19,0,0,1,.78,1.74,2.34,2.34,0,0,1-.93,2,3.47,3.47,0,0,1-2.19.68,3.9,3.9,0,0,1-1.61-.34,2.48,2.48,0,0,1-1.52-2.39,2.24,2.24,0,0,1,.89-1.81h-.73v-1l5.28.06a4.77,4.77,0,0,1,2,.32,2,2,0,0,1,.93.95,3.32,3.32,0,0,1,.34,1.58,3,3,0,0,1-.51,1.8A1.68,1.68,0,0,1,234.44,510.31Zm-3.67-.92a2.61,2.61,0,0,0,1.76-.46,1.63,1.63,0,0,0,0-2.45,2.56,2.56,0,0,0-1.72-.51,2.48,2.48,0,0,0-1.7.49,1.58,1.58,0,0,0-.58,1.22,1.51,1.51,0,0,0,.55,1.2A2.37,2.37,0,0,0,230.77,509.39Z" transform="translate(-120 -3.15)"/><path d="M234,499.94l-8.44-.08,0-3a8,8,0,0,1,.13-1.53,3.1,3.1,0,0,1,.62-1.26,3.47,3.47,0,0,1,1.45-1,5.51,5.51,0,0,1,2-.32,5.87,5.87,0,0,1,1.71.25,4.21,4.21,0,0,1,1.22.6,3.14,3.14,0,0,1,.76.79,3.31,3.31,0,0,1,.41,1,5.87,5.87,0,0,1,.13,1.39Zm-1-1.15V497a4.42,4.42,0,0,0-.14-1.34,1.89,1.89,0,0,0-.43-.78,2.57,2.57,0,0,0-1.06-.64,4.85,4.85,0,0,0-1.62-.24,3.83,3.83,0,0,0-2,.42,2.2,2.2,0,0,0-1,1.07,4.52,4.52,0,0,0-.19,1.47v1.81Z" transform="translate(-120 -3.15)"/><path d="M231.05,491.75a3.09,3.09,0,0,1-2.5-1,2.89,2.89,0,0,1-.66-2,2.82,2.82,0,0,1,.84-2.1,3.1,3.1,0,0,1,2.29-.79,4,4,0,0,1,1.86.38,2.59,2.59,0,0,1,1,1.06,3.26,3.26,0,0,1,.36,1.51,2.81,2.81,0,0,1-.85,2.11A3.24,3.24,0,0,1,231.05,491.75Zm0-1.08a2.58,2.58,0,0,0,1.77-.51,1.71,1.71,0,0,0,.6-1.31,1.69,1.69,0,0,0-.58-1.31,2.59,2.59,0,0,0-1.78-.54,2.52,2.52,0,0,0-1.73.5,1.72,1.72,0,0,0-.6,1.3,1.75,1.75,0,0,0,.57,1.33A2.59,2.59,0,0,0,231.06,490.67Z" transform="translate(-120 -3.15)"/><path d="M232.35,485.11l-.15-1.05a1.47,1.47,0,0,0,1-.48,1.78,1.78,0,0,0,.34-1.12,1.73,1.73,0,0,0-.28-1.09.91.91,0,0,0-.68-.36.64.64,0,0,0-.56.31,4.84,4.84,0,0,0-.36,1.08,10.15,10.15,0,0,1-.51,1.6,1.52,1.52,0,0,1-.59.68,1.47,1.47,0,0,1-.82.22,1.51,1.51,0,0,1-.76-.2,1.67,1.67,0,0,1-.57-.52,2.16,2.16,0,0,1-.3-.68,3,3,0,0,1-.11-.91,3.63,3.63,0,0,1,.22-1.29,1.69,1.69,0,0,1,.57-.81,2.12,2.12,0,0,1,.95-.36l.13,1a1.11,1.11,0,0,0-.75.4,1.53,1.53,0,0,0-.27.95,1.74,1.74,0,0,0,.23,1,.66.66,0,0,0,.55.32.55.55,0,0,0,.36-.13.89.89,0,0,0,.28-.4q.06-.15.27-.93a14,14,0,0,1,.5-1.56,1.64,1.64,0,0,1,.55-.69,1.43,1.43,0,0,1,.89-.24,1.66,1.66,0,0,1,1,.32,1.86,1.86,0,0,1,.7.89,3.11,3.11,0,0,1,.24,1.32,3,3,0,0,1-.51,1.85A2.32,2.32,0,0,1,232.35,485.11Z" transform="translate(-120 -3.15)"/><path d="M232.31,474.4l.15-1.09a2.6,2.6,0,0,1,1.44,1,3.3,3.3,0,0,1-.34,4,3.21,3.21,0,0,1-2.33.78,3.34,3.34,0,0,1-2.39-.84,2.77,2.77,0,0,1-.83-2.11,2.66,2.66,0,0,1,.86-2,3.27,3.27,0,0,1,2.35-.77h.28l-.05,4.65a2.27,2.27,0,0,0,1.55-.57,1.71,1.71,0,0,0,.55-1.29,1.6,1.6,0,0,0-.29-1A1.94,1.94,0,0,0,232.31,474.4Zm-1.71,3.45,0-3.48a2,2,0,0,0-1.16.39,1.62,1.62,0,0,0-.62,1.3,1.69,1.69,0,0,0,.47,1.23A1.9,1.9,0,0,0,230.6,477.85Z" transform="translate(-120 -3.15)"/><path d="M234.31,472l-6.12-.06v-1h.87a2.24,2.24,0,0,1-1-2,2.54,2.54,0,0,1,.21-1,1.61,1.61,0,0,1,.53-.7,2,2,0,0,1,.77-.32,6,6,0,0,1,1-.05l3.75,0V468l-3.72,0a2.82,2.82,0,0,0-.94.11,1,1,0,0,0-.51.44,1.32,1.32,0,0,0-.19.73,1.69,1.69,0,0,0,.41,1.17,2,2,0,0,0,1.59.51l3.34,0Z" transform="translate(-120 -3.15)"/></g><g class="cls-1"><path d="M328.7,323.3l-8.44-.09,0-3.81a5.38,5.38,0,0,1,.24-1.75,1.89,1.89,0,0,1,.82-.95,2.34,2.34,0,0,1,1.27-.35,2.12,2.12,0,0,1,1.51.61,3.07,3.07,0,0,1,.77,1.84,2.87,2.87,0,0,1,.42-.68,6,6,0,0,1,1.13-.93l2.32-1.48,0,1.44L327,318.27a14.08,14.08,0,0,0-1.18.81,2.52,2.52,0,0,0-.57.57,2.17,2.17,0,0,0-.23.52,4.26,4.26,0,0,0,0,.63v1.32l3.74,0Zm-4.7-1.19,0-2.45a3.67,3.67,0,0,0-.14-1.22,1.29,1.29,0,0,0-.5-.67,1.34,1.34,0,0,0-.76-.24,1.24,1.24,0,0,0-1,.43,2.13,2.13,0,0,0-.4,1.4l0,2.72Z" transform="translate(-120 -3.15)"/><path d="M328.83,310.68h-.9a2.34,2.34,0,0,1,1,2,2.71,2.71,0,0,1-.22,1,1.64,1.64,0,0,1-.53.7,1.85,1.85,0,0,1-.77.32,5.65,5.65,0,0,1-1,.06l-3.79,0v-1.06l3.39,0a6.49,6.49,0,0,0,1.1-.06,1,1,0,0,0,.64-.42,1.26,1.26,0,0,0,.24-.79,1.68,1.68,0,0,0-.23-.9,1.26,1.26,0,0,0-.64-.59,3.23,3.23,0,0,0-1.19-.19l-3.28,0v-1.06l6.12.06Z" transform="translate(-120 -3.15)"/><path d="M328.14,304a3.85,3.85,0,0,1,.68,1.14,3.42,3.42,0,0,1,.19,1.17,2.31,2.31,0,0,1-.51,1.57,1.7,1.7,0,0,1-2.08.32,1.57,1.57,0,0,1-.59-.55,2.76,2.76,0,0,1-.34-.76,7.4,7.4,0,0,1-.14-.95,9.91,9.91,0,0,0-.34-1.88h-.27a1.12,1.12,0,0,0-.9.29,1.83,1.83,0,0,0-.36,1.2,1.92,1.92,0,0,0,.25,1.1,1.54,1.54,0,0,0,.9.54l-.15,1a2.55,2.55,0,0,1-1.05-.48,2,2,0,0,1-.6-.94,4.36,4.36,0,0,1-.21-1.41,4.08,4.08,0,0,1,.2-1.3A1.45,1.45,0,0,1,324,303a4.77,4.77,0,0,1,1,0h1.38a14.86,14.86,0,0,0,1.83-.05,2.2,2.2,0,0,0,.73-.26v1.11A2.28,2.28,0,0,1,328.14,304Zm-2.32.06a8,8,0,0,1,.38,1.73,3.47,3.47,0,0,0,.2.93.87.87,0,0,0,.33.42.84.84,0,0,0,.49.15.88.88,0,0,0,.69-.31,1.43,1.43,0,0,0,.29-.94A2.24,2.24,0,0,0,328,305a1.62,1.62,0,0,0-.71-.71,2.37,2.37,0,0,0-1-.18Z" transform="translate(-120 -3.15)"/><path d="M328.92,301.39l-6.12-.07v-.95h.87a2.24,2.24,0,0,1-1-2,2.92,2.92,0,0,1,.21-1,1.63,1.63,0,0,1,.53-.7,2.06,2.06,0,0,1,.77-.32,6,6,0,0,1,1-.05l3.76,0v1.06l-3.72,0a2.64,2.64,0,0,0-.95.11,1.06,1.06,0,0,0-.51.43,1.48,1.48,0,0,0-.19.74,1.69,1.69,0,0,0,.41,1.17,2.06,2.06,0,0,0,1.59.51l3.34,0Z" transform="translate(-120 -3.15)"/><path d="M329.49,294.9l.16-1a.92.92,0,0,0,.68-.35,1.72,1.72,0,0,0,.3-1.07,2,2,0,0,0-.28-1.14,1.4,1.4,0,0,0-.8-.55,7.71,7.71,0,0,0-1.33-.09,2.23,2.23,0,0,1,.79,1.74,2.37,2.37,0,0,1-.93,2,3.47,3.47,0,0,1-2.19.68,3.87,3.87,0,0,1-1.61-.34,2.49,2.49,0,0,1-1.14-1,2.63,2.63,0,0,1-.39-1.44,2.25,2.25,0,0,1,.9-1.81h-.74v-1l5.28.06a4.82,4.82,0,0,1,2,.32,2.19,2.19,0,0,1,.93.95,3.45,3.45,0,0,1,.33,1.58,3,3,0,0,1-.51,1.8A1.68,1.68,0,0,1,329.49,294.9Zm-3.67-.92a2.59,2.59,0,0,0,1.76-.46,1.58,1.58,0,0,0,.57-1.22,1.6,1.6,0,0,0-.54-1.23,2.56,2.56,0,0,0-1.72-.51,2.5,2.5,0,0,0-1.7.49,1.62,1.62,0,0,0-.58,1.22,1.55,1.55,0,0,0,.55,1.2A2.39,2.39,0,0,0,325.82,294Z" transform="translate(-120 -3.15)"/><path d="M329.08,284.53l-8.44-.08,0-3a7.08,7.08,0,0,1,.14-1.53,3,3,0,0,1,.61-1.26,3.44,3.44,0,0,1,1.46-1,5.44,5.44,0,0,1,2-.32,5.8,5.8,0,0,1,1.7.25,4.21,4.21,0,0,1,1.22.6,3.13,3.13,0,0,1,.76.79,3.31,3.31,0,0,1,.41,1,5.39,5.39,0,0,1,.13,1.39Zm-1-1.15,0-1.83a4.71,4.71,0,0,0-.15-1.34,1.89,1.89,0,0,0-.43-.78,2.57,2.57,0,0,0-1.06-.64,4.81,4.81,0,0,0-1.62-.24,3.83,3.83,0,0,0-2,.42,2.2,2.2,0,0,0-1,1.07,4.58,4.58,0,0,0-.18,1.47l0,1.81Z" transform="translate(-120 -3.15)"/><path d="M326.11,276.34a3.11,3.11,0,0,1-2.51-1,2.89,2.89,0,0,1-.66-2,2.83,2.83,0,0,1,.85-2.1,3.09,3.09,0,0,1,2.29-.79,4,4,0,0,1,1.85.38,2.53,2.53,0,0,1,1,1.06,3,3,0,0,1,.36,1.51,2.84,2.84,0,0,1-.84,2.11A3.27,3.27,0,0,1,326.11,276.34Zm0-1.08a2.52,2.52,0,0,0,1.76-.51,1.71,1.71,0,0,0,.6-1.31,1.69,1.69,0,0,0-.58-1.31,2.63,2.63,0,0,0-1.78-.54,2.54,2.54,0,0,0-1.73.5,1.78,1.78,0,0,0,0,2.63A2.56,2.56,0,0,0,326.12,275.26Z" transform="translate(-120 -3.15)"/><path d="M327.4,269.7l-.15-1.05a1.39,1.39,0,0,0,.95-.48,1.72,1.72,0,0,0,.34-1.12,1.67,1.67,0,0,0-.28-1.09.91.91,0,0,0-.68-.36.62.62,0,0,0-.55.31,4.21,4.21,0,0,0-.37,1.08,9.17,9.17,0,0,1-.51,1.6,1.52,1.52,0,0,1-.59.68,1.47,1.47,0,0,1-.82.22,1.57,1.57,0,0,1-.76-.2,1.67,1.67,0,0,1-.57-.52,2.16,2.16,0,0,1-.3-.68,3.78,3.78,0,0,1-.11-.91,3.63,3.63,0,0,1,.22-1.29,1.69,1.69,0,0,1,.57-.81,2.17,2.17,0,0,1,.95-.36l.13,1a1.09,1.09,0,0,0-.74.4,1.53,1.53,0,0,0-.28.95,1.74,1.74,0,0,0,.23,1,.68.68,0,0,0,.55.32.55.55,0,0,0,.36-.13.89.89,0,0,0,.28-.4c0-.1.13-.41.28-.93a15.4,15.4,0,0,1,.49-1.56,1.64,1.64,0,0,1,.55-.69,1.5,1.5,0,0,1,.89-.24,1.71,1.71,0,0,1,1,.32,2,2,0,0,1,.7.89,3.27,3.27,0,0,1,.23,1.32,3,3,0,0,1-.51,1.85A2.29,2.29,0,0,1,327.4,269.7Z" transform="translate(-120 -3.15)"/><path d="M327.37,259l.14-1.09a2.66,2.66,0,0,1,1.45,1,3,3,0,0,1,.5,1.79,2.91,2.91,0,0,1-.85,2.16,3.19,3.19,0,0,1-2.33.78,3.34,3.34,0,0,1-2.38-.83,2.8,2.8,0,0,1-.84-2.12,2.7,2.7,0,0,1,.86-2,3.29,3.29,0,0,1,2.36-.77h.27l0,4.65a2.29,2.29,0,0,0,1.55-.57,1.7,1.7,0,0,0,.54-1.29,1.6,1.6,0,0,0-.29-1A2,2,0,0,0,327.37,259Zm-1.71,3.45,0-3.48a2,2,0,0,0-1.16.39,1.61,1.61,0,0,0-.61,1.3,1.68,1.68,0,0,0,.46,1.23A1.9,1.9,0,0,0,325.66,262.44Z" transform="translate(-120 -3.15)"/><path d="M329.36,256.59l-6.12-.06v-1h.87a2.24,2.24,0,0,1-1-2,2.92,2.92,0,0,1,.21-1,1.69,1.69,0,0,1,.53-.7,2.06,2.06,0,0,1,.77-.32,6,6,0,0,1,1-.05l3.76,0v1.06l-3.72,0a2.89,2.89,0,0,0-.95.11,1,1,0,0,0-.51.44,1.41,1.41,0,0,0-.19.73,1.69,1.69,0,0,0,.41,1.17,2.06,2.06,0,0,0,1.59.51l3.34,0Z" transform="translate(-120 -3.15)"/></g><path d="M198.19,389.94a6.53,6.53,0,0,1,1.81-.23,2.35,2.35,0,0,1,2.1.9,3.52,3.52,0,0,1,.57,2.09,3,3,0,0,1-1.37,2.8v.05c.56.29.9,1.07,1.07,2.22a25.29,25.29,0,0,0,.56,3h-1a19.21,19.21,0,0,1-.48-2.62c-.22-1.52-.61-2.09-1.46-2.14h-.89v4.76h-.94Zm.94,5h1c1,0,1.64-.84,1.64-2.09,0-1.42-.68-2-1.67-2.06a2.78,2.78,0,0,0-.93.13Z" transform="translate(-120 -3.15)"/><path d="M208.35,398.63c0,.82,0,1.53,0,2.15h-.84l-.05-1.29h0a2,2,0,0,1-1.72,1.47c-.83,0-1.81-.68-1.81-3.46v-4.61h.95v4.37c0,1.5.3,2.51,1.17,2.51.64,0,1.08-.67,1.25-1.3a2.89,2.89,0,0,0,.09-.74v-4.84h.95Z" transform="translate(-120 -3.15)"/><path d="M212.82,400.78l-.07-1h0a1.87,1.87,0,0,1-1.6,1.17c-1.06,0-1.6-1.12-1.6-2.27,0-1.9,1.12-2.95,3.14-2.93v-.16c0-.65-.12-1.83-1.19-1.83a2,2,0,0,0-1.36.59l-.21-.95a2.5,2.5,0,0,1,1.71-.7c1.6,0,2,1.65,2,3.23v2.95a15.45,15.45,0,0,0,.09,1.89Zm-.14-4c-1,0-2.21.25-2.21,1.78,0,.93.41,1.37.9,1.37.68,0,1.11-.65,1.26-1.32a2.4,2.4,0,0,0,.05-.46Z" transform="translate(-120 -3.15)"/><path d="M215.14,395c0-.82,0-1.49,0-2.14h.84l.05,1.31h0a2,2,0,0,1,1.73-1.49c.73,0,1.85.65,1.85,3.36v4.71h-1v-4.55c0-1.27-.32-2.33-1.21-2.33-.63,0-1.11.67-1.28,1.47a3.26,3.26,0,0,0-.06.67v4.74h-1Z" transform="translate(-120 -3.15)"/><path d="M225.64,392.89c0,.57,0,1.21,0,2.17v4.58a6.07,6.07,0,0,1-.75,3.6,2.23,2.23,0,0,1-1.9.95,2.57,2.57,0,0,1-1.74-.65l.24-1.1a2.26,2.26,0,0,0,1.53.62c1,0,1.69-.76,1.69-2.75v-.88h0a1.85,1.85,0,0,1-1.67,1.32c-1.29,0-2.22-1.66-2.22-3.85,0-2.67,1.15-4.19,2.35-4.19a1.78,1.78,0,0,1,1.63,1.37h0l0-1.19Zm-1,3.11a2.66,2.66,0,0,0-.06-.65c-.17-.83-.63-1.51-1.32-1.51-.91,0-1.56,1.15-1.56,3,0,1.55.52,2.84,1.54,2.84.59,0,1.12-.56,1.32-1.47a3.36,3.36,0,0,0,.08-.77Z" transform="translate(-120 -3.15)"/><path d="M229.37,399.05a2.54,2.54,0,0,0,1.69.72c1,0,1.52-.77,1.52-1.87a2.27,2.27,0,0,0-1.37-2.19,3.25,3.25,0,0,1-1.92-3.11c0-1.71.94-3,2.35-3a2.42,2.42,0,0,1,1.61.54l-.26,1.16a2.17,2.17,0,0,0-1.38-.52,1.46,1.46,0,0,0-1.37,1.64c0,1,.44,1.54,1.44,2.12a3.33,3.33,0,0,1,1.86,3.23c0,1.7-.83,3.17-2.55,3.17a2.76,2.76,0,0,1-1.85-.71Z" transform="translate(-120 -3.15)"/><path d="M235.86,390.67c0,.49-.23.88-.61.88s-.57-.39-.57-.88.25-.89.59-.89S235.86,390.17,235.86,390.67Zm-1.06,10.11v-7.89h.95v7.89Z" transform="translate(-120 -3.15)"/><path d="M241.84,389.21v9.53c0,.71,0,1.5,0,2H241l0-1.37h0a2,2,0,0,1-1.78,1.55c-1.27,0-2.24-1.61-2.24-4,0-2.62,1.07-4.24,2.34-4.24a1.71,1.71,0,0,1,1.58,1.21h0v-4.71Zm-1,6.89a4,4,0,0,0,0-.6c-.14-.91-.66-1.66-1.37-1.66-1,0-1.57,1.3-1.57,3.05,0,1.59.52,2.91,1.55,2.91.63,0,1.22-.63,1.39-1.71a4,4,0,0,0,0-.62Z" transform="translate(-120 -3.15)"/><path d="M246.32,400.78l-.08-1h0a1.84,1.84,0,0,1-1.6,1.17c-1.06,0-1.6-1.12-1.6-2.27,0-1.9,1.13-2.95,3.15-2.93v-.16c0-.65-.12-1.83-1.19-1.83a2,2,0,0,0-1.36.59l-.22-.95a2.5,2.5,0,0,1,1.72-.7c1.6,0,2,1.65,2,3.23v2.95a18,18,0,0,0,.08,1.89Zm-.14-4c-1,0-2.22.25-2.22,1.78,0,.93.41,1.37.9,1.37.68,0,1.11-.65,1.26-1.32a1.82,1.82,0,0,0,.06-.46Z" transform="translate(-120 -3.15)"/><path d="M248.63,395c0-.82,0-1.49,0-2.14h.84l.06,1.31h0a2,2,0,0,1,1.73-1.49c.72,0,1.84.65,1.84,3.36v4.71h-1v-4.55c0-1.27-.31-2.33-1.21-2.33-.62,0-1.11.67-1.27,1.47a3.21,3.21,0,0,0-.07.67v4.74h-1Z" transform="translate(-120 -3.15)"/><path d="M259.14,392.89c0,.57-.05,1.21-.05,2.17v4.58a6.08,6.08,0,0,1-.74,3.6,2.24,2.24,0,0,1-1.9.95,2.55,2.55,0,0,1-1.74-.65l.24-1.1a2.22,2.22,0,0,0,1.53.62c1,0,1.68-.76,1.68-2.75v-.88h0a1.84,1.84,0,0,1-1.66,1.32c-1.3,0-2.23-1.66-2.23-3.85,0-2.67,1.16-4.19,2.36-4.19a1.79,1.79,0,0,1,1.63,1.37h0l0-1.19Zm-1,3.11a3.3,3.3,0,0,0,0-.65c-.17-.83-.64-1.51-1.33-1.51-.91,0-1.55,1.15-1.55,3,0,1.55.51,2.84,1.54,2.84.58,0,1.11-.56,1.32-1.47a4,4,0,0,0,.07-.77Z" transform="translate(-120 -3.15)"/><text x="-120" y="-3.15"></text></svg>