<?xml version="1.0" encoding="utf-8"?>
<!-- Generator: Adobe Illustrator 22.1.0, SVG Export Plug-In . SVG Version: 6.00 Build 0)  -->
<svg version="1.1" id="Layer_1" xmlns="http://www.w3.org/2000/svg" xmlns:xlink="http://www.w3.org/1999/xlink" x="0px" y="0px"
	 viewBox="0 0 612 792" style="enable-background:new 0 0 612 792;" xml:space="preserve">
<g>
	<path d="M805.4,305c0-4.5,0-4.5-4.5-4.5c-0.5,0-1,0-1.5,0c-17.8,0-36,0-53.8,0c-2.1,0-4.3-0.1-6.4,0c-1.4,0.1-2.6,1.2-2.6,2.6
		c-0.1,4,0,8,0,12c0,3.3-0.1,3.3-3.4,3.4c-0.5,0-1,0-1.5,0c-61,0-121.9,0-183,0c-0.8,0-1.5,0-2.3,0c-2.4-0.1-2.5-0.2-2.6-2.7
		c-0.1-3.6,0-7.3,0-10.9c0-5.2,0-5.2-5.2-5.2c-30.8,0-61.5,0-92.3,0c-0.8,0-1.5,0-2.2,0c-2.5,0.2-3,0.6-3,3.2c-0.1,3.5,0,6.9,0,10.4
		c0,2.8-2.3,5.1-5.1,5.1c-58.9,0-117.8,0-176.7,0c-5.4,0-5,0.3-5-5.2c0-35.6,0-71.3,0-106.9c0-4.9,0-4.9-5.1-5c-0.8,0-1.5,0-2.3,0
		H125.1c-41.2,0-82.4,0-123.5,0c-1,0-2,0-3,0c-1.5-0.1-2.8-1.3-2.8-2.9c-0.1-5.4,0-10.7,0-16.1c0-3.5-0.1-3.6-3.6-3.6
		c-31.5,0-63.1,0-94.6,0c-3.7,0-3.9,0.3-4,4.2c0,4.9,0,9.8,0,14.6c0,3.7,0,3.7-3.8,3.7c-0.3,0-0.5,0-0.8,0c-60.3,0-120.7,0-181,0
		c-0.9,0-1.8,0-2.6,0c-1.3,0-1.8-0.7-1.8-1.9c0-1.5,0-3,0-4.4c0.1-3.6,0.1-7.2,0-10.7c-0.1-5.3,0.5-5.4-3.5-5.5c-0.3,0-0.5,0-0.8,0
		c-21,0-42.1,0-63.1,0c-0.8,0-1.5,0-2.3,0c-1.2,0-1.8,0.7-1.8,1.9c0,1,0,2,0,3c0,17.9,0,35.8,0,53.7c0,43.8,0,87.6,0,131.4
		c0,4.5,0,4.5,4.6,4.5c0.1,0,0.7,0,0.7,0h61.1c0.7-0.2,1.5-0.2,2.2-0.3c2.4-0.2,2.9-0.6,3-2.9c0.1-3,0-6,0-9c0-5.8-0.5-5.3,5.2-5.3
		c60,0,120,0,180,0c0.9,0,1.8,0,2.6,0c2.4,0.1,2.6,0.2,2.6,2.6c0.1,3.7,0,7.5,0,11.2c0,5.2,4.9,5.6,4.9,5.6s61.5,0,91.9,0
		c0.6,0,1.2,0,1.9,0c2.9-0.1,3-0.2,3-3c0.1-3.6,0-7.2,0-10.8c0-5.9-0.4-4.7,7-4.9c58.8-1.6,117.6-1.1,176.5,0
		c6.9,0.1,6.5-0.8,6.5,4.9c0,42.5,0,85,0,127.5c0,1,0,2,0,3c0.1,2.8,0.2,2.9,3,3c5.5,0.1,11,0,16.5,0c15,0,29.9,0,44.9,0
		c3.7,0,3.7,0,3.7-3.8c0-4.6,0-9.2,0-13.8c0-4,0-4,4.2-4.1c0.4,0,0.7,0,1.1,0c59.6,0,119.2,0,179.1,0c0.8,0,1.5,0,2.3,0
		c2.8,0.1,2.9,0.2,2.9,3.1c0,5.5,0,11,0,16.5c0,3.3,0.4,3.7,3.7,3.7c31.7,0,63.4,0,95.1,0c3.3,0,3.4-0.1,3.4-3.4
		c0-5.6,0-11.3,0-16.9c0-2.9,0.1-2.9,3-3c0.5,0,1,0,1.5,0c60.7,0,121.3,0,182,0c0.9,0,1.8,0,2.6,0c1.2,0,1.8,0.6,1.8,1.9
		c0,1.5,0.1,3.1,0,4.6c-0.1,3-0.1,6,0,8.9c0.3,6.3-0.7,6.3,3.5,6.4c0.3,0,0.5,0,0.8,0c20.1,0,40.1,0,60.2,0c0.8,0,1.5,0,2.3,0
		c1.2,0,1.8-0.7,1.8-1.9c0-1,0-2,0-3c0-18.2,0-36.3,0-54.5C805.4,392.3,805.4,348.6,805.4,305z M191.7,336.6c-1,0.4-1.7,0.3-1.8-0.9
		c-0.1-0.9,0-1.7,0-2.6c0-1.2,0.7-1.7,1.9-1.8c2.7-0.3,3.4,0,4.1,2.2c0.6-0.4,0.7-1,0.9-1.6c0.6-1.5,0.2-2.3-1.7-2.2
		c-0.3,0-0.6,0-1,0c-4.6-0.2-4.1,0.3-4.3-4.7c0-0.3,0-0.6,0-0.9c0.2-4-0.2-4.2,3.2-4.2c9.5,0,19,0,28.6,0c0.9,0,1.8,0,2.6,0
		c2.6-0.1,3.2-0.6,2.9-3.1c-0.3-1.8,0.9-3.4,0.5-5.2c-1.2,1.4-1.4,3.2-2,4.8c-1.2,3.4-4,1.6-13.4,0.1c-5.2-0.8-10.5-0.4-15.5,1
		c-5.1,1.4-6.9,1-6.7-1.7c0-0.7,0-1.5,0-2.3c0-34.5,0-69,0-103.6c0-5-0.1-4.6,4.8-4.6c17.2,0,34.4,0,51.6,0c0.8,0,1.5,0,2.3,0
		c1.5-0.1,2.4,0.6,2.3,2.2c0,0.8,0,1.5,0,2.3c0,34.6,0,69.3,0,103.9c0,0.3,0,0.5,0,0.8c0,3.8,0,3.8-3.7,3.8c-1.4,0-2.8-0.1-4.1,0
		c-1.9,0.2-2.7-0.8-3.1-2.5c-0.6-2.5-0.3-5-0.3-7.5c0-4.8,0.2-5.7-5.7-3.7c-0.4,0.2-0.8,0.6-1.2,0.9c4.5-0.7,4.5-0.7,4.5,4.1
		c0,2.6,0.1,5.2,0.6,7.8c0.5,2.3,1.5,2.6,4,2.3c0.9-0.1,1.8-0.1,2.7-0.1c6,0.4,6.1-0.5,6.3,3c0,0.4,0,0.8,0,1.1c0,5.4,0,5.4-5.2,5.8
		c-2.2,0.2-2.2,0.2-1.6,2.3c0.6-0.8,1.5-0.8,2.4-0.7c1.5,0.1,3,0.2,4.5,0.2c0.8,0,2-0.7,2.5-0.3c0.9,0.7,0.4,2.1,0.4,3.2
		c0,2.6,0,5.2,0,7.9c0,1-0.5,1.9-1.6,1.5c-1.8-0.6-3.7-0.5-5.6-0.5c-1.5,0-1.9-1-1.9-2.2c-0.6,0.3-0.8,0.9-1.1,1.5
		c-0.6,1.4-0.2,2.2,1.4,2.3c0.3,0,0.5,0,0.8,0c5,0.3,5,0.3,5,5.2c0,45.6,0,91.1,0,136.7c0,5.5,0.3,5-5.2,5c-16.9,0-33.9,0-50.8,0
		c-0.8,0-1.5,0-2.3,0c-2.5-0.1-2.6-0.2-2.7-2.9c0-0.6,0-1.3,0-1.9c0-45.7,0-91.4,0-137.1c0-0.4,0-0.8,0-1.1c0-3.8,0-3.8,3.7-3.9
		c1.2,0,2.9,0.6,3.4-0.7c0.4-1.3-0.2-3-1.8-3.8c-0.3,1,1.6,2.5-0.8,2.9c-2.6,0.5-4.1-0.1-4.4-1.5c-0.5-2,0.1-3,2.2-3.7
		c1.3-1.4,3.6-2.1,3.8-4.5C194.2,334.2,193.4,336,191.7,336.6z M252.6,346.7c1.4,0.1,0.8,1.8,1,2.8c0,0.5,0,1-0.1,1.5
		c-0.1,0.6-0.4,1.2-1.2,1.1c-0.6-0.1-0.8-0.5-0.9-1c-0.1-0.5-0.2-1-0.1-1.5C251.5,348.4,250.7,346.6,252.6,346.7z M189.1,325.5
		c-0.3,1.3,0.5,3.2-1.2,3.2c-1.7,0-1.1-1.9-1.1-3c0-1.1-0.6-3,1.1-3C189.7,322.6,188.6,324.6,189.1,325.5z M168.9,321.5
		c-0.8,0-1.6-0.1-1.7-1.1c0-1,0.9-1.1,1.6-1.1c5.1,0,10.2,0,15.3,0c0.7,0,1.5,0.3,2.2,0.5c0.7,0.2,1.8,0.2,1.6,1.1
		c-0.1,0.9-1.2,0.5-1.9,0.5c-2.7,0-5.5,0-8.2,0v0C174.8,321.5,171.9,321.5,168.9,321.5z M122.3,207.2c0-4.2,0-4.2,4.1-4.2
		c19.2,0,38.5,0,57.7,0c0.7,0,1.5,0,2.2,0c1.2,0,1.9,0.6,1.9,1.8c0,1,0,2,0,3c0,35.2,0,70.5,0,105.7c0,1.5,0.9,3.2-0.8,4.4
		c-1.1-1.3-0.6-2.8-0.6-4.2c0-34.7,0-69.5,0-104.2c0-5.4,0.3-5-5.2-5c-17.4,0-34.7,0-52.1,0c-1,0-2,0-3,0c-1.4,0-2.1,0.7-2,2.1
		c0,0.9,0,1.7,0,2.6c0,35.1,0,70.2,0,105.3c0,4.7,0,4.7,4.7,4.7c5,0,10,0,15,0c0.9,0,1.7,0,2.6,0.2c0.3,0,0.6,0.5,0.7,0.8
		c0.1,0.6-0.2,1-0.7,1.1c-0.9,0.1-1.7,0.2-2.6,0.2c-5.9,0-11.7,0-17.6,0c-4.2,0-4.2,0-4.2-4.1c0-18.5,0-37,0-55.5
		C122.3,243.7,122.3,225.5,122.3,207.2z M121.3,320.4c0,0.7-0.6,1-1.3,1.1c-2.6,0-5.2,0-7.8,0c-2.6,0-5.2,0-7.8,0
		c-0.7,0-1.3-0.3-1.3-1c0-0.7,0.6-1,1.3-1.1c5.2,0,10.4,0,15.6,0C120.7,319.4,121.3,319.7,121.3,320.4z M57.8,208.7
		c0-0.7,0-1.5,0-2.2c0.1-3.3,0.1-3.4,3.4-3.4c19,0,38,0,57,0c0.7,0,1.5,0,2.2,0.1c0.3,0,0.8,0.3,0.6,0.8c-0.1,0.2-0.3,0.4-0.5,0.4
		c-2,0.2-4,0.2-6,0c-15.2-1.7-30.5-2-45.6,0c-1.9,0.2-3.8,0.1-5.7,0.2c-3.5,0.1-3.8,0.4-3.8,3.9c0,15.1,0,30.2,0,45.4
		c0,20.1,0,40.2,0,60.4c0,0.6,0,1.3,0,1.9c0.1,3.1,0.2,3.2,3.2,3.2c5.7,0,11.5,0,17.2,0c1.1,0,3.1-0.7,3.1,0.9c0,2-2.1,1.2-3.3,1.2
		c-6,0.1-12,0.1-18,0c-3.7,0-3.8,0-3.8-3.7c0-18.5,0-37,0-55.5C57.8,244.4,57.8,226.6,57.8,208.7z M57.2,320.4c0,1-0.8,1.1-1.6,1.1
		c-2.6,0-5.2,0-7.8,0c0,0,0,0,0,0c-2.5,0-5,0-7.4,0c-0.7,0-1.3-0.2-1.3-1c0-0.8,0.6-1.1,1.2-1.1c5.2,0,10.4,0,15.6,0
		C56.5,319.4,57.2,319.6,57.2,320.4z M-2.1,203c7.1,0,14.2,0,21.4,0c11.5,0,23,0,34.5,0c0.9,0,2.6-0.4,2.6,0.6
		c0,1.5-1.8,0.9-2.7,0.9c-18,0-36,0-54,0c-5.2,0-4.9-0.3-4.9,4.9v104.9c0,0.4,0,0.7,0,1.1c0,3.8,0,3.8,3.7,3.8c5.2,0,10.5,0,15.7,0
		c0.7,0,1.5,0,2.2,0c0.8,0,2-0.1,2,1.1c0,1.2-1.2,1-2.1,1c-6.9,0-13.7,0-20.6,0c-1.7,0-2.6-0.6-2.5-2.4c0.1-1,0-2,0.5-3v-54
		c-0.5-18.1-0.5-36.2-0.5-54.3C-6.7,202.9-7,203-2.1,203z M-104.9,183.4c0-3.5,0-3.6,3.5-3.6c13.6,0,27.2,0,40.9,0.7l5.6,0h44.6
		c1-0.7,2-0.7,3-0.7c1.4,0,2.1,0.6,2.1,2c0,6,0,12,0,18c0,0.5,0,1.1-0.7,1.1c-0.7,0-0.7-0.6-0.7-1.1c0-4.1,0-8.2-0.1-12.4
		c0-1.1,0.1-2.3,0-3.4c-0.2-2.3-0.6-2.7-3-2.9c-0.7,0-1.5,0-2.2,0.2h-86.2c-0.6-0.2-1.3-0.3-1.9-0.2c-3,0.1-3.4,0.5-3.4,3.6
		c-0.1,4.4,0,8.7,0,13.1c0,0.9-0.1,1.7-0.2,2.6c0,0.2-0.3,0.4-0.5,0.4c-0.2,0-0.5-0.2-0.5-0.4c-0.1-0.7-0.2-1.5-0.2-2.2
		C-104.9,193.4-105,188.4-104.9,183.4z M-26.5,312.5c-11.6-1.1-8.7,2.1-9.6-8c0-0.2,0-0.4,0-0.5c0.5-1.9-0.2-3.2-1.7-2.9
		c-1.8,0.3-3.8,0.3-4.9,2.2c5.2-1.4,5.1-1.4,5.3,4c0.1,2.2-0.8,4.4,0.4,6.5c0.5,0.8-0.3,1.4-1.2,1.4c-2.5,0.1-5,0.1-7.5,0
		c-0.7,0-0.9-0.4-1-1.2c-0.3-2-0.2-3.9,0.7-5.8c0.4-0.9,1-1.7,1-2.8c-2,1-2,3-2.7,4.7c-0.8,1.8-2.7,2.6-4.5,1.8
		c-0.7-0.3-0.9-0.8-0.9-1.5c0-1-0.1-2-0.1-3c0-40.1,0-80.2,0-120.3c0-5.1-0.3-4.8,5-4.8c11.7,0,23.5,0,35.2,0c0.7,0,1.5,0,2.2,0
		c2.3,0.1,2.4,0.3,2.6,2.7c0,0.7,0,1.5,0,2.2c0,40,0,79.9,0,119.9c0,6.8,0.6,4.1-11.5,5.1C-22,312.7-24.3,312.7-26.5,312.5z
		 M-8.5,314.4c0,0.3-0.3,0.8-0.6,0.8c-0.6,0.2-1.2,0.2-1.8,0.2c-7,0-13.9,0-20.9,0c-0.9,0-2.4,0.3-2.4-1.1c0-1.4,1.4-1.1,2.4-1.1
		c3.5,0,7,0,10.5,0c3.4,0,6.7,0,10.1,0c0.7,0,1.5,0.1,2.2,0.2C-8.8,313.6-8.5,314.1-8.5,314.4z M-63.2,304c-0.1-2.9-0.7-3.1-3.8-1.9
		c1.3,0,2.1,0.3,2.2,1.9c0.2,3.5-0.4,7,0.4,10.4c0.2,0.8-0.5,1.1-1.1,1.1c-3,0.1-5.9,0-8.9,0c0,0-0.1,0-0.1-0.1c0-2-0.1-3.9-0.1-5.9
		c-2.3,4.6-1,2-15.4,3.5c-0.2,0-0.5,0-0.7,0c-12.1-1.5-12.3,1.1-12.4-3.7c0-8.2,0-16.5,0-24.7c0-32.4,0-64.7,0-97.1
		c0-4.7,0-4.7,4.7-4.7c12.1,0,24.2,0,36.4,0c0.9,0,1.7,0,2.6,0c1.4,0,2,0.7,2,2.1c0,0.9,0,1.7,0,2.6c0,40.1,0,80.2,0,120.3
		c0,0.5,0,1,0,1.5c-0.1,3-0.3,3.2-3.2,3.1c-2.4-0.1-2.6-0.2-2.7-2.5C-63.2,308-63.1,306-63.2,304z M-76.7,314.4
		c0,0.3-0.3,0.8-0.6,0.8c-0.6,0.2-1.2,0.2-1.8,0.2c-7,0-13.9,0-20.9,0c-0.9,0-2.4,0.3-2.4-1.1c0-1.4,1.4-1.1,2.4-1.1
		c3.5,0,7,0,10.5,0c3.4,0,6.7,0,10.1,0c0.7,0,1.5,0.1,2.2,0.2C-77,313.6-76.7,314.1-76.7,314.4z M-61,313.4c2,0,4,0,5.9,0
		c1.7,0,3.5,0,5.2,0c0.6,0,0.9,0.4,0.9,1c0,0.5-0.4,1-0.9,1c-3.7,0-7.4,0-11.1,0c-0.6,0-0.9-0.4-0.9-1
		C-61.9,313.9-61.6,313.5-61,313.4z M-56.2,286.3c0-13.1,0-26.2,0-39.3c0-20.1,0-40.2,0-60.3c0-1.2,0.1-2.5,0.2-3.7
		c0-0.2,0.5-0.6,0.8-0.6c0.3,0,0.7,0.3,0.8,0.6c0.1,1.2,0.2,2.5,0.2,3.7c0,35,0,69.9,0,104.9c0,5.5,0,11,0,16.5c0,0.6,0,1.3,0,1.9
		c-0.1,0.9,0.3,2.4-1,2.4c-1.2,0-1-1.4-1-2.4C-56.2,302-56.2,294.1-56.2,286.3z M-170.4,207.8c0-0.4,0-0.7,0-1.1
		c0.1-4.6,0.1-2.9,8.9-3.6c16.6-1.1,33.2-1.2,49.8,0c8.4,0.6,8.5-1.1,8.5,3.9c0,18.5,0,37,0,55.5h0c0,18,0,36,0,54
		c0,0.9,0,1.8,0,2.6c-0.1,2.4-0.2,2.5-2.7,2.6c-5.5,0.1-11.1,0-16.6,0c-0.3,0-0.5,0-0.8,0c-0.8-0.1-1.6-0.2-1.5-1.2
		c0.1-0.8,0.8-0.9,1.4-0.9c3.6-0.1,7.2,0,10.8-0.2c1.5-0.1,2.9,0,4.4,0.1c2,0.1,2.9-0.6,2.8-2.5c0-0.9,0-1.7,0-2.6c0-35,0-70,0-105
		c0-4.7,0-4.7-4.7-4.7c-17.6,0-35.3,0-52.9,0c-0.9,0-1.8,0-2.7,0c-1.4,0-2.5,1.2-2.5,2.6c0,0.7,0,1.5,0,2.2c0,35.1,0,70.2,0,105.3
		c0,0.2,0,0.5,0,0.7c0,3.7,0,3.8,3.8,3.8c5.7,0,11.3,0,17,0c0.9,0,2.4-0.3,2.4,1.1c0,1.4-1.5,1.1-2.4,1.1c-6.7,0-13.3,0-20,0
		c-2.8,0-2.9-0.1-2.9-3.1c0-18.2,0-36.5,0-54.7c0-0.9,0-1.9,0.4-2.6c0.7-1.2,1.3-2.1,0.2-3.3c-0.1-0.1-0.2-0.3-0.1-0.3
		c1.2-3.3-0.6-6.5-0.6-9.8C-170.3,234.5-170.4,221.2-170.4,207.8z M-234.2,207.7c0-0.9,0-1.7,0-2.6c0-1.4,0.7-2,2.1-2
		c0.6,0,1.2,0,1.9,0c18.6,0,37.2,0,55.8,0c1.1,0,3.2-0.6,3.2,0.7c0,1.4-2,0.7-3.1,0.7c-17.2,0-34.5,0-51.7,0c-1,0-2,0-3,0
		c-2.4,0.2-2.8,0.6-2.9,2.9c-0.1,0.7,0,1.5,0,2.2c0,35,0,69.9,0,104.9c0,2.6,2.1,4.7,4.7,4.7c5,0,10,0,15,0c0.9,0,1.7,0.1,2.6,0.2
		c0.3,0,0.7,0.3,0.7,0.7c0.1,0.6-0.2,1-0.8,1.1c-0.7,0.1-1.5,0.2-2.2,0.2c-6.2,0-12.5,0-18.7,0c-3.4,0-3.5-0.1-3.5-3.6
		c0-18.6,0-37.2,0-55.8C-234.2,243.9-234.2,225.8-234.2,207.7z M-294.8,203.1c1,0,2-0.1,3-0.1c8.7,0,17.5,0,26.2,0
		c8.5,0,17,0,25.4,0c1,0,2,0,3,0c0.5,0,1.2,0.1,1.2,0.6c0.1,0.9-0.8,0.8-1.3,0.8c-0.9,0.1-1.7,0-2.6,0c-13.3,0-26.7,0-40,0
		c-4.1,0-8.2,0-12.4,0c-0.9,0-1.7,0-2.6-0.1c-0.4,0-0.8-0.2-0.7-0.7C-295.6,203.3-295.2,203.1-294.8,203.1z M-296.2,325.3
		c0-2.9,0.1-3,3-3c6.1,0,12.2,0,18.4,0c3,0,2.9-0.1,3.8-2.9c0.6-2,0.3-4,0.4-6c0-0.9,0-1.8,0.7-2.4c-1-1-1.9-0.9-2.1,0.5
		c-0.3,1.5-0.2,3-0.1,4.5c0,1.7-0.5,2.6-2.4,2.5c-6.5,0-13,0-19.5,0c-1.4,0-2.1-0.6-2.1-2c0-1,0-2,0-3c0-34.2,0-68.4,0-102.7
		c0-5.2-0.3-4.8,4.9-4.8c17,0,34,0,51,0c0.7,0,1.5,0,2.2,0c1.7-0.1,2.6,0.6,2.5,2.4c0,0.9,0,1.7,0,2.6c0,34.2,0,68.4,0,102.7
		c0,5.2,0.4,4.8-4.9,4.8c-3.5,0-7,0-10.5,0c-4,0-4,0-4-3.8c0-0.2,0-0.5,0-0.7c-0.2-1.2,0.5-2.7-0.9-3.4c-1.4-0.6-2.6,0.1-3.6,1.2
		c1.9-0.1,2.3,1,2.3,2.6c-0.1,2.1,0,4.2,0.7,6.3c0.4,1.2,2.1,0.9,2.1,0.9s2.2,0,2.2,1h40.7c0.7-0.2,1.5-0.3,2.2-0.2
		c1.3,0,1.9-0.5,2.3-1.8c0.6-2,0.6-3.9,0.7-5.9c0-1.2-0.4-2.5,0.7-3.5c-1-1-1.9-0.9-2.1,0.5c-0.3,1.5-0.2,3-0.1,4.5
		c0,1.7-0.5,2.6-2.4,2.5c-6.5,0-13,0-19.5,0c-1.4,0-2.1-0.6-2.1-2c0-0.9,0-1.7,0.5-2.6V210.8c-0.5-4.9-0.8-4.8,4.2-4.8
		c17.1,0,34.2,0,51.3,0c0.9,0,1.7,0,2.6,0c1.4,0,2.1,0.6,2.1,2c0,0.6,0,1.2,0,1.9c0,13.2,0,26.5,0,39.7c0,1.1,0.1,2.1-0.5,2.9
		c0.1,0.5,0.1,1.1,0.1,1.7c0,0.2-0.1,0.4-0.1,0.6c0.1-0.1,0.1-0.1,0.2-0.2c0.1,0.2,0.1,0.4,0.2,0.6c0,0.1-0.1,0.2-0.2,0.3
		c-0.1-0.2-0.1-0.4-0.1-0.6c-0.1,0.5-0.1,1.1-0.2,1.6c0,0.3-0.1,0.7-0.1,1l-0.1,0.5c-0.1,0.9-0.2,1.8-0.4,2.7c1.4,0.8,1.3,2,1.3,3.4
		c0,9.4,0,18.7,0,28.1c0,7.6,0,15.2,0,22.9c0,3.3-0.1,3.3-3.4,3.3c-4.2,0-8.5,0-12.7,0c-3.1,0-3.2-0.1-3.3-3.1c0-0.5,0-1,0-1.5
		c-0.1-1.2,0.5-2.7-0.9-3.4c-1.4-0.6-2.6,0.1-3.6,1.2c2.9-0.1,2.9-0.1,3,2.8c0,1.6-0.1,3.2,0.3,4.8c0.6,2.8,0.5,2.9,3.3,2.9
		c6.1,0,12.2,0,18.3,0c8.1,0,16.2,0,24.3,0c3,0,2.9-0.1,3.7-2.9c0.6-2,0.3-4,0.4-5.9c0-0.9,0-1.8,0.7-2.4c-1-1-1.9-0.9-2.1,0.5
		c-0.3,1.5-0.2,3-0.1,4.5c0,1.7-0.5,2.6-2.4,2.5c-6.5,0-13,0-19.5,0c-1.4,0-2.1-0.6-2.1-2c0-0.7-0.1-2.2-0.1-2.2s0-69.2,0-103.7
		c0-0.5,0-1,0-1.5c0.1-2.8,0.2-2.9,3.1-2.9c8,0,16,0,23.9,0c10,0,19.9,0,29.9,0c3.6,0,3.6,0,3.6,3.5c0,35.1,0,70.3,0,105.4
		c0,3.2-0.1,3.3-3.4,3.3c-4.2,0-8.5,0-12.7,0c-3.1,0-3.2-0.1-3.3-3.1c0-0.5,0-1,0-1.5c-0.1-1.2,0.5-2.7-0.9-3.4
		c-1.4-0.6-2.6,0.1-3.6,1.2c2.9-0.1,2.9-0.1,3,2.4c0,2,0,4,0.4,6c0.3,1.5,1,2.1,2.5,2.1c6.5,0,13,0,19.5,0c1.8,0,2.5-0.8,2.4-2.5
		c0-0.6,0-1.2,0.1-1.9c0.1-1.1,0.7-1.6,1.7-1.6c0.9,0,1.7,0,2.6,0c28.6,0,57.1,0,85.7,0c0.6,0,1.2,0,1.9,0c1.5-0.1,2.2,0.5,2.4,2.1
		c0.4,3.8,0.5,3.9,4.2,3.9c7,0,14,0,20.9,0c3.2,0,3.9-0.7,4-3.9c0.1-1.4,0-2.7,0-4.1c0-2.5,0-2.5,3-2.4c-0.5-0.8-1.3-1.1-2.2-1.3
		c-1.3-0.3-2.2,0.1-2.3,1.6c-0.1,1.4-0.1,2.7,0,4.1c0,1.5-0.5,2.3-2.1,2.3c-6.2,0-12.5,0-18.7,0c-1.5,0-2.4-0.6-2.3-2.2
		c0-0.7,0-1.5,0-2.2c0-34.4,0-68.8,0-103.2c0-4.6,0-4.6,4.4-4.6c17,0,33.9,0,50.9,0c0.6,0,1.2,0,1.9,0c2.4,0.1,2.6,0.2,2.7,2.5
		c0,0.1,0,0.2,0,0.4c0,13.8,0,27.7,0,41.5c0,1.5-0.3,2.4-1.8,2.6c0.1,0.4,0.2,0.9,0.2,1.4c0,0,0,0,0,0.1c0.1,0.5,0.2,1.1,0.3,1.6
		c0.1,0.4,0.1,0.7,0.1,1.1c0.1,0,0.2,0,0.3,0.1c-0.1,0.1-0.2,0.1-0.3,0.2c0,0.1,0,0.1,0,0.2c0.4,0.9,0.6,1.8,0.6,2.8
		c0,0.3,0,0.6-0.1,0.8c0.4,0.4,0.6,1.1,0.6,1.9c0,3.4,0,6.7,0,10.1c0,13.3,0,40.1,0,40.1s0.5,1.8,0.5,2.6c0.1,1.8-0.8,2.4-2.5,2.4
		c-4.7,0-9.5,0-14.2,0c-2.5,0-2.6-0.2-2.7-2.9c-0.1-1.4,0.1-2.8-0.2-4.1c-0.3-1.4-1.2-1.4-2.1-0.5c0.6,0.5,0.7,1.3,0.7,2
		c0,1.2,0,2.5,0,3.7c0.2,5,0.7,5.5,5.6,5.5c13.4,0,26.9,0,40.3,0c4.3,0,4.6-0.3,5.1-4.5c0.1-1.4,0-2.7,0.1-4.1
		c0.1-1.8,0.7-2.1,2.4-1.3c0.7,0.3,1.3,0.8,2,0.8c-0.3-0.7-0.8-1.4-1.4-1.7c-1.3-0.6-2.7-1.7-4.2-1c-1.5,0.7-1.1,2.4-1.1,3.7
		c-0.1,4.1-0.1,4.2-4.1,4.2c-5.4,0-10.7,0-16.1,0c-2.9,0-3-0.1-3-3c0-18,0-36,0-54c0-1,0.1-1.8,0.5-2.3c-0.3-0.7-0.5-1.4-0.5-2.2
		v-2.5c0-0.6,0.1-1.1,0.3-1.6c0.1-0.6,0.2-1.1,0.4-1.7c0-0.1,0-0.1,0.1-0.2c-0.5-0.4-0.8-1.1-0.8-2.1c0.3-7.5,0.1-15,0.1-22.5
		c0-5.6,0-11.2,0-16.9c0-3.5,0.1-3.5,3.6-3.5c15.1,0,30.2,0,45.4,0c2.6,0,5.2,0,7.9,0c3,0.1,3,0.1,3.1,3.3c0,0.5,0,1,0,1.5
		c0,34.4,0,68.7,0,103.1c0,4.9,0.1,4.6-4.8,4.6c-3.5,0-7,0-10.5,0c-4.2,0-4.2,0-4.2-4c0-1,0.1-2-0.1-3c-0.3-1.4-1.2-1.4-2.1-0.4
		c0.6,0.5,0.7,1.3,0.7,2c0,1.2,0,2.5,0,3.7c0.2,5,0.7,5.5,5.6,5.5c13.4,0,26.9,0,40.3,0c4.3,0,4.6-0.3,5.1-4.5
		c0.1-1.4,0-2.7,0.1-4.1c0.1-1.8,0.7-2.1,2.4-1.3c0.7,0.3,1.3,0.8,2,0.8c-0.3-0.7-0.8-1.4-1.4-1.7c-1.3-0.6-2.7-1.7-4.2-1
		c-1.5,0.7-1.1,2.4-1.1,3.7c-0.1,4.1-0.1,4.2-4.1,4.2c-5.4,0-10.7,0-16.1,0c-2.9,0-2.9-0.1-3-3c-0.1-2.9,0-5.7,0.5-8.6v-94.8
		c-0.5-0.7-0.5-1.5-0.5-2.2c0-3.7,0-3.8,3.7-3.8c17.6,0,35.2,0,52.9,0c4.1,0,4.1,0,4.1,4.2c0,32.9,0,65.7,0,98.6c0,2.5,0,5,0,7.5
		c0,1.6-0.7,2.2-2.3,2.2c-5,0-10,0-15,0c-1.6,0-2.2-0.8-2.2-2.3c0-1.1,0-2.3,0-3.4c-0.1-2.5-0.8-2.9-3-2.1c-0.6,0.2-1.1,0.5-1.5,1.1
		c1.5-0.1,2.3,0.6,2.3,2.2c0,2,0,3.9,0.5,5.9c0.5,1.9,1.3,2.4,3.1,2.4c4.5-0.1,9,0,13.5,0c0.9,0,1.7,0,2.6,0c1.4,0,2,0.8,2,2.1
		c0,1.1,0,2.3,0,3.4c0,1.3,0.1,2.5,1.5,3.1c1.2,0.5,1.5,1.5,1.5,2.7c0,2.7,0,5.5,0,8.2c0,0.9,0,2-1.2,1.9c-1.8-0.2-1.8,0.8-1.8,2
		c0,1.4,0,2.8,0,4.1c0,1.5-0.6,2.3-2.2,2.3c-1.1,0-2.2,0-3.4,0.3h-183c-5.7-0.3-5.7-0.3-5.7,5.2c0,3.4,0,6.8,0,10.1
		c0,3-0.1,3.1-3.2,3.1c-0.5,0-1,0-1.5,0c-28.1,0-56.2,0-84.4,0c-4.9,0-4.6,0.2-4.6-4.8c0-3.2,0-6.5,0-9.7c0-4.2,0-4.2-4.4-4.2
		c-0.7,0-1.5,0-2.2,0c-60.9,0-121.7,0-182.6,0c-5.2,0-5,0.4-5-4.8C-296.2,340.1-296.2,332.7-296.2,325.3z M-293.3,321.5
		c-0.8,0-1.8,0.2-1.9-0.9c-0.1-1.1,1-1,1.7-1.1c0.6,0,1.1,0,1.7,0c4.3,0,8.6,0,12.9,0c0.5,0,0.9,0,1.4,0c0.8,0.1,2.1-0.3,2.2,0.9
		c0.1,1.3-1.2,1-2.1,1.1c-1.8,0.2-3.7-0.4-5.3,1.1c-1.7-0.7-0.8-0.4-2.5-1.1l0,0C-287.9,321.5-290.6,321.5-293.3,321.5z
		 M-235.7,320.4c0,0.7-0.6,1-1.3,1c-5.2,0-10.4,0-15.6,0c-0.7,0-1.3-0.3-1.3-1c0-0.7,0.6-1,1.3-1c2.7,0,5.5,0,8.2,0c2.5,0,5,0,7.4,0
		C-236.3,319.4-235.7,319.7-235.7,320.4z M-171.3,259.5c-0.2,0-0.4,0-0.6,0.1c0-0.2,0-0.4,0.1-0.6c0,0,0.2-0.1,0.3,0
		C-171.3,259-171.2,259.2-171.3,259.5z M-171.2,320.4c0,0.7-0.6,1-1.3,1c-5.2,0-10.4,0-15.6,0c-0.7,0-1.3-0.3-1.3-1.1
		c0-0.7,0.6-1,1.3-1c2.6,0,5.2,0,7.8,0c2.6,0,5.2,0,7.8,0C-171.8,319.4-171.2,319.7-171.2,320.4z M84.3,320.1l0.2-0.3l0.1,0.3
		L84.3,320.1z M148.8,319.9l0.3,0l-0.2,0.3L148.8,319.9z M-297.2,331.4c0.1,3.1,0.1,6.2,0,9.4c-0.1,2.4-0.5,2.8-2.6,2.2
		c-1.4-0.3-2.7-0.4-4.1-0.4c-2.7-0.1-2.7-0.1-2.3-3c-1.8,0.7-1.5,2.4-1.7,3.9c-0.1,0.9,0.7,1.3,1.5,1.3c1.2,0.1,2.5,0.1,3.7,0.1
		c2.1-0.1,2.9,1,2.3,4c-1,5.4-1,10.9,0,16.3c0.5,3.1,0.1,4.6-2.2,4.5c-0.7,0-1.5,0-2.2,0c-18.1,0-36.2,0-54.4,0c-0.9,0-1.7,0-2.6,0
		c-1.1,0-2.1-0.9-2.1-2.1c0-0.9,0-1.7,0-2.6c0-59.1,0-118.2,0-177.3c0-2.6,2.1-4.7,4.7-4.7c18.1,0,36.2,0,54.4,0c0.9,0,1.7,0,2.6,0
		c1.4,0,2,0.7,2,2.1c0,0.7,0,1.5,0,2.2c0,45.6,0,91.2,0,136.8c0,0.7,0,1.5,0,2.2c0,1.4-0.7,2-2.1,2c-1.4,0-2.7,0-4.1,0
		c-1.6,0-1.8,0.7-1.4,2.2c0.5,1.9,1.3,3.6,3,4.6c1.7,1,0.8,1.9,0.2,3c0.6-0.2,1.2-0.3,1.8-0.5c0.9-0.4,1.8-0.8,2.7-1.2
		c-0.6-0.9-1.8-0.4-2.5-1c-0.7-0.5-1.5-0.9-2.1-1.5c-0.9-0.8-2-1.9-1.6-3.1c0.4-1.3,1.9-0.6,3-0.7c1.2-0.1,2.5,0,3.7-0.3
		C-297.4,329.1-297.3,329.2-297.2,331.4z M253.5,491.5c0,3-0.1,3.1-3.3,3.2c-13.5,0-27,0-40.5,0c-6.6,0-13.3,0-19.9,0
		c-2.9,0-3-0.1-3.1-3c0-1,0-2,0-3c0-42.3,0-83.8,0-126.1c0-0.8,0-1.5,0-2.3c0-4.6,0-4.6-4.5-4.6c-61,0-122,0-183,0
		c-4.6,0-4.6,0-4.6,4.5c0,3.9,0,7.9,0,11.8c0,2.5-0.2,2.6-2.6,2.7c-0.7,0-1.5,0-2.2,0c-30,0-60,0-90,0c-0.5,0-1,0-1.5,0
		c-3.3-0.1-3.3-0.1-3.4-3.4c0-4.3,0-8.6,0-12.9c0-2.4-0.2-2.5-2.6-2.6c-1-0.1-2,0-3,0c-30.5,0-61,0-91.5,0c-30.4,0-60.7,0-91.1,0
		c-1.4,0-3.1-0.5-4,0.1c-1.4,1-0.2,3.3-0.6,4.7c-0.6,2.4-0.6,4.9-0.1,7.3c0.6,2.8-0.1,4-2.3,3.9c-0.7,0-1.5,0-2.2,0
		c-19.9,0-39.7,0-59.6,0c-0.9,0-1.8,0-2.6,0c-1.4,0-2-0.8-2-2.1c0-0.9,0-1.8,0-2.6c0-60.9,0-121.8,0-182.6c0-4.9-0.1-4.6,4.8-4.6
		c19.8,0,39.5,0,59.2,0c0.9,0,1.8,0,2.6,0c1.5,0,2.4,0.6,2.3,2.2c0,0.9,0,1.7,0,2.6c0,45.9,0,91.7,0,137.6c0,1.3,0.9,3.6-0.8,3.8
		c-1,0.1-0.6-2.4-0.6-3.6c0-45.2,0-90.5,0-135.7c0-5.3,0-5.4-5.4-5.4c-18.4,0-36.7,0-55.1,0c-0.8,0-1.5,0-2.2,0
		c-2.6,0.1-3.1,0.5-3.2,3c0,0.7,0,1.5,0,2.2c0,59.5,0,119,0,178.5c0,5.2,0,5.2,5.2,5.2c18.7,0,37.5,0,56.2,0c0.3,0,0.5,0,0.8,0
		c3.8,0,3.8,0,3.8-3.7c0-5.5,0-11,0-16.5c0-0.9,0-1.8,0-2.6c0-0.6-0.1-1.5,0.8-1.4c0.7,0.1,0.6,1,0.7,1.5c0.2,1.8-0.9,4.2,0.6,5.3
		c1.1,0.8,3.4,0.1,5.1,0.1c61.1,0,122.2,0,183.4,0c5.7,0,5.2-0.4,5.2,5.3c0,3.4-0.1,6.8,0,10.1c0.1,2.8,0.5,3.2,3.3,3.3
		c1.9,0.1,3.7,0,5.6,0c27.2,0,54.5,0,81.7,0c0.9,0,1.8,0,2.6,0c3.3-0.1,3.3-0.1,3.4-3.4c0-4.2,0-8.4,0-12.5c0-2.9,0.1-2.9,3-3
		c1,0,2,0,3,0c60.2,0,120.5,0,180.7,0c0.8,0,1.5,0,2.2,0c3.6,0,4.8,0.8,4.5-4.2c0-0.4,0-0.8,0.1-1.1c0.1-0.7,0.4-1.3,1.1-1.2
		c0.8,0.1,0.9,0.7,1,1.4c0,1.1,0,2.3,0,3.4c0,45.7,0,91.5,0,137.2c0,5.5-0.4,5.2,5,5.2c17.4,0,34.7,0,52.1,0c0.6,0,1.3,0,1.9,0
		c3.1-0.1,3.2-0.2,3.2-3.2c0-4.2,0-8.4,0-12.5c0-1-0.5-2.8,0.9-2.9c1.9-0.1,1.2,1.8,1.2,2.9C253.6,482.1,253.6,486.8,253.5,491.5z
		 M314,472.1c-0.9,0.1-1.7,0.2-2.6,0.2c-18.7,0-37.5,0-56.2,0c-0.4,0-0.8,0-1.1,0c-2.5-0.1-2.6-0.2-2.7-2.9c0-0.9,0-1.7,0.4-2.6v-54
		v-54c-0.5-0.9-0.4-1.8-0.5-2.6c-0.1-1.5,0.5-2.4,2.1-2.3c6.6,0,13.2,0,19.9,0c0.1,0,0.3,0,0.4,0c0.4,0.1,1.1,0.1,1,0.8
		c0,0.2-0.5,0.5-0.8,0.5c-0.9,0.1-1.7,0.1-2.6,0.1c-4.7,0-9.5,0-14.2,0c-3.4,0-3.5,0.1-3.5,3.6c0,15.1,0,30.2,0.3,45.4V465
		c-0.3,1-0.3,2-0.3,3c0,1.4,0.7,2.1,2.1,2.1c1,0,2,0,3,0c17.4,0,34.7,0,52.1,0c1.1,0,2.2,0.1,3.4,0.2c0.3,0,0.7,0.3,0.7,0.8
		C314.8,471.6,314.6,472,314,472.1z M378.3,472.1c-0.9,0.1-1.7,0.1-2.6,0.1c-18.6,0-37.2,0-55.9,0c-4,0-4,0-4-3.9c0-12,0-24,0-36
		v-19.5c0-18.1,0-36.2,0-54.4c0-0.9,0-1.7,0-2.6c0-1.4,0.6-2.1,2-2.1c6.7,0,13.5,0,20.2,0c0.5,0,1.2,0.1,1.2,0.6
		c0,0.9-0.8,0.8-1.4,0.8c-4.7,0-9.5,0-14.2,0c-6.1,0-5.5-0.5-5.6,5.7c0,34.7,0,69.5,0,104.2c0,5.1-0.3,4.9,4.9,4.9
		c17.4,0,34.7,0,52.1,0c1.1,0,2.2,0,3.4,0.1c0.6,0,0.9,0.5,0.9,1C379.2,471.8,378.8,472.1,378.3,472.1z M374.2,469.5
		c-16.9,0-33.8,0-50.7,0c-0.6,0-1.3,0-1.9,0c-3.2-0.1-3.2-0.1-3.3-3.1c0-0.6,0-1.2,0-1.9c0-34.5,0-68.9,0-103.4
		c0-5.2-0.3-4.8,4.9-4.8c4.4,0,8.8,0,13.1,0c3.6,0,3.6,0,3.7,3.5c0,0.6,0,1.2,0,1.9c0.1,2.9,1.1,3.5,3.8,2.5
		c0.9-0.4,1.9-0.8,2.2-1.8c-4.5,1.4-4.5,1.4-4.5-3.2c0-0.7,0-1.5,0-2.2c-0.3-3.7-0.8-4.3-4.6-4.3c-13.7,0-27.5,0-41.2,0
		c-3.7,0-4.3,0.6-4.5,4.3c0,0.6,0,1.2,0,1.9c0,5,0,5-4.5,3.6c0.5,1.3,1.8,1.7,3,2.1c2.1,0.6,2.9-0.1,3.1-2.4
		c0.1-1.7-0.7-3.8,0.5-5.1c1.4-1.4,3.6-0.6,5.4-0.6c4.4-0.1,8.8-0.1,13.1,0c2.4,0,2.5,0.2,2.6,2.6c0,0.7,0,1.5,0,2.2
		c0,34.5,0,69,0,103.5c0,5.2,0.4,4.9-4.9,4.9c-17,0-34.1,0-51.1,0c-0.8,0-1.5,0-2.3,0c-2.3-0.1-2.4-0.2-2.5-2.7c0-0.7,0-1.5,0-2.2
		c0-34.5,0-69,0-103.5c0-4.9-0.3-4.8,4.6-4.8c4.8,0,9.5,0,14.3,0c2.6,0,2.7,0.2,2.8,2.8c0,1,0,2,0,3c0.1,2.2,1,2.9,3.1,2.3
		c1.6-0.5,2.8-1.5,4-2.7c1.5-1.6,1.5-1.6,3.4-0.1c-0.2-0.7-0.4-1.4-0.7-2.1c-0.4-1-0.8-2.1-1.1-3.1c-0.9,0.8-0.9,2-1.3,2.9
		c-0.9,1.9-2.3,3.2-4.2,4.1c-0.9,0.4-1.5,0-1.6-0.9c-0.1-1.2,0-2.5-0.1-3.7c0-1.1,0-2.3-0.2-3.3c-0.5-2.5-0.9-2.7-3.6-2.7
		c-4.8,0-9.5,0-14.3,0c-5.4,0-5.1,0.5-5.1-5c0-7.2,0-14.5,0-21.7c0-3.1,0.1-3.1,3.1-3.2c1,0,2,0,3,0c59.8,0,119.7,0,179.5,0
		c5.4,0,5.2,0.4,5.2-5c0-3.5,0-7,0-10.5c0-1.7,0.6-2.6,2.4-2.5c0.7,0,1.5,0,2.3,0c28.7,0,57.3,0,86,0c4.9,0,4.8-0.3,4.7,4.7
		c0,3.6,0,7.2,0,10.9c0,1.7,0.6,2.6,2.4,2.5c1.1,0,2.3,0,3.4,0c62,0,123.9,0,185.9,0c5.5,0,5.1-0.5,5.1,5c0,7,0,14,0,21
		c0,3.9,0,4-3.9,4c-18.8,0-37.6,0-56.3,0c-43.1,0-86.1,0-129.2,0c-0.6,0-1.3,0-1.9,0c-1.7-0.1-2.6,0.6-2.5,2.4c0,0.4,0,0.8,0,1.1
		c-0.2,2.3-0.3,2.4-2.7,2.5c-0.6,0-1.3,0-1.9,0c-10.8,0-21.6,0-32.5,0c-4,0.6-8.1,0.8-11.8,0H486c-0.9,0.3-2,0.4-3,0h-30.6
		c-0.5,0-1,0-1.5,0c-3-0.1-3-0.1-3.2-3.2c-0.2-2.7-0.3-2.8-2.8-2.8c-6.9-0.1-13.8,0-20.7,0c-1.8,0-2.6,0.5-3.1,2.4
		c-0.5,2.1-0.4,4.2-0.5,6.3c0,1.1,0.1,2.3-1.5,2.6c2.5,0.9,2.8,0.8,3-1.2c0.1-1.1,0-2.2,0-3.4c0.1-2.7,0.2-2.9,2.7-2.9
		c5.5-0.1,11,0,16.5,0c1.7,0,2.6,0.6,2.5,2.4c0,0.7,0,1.5,0,2.2c0,34.6,0,69.2,0,103.8c0,5.2,0.3,4.8-5,4.8c-17,0-34,0-51,0
		c-0.4,0-0.8,0-1.1,0c-3.6,0-3.6,0-3.7-3.5c0-0.5,0-1,0-1.5c0-34.5,0-68.9,0-103.4c0-5.2-0.3-4.8,4.9-4.8c4.4,0,8.8,0,13.1,0
		c3.6,0,3.6,0,3.7,3.5c0,0.6,0,1.2,0,1.9c0.1,2.9,1.1,3.5,3.8,2.5c0.9-0.4,1.9-0.8,2.2-1.8c-4.4,1.4-4.4,1.4-4.5-3.3
		c0-0.7,0-1.5,0-2.2c-0.3-3.7-0.8-4.2-4.6-4.2c-13.8,0-27.5,0-41.3,0c-3.4,0-3.4,0-4.2,3.3c-0.5,2-0.1,4-0.3,6
		c-0.1,1.7-0.7,2.1-2.1,1.2c-1.4-0.9-2.6-2-3.8-3c0.5,2.6,2.4,3.7,4.6,4.4c1.9,0.6,2.8-0.1,2.9-2.1c0.1-1.1,0-2.2,0-3.4
		c0.1-2.3,0.2-2.5,2.7-2.5c5.5-0.1,11,0,16.5,0c1.7,0,2.6,0.6,2.5,2.4c-0.1,1,0,2,0,3c0,34.3,0,68.7,0,103
		C379.2,469.9,379.5,469.5,374.2,469.5z M314.5,354.6c-0.1,0.6-0.7,0.6-1.2,0.6c-3,0-6,0-8.9,0c-2.9,0-5.7,0-8.6,0
		c-0.5,0-1.1,0-1.2-0.6c-0.1-0.7,0.5-0.8,1-0.8c6,0,11.9,0,17.9,0C313.9,353.9,314.6,353.9,314.5,354.6z M736.5,466.8
		c0.1,1.7-0.6,2.5-2.4,2.5c-18.6,0-37.2,0-55.9,0c-1.8,0-2.5-0.7-2.4-2.4c0-0.7,0-1.5,0-2.2c0-34.6,0-69.2,0-103.9
		c0-5-0.2-4.6,4.7-4.6c4.4,0,8.7,0,13.1,0c3.8,0,3.8,0,3.8,3.7c0,0.9,0,1.8,0,2.6c0.2,2,0.5,2.1,3,1.2c-1.3-0.2-1.4-1.1-1.5-2.2
		c-0.1-2.2,0.2-4.4-0.5-6.6c-0.4-1.1,0.4-1.6,1.4-1.6c4.1,0,8.2,0,12.3,0c0.8,0,1.6,0.2,1.3,1.3c-0.6,2.5-0.2,4.9-0.4,7.4
		c-0.1,1.4-0.7,1.8-1.9,1.1c-2.3-1.4-4.2-3.1-4.7-5.9c-0.1-0.3-0.3-0.7-0.4-1c-0.2,0.3-0.4,0.6-0.6,0.9c-0.4,0.9-0.7,1.9-0.6,2.9
		c1.1-0.6,1.5,0.2,2.1,0.9c1.3,1.6,2.7,3,4.7,3.5c2,0.5,2.8-0.1,2.9-2.1c0.1-1.4,0-2.7,0.1-4.1c0-1.2,0.7-1.8,1.9-1.8c6,0,12,0,18,0
		c1.3,0,1.8,0.7,1.8,1.9c0,0.7,0,1.5,0,2.2c0,34.9,0,69.7,0,104.6C736.5,465.5,736.5,466.1,736.5,466.8z M671.8,354.2
		c0,0.7-0.6,1-1.3,1c-5.1,0-10.2,0-15.3,0.1c-0.9,0-1.7,0-2.6-0.1c-0.7,0-1.3-0.3-1.3-1.1c0-0.7,0.6-1,1.3-1c3.1,0,6.2,0,9.3,0
		c2.9,0,5.7,0,8.6,0C671.2,353.1,671.8,353.4,671.8,354.2z M567.8,362.1c0.1,1.9,0.9,2.5,2.6,2.1c1.3-0.3,2.7-0.7,3.3-2.2
		c-3.7,1.1-3.7,1.1-3.7-3c0-1.4,0-2.7-0.4-4c-0.4-1.2,0.2-1.9,1.4-1.9c3.8,0,7.7,0,11.5,0c1.3,0,1.8,0.7,1.4,2
		c-0.7,1.9-0.3,3.9-0.4,5.9c-0.1,2.2-0.1,2.2-2.3,1.5c-0.5-0.2-1-0.2-1.4-0.4c0.5,1.3,1.8,1.7,2.9,2.1c2.1,0.6,2.9-0.1,3.1-2.4
		c0.1-1.7-0.7-3.8,0.5-5.1c1.4-1.5,3.7-0.5,5.6-0.6c1.8-0.1,3.6-0.3,5.4-0.2c9.4,0.5,9.4-1.1,9.4,4.2c0,9.9,0,19.7,0,29.6
		c0,2.6,0,5.2,0,7.9c0,0.8-0.1,1.5-0.6,2.1c0,0.3,0.1,0.6,0.1,0.9c0,0.1,0,0.1,0,0.2c0,0.3,0.1,0.7,0.1,1c0,0,0,0,0.1,0
		c0.1,0,0.1,0.2,0.2,0.3c0,0.3,0,0.4-0.2,0.5c0.1,1.2,0.1,2.3,0.1,3.5c0,0.8-0.2,1.6-0.5,2.2c0.6,0.5,0.8,1.1,0.8,1.9
		c0,0.7,0,1.5,0,2.2c0,17.4,0,34.7,0,52.1c0,0.1,0,0.2,0,0.4c0,4.4,0,4.4-4.2,4.4c-8.7,0-17.5,0-26.2,0c-8.5,0-17,0-25.5,0
		c-4,0-4,0-4-3.8c0-35.2,0-70.4,0-105.7c0-0.6,0-1.2,0-1.9c0-2.1,2-2.2,5.1-1c3.7,1.5,7.9,1.2,11.6-0.2c3-1.1,4.2-0.4,4.2,1.3
		C567.8,359.4,567.7,360.8,567.8,362.1z M568.1,354.6l0.2-0.3l0.1,0.3L568.1,354.6z M605.8,355.2c-3,0-6,0-8.9,0c-2.9,0-5.7,0-8.6,0
		c-0.8,0-1.6-0.2-1.4-1.2c0.1-0.8,0.8-0.9,1.4-0.9c5.8,0,11.7,0,17.5,0c0.7,0,1.6,0.2,1.4,1.2C607.2,355.1,606.4,355.2,605.8,355.2z
		 M496.8,427.7c0,20.1,0,40.2,0,60.3c0,1.2-0.1,2.5-0.3,3.7c0,0.2-0.6,0.6-0.9,0.5c-0.3,0-0.8-0.3-0.8-0.6c-0.2-0.8-0.2-1.7-0.2-2.6
		c0-41.2,0-82.4,0-123.7c0-0.4,0-0.8,0-1.1c0.1-0.8-0.1-2,1.1-2c1.1,0,1,1.1,1.1,1.9c0,0.2,0,0.4,0,0.7
		C496.8,385.9,496.8,406.8,496.8,427.7z M495.6,361.2c-1.5,0-3,0-4.4,0c-0.3,0-0.7-0.3-0.8-0.6c-0.2-0.5,0.3-0.7,0.6-0.7
		c3.2,0,6.4,0,9.6,0c0.3,0,0.8,0.2,0.6,0.7c-0.1,0.3-0.5,0.6-0.8,0.6C498.8,361.2,497.2,361.2,495.6,361.2z M447.8,488.1
		c0-40.2,0-80.4,0-120.7c0-0.7,0-1.5,0-2.2c-0.1-1.8,0.8-2.4,2.5-2.4c5.4,0,10.7,0,16.1,0c2.7,0,5.5,0,8.2,0c2.9,0.1,3,0.1,3.1,2.9
		c0,1.4,0,2.7,0,4.1c0.1,2.9,0.7,3.1,3.8,1.9c-1.2,0-2.2-0.3-2.2-1.9c0-0.2,0-0.5,0-0.7c-0.3-6.3,1-7.5,7.4-6.4
		c1.3,0.2,1.7,0.9,1.2,2.1c-0.4,1-1.1,2-1.1,3.1c1.5-0.7,1.9-2.2,2.3-3.7c0.4-1.8,1.7-1.6,2.9-1.5c1.3,0.1,1.5,1.1,1.5,2.1
		c0,0.7,0,1.5,0,2.2c0,40.2,0,80.4,0,120.7c0,4.6,0,4.6-4.4,4.6c-12.2,0-24.5,0-36.7,0c-0.7,0-1.5,0-2.2,0c-1.5,0.1-2.4-0.6-2.3-2.2
		C447.9,489.6,447.8,488.8,447.8,488.1z M475.1,359.8c0.6,0,1.4-0.1,1.5,0.6c0.1,0.9-0.8,0.8-1.3,0.8c-8.5,0-16.9,0-25.4,0
		c-0.4,0-0.7-0.1-1.1-0.2c-0.2-0.1-0.3-0.4-0.3-0.6c0-0.2,0.3-0.5,0.4-0.5c0.9-0.1,1.7-0.2,2.6-0.2c3.7,0,7.5,0,11.2,0v0
		C466.9,359.8,471,359.8,475.1,359.8z M478.9,360c0-1,0.9-1,1.7-1c1.8,0,3.7,0,5.5,0c1,0,2.1,0.2,2,1.6c-0.1,1.4-1.2,1.4-2.2,1.4
		c-0.7,0-1.5,0-2.2,0c0,0,0,0,0,0.1c-1.1-0.1-2.2,0-3.3-0.2C479.5,361.8,478.9,360.9,478.9,360z M497.8,365.6
		c0.1-2.4,2.3-3.7,4.3-2.5c0.8,0.4,0.8,1.2,0.8,1.9c0,1.6,0,3.3,0,4.9c0.1,2.9,0.7,3.1,3.8,2c-1.3,0-2-0.4-2.2-1.9
		c-0.8-6.5,0.2-7.6,6.7-7.2c1.7,0.1,2.3,0.6,1.6,2.3c-0.2,0.4-0.1,1-0.1,1.5c2.7-4,2.5-3.7,8.5-3.7c5.9,0,11.8,0,17.8,0
		c3.6,0,3.7,0,3.7,3.2c0,10.2,0,20.5,0,30.7c0,30.4,0,60.7,0,91.1c0,4.6,0,4.6-4.7,4.6c-11.9,0-23.7,0-35.6,0c-0.9,0-1.7,0-2.6,0
		c-1.4,0-2-0.7-2-2.1c0-0.9,0-1.7,0-2.6c0-40.1,0-80.2,0-120.3C497.8,366.8,497.8,366.2,497.8,365.6z M511.1,359.1
		c0.8,0,1.4,0.4,1.2,1.4c-0.1,0.7-0.1,1.5-1.2,1.5c-2.1,0-4.2,0-6.3-0.1c-1,0-1.6-0.9-1.6-1.8c-0.1-1.3,1.1-1,1.9-1.1
		c0.9-0.1,1.7,0,2.6,0v0C508.9,359.1,510,359,511.1,359.1z M540.7,361.3c-8,0-15.9,0-23.9,0c-0.5,0-1-0.1-1.5-0.2
		c-0.2,0-0.3-0.4-0.3-0.6c0-0.2,0.2-0.5,0.4-0.5c0.9-0.1,1.7-0.2,2.6-0.2c3.6,0,7.2,0,10.8,0v0c4,0,8,0,11.9,0
		c0.6,0,1.5-0.1,1.6,0.6C542.4,361.5,541.3,361.3,540.7,361.3z M379,354.4c0,0.9-0.8,0.8-1.4,0.8c-2.7,0-5.5,0-8.2,0
		c-2.7,0-5.5,0-8.2,0c-0.6,0-1.4,0.1-1.4-0.8c0-0.5,0.7-0.6,1.2-0.6c5.6,0,11.2,0,16.8,0C378.3,353.8,379,353.9,379,354.4z
		 M443.1,472.7c-19.9,0-39.8,0-59.7,0c-0.6,0-1.2,0-1.9,0c-1,0-1.9-0.9-1.9-1.9c0-0.9,0-1.7,0-2.6c0-36.8,0-73.6,0-110.3
		c0-0.8,0-1.5,0-2.3c-0.1-1.6,0.8-2.2,2.3-2.2c6.5,0,13.1,0,19.6,0c0.4,0,0.8,0,1.1,0.1c0.2,0.1,0.4,0.3,0.5,0.5
		c0.1,0.5-0.3,0.7-0.6,0.7c-1,0.1-2,0.1-3,0.1c-4.9,0-9.8,0-14.7,0c-2.8,0-2.9,0.2-3,3.1c0,1.4,0,2.8,0,4.2c0,34.5,0,69,0,103.5
		c0,5.2-0.3,4.9,4.9,4.9c17.6,0,35.3,0,52.9,0c0.4,0,0.8,0,1.1,0c3.8,0,3.8,0,3.8-3.8c0-36,0-72.1,0-108.1c0-0.1,0-0.3,0-0.4
		c-0.1-3.4-0.1-3.4-3.4-3.5c-4.3,0-8.6,0-12.8,0c-0.8,0-1.5,0.1-2.3,0c-0.8-0.1-2.2,0.4-2.1-0.8c0.1-1,1.5-0.6,2.3-0.6
		c1.4-0.1,2.8,0,4.2,0c3,0,6.1-0.1,9.1,0c7.1,0.1,7.1-0.7,7.1,4.5c0,15.4,0,30.7,0,46.1c0,3.1,0,6.3,0,9.4v53.3c0,0.8,0,1.5,0,2.3
		C446.8,472.7,446.8,472.7,443.1,472.7z M545.3,492.8c0,2.6-0.1,2.7-3,2.7c-8.7,0-17.5,0-26.2,0c-6.9,0-13.7,0-20.6,0h-43.8
		c-0.7,0-1.5,0-2.2,0c-3.7,0-3.8,0-3.8-3.4c0-4.7,0-9.3,0-14c0-0.7,0-1.4,0.1-2c0-0.3,0.2-0.7,0.7-0.5c0.2,0.1,0.4,0.3,0.4,0.5
		c0.1,0.8,0.1,1.6,0.1,2.4c0,3.6,0,7.3,0,10.9c0,4.2,0,4.2,4.4,4.2c13.4,0,26.7,0,40.1,0c15.4,0,30.7,0,46.1,0c0.9,0,1.7,0,2.6,0
		c3.1-0.1,3.5-0.4,3.5-3.1c0.1-4.1,0-8.2,0-12.3c0-0.9-0.3-2.4,0.6-2.4c1.5,0,0.8,1.6,0.9,2.5C545.3,483.1,545.3,487.9,545.3,492.8z
		 M606.3,472.1c-0.9,0.1-1.7,0.1-2.6,0.1c-18.6,0-37.2,0-55.8,0c-0.4,0-0.8,0-1.1,0c-2.8-0.1-2.9-0.2-2.9-3.1c0-7.6,0-15.2,0-22.9
		v-33.8l0,0v-54.6c0-0.7,0-1.5,0-2.2c0.1-2.4,0.2-2.5,2.7-2.6c6-0.1,12,0,18,0c0.4,0,0.8,0,1.1,0.1c0.7,0.1,1.2,0.4,1.1,1.2
		c-0.1,0.6-0.5,0.8-1,0.9c-1.2,0.1-2.5,0.1-3.7,0.1c-4.5,0-9,0-13.5,0c-2.6,0-3,0.5-3.2,3.1c-0.1,0.9-0.5,2.6-0.5,2.6v103.8
		c0,0,0.5,1,0.5,1.5c0,3.7,0,3.8,3.8,3.8c18,0,36,0,54,0c1.1,0,2.2,0,3.4,0.1c0.6,0,0.9,0.5,0.9,1
		C607.3,471.7,606.9,472.1,606.3,472.1z M669.3,472.2c-0.5,0.1-1,0-1.5,0.3h-54.7c-0.7-0.3-1.5-0.3-2.2-0.3
		c-1.7,0.1-2.6-0.6-2.5-2.4c0-0.7,0-1.5,0.5-2.2v-55.5c-0.5-18.3-0.5-36.6-0.5-54.9c0-4.2,0-4.2,4-4.2c5.5,0,11,0,16.5,0
		c0.9,0,2.4-0.3,2.4,1.1c0,1.4-1.4,1.1-2.4,1.1c-5,0-10,0-15,0c-3.8,0-4.1,0.3-4.1,4c0,17.7,0,35.5,0,53.2v51.7c0,0.9,0,1.8,0,2.6
		c0.1,2.7,0.5,3,3.1,3.2c0.9,0,1.7,0,2.6,0.5h51.3c0.9-0.5,1.8-0.5,2.6-0.5c0.9,0.1,2.4-0.3,2.3,1.2
		C671.6,472.6,670.2,472.1,669.3,472.2z M672,360.5c0,34.7,0,69.4,0,104.2c0,4.6,0,4.6-4.4,4.6c-17.4,0-34.7,0-52.1,0
		c-4.2,0-4.2,0-4.2-4c0-35,0-69.9,0-104.9c0-0.7,0-1.5,0-2.2c0-1.4,0.8-2,2.1-2c5.7,0,11.5,0,17.2,0c1.8,0,2.4,0.9,2.3,2.6
		c-0.1,1.2-0.1,2.5,0,3.7c0.2,2,0.5,2.1,3,1.2c-1.3-0.2-1.4-1.1-1.5-2.2c-0.1-2.2,0.2-4.4-0.5-6.6c-0.4-1.1,0.4-1.6,1.4-1.6
		c3.8,0,7.7,0,11.5,0c1.3,0,1.9,0.7,1.4,1.9c-0.7,1.9-0.3,3.9-0.4,5.9c-0.1,2.2-0.1,2.2-2.3,1.5c-0.5-0.2-1-0.2-1.4-0.4
		c0.5,1.2,1.5,1.6,2.6,2c2.3,0.8,3.2,0.1,3.4-2.3c0.1-1.7-0.7-3.8,0.5-5.1c1.4-1.4,3.6-0.6,5.4-0.6c4.4-0.1,8.7-0.1,13.1,0
		c2.4,0,2.5,0.2,2.7,2.6C672.1,359.3,672,359.9,672,360.5z M729.8,471.4c-15-6.5-31.9-5.3-47.3,0.2c-2.4,0.9-4.8,0.6-7.3,0.6
		c-1.4,0-2.1-0.7-2-2.1c0-0.9,0-1.7,0-2.6c0-36.6,0-73.2,0-109.9c0-4.8-0.4-4.6,4.8-4.6c5.2,0,10.5,0,15.7,0c0.9,0,2.4-0.3,2.4,1.1
		c0,1.4-1.4,1.1-2.3,1.1c-4.9,0-9.7,0-14.6,0c-3.7,0-3.7,0-3.7,3.8c0,25.2,0,50.5,0,75.7c0,10.2,0,20.5,0,30.7c0,1,0,2,0.1,3
		c0.1,0.8,0.7,1.4,1.4,1.5c0.9,0.1,1.7,0.1,2.6,0.1c18,0,36,0,54,0c0.6,0,1.3,0,1.9,0c1.5,0,2.4-0.6,2.3-2.2c0-0.7,0-1.5,0-2.2
		c0-35.2,0-70.5,0-105.7c0-4.6,0-4.6-4.4-4.6c-4.9,0-9.7,0-14.6,0c-0.9,0-2.4,0.3-2.4-1.1c0-1.4,1.4-1.1,2.4-1.1
		c6.1,0,12.2,0,18.4,0c2.8,0,2.9,0.1,2.9,3.1c0,8.6,0,17.2,0,25.9c0,10.2,0,20.5,0,30.7c0,18.1,0,36.2,0,54.4c0,1,0,2,0,3
		c0,1.4-0.6,2.1-2,2.1C735.1,472.2,732.4,472.5,729.8,471.4z M746.3,334c1.3-2.7,0.6-3.8-2.5-4c-0.5,0-1,0-1.5,0
		c-1.6,0.1-2.2-0.8-2.2-2.3c0-3.9,0-7.7,0-11.6c0-2.9,0-5.7,0-8.6c0.1-2.8,0.2-2.8,3-2.9c0.5,0,1,0,1.5,0c17.2,0,34.5,0,51.7,0
		c0.6,0,1.3,0,1.9,0c2.3,0.1,2.4,0.2,2.6,2.7c0,0.7,0,1.5,0,2.2c0,59,0,117.9,0,176.9c0,0.4,0,0.7,0,1.1c0,3.7,0,3.8-3.7,3.8
		c-17.7,0-35.5,0-53.2,0c-0.6,0-1.2,0-1.9,0c-1.2,0-1.9-0.6-1.9-1.8c0-1,0-2,0-3c0-45.6,0-91.2,0-136.8c0-0.4,0-0.7,0-1.1
		c0.1-3.3,0.1-3.3,3.3-3.5c0.5,0,1,0,1.5,0c2-0.2,2.1-0.5,1.2-3c-0.1,0.6-0.4,1.3-1.1,1.3c-2.2,0.2-4.5,0.3-6.7,0.5
		c-1,0.1-1.2-0.6-1.2-1.4c0-3,0-6,0-9c0-1.2,0.5-2.1,1.8-1.7c1.8,0.6,3.7,0.4,5.6,0.5c1,0.1,1.4,0.6,0.8,1.5c-0.7,1-1.4,2-2.2,3
		C744.9,336.7,745.7,335.4,746.3,334z M737.4,346.7c0.1-0.6,0.4-1.2,1.1-1.2c0.7,0.1,1,0.7,1,1.3c0,1.1,0,2.2,0,3.3
		c0,0.7-0.2,1.6-1.1,1.5c-1-0.1-1-1-1-1.7c0-0.5,0-1,0-1.5h0C737.4,347.9,737.3,347.3,737.4,346.7z M798.7,493.3
		c-18.7,0-37.5,0-56.2,0c-0.7,0-1.5,0-2.2,0c-2.7-0.1-2.9-0.2-2.9-2.7c-0.1-5,0-10,0-15c0-0.5,0-1,0.2-1.5c0.1-0.5,0.5-0.9,1.1-0.7
		c0.3,0.1,0.7,0.4,0.8,0.7c0.1,0.9,0.2,1.7,0.2,2.6c0,4,0,8,0,12c0,3,0.2,3.2,3.2,3.2c11.9,0,23.7,0,35.6,0c6.7,0,13.5,0,20.2,0
		c3,0,3.1-0.2,3.2-3.2c0-0.7,0-2.2,0-2.2s0-117.8,0-177.9c0-5.9,0-5.9-5.7-5.9c-17,0-34,0-51,0c-0.6,0-1.3,0-1.9,0
		c-3.3,0.1-3.7,0.4-3.7,3.7c0,6.2,0,12.4,0,18.6c0,1,0,2-0.1,3c0,0.6-0.4,0.9-1,1c-0.5,0-1-0.4-1-0.9c-0.1-1.3-0.1-2.5-0.1-3.8
		c-0.1-2.4-0.2-2.5-2.7-2.6c-1,0-2,0-3,0c-31,0-62,0-93,0c-30.7,0-61.5,0-92.2,0c-0.9,0-1.8,0-2.6,0c-2.9-0.1-2.9-0.1-3-3.1
		c-0.1-4.2,0-8.3,0-12.5c0-1.8-1.5-3.3-3.3-3.4c-0.7,0-1.5,0-2.3,0c-28.5,0-57,0-85.5,0c-0.6,0-1.3,0-1.9,0c-3.5,0.1-3.8,0.4-3.9,4
		c0,4.1,0,8.1,0,12.2c0,2.6-0.2,2.8-2.8,2.9c-1,0-2,0-3,0c-59.5,0-178.5,0-178.5,0h-1.9c-4.1,0-4.5-0.4-4.4,4.3c0,1,0.5,2.8-0.9,2.8
		c-1.9,0.1-1.2-1.8-1.2-2.9c0-23,0-46,0-69c0-15.6,0-31.2,0-46.9c0-1,0-2,0-3c-0.1-1.5-0.9-2.3-2.4-2.3c-1,0-2,0-3,0
		c-17.4,0-34.7,0-52.1,0c-1.2,0-3.3,0.5-3.3-0.6c0-1.5,2-0.8,3.1-0.8c18.6,0,37.2,0,55.9,0c4,0,4,0,4,4.2c0,35.6,0,71.2,0,106.9
		c0,5.7-0.4,5.2,5.3,5.2c59.2,0,118.5,0,177.7,0c5.7,0,5.2,0.5,5.3-5.3c0-3.4,0-6.8,0-10.1c0.1-2.4,0.2-2.5,2.6-2.6
		c0.7,0,2.2-0.8,2.2-0.8h90.7c0,0,1.3,0.7,1.9,0.8c2.8,0.1,2.9,0.2,3,3c0.1,4,0,8,0,12c0,2.8,0.2,2.9,3,3c0.7,0,1.5,0,2.2,0
		c61.5,0,123,0,184.5,0c5.7,0,5.2,0.5,5.3-5.2c0-3.4,0-6.7,0-10.1c0.1-2.4,0.2-2.6,2.6-2.6c4.1-0.1,8.2,0,12.4,0.2h46.5
		c0.7-0.2,1.5-0.2,2.2-0.2c2.8,0.1,2.9,0.1,3,3c0,0.7,0,1.5,0,2.2c0,60.5,0,121,0,181.5C804,493.8,804.5,493.3,798.7,493.3z"/>
	<polygon points="738.7,330 738.7,330.3 739,330.2 	"/>
	<path d="M-264.7,315.5c0.5,0,1,0,1.5,0c0,0.4,0.1,0.7,0,1.1c-0.1,0.9,0.3,2.4-1,2.4c-1.5-0.1-0.3-1.6-0.5-2.4
		C-264.8,316.3-264.7,315.9-264.7,315.5z"/>
	<path d="M92.3,315.5c0.5,0,1,0,1.5,0c0,0.4,0.1,0.7,0,1.1c-0.1,0.9,0.3,2.4-1,2.4c-1.5-0.1-0.3-1.6-0.5-2.4
		C92.2,316.3,92.3,315.9,92.3,315.5z"/>
	<path d="M156.8,315.5c0.5,0,1,0,1.5,0c0,0.4,0.1,0.7,0,1.1c-0.1,0.9,0.3,2.4-1,2.4c-1.5-0.1-0.3-1.6-0.5-2.4
		C156.7,316.3,156.8,315.9,156.8,315.5z"/>
	<path d="M-263.2,315.5c0.4-2.1,1.6-3.4,3.7-3.7C-260.4,313.3-261.6,314.6-263.2,315.5z"/>
	<path d="M-200.9,314.1c1.2,0.3,1.4,1.6,2.2,2.2c0,0.4,0.1,0.8,0,1.1c0,0.4,0,0.9-0.3,1c-0.4,0.3-0.5-0.2-0.6-0.5
		C-199.9,316.6-200.9,315.5-200.9,314.1z"/>
	<path d="M-136.4,314.1c1.2,0.3,1.4,1.6,2.2,2.2c0,0.5,0.1,1,0,1.4c0,0.3-0.3,0.6-0.4,0.9c-0.1-0.2-0.4-0.3-0.4-0.5
		C-135.3,316.7-136.4,315.5-136.4,314.1z"/>
	<path d="M27.8,316.3c0.9-0.6,1.1-1.9,2.2-2.2c0,1-0.5,1.9-1,2.7c-0.4,0.6,0,1.8-1.1,1.6C27.8,318.3,27.9,317,27.8,316.3z"/>
	<path d="M158.3,315.5c0.4-2.1,1.6-3.4,3.7-3.7C161.1,313.3,159.9,314.6,158.3,315.5z"/>
	<path d="M24.1,311.8c1.8,0.2,2.8,1.2,3,3C25.8,314.1,24.8,313.1,24.1,311.8z"/>
	<path d="M-133.4,314.8c0.2-1.8,1.2-2.8,3-3C-131.1,313.1-132.1,314.1-133.4,314.8z"/>
	<path d="M-197.9,314.8c0.2-1.8,1.2-2.8,3-3C-195.6,313.1-196.6,314.1-197.9,314.8z"/>
	<path d="M-269.9,311c1.3-0.1,2.4,0.1,3,1.5C-268.1,312.4-269.2,312-269.9,311z"/>
	<path d="M31.6,312.5c0.6-1.4,1.7-1.6,3-1.5C33.8,312,32.8,312.4,31.6,312.5z"/>
	<path d="M96.1,312.5c0.6-1.4,1.7-1.6,3-1.5C98.3,312,97.3,312.4,96.1,312.5z"/>
	<path d="M-205.4,311c1.3-0.1,2.4,0.1,3,1.5C-203.6,312.4-204.7,312-205.4,311z"/>
	<path d="M-140.9,311c1.3-0.1,2.4,0.1,3,1.5C-139.1,312.4-140.2,312-140.9,311z"/>
	<path d="M155.3,313.3c1,0.4,1.5,1.2,1.5,2.2C155.8,315.1,155.3,314.4,155.3,313.3z"/>
	<path d="M93.8,315.5c0-1.1,0.5-1.8,1.5-2.2C95.3,314.4,94.8,315.1,93.8,315.5z"/>
	<path d="M90.8,313.3c1,0.4,1.5,1.2,1.5,2.2C91.3,315.1,90.8,314.4,90.8,313.3z"/>
	<path d="M-266.2,313.3c1,0.4,1.5,1.2,1.5,2.2C-265.7,315.1-266.2,314.4-266.2,313.3z"/>
	<path d="M-137.9,312.5c0.9,0,1.4,0.5,1.5,1.5C-137.2,313.8-137.7,313.3-137.9,312.5z"/>
	<path d="M-202.4,312.5c0.9,0,1.4,0.5,1.5,1.5C-201.7,313.8-202.2,313.3-202.4,312.5z"/>
	<path d="M-198.7,316.3c0-0.6,0.1-1.2,0.7-1.5C-197.9,315.4-198.1,316-198.7,316.3z"/>
	<path d="M-134.2,316.3c0-0.6,0.1-1.2,0.7-1.5C-133.5,315.4-133.6,316-134.2,316.3z"/>
	<path d="M27.1,314.8c0.6,0.3,0.7,0.9,0.7,1.5C27.2,316,27.1,315.4,27.1,314.8z"/>
	<path d="M-266.9,312.5c0.2,0.2,0.5,0.5,0.7,0.7C-266.4,313-266.7,312.8-266.9,312.5z"/>
	<path d="M30.8,313.3c0.2-0.2,0.5-0.5,0.7-0.7C31.3,312.8,31.1,313,30.8,313.3z"/>
	<path d="M95.3,313.3c0.2-0.2,0.5-0.5,0.7-0.7C95.8,312.8,95.6,313,95.3,313.3z"/>
	<path d="M30.1,314c0.2-0.2,0.5-0.5,0.7-0.7C30.6,313.5,30.3,313.8,30.1,314z"/>
	<path d="M350.3,359.8c-0.7-0.2-1.2-0.4-1.7,0.4c-0.3,0.5-0.8,0.7-1.3,1.1c0.1-1.7,1.5-3,1.5-4.8c0-0.1,0.3-0.3,0.4-0.4
		c0.1,0.2,0.3,0.4,0.4,0.6C350,357.6,350.5,358.6,350.3,359.8z"/>
	<path d="M414.8,359.8c-0.7-0.3-1.2-0.4-1.7,0.4c-0.3,0.5-0.8,0.7-1.3,1.1c0.1-1.7,1.5-3,1.5-4.8c0-0.1,0.3-0.3,0.4-0.4
		c0.1,0.2,0.3,0.4,0.4,0.6C414.5,357.6,414.9,358.6,414.8,359.8z"/>
	<path d="M417.8,362.8c-1.8-0.2-2.8-1.2-3-3C416.1,360.5,417.1,361.5,417.8,362.8z"/>
	<path d="M419.3,363.5c-0.6,0-1.2-0.1-1.5-0.7C418.4,362.8,419,363,419.3,363.5z"/>
	<path d="M287.3,362c-0.2-0.2-0.5-0.5-0.7-0.7C286.8,361.5,287.1,361.8,287.3,362z"/>
	<path d="M347.3,361.3c-0.2,0.2-0.5,0.5-0.7,0.7C346.8,361.8,347.1,361.5,347.3,361.3z"/>
	<path d="M411.8,361.3c-0.2,0.2-0.5,0.5-0.7,0.7C411.3,361.8,411.6,361.5,411.8,361.3z"/>
	<path d="M-341.9,217.9c0,9.4,0,18.7,0,28.1c0,0.9,0,1.7,0,2.6c0,1.5-0.8,2.4-2.3,2.4c-5.1,0-10.2,0-15.3,0c-1.2,0-1.8-0.6-1.9-1.9
		c0-0.7,0-1.5,0-2.2c0-19.2,0-38.4,0-57.7c0-0.6,0-1.2,0-1.9c0-1.5,0.5-2.4,2.2-2.3c5.1,0,10.2,0,15.4,0c1.4,0,2,0.8,2,2.1
		c0,2.7,0,5.5,0,8.2C-341.9,202.9-341.9,210.4-341.9,217.9z M-352.2,210.6C-352.2,210.6-352.2,210.6-352.2,210.6c-1.9,0-3.7,0-5.6,0
		c-3.5,0.1-3.3,0.1-3.4,3.9c0,0.3,0,0.7,0,1c0.1,2.3,0.2,2.4,2.7,2.5c3.2,0.1,6.5,0,9.7,0c5,0,5.6-0.7,4.8-5.6
		c-0.2-1.2-0.8-1.8-1.9-1.8C-348,210.6-350.1,210.6-352.2,210.6z M-352.2,209.7C-352.2,209.7-352.2,209.7-352.2,209.7
		c1.7,0,3.5,0,5.2,0c3.7,0,3.7-0.1,3.7-3.8c0-0.2,0-0.5,0-0.7c-0.1-2.9-0.2-2.8-3.5-2.9c-3.1,0-6.2,0-9.3,0c-4.5,0-4.5-0.2-4.5,3.8
		c0,0.4,0,0.7,0,1.1c-0.1,1.7,0.6,2.6,2.4,2.5C-356.2,209.7-354.2,209.7-352.2,209.7z M-352.2,193.2
		C-352.2,193.2-352.2,193.2-352.2,193.2c1.7,0,3.5,0.1,5.2,0c3.6-0.1,3.3-0.1,3.4-4.4c0,0,0,0,0-0.1c-0.2-3.8-0.1-2.7-7-3.1
		c-0.9-0.1-1.8-0.1-2.8,0c-7.4,0.4-7.4-0.8-7.5,3.5c0,0.7,0,1.5,0,2.2c0,1.2,0.7,1.8,1.9,1.8C-356.7,193.2-354.4,193.2-352.2,193.2z
		 M-352.2,234.6C-352.2,234.6-352.2,234.6-352.2,234.6c-2,0-4-0.1-6,0c-2.8,0.1-2.5,0.2-2.7,3.5c0,0.1,0,0.2,0,0.3
		c0.2,4.3-0.2,3.4,5.5,3.7c0.8,0,1.6,0,2.3,0c9.6-0.4,9.8,1.1,9.5-4.9c0-0.8,0-1.6-0.1-2.4c0-0.1-0.1-0.2-0.2-0.2
		C-346.6,234.6-349.4,234.6-352.2,234.6z M-352.4,225.5c2.2,0,4.5,0,6.7,0c1.6,0,2.3-0.7,2.3-2.2c0-0.6,0-1.2,0-1.9
		c-0.1-2.3-0.2-2.5-2.6-2.6c-3.9-0.1-7.7-0.1-11.6,0c-2.9,0-2.9,0.2-3,2.9c0,0.5,0,1,0,1.5c-0.1,1.6,0.7,2.2,2.3,2.2
		C-356.4,225.5-354.4,225.5-352.4,225.5z M-351.9,194.8c-2.1,0-4.2,0-6.3,0c-1.8-0.1-2.5,0.8-2.4,2.5c0,0.7,0,1.5,0,2.2
		c0,1.4,0.8,2,2.1,2c4.4,0,8.7,0,13.1,0c1.4,0,2-0.7,2-2.1c0-0.7,0-1.5,0-2.2c0.1-1.8-0.8-2.4-2.5-2.4
		C-347.9,194.8-349.9,194.8-351.9,194.8z M-352.2,249.5L-352.2,249.5c0-1.2,0.9-1.8,2-1.3c4.6,2,6.8,1.8,6.7-0.7c0-0.9,0-1.7,0-2.6
		c0-2-1.5-2.3-4.1-1.7c-3,0.7-6.1,0.8-9,0c-2.7-0.7-4.1-0.2-4.1,1.7c0,0.7,0,1.5,0,2.2c-0.1,1.8,0.8,2.5,2.5,2.4
		C-356.2,249.5-354.2,249.5-352.2,249.5z M-352.2,227.1C-352.2,227.1-352.2,227.1-352.2,227.1c-2.4,0-4.7,0-7.1,0
		c-1.2,0-1.8,0.6-1.9,1.8c0,0.7-0.1,1.5,0,2.2c0.1,2.4,0.2,2.5,2.7,2.6c3.9,0.1,7.8,0.1,11.7,0c2.6,0,2.7-0.2,2.8-2.6
		c0-0.6,0-1.2,0-1.9c0.1-1.6-0.7-2.2-2.3-2.2C-348.2,227.1-350.2,227.1-352.2,227.1z"/>
	<path d="M-337.5,216c0-6,0-12,0-18c0-1.7,0.3-3.4-0.9-5c-1-1.3,0.5-2.5,1.2-3.6c0.2-0.4,0.6-0.3,1-0.1c0.9,0.6,1.8,3.1,1.1,3.9
		c-1.1,1.4-0.8,2.8-0.8,4.3c0,12.2,0,24.4-0.1,36.7c0,1.2,0.8,3.3-0.9,3.4c-1.1,0.1-0.6-2.1-0.6-3.3
		C-337.5,228.2-337.5,222.1-337.5,216z"/>
	<path d="M-304.5,338c-0.3,0.7-0.8,1.2-1.5,1.5C-305.9,338.6-305.4,338.1-304.5,338z"/>
	<path d="M798.8,457.9c0,9.1,0,18.2,0,27.3c0,3.5-0.1,3.6-3.5,3.6c-4.2,0-8.5,0-12.7,0c-3.2,0-3.3-0.1-3.3-3.4c0-12.4,0-24.7,0-37.1
		c0-6.2,0-12.5,0-18.7c0-2.9,0.2-3,2.9-3.1c4.5-0.1,9-0.1,13.5,0c3,0,3.1,0.2,3.1,3.3C798.8,439.2,798.8,448.5,798.8,457.9z
		 M788.8,450.5L788.8,450.5c-1.9,0-3.7,0-5.6,0c-0.1,0-0.2,0-0.4,0c-3,0.1-3.1,0.2-3.1,3.3c0,0.2,0,0.5,0,0.7
		c0.1,2.6,0.2,2.6,3.2,2.6c3.8,0,7.6,0,11.3,0c3.2,0,3.3,0,3.4-2.9c0-0.5,0-1,0-1.5c0.1-2.6-1.9-3-7.1-1
		C789.6,452.2,788.8,451.6,788.8,450.5z M788.7,464.7c2.4,0,4.7,0,7.1,0c1.6,0,2.3-0.7,2.2-2.2c0-0.4,0-0.7,0-1.1
		c0-3.1-0.1-3.2-3.1-3.3c-4,0-8-0.1-11.9,0c-2.8,0-2.9,0.2-3,3c0,0.5,0,1,0,1.5c-0.1,1.6,0.8,2.2,2.3,2.2
		C784.5,464.7,786.6,464.7,788.7,464.7z M789.1,481.3c-2.1,0-4.2-0.1-6.3,0c-2.4,0.1-2.5,0.2-2.6,2.5c0,0.7,0,1.5,0,2.2
		c0,1.2,0.6,1.8,1.8,1.8c4.7,0,9.5,0,14.2,0c1.2,0,1.9-0.6,1.9-1.8c0-0.7,0.1-1.5,0-2.2c-0.1-2.4-0.2-2.5-2.6-2.6
		C793.3,481.3,791.2,481.3,789.1,481.3z M789,472.2c2.1,0,4.2,0.1,6.3,0c2.4-0.1,2.5-0.2,2.6-2.5c0-0.7,0-1.5,0-2.2
		c0-1.2-0.6-1.8-1.8-1.8c-4.7,0-9.4,0-14.2,0c-1.2,0-1.9,0.5-1.9,1.8c0,0.7-0.1,1.5,0,2.2c0.1,2.4,0.2,2.5,2.6,2.6
		C784.8,472.3,786.9,472.2,789,472.2z M788.8,441.5L788.8,441.5c0-1.2,0.9-1.8,2-1.4c4.6,1.8,7.2,2,7.2-0.6c0-0.7,0-1.4,0-2.1
		c0.1-1.4-1-2.6-2.4-2.6c-4.5,0.1-9,0-13.4,0c-1.4,0-2.1,0.6-2.1,2.1c0,0.7,0,1.3,0,2c-0.1,1.8,0.6,2.6,2.4,2.5
		C784.6,441.5,786.7,441.5,788.8,441.5z M788.8,434C788.8,434,788.8,434,788.8,434c2.4,0,4.7,0,7.1,0c1.4,0,2.1-0.5,2.1-2
		c0-0.7,0-1.5,0-2.2c0.1-1.7-0.6-2.5-2.4-2.5c-4.5,0.1-9,0-13.4,0c-1.3,0-2.1,0.6-2.1,2c0,0.7,0,1.5,0,2.2c-0.1,1.7,0.6,2.5,2.4,2.5
		C784.6,433.9,786.7,434,788.8,434z M789.1,443.1c-2.2,0-4.5-0.1-6.7,0c-2.1,0.1-2.3,0.4-2.3,2.9c0,2.5,0.2,3,2.2,3
		c4.5,0.1,9,0.1,13.4,0c2.1,0,2.3-0.4,2.3-2.9c0-2.5-0.2-2.9-2.2-3C793.6,443,791.4,443.1,789.1,443.1z M788.8,479.8
		c2.4,0,4.7,0,7.1,0c2,0,2.1-1.3,2.1-2.8c0-2.6-0.2-3.1-2-3.2c-4.6-0.1-9.2,0-13.8,0c-2,0-2.1,1.3-2.1,2.7c0,2.6,0.2,3.1,2,3.2
		C784.3,479.9,786.6,479.8,788.8,479.8z"/>
	<path d="M774.3,452.5c0,8.8,0,17.6,0,26.4c0,0.8,0.3,1.4,0.6,2c0.8,1.4,0.4,3.6-0.7,4.4c-0.3,0.2-0.7,0.2-1-0.1
		c-1-0.9-1.6-3.3-0.8-4.3c1-1.4,0.7-2.9,0.7-4.3c0-15.4,0-30.7,0-46.1c0-1-0.3-2,0.3-2.9c0.9,0.9,0.8,2,0.8,3.1
		C774.4,437.9,774.4,445.2,774.3,452.5C774.3,452.5,774.3,452.5,774.3,452.5z"/>
	<path d="M742.6,338c-0.5,0-1,0-1.5,0c-0.3,0-0.7,0-0.8-0.4c0-0.1,0.3-0.3,0.5-0.4c0.8-0.2,1.6-0.5,2.5-0.7
		C743.1,337,742.8,337.5,742.6,338z"/>
	<path d="M746.3,341.8c-0.6-0.3-0.7-0.9-0.7-1.5C746.2,340.6,746.3,341.2,746.3,341.8z"/>
	<path d="M744,338.8c-0.6,0-1.2-0.1-1.5-0.7C743.2,338,743.7,338.2,744,338.8z"/>
	<path d="M745.6,340.3c-0.2-0.2-0.5-0.5-0.7-0.7C745.1,339.8,745.3,340,745.6,340.3z"/>
	<path d="M744.8,339.5c-0.2-0.2-0.5-0.5-0.7-0.7C744.3,339,744.6,339.3,744.8,339.5z"/>
	<path d="M211.6,457.9c0,9.1,0,18.2,0,27.3c0,3.6-0.1,3.6-3.5,3.6c-4.2,0-8.5,0-12.7,0c-3.2,0-3.3-0.1-3.3-3.4c0-12.3,0-24.7,0-37
		c0-6.2,0-12.5,0-18.7c0-2.9,0.2-3,2.9-3.1c4.5-0.1,9-0.1,13.5,0c3,0,3.1,0.2,3.1,3.3C211.6,439.1,211.6,448.5,211.6,457.9z
		 M201.8,465.6C201.8,465.6,201.8,465.6,201.8,465.6c-2.2,0-4.5,0-6.7,0c-1.2,0-1.8,0.6-1.9,1.8c0,0.7-0.1,1.5,0,2.2
		c0.1,2.5,0.2,2.5,3.2,2.6c3.5,0,7,0,10.4,0c3.5,0,3.6,0,3.6-3c0-0.5,0-1,0-1.5c0.1-1.6-0.7-2.2-2.3-2.2
		C206,465.6,203.9,465.6,201.8,465.6z M201.5,481.3c-2,0-4-0.1-6,0c-2.5,0.1-2.6,0.2-2.7,2.5c0,0.7,0,1.5,0,2.2
		c0,1.2,0.6,1.9,1.8,1.9c4.5,0,9,0,13.4,0c1.4,0,2-0.8,1.9-2.1c0-0.6,0-1.2,0-1.9c-0.1-2.4-0.2-2.5-2.6-2.6
		C205.5,481.3,203.5,481.3,201.5,481.3z M200.8,433.6L200.8,433.6c1.2-0.8,1.1-0.7,2.4-1.5c4.3,2.1,6.5,2,6.6-0.3
		c0-0.7,0.1-1.5,0-2.2c-0.1-2.5-0.3-2.5-3.2-2.6c-3.6,0-7.1,0-10.7,0c-3.1,0-3.2,0.1-3.3,3c0,0.5,0,1,0,1.5
		c-0.1,1.6,0.7,2.2,2.3,2.2C196.8,433.5,198.8,433.6,200.8,433.6z M201.8,434.9c-2.2,0-4.5,0-6.7,0c-1.6,0-2.3,0.7-2.2,2.3
		c0,0.6,0,1.2,0,1.9c0.1,2.3,0.2,2.5,2.7,2.5c3.9,0.1,7.7,0.1,11.6,0c2.8,0,2.9-0.2,3-3c0-0.5,0-1,0-1.5c0.1-1.6-0.8-2.2-2.3-2.2
		C205.8,434.9,203.8,434.9,201.8,434.9z M201.8,450.6C201.8,450.6,201.8,450.6,201.8,450.6c-2.2,0-4.5,0-6.7,0
		c-1.2,0-1.8,0.6-1.9,1.8c0,0.7-0.1,1.5,0,2.2c0.1,2.4,0.2,2.5,2.7,2.6c3.9,0.1,7.8,0.1,11.7,0c2.5,0,2.6-0.2,2.8-2.6
		c0-0.6,0-1.2,0-1.9c0.1-1.6-0.7-2.2-2.3-2.2C206,450.6,203.9,450.6,201.8,450.6z M201.8,458.1C201.8,458.1,201.8,458.1,201.8,458.1
		c-2.2,0-4.5,0-6.7,0c-1.2,0-1.8,0.6-1.9,1.8c0,0.7-0.1,1.5,0,2.2c0.1,2.4,0.2,2.5,2.7,2.5c3.9,0.1,7.8,0.1,11.7,0
		c2.6,0,2.7-0.2,2.8-2.6c0-0.6,0-1.2,0-1.9c0.1-1.6-0.8-2.2-2.3-2.2C206,458.1,203.9,458.1,201.8,458.1z M201.4,479.8
		c2.1,0,4.2,0.1,6.4,0c2.1-0.1,2.3-0.4,2.3-2.9c0-2.5-0.2-3-2.2-3c-4.2-0.1-8.5-0.1-12.7,0c-2.1,0-2.3,0.4-2.3,2.9
		c0,2.5,0.2,2.9,2.2,3C197.2,479.9,199.3,479.8,201.4,479.8z M200.8,449C200.8,449,200.8,449,200.8,449c2.1,0,4.2,0.1,6.4,0
		c2.4-0.1,2.6-0.4,2.6-3c0-2.6-0.2-2.9-2.6-3c-3.7-0.1-7.5,0-11.2,0c-3.3,0-3.6,0.5-3.4,3.7c0.1,1.3,1.1,2.3,2.4,2.2
		C196.9,449,198.9,449,200.8,449z"/>
	<path d="M217.6,453.5c0,7.9,0,15.7,0,23.6c0,1.3-0.3,2.8,0.9,3.9c0.2,0.2,0.3,0.4,0.4,0.6c0.2,1.5-0.7,2.6-1.5,3.7
		c-0.4,0.6-1,0-1.1-0.4c-0.4-1.3-2.6-2.6-0.5-4.1c1.5-1.1,1-2.5,1-3.7c0-11.6,0-23.2,0-34.9c0-4.5,0-9,0-13.5c0-0.3,0.2-1,0.3-1
		c0.7,0.1,0.5,0.7,0.5,1.1C217.6,437,217.6,445.3,217.6,453.5C217.6,453.5,217.6,453.5,217.6,453.5z"/>
	<path d="M228.1,310.3c0.6-2.4,2.1-3.9,4.5-4.5C231.4,307.6,229.9,309.1,228.1,310.3z"/>
	<path d="M246.1,335.8c1.3,0,2.3,0.8,3.5,1.3c0.4,0.1,1.1,0,0.9,0.7c-0.1,0.2-0.9,0.2-1.4,0.3c-0.2,0-0.5,0-0.7,0
		C247.7,337.2,246.4,337,246.1,335.8z"/>
	<path d="M246.8,338.8c-0.5,1-1.2,1.8-2.2,2.2C244.7,339.6,245.4,338.9,246.8,338.8z"/>
	<path d="M243.8,332c1,0.8,1.4,1.8,1.5,3C243.9,334.5,243.7,333.3,243.8,332z"/>
	<path d="M227.3,311.8c0-0.6,0.1-1.2,0.7-1.5C228,310.9,227.9,311.5,227.3,311.8z"/>
	<path d="M248.3,338c-0.3,0.6-0.9,0.7-1.5,0.7C247.1,338.2,247.7,338,248.3,338z"/>
	<path d="M193.6,338.8c-0.6,0-1.2-0.1-1.5-0.7C192.7,338,193.2,338.2,193.6,338.8z"/>
	<path d="M195,340.3c-0.2-0.2-0.5-0.5-0.7-0.7C194.6,339.8,194.8,340,195,340.3z"/>
	<path d="M194.3,339.5c-0.2-0.2-0.5-0.5-0.7-0.7C193.8,339,194.1,339.3,194.3,339.5z"/>
	<path d="M245.3,335c0.2,0.2,0.5,0.5,0.7,0.7C245.8,335.5,245.6,335.3,245.3,335z"/>
	<path d="M702.1,362.8c0.7-1.3,1.7-2.3,3-3C704.8,361.6,703.8,362.6,702.1,362.8z"/>
	<path d="M700.6,363.5c0.3-0.6,0.9-0.7,1.5-0.7C701.7,363.4,701.2,363.5,700.6,363.5z"/>
	<path d="M640.6,359.8c0-0.4-0.1-0.7,0-1.1c0.3-0.9,0.4-2.5,1-2.5c0.9,0,0.5,1.6,1,2.4c0.5,0.8,1,1.7,1,2.7c-0.4-0.4-1-0.6-1.3-1.1
		C641.8,359.4,641.2,359.5,640.6,359.8z"/>
	<path d="M637.6,362.8c0.7-1.3,1.7-2.3,3-3C640.3,361.6,639.3,362.6,637.6,362.8z"/>
	<path d="M636.1,363.5c0.3-0.6,0.9-0.7,1.5-0.7C637.2,363.4,636.7,363.5,636.1,363.5z"/>
	<path d="M643.6,361.3c0.2,0.2,0.5,0.5,0.7,0.7C644.1,361.8,643.8,361.5,643.6,361.3z"/>
	<path d="M575.3,360.5c0.3-1.3,0.5-2.6,0.8-4c0.1-0.4,0.3-0.7,0.6-0.8c0.4-0.1,0.7,0.3,0.7,0.7c0.1,0.9,0.1,1.7,0.1,2.6
		C576.8,359.5,576.1,360,575.3,360.5z"/>
	<path d="M577.6,359c0.6,0.3,0.7,0.9,0.7,1.5C577.7,360.2,577.6,359.7,577.6,359z"/>
	<path d="M574.6,361.3c0.2-0.2,0.5-0.5,0.7-0.7C575.1,360.8,574.8,361,574.6,361.3z"/>
	<path d="M578.3,360.5c0.2,0.2,0.5,0.5,0.7,0.7C578.8,361,578.6,360.8,578.3,360.5z"/>
	<path d="M573.8,362c0.2-0.2,0.5-0.5,0.7-0.7C574.3,361.5,574.1,361.8,573.8,362z"/>
	<path d="M579.1,361.3c0.2,0.2,0.5,0.5,0.7,0.7C579.6,361.8,579.3,361.5,579.1,361.3z"/>
	<path d="M-73.5,247c0.5-0.8,1.4-1.3,2.2-1.2c2.5,0.6,4.9,0.3,7.4,0.5c1,0.1,1.6,0.6,1.6,1.6c0.1,1.2,0.1,2.5,0.1,3.7
		c-0.1,2.4-0.1,2.4-2.6,2.5c-1.8,0.1-3.7,0.6-5.5,0.6c-2.3,0.1-4.2-0.6-4.7-3.2l0.1-0.1l0.3,0l0.3,0l0.1,0.1l1,1
		c0.4,0.3,0.8,0.6,1.2,0.8c2,0.9,4.1,0.3,6.1-0.3c2.2-0.6,2.2-1,2.2-3.9c0-2.2-1.6-1.8-2.8-2.1c-0.3-0.1-0.8-0.1-1.1,0
		c-2.7,0.8,3.5,1.3-3.1,2.3c-0.7-0.3-1.3-0.6-2.1-0.9l0-0.1c0.3-0.3,0.9-0.8,0.8-1C-72.2,246.9-72.9,247.2-73.5,247L-73.5,247z"/>
	<path d="M-74.5,262.2c0.5-0.6,1.2-1.1,1.9-1c2.2,0.4,4.5,0.1,6.7,0.3c1.9,0.2,2,0.4,2,4.3c0,3.5-0.1,3.7-2.1,3.9
		c-1.9,0.1-3.7,0.1-5.6,0.2c-4.4,0.3-6-1.9-4.4-6.2l0.1,0.1c0,0.6,0.2,1.1,0.7,1.4c0,0.3,0,0.4,0,0.8c-0.6,0.5-0.7,1,0,1.5
		c0.3,0.2,0.5,0.5,0.8,0.7c2.7,1.4,5.6,0.5,8.4,0.6c0.7,0,1.1-0.5,1.2-1.2c0.1-0.7,0.1-1.5,0.1-2.2c0-2.7,0-2.8-2.5-3
		c-2.4-0.2-4.7,0-7.1-0.1L-74.5,262.2z"/>
	<path d="M-75,251.8c-1.3-1.6-0.8-2.8,0.7-3.8l0.2,0.1c0.3,0.5,0.8,0.6,1.4,0.6l0.1,0.1c-0.6,0.9-0.8,1.9-0.8,2.9
		c-0.2,0-0.4,0.1-0.7,0.1l-0.1-0.1c-0.1-0.5-0.1-0.9-0.2-1.4C-75.2,250.6-74.8,251.3-75,251.8L-75,251.8z"/>
	<path d="M-69.7,303.5c-0.7,1.3-1.7,2.3-3,3C-72.5,304.7-71.5,303.8-69.7,303.5z"/>
	<path d="M-72.7,306.5c-0.1,1.2-0.5,2.2-1.5,3C-74.3,308.3-74.1,307.1-72.7,306.5z"/>
	<path d="M-66.7,302c-0.8,1-1.8,1.4-3,1.5C-69.1,302.2-68,302-66.7,302z"/>
	<path d="M-75.8,263.7c0.1-0.9,0.6-1.4,1.5-1.5l0.1,0.1c0,0.2,0,0.5-0.1,0.7c-0.3,0.2-0.5,0.5-0.8,0.7c-0.2,0-0.5,0-0.7,0.1
		L-75.8,263.7z"/>
	<path d="M-74.3,248c0.3-0.2,0.5-0.5,0.8-0.7l0.1,0.1c-0.2,0.2-0.5,0.5-0.7,0.7L-74.3,248z"/>
	<path d="M488.3,412.5c0,0.6,0,1.2,0,1.9c0.1,1.8-0.4,2.5-2.4,1.9c-1.2-0.4-2.5-0.2-3.7,0.2c-0.3,0.1-0.7,0.2-1.1,0.3
		c-2.2,0.3-4.2-0.1-5.6-2.1c-1-1.5-1-3-0.1-4.5c1.3-2.1,3.3-2.6,5.5-2.2c2,0.4,3.8,0.9,5.9,0.3c1-0.3,1.3,0.4,1.4,1.3
		C488.3,410.6,488.3,411.5,488.3,412.5C488.3,412.5,488.3,412.5,488.3,412.5z M477.1,414.5c-0.1-0.1-0.2-0.1-0.2-0.2
		C476.9,414.4,477,414.5,477.1,414.5c0.4,0.5,0.9,0.7,1.5,0.7c0.2,0.2,0.3,0.4,0.5,0.5c0.3,0.2,0.8,0.3,0.9-0.1
		c0.1-0.4-0.4-0.3-0.7-0.4c-0.2,0-0.5,0-0.7,0C478.2,414.7,477.7,414.6,477.1,414.5z M477.1,410c0.5,0,1,0,1.5,0
		c-1.6,2.7-1.3,3.6,1.5,4.3c0.7,0.2,1.5,0.1,2.2,0.2c3.9,1.4,5.2,0.4,4.5-3.6c-0.2-1-0.7-1.6-1.7-1.6c-1,0-2-0.2-2.8,0.7
		c-1.2,0-2.5,0-3.7,0c0-0.3,0-0.5,0-0.8c0.2,0,0.5,0,0.7,0c0.3,0,0.8,0,0.7-0.4c-0.1-0.3-0.6-0.2-0.9-0.1c-0.2,0.1-0.3,0.3-0.5,0.5
		C478,409.3,477.4,409.5,477.1,410c-0.1,0.1-0.1,0.2-0.2,0.3C477,410.2,477,410.1,477.1,410z M475.9,412.1c0,0.1-0.1,0.2-0.1,0.2
		c0,0,0.1,0.1,0.2,0.1c0-0.1,0.1-0.2,0.1-0.2C476.1,412.2,475.9,412.1,475.9,412.1z"/>
	<path d="M475.5,430.3c-1.6-2-2-3.7-1-5.2c1.2-1.7,3-2.7,5.1-2.2c2,0.4,3.9,0.8,5.8,0.5c0.8-0.1,1.2,0.2,1.2,0.9
		c0,2.2,0,4.4-0.1,6.6c-0.1,0.8-0.8,0.7-1.4,0.2l0.1-0.1c1.3-1.7,0.7-3.6,0.6-5.4c-0.1-1.1-2.2-2-3.7-1.2c-1.4,0.7,0.5,1,0.6,1.7
		c0.2,1,0.5,1.9-0.5,2.7c-0.5-2.3-1.5-3.5-3-3.5c-1.5,0-2.5,1.2-3,3.5c-0.2,0-0.5,0-0.7,0c0-1,0-2,0-3c0.2-0.3,0.5-0.5,0.7-0.8
		c0.6-0.1,1.2-0.2,1.5-0.7c0.2,0,0.5,0,0.7,0c0.3,0,0.8,0,0.7-0.4c-0.1-0.3-0.6-0.2-0.9,0c-0.2,0.1-0.3,0.3-0.5,0.5
		c-0.6,0-1.1,0.2-1.5,0.7c-0.3,0.2-0.5,0.5-0.8,0.7c-1,1-1,2,0,3C475.6,429.3,475.6,429.8,475.5,430.3L475.5,430.3z"/>
	<path d="M485.3,431.1c-2.2,0.1-4.3,1-6.6,0.8c-1.3-0.1-2.5-0.2-3.2-1.5l0.1-0.1c0.5,0,1,0,1.5,0c1.7,1.3,3.5,0.8,5.2,0.4
		c1.1-0.3,2.1-0.7,3,0.3L485.3,431.1z"/>
	<path d="M484.6,370.3c0.5-1,1.2-1.8,2.2-2.2C486.7,369.5,486,370.2,484.6,370.3z"/>
	<path d="M481.6,371.8c0.7-1,1.8-1.4,3-1.5C484,371.6,482.9,371.9,481.6,371.8z"/>
	<path d="M513.8,415.3c-0.9,1.9-2.7,1.7-4.2,1.4c-1.8-0.4-3.6-0.8-5.5-0.3c-1,0.3-1.4-0.3-1.5-1.1c-0.1-2,0-4,0-6
		c0-0.7,0.4-1.3,1.2-1.1c2.3,0.8,4.4-0.1,6.6-0.3c1.8-0.2,3.6,0.2,4.6,1.9c1,1.6,1.1,3.3,0.1,4.9
		C514.8,415.1,514.3,415.2,513.8,415.3c0-0.3,0-0.5,0-0.8c0.1-0.1,0.1-0.2,0.2-0.3c0,0.1-0.1,0.2-0.1,0.3c-0.6,0-1.1,0.2-1.5,0.8
		c-0.2,0-0.5,0-0.7,0c-0.3,0-0.8,0-0.7,0.4c0.1,0.3,0.6,0.2,0.9,0.1c0.2-0.1,0.3-0.3,0.5-0.5C512.8,415.3,513.3,415.3,513.8,415.3z
		 M513.8,410c0.1,0.1,0.2,0.1,0.2,0.2C514,410.1,513.9,410.1,513.8,410c-0.4-0.5-0.9-0.7-1.5-0.7c-0.2-0.2-0.3-0.4-0.5-0.5
		c-0.3-0.2-0.8-0.3-0.9,0.1c-0.1,0.4,0.4,0.3,0.7,0.4c0.2,0,0.5,0,0.7,0C512.7,409.8,513.2,410,513.8,410z M508.6,410
		c-1.1-1.1-2.6-0.7-3.9-0.6c-0.5,0-1,0.3-1.1,0.8c-0.3,1.3-0.5,2.8,0,4c0.5,1.4,1.9,1.1,2.9,0.9c1.4-0.3,0.3-1,0.2-1.6
		C506,411.7,506.3,410.4,508.6,410c-0.4,1.1-2.1,2-0.6,3.5c1.3,1.2,2.7,1.1,4.1,0.3c0.2-0.1,0.4-0.2,0.6-0.4c1-0.8,1.1-1.6,0.1-2.4
		C511.5,410.2,510.1,410,508.6,410z"/>
	<path d="M503.4,431.1c-0.6,0.5-1.3,0.6-1.4-0.2c-0.2-2.2-0.1-4.5-0.1-6.7c0-0.9,0.7-0.9,1.3-0.8c1.9,0.3,3.7,0,5.5-0.5
		c2.1-0.5,4.8,0.7,5.4,2.4c0.7,1.8,0.9,3.7-1.1,5l-0.2-0.1c-0.5-0.7-1-0.6-1.4,0.1l0,0c-1.8-0.2-4,0.8-5.2-1.5
		c1.5,0.2,3,1.2,4.7,0.2c1.4-0.8,1.6-2,0.4-2.9c-0.9-0.7-1.8-1.1-3.1-0.6c-1.5,0.6-2,1.7-2,3.2c-1.2-1.3-0.8-2.4,0.3-3.5
		c0.2-0.2,0.6-0.4,0.2-0.8c-0.8-0.7-4.1,0.1-4.1,1.2c-0.1,1.8-0.7,3.7,0.6,5.4L503.4,431.1z M513.1,425.8c-0.3-0.2-0.5-0.5-0.8-0.7
		c-0.4-0.5-0.9-0.7-1.5-0.7c-0.2-0.2-0.3-0.4-0.5-0.5c-0.3-0.2-0.8-0.3-0.9,0.1c-0.1,0.4,0.4,0.3,0.7,0.4c0.2,0,0.5,0,0.7,0
		c0.3,0.6,0.9,0.7,1.5,0.8C512.6,425.3,512.8,425.5,513.1,425.8c0.1,0.3,0,0.7,0.4,0.8c0,0,0.1-0.2,0.1-0.3
		C513.4,426.1,513.2,426,513.1,425.8z"/>
	<path d="M513.1,430.4c-1.8,2.4-4.3,1.3-6.5,1.3c-1.1,0-2.1-0.7-3.3-0.6l-0.1-0.1c0.9-1,2-0.6,3-0.3c1.8,0.4,3.6,0.9,5.2-0.3
		c0,0,0,0,0,0c0.5,0,0.9,0,1.4-0.1L513.1,430.4z"/>
	<path d="M506.3,371.8c0.7-1,1.8-1.4,3-1.5C508.7,371.6,507.6,371.9,506.3,371.8z"/>
	<path d="M510.8,368.8c0-1.1,0.5-1.8,1.5-2.2C512.3,367.6,511.8,368.4,510.8,368.8z"/>
	<path d="M510.1,369.5c0.2-0.2,0.5-0.5,0.7-0.7C510.6,369,510.3,369.3,510.1,369.5z"/>
	<path d="M509.3,370.3c0.2-0.2,0.5-0.5,0.7-0.7C509.8,369.8,509.6,370,509.3,370.3z"/>
	<path d="M-32.9,248c2.2,3.7,0.8,6.5-3.4,6.9c-2.5,0.2-4.9-0.9-7.4-0.2c-0.7,0.2-1.1-0.5-1.2-1.1c-0.1-0.5-0.1-1-0.1-1.5
		c0-6.2-0.2-5.4,5-5.5c1,0,2,0,3-0.3c1.4-0.4,2.4,0,3.4,1l-0.1,0.1c-0.5,0.1-1.2-0.3-1.5,0.4c-0.1,0.2,0.5,0.7,0.8,0.8h-5.2
		c-0.2-0.3,1.8-0.7,0.1-1.2c-0.6-0.2-1.2,0-1.8,0.1c-2.7,0.3-2.7,0.3-2.7,3.1c0,2.8,0,2.8,3,2.7c0.5,0,1,0,1.5,0
		c1.7,1.1,3.5,1.1,5.2,0c0.3-0.2,0.5-0.5,0.8-0.7c0.1-0.1,0.1-0.2,0.2-0.2c-0.1,0.1-0.1,0.2-0.2,0.3c-0.2,0.3-0.5,0.5-0.7,1h-5.3
		c-0.4-1.5-2.5-2.4-0.7-4c0.3,1.8,1.3,2.9,3.2,2.9c2,0.1,3.2-0.9,3.6-2.9c0.5-0.4,0.7-0.9,0.7-1.5L-32.9,248z"/>
	<path d="M-35.1,269.1c-0.7,0.8-1.6,1-2.7,0.9c-2-0.2-4-0.2-5.9-0.3c-1.7,0-2.2-1.1-2-2.5c0.3-1.9-1.4-4.8,1.3-5.6
		c2.6-0.7,5.6-0.7,8.4-0.2c0.3,0,0.6,0.4,0.8,0.7l-0.1,0.1c-2.6,0.1-5.2,0.1-7.8,0.2c-1.3,0-2.1,0.5-1.9,2c0.1,0.7,0.1,1.5,0,2.2
		c-0.2,1.5,0.6,1.9,1.9,2.1c2.6,0.3,5.2,0.1,7.8,0.1L-35.1,269.1z"/>
	<path d="M-33.6,263.7c1,1.3,1,2.6,0,3.9l-0.1-0.1c-0.1-0.3-0.2-0.6-0.3-0.9c-0.1,0.3-0.2,0.6-0.3,0.9c0,0-0.1,0.1-0.1,0.1
		c-0.2,0.2-0.5,0.5-0.7,0.7l0,0c-1.6,0-3.2,0-4.8-0.1c-1.1-0.1-1.8-0.8-1.9-1.9c-0.1-1.2-0.1-2.3,1.4-2.5c-0.5,1.2-1.2,2.4,0.3,3.3
		c1.2,0.7,2.7,0.6,4,0c0.6-0.3,0.9-0.9,0.9-1.5c-0.1-0.8-0.6-1.5-1.3-1.6c-1.2-0.2-2.5-0.2-3.7-0.2c1.6-1.4,3.5-0.5,5.2-0.8l0,0
		c0.2,0.2,0.5,0.5,0.7,0.7l0,0c0.1,0.3,0.2,0.6,0.3,0.9c0.1-0.3,0.2-0.6,0.3-0.8L-33.6,263.7z"/>
	<path d="M-43.5,304.3c-0.3,0.7-0.7,1.2-1.5,1.5C-44.9,304.8-44.4,304.3-43.5,304.3z"/>
	<path d="M-33.6,267.6c-0.1,0.9-0.6,1.4-1.5,1.5l-0.1-0.1c0-0.2,0-0.4,0.1-0.7l0,0c0.2-0.2,0.5-0.5,0.7-0.7c0,0,0.1-0.1,0.1-0.1
		C-34.2,267.5-34,267.5-33.6,267.6L-33.6,267.6z"/>
	<path d="M-35.1,262.2c0.9,0.1,1.4,0.6,1.5,1.5l-0.1,0.1c-0.2,0-0.5,0-0.7,0l0,0c-0.2-0.2-0.5-0.5-0.7-0.7l0,0c0-0.2,0-0.5,0-0.7
		L-35.1,262.2z"/>
	<path d="M-33.6,247.2c0.2,0.2,0.5,0.5,0.7,0.7l-0.1,0.1c-0.2-0.2-0.5-0.5-0.7-0.7L-33.6,247.2z"/>
	<path d="M-42.7,303.5c-0.2,0.2-0.5,0.5-0.7,0.7C-43.2,304-42.9,303.8-42.7,303.5z"/>
	<path d="M-72.7,253.3c0-0.2,0-0.5,0-0.7c2.1,0.1,4.3,0.1,6-1.5c-0.1,1.5-1,2.2-2.4,2.2C-70.3,253.3-71.5,253.3-72.7,253.3z"/>
	<path d="M-66.7,251c-0.3-0.7-0.8-1.4-0.7-2.2C-66.6,249.3-65.4,249.8-66.7,251z"/>
	<path d="M-73.4,252.5c0-0.2,0-0.5,0-0.7c0.2,0.2,0.5,0.5,0.7,0.7l-0.4,0L-73.4,252.5z"/>
	<path d="M-74.2,268.3c-0.2-0.3-0.5-0.5-0.7-0.8c0-0.5,0-1,0-1.5c1.7,1.6,3.8,1.6,6,1.5C-70.5,269-72.4,268-74.2,268.3z"/>
	<path d="M-74.3,263c1.7,0.2,3.6-0.7,5.1,0.7c-2.1-0.1-4.3-0.1-6,1.5c0-0.5,0-1,0-1.5C-74.8,263.5-74.7,263.3-74.3,263z"/>
	<path d="M-68.9,267.5c0.8-1.2,0.8-2.5,0-3.7C-66.8,265.2-66.8,266.2-68.9,267.5z"/>
	<path d="M483.8,411.5c1.2,1.8,0,2.5-1.5,3C482.8,413.5,483.3,412.5,483.8,411.5z"/>
	<path d="M482.3,410c0.9,0,1.4,0.5,1.5,1.5C483.1,411.3,482.6,410.8,482.3,410z"/>
	<path d="M477.1,430.3c-0.2-0.5-0.5-1-0.7-1.5c2,0.7,4,0.7,6,0C481.1,431.1,478.9,430.1,477.1,430.3z"/>
	<path d="M-39.7,248.8c-0.2,0.2-0.5,0.5-0.7,0.7C-40.2,249.3-39.9,249-39.7,248.8z"/>
	<path d="M-34.4,248.8c0.2,0.2,0.5,0.5,0.7,0.7C-33.9,249.3-34.2,249-34.4,248.8z"/>
</g>
</svg>
