<svg id="Layer_1" data-name="Layer 1" xmlns="http://www.w3.org/2000/svg" viewBox="0 0 215.84 783.98">
    <defs>
        <style>.cls-1{fill:none;}</style>
    </defs>
    <title>gedung_e_v4</title>
    <path d="M77.8,484.66l.29-15.81c-.06,1.53-.32,2.21-1.2,2.52l-.31,10.17C77.69,481.87,77.8,482.54,77.8,484.66Z"
        transform="translate(18.55)" />
    <path d="M78.4,441.16V426.75a2.49,2.49,0,0,1-.2,1.11l-.32,10.54C78.34,438.84,78.4,439.61,78.4,441.16Z"
        transform="translate(18.55)" />
    <path
        d="M102.57,70.91a1.48,1.48,0,0,0,.09.51c0-3.09.07-6.19.1-9.29a1.44,1.44,0,0,0-.09.58C102.67,65.41,102.57,68.21,102.57,70.91Z"
        transform="translate(18.55)" />
    <path d="M76,515.08l-.42.07L75.3,524h.31A71.53,71.53,0,0,1,76,515.08Z" transform="translate(18.55)" />
    <path
        d="M101.57,156.52a1.16,1.16,0,0,0,.23.95c0-3,0-6,.07-9.07a1.23,1.23,0,0,0-.2.72C101.57,151.52,101.57,154,101.57,156.52Z"
        transform="translate(18.55)" />
    <path
        d="M196.14,1.9h-2c-12-.1-24-.2-35.9-.4C130,.6,101.05.3,72.39,0c-3,0-3,0-3,3V4c-.1,11.9-.2,24.1-.4,35.91,0,1.4-.1,2.9,0,4.3a2,2,0,0,0,1.7,1.8c2.61.1,5.32.1,7.92.1,2.21,0,2.21.1,2.21,2.3v1c-.4,40.8-.8,81.41-1.2,122.31v1.5c-.1,1.6-.1,1.7-1.81,1.7-2.41,0-4.81,0-7.22-.1-3.41,0-3.41,0-3.51,3.4-.2,20.61-.4,41.11-.6,61.71v1.5c.1,1.7.4,2,2.1,2,2.31.1,4.52,0,6.82.1a3.42,3.42,0,0,1,3.31,3.4c-.4,39.41-.8,78.71-1.2,118.12,0,3.6.2,3.3-3.51,3.3-23.47-.2-47-.5-70.5-.7-3.21,0-3.21,0-3.31,3.4v1.5l-.8,81.91c-.3,27.4-.5,54.9-.81,82.31v2a1.88,1.88,0,0,1-1.9,1.8c-3.51,0-7-.1-10.53-.1-2.31,0-2.31,0-2.41,2.4l-.6,63c0,2.5.2,2.6,2.71,2.7,3.21,0,6.42.1,9.53.1,2.4,0,2.4,0,2.4,2.6v.5l-1.2,120.61v1.7a1.06,1.06,0,0,1-.9,1.2H-7.53c-2.31-.1-4.72-.1-7-.1-3.51,0-3.51-.4-3.61,2.3v.5c-.1,14-.3,28-.4,42v1.5a1.06,1.06,0,0,0,.9,1.2,1.5,1.5,0,0,0,.3,0h2c11.74.1,23.37.2,35.11.4l85.84.9c2.91,0,2.91,0,3-3h.1a0,0,0,0,1,0-.05,3.38,3.38,0,0,1-.13-1.41c0-.3.06-.6.08-.9a7.89,7.89,0,0,0-.08-.85,4.24,4.24,0,0,1,.22-1.46v-2.54a5,5,0,0,1,.23-1.49c0-3.09.67-6.15.52-9.26a4.17,4.17,0,0,1,.07-.93c-.09-1.69-.11-3.38-.1-5.07-.31-4.75-.65-9.47.12-14.28a45.22,45.22,0,0,1-.18-5.46c-.27-.38-.73-.51-1.57-.57-2-.1-3.91,0-5.92-.1-3.81,0-3.51.3-3.51-3.5l1.2-120.31v-1.7c.1-1.6.1-1.7,1.71-1.7,2.41,0,4.91.1,7.42.1a3.58,3.58,0,0,0,3.71-3.2s.4-41.11.6-61.41v-1.3c0-1.9-.1-2-2-2-2.41-.1-4.72,0-7.12-.1-3.92,0-3.11.2-3.21-4.7-.71-39.31.1-78.61,1.2-117.92.1-4.6-.5-4.3,3.31-4.3l84,.9h2c1.8,0,1.9-.1,2-2,.1-3.7.1-7.3.1-11l.3-30c0-2.5,0-2.5-2.5-2.5-3,0-6-.1-9.13-.1-2.61,0-2.61,0-2.71-2.8v-.7c.4-39.81.8-79.61,1.2-119.72v-1.5c.11-1.9.21-1.9,2.11-1.9,3.61,0,7.22.1,10.83.1,2.21,0,2.41-.2,2.51-2.4q.3-31.8.6-63.51c0-2.2,0-2.3-2.21-2.3-3.71,0-7.42-.1-11.13-.1-1.9,0-1.9-.1-2-2v-1c.4-40.6.8-81,1.2-121.61v-1.7c0-.8.4-1.2,1.3-1.2h3c2,.1,3.91.1,5.92.1,4.11-.2,4.11.5,4.21-2.3v-.5c.1-13.41.3-26.81.4-40.21V3.1a1.06,1.06,0,0,0-.91-1.19A.87.87,0,0,0,196.14,1.9ZM-14.46,569.57c.1-7.8.2-15.7.2-23.5v-1.5c.1-1.5.2-1.6,1.8-1.7H-11c26.17.3,52.35.5,78.52.8,3,0,3.17-.17,3.17,2.22a4.88,4.88,0,0,1,.66,2.61,29.46,29.46,0,0,1-.3,3.75,11,11,0,0,1,0,3.75c-.71,6.82.85,6.11-3.37,6.28a5.22,5.22,0,0,1-2.16.5h-.63a5.12,5.12,0,0,1-1.17-.08.93.93,0,0,0-.19.85c.2,1.2.2,2.5,1.4,3.3-.9-3.5-.9-3.4,2.61-3.5,1.41-.1,2.91.6,4.21-.2.51-.3.91.2.91.8v5c0,.5-.3.6-.81.7a6.33,6.33,0,0,1-3.81-.5,3.91,3.91,0,0,0-1.8-.7c.6,1.3,1.9,1.4,3.11,1.8A2.12,2.12,0,0,1,70.57,573a1.23,1.23,0,0,1-.12.26.89.89,0,0,1-1,.6,13.35,13.35,0,0,1-2,0c-26.27-.3-52.55-.5-78.82-.8C-14.66,573-14.46,573.17-14.46,569.57Zm3.11,36.61c-3.11,0-3.11,0-3-3.2.1-8.1.2-16.21.2-24.31V577c0-.9.5-1.3,1.4-1.3H-11c26.27.3,52.55.5,78.82.8h1c2,.1,2.1.2,2,2.2-.1,1.6-.1,1.7-1.7,1.8-1.11,0-2.51-.1-3.81,0-1.91,0-2,.4-1.31,2.5,0-.9.2-1.4,1.31-1.5,2.3-.1,4.61.3,6.81-.2.51-.1.71.3.71.7,0,2,0,3.9-.1,5.91a.09.09,0,0,1-.09.09H68.68c3,1.61,1.3.71,2.2,10.31v.5c-1.1,8.1.6,8.2-2.51,8.3-5.41-.1-10.83-.1-16.14-.2Q20.34,606.58-11.35,606.18ZM98.54,739.06h.07l.49,0a8.91,8.91,0,0,1,4,.45,1.55,1.55,0,0,0,.6-.08c2-.3,3,0,2.9,1.5v1.5c-.1,12.11-.2,24.21-.4,36.31v1.7a1.43,1.43,0,0,1-1.4,1.4h-1.75l-116.13-1.2a3,3,0,0,1-3-3c0-.07,0-.14,0-.21.1-12.1.2-24.2.4-36.31v-1.7c0-.9.51-1.3,1.41-1.3h1.4l89.66.9h1.4c.9,0,1.31.5,1.31,1.4v2.7c0,1.1.4,1.2,1.4,1a4.24,4.24,0,0,0,3-2c.7-1.1,1.2-.5,2-.1l-.3-1.2c-.3-.6-.5-1.2-.8-1.8-.6.4-.3,1.2-.7,1.7a7,7,0,0,1-1,1.4c-.51.6-1.31,1.3-2,1s-.4-1.3-.4-2a20.89,20.89,0,0,0-.2-2.5c-.3-1.5-.2-1.5,1.2-1.6,2,0,4.11,0,6.12.1,1.6.1,1.8.4,1.4,1.8a12.28,12.28,0,0,0-.3,2.7c-.1,1.8-.1,1.8-2,1.5.4,1.2,1.6,1,2.5,1.2.61.1.91-.5.91-1a20.9,20.9,0,0,0,.1-2.5c-.1-1.35.66-1.85,2.43-1.52a5.81,5.81,0,0,1,2.93-1A4.36,4.36,0,0,1,98.54,739.06Zm8.24-194.89c1.91,0,2,.1,2,2.1v1l-.5,56.11a3,3,0,0,1-3,3h-.11l-6.32-.1c-2.71,0-2.71,0-2.81,2.9v1.5q-.6,60.75-1.2,121.41c0,3.5.2,3.3-3.11,3.3a75.21,75.21,0,0,0-13.74-.9c-1.9,0-1.9-.1-1.9-2,0-4.1.1-8.1.1-12.2,0-2,0-1.9-1.91-2.5a17.11,17.11,0,0,0-3.91-.3,1.85,1.85,0,0,1-1.6-.5c-.71.7-.61,1.3.3,1.4a9.41,9.41,0,0,0,2.9.1c1.51,0,2,.6,1.31,3.3,0,3.2-.1,6.2-.1,9.3.6,2.3.4,3.4-1,3.4H70.27c-22.26-.2-44.43-.5-66.79-.7-3.41,0-3.11.2-3.11-3.3l.3-33.9v-1.5c-.1-1.1.4-1.7,1.61-1.6H4c22.26.2,44.43.5,66.79.7,3.81,0,3-.3,3.11,4.7v4c-.1,4.3.4,4.3-2.51,4.3h-.5c-.8.1-1.7-.4-2.2.6a2,2,0,0,0,.8,2.4c-.1-1.3.7-1.5,1.7-1.5a11.41,11.41,0,0,0,4.11-.4c.81-.3.61-1.4.61-1.4s0-1.5.7-1.5l.3-25.8a3.8,3.8,0,0,1-.1-1.5,1.44,1.44,0,0,0-1.21-1.6,17.75,17.75,0,0,0-3.91-.5c-.8,0-1.6.3-2.3-.5-.7.7-.6,1.3.3,1.4a10.06,10.06,0,0,0,3,.1c1.5,0,2,.6,1.3,3.3-.1,3.1-.1,6.1-.2,9.2.7,2.4.5,3.6-1,3.6a2.71,2.71,0,0,1-1.71-.4L3.17,692c-3.21.3-3.21.5-3.11-2.8.1-11.5.2-22.91.3-34.41v-1.7c0-.9.4-1.4,1.3-1.4H2.87l26.07.3c.7,0,1.41-.1,1.91.4a3.7,3.7,0,0,1,1.1-.1c.1,0,.3.1.4.1l-.1-.1a.58.58,0,0,1,.4-.1c.1,0,.1.1.2.1a.63.63,0,0,1-.4.1,3.37,3.37,0,0,0,1,.1c.21,0,.51.1.71.1l.3.1a10.91,10.91,0,0,1,1.8.3c.5-.9,1.31-.9,2.21-.8,6.22.1,12.33.1,18.45.2,5,.1,10,.1,15,.2,2.21,0,2.21.1,2.11,2.3,0,2.8-.1,5.7-.1,8.5,0,2.1-.1,2.1-2.11,2.2h-1c-.8.1-1.8-.4-2.2.6a2,2,0,0,0,.8,2.41c0-1.91,0-1.91,1.9-2a10.82,10.82,0,0,0,3.11-.2c1.81-.4,1.91-.3,1.91-2.2,0-4.1.1-8.2.1-12.3.1-5.4.1-10.9.2-16.3,0-2,0-1.9-1.91-2.5a17.11,17.11,0,0,0-3.91-.3,1.85,1.85,0,0,1-1.6-.5c-.71.7-.6,1.3.3,1.4a10.06,10.06,0,0,0,3,.1c1.5,0,2,.6,1.3,3.3-.1,3.1-.1,6.1-.2,9.2.7,2.4.5,3.6-1,3.6-.5,0-1.41.1-1.41.1s-45.53-.5-68.19-.7H2c-1.8-.1-1.9-.2-1.9-2.1.1-5.4.1-10.7.2-16,.1-6.7.1-13.3.2-20.1,0-2.4,0-2.4,2.31-2.4,23.06.2,46.23.5,69.3.7,2.1,0,2.2.1,2.1,2.3,0,2.8-.1,5.7-.1,8.5,0,2.1-.1,2.1-2.11,2.2H71c-.8.1-1.8-.4-2.2.6a2,2,0,0,0,.8,2.4c0-1.9,0-1.9,1.6-2a26.74,26.74,0,0,0,4-.2,1.69,1.69,0,0,0,1.31-1.6l.1-13.1c0-1.2-.5-1.7-1.61-1.6a4.83,4.83,0,0,1-1.2-.1,1.06,1.06,0,0,1-1-1.11s0-.06,0-.09v-1.7l1.82-60.38h.07a10.39,10.39,0,0,1-.23-2,4.61,4.61,0,0,1,.27-1.56l.07-2.34A39.21,39.21,0,0,1,75,532.3l.25-8.31h-.18a24.32,24.32,0,0,0-2.7,0c-1.61,0-1.61,0-1.61-2a2.53,2.53,0,0,0-.9,1.5c-.2.9.1,1.5,1,1.6a12.28,12.28,0,0,0,2.71,0c1.2,0,1.7.5,1.4,2.3,0,2.16,0,4.32-.06,6.49l-.77,6.66a2.2,2.2,0,0,1-.57.05H72.14c-22.66-.2-45.22-.5-67.89-.7-3,0-3,0-3-3,.1-11.4.2-22.7.3-34.11v-1.3c.1-1.6.1-1.7,1.71-1.8h.3l27.28.3c1,0,1.6.2,1.7,1.2a2.74,2.74,0,0,1,.9-.1s.71.9,1,.8a2.08,2.08,0,0,1,.7-.1c0-.1,0-.1.1-.2.1.1.1.5.1.5h.1a5.85,5.85,0,0,1,1.81-.6.74.74,0,0,1,.5.1,1.6,1.6,0,0,1,1.2-.4c2.21,0,4.41,0,6.62.1l26.27.3a10.93,10.93,0,0,1,1.71-.3c1.2-.1,1.6.6,1.6,1.7,0,3.1-.1,6.3-.1,9.51,0,1.7-.1,1.7-1.9,1.8a24.55,24.55,0,0,0-2.71.1c-.9.2-.9.8-.3,1.4a1.66,1.66,0,0,1,1.3-.5h2.41a15.44,15.44,0,0,0,1.67-.12l1-33.61a10.64,10.64,0,0,0-1.69-.28c-.9-.1-1.8,0-2.71-.1-1.2-.1-1.4-.5-.8-1.6a4,4,0,0,0,.5-1.3,2,2,0,0,0-1.1.9c-.4.9-1.1,1.8-.7,2.8s1.6.8,2.41.8c2.7.1,2.7.1,2.7,2.8,0,3.6-.1,7.1-.1,10.8,0,1.9-.1,2-2,2-11.84-.1-23.57-.2-35.4-.4a2.83,2.83,0,0,1-1.51-.3c-.5.2-1.4-.3-1.4-.3H33.61a3.12,3.12,0,0,1-1-.2,4.17,4.17,0,0,1-1.1-.3c-.1,0-.1,0-.1-.1a1.84,1.84,0,0,1-1.41.5c-4.91-.3-9.72-.2-14.64-.2-3.61,0-7.32-.1-11-.1-2.31,0-2.31-.1-2.21-2.4.11-10,.21-20.1.31-30.2,0-1.7,0-3.5.1-5.3.1-2,.1-2,2.2-2h1c22.36.2,44.62.5,67,.7,3.51,0,2.9,0,2.9,4.2,0,1.7,0,3.3-.1,5-.1,3.8.21,3.8-2.6,3.8a12.18,12.18,0,0,0-1.91,0c-.9.2-.9.8-.3,1.4a1.55,1.55,0,0,1,1.3-.5h2.41a8.1,8.1,0,0,0,2.4-.29l1-33a4.38,4.38,0,0,0-2.39-.64c-.9-.1-1.8,0-2.7-.1-1.21-.1-1.41-.5-.81-1.6a4.3,4.3,0,0,0,.51-1.3,2,2,0,0,0-1.11.9c-.4.9-1.1,1.8-.7,2.8s1.5.7,2.41.8c2.71.1,2.71.1,2.71,2.8,0,3.6-.11,7.1-.11,10.7,0,1.9-.1,1.9-2,2a26.45,26.45,0,0,1-5.62-.4l-61.67-.6a2.56,2.56,0,0,1-1.41.3c-2.4,0-2.5,0-2.4-2.5l.3-35.11a2.77,2.77,0,0,1,2.81-2.7l64.08.7c1.6,0,3.21,0,4.91.1,1.31,0,1.61.7,1.31,2.4v8.8c.1,1.3-.41,1.8-1.51,1.8h-2.2c-1.61,0-1.91.5-1.41,2a1.67,1.67,0,0,0,.7,1c-.1-1,.4-1.5,1.41-1.5a16.21,16.21,0,0,0,3.81-.3,1.9,1.9,0,0,0,1.4-.89l.3-10.11V416c0-.87.48-1.26,1.33-1.29a4.55,4.55,0,0,1,4-2l1.5.06a3.18,3.18,0,0,1,.62-.06c1.81,0,3.61,0,5.32.1.47,0,1,0,1.16.39h.15a5.1,5.1,0,0,1,3.61,1.6h.29c1,0,1.51.4,1.51,1.5a9.38,9.38,0,0,0,.2,2.3L97,540.26c-.2,3.8-.2,3.8,3.31,3.8,2.19,0,4.4,0,6.5.11ZM35.48,652.38a.58.58,0,0,0,.1.4.63.63,0,0,1-.4-.1.13.13,0,0,1,0-.2h0c-.13-.1.1-.2.3-.1ZM73.77,543.9l-.28,2.47v-1.3A1.45,1.45,0,0,1,73.77,543.9ZM187.21,372c3.61,0,3.31-.2,3.21,3.5l-.3,33.9v1.5c-.1,1.7-.1,1.7-1.9,1.8h-1.17l-89.85-.9h-.71c-2.5,0-2.5,0-2.5-2.5,0-.8.4-1.9-.4-2.3a2.1,2.1,0,0,0-2.51,1.2c.7.2,1.6-1.1,1.9.6s-.1,2.7-1,2.9c-1.3.3-2-.1-2.41-1.5-.9-.9-1.3-2.4-2.9-2.6.2,1.1,1.3,1.6,1.7,2.8.3.7.2,1.1-.6,1.2a9.77,9.77,0,0,1-1.71,0c-.8,0-1.1-.5-1.2-1.3-.2-1.8,0-2.3,1.51-2.7a1.54,1.54,0,0,0-1-.6c-1-.4-1.5-.1-1.4,1.1v.7c-.2,3.1.2,2.7-3.11,2.8h-.6c-2.61-.2-2.71.1-2.71-2.2.1-6.3.1-12.7.2-19.1v-1.7c0-1.7-.4-2.1-2-2-1.21.2-2.21-.6-3.41-.4a9.55,9.55,0,0,0,3.1,1.4c2.21.8,2.21,2.65,1.21,8.95.6,2.5-.2,8.8-.6,12.15-.42,3.5.6,2.9-1.21,2.8h-1.5c-22.57-.2-45.23-.5-67.9-.7-3.31,0-3,0-3-3.2l.3-34.5v-1.5c-.1-1,.4-1.6,1.5-1.5H5.75c22.66.2,45.42.5,68.09.7h.5c2.51,0,2.51,0,2.51,2.5a24.32,24.32,0,0,0,0,2.7c.1,1.3-.5,1.8-1.71,2.1a16.17,16.17,0,0,1-4.91.1c-3.11,0-3.71-.2-2.51,3.8.1.3.4.5.6.8-.4-3-.4-3,2.71-3a29.22,29.22,0,0,0,5.12-.3c1.5-.3,1.7-1,1.5-2.7a5.44,5.44,0,0,1,0-1.8c.3-4-.3-4.1,2-4.2h.7c3.51,0,3.51,0,3.81,3.5.1,1.5.1,1.5,1.5,1.1a1.56,1.56,0,0,1-.4-1.6c.1-1,.2-2,.2-3,0-.5-.4-1.3-.2-1.7a1.12,1.12,0,0,1,.4-.28H82.25c-2,0-2-.1-2.1-2.1v-2q.6-60,1.2-119.92c0-3.6.3-3.5-3.21-3.5-2.3,0-4.61,0-6.92-.1-1.1,0-1.7-.4-1.6-1.6V238c.2-19.2.4-38.3.6-57.51,0-3.3-.2-3.2,3.11-3.1,2.41,0,4.71,0,7.12.1,1.1,0,1.7-.4,1.6-1.6v-2.3q.6-62.1,1.21-124.21c0-3.7-.3-3.4,3.31-3.4,4.61,0,9.12.1,13.74.1,2.5,0,2.6,0,2.6,2.6,0,4.49-.07,9-.11,13.42.1-.27.33-.44.81-.32a25.91,25.91,0,0,0,4.82.3c.9.1,1.2.5.7,1.3a5.81,5.81,0,0,1-3.91,3.1c-.2.1-.5.2-.7.3.2.1.4.3.6.4a3.14,3.14,0,0,0,1.9.4c-.4-.7.1-1,.61-1.4a5.77,5.77,0,0,0,2.3-3.1c.3-1.3,0-1.9-1.4-2-.9-.1-1.81,0-2.71-.1s-1.2-.5-1.2-1.3c0-4,.1-8,.1-12,0-.9.5-1.2,1.3-1.2h1.41c22.86.2,45.63.5,68.49.7h1.31c1.1-.1,1.6.4,1.6,1.6-.1,12.4-.2,24.9-.4,37.3,0,1.2-.5,1.7-1.61,1.6h-1.4c-22.66-.2-45.33-.5-68.09-.7-3.31,0-3,.1-3-3.2,0-2.9.1-5.8.1-8.8,0-2.5,0-2.5,2.4-2.5h1.71c1.3-.1,1.4-.3.8-2-.1.9-.7.9-1.4,1-1.41.1-2.91-.2-4.32.3a.62.62,0,0,1-.84-.21.56.56,0,0,1-.07-.18q-.08,7.45-.19,14.89-.31,31.08-.6,62.09a1,1,0,0,1,1.1-.28c1.21.5,2.51.2,3.91.3s1.41.1,1,1.5c-.1.3-.1.7-.3.9.9-.3,1.1-1.2,1.4-1.9.4-1.4,0-1.9-1.5-2.1-1.11-.1-2.51.4-3.31-.4-1-.9-.3-2.5-.4-3.7a20.61,20.61,0,0,1-.1-3.6c.4-6.3-.71-6.3,2.8-6.3,6.52.1,12.94.1,19.36.2,1.7,0,3.41,0,5.21.1a2.35,2.35,0,0,1,1.41.4c.2,0,.4-.1.6-.1h.1c.2,0,.5-.1.7-.1v-.1c0-.1.1-.1.2-.1s.3,0,.3.1a8.93,8.93,0,0,1,2.31,0,3.24,3.24,0,0,1,1.4.3,1.37,1.37,0,0,1,1.21-.5h1.4c11.43.1,22.77.2,34.1.4h.3c2.91,0,2.91,0,2.81,2.8-.1,5.8-.1,11.7-.2,17.5s-.1,11.4-.2,17c0,2.7,0,2.7-2.51,2.6-23.07-.2-47.64.23-70.8,0l-.3-4.13a21.31,21.31,0,0,1-.1-7.8c-.71-2-.21-2.8.9-2.8a8.52,8.52,0,0,0,2.71.2c1.2-.1,1.6-.6,1.4-1.7-.2-.9-.4-1.8-1.4-2.2.7,2.5.7,2.5-2,2.5a10.91,10.91,0,0,0-2.61.2.82.82,0,0,1-1-.15c0,5.05-.1,10.1-.13,15.15v1.3c-.1,1.1.4,1.7,1.6,1.7H104c1.5.1,1.6.2,1.6,1.8v1.3c-.1,7.2-.1,14.4-.2,21.71.17,1.13.27,2.27.34,3.39a.35.35,0,0,1,.46-.19h0a.68.68,0,0,1,.4.5c-.1,1.2-.1,2.2-.1,3.3v2.9c0,.2-.2.5-.4.5a.36.36,0,0,1-.3-.05v1.75h.3c.9.1.9.8.9,1.5v1.5h.1a16.21,16.21,0,0,1-.2,2.2,1.27,1.27,0,0,1-1.1.87V236s-.7.7-.7,1c-.1,2-.1,2-2.11,2.1-1.8.1-1.8.2-1.8,1.9-.1,4.6-.1,9.2-.1,13.8a1.83,1.83,0,0,0,1.47,2.1h0a28.32,28.32,0,0,0,4.11.4c.71,0,1.51-.1,1.71,1,.6-1.7.5-1.9-.8-2a16.3,16.3,0,0,0-2.21,0c-1.81-.1-1.91-.2-1.91-1.8,0-3.7.1-7.3.1-11,0-1.1.41-1.7,1.61-1.7h1.4c22.67.2,45.33.5,68,.7,3.41,0,3.11-.2,3.11,3.4-.1,11.4-.2,22.7-.3,34.11v.7c0,2.4,0,2.4-2.31,2.4h-1c-22.57-.2-45.13-.5-67.8-.7-3.41,0-3.11.2-3.11-3.3,0-2.9.1-5.91.1-8.81,0-2.4,0-2.4,2.31-2.4h1.2c1.91,0,2.31-.7,1.71-2.5-.3-.6-.5-1.3-1.2-1.5.9,2.9.9,2.9-2.21,3h-1.4c-2.41.2-2.71.5-2.81,3l-.3,27.61c0,2.3,0,2.3,2.1,2.8a25.55,25.55,0,0,0,3.91.2c1.11.1,1.41.5.81,1.4a25.17,25.17,0,0,1-2,2.5c1.7-.3,2.41-1.6,2.91-3s0-1.9-1.41-2a16.15,16.15,0,0,0-2.2,0c-1.51-.1-1.61-.2-1.61-1.8,0-3.7.1-7.3.1-11,0-1.1.4-1.7,1.61-1.7a13.35,13.35,0,0,0,2,0c22.47.2,45,.5,67.5.7,2.6.3,2.4.1,2.3,3.7l-.3,33.9v1.3c-.1,2.1-.1,2.1-2,2.2h-1.26c-22.56-.2-45.13-.5-67.79-.7-3.41,0-3.11.2-3.11-3.3,0-2.9.1-5.9.1-8.8,0-2.4,0-2.4,2.31-2.4h1.2c1.91,0,2.31-.7,1.71-2.5-.3-.6-.51-1.3-1.21-1.5.91,3,.91,3-2.1,3h-1.41c-2.4.2-2.81.5-2.81,3-.1,9.2-.2,18.4-.3,27.5,0,2.5.4,2.9,2.81,3h1.21c3.3,0,3.3,0,2.3,3,.9-.3,1.1-1.2,1.41-2,.4-1.4,0-1.9-1.51-2.1-1.1-.1-2.51.4-3.31-.4s-.4-2.4-.4-3.6c0-2.9,0-5.9.1-8.8,0-1.6.1-1.7,1.71-1.7h1.4c22.56.2,45.23.5,67.79.7,3.41,0,3.21-.2,3.21,3.3l-.3,34.11V368c-.1,1.5-.1,1.6-1.8,1.7h-1.41c-22.56-.2-45.23-.5-67.79-.7-3.21,0-3.11.2-3.11-3.1s.1-6.3.1-9.6c0-1.7.1-1.8,1.81-1.9h2c1.41-.1,1.91-.6,1.51-2.11a7,7,0,0,0-1.71-2.7c-1-1-1-1,0-2.3a7.78,7.78,0,0,0-1.4.5c-.71.3-1.41.5-2,.7.5.6,1.3.6,1.91.9a6.1,6.1,0,0,1,2.7,2.8c.31.6,0,1-.6,1.11a19.22,19.22,0,0,1-2.4,0,16.28,16.28,0,0,0-2.21.1c-1.61.3-1.81.6-1.81,2.4,0,3.2-.1,6.3-.1,9.6,0,3.6.3,3.4-3.31,3.4-3.15,0-6.34,0-9.52-.07l.4.07c1.7,0,3.41,0,5.21.1.71,0,1.21.3,1,1.1a11.26,11.26,0,0,0-.41,3.7A1.23,1.23,0,0,1,92,375a1,1,0,0,1-.25,0c.2.4.6.5,1,.7.91.4,1.41.1,1.51-.9v-.5c.2-3.3.2-3.3,3.41-3.3Zm-78-258.24c-.1.9-.7.9-1.4,1-1.41.1-2.91-.2-4.32.3-.7.3-1-.3-1-.9,0-2.5.1-5.1.1-7.7,0-.9.5-1.3,1.31-.9,1.2.5,2.5.2,3.91.3s1.4.1,1,1.5c-.1.3-.1.7-.3.9a2.26,2.26,0,0,0,1.3-1.7c.5-1.5.1-2.1-1.5-2.3-1.1-.1-2.51.4-3.31-.4s-.4-2.4-.4-3.6c0-2.9,0-5.8.1-8.8,0-1.6.1-1.7,1.7-1.8,0-.1.4-.1.81-.1,22.76.2,45.42.5,68.29.7,3,0,3,0,3,3l-.3,34.81c0,2.8,0,2.8-2.61,2.8-23-.2-45.83-.5-68.7-.7h-1.4c-.9,0-1.3-.5-1.3-1.4,0-3.8.1-7.7.1-11.51,0-1.2.6-1.6,1.7-1.5a9.72,9.72,0,0,0,2.41,0c1.29-.15,1.39-.35.79-2.05Zm81.43,126.42a5.66,5.66,0,0,1-1.3.1c-26.38-.3-52.65-.5-79.13-.8h-1.4c-1.2.1-1.6-.6-1.6-1.7,0-3.6.1-7.1.1-10.8,0-1.8,0-3.7.1-5.5s.1-2,1.9-2.1h2.74c1.9,0,2-.4,1.3-2.5,0,.8-.2,1.5-1.3,1.5h-.5c-4.11.2-4.92-.7-4.11-5,.1-.9.6-1.1,1.4-.8a8.45,8.45,0,0,0,2,.8c-.41-1-1.41-1.3-2.41-1.6-1.2-.3-1-1.1-1-1.9s.7-1,1.4-1h1.4c26.38.3,52.65.5,79.13.8,3,0,3,0,3,3-.1,8.2-.2,16.4-.2,24.5v1.5c.07.95-.43,1.55-1.54,1.45Zm-1-63.31c3,0,3,0,3,3.2-.1,8-.2,15.81-.2,23.81v1.7c0,.9-.5,1.3-1.41,1.3h-1.7l-78.83-.8h-1.1a1.86,1.86,0,0,1-1.6-2.9,1.23,1.23,0,0,1,1.2-.5h3.21c1.9,0,2-.4,1.3-2.5,0,.9-.3,1.3-1.3,1.5-4.31.5-5-.2-4.71-4.5.1-1.1.4-1.51,1.5-1.1a3.37,3.37,0,0,0,1,.1c-2.6-1.81-2.4-1.71-2.4-5.71s.1-7.9.1-11.9c0-2.4,0-2.5,2.1-2.5,6.72.1,13.44.1,20.16.2Zm3.71-134.51v1.3c0,.8-.4,1.3-1.2,1.3h-2l-89.68-1h-.71c-2.2-.1-2.2-.1-2.3-2.2v-1c-.1-1.3-.3-1.4-2-.8.4.1.8.3.8.7l.3,4.5c.1.7-.4.8-.9.8-2,0-3.91,0-5.91-.1-.81,0-1.41-.3-1.11-1.2a15.84,15.84,0,0,0,.41-3.7c.1-.7.4-.9,1-.5A12.45,12.45,0,0,1,92,42a2.19,2.19,0,0,0-1.7-2.3c-1.81-.91-2.51-.41-2.61,1.6v1c.1,1.1-.5,1.5-1.51,1.5-2.5,0-5-.1-7.62-.1-1.9,0-3.71,0-5.61-.1s-1.81-.2-1.91-2v-1c.1-11.51.2-23.11.3-34.51V4.8c.1-1.5.1-1.6,1.81-1.7h1.4L190.42,4.3h.7c2.41,0,2.51,0,2.51,2.5-.1,11.8-.2,23.7-.3,35.51Z"
        transform="translate(18.55)" />
    <path d="M105,213.83v3.7c0,.5-.1,1.1.6,1.1h.2v-3a2.33,2.33,0,0,1,0-2v-1.1C105.05,212.59,105,213.21,105,213.83Z"
        transform="translate(18.55)" />
    <path
        d="M105.58,210.43a.49.49,0,0,0,.2.35v-2.45a42.42,42.42,0,0,0-.06-4.51.74.74,0,0,0,0,.21C105.58,206.13,105.58,208.33,105.58,210.43Z"
        transform="translate(18.55)" />
    <path d="M71.28,591.48" transform="translate(18.55)" />
    <path d="M72.49,605.18" transform="translate(18.55)" />
    <polygon points="95.04 481.96 94.84 481.86 95.04 481.76 95.04 481.96" />
    <polygon points="96.05 438.86 96.05 438.66 96.25 438.76 96.05 438.86" />
    <polygon points="121.12 158.92 120.92 158.82 121.12 158.72 121.12 158.92" />
    <polygon points="106.18 44.41 106.38 44.41 106.28 44.21 106.18 44.41" />
    <path d="M71.48,715.19v-1c.3,0,.5-.1.71,0,.6.1,1.6-.2,1.6.7s-1,.2-1.6.3C72.05,715.29,71.78,715.19,71.48,715.19Z"
        transform="translate(18.55)" />
    <path d="M73.89,476.66v-1c.3,0,.5-.1.7,0,.6.1,1.61-.2,1.61.7s-1,.2-1.61.3Z" transform="translate(18.55)" />
    <path d="M74.29,433.56v-1c.3,0,.5-.1.7,0,.6.1,1.61-.2,1.61.7s-1,.2-1.61.3Z" transform="translate(18.55)" />
    <path d="M71.48,714.19a2.76,2.76,0,0,1-2.4-2.5A5.79,5.79,0,0,1,71.48,714.19Z" transform="translate(18.55)" />
    <path d="M71,672.49c.2-.8,1.1-.9,1.51-1.5.3,0,.5-.1.7,0s.6,0,.7.2-.1.3-.3.4C72.69,671.89,72,672.59,71,672.49Z"
        transform="translate(18.55)" />
    <path
        d="M71.48,629.38c.2-.8,1.11-.9,1.51-1.5.3,0,.7-.1.9,0l.6.3c-.1.1-.2.3-.3.3C73.19,628.68,72.39,629.48,71.48,629.38Z"
        transform="translate(18.55)" />
    <path
        d="M74,519.77c-.4-.6-1.2-.7-1.4-1.5a3.12,3.12,0,0,1,1.8.7c.4.3,1.2,0,1,.7C75.29,519.77,74.39,519.67,74,519.77Z"
        transform="translate(18.55)" />
    <path d="M74.29,432.56a2.79,2.79,0,0,1-2.41-2.51A6.46,6.46,0,0,1,74.29,432.56Z" transform="translate(18.55)" />
    <path d="M71,522.17a2,2,0,0,1,2-2A4.82,4.82,0,0,1,71,522.17Z" transform="translate(18.55)" />
    <path d="M71.88,627.48a1.92,1.92,0,0,1-1.9-1.94v-.06A4.1,4.1,0,0,1,71.88,627.48Z" transform="translate(18.55)" />
    <path d="M71.48,670.49a1.92,1.92,0,0,1-1.9-1.94v-.06A5.15,5.15,0,0,1,71.48,670.49Z"
        transform="translate(18.55)" />
    <path d="M68.57,718.59a1.72,1.72,0,0,1,1-2A2.76,2.76,0,0,1,68.57,718.59Z" transform="translate(18.55)" />
    <path d="M71.48,517.17c-.9-.4-1-1.1-1-2A2.33,2.33,0,0,1,71.48,517.17Z" transform="translate(18.55)" />
    <path d="M71.88,474.06c-.9-.4-1-1.1-1-2A2.33,2.33,0,0,1,71.88,474.06Z" transform="translate(18.55)" />
    <path d="M69,675.49a1.7,1.7,0,0,1,1-2A2.78,2.78,0,0,1,69,675.49Z" transform="translate(18.55)" />
    <path d="M69.38,632.38a1.7,1.7,0,0,1,1-2A2.46,2.46,0,0,1,69.38,632.38Z" transform="translate(18.55)" />
    <path d="M72.79,434.56a1.46,1.46,0,0,1,1.4-1A1.33,1.33,0,0,1,72.79,434.56Z" transform="translate(18.55)" />
    <path d="M73.89,475.66a1.31,1.31,0,0,1-1.4-1C73.19,474.56,73.59,475,73.89,475.66Z" transform="translate(18.55)" />
    <path d="M72.39,477.56a1.46,1.46,0,0,1,1.4-1A1.22,1.22,0,0,1,72.39,477.56Z" transform="translate(18.55)" />
    <path d="M70.05,716.19a1.46,1.46,0,0,1,1.4-1A1.42,1.42,0,0,1,70.05,716.19Z" transform="translate(18.55)" />
    <path d="M70.38,630.38c0-.6.3-.9,1-1A1.17,1.17,0,0,1,70.38,630.38Z" transform="translate(18.55)" />
    <path d="M70,673.49c0-.6.3-.9,1-1A1.28,1.28,0,0,1,70,673.49Z" transform="translate(18.55)" />
    <path d="M72.49,671.09a1,1,0,0,1-1-.5A.89.89,0,0,1,72.49,671.09Z" transform="translate(18.55)" />
    <path d="M72.89,628a1,1,0,0,1-1-.5A1,1,0,0,1,72.89,628Z" transform="translate(18.55)" />
    <path d="M73,520.17a1,1,0,0,1,1-.5C73.79,520.17,73.39,520.17,73,520.17Z" transform="translate(18.55)" />
    <path d="M69.58,716.59l.5-.5C69.88,716.29,69.78,716.49,69.58,716.59Z" transform="translate(18.55)" />
    <path d="M72,517.67l-.5-.5Z" transform="translate(18.55)" />
    <path d="M72.49,474.56l-.51-.5C72.05,474.26,72.29,474.36,72.49,474.56Z" transform="translate(18.55)" />
    <path d="M72.49,518.17l-.51-.5Z" transform="translate(18.55)" />
    <path
        d="M104.58,304.54c-.1.5-.3.8.3,1.1a2.14,2.14,0,0,1,.7.9c-1.1-.1-2-1-3.11-1-.1,0-.2-.2-.3-.3.1-.1.3-.2.4-.3A3.34,3.34,0,0,1,104.58,304.54Z"
        transform="translate(18.55)" />
    <path
        d="M105,261.43c-.2.5-.3.8.3,1.1a2.14,2.14,0,0,1,.7.9c-1.1-.1-2-1-3.11-1-.1,0-.2-.2-.3-.3.1-.1.3-.2.4-.3A4.24,4.24,0,0,1,105,261.43Z"
        transform="translate(18.55)" />
    <path d="M107,259.43a2,2,0,0,1-2,2A5.48,5.48,0,0,1,107,259.43Z" transform="translate(18.55)" />
    <path d="M107.49,258.43a1,1,0,0,1-.51,1A1,1,0,0,1,107.49,258.43Z" transform="translate(18.55)" />
    <path d="M105.58,346.64l-.5.5Z" transform="translate(18.55)" />
    <path d="M105.58,306.54l.5.5Z" transform="translate(18.55)" />
    <path d="M106,263.43l.5.5Z" transform="translate(18.55)" />
    <path
        d="M7.1,766.1c6.12.1,12.23.1,18.45.2h1.71a1.47,1.47,0,0,1,1.6,1.33,1.22,1.22,0,0,1,0,.27c0,3.4-.1,6.8-.1,10.2,0,.8-.4,1.2-1.3,1.3H26.05c-12.53-.1-25.17-.3-37.8-.4h-1.2c-1,0-1.6-.4-1.5-1.5,0-3.4.1-6.8.1-10.3,0-.9.5-1.3,1.4-1.3,1.81,0,3.61,0,5.42.1C-2.73,766,2.19,766,7.1,766.1Zm-4.91,6.8h0v3.7c0,2.3,0,2.2,2.5,2.3h.7c1.51-.1,1.61-.1,1.71-1.8.1-2.1,0-4.3.1-6.5,0-3.3-.4-3.7-3.61-3.2a1.19,1.19,0,0,0-1.21,1.15c0,.05,0,.1,0,.15-.1,1.4-.2,2.8-.2,4.2Zm-.61,0h0v-3.5c0-2.5,0-2.5-2.5-2.5h-.51c-1.9,0-1.8.1-1.9,2.3s0,4.1-.1,6.2c0,3-.2,3,2.51,3h.7c1.1.1,1.7-.4,1.6-1.6a24.22,24.22,0,0,0,.2-3.9Zm-10.73.4h0c0-1.1.1-2.3,0-3.5,0-2.4,0-2.2-2.91-2.3h-.1c-2.5.1-1.8,0-2.1,4.7a6.05,6.05,0,0,0,0,1.9c.2,4.9-.6,4.9,2.2,5h1.41c.8,0,1.2-.5,1.2-1.3C-9.25,776.3-9.25,774.7-9.15,773.3Zm27.08-.6h0c0,1.3-.1,2.7,0,4,0,1.9.1,1.7,2.21,1.8h.2c2.81-.1,2.2.2,2.4-3.6v-1.5c-.2-6.4.81-6.5-3.11-6.4a8.55,8.55,0,0,0-1.6.1.09.09,0,0,0-.1.1Zm-5.92.5v-4.5c0-1.1-.4-1.5-1.4-1.6H9.41c-1.51.1-1.61.1-1.71,1.7-.1,2.6-.1,5.1-.1,7.8,0,1.9.1,1.9,1.91,2h1c1,.1,1.4-.5,1.5-1.5-.1-1.3,0-2.6,0-3.9Zm-20.15-.6v4.2c-.1,1.2.5,1.7,1.6,1.6h1.4c.91,0,1.31-.5,1.31-1.4,0-2.9.1-5.8.1-8.8,0-.9-.4-1.3-1.41-1.4h-1.4c-1.2-.1-1.6.5-1.6,1.7Zm35.8.6h0c-.8,0-.4.7,0,0,1.3-3.1.4-5.8-1.21-5.8h-1.7c-1.3,0-1.5,1-1.1,2.7a12.19,12.19,0,0,1-.1,6c-.51,1.8-.2,2.7,1.1,2.8h1.4c1.21.1,1.61-.5,1.61-1.7ZM13.05,773h0v4.7a1.17,1.17,0,0,0,1,1.29h.15a6.55,6.55,0,0,0,1.4,0c1.61-.1,1.61-.1,1.71-1.8.1-2.6.1-5.2.1-7.8,0-1.7-.1-1.8-1.71-1.9h-1.2c-1-.1-1.4.5-1.5,1.5Z"
        transform="translate(18.55)" />
    <path
        d="M5.9,763.1c-3.92,0-7.83-.1-11.84-.1-1.1,0-2.2-.2-3.31.6-.9.7-1.6-.4-2.3-.8-.3-.1-.2-.4-.1-.7.4-.6,2-1.2,2.6-.7a4,4,0,0,0,2.81.6l24.07.3c.8,0,2.21-.5,2.21.6.1.7-1.41.4-2.21.4C13.82,763.2,9.81,763.2,5.9,763.1Z"
        transform="translate(18.55)" />
    <path d="M86.05,741.89a1.65,1.65,0,0,1,1,1A1,1,0,0,1,86.05,741.89Z" transform="translate(18.55)" />
    <path
        d="M171.77,5.5c5.92.1,11.93.1,17.85.2,2.31,0,2.41.1,2.31,2.4,0,2.8-.1,5.7-.1,8.5,0,2.1-.1,2.2-2.21,2.2l-24.27-.3c-4.11,0-8.22-.1-12.23-.1-1.91,0-2-.2-2-2,0-3,0-6,.1-9,0-2,.2-2.1,2.21-2C159.53,5.4,165.65,5.4,171.77,5.5Zm-4.91,6.6h0v4c0,2,.1,2.1,2.1,2.1h.5c1.71,0,1.71-.1,1.71-2.1,0-2.5,0-5.1.1-7.5,0-2.1,0-2.2-1.91-2.3h-1c-1.71-.1-2,1.2-.7,4.7C168,11.6,167.56,12.1,166.86,12.1Zm9.32.2V7.6c0-1.1-.4-1.5-1.4-1.5h-.73c-2,0-2.11,0-2.21,2,0,2.7-.1,5.3-.1,8,0,1.9.1,1.9,1.9,2h1c1,.1,1.4-.5,1.5-1.5Zm10.93-.2c0,1.4-.1,2.8,0,4.2,0,1.6.1,1.7,1.61,1.8h1.4a1.07,1.07,0,0,0,1.21-.91,1.41,1.41,0,0,0,0-.29c0-3.1.1-6.3.1-9.5a1.14,1.14,0,0,0-1-1.29,1,1,0,0,0-.24,0,6.55,6.55,0,0,0-1.4,0c-1.61.1-1.61.1-1.71,1.7Zm-6,0c0-1.4.1-2.8,0-4.2,0-1.6-.1-1.7-1.61-1.8h-1.45a1.07,1.07,0,0,0-1.21.91,1.41,1.41,0,0,0,0,.29c0,3.1-.1,6.3-.1,9.5,0,.8.3,1.3,1.21,1.3a6.55,6.55,0,0,0,1.4,0c1.61-.1,1.61-.1,1.71-1.7ZM161,12.1h0a.88.88,0,0,1-1-.74.84.84,0,0,1,.1-.56c1.2-3.1,1.4-4.8-.3-4.8h-1.41a1.6,1.6,0,0,0-1.7,1.5v.1c0,3-.1,6-.1,9a1.21,1.21,0,0,0,1,1.4,1.27,1.27,0,0,0,.39,0h1.3c1.21.1,1.71-.4,1.61-1.6.09-1.5.09-2.9.09-4.3Zm-4.9-.1h0V7.3c0-.9-.3-1.4-1.3-1.4h-1.4c-1.11-.1-1.61.4-1.61,1.6,0,3-.1,6-.1,9,0,.9.4,1.4,1.31,1.4h1.4c1.1.1,1.6-.4,1.6-1.6C156.05,14.8,156.05,13.4,156.05,12Zm6-.1c0,1.5-.1,3,0,4.5s.2,1.5,1.91,1.6,2-.1,2-1.4c.1-3,.1-6,.1-9,0-1.4-.2-1.5-1.9-1.6s-1.91.1-2,1.4C162.05,8.9,162.05,10.3,162.05,11.9Zm24.07.4V7.6c0-1.3-.8-1.4-1.8-1.4-1.71,0-2,.1-2.11,1.3-.1,3.1-.1,6.1-.1,9.2,0,1.3.8,1.4,1.8,1.4,1.71,0,2-.1,2.11-1.3.09-1.5.09-3,.09-4.5Z"
        transform="translate(18.55)" />
    <path
        d="M168.05,21.8c5.72.1,11.53.1,17.25.2a2.83,2.83,0,0,0,1.3-.4,2.55,2.55,0,0,1,2.91.5.61.61,0,0,1-.1.7,2.52,2.52,0,0,1-2.81.5,4.06,4.06,0,0,0-2.81-.5l-30.08-.3c-.7,0-1.31.2-1.91-.2a2.48,2.48,0,0,1,2-.5c4.71-.1,9.53-.1,14.24,0Z"
        transform="translate(18.55)" />
    <path d="M92.84,42.21v1c0,.2,0,.5-.3.5-.1,0-.2-.2-.3-.3-.1-.5-.3-1.1-.4-1.7A9.33,9.33,0,0,0,92.84,42.21Z"
        transform="translate(18.55)" />
    <path d="M95.35,39.81a1,1,0,0,1-1,.5A.93.93,0,0,1,95.35,39.81Z" transform="translate(18.55)" />
    <path d="M93.45,41.31a1,1,0,0,1-.51,1A.82.82,0,0,1,93.45,41.31Z" transform="translate(18.55)" />
    <path d="M94.45,40.21l-.5.5Z" transform="translate(18.55)" />
    <path d="M93.85,40.81l-.5.5Z" transform="translate(18.55)" />
    <path
        d="M168,397.85c5.92.1,11.93.1,17.85.2,2.41,0,2.41.1,2.31,2.4,0,2.8-.1,5.7-.1,8.5,0,2.1-.1,2.2-2.21,2.2l-24.27-.3c-4.11,0-8.22-.1-12.23-.1-1.91,0-2-.2-2-2,0-3,0-6,.1-9,0-2,.2-2.1,2.21-2C155.62,397.75,161.74,397.85,168,397.85Zm5,6.6h0V409a1.17,1.17,0,0,0,1,1.29h.16a6.55,6.55,0,0,0,1.4,0c1.61,0,1.61-.1,1.71-2.1,0-2.3,0-4.7.1-6.9s0-2.4-1.91-2.4h-1c-1-.1-1.41.5-1.51,1.5Zm10.23.3c0,1.3-.1,2.7,0,4,0,1.7.1,1.7,1.61,1.8h1.4a1.17,1.17,0,0,0,1.29-1.05.76.76,0,0,0,0-.15c0-3,.1-6,.1-9,0-.9-.5-1.3-1.4-1.3h-1.15c-1.61.1-1.61.1-1.71,1.7a39.15,39.15,0,0,0-.14,4Zm-31.29.2h0c-.5-.8-.5-.7-1-1.6,1.4-2.9,1.3-4.3-.2-4.4a6.55,6.55,0,0,0-1.4,0c-1.61,0-1.61.2-1.71,2.1,0,2.4,0,4.7-.1,7.1,0,2.1,0,2.1,1.91,2.2h1c1,.1,1.4-.5,1.5-1.5-.09-1.3,0-2.6,0-3.85Zm.91-.7v4.5c0,1.1.4,1.5,1.5,1.5h1.2c1.51-.1,1.61-.1,1.71-1.8.1-2.6.1-5.1.1-7.8,0-1.9-.1-1.9-1.91-2h-1c-1-.1-1.4.5-1.5,1.5-.09,1.4-.09,2.85-.09,4.1Zm10.32.1h0v4.5a1.2,1.2,0,0,0,1.07,1.3h.14a6.55,6.55,0,0,0,1.4,0c1.61-.1,1.61-.1,1.71-1.8.1-2.6.1-5.2.1-7.8,0-1.7-.1-1.7-1.71-1.9h-1.2c-1-.1-1.4.5-1.51,1.5Zm4.92.1h0V409a1.17,1.17,0,0,0,1,1.29h.15a6.65,6.65,0,0,0,1.41,0c1.6-.1,1.6-.1,1.7-1.8.1-2.6.1-5.2.1-7.8,0-1.7-.1-1.8-1.7-1.9h-1.21c-1-.1-1.4.5-1.5,1.5Zm14.14.4c0-1.4.1-2.8,0-4.3s-.2-1.5-1.91-1.6-2,.1-2,1.4c-.1,2.8-.1,5.7-.1,8.5,0,1.4.2,1.5,1.9,1.6s1.91-.1,2-1.4a29.47,29.47,0,0,0,.12-4.2Zm-20.16.2h0c0-1.4.1-2.8,0-4.3s-.2-1.7-1.9-1.8-1.91.1-2,1.7c-.1,2.5,0,5-.1,7.5,0,2.2.3,2.4,2.41,2.3a1.63,1.63,0,0,0,1.5-1.6c.11-1.2.11-2.6.11-3.8Z"
        transform="translate(18.55)" />
    <path
        d="M165.15,393.85c5.22.1,10.33.1,15.44.2a3.21,3.21,0,0,0,2.61-.6c.1-.1.3-.2.4-.3a3.5,3.5,0,0,1,2.41,1c.4.3,0,.7-.3.7-.9.3-1.71,1.7-2.71.3-.7-1-1.6-.7-2.41-.7-7.62-.1-15.24-.2-22.86-.2-2.91,0-5.92-.1-8.83-.1-.2,0-.7-.1-.7-.2.1-.5.5-.3.7-.3C154.32,393.75,159.74,393.75,165.15,393.85Z"
        transform="translate(18.55)" />
    <path d="M71.38,385.85a3.75,3.75,0,0,1-2.91-3A11.69,11.69,0,0,1,71.38,385.85Z" transform="translate(18.55)" />
    <path d="M88.13,374a4.94,4.94,0,0,1,.9-2.3c.1-.3,0-.7.5-.6.1.1.1.6.21.9v.5C89.13,373,88.93,373.75,88.13,374Z"
        transform="translate(18.55)" />
    <path d="M90.14,373.55a2.35,2.35,0,0,1,1.4,1.5,1.45,1.45,0,0,1-1.4-1.5Z" transform="translate(18.55)" />
    <path d="M85.62,375.45a2.64,2.64,0,0,1,2-1C87.33,375.45,86.53,375.55,85.62,375.45Z"
        transform="translate(18.55)" />
    <path d="M72.29,386.35a1,1,0,0,1-1-.5C71.78,386,72.05,386,72.29,386.35Z" transform="translate(18.55)" />
    <path d="M89.63,372.55a.81.81,0,0,1,.41,1A1.19,1.19,0,0,1,89.63,372.55Z" transform="translate(18.55)" />
    <path d="M89.84,409.05a1,1,0,0,1-.51,1C89.23,409.65,89.43,409.35,89.84,409.05Z" transform="translate(18.55)" />
    <path d="M90.74,408.15l-.5.5Z" transform="translate(18.55)" />
    <path d="M90.24,408.65l-.5.5Z" transform="translate(18.55)" />
    <path d="M87.63,374.55l.5-.5C87.93,374.15,87.83,374.35,87.63,374.55Z" transform="translate(18.55)" />
    <path d="M108.89,69.51a5.39,5.39,0,0,1-1.91-2A2.06,2.06,0,0,1,108.89,69.51Z" transform="translate(18.55)" />
    <path d="M109.29,70.51a.83.83,0,0,1-.4-1C109.29,69.71,109.29,70.11,109.29,70.51Z" transform="translate(18.55)" />
    <path
        d="M106.48,110.51c-.3,0-.5.1-.7,0-.6-.2-1.6-.3-1.6-.7,0-.6,1-.3,1.6-.7a2.77,2.77,0,0,1,1.81-.6c-.3.3-.4.7-.71.9a.72.72,0,0,0-.5.89A.81.81,0,0,0,106.48,110.51Z"
        transform="translate(18.55)" />
    <path d="M108.39,112.51a5.24,5.24,0,0,1-1.91-2A2.06,2.06,0,0,1,108.39,112.51Z" transform="translate(18.55)" />
    <path d="M108.89,113.61a.83.83,0,0,1-.4-1A1.16,1.16,0,0,1,108.89,113.61Z" transform="translate(18.55)" />
    <path d="M107.49,108.51l.5-.5Z" transform="translate(18.55)" />
    <path
        d="M106.48,154.22c-.8-.2-1.7-.4-2.6-.6-.31-.1-.51-.2-.51-.4a.54.54,0,0,1,.51-.5,4.85,4.85,0,0,1,1.7,0A10.27,10.27,0,0,1,106.48,154.22Z"
        transform="translate(18.55)" />
    <path d="M105.58,152.62a1,1,0,0,1,1-.5C106.38,152.62,106,152.62,105.58,152.62Z" transform="translate(18.55)" />
    <path d="M107.05,154.62l-.5-.5A1.21,1.21,0,0,0,107.05,154.62Z" transform="translate(18.55)" />
    <path d="M106.58,152.22l.5-.5C106.88,151.82,106.78,152,106.58,152.22Z" transform="translate(18.55)" />
    <path d="M107.49,155.22l-.51-.5A1.12,1.12,0,0,1,107.49,155.22Z" transform="translate(18.55)" />
    <path d="M107.05,151.62l.51-.5Z" transform="translate(18.55)" />
    <path
        d="M27.86,587a1.75,1.75,0,0,1-.8-1.5,42.22,42.22,0,0,0,.4-4.9c.1-.7.4-1.1,1.1-1.1a19.38,19.38,0,0,1,2.41,0c1.6.1,1.6.1,1.6,1.8.1,1.2.4,2.5.4,3.7.1,1.5-.4,2.8-2.1,3.1l-.5-.1,1-.2v-.3l-.5-.1.7-.7a3.47,3.47,0,0,0,.5-.8c.6-1.3.2-2.7-.2-4.1s-.6-1.5-2.51-1.5c-1.4,0-1.2,1.1-1.4,1.9a.85.85,0,0,0,0,.7c.5,1.8.9-2.3,1.5,2.1-.2.5-.4.9-.6,1.4h-.1c-.2-.2-.5-.6-.6-.5-.3.2-.1.7-.3,1.1Z"
        transform="translate(18.55)" />
    <path
        d="M37.89,587.67a1.37,1.37,0,0,1-.6-1.3,33.81,33.81,0,0,0,.2-4.5c.1-1.3.3-1.3,2.8-1.3,2.31,0,2.41.1,2.51,1.4s0,2.5.1,3.7c.2,2.91-1.3,4-4.11,2.91l.1-.1a.86.86,0,0,0,.9-.5h.5c.3.4.61.5,1,0,.1-.2.3-.3.5-.5.9-1.81.4-3.71.4-5.61,0-.5-.3-.7-.8-.8A7.44,7.44,0,0,0,40,581c-1.8,0-1.8,0-2,1.6s0,3.1-.1,4.71Z"
        transform="translate(18.55)" />
    <path
        d="M31.05,588c-1.11.91-1.81.51-2.51-.5l.1-.1a1,1,0,0,0,.4-.9l.1-.1a4.28,4.28,0,0,0,1.91.6,4,4,0,0,1,.1.5l-.1.1a2.74,2.74,0,0,1-.9.1c.1.4.5.21.9.3Z"
        transform="translate(18.55)" />
    <path d="M65,584.77a5.1,5.1,0,0,1,1.91,2C65.67,586.67,65.17,586,65,584.77Z" transform="translate(18.55)" />
    <path d="M66.87,586.77a2.82,2.82,0,0,1,2,1A1.65,1.65,0,0,1,66.87,586.77Z" transform="translate(18.55)" />
    <path d="M64,582.77a3,3,0,0,1,1,2C64.05,584.37,64,583.67,64,582.77Z" transform="translate(18.55)" />
    <path d="M38.79,588.48a1.08,1.08,0,0,1-1-1l.1-.1a1.09,1.09,0,0,1,.5.1c.1.2.3.3.5.5a1.11,1.11,0,0,0-.1.51Z"
        transform="translate(18.55)" />
    <path d="M28.56,587.47c-.1-.2-.3-.3-.5-.5l.1-.1.5.5Z" transform="translate(18.55)" />
    <path
        d="M140,212.63h1.2c1.21-.1,1.61.3,1.21,1.6a4.18,4.18,0,0,0,.1,2.5c.1.2.1.5.2.7a3.53,3.53,0,0,1-1.41,3.7,2.42,2.42,0,0,1-2.91,0,3.23,3.23,0,0,1-1.4-3.7,7.29,7.29,0,0,0,.2-3.9c-.2-.7.3-.9.9-.9Zm1.3,7.5-.1.1c0,.1.1,0,.1-.1a1.39,1.39,0,0,0,.5-1c.1-.1.3-.2.3-.3s.21-.5-.1-.6-.2.3-.3.5v.5a1,1,0,0,0-.4.9Zm-3,0v-1c1.81,1.1,2.31.9,2.81-1a7.57,7.57,0,0,0,.1-1.5c.9-2.6.3-3.5-2.3-3a1.18,1.18,0,0,0-1.11,1.1,2.56,2.56,0,0,0,.4,1.9v2.5h-.5v-.5c0-.2,0-.5-.3-.5s-.1.4-.1.6l.3.3c.3.5.4.9.7,1.1.1.1.1.1.2.1a.28.28,0,0,1-.21-.1Zm1.41.8a.09.09,0,0,1,.1.1h0l.1-.1a.09.09,0,0,1-.1-.1h0Z"
        transform="translate(18.55)" />
    <path
        d="M151.61,221.33c-1.3,1.1-2.4,1.3-3.41.6a3.24,3.24,0,0,1-1.4-3.4,13.14,13.14,0,0,0,.4-3.9c-.1-.5.1-.8.6-.8,1.41,0,2.91,0,4.31.1.5.1.5.5.1.9l-.1-.1c-1.1-.9-2.3-.5-3.51-.4-.7.1-1.3,1.5-.8,2.5s.7-.3,1.1-.4c.71-.1,1.21-.3,1.81.4-1.5.3-2.31,1-2.31,2s.81,1.7,2.31,2v.5h-2c-.2-.1-.3-.3-.5-.5-.1-.4-.1-.8-.4-1v-.5c0-.2,0-.5-.3-.5s-.1.4,0,.6l.3.3a1.29,1.29,0,0,0,.4,1c.1.2.3.3.5.5a1.22,1.22,0,0,0,1.7.3,1.07,1.07,0,0,0,.3-.3,3,3,0,0,1,.9.1Z"
        transform="translate(18.55)" />
    <path d="M152.21,214.43c.1,1.5.61,2.9.51,4.4-.11.9-.11,1.7-1,2.1l-.1-.1v-1c.9-1.1.5-2.3.3-3.5-.2-.6-.5-1.3.3-1.9Z"
        transform="translate(18.55)" />
    <path d="M112.3,214.83a2.35,2.35,0,0,1-1.4-1.5,1.38,1.38,0,0,1,1.4,1.38Z" transform="translate(18.55)" />
    <path d="M113.3,216.83a3,3,0,0,1-1-2A1.75,1.75,0,0,1,113.3,216.83Z" transform="translate(18.55)" />
    <path
        d="M142,195.62c1.21.61,1.11,1.81.91,2.81a7.61,7.61,0,0,0-.2,3.7c.2.7-.2.9-.71,1-1.3.1-2.6,0-3.91,0-.5,0-.8-.3-.7-.8.5-1.5,0-2.9-.2-4.4a3.16,3.16,0,0,1,1.3-3.11,2.72,2.72,0,0,1,3.21,0,1.12,1.12,0,0,1,.3.8h-.5c-.1-.1-.1-.1-.2-.1.1,0,.1.1.2.1a1.13,1.13,0,0,0,.5,1v.5c0,.2,0,.5.31.5s.1-.4.1-.6l-.31-.3A4.07,4.07,0,0,1,142,195.62Zm-3.41,0,.11-.1c-.11,0-.11,0-.11.1a1.39,1.39,0,0,0-.5,1c-.1.1-.3.2-.3.3s-.2.5.1.6.2-.3.3-.5v-.5A1.27,1.27,0,0,0,138.57,195.62Zm-.1,3.51c-.7.7-.5,1.7-.4,2.6,0,.3.2.7.5.7a3.9,3.9,0,0,0,2.61,0c.9-.3.7-1.3.6-1.9-.2-.9-.7-.2-1-.1-1.2.4-2,.2-2.31-1.3.71.3,1.31,1.4,2.31.4a2.13,2.13,0,0,0,.2-2.7c-.1-.1-.1-.3-.3-.4-.5-.71-1-.71-1.6-.1a6.45,6.45,0,0,0-.61,2.8Z"
        transform="translate(18.55)" />
    <path
        d="M152.31,202.73c.3.4.41.9-.1.9-1.4.1-2.9,0-4.41,0-.6,0-.6-.5-.5-.9a9.25,9.25,0,0,0-.3-3.7c-.3-1.4.5-3.21,1.6-3.61s2.41-.6,3.31.81l-.1.1c-.5.3-.4.7.1.9h0c-.1,1.2.5,2.7-1,3.5.1-1,.8-2,.2-3.1-.5-.9-1.3-1.1-1.9-.3a2,2,0,0,0-.41,2.1,2.18,2.18,0,0,0,2.11,1.4c-.9.8-1.6.5-2.31-.2-.1-.1-.3-.4-.5-.1-.5.5,0,2.7.8,2.7,1.21.1,2.41.5,3.51-.4Zm-3.41-6.5c-.1.2-.3.3-.5.5a1.39,1.39,0,0,0-.5,1c-.1.1-.3.2-.3.3s-.2.5.1.6.2-.3.3-.5v-.5a1,1,0,0,0,.5-1l.4-.4c.2-.1.51,0,.51-.31a.35.35,0,0,0-.2-.1A1.53,1.53,0,0,1,148.9,196.23Z"
        transform="translate(18.55)" />
    <path
        d="M151.91,196.23c1.61,1.2.81,2.9.81,4.4,0,.7-.51,1.4-.41,2.2l-.1.1c-.6-.6-.4-1.3-.2-2,.3-1.2.6-2.4-.2-3.5h0a2.74,2.74,0,0,0-.1-.9Z"
        transform="translate(18.55)" />
    <path d="M113.5,200.33a3,3,0,0,1-1-2A2,2,0,0,1,113.5,200.33Z" transform="translate(18.55)" />
    <path d="M111.5,197.33a1.33,1.33,0,0,1-1.41-1A1.33,1.33,0,0,1,111.5,197.33Z" transform="translate(18.55)" />
    <path d="M112.05,197.83l-.5-.5A1.21,1.21,0,0,1,112.05,197.83Z" transform="translate(18.55)" />
    <path d="M112.5,198.33l-.5-.5Z" transform="translate(18.55)" />
    <path
        d="M29.05,560.17c2.21-1.3,3.81-.4,4,2.1.1,1.5-.6,2.9-.2,4.4.1.4-.3.7-.7.7a2.74,2.74,0,0,1-.9.1c-3.61,0-3.21.1-3.21-3a5.73,5.73,0,0,0-.2-1.8,1.92,1.92,0,0,1,.6-2l.1.1c.1.3-.2.7.2.9.1.1.4-.3.5-.5v3.1c-.2.1-.4-1.1-.7-.1a4.05,4.05,0,0,0,0,1.1c.2,1.6.2,1.6,1.81,1.6s1.6,0,1.6-1.8v-.9a2.55,2.55,0,0,0,0-3.1c-.1-.2-.3-.3-.4-.5l-.1-.1c.1.1.1.1.2.1s.3.3.6.4v3.2c-.9.2-1.4,1.5-2.41.4a1.79,1.79,0,0,0,1.71-1.86v0a1.93,1.93,0,0,0-1.63-2.19h-.08a1,1,0,0,0-.9-.4Z"
        transform="translate(18.55)" />
    <path
        d="M42.6,561.47a2.33,2.33,0,0,1,.6,1.8c-.1,1.3-.2,2.7-.2,3.9a1.19,1.19,0,0,1-1,1.36,1.16,1.16,0,0,1-.61-.06c-1.21-.2-3.11.9-3.71-.9a15.06,15.06,0,0,1-.1-5.6c0-.2.3-.4.5-.5l.1.1c0,1.7,0,3.5.1,5.2,0,.9.3,1.4,1.3,1.3a3.35,3.35,0,0,1,1.41,0c1,.1,1.2-.4,1.4-1.3a45.13,45.13,0,0,0,.1-5.2Z"
        transform="translate(18.55)" />
    <path
        d="M39.05,560.37a1.77,1.77,0,0,1,2.49,0l0,0-.1.1c-.2.1-.4.1-.6.2.2.1.4.1.6.2l.1.1.5.5h0c0,1.1,0,2.1-.1,3.2a1.4,1.4,0,0,1-1.3,1.3c-.81.1-1.51.1-1.61-1,.8.3,1.61.8,2.21-.2a2.87,2.87,0,0,0,0-2.7,1.1,1.1,0,0,0-1-.6,1.32,1.32,0,0,0-1.1.9c-.1.8-.1,1.7-.2,2.5-.9-1.1-.3-2.3-.5-3.5h0l.5-.5h0c.2-.1.4-.1.6-.2-.1-.1-.3-.1-.5-.3Z"
        transform="translate(18.55)" />
    <path d="M65.67,567.27a1.65,1.65,0,0,1,1,1,.9.9,0,0,1-1-.79A.74.74,0,0,1,65.67,567.27Z"
        transform="translate(18.55)" />
    <path d="M41.7,560.37a1.08,1.08,0,0,1,1,1l-.1.1a1.09,1.09,0,0,1-.5-.1h0l-.5-.5-.1-.1c.1,0,.1-.1.2-.4Z"
        transform="translate(18.55)" />
    <path d="M38.05,561.47a1.08,1.08,0,0,1,1-1l.1.1v.5h0l-.5.5h-.5Z" transform="translate(18.55)" />
    <path d="M28.26,560.27l.5-.5.1.1C28.66,560,28.46,560.17,28.26,560.27Z" transform="translate(18.55)" />
    <path d="M65.05,566.77l.51.5A1.12,1.12,0,0,0,65.05,566.77Z" transform="translate(18.55)" />
    <path d="M32.05,586.47h-.5a5.14,5.14,0,0,0-.9-4,1.41,1.41,0,0,1,1.41,1.43,1,1,0,0,1,0,.17Z"
        transform="translate(18.55)" />
    <path d="M30.57,582.47a4.1,4.1,0,0,1-1.41.5C29.46,582.37,29.76,581.57,30.57,582.47Z"
        transform="translate(18.55)" />
    <path d="M32.37,586.87H31.05a3.15,3.15,0,0,0,.3-.5l1,.3Z" transform="translate(18.55)" />
    <path d="M41.8,587.57c-.2.1-.3.3-.5.5h-1c1.11-1.1,1.11-2.5,1-4C42.3,585.07,41.7,586.37,41.8,587.57Z"
        transform="translate(18.55)" />
    <path d="M38.39,587.57c.1-1.1-.4-2.4.5-3.4a5.14,5.14,0,0,0,.9,4h-1C38.69,587.88,38.59,587.88,38.39,587.57Z"
        transform="translate(18.55)" />
    <path d="M41.4,584A2,2,0,0,0,39,584C39.89,582.57,40.49,582.57,41.4,584Z" transform="translate(18.55)" />
    <path d="M139.38,215.63c1.2-.8,1.6,0,2,1A12.45,12.45,0,0,1,139.38,215.63Z" transform="translate(18.55)" />
    <path d="M138.37,216.63c0-.6.31-.9,1-1A1.65,1.65,0,0,1,138.37,216.63Z" transform="translate(18.55)" />
    <path d="M151.61,220.23a4.68,4.68,0,0,0-1,.5,5.52,5.52,0,0,0,0-4C152.11,217.63,151.51,219,151.61,220.23Z"
        transform="translate(18.55)" />
    <path d="M29.26,564.37l.5.5A1.21,1.21,0,0,0,29.26,564.37Z" transform="translate(18.55)" />
    <path d="M29.36,560.87l.5-.5A1.21,1.21,0,0,0,29.36,560.87Z" transform="translate(18.55)" />
    <polyline class="cls-1" points="168.97 169.31 155.03 169.17 155.75 95.66 169.69 95.8" />
    <path
        d="M7.39,386.78a6.9,6.9,0,0,1,1.81-.22,2.34,2.34,0,0,1,2.1.89,3.52,3.52,0,0,1,.58,2.09,3,3,0,0,1-1.37,2.8v.05c.56.3.89,1.08,1.06,2.22a25.58,25.58,0,0,0,.57,3h-1a21.33,21.33,0,0,1-.48-2.63c-.22-1.51-.61-2.09-1.46-2.13H8.31v4.76H7.37Zm.94,5h1c1,0,1.64-.83,1.64-2.09a1.8,1.8,0,0,0-1.68-2.05,2.65,2.65,0,0,0-.93.13Z"
        transform="translate(18.55)" />
    <path
        d="M17.55,395.48v2.15h-.84v-1.29h0A2,2,0,0,1,15,397.81c-.82,0-1.81-.69-1.81-3.46v-4.61h.88v4.37c0,1.5.31,2.51,1.17,2.51.64,0,1.08-.67,1.25-1.31a3,3,0,0,0,.09-.73v-4.84h1Z"
        transform="translate(18.55)" />
    <path
        d="M22.05,397.63l-.08-1h0a1.85,1.85,0,0,1-1.6,1.18c-1.06,0-1.6-1.13-1.6-2.27a2.7,2.7,0,0,1,3.14-2.93v-.17c0-.65-.11-1.82-1.18-1.82a2,2,0,0,0-1.36.58l-.22-.94a2.46,2.46,0,0,1,1.72-.7c1.6,0,2,1.64,2,3.22v3q0,.95.09,1.89Zm-.14-4c-1,0-2.22.24-2.22,1.78,0,.93.41,1.37.9,1.37.68,0,1.11-.66,1.26-1.32a3.62,3.62,0,0,0,.06-.46Z"
        transform="translate(18.55)" />
    <path
        d="M24.34,391.87v-2.13h.84V391h0a2,2,0,0,1,1.72-1.48c.73,0,1.85.65,1.85,3.35v4.72h-1v-4.55c0-1.27-.31-2.33-1.21-2.33-.63,0-1.11.67-1.27,1.46a3,3,0,0,0-.07.67v4.75h-1Z"
        transform="translate(18.55)" />
    <path
        d="M34.84,389.74v6.75a6.18,6.18,0,0,1-.74,3.6,2.26,2.26,0,0,1-1.91.94,2.5,2.5,0,0,1-1.73-.65l.23-1.09a2.28,2.28,0,0,0,1.54.62c1,0,1.68-.77,1.68-2.76v-.88h0a1.83,1.83,0,0,1-1.66,1.32c-1.3,0-2.23-1.66-2.23-3.84,0-2.68,1.16-4.19,2.36-4.19A1.78,1.78,0,0,1,34,390.93h0v-1.19Zm-1,3.11a2.81,2.81,0,0,0-.05-.65c-.18-.83-.64-1.52-1.33-1.52-.91,0-1.56,1.16-1.56,3,0,1.55.52,2.84,1.55,2.84.58,0,1.11-.55,1.32-1.47a3.91,3.91,0,0,0,.07-.76Z"
        transform="translate(18.55)" />
    <path
        d="M38.58,395.9a2.57,2.57,0,0,0,1.68.72c1,0,1.52-.77,1.52-1.88a2.26,2.26,0,0,0-1.37-2.18,3.28,3.28,0,0,1-1.92-3.12c0-1.71.94-3,2.35-3a2.42,2.42,0,0,1,1.61.54l-.26,1.15a2.19,2.19,0,0,0-1.38-.52,1.48,1.48,0,0,0-1.38,1.56s0,.06,0,.09c0,1,.44,1.53,1.45,2.12a3.35,3.35,0,0,1,1.86,3.23c0,1.69-.84,3.16-2.55,3.16a2.85,2.85,0,0,1-1.86-.7Z"
        transform="translate(18.55)" />
    <path
        d="M45.05,387.52c0,.49-.23.88-.6.88s-.58-.39-.58-.88.25-.9.6-.9S45.05,387,45.05,387.52Zm-1,10.11v-7.89h1v7.89Z"
        transform="translate(18.55)" />
    <path
        d="M51.05,386.05v11.54H50.2l-.05-1.37h0a2,2,0,0,1-1.78,1.55c-1.27,0-2.24-1.62-2.24-4,0-2.63,1.07-4.24,2.35-4.24a1.69,1.69,0,0,1,1.57,1.2h0V386ZM50.1,393a4.18,4.18,0,0,0-.05-.61c-.14-.91-.66-1.66-1.37-1.66-1,0-1.57,1.31-1.57,3.05s.52,2.92,1.55,2.92c.64,0,1.22-.64,1.39-1.71a4.32,4.32,0,0,0,.05-.62Z"
        transform="translate(18.55)" />
    <path
        d="M55.52,397.63l-.07-1h0a1.85,1.85,0,0,1-1.6,1.18c-1,0-1.59-1.13-1.59-2.27a2.7,2.7,0,0,1,3.14-2.93v-.17c0-.65-.12-1.82-1.19-1.82a2,2,0,0,0-1.36.58l-.22-.94a2.46,2.46,0,0,1,1.72-.7c1.6,0,2,1.64,2,3.22v3a15,15,0,0,0,.09,1.89Zm-.14-4c-1,0-2.21.24-2.21,1.78,0,.93.41,1.37.89,1.37.68,0,1.12-.66,1.27-1.32a2.4,2.4,0,0,0,.05-.46Z"
        transform="translate(18.55)" />
    <path
        d="M57.84,391.87v-2.13h.85V391h0a2,2,0,0,1,1.73-1.48c.72,0,1.85.65,1.85,3.35v4.72h-1v-4.55c0-1.27-.32-2.33-1.21-2.33-.63,0-1.12.67-1.28,1.46a3.79,3.79,0,0,0-.06.67v4.75h-1Z"
        transform="translate(18.55)" />
    <path
        d="M68.34,389.74v6.75a6.1,6.1,0,0,1-.75,3.6,2.23,2.23,0,0,1-1.9.94,2.53,2.53,0,0,1-1.74-.65l.24-1.09a2.19,2.19,0,0,0,1.53.62c1,0,1.69-.77,1.69-2.76v-.88h0a1.84,1.84,0,0,1-1.67,1.32c-1.29,0-2.22-1.66-2.22-3.84,0-2.68,1.15-4.19,2.35-4.19a1.77,1.77,0,0,1,1.63,1.37h0v-1.19Zm-1,3.11a2.35,2.35,0,0,0-.06-.65c-.17-.83-.64-1.52-1.33-1.52-.9,0-1.55,1.16-1.55,3,0,1.55.52,2.84,1.54,2.84.59,0,1.12-.55,1.32-1.47a3.84,3.84,0,0,0,.08-.76Z"
        transform="translate(18.55)" />
    <path d="M10,429.25h1.68v8.36h5.58v1H10Z" transform="translate(18.55)" />
    <path
        d="M24.24,438.62l-.14-.84h-.05a4.09,4.09,0,0,1-2.86,1c-1.9,0-2.86-1-2.86-1.94,0-1.62,2-2.51,5.63-2.5v-.14c0-.55-.22-1.56-2.13-1.56a6.19,6.19,0,0,0-2.44.5l-.39-.8a7.72,7.72,0,0,1,3.08-.6c2.86,0,3.56,1.4,3.56,2.75V437a7.26,7.26,0,0,0,.15,1.61ZM24,435.19c-1.85,0-4,.21-4,1.51,0,.8.73,1.17,1.6,1.17a2.4,2.4,0,0,0,2.27-1.12.89.89,0,0,0,.09-.39Z"
        transform="translate(18.55)" />
    <path
        d="M28.3,438.62c0-.46.08-1.14.08-1.73v-8.14h1.67V433h0a4,4,0,0,1,3.2-1.24c2.32,0,4,1.39,3.94,3.44,0,2.4-2.11,3.6-4.19,3.6a3.74,3.74,0,0,1-3.14-1.27H29.8l-.07,1.11Zm1.77-2.69a1.62,1.62,0,0,0,.07.44,2.62,2.62,0,0,0,2.56,1.43,2.56,2.56,0,1,0,.55-5.09,2.53,2.53,0,0,0-.55,0,2.69,2.69,0,0,0-2.59,1.51,2.1,2.1,0,0,0-.09.5Z"
        transform="translate(18.55)" />
    <path d="M45.24,429.25v9.37H43.56v-9.37Z" transform="translate(18.55)" />
    <path
        d="M56.6,435.2c0,2.49-2.4,3.58-4.66,3.58-2.54,0-4.49-1.34-4.49-3.47s2-3.57,4.64-3.57S56.6,433.14,56.6,435.2Zm-7.43.07a2.86,2.86,0,1,0,2.55-2.55A2.86,2.86,0,0,0,49.17,435.27Z"
        transform="translate(18.55)" />
    <path d="M60.52,430.28h-4v-1h9.65v1h-4v8.34h-1.7Z" transform="translate(18.55)" />
    <path
        d="M26.83,534.93a10,10,0,0,1-.18-2.18,3.23,3.23,0,0,1,.91-2.52,2.91,2.91,0,0,1,2-.65,2.72,2.72,0,0,1,2.64,1.7h0A2.58,2.58,0,0,1,34.39,530a18.07,18.07,0,0,0,2.9-.63v1.18a16.86,16.86,0,0,1-2.52.53c-1.46.24-2,.7-2.08,1.72v1.07l4.55.09v1.13Zm4.8-1v-1.16a1.86,1.86,0,0,0-1.71-2h-.29a1.81,1.81,0,0,0-2,1.6,2.67,2.67,0,0,0,0,.4,3.84,3.84,0,0,0,.1,1.12Z"
        transform="translate(18.55)" />
    <path
        d="M35.37,522.85h2.05v1H36.18A2.32,2.32,0,0,1,37.54,526c0,1-.69,2.16-3.34,2.11L29.79,528v-1.15l4.17.08c1.43,0,2.41-.32,2.43-1.36A1.7,1.7,0,0,0,35.17,524a2.1,2.1,0,0,0-.7-.12l-4.63-.09v-1.15Z"
        transform="translate(18.55)" />
    <path
        d="M37.53,517.49l-1,.08h0a2.23,2.23,0,0,1,1.09,1.95,2,2,0,0,1-2.11,1.89h-.09c-1.83,0-2.8-1.41-2.73-3.84h-.16c-.62,0-1.75.11-1.77,1.39a2.73,2.73,0,0,0,.53,1.65l-.91.25a3.45,3.45,0,0,1-.63-2.08c0-1.93,1.62-2.37,3.13-2.34h2.82a12.18,12.18,0,0,0,1.81-.07Zm-3.85.1c-.06,1.25.18,2.67,1.64,2.7.89,0,1.32-.47,1.33-1A1.72,1.72,0,0,0,35,517.67Z"
        transform="translate(18.55)" />
    <path
        d="M32.05,514.6h-2v-1H31.3a2.3,2.3,0,0,1-1.38-2.11c0-.87.67-2.21,3.25-2.16l4.5.08v1.15l-4.34-.09c-1.22,0-2.24.34-2.26,1.42a1.7,1.7,0,0,0,1.37,1.56,2.3,2.3,0,0,0,.64.09l4.53.09v1.15Z"
        transform="translate(18.55)" />
    <path
        d="M30.28,501.9c.55,0,1.16.08,2.07.09l4.38.09c1.73,0,2.78.34,3.43,1a3,3,0,0,1,.86,2.31,3.56,3.56,0,0,1-.67,2.09l-1-.31a3.2,3.2,0,0,0,.62-1.84c0-1.17-.69-2-2.59-2.08h-.84a2.17,2.17,0,0,1,1.22,2c0,1.56-1.64,2.65-3.73,2.61-2.55-.05-4-1.47-4-2.91A2.09,2.09,0,0,1,31.43,503h0l-1.13-.08Zm3,1.24a2.25,2.25,0,0,0-.63.06,1.73,1.73,0,0,0-1.48,1.57c0,1.09,1.07,1.9,2.82,1.93,1.48,0,2.72-.57,2.74-1.81a1.72,1.72,0,0,0-1.37-1.61,2.58,2.58,0,0,0-.73-.11Z"
        transform="translate(18.55)" />
    <path
        d="M27.55,497.19a13,13,0,0,1-.17-2.41,4.51,4.51,0,0,1,1.38-3.53,5.41,5.41,0,0,1,3.79-1.16,6.16,6.16,0,0,1,4.06,1.34,4.91,4.91,0,0,1,1.44,3.91,15.6,15.6,0,0,1-.17,2.05Zm9.31-.95a6.27,6.27,0,0,0,.1-1.14c0-2.43-1.55-3.77-4.38-3.83-2.48-.06-4.08,1.08-4.12,3.48a5.4,5.4,0,0,0,.11,1.33Z"
        transform="translate(18.55)" />
    <path
        d="M34.36,482.93c2.78.05,4,1.69,3.94,3.21,0,1.71-1.55,3-3.94,2.95s-4-1.46-3.94-3.2S32.05,482.89,34.36,482.93Zm0,5c1.65,0,2.91-.74,2.93-1.86s-1.19-1.94-2.89-2c-1.28,0-2.91.48-2.93,1.83s1.43,2,2.87,2Z"
        transform="translate(18.55)" />
    <path
        d="M36.81,481.68a2.73,2.73,0,0,0,.58-1.5,1.09,1.09,0,0,0-.93-1.23h-.17c-.66,0-1,.3-1.41,1.14a2.33,2.33,0,0,1-2.17,1.63,2.11,2.11,0,0,1-2.17-2v-.17a2.75,2.75,0,0,1,.51-1.49l1,.31a2.13,2.13,0,0,0-.46,1.28,1,1,0,0,0,.93,1.07h.07c.62,0,.91-.36,1.3-1.17a2.33,2.33,0,0,1,2.3-1.61,2.14,2.14,0,0,1,2.23,2.06,1.9,1.9,0,0,1,0,.34,3.24,3.24,0,0,1-.55,1.76Z"
        transform="translate(18.55)" />
    <path
        d="M34.81,475.69c1.85,0,2.63-1,2.66-2.11a3.54,3.54,0,0,0-.36-1.75l1-.18a4.4,4.4,0,0,1,.43,2.11c0,1.94-1.59,3.07-3.86,3s-4-1.2-4-3c0-2.06,2.22-2.56,3.6-2.54a2.22,2.22,0,0,1,.64,0Zm-.92-3.38c-.87,0-2.23.26-2.26,1.55s1.25,1.69,2.2,1.8Z"
        transform="translate(18.55)" />
    <path
        d="M32.94,469.76h-2v-1h1.25a2.27,2.27,0,0,1-1.38-2.11c0-.87.67-2.21,3.25-2.16l4.5.09v1.14l-4.34-.08c-1.22,0-2.24.33-2.26,1.41a1.7,1.7,0,0,0,1.37,1.57,3.4,3.4,0,0,0,.64.09l4.53.08v1.15Z"
        transform="translate(18.55)" />
    <path
        d="M130.24,321.19a9.49,9.49,0,0,1-.19-2.19,3.25,3.25,0,0,1,.9-2.53,3,3,0,0,1,2-.65,2.76,2.76,0,0,1,2.65,1.71h0a2.63,2.63,0,0,1,2.15-1.25,20.37,20.37,0,0,0,2.89-.62v1.17a15.49,15.49,0,0,1-2.52.54c-1.45.23-2,.69-2.08,1.72v1.06l4.55.09v1.13Zm4.81-1V319a1.86,1.86,0,0,0-1.71-2h-.29a1.81,1.81,0,0,0-2,1.6,2.67,2.67,0,0,0,0,.4,4.21,4.21,0,0,0,.1,1.12Z"
        transform="translate(18.55)" />
    <path
        d="M138.78,309.11h2.06v1l-1.24.05h0a2.34,2.34,0,0,1,1.37,2.11c0,1-.7,2.16-3.35,2.11l-4.41-.08v-1.15l4.17.08c1.43,0,2.41-.32,2.43-1.36a1.7,1.7,0,0,0-1.22-1.53,2.78,2.78,0,0,0-.7-.12l-4.63-.09V309Z"
        transform="translate(18.55)" />
    <path
        d="M140.94,303.76l-.95.07h0a2.24,2.24,0,0,1,1.08,1.95,2,2,0,0,1-2.11,1.89h-.09c-1.82,0-2.8-1.4-2.73-3.84H136c-.62,0-1.75.11-1.77,1.4a2.73,2.73,0,0,0,.53,1.65l-.91.24a3.59,3.59,0,0,1-.63-2.08c0-1.93,1.62-2.37,3.13-2.34l2.82.06a15.65,15.65,0,0,0,1.81-.07Zm-3.85.09c-.06,1.25.18,2.68,1.64,2.7.89,0,1.32-.47,1.33-1.05a1.72,1.72,0,0,0-1.66-1.62Z"
        transform="translate(18.55)" />
    <path
        d="M135.49,300.86h-2v-1h1.25a2.29,2.29,0,0,1-1.38-2.11c0-.87.67-2.21,3.25-2.16l4.5.08v1.15l-4.34-.08c-1.22,0-2.24.33-2.26,1.41a1.71,1.71,0,0,0,1.37,1.57,3.4,3.4,0,0,0,.64.09l4.53.08V301Z"
        transform="translate(18.55)" />
    <path
        d="M133.7,288.16c.54,0,1.15.08,2.07.1l4.37.08c1.73,0,2.79.34,3.43,1a3,3,0,0,1,.86,2.31,3.56,3.56,0,0,1-.67,2.09l-1-.31a3.07,3.07,0,0,0,.62-1.84c0-1.17-.69-2-2.59-2.08H140a2.2,2.2,0,0,1,1.22,2c0,1.56-1.64,2.65-3.73,2.61-2.55-.05-4-1.47-3.94-2.91a2.07,2.07,0,0,1,1.34-1.94h0l-1.13-.07Zm3,1.25a2.22,2.22,0,0,0-.63,0,1.73,1.73,0,0,0-1.48,1.57c0,1.1,1.07,1.9,2.82,1.93,1.48,0,2.72-.57,2.74-1.81a1.72,1.72,0,0,0-1.37-1.61,3,3,0,0,0-.73-.11Z"
        transform="translate(18.55)" />
    <path
        d="M131,283.46a14,14,0,0,1-.18-2.42,4.51,4.51,0,0,1,1.38-3.52,5.36,5.36,0,0,1,3.79-1.17,6.16,6.16,0,0,1,4.06,1.34,4.92,4.92,0,0,1,1.44,3.91,15.75,15.75,0,0,1-.17,2.06Zm9.3-1a6.27,6.27,0,0,0,.1-1.14c0-2.42-1.55-3.77-4.38-3.82-2.48-.06-4.08,1.08-4.12,3.47a5.4,5.4,0,0,0,.11,1.33Z"
        transform="translate(18.55)" />
    <path
        d="M137.77,269.19c2.79.06,4,1.69,3.94,3.22,0,1.7-1.55,3-3.94,2.94s-4-1.45-3.94-3.2S135.46,269.15,137.77,269.19Zm0,5c1.65,0,2.91-.74,2.93-1.86s-1.19-1.93-2.89-2c-1.28,0-2.91.48-2.93,1.84s1.44,2,2.87,2Z"
        transform="translate(18.55)" />
    <path
        d="M140.22,268a2.73,2.73,0,0,0,.58-1.5,1.09,1.09,0,0,0-.92-1.24h-.18c-.66,0-1,.31-1.41,1.15a2.31,2.31,0,0,1-2.17,1.62,2.11,2.11,0,0,1-2.17-2v-.17a2.82,2.82,0,0,1,.5-1.54l1,.31a2.13,2.13,0,0,0-.46,1.28,1,1,0,0,0,.92,1.08H136c.62,0,.91-.37,1.3-1.18a2.34,2.34,0,0,1,2.3-1.61,2.16,2.16,0,0,1,2.23,2.09,1.61,1.61,0,0,1,0,.31,3.16,3.16,0,0,1-.55,1.76Z"
        transform="translate(18.55)" />
    <path
        d="M138.22,262c1.85,0,2.63-1,2.66-2.11a3.54,3.54,0,0,0-.36-1.75l1-.18a4.4,4.4,0,0,1,.43,2.11c0,1.94-1.58,3.07-3.86,3s-4-1.19-4-3c0-2.06,2.22-2.56,3.6-2.54.21,0,.43,0,.64.06Zm-.92-3.38c-.87,0-2.23.26-2.26,1.55s1.25,1.69,2.2,1.8Z"
        transform="translate(18.55)" />
    <path
        d="M136.35,256h-2v-1h1.25a2.3,2.3,0,0,1-1.38-2.11c0-.88.67-2.22,3.25-2.17l4.5.09V252l-4.34-.08c-1.22,0-2.24.34-2.26,1.42a1.7,1.7,0,0,0,1.37,1.56,3.4,3.4,0,0,0,.64.09l4.53.09v1.14Z"
        transform="translate(18.55)" />
    <path
        d="M132.41,166a9.84,9.84,0,0,1-.18-2.17,3.29,3.29,0,0,1,.91-2.53,3,3,0,0,1,2-.65,2.74,2.74,0,0,1,2.64,1.71h.05a2.61,2.61,0,0,1,2.14-1.25,20.5,20.5,0,0,0,2.9-.62v1.17a15.49,15.49,0,0,1-2.52.54c-1.46.23-2,.69-2.08,1.72V165l4.55.09v1.13Zm4.8-1v-1.16a1.86,1.86,0,0,0-1.71-2h-.29a1.81,1.81,0,0,0-2,1.6,2.67,2.67,0,0,0,0,.4,3.84,3.84,0,0,0,.1,1.12Z"
        transform="translate(18.55)" />
    <path
        d="M141,153.89H143v1l-1.24.05h0a2.32,2.32,0,0,1,1.36,2.11c0,1-.69,2.16-3.34,2.11l-4.41-.08v-1.15l4.18.08c1.43,0,2.41-.32,2.43-1.36a1.7,1.7,0,0,0-1.22-1.53,2.78,2.78,0,0,0-.7-.12l-4.63-.09v-1.14Z"
        transform="translate(18.55)" />
    <path
        d="M143.11,148.54l-1,.07h0a2.23,2.23,0,0,1,1.09,1.95,2,2,0,0,1-2.11,1.89h-.09c-1.83,0-2.8-1.4-2.73-3.84h-.16c-.62,0-1.75.11-1.77,1.4a2.73,2.73,0,0,0,.53,1.65l-.91.24a3.45,3.45,0,0,1-.63-2.08c0-1.93,1.62-2.37,3.13-2.34l2.82.06a15.65,15.65,0,0,0,1.81-.07Zm-3.85.09c-.06,1.25.18,2.68,1.64,2.7.89,0,1.32-.47,1.33-1.05a1.72,1.72,0,0,0-1.67-1.62Z"
        transform="translate(18.55)" />
    <path
        d="M137.66,145.64h-2v-1h1.25a2.29,2.29,0,0,1-1.38-2.11c0-.87.67-2.21,3.25-2.16l4.5.08v1.15l-4.34-.08c-1.22,0-2.24.33-2.26,1.41a1.71,1.71,0,0,0,1.37,1.57,3.4,3.4,0,0,0,.64.09l4.53.08v1.15Z"
        transform="translate(18.55)" />
    <path
        d="M135.86,132.94c.55,0,1.16.08,2.07.1l4.38.08c1.73,0,2.78.34,3.43,1a3,3,0,0,1,.86,2.31,3.56,3.56,0,0,1-.67,2.09l-1-.31a3.2,3.2,0,0,0,.62-1.84c0-1.17-.69-2-2.59-2.08h-.91a2.2,2.2,0,0,1,1.22,2c0,1.56-1.64,2.65-3.73,2.61-2.55-.05-4-1.47-3.95-2.91a2.08,2.08,0,0,1,1.35-1.94h0L135.8,134Zm3,1.25a1.92,1.92,0,0,0-.63.05,1.73,1.73,0,0,0-1.48,1.57c0,1.1,1.07,1.9,2.82,1.93,1.48,0,2.72-.57,2.74-1.81a1.72,1.72,0,0,0-1.37-1.61,3,3,0,0,0-.73-.11Z"
        transform="translate(18.55)" />
    <path
        d="M133.13,128.24a13.08,13.08,0,0,1-.17-2.42,4.51,4.51,0,0,1,1.38-3.52,5.36,5.36,0,0,1,3.79-1.17,6.16,6.16,0,0,1,4.06,1.34,4.92,4.92,0,0,1,1.44,3.91,15.75,15.75,0,0,1-.17,2.06Zm9.31-1a6.27,6.27,0,0,0,.1-1.14c.05-2.42-1.55-3.77-4.38-3.82-2.48-.06-4.08,1.08-4.12,3.47a5.4,5.4,0,0,0,.11,1.33Z"
        transform="translate(18.55)" />
    <path
        d="M139.94,114c2.78.06,4,1.69,3.94,3.22,0,1.7-1.55,3-3.94,2.94s-4-1.45-3.94-3.2S137.63,113.93,139.94,114Zm0,5c1.65,0,2.91-.74,2.93-1.86s-1.19-1.93-2.89-2c-1.28,0-2.91.48-2.93,1.84s1.43,2,2.87,2Z"
        transform="translate(18.55)" />
    <path
        d="M142.39,112.73a2.73,2.73,0,0,0,.58-1.5,1.09,1.09,0,0,0-.92-1.24h-.18c-.66,0-1,.31-1.41,1.15a2.32,2.32,0,0,1-2.17,1.62,2.11,2.11,0,0,1-2.17-2v-.16a2.75,2.75,0,0,1,.5-1.55l1,.31a2.13,2.13,0,0,0-.46,1.28,1,1,0,0,0,.92,1.08h.08c.62,0,.91-.36,1.3-1.18a2.34,2.34,0,0,1,2.3-1.61A2.16,2.16,0,0,1,144,111a1.61,1.61,0,0,1,0,.31,3.16,3.16,0,0,1-.55,1.76Z"
        transform="translate(18.55)" />
    <path
        d="M140.39,106.73c1.85,0,2.63-1,2.65-2.11a3.42,3.42,0,0,0-.35-1.75l1-.18a4.4,4.4,0,0,1,.43,2.11c0,1.94-1.59,3.07-3.86,3s-4-1.19-4-3c0-2.06,2.22-2.56,3.6-2.54.21,0,.43,0,.64.06Zm-.92-3.37c-.87,0-2.23.25-2.26,1.54s1.25,1.69,2.2,1.8Z"
        transform="translate(18.55)" />
    <path
        d="M138.52,100.81h-2v-1h1.25a2.3,2.3,0,0,1-1.38-2.11c0-.88.66-2.22,3.25-2.17l4.5.09v1.14l-4.35-.08c-1.21,0-2.23.34-2.25,1.42a1.7,1.7,0,0,0,1.37,1.56,3.4,3.4,0,0,0,.64.09l4.53.09V101Z"
        transform="translate(18.55)" />
    <path d="M116.74,62.27H118v8.51h4.07v1h-5.34Z" transform="translate(18.55)" />
    <path
        d="M127.25,71.81l-.1-.86h0a2.56,2.56,0,0,1-2.1,1,2,2,0,0,1-2.11-1.89V70c0-1.66,1.48-2.56,4.14-2.55v-.14a1.42,1.42,0,0,0-1.21-1.59,2,2,0,0,0-.35,0,3.45,3.45,0,0,0-1.8.51l-.29-.82a4.32,4.32,0,0,1,2.27-.61c2.11,0,2.62,1.43,2.62,2.81v2.56a9,9,0,0,0,.12,1.64Zm-.2-3.49c-1.37,0-2.92.21-2.92,1.54a1.1,1.1,0,0,0,1,1.19h.18A1.71,1.71,0,0,0,127,69.9a1.34,1.34,0,0,0,.07-.39Z"
        transform="translate(18.55)" />
    <path
        d="M130.25,71.81c0-.46.05-1.16.05-1.77V61.76h1.24v4.3h0a2.58,2.58,0,0,1,2.36-1.26c1.71,0,2.92,1.42,2.9,3.5,0,2.45-1.55,3.67-3.09,3.67a2.45,2.45,0,0,1-2.31-1.29h0l-.06,1.13Zm1.29-2.74a1.74,1.74,0,0,0,.06.45A1.94,1.94,0,0,0,133.48,71c1.31,0,2.1-1.06,2.1-2.64,0-1.37-.71-2.54-2-2.54a2,2,0,0,0-1.91,1.53,2.09,2.09,0,0,0-.08.5Z"
        transform="translate(18.55)" />
    <path d="M142.73,62.27v4h4.65v-4h1.25v9.54h-1.25V67.34h-4.65v4.47h-1.24V62.27Z" transform="translate(18.55)" />
    <path d="M155.77,67.34h-3.72v3.44h4.17v1h-5.41V62.27H156v1h-3.95v3h3.74Z" transform="translate(18.55)" />
    <path
        d="M157.64,70.31a4.46,4.46,0,0,0,2.22.63c1.27,0,2-.67,2-1.63s-.51-1.4-1.81-1.9c-1.57-.55-2.54-1.36-2.54-2.7a2.86,2.86,0,0,1,3.11-2.6,4.48,4.48,0,0,1,2.13.47l-.34,1a3.88,3.88,0,0,0-1.83-.46c-1.31,0-1.81.78-1.81,1.43,0,.9.58,1.33,1.91,1.84,1.63.63,2.45,1.41,2.45,2.81s-1.08,2.8-3.35,2.8a5,5,0,0,1-2.45-.61Z"
        transform="translate(18.55)" />
    <path d="M111.05,342.35h1.1v9.24h3.66v1.13h-4.76Z" transform="translate(18.55)" />
    <path
        d="M120.4,352.72l-.09-.94h0a2.18,2.18,0,0,1-1.88,1.11,2,2,0,0,1-1.88-2.11v0c0-1.8,1.32-2.79,3.69-2.77v-.15c0-.62-.13-1.73-1.39-1.73a2.72,2.72,0,0,0-1.6.56l-.26-.9a3.35,3.35,0,0,1,2-.66c1.88,0,2.34,1.56,2.34,3v2.78a11.87,11.87,0,0,0,.1,1.79Zm-.17-3.8c-1.22,0-2.6.23-2.6,1.67,0,.88.48,1.3,1.05,1.3a1.6,1.6,0,0,0,1.49-1.25,3,3,0,0,0,.06-.43Z"
        transform="translate(18.55)" />
    <path
        d="M123.05,352.72c0-.51.06-1.26.06-1.93v-9h1.1v4.67h0a2.24,2.24,0,0,1,2.09-1.37c1.52,0,2.6,1.54,2.59,3.8,0,2.66-1.38,4-2.75,4a2.15,2.15,0,0,1-2.06-1.4h0v1.23Zm1.16-3a4.07,4.07,0,0,0,.05.49,1.82,1.82,0,0,0,1.68,1.59c1.16,0,1.86-1.15,1.86-2.86,0-1.49-.63-2.77-1.83-2.77a1.88,1.88,0,0,0-1.7,1.66,5.14,5.14,0,0,0-.06.55Z"
        transform="translate(18.55)" />
    <path d="M133.05,342.35h4.61v1.12h-3.5v3.45h3.24V348h-3.24v4.7h-1.11Z" transform="translate(18.55)" />
    <path
        d="M144.39,348.93c0,2.76-1.58,4-3.06,4-1.66,0-3-1.48-3-3.83s1.35-4,3.05-4S144.39,346.66,144.39,348.93Zm-4.88.08c0,1.63.78,2.86,1.87,2.86s1.87-1.21,1.87-2.89c0-1.26-.52-2.86-1.85-2.86s-1.89,1.47-1.89,2.88Z"
        transform="translate(18.55)" />
    <path
        d="M145.8,347.59c0-.87,0-1.63-.05-2.32h1v1.46h0a1.94,1.94,0,0,1,1.7-1.63.86.86,0,0,1,.32,0v1.28a1,1,0,0,0-.39-.05c-.78,0-1.34.72-1.49,1.74a4.46,4.46,0,0,0,0,.63v4h-1.11Z"
        transform="translate(18.55)" />
    <path
        d="M150.45,349.24c0,1.83,1,2.58,2.11,2.58a3.45,3.45,0,0,0,1.7-.38l.19,1a4.35,4.35,0,0,1-2,.46c-1.9,0-3-1.51-3-3.75s1.1-4,2.89-4c2,0,2.54,2.14,2.54,3.51v.63Zm3.28-1c0-.86-.3-2.2-1.55-2.2s-1.63,1.26-1.72,2.2Z"
        transform="translate(18.55)" />
    <path
        d="M156.05,351.33a2.55,2.55,0,0,0,1.47.54,1.06,1.06,0,0,0,1.19-.93,1.09,1.09,0,0,0,0-.18c0-.64-.32-1-1.15-1.37a2.29,2.29,0,0,1-1.62-2.1,2.07,2.07,0,0,1,2-2.19h.15a2.71,2.71,0,0,1,1.51.46l-.28,1a2,2,0,0,0-1.26-.43,1,1,0,0,0-1,1c0,.62.37.89,1.17,1.26a2.31,2.31,0,0,1,1.61,2.25,2.11,2.11,0,0,1-2,2.23h-.31a3,3,0,0,1-1.73-.51Z"
        transform="translate(18.55)" />
    <path
        d="M162.57,343.13v2.14h1.6v1h-1.6v4c0,.92.21,1.44.84,1.44a1.74,1.74,0,0,0,.64-.09l0,1a2.46,2.46,0,0,1-1,.18,1.41,1.41,0,0,1-1.2-.57,3.13,3.13,0,0,1-.43-1.94v-4h-1v-1h1v-1.78Z"
        transform="translate(18.55)" />
    <path
        d="M144.72,30l-.62,1.37h-.78l2-4.35h.92l2,4.35h-.82L146.81,30Zm1.93-.44-.6-1.22a6,6,0,0,1-.3-.8h0c-.09.26-.19.53-.3.79l-.58,1.26Z"
        transform="translate(18.55)" />
    <path
        d="M149.05,29.25v-1h.67v.62h0a1.25,1.25,0,0,1,1.17-.69h.22v.54h-.26a1,1,0,0,0-1,.73,1.22,1.22,0,0,0,0,.27V31.4h-.8Z"
        transform="translate(18.55)" />
    <path
        d="M154.22,31.4l-.06-.39h0a1.8,1.8,0,0,1-1.29.46c-.86,0-1.29-.44-1.29-.89,0-.76.91-1.17,2.54-1.17v-.06c0-.26-.1-.73-1-.73a2.59,2.59,0,0,0-1.1.24l-.18-.38a3.32,3.32,0,0,1,1.39-.28c1.3,0,1.61.66,1.61,1.28v1.17a3.81,3.81,0,0,0,.07.75Zm-.11-1.59c-.84,0-1.79.09-1.79.7,0,.37.33.54.72.54a1.07,1.07,0,0,0,1-.52.41.41,0,0,0,.05-.18Z"
        transform="translate(18.55)" />
    <path
        d="M156.05,26.81h.77v2h0a1.18,1.18,0,0,1,.55-.41,2.14,2.14,0,0,1,.79-.16,1.32,1.32,0,0,1,1.46,1.18.86.86,0,0,1,0,.16V31.4h-.77V29.61a.85.85,0,0,0-.75-.94.7.7,0,0,0-.25,0,1.12,1.12,0,0,0-1,.56.54.54,0,0,0-.05.28V31.4h-.76Z"
        transform="translate(18.55)" />
    <path
        d="M162.83,27.1a11.8,11.8,0,0,1,1.46-.09,3,3,0,0,1,1.65.37,1,1,0,0,1,.51.91,1.12,1.12,0,0,1-.45.93,2.93,2.93,0,0,1-1.8.48,3.11,3.11,0,0,1-.61,0v1.7h-.76Zm.76,2.1a3.32,3.32,0,0,0,.63,0c.91,0,1.47-.33,1.47-.93s-.55-.85-1.39-.85a4.21,4.21,0,0,0-.71,0Z"
        transform="translate(18.55)" />
    <path
        d="M169.57,31.4l-.06-.39h0a1.85,1.85,0,0,1-1.29.46c-.86,0-1.3-.44-1.3-.89,0-.76.91-1.17,2.55-1.17v-.06c0-.26-.1-.73-1-.73a2.59,2.59,0,0,0-1.1.24l-.17-.38a3.32,3.32,0,0,1,1.39-.28c1.29,0,1.61.66,1.61,1.28v1.17a2.73,2.73,0,0,0,.07.75Zm-.12-1.59c-.84,0-1.79.09-1.79.7,0,.37.33.54.73.54a1.07,1.07,0,0,0,1-.52.54.54,0,0,0,0-.18Z"
        transform="translate(18.55)" />
    <path
        d="M171.44,29.25a8.34,8.34,0,0,0,0-1h.61v.62h0a1.25,1.25,0,0,1,1.17-.69h.22v.54h-.26a1,1,0,0,0-1,.73,1.22,1.22,0,0,0,0,.27V31.4h-.76Z"
        transform="translate(18.55)" />
    <path
        d="M175.05,29.71h0c.11-.11.25-.25.38-.36l1.24-1.08h.92l-1.54,1.29,1.86,1.84H177l-1.46-1.5-.4.33V31.4h-.76V26.81h.69Z"
        transform="translate(18.55)" />
    <path
        d="M179.44,27.39c0,.2-.18.35-.49.35s-.46-.15-.46-.35.2-.35.48-.35S179.44,27.19,179.44,27.39Zm-.86,4V28.27h.77V31.4Z"
        transform="translate(18.55)" />
    <path
        d="M180.63,29.25a8.34,8.34,0,0,0,0-1h.68v.62h0a1.25,1.25,0,0,1,1.17-.69h.22v.54h-.26a1,1,0,0,0-1,.73,1.22,1.22,0,0,0,0,.27V31.4h-.76Z"
        transform="translate(18.55)" />
    <path
        d="M185.79,31.4l-.06-.39h0a1.85,1.85,0,0,1-1.29.46c-.86,0-1.3-.44-1.3-.89,0-.76.91-1.17,2.55-1.17v-.06c0-.26-.1-.73-1-.73a2.59,2.59,0,0,0-1.1.24l-.17-.38a3.32,3.32,0,0,1,1.39-.28c1.29,0,1.61.66,1.61,1.28v1.17a2.73,2.73,0,0,0,.07.75Zm-.12-1.59c-.84,0-1.79.09-1.79.7,0,.37.33.54.73.54a1.07,1.07,0,0,0,1-.52.54.54,0,0,0,0-.18Z"
        transform="translate(18.55)" />
    <path
        d="M187.66,29.12a6,6,0,0,0,0-.85h.69v.52h0a1.71,1.71,0,0,1,1.4-.59,1.34,1.34,0,0,1,1.48,1.18.76.76,0,0,1,0,.15V31.4h-.77V29.6a.84.84,0,0,0-.76-.93,1,1,0,0,0-.24,0,1.09,1.09,0,0,0-1,.58.75.75,0,0,0-.05.26V31.4h-.77Z"
        transform="translate(18.55)" />
    <path
        d="M29.65,687a10,10,0,0,1-.18-2.18,3.2,3.2,0,0,1,.91-2.52,2.91,2.91,0,0,1,2-.65,2.73,2.73,0,0,1,2.65,1.7h0a2.61,2.61,0,0,1,2.14-1.25,18,18,0,0,0,2.9-.62v1.17a15.37,15.37,0,0,1-2.51.54c-1.46.24-2,.69-2.08,1.72V686l4.55.09v1.13Zm4.8-1v-1.16a1.87,1.87,0,0,0-1.71-2H32.5a1.81,1.81,0,0,0-2,1.6,2.67,2.67,0,0,0,0,.4,3.9,3.9,0,0,0,.1,1.13Z"
        transform="translate(18.55)" />
    <path
        d="M38.19,674.93h2.05v1H39A2.35,2.35,0,0,1,40.37,678c0,1-.69,2.16-3.34,2.11l-4.41-.09v-1.14l4.18.08c1.43,0,2.4-.32,2.42-1.36A1.7,1.7,0,0,0,38,676.1a2.38,2.38,0,0,0-.7-.11l-4.63-.09v-1.15Z"
        transform="translate(18.55)" />
    <path
        d="M40.34,669.57l-1,.08h0a2.27,2.27,0,0,1,1.09,2,2,2,0,0,1-2.1,1.9h-.11c-1.82,0-2.79-1.41-2.73-3.84h-.15c-.63,0-1.75.11-1.77,1.4a2.67,2.67,0,0,0,.53,1.65l-.91.25a3.39,3.39,0,0,1-.63-2.09c0-1.92,1.62-2.36,3.13-2.33l2.82,0a12,12,0,0,0,1.8-.07Zm-3.85.1c-.05,1.25.19,2.67,1.65,2.7.89,0,1.32-.47,1.33-1.06a1.61,1.61,0,0,0-1.23-1.54,2.14,2.14,0,0,0-.44-.08Z"
        transform="translate(18.55)" />
    <path
        d="M34.9,666.68h-2v-1h1.24a2.29,2.29,0,0,1-1.38-2.11c0-.87.66-2.22,3.25-2.17l4.5.09v1.15l-4.35-.09c-1.21,0-2.23.34-2.25,1.42a1.7,1.7,0,0,0,1.37,1.56,2.3,2.3,0,0,0,.64.09l4.53.09v1.14Z"
        transform="translate(18.55)" />
    <path
        d="M33.1,654c.55,0,1.15.07,2.07.09l4.38.09c1.73,0,2.78.34,3.42,1a3,3,0,0,1,.86,2.31,3.44,3.44,0,0,1-.66,2.08l-1-.3a3.14,3.14,0,0,0,.63-1.84c0-1.17-.69-2-2.59-2.08h-.84a2.17,2.17,0,0,1,1.22,2c0,1.56-1.64,2.65-3.73,2.61-2.55-.05-4-1.47-4-2.92a2.08,2.08,0,0,1,1.35-1.94h0l-1.16-.1Zm2.95,1.24a3.21,3.21,0,0,0-.62,0A1.74,1.74,0,0,0,34,656.82c0,1.09,1.07,1.89,2.82,1.93,1.47,0,2.72-.57,2.74-1.81a1.75,1.75,0,0,0-1.37-1.62,2.57,2.57,0,0,0-.73-.1Z"
        transform="translate(18.55)" />
    <path
        d="M30.37,649.27a13,13,0,0,1-.17-2.41,4.46,4.46,0,0,1,1.38-3.53,5.35,5.35,0,0,1,3.79-1.16,6.21,6.21,0,0,1,4.06,1.34,4.87,4.87,0,0,1,1.43,3.91,14,14,0,0,1-.16,2.05Zm9.31-.95a6.3,6.3,0,0,0,.1-1.15c0-2.42-1.55-3.76-4.39-3.82-2.47-.06-4.07,1.08-4.11,3.48a5.4,5.4,0,0,0,.11,1.33Z"
        transform="translate(18.55)" />
    <path
        d="M37.17,635c2.79,0,4,1.69,3.95,3.21,0,1.71-1.56,3-3.94,2.95s-4-1.46-3.94-3.2S34.87,635,37.17,635Zm0,5c1.65,0,2.91-.74,2.93-1.86s-1.19-1.94-2.89-2c-1.28,0-2.91.48-2.94,1.83s1.45,2,2.89,2Z"
        transform="translate(18.55)" />
    <path
        d="M39.63,633.76a2.64,2.64,0,0,0,.57-1.5,1.08,1.08,0,0,0-.91-1.23H39.1c-.65,0-1,.3-1.4,1.14a2.34,2.34,0,0,1-2.17,1.63,2.11,2.11,0,0,1-2.17-2v-.17a2.74,2.74,0,0,1,.5-1.54l1,.31a2.13,2.13,0,0,0-.46,1.28,1,1,0,0,0,.93,1.07h.07c.62,0,.91-.36,1.3-1.17a2.33,2.33,0,0,1,2.3-1.61A2.15,2.15,0,0,1,41.22,632a1.82,1.82,0,0,1,0,.33,3.15,3.15,0,0,1-.54,1.76Z"
        transform="translate(18.55)" />
    <path
        d="M37.62,627.77c1.86,0,2.64-1,2.66-2.11a3.42,3.42,0,0,0-.35-1.75l1-.18a4.36,4.36,0,0,1,.43,2.1c0,1.94-1.59,3.07-3.86,3s-4-1.2-4-3c0-2.06,2.22-2.57,3.6-2.54a2.22,2.22,0,0,1,.64.05Zm-.91-3.38c-.87,0-2.24.26-2.26,1.55s1.25,1.69,2.19,1.8Z"
        transform="translate(18.55)" />
    <path
        d="M35.76,621.84h-2v-1H35a2.27,2.27,0,0,1-1.37-2.11c0-.87.66-2.21,3.25-2.16l4.5.08v1.15L37,617.72c-1.21,0-2.23.33-2.25,1.41a1.7,1.7,0,0,0,1.37,1.56,2.3,2.3,0,0,0,.64.09l4.53.09V622Z"
        transform="translate(18.55)" />
    <path d="M6.88,710.39H8.21v6.93h4.43v.85H6.88Z" transform="translate(18.55)" />
    <path
        d="M18.21,718.17l-.11-.71h0a3.15,3.15,0,0,1-2.28.83c-1.51,0-2.27-.79-2.27-1.6,0-1.35,1.6-2.09,4.47-2.08v-.11c0-.47-.17-1.3-1.69-1.3a4.64,4.64,0,0,0-1.94.42l-.34-.62a5.91,5.91,0,0,1,2.45-.5c2.27,0,2.83,1.17,2.83,2.29v2.09a6,6,0,0,0,.12,1.34Zm-.2-2.85c-1.48,0-3.15.17-3.15,1.25,0,.66.58,1,1.28,1a1.89,1.89,0,0,0,1.79-.93.76.76,0,0,0,.08-.33Z"
        transform="translate(18.55)" />
    <path
        d="M21.44,718.17c0-.38.07-.95.07-1.45V710h1.33v3.51h0a3.07,3.07,0,0,1,2.54-1,2.87,2.87,0,0,1,3.13,2.57,2.62,2.62,0,0,1,0,.28,3.06,3.06,0,0,1-3.13,3h-.21a2.92,2.92,0,0,1-2.49-1h0l-.06.93Zm1.4-2.24a2.2,2.2,0,0,0,.06.37,2.16,2.16,0,1,0,2.05-3,2.13,2.13,0,0,0-2.06,1.25,1.42,1.42,0,0,0-.08.41Z"
        transform="translate(18.55)" />
    <path
        d="M33.57,718.17v-7.78h1.48l3.32,3.93a21.94,21.94,0,0,1,1.86,2.53h0a28.45,28.45,0,0,1-.15-3.2V710.4h1.26v7.78H40l-3.29-3.95a23.33,23.33,0,0,1-1.93-2.6h0c.08,1,.11,1.91.11,3.2v3.33Z"
        transform="translate(18.55)" />
    <path
        d="M52.55,714.2c0,2.67-2.17,4.09-4.82,4.09s-4.68-1.59-4.68-3.94,2-4.09,4.82-4.09S52.55,711.89,52.55,714.2Zm-8,.12a3.32,3.32,0,1,0,3.4-3.24h-.07a3.09,3.09,0,0,0-3.32,2.86A2.38,2.38,0,0,0,44.5,714.32Z"
        transform="translate(18.55)" />
    <path
        d="M54.1,716.94a5.85,5.85,0,0,0,2.4.51c1.37,0,2.17-.54,2.17-1.33s-.55-1.14-2-1.54c-1.69-.45-2.74-1.11-2.74-2.21s1.34-2.11,3.35-2.11a6.16,6.16,0,0,1,2.29.38l-.36.82a5.29,5.29,0,0,0-2-.37c-1.42,0-2,.64-2,1.17,0,.73.64,1.08,2.06,1.5,1.76.51,2.65,1.14,2.65,2.28s-1.18,2.24-3.63,2.24a7,7,0,0,1-2.64-.49Z"
        transform="translate(18.55)" />
    <path
        d="M-12.08,757.29l-.72,1.45h-.92l2.34-4.61h1.07L-8,758.74H-9l-.73-1.45Zm2.25-.47-.67-1.32a6.24,6.24,0,0,1-.36-.84h0a8.58,8.58,0,0,1-.35.83l-.67,1.33Z"
        transform="translate(18.55)" />
    <path
        d="M-7,756.46v-1h.79v.65h0a1.5,1.5,0,0,1,1.37-.73h.25V756h-.3a1.16,1.16,0,0,0-1.21.77,1.31,1.31,0,0,0,0,.28v1.77H-7Z"
        transform="translate(18.55)" />
    <path
        d="M-.95,758.74l-.07-.42h0a2.23,2.23,0,0,1-1.51.49c-1,0-1.52-.47-1.52-.95,0-.8,1.07-1.23,3-1.23v-.07c0-.27-.12-.76-1.13-.76a3.5,3.5,0,0,0-1.28.24l-.21-.39a4.14,4.14,0,0,1,1.63-.3c1.51,0,1.87.69,1.87,1.36V758a2.63,2.63,0,0,0,.09.79Zm-.13-1.69c-1,0-2.1.1-2.1.74,0,.39.39.58.85.58a1.29,1.29,0,0,0,1.2-.55.46.46,0,0,0,0-.2Z"
        transform="translate(18.55)" />
    <path
        d="M1.21,753.88H2.1V756h0a1.46,1.46,0,0,1,.64-.42,2.39,2.39,0,0,1,.92-.18c.66,0,1.72.28,1.72,1.42v2h-.9v-1.9c0-.54-.29-1-1.14-1a1.33,1.33,0,0,0-1.2.6.5.5,0,0,0-.07.29v2H1.18Z"
        transform="translate(18.55)" />
    <path
        d="M14.31,758.53a8.83,8.83,0,0,1-2.11.26,4.74,4.74,0,0,1-2.58-.61,2,2,0,0,1-1-1.72c0-1.37,1.42-2.38,3.73-2.38a6.24,6.24,0,0,1,1.72.21l-.22.49a5.21,5.21,0,0,0-1.52-.2c-1.67,0-2.77.7-2.77,1.85s1,1.86,2.66,1.86a3.92,3.92,0,0,0,1.18-.12V756.8H12.05v-.48h2.27Z"
        transform="translate(18.55)" />
    <path
        d="M15.55,758a4.36,4.36,0,0,0,1.59.3c.91,0,1.44-.32,1.44-.78s-.37-.68-1.3-.92c-1.12-.26-1.81-.65-1.81-1.3s.89-1.26,2.22-1.26a4.13,4.13,0,0,1,1.52.23l-.24.49a3.64,3.64,0,0,0-1.31-.22c-.94,0-1.29.37-1.29.69s.41.64,1.36.89c1.17.3,1.76.67,1.76,1.35s-.79,1.33-2.41,1.33a4.79,4.79,0,0,1-1.76-.3Z"
        transform="translate(18.55)" />
    <path
        d="M25.94,758.53a8.83,8.83,0,0,1-2.11.26,4.62,4.62,0,0,1-2.57-.61,2,2,0,0,1-1-1.72c0-1.37,1.42-2.38,3.73-2.38a6.17,6.17,0,0,1,1.71.21l-.21.49a5.27,5.27,0,0,0-1.53-.2c-1.67,0-2.76.7-2.76,1.85s1.05,1.86,2.65,1.86a4,4,0,0,0,1.19-.12V756.8h-1.4v-.48H25.9Z"
        transform="translate(18.55)" />
</svg>