<?xml version="1.0" encoding="utf-8"?>
<!-- Generator: Adobe Illustrator 22.1.0, SVG Export Plug-In . SVG Version: 6.00 Build 0)  -->
<svg version="1.1" id="Layer_1" xmlns="http://www.w3.org/2000/svg" xmlns:xlink="http://www.w3.org/1999/xlink" x="0px" y="0px"
	 viewBox="0 0 268.1 784" style="enable-background:new 0 0 268.1 784;" xml:space="preserve">
<style type="text/css">
	.st0{fill:none;stroke:#000000;stroke-width:0.3;}
	.st1{opacity:0.5;enable-background:new    ;}
	.st2{font-family:'ArialMT';}
	.st3{font-size:12.0052px;}
	.st4{font-size:9.6148px;}
	.st5{font-size:6.6694px;}
	.st6{font-size:11.5693px;}
</style>
<title>EditDenahSVG4</title>
<g>
	<g>
		<g>
			<g>
				<path d="M77.1,0c-2.5,0-2.5,0-2.5,3c0,0.3,0,0.7,0,1c-0.1,12-0.2,24.2-0.3,36c0,1.4-0.1,2.9,0,4.3c0.1,0.9,0.7,1.7,1.4,1.8
					c2.1,0.1,4.4,0.1,6.7,0.1c1.8,0,1.8,0.1,1.8,2.3c0,0.3,0,1.3,0,1.3l-0.7,123c0,0,0,1,0,1.5c-0.1,1.6-0.1,1.7-1.5,1.7
					c-2.1,0-4.1,0-6.1-0.1c-2.9,0-2.9,0-3,3.4c-0.2,20.7-0.3,41.4-0.5,62c0,0.5,0,0.7,0,1.3c0.1,1.7,0.3,2,1.8,2
					c1.9,0.1,3.8,0,5.8,0.1c1.5,0,2.8,1.6,2.8,3.4c-0.3,39.8-0.7,79.4-1,119.1c0,3.6,0.2,3.3-3,3.3c-19.9-0.2-39.8-0.5-59.7-0.7
					c-2.7,0-2.7,0-2.8,3.4c0,0.5,0,0.8,0,1.3l-0.7,82.3c-0.3,27.6-0.4,55.1-0.7,82.7c0,0.7,0,1.3,0,2c-0.1,1-0.8,1.9-1.8,1.8
					c-3.3,0-6.4-0.1-9.6-0.1c-2.1,0-2.1,0-2.2,2.4c-0.2,21.1-0.4,42.2-0.5,63.3c0,2.5,0.2,2.6,2.5,2.7c3,0,9.3,0,9.3,0
					s2.1,0.2,1.6,2.9v0.5c0.1,40.5-0.2,80.8-0.7,121.2v1.7c0.2,0.9-0.8,1.5-0.8,1.5h-2.4c0,0-4-0.4-5.9-0.4c-3,0-3-0.4-3.4,2.3v0.5
					c0.3,14.1,0.1,28.2,0,42.3v1.5c0.1,0.8,1,1.4,1,1.4h1.7c0,0,19.7,0,29.6,0.2c24.2,0.3,48.3,0.6,72.4,0.9c2.4,0,2.4,0,2.6-3
					c0-0.1,0.9,0,0.5,0v-41.1c0.6-0.5,0.6-1,0.4-1.5c-0.1-1.6-0.3-1.9-1.6-2c-1.7-0.1-3.3,0-5-0.1c-3.3,0-3,0.3-3-3.5
					c0.3-40.4,1-120.9,1-120.9s0,0.3,0-0.2c0.1-1.7,0.1-1.8,1.5-1.8c2.1,0,4.4,0.1,6.6,0.1c3,0,3.3-3.4,3.3-3.4s0.3-43.1,0.5-64.4
					c0-0.4,0,0,0-0.5c0-1.9-0.1-2-1.7-2c-2.1-0.1-4,0-6-0.1c-3.3,0-2.6,0.2-2.7-4.7c-0.6-39.4,0.1-78.7,1-118
					c0.1-4.6-0.4-4.3,2.8-4.3c23.4,0.3,47,0.6,70.4,0.9c0.6,0,1.1,0,1.7,0c1.5,0,1.6-0.1,1.7-2c0.1-3.7,0.1-7.3,0.1-11
					c0.1-10,0.2-20,0.2-30.1c0-2.5,0-2.5-2.1-2.5c-2.5,0-5.1-0.1-7.7-0.1c-2.1,0-2.1,0-2.3-2.8c0-0.3,0-0.8,0-0.8s0.5-80,0.7-120.3
					v-1.5c0.1-1.9,0.3-1.9,1.9-2.2h9.1c1.8,0.4,2.1,0.2,2.1-2c0.2-21.3,0.3-42.6,0.5-63.8c0-2.2-1.8-2.5-1.8-2.5H171
					c0,0-1.6,0-1.7-2v-1c0.3-40.9,0.7-81.4,0.7-122.3V49c0.3-0.8,1.4-1.8,1.4-1.8h2.6c0,0,3.3,0.6,5,0.6c3.5-0.2,3.5,0.5,3.6-2.3V45
					c-0.1-13.5,0.1-27,0.7-40.5V3.4c-0.5-0.8-1.6-1.5-1.6-1.5s-1.8,0-2.4,0c-10.1-0.1-20.2-0.2-30.1-0.4C125.5,0.6,101.3,0.3,77.1,0
					z M90.9,412.7c0.2,0.7,0.2,1.1-0.5,1.2c-0.5,0.1-1,0-1.4,0c-0.7,0-1-0.5-1-1.3c-0.2-1.8,0-2.3,1.3-2.7c-0.2-0.4-0.5-0.5-0.9-0.6
					c-0.9-0.4-1.2,1.1-1.2,1.1s0,0,0,0.3c-0.1,3.1,0.1,2.7-2.6,2.8c-0.2,0-0.5,0-0.7,0c-2-0.2-2.1,0-2.1-2.2
					c0.1-6.3,0.1-12.8,0.1-19.2c0-0.6,0-1.1,0-1.6c0-1.7-0.3-2.1-1.7-2c-1,0.2-1.8-0.6-2.9-0.4c0.7,0.8,1.8,1,2.7,1.4
					c1.8,0.8,0.9,2.7,0,9.1c-0.5,3.5-0.2,7.1,0.5,10.5s0.5,4.6-1,4.5c-0.4,0-0.9,0-1.3,0c-19.1-0.2-38.4-0.5-57.6-0.7
					c-2.8,0-2.6,0-2.6-3.2c0.1-11.6,0.2-23.2,0.2-34.7c0-0.5,0-1,0-1.5c-0.1-1,0.3-1.6,1.3-1.5c0.4,0,1.5,0,1.5,0s38.4,0.8,57.4,1
					h0.4c2.1,0,2.1,0,2.1,2.5c0,0.9-0.1,1.9,0,2.7c0.1,1.3-0.4,1.8-1.4,2.1c-1.4,0.4-2.8,0.2-4.1,0.1c-2.6,0-3.1-0.2-2.1,3.8
					c0.1,0.3,0.3,0.5,0.5,0.8c-0.3-3-0.3-3,2.3-3c1.4,0,2.9,0,4.3-0.3c1.3-0.3,1.4-1,1.3-2.7c-0.1-0.6-0.1-1.2,0-1.8
					c0.2-4-0.2-4.1,1.7-4.2H84c3,0,3,0,3.3,3.5c0.1,1.5,0.1,1.5,1.3,1.1c-0.4-0.4-0.4-1-0.3-1.6c0.1-1,0.2-2,0.2-3
					c0-0.5-0.3-1.3-0.2-1.7c0.4-0.6,1.2-0.3,1.8-0.2c1.4,0,2.9,0,4.4,0.1c0.6,0,1,0.3,0.9,1.1c-0.3,1.2-0.3,2.5-0.3,3.7
					c0,1-0.6,1.3-1.2,1.3c0.2,0.4,0.5,0.5,0.9,0.7c0.7,0.4,1.2,0.1,1.3-0.9v-0.5c0.1-3.3,0.1-3.3,2.8-3.3
					c25.2,0.3,50.3,0.6,75.6,0.9c3,0,2.8-0.2,2.7,3.5c-0.1,11.4-0.6,34-0.6,34v1.5c0,0,0.3,1.7-1.3,1.3h-1
					c-25.3,0.2-50.5-0.1-75.8,1h-0.6c-2.1-1.4-2.1-1.4-2.1-3.9c0-0.8,0.3-1.9-0.3-2.3c-0.7-0.3-1.7,0.1-2.1,1.2
					c0.6,0.2,1.4-1.1,1.6,0.6c0.2,1.7-0.1,2.7-0.9,2.9c-1.1,0.3-1.7-0.1-2.1-1.5c-0.7-0.9-1.1-2.4-2.4-2.6
					C89.7,410.9,90.6,411.4,90.9,412.7z M96.8,371.9c0.1-0.9,1-0.5,1.5-0.6c0.2,0,0.6,0,0.9,0.1c0.3,0.1,0.7,0.3,0.6,0.8
					c-0.1,0.4-0.2,0.5-0.6,0.6c-0.3,0.1-0.6,0.1-0.9,0.1C97.7,372.5,96.8,373,96.8,371.9z M84.7,414.4c0.7,0.2,1.8-0.3,1.8,0.8
					c0,1.1-1,0.7-1.7,0.7c-0.7,0-1.7,0.4-1.7-0.8C83.1,413.9,84.2,414.7,84.7,414.4z M82.5,427.9c0,0.5-0.1,1.1-0.6,1.1
					c-0.6,0-0.6-0.6-0.6-1.1c0-3.4,0.1-6.8,0.1-10.3c0-0.5,0.2-1,0.2-1.5c0-0.5,0.1-1.2,0.6-1.1c0.6,0.1,0.2,0.8,0.2,1.3
					c0,1.8,0,3.7-0.1,5.5l0,0C82.5,423.9,82.5,425.9,82.5,427.9z M19,458.3c-2.3,0-2.3,0-2.3-2.8c0.1-12.8,0.2-25.7,0.3-38.7
					c0-0.5,0-1.6,0-1.6s0.3-1.3,1-0.8h1.7c19.5-0.3,39,0,58.5,0.2c0.9,0,1.8-0.6,2.4,0.6c-0.7,0.7-1.5,0.4-2.3,0.4
					c-19.2-0.2-38.4-0.5-57.6-0.7c-3,0-2.8-0.2-2.8,3.4c-0.1,11.7-0.2,23.3-0.1,34.9v2c-0.1,0.9,1,1.8,1,1.8h1.4
					c0,0,38.9,0.2,58.2,0.4c2.6,0,2.6,0,2.1-3.1v-10.1c0.5-0.6,0.5-1.1,0.6-1.7c0-0.2,0.2-0.4,0.4-0.5c0.3-0.1,0.6,0.1,0.6,0.5
					c0.1,0.6-0.2,1.7-0.2,1.7s-0.1,7.8-0.1,11.8c0,2.8,0,2.8-2.3,2.8c-10.2-0.1-20.4-0.3-30.6-0.4C39.1,458.5,29.1,458.4,19,458.3z
					 M81.3,459.8c0.4,0,0.5,0.4,0.6,0.9c0,1.7,0,3.5-0.1,5.1c0,1.7,0,3.5-0.1,5.1c0,0.5-0.2,0.9-0.6,0.9c-0.4,0-0.5-0.4-0.6-0.9
					c0-3.5,0.1-6.9,0.1-10.5C80.8,460.2,80.9,459.8,81.3,459.8z M19.5,500.6h-1.2c-1.8,1-1.8,1-1.8-1.2c0.1-12.8,0.2-25.5,0.3-38.3
					c0-0.5,0-1,0.1-1.5c0-0.2,0.2-0.5,0.4-0.4c0.1,0.1,0.2,0.2,0.2,0.3c0.1,1.3,0.1,2.7,0,4c-1,10.2-1.3,20.5-0.2,30.7
					c0.1,1.3,0,2.5,0.1,3.8C17.3,500.2,17.5,500.4,19.5,500.6c8.3,0,16.6,0.1,25,0.2c11.1,0.1,22.3,0.3,33.4,0.8h1
					c1.7-0.4,1.8-0.5,1.6-2.5v-11.6c0.3-0.7,0-2.1,0.8-2.1c1.1,0,0.7,1.4,0.7,2.2c0,4,0,8.1-0.1,12.1c0,2.5,0,2.5-2.1,2.5
					c-10.3-0.1-20.5-0.3-30.7-0.4C39.2,501.9,29.4,501.8,19.5,500.6z M81.2,502.8c0.6,0,0.6,0.5,0.6,1.1c0,1.7,0,3.5,0.1,5.1l0,0
					v4.8c-0.2,0.5-0.3,0.9-0.9,0.9c-0.4,0-0.6-0.4-0.6-0.8v-10.4C80.7,503.3,80.8,502.8,81.2,502.8z M16.2,541.9v-14.3
					c-0.1-7.7,0.1-15.4,0.1-23.2c0-0.6-0.2-1.7,0.3-1.7c0.9,0,0.5,1.2,0.5,1.8c-0.1,12.1-0.2,24.2-0.3,36.2c0,3.5,2.7,3.4,2.7,3.4
					h58c0,0,0.4,0.6,0.6,0.6c2.1,0,2.1,0,1.6-2.4l0.7-10.6v-1.5c0,0-0.2-1.3,0.5-1.3s1,1.4,1,1.4v13.9c0,0-0.9,1.7-1.9,1.7
					c-0.6-0.1-1.1,0-1.7-0.8H48.5c-10,0.3-20,0.2-30.1,0C16,544.9,16,545.1,16.2,541.9z M4.6,610.7c-1.9,0-2.1,0-1.9-2.4
					c0.1-9.2,0.4-27.5,0.4-27.5l0.6-3.7v-30c0.3,0-0.4-1.3-0.4-2c0-0.9,0.3-1.4,1.1-1.1h10c0.2-0.2,0.6-0.2,0.6,0.3
					s-0.3,0.5-0.6,0.5c-2.3,0-4.5-0.1-6.9,0c-0.6,0-1.3-0.1-1.8,0c-1.3,0.1-1.5,0.4-1.6,2c0,0.5,0.1,1.5,0.4,1.5v57.9
					c-0.4,0-1.1,0.9-1,1.3c0,2,0.2,2.3,1.9,2.3c2.4,0.1,4.9,0.1,7.3,0.1c0.5,0,1,0.1,1.4,0.2c0.1,0,0.2,0.2,0.2,0.3
					c0,0.1-0.1,0.3-0.2,0.3c-0.4,0.1-0.9,0.1-1.2,0.1C10.1,610.8,7.3,610.8,4.6,610.7z M76.3,559.4c-0.7,7.8,1.1,5.9-4.4,6.5
					c-0.1,0-0.2,0-0.2,0c-1-0.3-1.8,0.1-1.6,1.1c0.2,1.2,0.2,2.5,1.2,3.4c-0.7-3.6-0.7-3.5,2.1-3.6c1.2-0.1,2.4,0.6,3.5-0.2
					c0.5-0.4,0.8,0.4,0.7,1.1c0,1.5,0,2.9,0,4.4c0.1,0.8-0.1,0.9-0.7,1c-1.1,0.2-2.1,0.1-3.3-0.5c-0.5-0.3-1-0.7-1.5-0.7
					c0.5,1.3,1.6,1.4,2.6,1.8c1,0.5,1.4,1.8,1,3c-0.2,0.5-0.4,0.6-0.9,0.6c-0.6,0-1.1,0.1-1.7,0c-22.1-0.3-44.2-0.5-66.4-0.8
					c-2.8,0-2.6,0.2-2.6-3.5c0.1-7.9,0.2-15.8,0.2-23.8c0-0.5,0-1,0-1.5c0.1-1.5,0.2-1.6,1.5-1.7c0.4,0,0.9,0,1.2,0
					c22,0.3,44,0.5,66.1,0.8c3.7,0,2.3-0.4,2.8,7.8C76.5,556.4,76.5,557.9,76.3,559.4z M77.8,546.9c0.2,0,0.4,0.2,0.4,0.4
					c0.1,0.4,0.1,0.8,0.1,1.2c0,4.7-0.1,9.4-0.1,14.1c0,0.6,0.2,1.6-0.6,1.6c-0.7,0-0.6-0.9-0.6-1.6c0-2.3,0-4.7,0.1-7
					c0-2.3,0-4.5,0.1-6.7c0-0.5,0.1-1,0.1-1.5C77.4,547.1,77.7,546.9,77.8,546.9z M71.1,583.8c-1.7,0-1.8,0.4-1.2,2.6
					c0-0.9,0.2-1.5,1.2-1.6c2-0.1,4.1,0.3,5.9-0.2c0.4-0.1,0.7,0.3,0.7,0.7c0,2.1,0,4.1-0.1,6.2c0,0,0,0.1-0.1,0.1
					c-1.2,0-2.2,0-3.4,0c2.7,1.7,1.2,0.7,1.9,10.8c0,0.1,0-0.3,0-0.3s0.6,8.3-2,8.4c-4.5-0.1-9.2-0.1-13.6-0.2
					c-18-0.2-35.8-0.4-53.6-0.7c-2.6,0-2.6,0-2.6-3.2c0.1-8.2,0.2-16.3,0.1-24.4v-1.7c0.1-0.9,0.4-1.3,1.3-1.5h1.4
					c22.2,0.5,66.5,1,66.5,1s0.4,0,0.7,0c1.8,0.1,1.8,0.2,1.8,2.3c-0.1,1.7-0.1,1.8-1.5,1.9C73.5,583.8,72.3,583.7,71.1,583.8z
					 M77.1,592.8c0.2,0,0.4,0.2,0.4,0.4c0.1,0.4,0.1,0.8,0.1,1.2c0,4.7-0.1,9.4-0.1,14.1c0,0.6,0.2,1.6-0.6,1.6
					c-0.7,0-0.6-0.9-0.6-1.6c0-2.3,0-4.7,0.1-7c0-2.3,0-4.5,0.1-6.7c0-0.5,0.1-1,0.1-1.5C76.7,593,77,592.8,77.1,592.8z M76.8,582.2
					c0-1.3,0-2.7,0-3.9c0-1.1,0-2.3,0-3.5c0-0.4,0.2-0.6,0.6-0.6c0.2,0,0.6,0.3,0.5,0.6c0,2.5,0,4.8-0.1,7.4c0,0.4-0.2,0.6-0.6,0.6
					C77.1,582.9,76.9,582.6,76.8,582.2z M61.7,578.8c-7.3-0.1-14.5-0.2-21.7-0.3c-11.1-0.1-22.3-0.3-33.3-0.4
					c-0.7,0-1.4-0.1-2.1-0.2c-0.1,0-0.3-0.3-0.3-0.5s0.2-0.5,0.3-0.5c0.7-0.1,1.4-0.1,2.1-0.1c19.4,0.2,38.6,0.5,57.9,0l9.2,1h1
					c0.5-0.1,1.4-0.4,1.4,0.5c0,0.8-0.7,0.7-1.4,0.7C70.4,578.9,66,578.8,61.7,578.8z M17.7,654.9h-0.6c0,0-1.6-0.2-1.9-6.1
					c-0.5-11.2-0.5-22.3,0.2-33.4c0.3-5.6-0.6-5.7,2.1-5.7c10.3,0.1,20.5,0.3,30.7,0.4l0,0c10,0.1,20,0.2,29.9,0.5h1.4
					c1.4,0,1.4,0.1,0.9,1.7l0.7,11.2c0,0,0-0.1,0,0.1c-0.1,0.5-0.1,1.1-0.7,1c-0.4-0.1-0.5-0.5-0.5-0.9c0-2.4,0-4.7-0.1-7.2
					c-0.1-1,0-1.9,0.1-2.9c0.1-1.3-0.3-1.9-1.4-1.9c-0.5,0-1,0-1.4,0c-19.4-0.2-38.7-0.5-58.2-0.7c-2.6,0-2.6,0-2.6,3.1
					c-0.1,11.9-0.2,23.7-0.2,35.4c0,0.6,0,2.2,0,2.2s0.5,1.7,1.3,1.5h1.2c19.4,0.4,58.2,1,58.2,1h0.4c0,0,2.1-0.1,1.7-2.6V640
					c0.4-0.6,0.3-1.6,1.1-1.6c0.7,0,0.6,1,0.4,1.6v13.5c0.1,1.9,0.1,1.9-1.5,1.9c-10-0.1-20.2-0.2-30.2-0.4c-0.5,0-1,0-1.4-0.3
					c-0.7-0.5-1.2-0.9-1.8-0.2c-0.1,0.1-0.2,0.1-0.2,0.1c-1.8-0.8-3.6,0.4-5.4,0.3C32.5,655,17.7,654.9,17.7,654.9z M17.3,698.5
					c0,0-1,0-1.5,0c-0.7,0-1-0.5-1-1.4c0-0.4,0-0.8,0-1.3c0.1-12.5,0.1-25,0.3-37.5c0-0.7-0.3-2.1,0.4-2.1s0.3,1.3,0.3,2.1
					c-0.1,11.6-0.1,23.2-0.2,34.6c0,0.7,0,0.6,0,1.3c0.1,1.6,0.3,1.9,1.6,2c0.4,0.1,0.9,0,1.2,0c19.4,0.2,38.8,0.5,58.2,0.7
					c1.4,0,2.6-1.4,2.6-3.1c0-3.3,0-10.1,0-10.1s0-1.1,0-1.7c0-0.2,0.2-0.5,0.4-0.5c0.3-0.1,0.6,0.1,0.6,0.5c0.1,0.5,0.1,1,0.4,1.5
					v12.6c-0.4,2.3-0.5,2.3-2.5,2.3c-10.3-0.1-20.5-0.3-30.9-0.9L17.3,698.5z M14.4,738.4c0-0.7-0.1-1.3,0-2
					c0.1-5.8,0.1-11.8,0.2-17.6c0.1-5.7,0.1-11.5,0.1-17.1v-2c0-0.3,0.1-0.8,0.4-0.8c0.5-0.1,0.4,0.5,0.4,0.9c0.1,0.6,0,1.1,0,1.7
					c-0.1,9-0.2,17.9,0,26.9v8.4c-0.3,0.6-0.3,1.1-0.4,1.7c0,0.3-0.1,0.5-0.4,0.5C14.5,739,14.4,738.7,14.4,738.4z M82.2,738.3
					c-1.6,0-1.6-0.1-1.6-2c0-4.1,0.1-8.3,0.1-12.1c0-1.8,0-1.7-1.5-2.3c-1-0.4-2-0.2-3-0.3c-0.4,0-0.9,0-1.3-0.5
					c-0.6,0.6-0.4,1.2,0.2,1.3c0.8,0.2,1.5,0.2,2.2,0.1c1.1,0,1.6,0.6,1,3c0,2.9-0.1,6.9-0.1,10.1c0.5,2.3,0.3,3.5-0.9,3.5
					c-0.5,0-1.1,0-1.6,0c-18.8-0.2-37.5-0.5-56.4-0.7c-2.9,0-2.6,0.2-2.6-3.4c0.1-11.5,0.2-23,0.2-34.4c0-0.5,0-1,0-1.5
					c-0.1-1.1,0.3-1.7,1.4-1.6c0.5,0,1.3,0,1.3,0s37.5,0.3,56.4,0.5c3.3,0,2.6-0.3,3,4.7v4c-0.4,4.3-0.1,4.3-2.5,4.7h-0.5
					c-0.7-0.3-1.4-0.8-1.8,0.2c-0.3,0.9,0,1.7,0.7,2.4c-0.1-1.3,0.6-1.5,1.4-1.5c1.2,0.1,2.3,0,3.5-0.4c0.7-0.3,0.5-1.4,0.5-1.4
					l1-1.5l0.2-25.9c-0.1-0.5-0.2-1-0.1-1.5c0-0.9-0.2-1.3-1-1.6c-1.1-0.4-2.2-0.4-3.3-0.5c-0.7,0-1.4,0.3-1.9-0.5
					c-0.6,0.7-0.5,1.3,0.2,1.4c0.9,0.2,1.7,0.2,2.6,0.1c1.3,0,1.7,0.6,1.1,3.4c-0.1,3.2-0.1,6.2-0.2,9.4c0.6,2.4,0.4,3.7-0.9,3.7
					c-0.5,0-1,0-1.4-0.4L19.3,696c-2.7,0.3-2.7,0.5-2.6-2.8c0.1-11.7,0.2-23.3,0.2-34.9c0-0.6,0-1.1,0-1.7c0-0.9,0.3-1.4,1.1-1.4
					c0.3,0,0.7,0,0.7,0s14.8,0.5,22,0.6c0.6,0,1.2-0.1,1.6,0.4c0.2-0.1,0.6-0.1,1-0.1c0.1,0,0.2,0.1,0.3,0.1
					c-0.1-0.1-0.1-0.1-0.1-0.1c0.1-0.1,0.2-0.1,0.3-0.1c0.1,0,0.1,0.1,0.2,0.1c-0.1,0.1-0.2,0.1-0.3,0.1c0.2,0.1,0.6,0.1,0.9,0.1
					c0.2,0,0.4,0.1,0.6,0.1l0.2,0.1c0.5,0.1,1,0.1,1.5,0.3c0.4-0.9,1.1-0.9,1.8-0.8c5.2,0.1,10.4,0.1,15.6,0.2
					c4.2,0.1,8.5,0.1,12.7,0.2c1.8,0,1.8,0.1,1.8,2.3v8.6c-0.1,2.1-0.1,2.1-1.9,1.8h-0.9c-0.7,0.5-1.5,0-1.8,1
					c-0.3,0.9,0,1.7,0.7,2.4c0-1.9,0-1.9,1.6-2c0.9,0,1.8,0.1,2.6-0.2c1.5-0.4,1.2-2.2,1.2-2.2v-12.4c0,0,0.5-11,0.7-16.4
					c0-2,0-1.9-1.6-2.5c-1.1-0.4-2.1-0.2-3.3-0.3c-0.5,0-1,0-1.4-0.5c-0.6,0.7-0.5,1.3,0.2,1.4c0.9,0.2,1.7,0.2,2.6,0.1
					c1.3,0,1.7,0.6,1.1,3.3c-0.1,3.1-0.1,6.1-0.2,9.3c0.6,2.4,0.4,3.6-0.9,3.6c-0.4,0-1.2,0.1-1.2,0.1s-38.4-0.5-57.6-0.5h-0.9
					c-1.5-0.3-1.6-0.4-1.6-2.3c0.1-5.4,0.1-10.8,0.2-16.1c0.1-6.7,0.1-13.4,0.2-20.2c0-2.4,0-2.4,1.9-2.4c19.5,0.2,39,0.5,58.5,0.7
					c1.8,0,1.8,0.1,1.7,2.3v8.6c0,2.1-1.8,2.8-1.8,2.8s-0.1,0-0.4,0c-0.7,0.1-1.4-0.4-1.8,0.6c-0.3,0.9,0,1.7,0.7,2.4
					c0-1.9,0-1.9,1.3-2c1,0,2.1,0,3.1-0.2c0.7-0.2,1-0.9,1-1.6l0.1-13.2c0-1.2-0.4-1.7-1.3-1.6c-0.3,0-0.7,0-1-0.1
					c-0.6-0.1-0.8-0.5-0.8-1.2c0-0.6,0-2.3,0-2.3v-57.8c0,0,0-0.3,0-0.9c-0.1-1.1,0.3-1.7,1.3-1.8c2.3-0.2,2.4-0.3,2.4-3.1
					c0-5.1,0.1-9.2,0.1-14.1c0-2.2-0.3-2.7-2.2-2.8c-0.8-0.1-1.6,0-2.4,0c-1.4,0-1.4,0-1.4-2.1c-0.4,0.3-0.7,0.9-0.8,1.6
					c-0.2,0.9,0.1,1.6,0.9,1.7c0.8,0.1,1.6,0.1,2.4,0c1,0,1.5,0.5,1.3,2.4c0,3.7-0.1,7.5-0.1,11c0.2,1.7,0.1,2.8-1.1,2.7
					c-0.4,0-0.9,0-1.2,0c-19.1-0.2-38.3-0.5-57.4-0.7c-2.6,0-2.6,0-2.6-3c0.1-11.5,0.2-22.8,0.2-34.2c0-0.4,0-1.8,0-1.8
					s0.1-1.7,1.4-1.9H19c7.6,0.1,15.4,0.2,23.1,0.3c0.9,0,1.4,0.2,1.4,1.2c0.2-0.1,0.5-0.1,0.7-0.1l0,0c0,0,0.6,0.9,0.9,0.8
					c0.2-0.1,0.4-0.1,0.6-0.1c0-0.1,0-0.1,0.1-0.2c0.1,0.1,0.1,1,0.1,1h0.1c0,0,1-1.1,1.5-1.1c0.2,0,0.3,0,0.4,0.1
					c0.2-0.3,0.6-0.4,1-0.4c1.8,0,3.8,0,5.6,0.1c7.3,0.1,22.2,0.3,22.2,0.3s1-0.3,1.4-0.3c1-0.1,1.4,0.6,1.4,1.7v9.6
					c-0.1,1.7-0.1,1.7-1.7,1.8c-0.7,0.1-1.5-0.1-2.3,0.1c-0.7,0.2-0.7,0.8-0.2,1.4c0.2-0.4,0.7-0.5,1.1-0.3h2.1c2.8-0.3,3-0.6,3-3.9
					c0.1-9.1,0.2-18.1,0.2-27.1c0-2.9-0.2-3.1-2.4-3.4c-0.7-0.1-1.5,0-2.3-0.1c-1-0.1-1.2-0.5-0.7-1.6c0.2-0.5,0.4-0.9,0.4-1.3
					c-0.4,0.2-0.7,0.5-1,0.9c-0.3,0.9-1,1.8-0.6,2.8c0.3,1,1.4,0.8,2.1,0.8c2.3,0.1,3,2.8,3,2.8v10.9c0,0-0.8,2-2.4,2
					c-10-0.1-20-0.2-29.9-0.4c-0.6,0-1-0.1-1.3-0.3c-0.4,0.2-1.2-0.3-1.2-0.9h-1c-0.3,0.6-0.6,0.5-0.9,0.4c-0.3-0.1-0.6-0.1-1-0.3
					c-0.1,0-0.1,0-0.1-0.1c-0.2,0.3-0.6,0.5-1.2,0.5c-4.1-0.3-12.4-0.5-12.4-0.5s-6.1-0.1-9.3-0.1c-1.9,0-1.9-0.1-1.8-2.4
					c0.1-10.2,0.2-20.4,0.2-30.7c0-1.7,0-3.6,0.1-5.4c0.1-2,0.1-2,1.8-2c0.2,0-0.6,0-0.2,0c19.3,0.2,38.4,0.5,57.7,0.7
					c3,0,2.5,0,2.5,4.3c0,1.7,0,3.4-0.1,5c-0.1,3.9,0.2,3.9-2.2,3.9c-0.5,0-1.1-0.1-1.6,0c-0.7,0.2-0.7,0.8-0.2,1.4
					c0.2-0.4,0.7-0.5,1.1-0.5c0.7,0,1.4,0,2.1,0c2.8-0.1,3.1-0.4,3.1-3.8c0.1-9.1,0.2-18.4,0.2-27.5c0-3-0.2-3.2-2.5-3.5
					c-0.7-0.1-1.6,0-2.4-0.1c-1-0.1-1.2-0.5-0.7-1.6c0.2-0.5,0.4-0.9,0.4-1.3c-0.4,0.2-0.7,0.5-1,0.9c-0.3,0.9-1,1.8-0.7,2.9
					c0.3,1,1.3,0.7,2.1,0.8C80,441,80,441,80,443.8c0,3.7-0.1,8.4-0.1,12c0,1.9-0.1,1.9-1.7,2c-1.6,0-3.1,0-4.7-0.4l-52.3-0.6
					c-0.4,0.3-0.9,0.3-1.2,0.3c-2.1,0-2.1,0-2.1-2.5l0.2-35.1c0-1.5,1.1-2.7,2.4-2.7l53.9,0.7c1.4,0,2.9,0,4.4,0.1
					c1.2,0,1.4,0.7,1.2,2.4c0,2.9,0,5.8,0,8.9c0.1,1.3-0.3,1.8-1.3,1.8c-0.7,0-1.3,0-1.9,0c-1.4,0-1.7,0.5-1.3,2
					c0.1,0.4,0.3,0.7,0.7,1c-0.1-1,0.3-1.5,1.3-1.5c1.2,0,2.2,0,3.4-0.3c1-0.3,1.4-0.8,1.4-2c0-3,0.7-9.5,0.7-9.5v-1.7
					c-0.7-0.9-0.2-1.3,0.5-1.9h1.8c0.7,0.6,1.4,0.6,1.7-0.4c0.2-0.8,0.9-1,1.5-1c1.5,0,3,0,4.5,0.1c0.5,0,1.1,0,1,0.8
					c-0.1,1.2,1.1,1.5,1.1,1.5s1.1,0,1.9,0c0.9,0,1.3,0.4,1.3,1.5c0,0.7,0,1.5,0.2,2.3l-1.2,122c-0.2,3.8-0.2,3.8,2.8,3.8
					c1.9,0,3.8,0,5.5,0.1c1.6,0,1.7,0.1,1.7,2.1c0,0.3,0,0.7,0,1l-0.4,56.2c0,1.7-1.2,3.1-2.7,3l-4.9-0.1c-2.4,0-2.4,0-2.4,2.9
					c0,0.5,0,1,0,1.5c-0.3,40.8-0.7,81.3-1,122.1c0,3.5,0.2,3.3-2.7,3.3C90.4,738.4,86.3,738.3,82.2,738.3z M79.9,738.2
					c0,0.5,0.1,1.2-0.5,1.3c-0.6,0.1-0.5-0.7-1.1-1.1v-1.1l0.7-8.7v-0.9c-0.1-0.5-0.4-1.4,0.3-1.5s0.5,0.8,0.6,1.4
					c0.1,1.2-0.2,2.5,0.6,3.5c-0.4,1.1-0.2,0.5-0.6,1.7l0,0C79.9,734.6,79.9,736.4,79.9,738.2z M79.6,699.6c0.4,0,0.5,0.4,1,0.9
					v10.5c-0.5,0.5-0.7,0.9-1.1,0.9c-0.4,0-0.5-0.4-0.5-0.9c0-1.8,0-3.7,0.1-5.5v-4.9C79.1,700,79.2,699.6,79.6,699.6z M46.3,655.8
					c0,0.1,0,0.3,0.1,0.4c-0.1,0-0.2,0-0.3-0.1c0,0-0.1-0.1,0-0.2C46,655.8,46.2,655.7,46.3,655.8z M80,656.2c0.4,0,0.5,0.4,0.5,0.9
					c0,3.5-0.1,6.9-0.1,10.5c0,0.5-0.2,0.9-0.6,0.9c-0.4,0-0.5-0.4-0.5-0.9c0-1.7,0-3.5,0.1-5.1c0-1.7,0-3.5,0.1-5.1
					C79.6,656.6,79.7,656.2,80,656.2z M81.3,484.6l-0.2-0.1l0.2-0.1V484.6z M82,441.2V441l0.2,0.1L82,441.2z M85.3,741
					c1.7,0,3.5,0,5.2,0.1c1.4,0.1,1.5,0.4,1.2,1.8c-0.2,0.9-0.2,1.8-0.2,2.7c-0.1,1.8-0.1,1.8-1.7,1.5c0.3,1.2,1.4,1,2.1,1.2
					c0.5,0.1,0.7-0.5,0.7-1c0.1-0.8,0.1-1.7,0.1-2.5c-0.1-1.4,0.6-1.9,2.1-1.5c3,0.7,6.1,0.7,8.9,0.1c1.7-0.3,2.6,1.5,2.6,1.5v1.5
					v36.4c0,0,0,0.8,0,1.4c0,0.7-0.5,1.4-1.2,1.4c-0.5,0-1,0-1.4,0c-32.9-0.4-65.8-0.8-98.6-1.2c-1.4,0-2.7-1.4-2.6-3.2
					c0.1-12.1,0.1-24.1,0.3-36.2c0-0.6,0-1.1,0-1.7c0-0.9,0.4-1.3,1.2-1.3c0.4,0,1.3,0,1.3,0s50.4,0.7,75.7,1h1.2
					c0.7,0,1.1,0.5,1.2,1.4v2.7c-0.1,1.1,0.3,1.2,1.1,1c1-0.3,2.1-0.8,2.6-2c0.6-1.1,1-0.5,1.7-0.1c-0.1-0.4-0.2-0.8-0.2-1.2
					c-0.2-0.6-0.4-1.2-0.7-1.8c-0.5,0.4-0.2,1.2-0.6,1.7c-0.2,0.5-0.5,1-0.9,1.4c-0.4,0.6-1.1,1.3-1.7,1c-0.7-0.3-0.3-1.3-0.3-2
					c-0.1-0.8,0-1.7-0.2-2.5C84.1,741.1,84.2,741.1,85.3,741z M176.9,372.2c1.7,0,1.7,0.1,1.8,2.2c-0.1,9.1-0.6,27.3-0.6,27.3v13.4
					c0,0,0.2,2-1.4,2.4H175c-23.4-0.6-69.7-1-69.7-1s-0.9,0-1.3,0c-2.5,0-2.5,0-2.5,3c-0.3,40.9-0.7,81.7-1,122.6
					c0,3.1,0,3.1,2.4,3.1c2.1,0,6.5,0,6.5,0s1.4,0.5,1.4,2.1v1.5c-0.1,20.1-0.2,40.4-0.7,60.5v1c0.2,2.2-1.6,2.3-1.6,2.3h-7.1
					c0,0-1.4-0.1-1.4,1.5c-0.1,0.7,0,1.3,0,2c-0.2,20.5-0.3,41.1-0.5,61.4c-0.2,20.4-0.3,40.9-0.5,61.2c0,0.9-0.2,2.1,0,2.7
					c0.5,0.9,1.8,0.2,2.6,0.4c1.4,0.4,2.7,0.4,4.1,0.1c1.5-0.4,2.1,0.1,2.2,1.6v1.5c-0.1,13.4,0,40.1,0,40.1s0,0.8,0,1.4
					c0,0.9-0.4,1.3-1.2,1.3c-0.5,0-1,0-1.4,0c-33.8-0.4-67.8-0.8-101.5-1.2c-2.7,0-2.6,0-2.6-3.2c0.1-13.3,0.2-26.6,0.3-39.9
					c0-0.6,0-1.2,0-1.7c0-1,0.3-1.6,1.3-1.5c0.5,0,1.3,0,1.8,0c25.5,0.3,50.8,0.6,76.3,0.9c0.7,0,2.1-0.6,2.1,0.6
					c0.1,0.7-1.4,0.4-2.1,0.4c-25-0.3-50.2-0.6-75.3-0.9c-3,0-3,0-3,3.6c-0.1,12.5-0.2,24.7-0.3,37.2c0,0.5,0,1,0,1.5
					c0,1.7,0.2,2.1,1.6,2.2c0.4,0,0.9,0,1.2,0c33,0.4,65.9,0.8,98.9,1.2c2.9,0,2.9,0,2.9-3.4c0.1-12.7,0.2-25.3,0.3-38
					c0-0.2,0-0.1,0-0.1s-0.4-2.5-2.5-3.3l-9.2,1c0,0-0.7,0-1.2,0c-0.3,0-0.9,0.1-0.7-0.5c0.1-0.5,0.6-0.4,0.9-0.5
					c1-0.1,2.3,0.6,3-0.4c0.4-0.7,0.1-2.3,0.1-3.4c0.3-41.1,0.7-82,1-123.2c0-3.8-0.2-3.5,3-3.4c1.8,0,3.8,0.1,5.6,0.1
					c1.5,0,1.8-0.3,1.8-2.2c0.1-1.3,0-2.5,0-3.7c0.2-18.3,0.3-36.5,0.4-54.8c0-0.6,0-1.2,0-1.7c0-2.2,0-2.2-1.8-2.3
					c-2.3,0-7.2,0-7.2,0s-1.6-0.7-1.3-2.6v-2c0-40.5,0.4-80.9,0.7-121.3v-1.5c-0.1-2.4,0.4-3.2-2.4-3c-0.2,0-0.4,0-0.6-0.1
					c-0.4-0.1-0.7-0.3-0.7-0.7c0.1-0.5,0.7-0.5,0.7-0.5h1.8c0,0,50.6,0.4,75.8,0.7c3,0,2.9,0.3,2.9-3.3c0.1-11.7,0.2-23.3,0-34.9
					v-1.3c0.3-2.1,0.2-2.1-1.6-1.7H169c-0.6-0.6-1.5-0.3-1.6-1.2c-0.1-1.3,1-0.8,1.6-0.8C171.8,372,174.2,372.1,176.9,372.2z
					 M166.5,331.5c0.1,0.6,0.1,1.1,0.1,1.7c-0.1,12.6-0.2,25.2-0.3,37.7v0.7c-0.1,1.7-0.1,1.7-1.6,1.8c-0.5,0-1.4-1.4-1.4-1.4h-29.8
					h-29.9c-0.5,0.7-1,0.6-1.4,0.7c-0.9,0.1-1.4-0.4-1.3-1.4c0-4.4,0.4-13.4,0.4-13.4v-0.3c0,0-0.2-0.7,0.2-0.7
					c0.1,0,0.2,0.3,0.2,0.5c0.1,0.6,0.1,1.1,0.3,1.7v9.6c-0.4,2.3-0.4,2.3,1.6,2.4c8.4,0.1,25.1-0.1,25.1-0.1h33.6
					c0,0,1.1,0.8,1.7,0.8c0.7,0,1.2-0.5,1.6-1.4v-2c-0.3-11.7-0.1-23.3-0.1-34.9c0-0.7,0.1-1.5,0.2-2.3c0-0.2,0.2-0.5,0.4-0.5
					C166.2,330.9,166.5,331,166.5,331.5z M166.9,288.6c0.1,0.6,0.1,1.1,0,1.7c-0.1,12.5-0.2,25-0.3,37.5c0,2.7,0,2.7-2.1,2.6
					c-6.6-0.1-13.2-0.2-20,0h-10.8c-10-0.4-20-0.5-30.1-1h-1.4c-0.7,0.3-1.2-0.1-1-1.1v-13.6c-0.1-0.3-0.1-0.8,0.2-0.8
					c0.5,0,0.4,0.5,0.5,0.9v9.6c-0.1,4.4-0.4,3.6,3.8,3.8c18.3,0.2,36.5,0.5,54.8,0.7c4.7-0.2,4.5,0.9,4.7-3.3
					c0.1-11.7,0.2-23.3,0.2-34.9c0-0.7,0-1.5,0.1-2.3c0-0.4,0.2-0.6,0.6-0.6C166.7,288,166.9,288.3,166.9,288.6z M165.7,291.3
					c-0.1,11.3-0.2,22.6-0.2,33.8c0,0.4,0,0.7,0,1.1c-0.1,2.1-0.1,2.1-1.7,2.2c-0.3,0-0.7,0-1,0c-19.1-0.2-38.3-0.5-57.5-0.7
					c-2.9,0-2.7,0.2-2.7-3.3c0-2.9,0.1-5.6,0.1-8.5c0-2.4,0-2.4,1.9-2.4c0.3,0,0.7,0,1,0c1.6,0,1.9-0.7,1.4-2.5
					c-0.2-0.6-0.4-1.3-1-1.5c0.7,3,0.7,3-1.8,3c-0.4,0-0.9,0-1.2,0c-2.1,0.2-2.4,0.5-2.4,3c-0.1,9.3-0.2,18.5-0.2,27.7
					c0,2.5,0.3,2.9,2.4,3c0.3,0,0.7,0,1,0c2.8,0,2.8,0,1.9,3.1c0.7-0.3,1-1.2,1.2-2c0.3-1.4,0-1.9-1.3-2.1c-1-0.1-2.1,0.4-2.8-0.4
					c-0.7-0.9-0.3-2.4-0.3-3.7c0-3,0-6,0.1-9c0-1.6,0.1-1.7,1.5-1.7c0.4,0,0.4,0,0.7,0c19.1,0.2,38.4,0.5,57.5,0.7
					c2.9,0,2.7-0.2,2.7,3.3c-0.1,11.5-0.2,23-0.2,34.3c0,0.5,0,1,0,1.5c-0.1,1.5-0.1,1.6-1.5,1.7c-0.4,0-0.9,0-1.2,0
					c-19.1-0.2-38.4-0.5-57.5-0.7c-2.7,0-2.7,0.2-2.7-3.1c0-3.2,0-9.8,0-9.8s0.7-1.8,2.1-2.2h1.7c1.2,0.2,1.6-0.3,1.3-1.8
					c-0.2-1.1-0.9-1.9-1.4-2.7c-0.9-1-0.9-1,0-2.3c-0.4,0.1-0.7,0.3-1.2,0.5c-0.6,0.3-1.2,0.5-1.7,0.7c0.4,0.6,1.1,0.6,1.6,0.9
					c1,0.6,1.8,1.6,2.3,2.8c0.2,0.6,0,1-0.5,1.1c-0.7,0.1-1.4,0-2.1,0c-0.6,0-1.3,0-1.8,0.1c-1.4,0.3-1.5,0.6-1.7,2.4v9.7
					c0.1,3.6-2.7,3.5-2.7,3.5S90,371,86,371c-1.7,0-1.7-0.1-1.8-2.1c0-0.7,0-1.3,0-2c0.3-40.3,0.7-80.4,1-120.5
					c0-3.6,0.2-3.5-2.7-3.5c-1.9,0-3.8,0-5.8-0.1c-1,0-1.4-0.4-1.3-1.6c0-0.5,0-1.6,0-2.1c0.1-19,0.3-37.9,0.5-56.8
					c0-3.3-0.1-3.2,2.6-3.1c2,0,3.9,0,5.9,0.1c0.9,0,1.4-0.4,1.3-1.6c0-0.7,0-1.9,0-2.7c0.3-41.8,0.7-83.5,1-125.3
					c0-3.7-0.2-3.4,2.7-3.4c3.8,0,7.6,0.1,11.4,0.1c2.1,0,2.1,0,2.1,2.6c-0.1,12.7-0.1,25.2-0.3,37.9c-0.2,29.1-0.5,57.9-0.7,87
					c0,0.4,0,0.9,0,1.3c-0.1,1.1,0.3,1.7,1.3,1.7c0.2,0,0.8,0,0.8,0s1.4,0.1,0.8,1.7v1.3c0.5,7.2,0.5,14.4,0.4,21.8
					c0.3,2.7,0.4,8,0.4,8v5.3c0,0-0.3,1.3,0,2v20.5c-0.1,0-0.7,0.7-0.7,1c-0.1,2-0.1,2-1.8,2.1c-1.5,0.1-1.5,0.2-1.5,1.9
					c-0.1,4.6-0.1,9.3-0.1,13.9c0,1.2,0.2,1.7,1.3,2.1c1.2,0.3,2.3,0.3,3.5,0.4c0.6,0,1.3-0.1,1.4,1c0.5-1.7,0.4-1.9-0.7-2
					c-0.6-0.1-1.2,0-1.8,0c-1.5-0.1-1.8-1.8-1.8-1.8s0.1-7.4,0.1-11.2c0-1.1,0.3-1.7,1.3-1.7c0.4,0,0.9,0,1.2,0
					c19,0.2,38.1,0.5,57.1,0.7c2.9,0,2.6-0.2,2.6,3.4c-0.1,11.5-0.2,22.8-0.2,34.2c0,0.3,0,0.7,0,0.9c0,2.4,0,2.4-1.9,2.4
					c-0.2,0-0.6,0-0.9,0c-18.9-0.2-37.8-0.5-56.7-0.7c-2.8,0-2.6,0.2-2.6-3.2c0-2.8,0.1-5.8,0.1-8.6c0-2.4,0-2.4,1.9-2.4
					c0.3,0,0.8,0,1.1,0c1.6,0,1.9-0.7,1.4-2.5c-0.2-0.6-0.4-1.3-1-1.5c0.7,2.9,0.7,2.9-1.8,3c-0.4,0-0.9,0-1.2,0
					c-2.1,0.2-2.3,0.5-2.4,3c-0.1,9.2-0.2,18.4-0.2,27.6c0,2.3,0,2.3,1.8,2.8c1.1,0.3,2.2,0.1,3.3,0.2c1,0.1,1.2,0.5,0.7,1.4
					s-1.1,1.7-1.7,2.5c1.4-0.3,2.1-1.6,2.4-3c0.3-1.3,0-1.9-1.2-2c-0.6-0.1-1.2,0-1.8,0c-1.3-0.1-1.4-0.2-1.4-1.8
					c0-3.7,0.1-7.3,0.1-11c0-1.1,0.3-1.7,1.4-1.7c0.6,0.1,1.1,0,1.7,0c19,0.2,38.1,0.5,57,0.7C166,287.9,165.8,287.7,165.7,291.3z
					 M101.8,330.3c0.3,0.1,0.3,0.5,0.3,0.8c0,2,0,4-0.1,5.9c0,1.9,0,3.8-0.1,5.7c0,0.3,0,0.7-0.3,0.8c-0.4,0.1-0.4-0.3-0.4-0.7
					c0-4,0.1-8.1,0.1-12.1C101.4,330.7,101.4,330.2,101.8,330.3z M165.9,47.6c1-0.1,1.4,0.4,1.4,1.6c-0.1,12.5-0.2,25-0.3,37.5
					c0,1.2-1.4,2.2-1.4,2.2s0.8,0,0.5,0c-19.7-0.2-39.5-0.5-59.3-0.7c-2.9,0-2.7,0.1-2.7-3.3c0-3,0.1-6.1,0.1-9.2
					c0-2.6,0-2.6,2.1-2.6c0.5,0,1,0,1.5,0c1.2-0.1,1.3-0.3,0.7-2.1c-0.1,0.9-0.7,0.9-1.3,1c-1.3,0.1-2.5-0.2-3.7,0.3
					c-0.7,0.3-0.9-0.3-0.9-0.9c0-2.8,0-8.2,0-8.2s0.4-1.1,1.1-0.9c1.4,0.4,2.7,0.2,4.1,0.3c0.7,0.1,1,0.5,0.6,1.3
					c-0.7,1.5-1.8,2.8-3.3,3.1c-0.2,0.1-0.4,0.2-0.6,0.3c0.2,0.1,0.3,0.3,0.5,0.4c0.5,0.3,1,0.5,1.6,0.4c-0.3-0.7,0.1-1,0.5-1.4
					c1-0.9,1.7-1.8,1.9-3.1c0.2-1.3,0-1.9-1.2-2c-0.7-0.1-1.5,0-2.3-0.1c-0.7,0-1-0.5-1.4-1.3V48.2c0.5-0.9,1-1.2,1.6-0.8h1.2
					c19.3-0.2,38.5,0.1,57.8,0.3C165.2,47.6,165.5,47.6,165.9,47.6z M103.3,90.2c0.4,0,0.5,0.4,0.5,0.9c0,3.4-0.1,6.8,0,10.3
					c0,0.6,0,1.1-0.1,1.7c0,0.5-0.2,0.9-0.6,0.9c-0.4,0-0.5-0.4-0.5-0.9c0-2.1,0-4.1,0.1-6.2c0-1.9,0-3.8,0.1-5.7
					C102.7,90.6,102.8,90.2,103.3,90.2z M106.8,160.1c1-0.1,1.4-0.6,1.2-1.7c-0.2-0.9-0.3-1.8-1.2-2.2c0.6,2.5,0.6,2.5-1.7,2.5
					c-0.7,0-1.5,0-2.2,0.2c-0.7,0.3-1.1-0.2-1-1.1c0-2.5,0-5,0.1-7.5c0-0.9,0.4-1.2,1.1-1c1,0.5,2.1,0.2,3.3,0.3s1.2,0.1,0.9,1.5
					c-0.1,0.3-0.1,0.7-0.2,0.9c0.7-0.3,1-1.2,1.2-1.9c0.3-1.4,0-1.9-1.3-2.1c-1-0.1-2.1,0.4-2.8-0.4c-0.9-0.9-0.2-2.5-0.3-3.7
					c-0.1-1.2-0.2-2.4-0.1-3.6c0.3-6.4-0.6-6.4,2.4-6.4c5.5,0.1,10.9,0.1,16.4,0.2c1.4,0,2.9,0,4.4,0.1c0.4,0,0.9,0.1,1.2,0.4
					c0.2,0,0.3-0.1,0.5-0.1c0.1,0,0.1,0,0.1,0s0.4-0.2,0.5-0.2v-0.1c0.1-0.1,0.2-0.1,0.3-0.1c0.2,0,0.2,0,0.2,0.1
					c0.7-0.1,1.3-0.1,1.9,0c0.4,0,0.9,0.1,1.2,0.3c0.2-0.4,0.6-0.5,1,0h1.2c9.7-0.4,28.7,0,28.7,0s0.1,0,0.4,0c2.4,0,2.4,0,2.4,2.8
					c-0.1,5.9-0.1,11.8-0.2,17.7c-0.1,5.8-0.1,11.5-0.2,17.2c0,2.7,0,2.7-2.1,2.6c-19.6-0.2-39-0.5-58.7-0.7c-0.3,0-0.7,0-1,0
					c-1.2,0-1.2-1.4-0.5-3.4c0.9-2.5,0.7-5.4-0.1-7.9c-0.6-2-0.2-2.8,0.7-2.8C105.4,160.1,106.2,160.2,106.8,160.1z M102.7,160
					l-0.2-0.1l0.2-0.1V160z M103.3,134.6c0,2,0,4-0.1,5.9c0,1.9,0,3.8-0.1,5.7c0,0.5-0.1,1.1-0.7,0.9c-0.4-0.1-0.5-0.5-0.5-0.9
					c0-3.9,0.1-7.9,0.1-11.8c0-0.5,0.1-1.1,0.7-0.9C103.1,133.7,103.3,134.2,103.3,134.6z M143,208.4c11.1,0.1,22.3,0.3,33.3,0.4
					c0.7,0,1.4,0.1,2.1,0.2c0.1,0,0.3,0.4,0.2,0.6c0,0.2-0.2,0.5-0.3,0.5c-0.4,0.1-1,0.1-1.4,0.1c-22.8-0.3-45.5-0.6-68.4-1.5h-0.6
					c-0.4,0.6-1.1,0.8-1.1,0c0-0.7,0.6-0.7,1-1h0.4C119.8,208.1,131.4,208.2,143,208.4z M106.4,208.7c0,1,0,2,0,2.9
					c0,0.2-0.2,0.5-0.3,0.5c-0.2,0.1-0.4-0.2-0.4-0.4c0-2.1,0-4.3,0.1-6.4c0-0.2,0.1-0.5,0.4-0.4c0.2,0.1,0.3,0.3,0.3,0.5
					C106.4,206.6,106.4,207.6,106.4,208.7z M175.9,241.1c-22.3-0.3-44.5-0.5-66.9-0.8c-0.4,0-0.9,0-1.2,0c-1,0.1-1.4-0.6-1.4-1.7
					c0-3.6,0.1-6.8,0.1-10.5c0-1.8,0-3.7,0.1-5.5c0.1-1.9,0.1-2,1.6-2.1c0.7,0,1.5,0,2.3,0c1.6,0,1.7-0.4,1.1-2.5
					c0,0.8-0.2,1.5-1.1,1.5c-0.1,0,0.3,0,0.1,0c-3.6,0.2-4.4-0.7-3.6-5.2c0.1-0.9,0.5-1.2,1.3-0.8c0.7,0.3,1.2,0.7,1.8,0.8
					c-0.3-1.1-1.3-1.4-2.1-1.7c-1-0.3-0.9-1.2-0.9-2c0.1-0.9,0.7-1.1,1.3-1.1c0.4,0,0.5,0,0.8,0c22.3,0.3,44.5,0.5,66.9,0.8
					c2.6,0,2.6,0,2.6,3c-0.1,8.3-0.2,16.5-0.2,24.6c0,0.5,0,1,0,1.5c0.1,1-0.3,1.6-1.3,1.5C176.6,241.1,176.2,241.1,175.9,241.1z
					 M105.3,222.5c0-0.4-0.1-0.9,0.3-1c0.5-0.1,0.4,0.5,0.4,0.9c-0.1,5.7-0.1,11.4-0.2,17.1c0,0.3-0.1,0.5-0.1,0.7
					c-0.1,0.1-0.2,0.2-0.3,0.2c-0.1,0-0.2-0.2-0.2-0.3c-0.1-0.6-0.1-1.1-0.1-1.7c0-2.5,0-4.9,0.1-7.5l0,0
					C105.3,228,105.3,225.2,105.3,222.5z M105.5,219.9c-0.6,0-0.5-0.6-0.6-1.1v-3.7c0.1-0.7,0.1-1.4,1-1.3c0.7,0.1,0.7,0.8,0.5,1.5
					v1.3h0.3c-0.1,0.9,0,1.7-0.2,2.4C106.5,219.5,106,219.9,105.5,219.9z M108.7,207.7c-1.4-0.5-2.1-2.1-1.4-3.4
					c0.2-0.5,0.7-0.5,1-0.6h2.7c1.6,0.1,1.7-0.3,1.1-2.4c0,0.9-0.2,1.3-1.1,1.5c-3.6,0.5-4.2-0.2-4-4.5c0.1-1.1,0.3-1.5,1.3-1.1
					c0.2,0.1,0.6,0.1,0.9,0.1c-2.1-1.8-2.1-5.7-2.1-5.7v-12c0,0,0.1-2.5,1.9-2.5c5.7,0.1,11.3,0.1,17,0.2
					c16.8,0.2,33.6,0.4,50.3,0.6c2.6,0,2.6,0,2.6,3.2c-0.1,8.1-0.2,15.9-0.1,23.9v1.7c-0.1,0.9-0.5,1.3-1.3-0.1h-1.4
					c-22.2,1.1-66.5,1-66.5,1L108.7,207.7L108.7,207.7z M105.1,198.2c0-0.5,0.2-0.9,0.7-0.8c0.4,0.1,0.9,0.1,0.9,0.8
					c0,1.4,0,2.8-0.1,4.2c0,0.7-0.5,1.1-1,1.1c-0.7,0.1-0.5-0.7-0.6-1.3c-0.1-0.6,0-1.1,0-1.7l0,0
					C105.1,199.7,105.1,199,105.1,198.2z M106.5,178.4c-0.1,5.3-0.1,10.7-0.2,16.1c0,0.3-0.1,0.7-0.1,1c0,0.1-0.2,0.2-0.3,0.2
					c-0.1,0-0.2-0.1-0.2-0.3c-0.1-0.6-0.1-1.1-0.1-1.7c0-2.4,0-4.7,0.1-7.2l0,0c0-2.7,0.1-5.3,0.1-8.1c0-0.4-0.1-1,0.3-1.1
					C106.6,177.2,106.5,178,106.5,178.4z M101.7,287.1c0.5,0,0.4,0.5,0.4,0.9c0,1.8,0,3.7-0.1,5.5c0,1.8,0,3.7-0.1,5.5
					c0,0.4,0.1,0.9-0.4,0.9c-0.2,0-0.3-0.5-0.3-0.8c0-3.7,0.1-7.5,0.1-11.3C101.4,287.4,101.4,287.1,101.7,287.1z M166.6,244.6
					c-0.1,13-0.4,38.9-0.4,38.9s0,0.7,0,1.1c0,0.6-0.5,1.2-1,1.2c-0.5,0-1.3,0-1.3,0s-39.5-0.4-59.3-1h-1.3
					c-0.9,0.5-1.2-0.1-1.5-1.2V271c0.4-0.3,0.4-0.5,0.4-0.7c0.1-0.1,0.2-0.3,0.2-0.3c0.2-0.1,0.3,0.2,0.3,0.4
					c0.1,0.6-0.2,1.9-0.2,1.9s-0.1,6.5-0.1,9.6c0,1.8,0.1,1.9,1.6,2c0.7,0,1.5,0,2.3,0c18.5,0.2,37,0.5,55.3,0.7
					c2.8,0,2.6,0.2,2.6-3.1c0.1-11.4,0.2-23,0.2-34.3c0-0.3,0-0.5,0-0.7c0-2.5,0-2.5-2.1-2.5c-19.2-0.2-38.6-0.5-57.9-0.7
					c-0.1,0-0.2,0-0.2,0c-1.8,0-1.8,0-1.8,2.2c0,2.8,0,8.2,0,8.2s0.2,1,0.1,1.5c-0.1,0.5,0.2,1.4-0.4,1.4c-0.5-0.1-0.3-1-0.3-1.5
					c-0.1-0.9,0-1.8,0-2.7c0-1.9,0-4,0.1-5.9c0.1-4.6-0.3-4.6,2.4-4.6c8.3,0.1,16.5,0.2,24.7,0.3c1.7,0,3.3,0,5.1,0.2l28.6,1h1.3
					C166.6,242.1,166.6,242.1,166.6,244.6z M179.6,176c1.4,0.2,1.5,0.3,1.4,2.2c-0.1,5.8-0.7,17.6-0.7,17.6l0.7,13.9v29.5v1.5
					c-0.5,2.5-2.4,2.7-2.4,2.7H171c0,0-0.7-0.3-1.1-0.4c-0.2,0-0.4-0.1-0.2-0.5c0.1-0.1,0.2-0.3,0.2-0.3c0.4-0.1,0.9-0.1,1.4-0.1
					c2.1,0,4.1,0,6.1,0.1c2.3,0,2.3,0,2.4-2.9c0.1-9.1,0.2-17.9,0.2-27c0.1-10.4,0.2-20.6,0.4-31v-1.7c-0.2-2.1-0.4-2.3-1.8-2.4
					c-2.3-0.1-4.5-0.1-6.8-0.1c-0.5,0-1.4,0.2-1.4-0.4c0-1,1-0.5,1.4-0.7L179.6,176L179.6,176z M168.1,135.1c0.1,0.6,0.1,1.1,0,1.7
					c-0.1,12.5-0.2,25-0.4,37.5v0.7c0,1.9,0,1.9-1.6,1.9c-4.2-0.1-12.7-0.5-12.7-0.5l-18.7,0.6l0,0h-30.1c0,0.4-0.9-0.9-1.2-0.9
					c-1.4-0.1-1.4-0.2-1.6-1.8v-12.1c0.1-0.3,0.1-0.5,0.2-0.7c0.1-0.5,0.2-0.8,0.7-0.7c0.3,0.1,0.4,0.3,0.5,0.7
					c0.1,0.8,0.1,2.5,0.1,2.5v9.1c0,0,0.1,2,1.6,2.2c0.5,0.1,1.4,0.3,1.4-0.3h57.4c0,0.6,0.6,1.1,0.9,1.1c2.1,0,2.1,0,2.1-2.5
					c0.1-12.1,0.2-24.2,0.3-36.2c0-0.7,0-1.5,0.1-2.3c0-0.4,0.2-0.6,0.6-0.6C167.9,134.4,168.2,134.7,168.1,135.1z M168.5,92.7
					c0.1,0.3,0,0.7-0.1,1v36.6c-0.2,0.5-0.2,1-0.2,1.5c0.1,1.1-0.3,1.7-1.4,1.7c-0.4,0-1.2-0.1-1.2-0.1h-30.7c0,0-20.2-0.6-30.4-0.7
					c-2.3,0-2.3,0-2.6-2.7v-11.1c0.4-0.6,0.1-1.6,1-1.6c0.7,0,0.6,0.9,0.5,1.6V129c0.1,2.5,0.2,2.7,2.2,2.8
					c9.8,0.1,29.4,0.6,29.4,0.6h28.6c0,0,1,0.1,1.4,0.1c1.5,0,1.7-0.3,1.8-2c0-0.6,0-1.1,0-1.7V94.4v-1.7c0.3-0.6,0.1-1.6,0.9-1.5
					C168.8,91.2,168.5,92.1,168.5,92.7z M106.8,89.7c19.9,0.2,39.6,0.5,59.5,0.7c2.7,0,2.7,0,2.7,3c-0.1,11.7-0.2,23.3-0.2,34.9
					c0,2.8,0,2.8-2.2,2.8c-20-0.2-39.9-0.5-59.9-0.7c-0.4,0-0.9,0-1.3,0c-0.9,0-1.3-0.6-1.1-1.8c0.3-3.5,0.6-7,0.1-10.4
					c-0.2-1.8,0.3-2.4,1.4-2.3c0.7,0.1,1.4,0.1,2.1,0c1.2-0.1,1.3-0.3,0.7-2c-0.1,0.9-0.7,0.9-1.3,1c-1.3,0.1-2.5-0.2-3.7,0.3
					c-0.7,0.3-0.9-0.3-0.9-0.9c0-2.5,0.1-5,0.1-7.7c0-0.9,0.4-1.3,1.2-0.9c1,0.5,2.2,0.2,3.4,0.3c1.3,0.1,1.3,0.1,0.9,1.5
					c-0.1,0.3-0.1,0.7-0.2,0.9c0.7-0.3,1-1,1.2-1.7c0.4-1.5,0.1-2.1-1.3-2.3c-1-0.1-2.2,0.4-2.9-0.4c-0.7-0.9-0.3-2.4-0.3-3.6
					c0-2.9,0-5.8,0.1-8.9c0-1.6,0.1-1.7,1.5-1.8C106,89.7,106.4,89.7,106.8,89.7z M168.4,52.1c-3.6,10.1-3.1,21.4-0.2,31.8
					c0.5,1.6,0.3,3.2,0.2,4.8c0,0.9-1.2,1.2-1.2,1.2h-1.4c0,0-40.4-0.4-60.7-0.6c-2.6,0-2.6,0.2-2.4-3.2V75.6
					c-0.1-0.6-0.3-1.6,0.5-1.6c0.8,0,0.6,0.9,1,1.5v9.9c-0.4,2.5-0.4,2.5,1.7,2.5c14,0.2,27.9,0.3,41.9,0.5c5.7,0.1,17-0.4,17-0.4
					s1.1,0,1.7,0c0.4-0.1,0.7-0.5,0.9-0.9c0.1-0.6,0.1-1.1,0.1-1.7c0.1-12,0.2-24.1,0.3-36.1c0-0.4,0-0.9,0-1.3c0-1-0.3-1.6-1.2-1.6
					c-0.4,0-0.9,0-1.2,0c-19.5-0.2-39.1-0.5-58.6-0.7c-2.6,0-2.6,0-2.6,2.9c0,3.3,0,10.3,0,10.3s0.2,1.6-0.6,1.6s-0.6-0.9-0.9-1.6
					V46.5c0.4-1.9,0.4-1.9,2-1.9c4.7,0.1,9.5,0.1,14.3,0.2c5.7,0.1,11.3,0.1,17,0.2c10,0.1,20,0.2,30.1,0.4h1.7
					c0.7,0,1.2,0.4,1.2,1.4C169,48.7,169.1,50.5,168.4,52.1z M92.5,40.1c-1.5-0.9-2.4,1.6-2.4,1.6s0,0.7,0,1
					c0.1,1.1-0.4,1.4-1.2,1.4c-2,0-4-0.1-6.1-0.1c-1.6,0-3,0-4.5-0.1C77,43.7,77,43.6,76.8,42c0-0.3,0-1.1,0-1.1s-0.3-23.2,0-34.6V5
					c-0.1-1.5-0.1-1.6,1.3-1.2h1.2c32.6-0.1,97.8,1,97.8,1s0.4,0,0.7,0c2.1,0,2.1,0,2.1,2.5c-0.1,11.8-0.2,23.7-0.2,35.5
					c0,0.4,0,0.8,0,1.3c0,0.8-0.3,1.3-1,1.3c-0.6,0-1.7,0-1.7,0s-50.4-0.8-75.7-1h-0.6c-1.8-0.2-1.8-0.2-2.3-2.3v-1
					c0.3-1.3,0.1-1.4-1.3-0.8c0.3,0.1,0.7,0.3,0.7,0.7c0.1,1.5,0.2,3,0.2,4.5c0.1,0.7-0.3,0.8-0.7,0.8c-1.7,0-3.3,0-5-0.1
					c-0.7,0-1.2-0.3-1-1.2c0.3-1.2,0.2-2.5,0.3-3.7c0.1-0.7,0.3-0.9,0.9-0.5c0.5,0.5,1.1,0.9,1.6,1.5C94.1,41.1,93.3,40.5,92.5,40.1
					z M99.6,46.4c-0.3-0.3-0.7-0.5-0.7-0.9c0.1-0.5,0.4-0.7,0.7-0.1h1.8c0.4-0.6,0.9-0.5,0.9,0.1c-0.1,0.7-0.6,0.7-1,0.9h-0.9l0,0
					H99.6z M181.3,5.6c-0.1,12.6-0.2,25.2-0.3,37.7c0,0.5,0,1.9,0,1.9s-0.4,1.9-1.8,2.2h-8.3c-0.2-0.4-0.6-0.4-0.9-0.5
					c-0.3-0.1-0.5-0.3-0.4-0.7c0.1-0.2,0.2-0.5,0.4-0.5c0.5-0.1,1-0.1,1.4-0.3h6.6c1.7,0.3,1.8,0.2,1.8-1.8
					c0.1-8.1,0.4-23.9,0.4-23.9s0.1-9.2,0.1-13.8c0-2-0.1-2.1-1.8-2.2c-0.4,0.1-1.2,0.1-1.2,0.1s-65.2-0.8-98.4-1.2
					c-3.3,0-3.3,0-3.3,3.8c-0.1,11.5-0.2,22.8-0.2,34.2c0,0.4,0,0.9,0,1.3c0,2.2,0.2,2.5,2.1,2.5c3.5,0,10.2,0,10.2,0
					s1.1,0.3,1.7,0.4c0.3,0,0.5,0.3,0.5,0.7c0,0.3-0.2,0.7-0.5,0.7c-0.7,0.1-1.4,0-2.1,0c-1.4,0.1-1.4,0.1-1.5,1.8v2
					c-0.1,20.8-0.3,41.7-0.4,62.4C85,133,85,153.8,85,174.3v1.7c-0.3,1.9-1.9,1.9-1.9,1.9h-6.9c0,0-1.8,1-1.6,2.2v1.5
					c-0.5,19.1-0.7,38.3-0.7,57.4v1.3c-0.1,2.3,2.1,3,2.1,3h6.8c0,0,1.5-0.1,1.5,1.6v2c-0.4,40.3-1.6,120.1-1.5,120.1v1.3
					c-0.1,2.7-0.3,3,2.2,3c0.5,0,1.5-0.3,1.5,0.6c0.1,1.3-1,0.8-1.5,0.8c-12.3-0.2-24.5-0.3-36.8-0.5c-8.3-0.1-25-0.2-25-0.2
					s-1.5,0-2,0c-0.7,0.1-1.3,0.6-1.3,1.6c0,0.7,0,1.3,0,2c-0.1,11.7-0.2,23.4-0.2,34.9c0,0.8,0.2,2.2-0.3,2.2
					c-0.7,0-0.4-1.3-0.4-2.1c0.1-12.5,0.2-25,0.3-37.6c0-2.7,0-2.7,2.3-2.6c19.1,0.2,38.1,0.5,57.1,0.7c3.9,0.1,2.4,0.5,3-8.1
					c0.3-36.5,0.6-73.1,1-109.6c-0.7-9.3,1.1-8.7-3-8.8c-1.8,0-3.6,0-5.4-0.1c-1.3-0.1-1.4-0.2-1.4-1.8c0-0.5-0.4-1.5-0.4-1.5v-61
					c0,0,1-0.9,1.1-1.3c0.1-1.9,0.1-1.9,1.7-2c2.2,0,5,0.1,7.3,0.1c1.6,0,1.6-0.1,1.7-2c0-0.5,0-1,0-1.5c0.3-41.4,0.7-82.6,1-124
					c0-3.8,0.3-3.5-3-3.6c-1.9,0-3.8,0-5.8-0.1C75.1,45.7,75,45.6,75,44c0-2.7,0.2-8.4,0.2-8.4V4.4c0,0,0.1-1,0.1-1.5
					C75.4,1,75.4,1,77,0.9c0.4,0,0.9,0,1.2,0c33.5,0.4,66.9,0.8,100.5,1.2C181.6,2.2,181.3,1.8,181.3,5.6z"/>
			</g>
			<line class="st0" x1="216.5" y1="0.2" x2="194.1" y2="0.2"/>
		</g>
		<polygon points="90.4,44.4 90.5,44.4 90.4,44.2 		"/>
		<path d="M76.8,719c0-0.3,0-0.7,0-1c0.2,0,0.4-0.1,0.6,0c0.5,0.1,1.4-0.2,1.4,0.7c-0.1,1-0.9,0.2-1.4,0.3
			C77.4,719.1,77.1,719,76.8,719z"/>
		<path d="M79.1,478.8c0-0.3,0-0.7,0-1c0.2,0,0.4-0.1,0.6,0c0.5,0.1,1.4-0.2,1.4,0.7c-0.1,1-0.9,0.2-1.4,0.3
			C79.5,478.8,79.3,478.8,79.1,478.8z"/>
		<path d="M79.1,436.3c0-0.3,0-0.7,0-1c0.2,0,0.4-0.1,0.6,0c0.5,0.1,1.4-0.2,1.4,0.7c-0.1,1-0.9,0.2-1.4,0.3
			C79.4,436.3,79.3,436.3,79.1,436.3z"/>
		<path d="M76.7,718c-1.2-0.3-1.8-1.1-2.1-2.5C75.5,716.1,76.3,716.9,76.7,718z"/>
		<path d="M76.3,676c0.2-0.8,1-0.9,1.3-1.5c0.2,0,0.4-0.1,0.6,0c0.2,0,0.5,0,0.6,0.2c0.2,0.3-0.1,0.3-0.2,0.4
			C77.7,675.4,77.1,676.1,76.3,676z"/>
		<path d="M76.7,632.8c0.2-0.8,1-0.9,1.3-1.5c0.2,0,0.6-0.1,0.7,0c0.2,0,0.3,0.2,0.5,0.3c-0.1,0.1-0.2,0.3-0.2,0.3
			C78.2,632.1,77.5,632.9,76.7,632.8z"/>
		<path d="M78.8,522.6c-0.3-0.6-1-0.7-1.2-1.5c0.6,0,1,0.3,1.5,0.7c0.3,0.3,1,0,0.9,0.7C79.9,522.6,79.1,522.5,78.8,522.6z"/>
		<path d="M79.1,435c-1.2-0.3-1.8-1.1-2.1-2.5C77.9,433,78.6,433.9,79.1,435z"/>
		<path d="M76.3,525c0.1-1.2,0.7-1.9,1.7-2C77.5,523.9,77.1,524.5,76.3,525z"/>
		<path d="M77.1,630.9c-1-0.1-1.5-0.8-1.6-2C76.1,629.2,76.7,630,77.1,630.9z"/>
		<path d="M76.7,674c-1-0.1-1.5-0.8-1.6-2C75.8,672.6,76.3,673.2,76.7,674z"/>
		<path d="M74.3,722.4c-0.1-0.9,0.1-1.6,0.9-2C75,721.2,74.7,722,74.3,722.4z"/>
		<path d="M76.7,520.1c-0.7-0.4-0.9-1.1-0.9-2C76.5,518.5,76.7,519.2,76.7,520.1z"/>
		<path d="M77.1,476.7c-0.7-0.4-0.9-1.1-0.9-2C76.8,475.2,77.1,475.8,77.1,476.7z"/>
		<path d="M74.6,679.2c-0.1-0.9,0.1-1.6,0.9-2C75.4,678,75.1,678.8,74.6,679.2z"/>
		<path d="M74.9,635.8c-0.1-0.9,0.1-1.6,0.9-2C75.7,634.6,75.5,635.5,74.9,635.8z"/>
		<path d="M77.8,437c0.2-0.7,0.7-1,1.2-1C78.8,436.6,78.5,437,77.8,437z"/>
		<path d="M78.7,478.3c-0.6,0-1-0.3-1.2-1C78.2,477.2,78.5,477.6,78.7,478.3z"/>
		<path d="M77.5,480.2c0.2-0.7,0.7-1,1.2-1C78.5,479.9,78,480.3,77.5,480.2z"/>
		<path d="M75.5,720.1c0.2-0.7,0.7-1,1.2-1C76.5,719.7,76.1,720.1,75.5,720.1z"/>
		<path d="M75.8,633.8c0-0.6,0.2-0.9,0.9-1C76.5,633.4,76.2,633.7,75.8,633.8z"/>
		<path d="M75.4,677.2c0-0.6,0.2-0.9,0.9-1C76.1,676.6,75.9,676.9,75.4,677.2z"/>
		<path d="M77.5,674.6c-0.3,0-0.7-0.1-0.9-0.5C77.1,674,77.4,674.2,77.5,674.6z"/>
		<path d="M77.9,631.4c-0.3,0-0.7-0.1-0.9-0.5C77.4,630.9,77.7,631,77.9,631.4z"/>
		<path d="M77.9,523c0.2-0.4,0.5-0.5,0.9-0.5C78.7,523,78.2,523,77.9,523z"/>
		<path d="M75.1,720.4c0.1-0.1,0.2-0.3,0.4-0.5C75.4,720.2,75.3,720.3,75.1,720.4z"/>
		<path d="M77.1,520.6c-0.1-0.1-0.2-0.3-0.4-0.5C76.8,520.3,77,520.4,77.1,520.6z"/>
		<path d="M77.5,477.2c-0.1-0.1-0.2-0.3-0.4-0.5C77.2,476.9,77.4,477,77.5,477.2z"/>
		<path d="M77.5,521.1c-0.1-0.1-0.2-0.3-0.4-0.5C77.3,520.8,77.5,521,77.5,521.1z"/>
		<path d="M104.6,306.2c-0.1,0.5-0.2,0.8,0.2,1.1c0.2,0.2,0.4,0.5,0.6,0.9c-1-0.1-1.7-1-2.6-1c-0.1,0-0.2-0.2-0.2-0.3
			c0.1-0.1,0.2-0.2,0.3-0.3C103.4,306.4,104,306,104.6,306.2z"/>
		<path d="M105,262.9c-0.2,0.5-0.2,0.8,0.2,1.1c0.2,0.2,0.4,0.5,0.6,0.9c-1-0.1-1.7-1-2.6-1c-0.1,0-0.2-0.2-0.2-0.3
			c0.1-0.1,0.2-0.2,0.3-0.3C103.8,263.1,104.3,262.8,105,262.9z"/>
		<path d="M106.7,260.9c-0.1,1.2-0.7,1.9-1.7,2C105.4,262,106,261.4,106.7,260.9z"/>
		<path d="M107.1,259.9c0,0.4-0.1,0.8-0.4,1C106.7,260.5,106.7,260.1,107.1,259.9z"/>
		<path d="M105.5,348.6c-0.1,0.1-0.2,0.3-0.4,0.5C105.2,348.9,105.4,348.7,105.5,348.6z"/>
		<path d="M105.5,308.3c0.1,0.1,0.2,0.3,0.4,0.5C105.7,308.6,105.5,308.4,105.5,308.3z"/>
		<path d="M105.8,265c0.1,0.1,0.2,0.3,0.4,0.5C106,265.3,105.9,265.1,105.8,265z"/>
		<path d="M22.5,770.5c5.1,0.1,10.3,0.1,15.4,0.2c0.5,0,1,0,1.4,0c0.9,0,1.3,0.6,1.3,1.6c0,3.5,0,9.9,0,9.9s-0.2,1.2-1,0.4h-1.2
			c-10.6,0.8-31.9,1-31.9,1s-0.5,0-0.8,0c-0.9,0-1.3-0.4-1.3-1.5c0-3.5,0.1-6.9,0.1-10.5c0-0.9,0.4-1.3,1.2-1.3c1.5,0,3,0,4.5,0.1
			C14.2,770.4,18.3,770.4,22.5,770.5z M18.5,776.7L18.5,776.7c0,1.3,0,2.5,0,3.7c0,2.3,0,2.2,2.1,2.3c0.2,0,0.4,0,0.6,0
			c1.3-0.1,1.4-0.1,1.4-1.8c0.1-2.1,0-4.3,0.1-6.5c0-3.3-0.3-3.7-3-3.2c-0.7,0.1-1,0.5-1,1.3C18.5,773.8,18.5,775.3,18.5,776.7z
			 M17.7,776.8L17.7,776.8c0-1.1,0-2.4,0-3.6c0-2.6,0-2.6-2.1-2.6c-0.1,0-0.2,0-0.4,0c-1.7,0-1.6,0.1-1.7,2.4c0,2.2,0,4.2-0.1,6.4
			c0,3.1-0.2,3.1,2.1,3.1c0.2,0,0.4,0,0.7,0c1,0.1,1.5-0.4,1.4-1.7C17.7,779.6,17.7,778.3,17.7,776.8z M8.7,777.6L8.7,777.6
			c0-1.1,0.1-2.4,0-3.6c0-2.5,0-2.3-2.5-2.4c0,0,0,0-0.1,0c-2.1,0.1-1.6,0-1.8,4.8c-0.1,0.6-0.1,1.2,0,2c0.2,5-0.5,5,1.9,5.1
			c0.4,0,0.9,0,1.2,0c0.7,0,1-0.5,1-1.3C8.6,780.7,8.6,779,8.7,777.6z M31.3,776.8L31.3,776.8c0,1.3-0.1,2.7,0,4
			c0,1.9,0.1,1.7,1.8,1.8c0.1,0,0.2,0,0.2,0c2.4-0.1,1.8,0.2,2.1-3.6c0-0.5,0-1.1,0-1.5c-0.2-6.4,0.7-6.5-2.6-6.4
			c-0.4,0-1,0-1.4,0.1c-0.1,0-0.1,0.1-0.1,0.1C31.3,773,31.3,775,31.3,776.8z M26.6,775.9c0-1.1,0-2.3,0-3.5c0-1.2-0.3-1.7-1.2-1.8
			c-0.3,0-0.7,0-1,0c-1.3,0.1-1.4,0.1-1.5,1.8c-0.1,2.7-0.1,5.2-0.1,8.1c0,2,0.1,2,1.7,2.1c0.2,0,0.7,0,0.9,0
			c0.9,0.1,1.2-0.5,1.3-1.6C26.5,779.2,26.7,777.6,26.6,775.9z M9.6,776.7c0,1.4,0,2.9,0,4.3c-0.1,1.2,0.4,1.7,1.4,1.6
			c0.4,0,0.9,0,1.2,0c0.7,0,1.1-0.5,1.1-1.4c0-3,0.1-6,0.1-9c0-0.9-0.3-1.3-1.2-1.4c-0.4,0-0.9,0-1.2,0c-1-0.1-1.4,0.5-1.4,1.7
			C9.6,774,9.6,775.4,9.6,776.7z M39.7,777.6L39.7,777.6c-0.7,0-1-0.6-0.7-1.3c1.2-3.2,1-4.7-0.3-4.7c-0.5,0-1,0-1.5,0
			c-1.2,0-1.3,1-1,2.8c0.3,2.1,0.4,4.2-0.1,6.2c-0.4,1.9-0.2,2.8,1,2.9c0.4,0,0.9,0,1.2,0c1,0.1,1.4-0.5,1.4-1.8
			C39.7,780.4,39.7,778.9,39.7,777.6z M27.3,777.2L27.3,777.2c0,1.6,0,3.1,0,4.7c0,0.8,0.3,1.2,1,1.3c0.4,0,0.9,0.1,1.2,0
			c1.4-0.1,1.4-0.1,1.4-1.8c0.1-2.6,0.1-5.1,0.1-7.9c0-1.7-0.1-1.8-1.4-1.9c-0.3,0-0.7,0-1,0c-0.9-0.1-1.2,0.5-1.3,1.5
			C27.3,774.7,27.3,776,27.3,777.2z"/>
		<path d="M21.3,766.8c-3.3,0-6.6-0.1-10-0.1c-1,0-1.8-0.2-2.8,0.6c-0.7,0.7-1.4-0.4-1.9-0.8c-0.2-0.1-0.2-0.4-0.1-0.7
			c0.3-0.6,1.7-1.2,2.1-0.7c0.7,0.7,1.5,0.6,2.4,0.6c6.8,0.1,13.4,0.2,20.3,0.3c0.7,0,1.8-0.5,1.8,0.6c0.1,0.7-1.2,0.4-1.8,0.4
			C28.1,766.9,24.6,766.9,21.3,766.8z"/>
		<path d="M89,745.9c0.4,0.2,0.7,0.5,0.9,1C89.3,746.9,89,746.5,89,745.9z"/>
		<path d="M161.1,5.6c5,0.1,10,0.1,15.1,0.2c1.9,0,2.1,0.1,1.9,2.4c0,2.8-0.1,5.7-0.1,8.6c0,2.1-0.1,2.2-1.8,2.2
			c-6.9-0.1-13.6-0.2-20.5-0.3c-3.5,0-6.9-0.1-10.3-0.1c-1.6,0-1.7-0.2-1.7-2c0-3,0-6,0.1-9.1c0-2,0.2-2.1,1.8-2
			C150.7,5.5,155.9,5.5,161.1,5.6z M157.4,12.7L157.4,12.7c0,1.3,0,2.5,0,3.7c0,0.1,0,0.1,0,0.3c0,2,0.1,2.1,1.8,2.1
			c0.1,0,0.2,0,0.4,0c1.4,0,1.4-0.1,1.4-2.1c0-2.5,0-5,0.1-7.5c0-2.1,0-2.2-1.6-2.3c-0.2,0-0.6,0-0.9,0c-1.4-0.1-1.7,1.2-0.6,4.7
			C158.3,12.2,158,12.7,157.4,12.7z M164.8,12.9c0-1.6,0-3.1,0-4.7c0-1.1-0.3-1.5-1.2-1.5c-0.2,0-0.4,0-0.6,0c-1.7,0-1.8,0-1.8,2
			c0,2.7-0.1,5.3-0.1,7.9c0,1.9,0.1,1.9,1.6,2c0.2,0,0.6,0,0.9,0c0.9,0.1,1.2-0.5,1.3-1.5C164.8,15.6,164.8,14.2,164.8,12.9z
			 M174.4,12.8c0,1.4-0.1,2.8,0,4.2c0,1.6,0.1,1.7,1.4,1.8c0.4,0,0.9,0,1.3,0c0.7,0,1-0.4,1-1.2c0-3.1,0.1-6.3,0.1-9.6
			c0-0.8-0.3-1.3-1-1.3c-0.4,0-0.9-0.1-1.3,0c-1.4,0.1-1.4,0.1-1.5,1.7C174.4,9.8,174.4,11.4,174.4,12.8z M169.2,12.8
			c0-1.4,0.1-2.8,0-4.2c0-1.6-0.1-1.7-1.4-1.8c-0.4,0-0.9,0-1.3,0c-0.7,0-1,0.4-1,1.2c0,3.1-0.1,6.3-0.1,9.6c0,0.8,0.3,1.3,1,1.3
			c0.4,0,0.9,0.1,1.3,0c1.4-0.1,1.4-0.1,1.5-1.7C169.2,15.6,169.2,14.1,169.2,12.8z M152.2,12.8L152.2,12.8c-0.7,0-1-0.6-0.7-1.3
			c1-3.1,1.2-4.7-0.2-4.7c-0.4,0-0.7,0-1.2,0c-0.7-0.1-1.5,0.7-1.5,1.6c0,3-0.1,5.9-0.1,8.9c0,0.9,0.3,1.4,1.2,1.4
			c0.4,0,0.7,0,1.2,0c1,0.1,1.5-0.4,1.4-1.6C152.2,15.5,152.2,14.1,152.2,12.8z M147.8,11.8L147.8,11.8c0-1.6,0-3.1,0-4.7
			c0-0.9-0.2-1.4-1.1-1.4c-0.4,0-0.9,0-1.2,0c-1-0.1-1.4,0.4-1.4,1.6c0,3-0.1,5.9-0.1,8.9c0,0.9,0.3,1.4,1.1,1.4c0.4,0,0.9,0,1.2,0
			c1,0.1,1.4-0.4,1.4-1.6C147.8,14.5,147.8,13.2,147.8,11.8z M153.1,12.2c0,1.5-0.1,3,0,4.5c0.1,1.4,0.2,1.5,1.6,1.6
			c1.4,0,1.7-0.1,1.7-1.4c0.1-3,0.1-6,0.1-9.1c0-1.4-0.2-1.5-1.6-1.6s-1.6,0.1-1.7,1.4C153.1,9.1,153.1,10.5,153.1,12.2z
			 M173.6,12.6c0-1.6,0-3.1,0-4.7c0-1.3-0.7-1.4-1.5-1.4c-1.4,0-1.7,0.1-1.8,1.3c-0.1,3.1-0.1,6.1-0.1,9.3c0,1.3,0.7,1.4,1.5,1.4
			c1.4,0,1.7-0.1,1.8-1.3C173.6,15.5,173.6,14.1,173.6,12.6z"/>
		<path d="M158.2,22.2c4.9,0.1,9.7,0.1,14.6,0.2c0.4,0,0.7-0.2,1.1-0.4c0.7-0.5,2.1-0.2,2.4,0.5c0.1,0.2,0.1,0.5-0.1,0.7
			c-0.5,0.7-1.8,1-2.4,0.5c-0.7-0.7-1.6-0.5-2.4-0.5c-8.5-0.1-16.9-0.2-25.4-0.3c-0.6,0-1.1,0.2-1.6-0.2c0.5-0.6,1.1-0.5,1.7-0.5
			C150.1,22.1,154.2,22.1,158.2,22.2L158.2,22.2z"/>
		<path d="M94.6,42.6c0,0.3,0,0.7,0,1c0,0.2,0,0.5-0.2,0.5c-0.1,0-0.2-0.2-0.2-0.3c-0.1-0.5-0.2-1.1-0.3-1.7
			C94.1,42.3,94.4,42.5,94.6,42.6z"/>
		<path d="M96.8,40.2c-0.2,0.4-0.5,0.5-0.9,0.5C96.3,40.2,96.5,40.2,96.8,40.2z"/>
		<path d="M95.2,41.7c0,0.4-0.1,0.8-0.4,1C94.7,42.2,94.9,41.9,95.2,41.7z"/>
		<path d="M96.1,40.6c-0.1,0.1-0.2,0.3-0.4,0.5C95.8,41,95.9,40.8,96.1,40.6z"/>
		<path d="M95.6,41.2c-0.1,0.1-0.2,0.3-0.4,0.5C95.3,41.5,95.5,41.3,95.6,41.2z"/>
		<path d="M158.5,399.8c4.9,0.1,9.9,0.1,14.7,0.2c2,0,2,0.1,1.9,2.4c0,2.8-0.1,5.6-0.1,8.4c0,2.1-0.1,2.2-1.8,2.2
			c-6.7-0.1-13.4-0.2-20-0.3c-3.4,0-6.7-0.1-10.1-0.1c-1.6,0-1.6-0.2-1.6-2c0-3,0-5.9,0.1-8.9c0-2,0.1-2.1,1.8-2
			C148.2,399.7,153.3,399.8,158.5,399.8z M162.6,406.3L162.6,406.3c0,1.5,0,3,0,4.5c0,0.8,0.3,1.2,1,1.3c0.4,0,0.9,0.1,1.2,0
			c1.4,0,1.4-0.1,1.4-2.1c0-2.3,0-4.7,0.1-6.9c0-2.3,0-2.4-1.6-2.4c-0.2,0-0.6,0-0.9,0c-0.9-0.1-1.2,0.5-1.3,1.5
			C162.6,403.5,162.6,404.9,162.6,406.3z M170.6,406.6c0,1.3-0.1,2.8,0,4.1c0,1.8,0.1,1.8,1.4,1.9c0.4,0,0.9,0,1.2,0
			c0.7,0,1-0.4,1.2-1.2c0-3.1,0.1-6.2,0.1-9.3c0-0.9-0.4-1.3-1.2-1.3c-0.3,0-0.7,0-1,0c-1.4,0.1-1.4,0.1-1.5,1.8
			C170.6,403.9,170.6,405.3,170.6,406.6z M144.6,407.1L144.6,407.1c-0.4-0.8-0.4-0.7-0.9-1.6c1.2-2.9,1.1-4.3-0.2-4.4
			c-0.4,0-0.9-0.1-1.2,0c-1.4,0-1.4,0.2-1.4,2.1c0,2.4,0,4.7-0.1,7.1c0,2.1,0,2.1,1.6,2.2c0.2,0,0.6,0,0.9,0
			c0.9,0.1,1.2-0.5,1.3-1.5C144.5,409.6,144.6,408.4,144.6,407.1z M145.6,406.4c0,1.5,0,3.1,0,4.6c0,1.1,0.3,1.5,1.3,1.5
			c0.3,0,0.7,0,1,0c1.3-0.1,1.4-0.1,1.5-1.8c0.1-2.7,0.1-5.1,0.1-8c0-1.9-0.1-1.9-1.6-2.1c-0.2,0-0.7,0-0.9,0
			c-0.9-0.1-1.2,0.5-1.3,1.5C145.6,403.7,145.6,405.1,145.6,406.4z M153.7,406.4L153.7,406.4c0,1.5,0,3,0,4.5c0,0.8,0.3,1.2,1,1.3
			c0.4,0,0.9,0.1,1.2,0c1.4-0.1,1.4-0.1,1.4-1.8c0.1-2.6,0.1-5.1,0.1-7.9c0-1.7-0.1-1.7-1.4-1.9c-0.3,0-0.7,0-1,0
			c-0.9-0.1-1.2,0.5-1.3,1.5C153.7,403.6,153.7,405,153.7,406.4z M158.1,406.4L158.1,406.4c0,1.5,0,3,0,4.5c0,0.8,0.3,1.2,1,1.3
			c0.4,0,0.9,0.1,1.2,0c1.4-0.1,1.4-0.1,1.4-1.8c0.1-2.6,0.1-5.1,0.1-7.9c0-1.7-0.1-1.8-1.4-1.9c-0.3,0-0.7,0-1,0
			c-0.9-0.1-1.2,0.5-1.3,1.5C158.1,403.6,158.1,405,158.1,406.4z M170.2,407.1c0-1.4,0.1-2.8,0-4.3c-0.1-1.4-0.2-1.5-1.6-1.6
			c-1.4,0-1.7,0.1-1.7,1.4c-0.1,2.8-0.1,5.7-0.1,8.6c0,1.4,0.2,1.5,1.6,1.6c1.4,0,1.6-0.1,1.7-1.4
			C170.2,409.8,170.2,408.5,170.2,407.1z M153.1,407.3L153.1,407.3c0-1.4,0.1-2.8,0-4.3c0-1.6-0.2-1.7-1.6-1.8
			c-1.4,0-1.6,0.1-1.7,1.7c-0.1,2.5,0,4.9-0.1,7.5c0,2.2,0.2,2.4,2.1,2.3c0.7-0.1,1.3-0.7,1.3-1.6
			C153.1,409.8,153.1,408.5,153.1,407.3z"/>
		<path d="M155.8,396.3c4.4,0.1,8.7,0.1,13,0.2c0.7,0,1.5,0.2,2.1-0.6c0.1-0.1,0.2-0.2,0.3-0.3c0.9-0.1,1.4,0.5,2.1,1
			c0.3,0.3,0,0.7-0.2,0.7c-0.7,0.3-1.4,1.7-2.3,0.3c-0.6-1-1.4-0.7-2.1-0.7c-6.4-0.1-12.9-0.2-19.3-0.2c-2.4,0-5-0.1-7.5-0.1
			c-0.2,0-0.6-0.1-0.6-0.2c0.1-0.5,0.4-0.3,0.6-0.3C146.6,396.2,151.2,396.2,155.8,396.3L155.8,396.3z"/>
		<path d="M76.6,388c-1.4-0.4-2.1-1.4-2.4-3C75.1,385.8,75.9,386.8,76.6,388z"/>
		<path d="M91,376c0-0.9,0.4-1.5,0.7-2.3c0.1-0.3,0-0.7,0.4-0.6c0.1,0.1,0.1,0.6,0.2,0.9c0,0.1,0,0.3,0,0.5
			C91.8,375,91.7,375.8,91,376z"/>
		<path d="M92.5,375.6c0.6,0.3,1,0.8,1.2,1.5C92.9,377,92.5,376.5,92.5,375.6z"/>
		<path d="M88.6,377.5c0.4-0.7,1-0.9,1.7-1C90.1,377.5,89.4,377.6,88.6,377.5z"/>
		<path d="M77.4,388.5c-0.3,0-0.7-0.1-0.9-0.5C77,388.1,77.2,388.1,77.4,388.5z"/>
		<path d="M92.1,374.6c0.3,0.2,0.4,0.6,0.3,1C92.1,375.4,92.1,375,92.1,374.6z"/>
		<path d="M92.1,411.3c0,0.4-0.1,0.8-0.4,1C91.7,411.9,91.8,411.6,92.1,411.3z"/>
		<path d="M92.9,410.4c-0.1,0.1-0.2,0.3-0.4,0.5C92.7,410.7,92.9,410.5,92.9,410.4z"/>
		<path d="M92.5,410.9c-0.1,0.1-0.2,0.3-0.4,0.5C92.3,411.2,92.5,411,92.5,410.9z"/>
		<path d="M90.4,376.6c0.1-0.1,0.2-0.3,0.4-0.5C90.6,376.2,90.5,376.4,90.4,376.6z"/>
		<path d="M108.2,70.1c-0.7-0.5-1.3-1.2-1.6-2C107.6,68.2,108.1,68.9,108.2,70.1z"/>
		<path d="M108.6,71c-0.3-0.2-0.4-0.6-0.3-1C108.6,70.3,108.6,70.6,108.6,71z"/>
		<path d="M106.2,111.2c-0.2,0-0.4,0.1-0.6,0c-0.5-0.2-1.4-0.3-1.4-0.7c0-0.6,0.9-0.3,1.4-0.7c0.4-0.3,1-0.7,1.5-0.6
			c-0.2,0.3-0.3,0.7-0.6,0.9C106,110.4,106,110.8,106.2,111.2z"/>
		<path d="M107.9,113.3c-0.7-0.5-1.3-1.2-1.6-2C107.2,111.5,107.8,112.2,107.9,113.3z"/>
		<path d="M108.2,114.4c-0.3-0.2-0.4-0.6-0.3-1C108.2,113.6,108.2,114,108.2,114.4z"/>
		<path d="M107.1,109.2c0.1-0.1,0.2-0.3,0.4-0.5C107.4,108.9,107.1,109.1,107.1,109.2z"/>
		<path d="M106.2,155.2c-0.7-0.2-1.4-0.4-2.1-0.6c-0.2-0.1-0.4-0.2-0.4-0.4c-0.1-0.3,0.2-0.5,0.4-0.5c0.5-0.1,1-0.1,1.4,0
			C105.7,154.1,106,154.6,106.2,155.2z"/>
		<path d="M105.5,153.6c0.2-0.4,0.5-0.5,0.9-0.5C106.2,153.6,105.8,153.6,105.5,153.6z"/>
		<path d="M106.7,155.5c-0.1-0.1-0.2-0.3-0.4-0.5C106.4,155.3,106.6,155.4,106.7,155.5z"/>
		<path d="M106.3,153.2c0.1-0.1,0.2-0.3,0.4-0.5C106.6,152.8,106.5,153,106.3,153.2z"/>
		<path d="M107.1,156.1c-0.1-0.1-0.2-0.3-0.4-0.5C106.8,155.7,107,155.9,107.1,156.1z"/>
		<path d="M106.7,152.6c0.1-0.1,0.2-0.3,0.4-0.5C107,152.3,106.8,152.5,106.7,152.6z"/>
		<path d="M39.9,590.2c-0.4-0.3-0.7-0.9-0.7-1.5c0.3-1.7,0.2-3.3,0.3-4.8c0.1-0.7,0.3-1.1,1-1.1c0.7-0.1,1.4,0,2.1,0
			c1.4,0.1,1.4,0.1,1.4,1.8c0.1,1.2,0.3,2.5,0.3,3.7c0.1,1.5-0.3,2.8-1.8,3.1l-0.4-0.1l0.9-0.2v-0.3l-0.4-0.1l0.6-0.7
			c0.2-0.3,0.3-0.5,0.4-0.8c0.5-1.3,0.2-2.7-0.2-4.1c-0.3-1.5-0.5-1.5-2.1-1.5c-1.2,0-1,1.1-1.2,1.9c-0.1,0.2-0.1,0.5,0,0.7
			c0.4,1.8,0.7-2.3,1.3,2.1c-0.2,0.5-0.3,0.9-0.5,1.4h-0.1c-0.2-0.2-0.4-0.6-0.5-0.5C39.9,589.3,40.1,589.8,39.9,590.2L39.9,590.2z"
			/>
		<path d="M48,591.3c-0.3-0.3-0.6-0.8-0.5-1.3c0.2-1.5,0.1-3,0.2-4.5c0.1-1.3,0.2-1.3,2.4-1.3c1.9,0,2.1,0.1,2.1,1.4
			c0.1,1.3,0,2.5,0.1,3.7c0.2,2.9-1.1,4-3.5,2.9l0.1-0.1c0.3,0,0.6-0.1,0.7-0.5c0.2,0,0.2,0,0.4,0c0.2,0.4,0.5,0.5,0.9,0
			c0.1-0.2,0.2-0.3,0.4-0.5c0.7-1.8,0.3-3.7,0.3-5.6c0-0.5-0.2-0.7-0.7-0.8c-0.4-0.1-0.9-0.1-1.2-0.1c-1.5,0-1.5,0-1.7,1.6
			c-0.1,1.6,0,3.1-0.1,4.7L48,591.3z"/>
		<path d="M42.6,591.1c-1,0.9-1.5,0.5-2.1-0.5l0.1-0.1c0.2-0.2,0.3-0.5,0.3-0.9l0.1-0.1c0.5,0.4,1,0.5,1.6,0.6
			c0,0.1,0.1,0.3,0.1,0.5l-0.1,0.1c-0.2,0.1-0.5,0.1-0.7,0.1C42,591.2,42.3,591,42.6,591.1L42.6,591.1z"/>
		<path d="M71.1,588c0.7,0.5,1.3,1.2,1.6,2C71.8,589.8,71.4,589.1,71.1,588z"/>
		<path d="M72.8,589.9c0.7,0.1,1.2,0.3,1.7,1C73.8,591,73.1,590.9,72.8,589.9z"/>
		<path d="M70.4,586c0.5,0.5,0.7,1.2,0.9,2C70.4,587.6,70.4,586.9,70.4,586z"/>
		<path d="M49.1,591.6c-0.5-0.1-0.7-0.4-0.9-1l0.1-0.1c0.1,0,0.2,0,0.4,0.1c0.1,0.2,0.2,0.3,0.4,0.5
			C49.1,591.3,49.1,591.5,49.1,591.6L49.1,591.6z"/>
		<path d="M40.5,590.6c-0.1-0.2-0.2-0.3-0.4-0.5l0.1-0.1C40.2,590.1,40.3,590.3,40.5,590.6L40.5,590.6z"/>
		<path d="M134.5,213.6c0.3,0,0.7,0,1,0c1-0.1,1.4,0.3,1,1.6c-0.2,0.8-0.1,1.7,0.1,2.5c0.1,0.2,0.1,0.5,0.2,0.7
			c0.2,1.5-0.1,2.8-1.2,3.7c-0.9,0.7-1.7,0.6-2.4,0c-1.2-0.9-1.4-2.2-1.2-3.7c0.2-1.3,0.5-2.5,0.2-3.9c-0.2-0.7,0.2-0.9,0.7-0.9
			C133.5,213.6,134,213.6,134.5,213.6L134.5,213.6z M135.6,221.3C135.5,221.4,135.5,221.4,135.6,221.3
			C135.5,221.6,135.6,221.5,135.6,221.3c0.2-0.3,0.4-0.6,0.4-1c0.1-0.1,0.2-0.2,0.2-0.3c0.1-0.2,0.2-0.5-0.1-0.6
			c-0.2-0.1-0.2,0.3-0.2,0.5c0,0.1,0,0.3,0,0.5C135.7,220.7,135.6,221,135.6,221.3z M132.3,221.3v-1c0,0,2.7,0.9,3.2-1
			c0.1-0.5,0.1-1,0.1-1.5c0.7-2.6,0.2-3.5-1.9-3c-0.6,0.1-0.9,0.5-1,1.1c0,0.7-0.1,1.3,0.4,1.9v2.7h-0.7v-0.7c0.2-0.2,0.2-0.5,0-0.5
			c-0.2,0.1-0.1,0.4-0.1,0.6c0.1,0.1,0.2,0.2,0.2,0.3c0.3,0.5,0.4,0.9,0.6,1.1c0.1,0.1,0.1,0.1,0.2,0.1
			C133.2,221.5,132.3,221.3,132.3,221.3z M134.3,222.3C134.3,222.3,134.3,222.4,134.3,222.3h0.1
			C134.3,222.3,134.3,222.2,134.3,222.3L134.3,222.3z"/>
		<path d="M144.2,222.5c-1,1.1-1.8,1.3-2.6,0.6c-0.9-0.8-1.3-2-1.1-3.4c0.2-1.3,0.4-2.6,0.3-3.9c-0.1-0.5,0.1-0.8,0.4-0.8
			c1.1,0,2.2,0,3.3,0.1c0.4,0.1,0.4,0.5,0.1,0.9l-0.1-0.1c-0.9-0.9-1.8-0.5-2.7-0.4c-0.6,0.1-1,1.5-0.6,2.5c0.3,0.9,0.6-0.3,0.9-0.4
			c0.6-0.1,0.9-0.3,1.3,0.4c-1.1,0.3-1.8,1-1.8,2s0.6,1.7,1.8,2c0,0.1,0,0.3,0,0.5c-0.6,0-1,0-1.6,0c-0.1-0.1-0.2-0.3-0.4-0.5
			c-0.1-0.4-0.1-0.8-0.3-1c0-0.1,0-0.3,0-0.5c0-0.2,0-0.5-0.2-0.5c-0.1,0.1-0.1,0.4,0,0.6c0.1,0.1,0.1,0.2,0.2,0.3
			c0,0.4,0.1,0.7,0.3,1c0.1,0.2,0.2,0.3,0.4,0.5c0.4,0.7,1,0.7,1.6,0C143.6,222.4,143.9,222.4,144.2,222.5L144.2,222.5z"/>
		<path d="M144.6,215.7c0.1,1.5,0.5,2.9,0.4,4.4c-0.1,0.9-0.1,1.7-0.9,2.1l-0.1-0.1c0-0.3,0-0.7,0-1c0.7-1.1,0.4-2.3,0.2-3.5
			C144.2,217,143.9,216.3,144.6,215.7L144.6,215.7z"/>
		<path d="M111.1,216.1c-0.6-0.3-1-0.8-1.2-1.5C110.7,214.7,111.1,215.2,111.1,216.1z"/>
		<path d="M112,218.1c-0.5-0.5-0.7-1.2-0.9-2C111.9,216.5,112.1,217.3,112,218.1z"/>
		<path d="M136,196.8c1,0.6,1,1.8,0.7,2.8c-0.2,1.2-0.4,2.4-0.2,3.7c0.2,0.7-0.2,0.9-0.6,1c-1.1,0.1-2.1,0-3.3,0
			c-0.4,0-0.7-0.3-0.6-0.8c0.4-1.5,0-2.9-0.2-4.4c-0.1-1.2,0.2-2.4,1.1-3.1c0.9-0.7,1.8-0.7,2.7,0C135.9,196.2,136,196.5,136,196.8
			c-0.2,0-0.2,0-0.4,0c-0.1-0.1-0.1-0.1-0.2-0.1c0.1,0,0.1,0.1,0.2,0.1c0,0.4,0.1,0.7,0.4,1c0,0.1,0,0.3,0,0.5s0,0.5,0.2,0.5
			c0.2-0.1,0.1-0.4,0.1-0.6c-0.1-0.1-0.2-0.2-0.2-0.3C136,197.5,136,197.2,136,196.8z M133.4,196.8
			C133.4,196.7,133.4,196.7,133.4,196.8C133.4,196.7,133.4,196.7,133.4,196.8c-0.2,0.3-0.4,0.6-0.4,1c-0.1,0.1-0.2,0.2-0.2,0.3
			c-0.1,0.2-0.2,0.5,0.1,0.6c0.2,0.1,0.2-0.3,0.2-0.5c0-0.1,0-0.3,0-0.5C133.2,197.5,133.4,197.2,133.4,196.8z M133.2,200.3
			c-0.6,0.7-0.4,1.7-0.3,2.6c0,0.3,0.2,0.7,0.4,0.7c0.7,0.2,1.5,0.4,2.1,0c0.7-0.3,0.6-1.3,0.5-1.9c-0.2-0.9-0.6-0.2-0.9-0.1
			C134.2,202.1,133.5,201.9,133.2,200.3c0.6,0.3,1.1,1.4,1.9,0.4c0.7-0.9,0.6-1.8,0.2-2.7c-0.1-0.1-0.1-0.3-0.2-0.4
			c-0.4-0.7-0.9-0.7-1.4-0.1C133.4,198.3,133.2,199.3,133.2,200.3z"/>
		<path d="M145,203.9c0.2,0.4,0.3,0.9-0.1,0.9c-1.2,0.1-2.4,0-3.8,0c-0.5,0-0.5-0.5-0.4-0.9c0.2-1.3,0-2.5-0.2-3.7
			c-0.2-1.4,0.4-3.2,1.4-3.6c1-0.5,2.1-0.6,2.8,0.8l-0.1,0.1c-0.4,0.3-0.3,0.7,0.1,0.9l0,0c-0.1,1.2,0.4,2.7-0.9,3.5
			c0.1-1,0.7-2,0.2-3.1c-0.4-0.9-1.1-1.1-1.6-0.3c-0.4,0.6-0.6,1.2-0.3,2.1c0.3,1,1,1.3,1.8,1.4c-0.7,0.8-1.4,0.5-1.9-0.2
			c-0.1-0.1-0.2-0.4-0.4-0.1c-0.4,0.5,0,2.7,0.7,2.7c1,0.1,2.1,0.5,3-0.4L145,203.9z M141.9,197.4c-0.1,0.2-0.2,0.3-0.4,0.5
			c-0.2,0.3-0.4,0.6-0.4,1c-0.1,0.1-0.2,0.2-0.2,0.3c-0.1,0.2-0.2,0.5,0.1,0.6c0.2,0.1,0.2-0.3,0.2-0.5c0-0.1,0-0.3,0-0.5
			c0.3-0.2,0.4-0.6,0.4-1C141.7,197.7,141.8,197.6,141.9,197.4c0.2-0.1,0.4,0,0.4-0.3c0,0-0.1-0.1-0.2-0.1
			C142.1,197.2,142.1,197.3,141.9,197.4z"/>
		<path d="M144.6,197.4c1.4,1.2,0.7,2.9,0.7,4.4c0,0.7-0.4,1.4-0.3,2.2l-0.1,0.1c-0.5-0.6-0.3-1.3-0.2-2c0.2-1.2,0.5-2.4-0.2-3.5
			l0,0c0-0.3,0-0.6-0.1-0.9L144.6,197.4z"/>
		<path d="M112.2,201.6c-0.5-0.5-0.7-1.2-0.9-2C112,199.9,112.2,200.7,112.2,201.6z"/>
		<path d="M110.5,198.5c-0.6,0-1-0.3-1.2-1C109.9,197.5,110.2,197.8,110.5,198.5z"/>
		<path d="M110.9,199c-0.1-0.1-0.2-0.3-0.4-0.5C110.6,198.6,110.8,198.8,110.9,199z"/>
		<path d="M111.3,199.5c-0.1-0.1-0.2-0.3-0.4-0.5C111.1,199.2,111.1,199.3,111.3,199.5z"/>
		<path d="M40.9,563.2c1.8-1.3,3.3-0.4,3.3,2.1c0.1,1.5-0.5,2.9-0.2,4.4c0.1,0.4-0.2,0.7-0.6,0.7c-0.2,0.1-0.5,0.1-0.7,0.1
			c-3,0-2.7,0.1-2.7-3c0-0.6,0-1.2-0.2-1.8c-0.2-0.8,0-1.4,0.5-2l0.1,0.1c0.1,0.3-0.2,0.7,0.2,0.9c0.1,0.1,0.9-0.5,0.9-0.5v3.1
			c-0.2,0.1-0.3-1.1-0.6-0.1c-0.1,0.4,0,0.7,0,1.1c0.2,1.6,0.2,1.6,1.5,1.6c1.3,0,1.3,0,1.3-1.8c0-0.3,0-0.9,0-0.9s0.2-2.1-0.4-3.1
			c-0.1-0.2-0.2-0.3-0.3-0.5c-0.1-0.1-0.1-0.1-0.1-0.1c0.1,0.1,0.1,0.1,0.2,0.1c0.2,0.1,0.6,0.4,0.6,0.4v3.2c0,0-1.3,1.5-2.1,0.4
			c1-0.2,1.4-0.8,1.4-1.9c0.1-1.2-0.4-1.9-1.4-2.2c-0.2-0.3-0.4-0.4-0.7-0.4L40.9,563.2z"/>
		<path d="M52.3,564.5c0.4,0.5,0.5,1.1,0.5,1.8c-0.1,1.3-0.2,2.7-0.2,3.9c0,1.1-0.6,1.5-1.4,1.3c-1-0.2-2.6,0.9-3.1-0.9
			c-0.3-1.7-0.3-3.7-0.1-5.6c0-0.2,0.2-0.4,0.4-0.5l0.1,0.1c0,1.7,0,3.5,0.1,5.1c0,0.9,0.2,1.4,1.1,1.3c0.4-0.1,0.9-0.1,1.2,0
			c0.9,0.1,1-0.4,1.2-1.3C52.3,568.2,52.2,566.3,52.3,564.5L52.3,564.5z"/>
		<path d="M49.4,563.4c0.7-0.7,1.4-0.7,2.1,0l-0.1,0.1c-0.2,0.1-0.3,0.1-0.5,0.2c0.2,0.1,0.3,0.1,0.5,0.2l0.1,0.1
			c0.1,0.1,0.2,0.3,0.4,0.5l0,0c0,1.1,0,2.1-0.1,3.2c-0.1,0.7-0.4,1.2-1.1,1.3c-0.7,0.1-1.3,0.1-1.4-1c0.7,0.3,1.4,0.8,1.8-0.2
			c0.4-0.8,0.3-1.8,0-2.7c-0.2-0.4-0.5-0.6-0.9-0.6c-0.4,0.1-0.9,0.4-1,0.9c-0.1,0.8-0.1,1.7-0.2,2.5c-0.7-1.1-0.2-2.3-0.4-3.5l0,0
			c0.1-0.1,0.2-0.3,0.4-0.5l0,0c0.2-0.1,0.3-0.1,0.5-0.2C49.7,563.6,49.5,563.6,49.4,563.4L49.4,563.4z"/>
		<path d="M71.8,570.3c0.4,0.2,0.7,0.5,0.9,1C72,571.4,71.8,570.9,71.8,570.3z"/>
		<path d="M51.6,563.4c0.5,0.1,0.7,0.4,0.9,1l-0.1,0.1c-0.1,0-0.2,0-0.4-0.1l0,0c-0.1-0.1-0.2-0.3-0.4-0.5l-0.1-0.1
			C51.4,563.8,51.4,563.7,51.6,563.4L51.6,563.4z"/>
		<path d="M48.5,564.8c0.1-0.6,0.3-0.9,0.9-1l0.1,0.1c0,0.1,0,0.3,0,0.5l0,0c-0.1,0.1-0.2,0.3-0.4,0.5l0,0
			C49,564.9,48.8,564.9,48.5,564.8L48.5,564.8z"/>
		<path d="M40.3,563.3c0.1-0.1,0.2-0.3,0.4-0.5l0.1,0.1C40.6,563,40.4,563.2,40.3,563.3L40.3,563.3z"/>
		<path d="M71.3,569.8c0.1,0.1,0.2,0.3,0.4,0.5C71.6,570.1,71.4,569.9,71.3,569.8z"/>
		<path d="M43.6,589.6c-0.1,0-0.2,0-0.4,0c0.1-1.4,0.1-2.9-0.7-4c0.9,0.1,1.2,0.7,1.2,1.6C43.6,588.1,43.6,588.8,43.6,589.6z"/>
		<path d="M42.2,585.7c-0.4,0.2-0.7,0.5-1.2,0.5C41.2,585.6,41.5,584.8,42.2,585.7z"/>
		<path d="M43.6,589.6c0,0-1,0-1.1,0c0.1-0.1,0.2-0.5,0.2-0.5l0.9,0.3V589.6L43.6,589.6z"/>
		<path d="M51.6,591.1c-0.2,0.1-0.2,0.3-0.4,0.5c-0.2,0-0.6,0-0.9,0c1-1.1,1-2.5,0.9-4C52.1,588.6,51.6,589.9,51.6,591.1z"/>
		<path d="M48.8,591c0.1-1.1-0.3-2.4,0.4-3.4c-0.1,1.4-0.1,2.9,0.7,4c-0.2,0-0.6,0-0.9,0C49.1,591.3,49,591.3,48.8,591z"/>
		<path d="M51.3,587.2c-0.7-0.5-1.4-0.6-2.1,0C50,585.8,50.5,585.8,51.3,587.2z"/>
		<path d="M134,216.9c1-0.8,1.4,0,1.7,1C135.1,217.6,134.5,217.3,134,216.9z"/>
		<path d="M133.1,217.9c0-0.6,0.2-0.9,0.9-1C133.8,217.4,133.5,217.7,133.1,217.9z"/>
		<path d="M144.3,221.5c-0.2,0.1-0.6,0.3-0.9,0.5c0.4-1.3,0.4-2.7,0-4C144.7,218.9,144.2,220.3,144.3,221.5z"/>
		<path d="M41.1,567.5c0.1,0.1,0.2,0.3,0.4,0.5C41.4,567.8,41.2,567.6,41.1,567.5z"/>
		<path d="M41.1,563.9c0.1-0.1,0.2-0.3,0.4-0.5C41.4,563.5,41.2,563.7,41.1,563.9z"/>
	</g>
	<text transform="matrix(0.801 1.020288e-02 -8.023528e-03 1 112.5058 74.8293)" class="st1 st2 st3">Lab HES</text>
	<text transform="matrix(1.001855e-02 -1.2483 0.9999 1.273979e-02 135.3497 175.0665)" class="st1 st2 st4">Ruang Dosen</text>
	<text transform="matrix(1.001855e-02 -1.2483 0.9999 1.273979e-02 134.1445 325.1129)" class="st1 st2 st4">Ruang Dosen</text>
	<text transform="matrix(1.001855e-02 -1.2483 0.9999 1.273979e-02 49.5815 693.3734)" class="st1 st2 st4">Ruang Dosen</text>
	<text transform="matrix(0.801 1.020333e-02 -8.023894e-03 1 27.731 444.1178)" class="st1 st2 st3">Lab IoT</text>
	<text transform="matrix(0.801 1.020333e-02 -8.023894e-03 1 23.8443 721.2923)" class="st1 st2 st3">Lab NOS</text>
	<text transform="matrix(0.801 1.020333e-02 -8.023894e-03 1 105.8543 355.8646)" class="st1 st2 st3">Lab Foresty</text>
	<text transform="matrix(0.801 1.020333e-02 -8.023894e-03 1 7.4311 763.9827)" class="st1 st2 st5">Arah GSG</text>
	<text transform="matrix(0.801 1.020333e-02 -8.023894e-03 1 139.0573 35.2582)" class="st1 st2 st5">Arah Parkiran</text>
	<text transform="matrix(1.001855e-02 -1.2483 0.9999 1.273979e-02 50.7759 541.5645)" class="st1 st2 st4">Ruang Dosen</text>
	<text transform="matrix(0.6831 1.020293e-02 -6.843545e-03 1 21.81 399.4136)" class="st1 st2 st6">Ruang Sidang</text>
</g>
</svg>
